M48
; DRILL file {KiCad 8.0.8-8.0.8-0~ubuntu22.04.1} date 2025-03-09T08:59:42-0400
; FORMAT={-:-/ absolute / inch / decimal}
; #@! TF.CreationDate,2025-03-09T08:59:42-04:00
; #@! TF.GenerationSoftware,Kicad,Pcbnew,8.0.8-8.0.8-0~ubuntu22.04.1
; #@! TF.FileFunction,Plated,1,2,PTH
FMAT,2
INCH
; #@! TA.AperFunction,Plated,PTH,ComponentDrill
T1C0.0433
; #@! TA.AperFunction,Plated,PTH,ComponentDrill
T2C0.0591
%
G90
G05
T1
X1.89Y-3.15
X1.89Y-3.9
X1.9837Y-6.9
X2.0775Y-4.65
X2.1713Y-5.4
X2.19Y-3.15
X2.19Y-3.9
X2.2837Y-6.9
X2.3588Y-6.15
X2.3775Y-4.65
X2.4712Y-5.4
X2.64Y-3.15
X2.64Y-3.9
X2.6587Y-6.15
X2.9213Y-6.9
X2.94Y-3.15
X2.94Y-3.9
X3.015Y-4.65
X3.2025Y-5.4
X3.2212Y-6.9
X3.315Y-4.65
X3.39Y-3.15
X3.39Y-3.9
X3.5025Y-5.4
X3.5775Y-6.15
X3.69Y-3.15
X3.69Y-3.9
X3.765Y-4.65
X3.8588Y-6.9
X3.8775Y-6.15
X3.9525Y-5.4
X4.065Y-4.65
X4.14Y-3.15
X4.14Y-3.9
X4.1587Y-6.9
X4.2525Y-5.4
X4.3275Y-6.15
X4.44Y-3.15
X4.44Y-3.9
X4.515Y-4.65
X4.6275Y-6.15
X4.7025Y-5.4
X4.815Y-4.65
X4.89Y-3.15
X4.89Y-3.9
X5.0025Y-5.4
X5.0775Y-6.15
X5.19Y-3.15
X5.19Y-3.9
X5.265Y-4.65
X5.3775Y-6.15
X5.4525Y-5.4
X5.565Y-4.65
X5.64Y-3.15
X5.64Y-3.9
X5.7525Y-5.4
X5.8275Y-6.15
X5.94Y-3.15
X5.94Y-3.9
X6.015Y-4.65
X6.1275Y-6.15
X6.2025Y-5.4
X6.315Y-4.65
X6.39Y-3.15
X6.39Y-3.9
X6.5025Y-5.4
X6.5775Y-6.15
X6.6712Y-6.9
X6.69Y-3.15
X6.69Y-3.9
X6.765Y-4.65
X6.8775Y-6.15
X6.9525Y-5.4
X6.9712Y-6.9
X7.065Y-4.65
X7.14Y-3.15
X7.14Y-3.9
X7.2525Y-5.4
X7.3275Y-6.15
X7.44Y-3.15
X7.44Y-3.9
X7.515Y-4.65
X7.6275Y-6.15
X7.7025Y-5.4
X7.815Y-4.65
X7.89Y-3.15
X7.89Y-3.9
X8.0025Y-5.4
X8.0775Y-6.15
X8.19Y-3.15
X8.19Y-3.9
X8.265Y-4.65
X8.3775Y-6.15
X8.4525Y-5.4
X8.565Y-4.65
X8.64Y-3.15
X8.64Y-3.9
X8.7525Y-5.4
X8.8275Y-6.15
X8.94Y-3.15
X8.94Y-3.9
X9.015Y-4.65
X9.1275Y-6.15
X9.2025Y-5.4
X9.315Y-4.65
X9.39Y-3.15
X9.39Y-3.9
X9.39Y-6.9
X9.5025Y-5.4
X9.5775Y-6.15
X9.69Y-3.15
X9.69Y-3.9
X9.69Y-6.9
X9.765Y-4.65
X9.8775Y-6.15
X9.9525Y-5.4
X10.065Y-4.65
X10.14Y-3.15
X10.14Y-3.9
X10.14Y-6.9
X10.2525Y-5.4
X10.3275Y-6.15
X10.44Y-3.15
X10.44Y-3.9
X10.44Y-6.9
X10.515Y-4.65
X10.6275Y-6.15
X10.7025Y-5.4
X10.815Y-4.65
X10.89Y-3.15
X10.89Y-3.9
X10.89Y-6.9
X11.0025Y-5.4
X11.19Y-3.15
X11.19Y-3.9
X11.19Y-6.9
X11.265Y-4.65
X11.3588Y-6.15
X11.565Y-4.65
X11.64Y-3.15
X11.64Y-6.9
X11.6587Y-6.15
X11.9213Y-5.4
X11.94Y-3.15
X11.94Y-6.9
X12.015Y-3.9
X12.2025Y-4.65
X12.2212Y-5.4
X12.315Y-3.9
X12.39Y-3.15
X12.39Y-6.15
X12.39Y-6.9
X12.5025Y-4.65
X12.69Y-3.15
X12.69Y-6.15
X12.69Y-6.9
X13.14Y-3.15
X13.14Y-3.9
X13.14Y-4.65
X13.14Y-5.4
X13.14Y-6.15
X13.14Y-6.9
X13.44Y-3.15
X13.44Y-3.9
X13.44Y-4.65
X13.44Y-5.4
X13.44Y-6.15
X13.44Y-6.9
T2
X1.8416Y-2.6791
X1.8416Y-3.4291
X1.9353Y-6.4291
X2.0291Y-4.1791
X2.0916Y-2.5791
X2.0916Y-3.3291
X2.1228Y-4.9291
X2.1853Y-6.3291
X2.2791Y-4.0791
X2.3103Y-5.6791
X2.3728Y-4.8291
X2.5603Y-5.5791
X2.5916Y-2.6791
X2.5916Y-3.4291
X2.8416Y-2.5791
X2.8416Y-3.3291
X2.8728Y-6.4291
X2.9666Y-4.1791
X3.1228Y-6.3291
X3.1541Y-4.9291
X3.2166Y-4.0791
X3.3416Y-2.6791
X3.3416Y-3.4291
X3.4041Y-4.8291
X3.5291Y-5.6791
X3.5916Y-2.5791
X3.5916Y-3.3291
X3.7166Y-4.1791
X3.7791Y-5.5791
X3.8103Y-6.4291
X3.9041Y-4.9291
X3.9666Y-4.0791
X4.0603Y-6.3291
X4.0916Y-2.6791
X4.0916Y-3.4291
X4.1541Y-4.8291
X4.2791Y-5.6791
X4.3416Y-2.5791
X4.3416Y-3.3291
X4.4666Y-4.1791
X4.5291Y-5.5791
X4.6541Y-4.9291
X4.7166Y-4.0791
X4.8416Y-2.6791
X4.8416Y-3.4291
X4.9041Y-4.8291
X5.0291Y-5.6791
X5.0916Y-2.5791
X5.0916Y-3.3291
X5.2166Y-4.1791
X5.2791Y-5.5791
X5.4041Y-4.9291
X5.4666Y-4.0791
X5.5916Y-2.6791
X5.5916Y-3.4291
X5.6541Y-4.8291
X5.7791Y-5.6791
X5.8416Y-2.5791
X5.8416Y-3.3291
X5.9666Y-4.1791
X6.0291Y-5.5791
X6.1541Y-4.9291
X6.2166Y-4.0791
X6.3416Y-2.6791
X6.3416Y-3.4291
X6.4041Y-4.8291
X6.5291Y-5.6791
X6.5916Y-2.5791
X6.5916Y-3.3291
X6.6228Y-6.4291
X6.7166Y-4.1791
X6.7791Y-5.5791
X6.8728Y-6.3291
X6.9041Y-4.9291
X6.9666Y-4.0791
X7.0916Y-2.6791
X7.0916Y-3.4291
X7.1541Y-4.8291
X7.2791Y-5.6791
X7.3416Y-2.5791
X7.3416Y-3.3291
X7.4666Y-4.1791
X7.5291Y-5.5791
X7.6541Y-4.9291
X7.7166Y-4.0791
X7.8416Y-2.6791
X7.8416Y-3.4291
X7.9041Y-4.8291
X8.0291Y-5.6791
X8.0916Y-2.5791
X8.0916Y-3.3291
X8.2166Y-4.1791
X8.2791Y-5.5791
X8.4041Y-4.9291
X8.4666Y-4.0791
X8.5916Y-2.6791
X8.5916Y-3.4291
X8.6541Y-4.8291
X8.7791Y-5.6791
X8.8416Y-2.5791
X8.8416Y-3.3291
X8.9666Y-4.1791
X9.0291Y-5.5791
X9.1541Y-4.9291
X9.2166Y-4.0791
X9.3416Y-2.6791
X9.3416Y-3.4291
X9.3416Y-6.4291
X9.4041Y-4.8291
X9.5291Y-5.6791
X9.5916Y-2.5791
X9.5916Y-3.3291
X9.5916Y-6.3291
X9.7166Y-4.1791
X9.7791Y-5.5791
X9.9041Y-4.9291
X9.9666Y-4.0791
X10.0916Y-2.6791
X10.0916Y-3.4291
X10.0916Y-6.4291
X10.1541Y-4.8291
X10.2791Y-5.6791
X10.3416Y-2.5791
X10.3416Y-3.3291
X10.3416Y-6.3291
X10.4666Y-4.1791
X10.5291Y-5.5791
X10.6541Y-4.9291
X10.7166Y-4.0791
X10.8416Y-2.6791
X10.8416Y-3.4291
X10.8416Y-6.4291
X10.9041Y-4.8291
X11.0916Y-2.5791
X11.0916Y-3.3291
X11.0916Y-6.3291
X11.2166Y-4.1791
X11.3103Y-5.6791
X11.4666Y-4.0791
X11.5603Y-5.5791
X11.5916Y-2.6791
X11.5916Y-6.4291
X11.8416Y-2.5791
X11.8416Y-6.3291
X11.8728Y-4.9291
X11.9666Y-3.4291
X12.1228Y-4.8291
X12.1541Y-4.1791
X12.2166Y-3.3291
X12.3416Y-2.6791
X12.3416Y-5.6791
X12.3416Y-6.4291
X12.4041Y-4.0791
X12.5916Y-2.5791
X12.5916Y-5.5791
X12.5916Y-6.3291
X13.0916Y-2.6791
X13.0916Y-3.4291
X13.0916Y-4.1791
X13.0916Y-4.9291
X13.0916Y-5.6791
X13.0916Y-6.4291
X13.3416Y-2.5791
X13.3416Y-3.3291
X13.3416Y-4.0791
X13.3416Y-4.8291
X13.3416Y-5.5791
X13.3416Y-6.3291
M30
