%TF.GenerationSoftware,KiCad,Pcbnew,8.0.8-8.0.8-0~ubuntu22.04.1*%
%TF.CreationDate,2025-03-09T08:59:39-04:00*%
%TF.ProjectId,kb_test,6b625f74-6573-4742-9e6b-696361645f70,rev?*%
%TF.SameCoordinates,Original*%
%TF.FileFunction,Soldermask,Top*%
%TF.FilePolarity,Negative*%
%FSLAX46Y46*%
G04 Gerber Fmt 4.6, Leading zero omitted, Abs format (unit mm)*
G04 Created by KiCad (PCBNEW 8.0.8-8.0.8-0~ubuntu22.04.1) date 2025-03-09 08:59:39*
%MOMM*%
%LPD*%
G01*
G04 APERTURE LIST*
%ADD10R,2.200000X2.200000*%
%ADD11O,2.200000X2.200000*%
%ADD12C,1.700000*%
%ADD13C,4.000000*%
%ADD14C,2.200000*%
G04 APERTURE END LIST*
D10*
%TO.C,D53*%
X184213500Y-137160000D03*
D11*
X176593500Y-137160000D03*
%TD*%
D12*
%TO.C,SW26*%
X216956000Y-89640000D03*
D13*
X222036000Y-89640000D03*
D12*
X227116000Y-89640000D03*
D14*
X224576000Y-84560000D03*
X218226000Y-87100000D03*
%TD*%
D12*
%TO.C,SW12*%
X255056000Y-70590000D03*
D13*
X260136000Y-70590000D03*
D12*
X265216000Y-70590000D03*
D14*
X262676000Y-65510000D03*
X256326000Y-68050000D03*
%TD*%
D10*
%TO.C,D23*%
X169926000Y-99060000D03*
D11*
X162306000Y-99060000D03*
%TD*%
D10*
%TO.C,D29*%
X284226000Y-99060000D03*
D11*
X276606000Y-99060000D03*
%TD*%
D12*
%TO.C,SW62*%
X88368500Y-146790000D03*
D13*
X93448500Y-146790000D03*
D12*
X98528500Y-146790000D03*
D14*
X95988500Y-141710000D03*
X89638500Y-144250000D03*
%TD*%
D10*
%TO.C,D48*%
X88963500Y-137160000D03*
D11*
X81343500Y-137160000D03*
%TD*%
D10*
%TO.C,D60*%
X341376000Y-137160000D03*
D11*
X333756000Y-137160000D03*
%TD*%
D12*
%TO.C,SW15*%
X312206000Y-70590000D03*
D13*
X317286000Y-70590000D03*
D12*
X322366000Y-70590000D03*
D14*
X319826000Y-65510000D03*
X313476000Y-68050000D03*
%TD*%
D12*
%TO.C,SW84*%
X331256000Y-165840000D03*
D13*
X336336000Y-165840000D03*
D12*
X341416000Y-165840000D03*
D14*
X338876000Y-160760000D03*
X332526000Y-163300000D03*
%TD*%
D10*
%TO.C,D34*%
X103251000Y-118110000D03*
D11*
X95631000Y-118110000D03*
%TD*%
D12*
%TO.C,SW37*%
X150281000Y-108690000D03*
D13*
X155361000Y-108690000D03*
D12*
X160441000Y-108690000D03*
D14*
X157901000Y-103610000D03*
X151551000Y-106150000D03*
%TD*%
D10*
%TO.C,D1*%
X55626000Y-80010000D03*
D11*
X48006000Y-80010000D03*
%TD*%
D12*
%TO.C,SW78*%
X166949750Y-165840000D03*
D13*
X172029750Y-165840000D03*
D12*
X177109750Y-165840000D03*
D14*
X174569750Y-160760000D03*
X168219750Y-163300000D03*
%TD*%
D10*
%TO.C,D43*%
X274701000Y-118110000D03*
D11*
X267081000Y-118110000D03*
%TD*%
D12*
%TO.C,SW53*%
X174093500Y-127740000D03*
D13*
X179173500Y-127740000D03*
D12*
X184253500Y-127740000D03*
D14*
X181713500Y-122660000D03*
X175363500Y-125200000D03*
%TD*%
D10*
%TO.C,D12*%
X265176000Y-80010000D03*
D11*
X257556000Y-80010000D03*
%TD*%
D12*
%TO.C,SW68*%
X202668500Y-146790000D03*
D13*
X207748500Y-146790000D03*
D12*
X212828500Y-146790000D03*
D14*
X210288500Y-141710000D03*
X203938500Y-144250000D03*
%TD*%
D12*
%TO.C,SW29*%
X274106000Y-89640000D03*
D13*
X279186000Y-89640000D03*
D12*
X284266000Y-89640000D03*
D14*
X281726000Y-84560000D03*
X275376000Y-87100000D03*
%TD*%
D10*
%TO.C,D73*%
X322326000Y-156210000D03*
D11*
X314706000Y-156210000D03*
%TD*%
D10*
%TO.C,D24*%
X188976000Y-99060000D03*
D11*
X181356000Y-99060000D03*
%TD*%
D10*
%TO.C,D40*%
X217551000Y-118110000D03*
D11*
X209931000Y-118110000D03*
%TD*%
D10*
%TO.C,D62*%
X98488500Y-156210000D03*
D11*
X90868500Y-156210000D03*
%TD*%
D12*
%TO.C,SW34*%
X93131000Y-108690000D03*
D13*
X98211000Y-108690000D03*
D12*
X103291000Y-108690000D03*
D14*
X100751000Y-103610000D03*
X94401000Y-106150000D03*
%TD*%
D12*
%TO.C,SW24*%
X178856000Y-89640000D03*
D13*
X183936000Y-89640000D03*
D12*
X189016000Y-89640000D03*
D14*
X186476000Y-84560000D03*
X180126000Y-87100000D03*
%TD*%
D12*
%TO.C,SW32*%
X50268500Y-108690000D03*
D13*
X55348500Y-108690000D03*
D12*
X60428500Y-108690000D03*
D14*
X57888500Y-103610000D03*
X51538500Y-106150000D03*
%TD*%
D12*
%TO.C,SW16*%
X331256000Y-70590000D03*
D13*
X336336000Y-70590000D03*
D12*
X341416000Y-70590000D03*
D14*
X338876000Y-65510000D03*
X332526000Y-68050000D03*
%TD*%
D12*
%TO.C,SW54*%
X193143500Y-127740000D03*
D13*
X198223500Y-127740000D03*
D12*
X203303500Y-127740000D03*
D14*
X200763500Y-122660000D03*
X194413500Y-125200000D03*
%TD*%
D10*
%TO.C,D84*%
X341376000Y-175260000D03*
D11*
X333756000Y-175260000D03*
%TD*%
D12*
%TO.C,SW36*%
X131231000Y-108690000D03*
D13*
X136311000Y-108690000D03*
D12*
X141391000Y-108690000D03*
D14*
X138851000Y-103610000D03*
X132501000Y-106150000D03*
%TD*%
D12*
%TO.C,SW6*%
X140756000Y-70590000D03*
D13*
X145836000Y-70590000D03*
D12*
X150916000Y-70590000D03*
D14*
X148376000Y-65510000D03*
X142026000Y-68050000D03*
%TD*%
D12*
%TO.C,SW44*%
X283631000Y-108690000D03*
D13*
X288711000Y-108690000D03*
D12*
X293791000Y-108690000D03*
D14*
X291251000Y-103610000D03*
X284901000Y-106150000D03*
%TD*%
D12*
%TO.C,SW9*%
X197906000Y-70590000D03*
D13*
X202986000Y-70590000D03*
D12*
X208066000Y-70590000D03*
D14*
X205526000Y-65510000D03*
X199176000Y-68050000D03*
%TD*%
D12*
%TO.C,SW51*%
X135993500Y-127740000D03*
D13*
X141073500Y-127740000D03*
D12*
X146153500Y-127740000D03*
D14*
X143613500Y-122660000D03*
X137263500Y-125200000D03*
%TD*%
D12*
%TO.C,SW45*%
X307443500Y-108690000D03*
D13*
X312523500Y-108690000D03*
D12*
X317603500Y-108690000D03*
D14*
X315063500Y-103610000D03*
X308713500Y-106150000D03*
%TD*%
D10*
%TO.C,D36*%
X141351000Y-118110000D03*
D11*
X133731000Y-118110000D03*
%TD*%
D10*
%TO.C,D76*%
X81819750Y-175260000D03*
D11*
X74199750Y-175260000D03*
%TD*%
D12*
%TO.C,SW52*%
X155043500Y-127740000D03*
D13*
X160123500Y-127740000D03*
D12*
X165203500Y-127740000D03*
D14*
X162663500Y-122660000D03*
X156313500Y-125200000D03*
%TD*%
D12*
%TO.C,SW58*%
X269343500Y-127740000D03*
D13*
X274423500Y-127740000D03*
D12*
X279503500Y-127740000D03*
D14*
X276963500Y-122660000D03*
X270613500Y-125200000D03*
%TD*%
D10*
%TO.C,D69*%
X231838500Y-156210000D03*
D11*
X224218500Y-156210000D03*
%TD*%
D12*
%TO.C,SW66*%
X164568500Y-146790000D03*
D13*
X169648500Y-146790000D03*
D12*
X174728500Y-146790000D03*
D14*
X172188500Y-141710000D03*
X165838500Y-144250000D03*
%TD*%
D10*
%TO.C,D5*%
X131826000Y-80010000D03*
D11*
X124206000Y-80010000D03*
%TD*%
D10*
%TO.C,D38*%
X179451000Y-118110000D03*
D11*
X171831000Y-118110000D03*
%TD*%
D10*
%TO.C,D21*%
X131826000Y-99060000D03*
D11*
X124206000Y-99060000D03*
%TD*%
D10*
%TO.C,D30*%
X312801000Y-99060000D03*
D11*
X305181000Y-99060000D03*
%TD*%
D12*
%TO.C,SW33*%
X74081000Y-108690000D03*
D13*
X79161000Y-108690000D03*
D12*
X84241000Y-108690000D03*
D14*
X81701000Y-103610000D03*
X75351000Y-106150000D03*
%TD*%
D12*
%TO.C,SW14*%
X293156000Y-70590000D03*
D13*
X298236000Y-70590000D03*
D12*
X303316000Y-70590000D03*
D14*
X300776000Y-65510000D03*
X294426000Y-68050000D03*
%TD*%
D10*
%TO.C,D10*%
X227076000Y-80010000D03*
D11*
X219456000Y-80010000D03*
%TD*%
D10*
%TO.C,D16*%
X341376000Y-80010000D03*
D11*
X333756000Y-80010000D03*
%TD*%
D12*
%TO.C,SW77*%
X95512250Y-165840000D03*
D13*
X100592250Y-165840000D03*
D12*
X105672250Y-165840000D03*
D14*
X103132250Y-160760000D03*
X96782250Y-163300000D03*
%TD*%
D10*
%TO.C,D28*%
X265176000Y-99060000D03*
D11*
X257556000Y-99060000D03*
%TD*%
D10*
%TO.C,D11*%
X246126000Y-80010000D03*
D11*
X238506000Y-80010000D03*
%TD*%
D10*
%TO.C,D39*%
X198501000Y-118110000D03*
D11*
X190881000Y-118110000D03*
%TD*%
D12*
%TO.C,SW71*%
X259818500Y-146790000D03*
D13*
X264898500Y-146790000D03*
D12*
X269978500Y-146790000D03*
D14*
X267438500Y-141710000D03*
X261088500Y-144250000D03*
%TD*%
D12*
%TO.C,SW20*%
X102656000Y-89640000D03*
D13*
X107736000Y-89640000D03*
D12*
X112816000Y-89640000D03*
D14*
X110276000Y-84560000D03*
X103926000Y-87100000D03*
%TD*%
D10*
%TO.C,D82*%
X303276000Y-175260000D03*
D11*
X295656000Y-175260000D03*
%TD*%
D10*
%TO.C,D74*%
X341376000Y-156210000D03*
D11*
X333756000Y-156210000D03*
%TD*%
D12*
%TO.C,SW39*%
X188381000Y-108690000D03*
D13*
X193461000Y-108690000D03*
D12*
X198541000Y-108690000D03*
D14*
X196001000Y-103610000D03*
X189651000Y-106150000D03*
%TD*%
D12*
%TO.C,SW83*%
X312206000Y-165840000D03*
D13*
X317286000Y-165840000D03*
D12*
X322366000Y-165840000D03*
D14*
X319826000Y-160760000D03*
X313476000Y-163300000D03*
%TD*%
D12*
%TO.C,SW38*%
X169331000Y-108690000D03*
D13*
X174411000Y-108690000D03*
D12*
X179491000Y-108690000D03*
D14*
X176951000Y-103610000D03*
X170601000Y-106150000D03*
%TD*%
D10*
%TO.C,D59*%
X310419750Y-137160000D03*
D11*
X302799750Y-137160000D03*
%TD*%
D10*
%TO.C,D42*%
X255651000Y-118110000D03*
D11*
X248031000Y-118110000D03*
%TD*%
D12*
%TO.C,SW80*%
X255056000Y-165840000D03*
D13*
X260136000Y-165840000D03*
D12*
X265216000Y-165840000D03*
D14*
X262676000Y-160760000D03*
X256326000Y-163300000D03*
%TD*%
D10*
%TO.C,D13*%
X284226000Y-80010000D03*
D11*
X276606000Y-80010000D03*
%TD*%
D12*
%TO.C,SW48*%
X78843500Y-127740000D03*
D13*
X83923500Y-127740000D03*
D12*
X89003500Y-127740000D03*
D14*
X86463500Y-122660000D03*
X80113500Y-125200000D03*
%TD*%
D10*
%TO.C,D83*%
X322326000Y-175260000D03*
D11*
X314706000Y-175260000D03*
%TD*%
D10*
%TO.C,D55*%
X222313500Y-137160000D03*
D11*
X214693500Y-137160000D03*
%TD*%
D12*
%TO.C,SW79*%
X236006000Y-165840000D03*
D13*
X241086000Y-165840000D03*
D12*
X246166000Y-165840000D03*
D14*
X243626000Y-160760000D03*
X237276000Y-163300000D03*
%TD*%
D12*
%TO.C,SW35*%
X112181000Y-108690000D03*
D13*
X117261000Y-108690000D03*
D12*
X122341000Y-108690000D03*
D14*
X119801000Y-103610000D03*
X113451000Y-106150000D03*
%TD*%
D12*
%TO.C,SW23*%
X159806000Y-89640000D03*
D13*
X164886000Y-89640000D03*
D12*
X169966000Y-89640000D03*
D14*
X167426000Y-84560000D03*
X161076000Y-87100000D03*
%TD*%
D10*
%TO.C,D41*%
X236601000Y-118110000D03*
D11*
X228981000Y-118110000D03*
%TD*%
D10*
%TO.C,D27*%
X246126000Y-99060000D03*
D11*
X238506000Y-99060000D03*
%TD*%
D12*
%TO.C,SW43*%
X264581000Y-108690000D03*
D13*
X269661000Y-108690000D03*
D12*
X274741000Y-108690000D03*
D14*
X272201000Y-103610000D03*
X265851000Y-106150000D03*
%TD*%
D12*
%TO.C,SW8*%
X178856000Y-70590000D03*
D13*
X183936000Y-70590000D03*
D12*
X189016000Y-70590000D03*
D14*
X186476000Y-65510000D03*
X180126000Y-68050000D03*
%TD*%
D12*
%TO.C,SW69*%
X221718500Y-146790000D03*
D13*
X226798500Y-146790000D03*
D12*
X231878500Y-146790000D03*
D14*
X229338500Y-141710000D03*
X222988500Y-144250000D03*
%TD*%
D12*
%TO.C,SW21*%
X121706000Y-89640000D03*
D13*
X126786000Y-89640000D03*
D12*
X131866000Y-89640000D03*
D14*
X129326000Y-84560000D03*
X122976000Y-87100000D03*
%TD*%
D10*
%TO.C,D46*%
X341376000Y-118110000D03*
D11*
X333756000Y-118110000D03*
%TD*%
D10*
%TO.C,D79*%
X246126000Y-175260000D03*
D11*
X238506000Y-175260000D03*
%TD*%
D10*
%TO.C,D72*%
X296132250Y-156210000D03*
D11*
X288512250Y-156210000D03*
%TD*%
D10*
%TO.C,D71*%
X269938500Y-156210000D03*
D11*
X262318500Y-156210000D03*
%TD*%
D12*
%TO.C,SW5*%
X121706000Y-70590000D03*
D13*
X126786000Y-70590000D03*
D12*
X131866000Y-70590000D03*
D14*
X129326000Y-65510000D03*
X122976000Y-68050000D03*
%TD*%
D12*
%TO.C,SW30*%
X302681000Y-89640000D03*
D13*
X307761000Y-89640000D03*
D12*
X312841000Y-89640000D03*
D14*
X310301000Y-84560000D03*
X303951000Y-87100000D03*
%TD*%
D10*
%TO.C,D35*%
X122301000Y-118110000D03*
D11*
X114681000Y-118110000D03*
%TD*%
D10*
%TO.C,D6*%
X150876000Y-80010000D03*
D11*
X143256000Y-80010000D03*
%TD*%
D12*
%TO.C,SW72*%
X286012250Y-146790000D03*
D13*
X291092250Y-146790000D03*
D12*
X296172250Y-146790000D03*
D14*
X293632250Y-141710000D03*
X287282250Y-144250000D03*
%TD*%
D10*
%TO.C,D78*%
X177069750Y-175260000D03*
D11*
X169449750Y-175260000D03*
%TD*%
D10*
%TO.C,D22*%
X150876000Y-99060000D03*
D11*
X143256000Y-99060000D03*
%TD*%
D10*
%TO.C,D45*%
X317563500Y-118110000D03*
D11*
X309943500Y-118110000D03*
%TD*%
D10*
%TO.C,D67*%
X193738500Y-156210000D03*
D11*
X186118500Y-156210000D03*
%TD*%
D10*
%TO.C,D8*%
X188976000Y-80010000D03*
D11*
X181356000Y-80010000D03*
%TD*%
D12*
%TO.C,SW75*%
X47887250Y-165840000D03*
D13*
X52967250Y-165840000D03*
D12*
X58047250Y-165840000D03*
D14*
X55507250Y-160760000D03*
X49157250Y-163300000D03*
%TD*%
D10*
%TO.C,D68*%
X212788500Y-156210000D03*
D11*
X205168500Y-156210000D03*
%TD*%
D10*
%TO.C,D54*%
X203263500Y-137160000D03*
D11*
X195643500Y-137160000D03*
%TD*%
D12*
%TO.C,SW2*%
X64556000Y-70590000D03*
D13*
X69636000Y-70590000D03*
D12*
X74716000Y-70590000D03*
D14*
X72176000Y-65510000D03*
X65826000Y-68050000D03*
%TD*%
D10*
%TO.C,D33*%
X84201000Y-118110000D03*
D11*
X76581000Y-118110000D03*
%TD*%
D10*
%TO.C,D31*%
X341376000Y-99060000D03*
D11*
X333756000Y-99060000D03*
%TD*%
D12*
%TO.C,SW10*%
X216956000Y-70590000D03*
D13*
X222036000Y-70590000D03*
D12*
X227116000Y-70590000D03*
D14*
X224576000Y-65510000D03*
X218226000Y-68050000D03*
%TD*%
D10*
%TO.C,D20*%
X112776000Y-99060000D03*
D11*
X105156000Y-99060000D03*
%TD*%
D12*
%TO.C,SW60*%
X331256000Y-127740000D03*
D13*
X336336000Y-127740000D03*
D12*
X341416000Y-127740000D03*
D14*
X338876000Y-122660000D03*
X332526000Y-125200000D03*
%TD*%
D10*
%TO.C,D75*%
X58007250Y-175260000D03*
D11*
X50387250Y-175260000D03*
%TD*%
D12*
%TO.C,SW11*%
X236006000Y-70590000D03*
D13*
X241086000Y-70590000D03*
D12*
X246166000Y-70590000D03*
D14*
X243626000Y-65510000D03*
X237276000Y-68050000D03*
%TD*%
D10*
%TO.C,D19*%
X93726000Y-99060000D03*
D11*
X86106000Y-99060000D03*
%TD*%
D12*
%TO.C,SW28*%
X255056000Y-89640000D03*
D13*
X260136000Y-89640000D03*
D12*
X265216000Y-89640000D03*
D14*
X262676000Y-84560000D03*
X256326000Y-87100000D03*
%TD*%
D10*
%TO.C,D15*%
X322326000Y-80010000D03*
D11*
X314706000Y-80010000D03*
%TD*%
D12*
%TO.C,SW67*%
X183618500Y-146790000D03*
D13*
X188698500Y-146790000D03*
D12*
X193778500Y-146790000D03*
D14*
X191238500Y-141710000D03*
X184888500Y-144250000D03*
%TD*%
D12*
%TO.C,SW47*%
X52649750Y-127740000D03*
D13*
X57729750Y-127740000D03*
D12*
X62809750Y-127740000D03*
D14*
X60269750Y-122660000D03*
X53919750Y-125200000D03*
%TD*%
D12*
%TO.C,SW25*%
X197906000Y-89640000D03*
D13*
X202986000Y-89640000D03*
D12*
X208066000Y-89640000D03*
D14*
X205526000Y-84560000D03*
X199176000Y-87100000D03*
%TD*%
D12*
%TO.C,SW74*%
X331256000Y-146790000D03*
D13*
X336336000Y-146790000D03*
D12*
X341416000Y-146790000D03*
D14*
X338876000Y-141710000D03*
X332526000Y-144250000D03*
%TD*%
D12*
%TO.C,SW82*%
X293156000Y-165840000D03*
D13*
X298236000Y-165840000D03*
D12*
X303316000Y-165840000D03*
D14*
X300776000Y-160760000D03*
X294426000Y-163300000D03*
%TD*%
D12*
%TO.C,SW63*%
X107418500Y-146790000D03*
D13*
X112498500Y-146790000D03*
D12*
X117578500Y-146790000D03*
D14*
X115038500Y-141710000D03*
X108688500Y-144250000D03*
%TD*%
D12*
%TO.C,SW50*%
X116943500Y-127740000D03*
D13*
X122023500Y-127740000D03*
D12*
X127103500Y-127740000D03*
D14*
X124563500Y-122660000D03*
X118213500Y-125200000D03*
%TD*%
D10*
%TO.C,D47*%
X62769750Y-137160000D03*
D11*
X55149750Y-137160000D03*
%TD*%
D10*
%TO.C,D58*%
X279463500Y-137160000D03*
D11*
X271843500Y-137160000D03*
%TD*%
D10*
%TO.C,D63*%
X117538500Y-156210000D03*
D11*
X109918500Y-156210000D03*
%TD*%
D12*
%TO.C,SW1*%
X45506000Y-70590000D03*
D13*
X50586000Y-70590000D03*
D12*
X55666000Y-70590000D03*
D14*
X53126000Y-65510000D03*
X46776000Y-68050000D03*
%TD*%
D10*
%TO.C,D49*%
X108013500Y-137160000D03*
D11*
X100393500Y-137160000D03*
%TD*%
D12*
%TO.C,SW17*%
X45506000Y-89640000D03*
D13*
X50586000Y-89640000D03*
D12*
X55666000Y-89640000D03*
D14*
X53126000Y-84560000D03*
X46776000Y-87100000D03*
%TD*%
D12*
%TO.C,SW56*%
X231243500Y-127740000D03*
D13*
X236323500Y-127740000D03*
D12*
X241403500Y-127740000D03*
D14*
X238863500Y-122660000D03*
X232513500Y-125200000D03*
%TD*%
D10*
%TO.C,D57*%
X260413500Y-137160000D03*
D11*
X252793500Y-137160000D03*
%TD*%
D10*
%TO.C,D80*%
X265176000Y-175260000D03*
D11*
X257556000Y-175260000D03*
%TD*%
D10*
%TO.C,D14*%
X303276000Y-80010000D03*
D11*
X295656000Y-80010000D03*
%TD*%
D12*
%TO.C,SW13*%
X274106000Y-70590000D03*
D13*
X279186000Y-70590000D03*
D12*
X284266000Y-70590000D03*
D14*
X281726000Y-65510000D03*
X275376000Y-68050000D03*
%TD*%
D12*
%TO.C,SW4*%
X102656000Y-70590000D03*
D13*
X107736000Y-70590000D03*
D12*
X112816000Y-70590000D03*
D14*
X110276000Y-65510000D03*
X103926000Y-68050000D03*
%TD*%
D12*
%TO.C,SW18*%
X64556000Y-89640000D03*
D13*
X69636000Y-89640000D03*
D12*
X74716000Y-89640000D03*
D14*
X72176000Y-84560000D03*
X65826000Y-87100000D03*
%TD*%
D10*
%TO.C,D52*%
X165163500Y-137160000D03*
D11*
X157543500Y-137160000D03*
%TD*%
D12*
%TO.C,SW7*%
X159806000Y-70590000D03*
D13*
X164886000Y-70590000D03*
D12*
X169966000Y-70590000D03*
D14*
X167426000Y-65510000D03*
X161076000Y-68050000D03*
%TD*%
D10*
%TO.C,D65*%
X155638500Y-156210000D03*
D11*
X148018500Y-156210000D03*
%TD*%
D10*
%TO.C,D77*%
X105632250Y-175260000D03*
D11*
X98012250Y-175260000D03*
%TD*%
D10*
%TO.C,D50*%
X127063500Y-137160000D03*
D11*
X119443500Y-137160000D03*
%TD*%
D12*
%TO.C,SW22*%
X140756000Y-89640000D03*
D13*
X145836000Y-89640000D03*
D12*
X150916000Y-89640000D03*
D14*
X148376000Y-84560000D03*
X142026000Y-87100000D03*
%TD*%
D12*
%TO.C,SW73*%
X312206000Y-146790000D03*
D13*
X317286000Y-146790000D03*
D12*
X322366000Y-146790000D03*
D14*
X319826000Y-141710000D03*
X313476000Y-144250000D03*
%TD*%
D12*
%TO.C,SW61*%
X57412250Y-146790000D03*
D13*
X62492250Y-146790000D03*
D12*
X67572250Y-146790000D03*
D14*
X65032250Y-141710000D03*
X58682250Y-144250000D03*
%TD*%
D10*
%TO.C,D32*%
X60388500Y-118110000D03*
D11*
X52768500Y-118110000D03*
%TD*%
D10*
%TO.C,D7*%
X169926000Y-80010000D03*
D11*
X162306000Y-80010000D03*
%TD*%
D12*
%TO.C,SW27*%
X236006000Y-89640000D03*
D13*
X241086000Y-89640000D03*
D12*
X246166000Y-89640000D03*
D14*
X243626000Y-84560000D03*
X237276000Y-87100000D03*
%TD*%
D10*
%TO.C,D66*%
X174688500Y-156210000D03*
D11*
X167068500Y-156210000D03*
%TD*%
D10*
%TO.C,D81*%
X284226000Y-175260000D03*
D11*
X276606000Y-175260000D03*
%TD*%
D10*
%TO.C,D56*%
X241363500Y-137160000D03*
D11*
X233743500Y-137160000D03*
%TD*%
D12*
%TO.C,SW65*%
X145518500Y-146790000D03*
D13*
X150598500Y-146790000D03*
D12*
X155678500Y-146790000D03*
D14*
X153138500Y-141710000D03*
X146788500Y-144250000D03*
%TD*%
D10*
%TO.C,D2*%
X74676000Y-80010000D03*
D11*
X67056000Y-80010000D03*
%TD*%
D10*
%TO.C,D64*%
X136588500Y-156210000D03*
D11*
X128968500Y-156210000D03*
%TD*%
D10*
%TO.C,D25*%
X208026000Y-99060000D03*
D11*
X200406000Y-99060000D03*
%TD*%
D10*
%TO.C,D3*%
X93726000Y-80010000D03*
D11*
X86106000Y-80010000D03*
%TD*%
D12*
%TO.C,SW76*%
X71699750Y-165840000D03*
D13*
X76779750Y-165840000D03*
D12*
X81859750Y-165840000D03*
D14*
X79319750Y-160760000D03*
X72969750Y-163300000D03*
%TD*%
D10*
%TO.C,D17*%
X55626000Y-99060000D03*
D11*
X48006000Y-99060000D03*
%TD*%
D12*
%TO.C,SW41*%
X226481000Y-108690000D03*
D13*
X231561000Y-108690000D03*
D12*
X236641000Y-108690000D03*
D14*
X234101000Y-103610000D03*
X227751000Y-106150000D03*
%TD*%
D12*
%TO.C,SW57*%
X250293500Y-127740000D03*
D13*
X255373500Y-127740000D03*
D12*
X260453500Y-127740000D03*
D14*
X257913500Y-122660000D03*
X251563500Y-125200000D03*
%TD*%
D10*
%TO.C,D9*%
X208026000Y-80010000D03*
D11*
X200406000Y-80010000D03*
%TD*%
D12*
%TO.C,SW64*%
X126468500Y-146790000D03*
D13*
X131548500Y-146790000D03*
D12*
X136628500Y-146790000D03*
D14*
X134088500Y-141710000D03*
X127738500Y-144250000D03*
%TD*%
D12*
%TO.C,SW19*%
X83606000Y-89640000D03*
D13*
X88686000Y-89640000D03*
D12*
X93766000Y-89640000D03*
D14*
X91226000Y-84560000D03*
X84876000Y-87100000D03*
%TD*%
D10*
%TO.C,D4*%
X112776000Y-80010000D03*
D11*
X105156000Y-80010000D03*
%TD*%
D10*
%TO.C,D70*%
X250888500Y-156210000D03*
D11*
X243268500Y-156210000D03*
%TD*%
D10*
%TO.C,D44*%
X293751000Y-118110000D03*
D11*
X286131000Y-118110000D03*
%TD*%
D10*
%TO.C,D18*%
X74676000Y-99060000D03*
D11*
X67056000Y-99060000D03*
%TD*%
D10*
%TO.C,D37*%
X160401000Y-118110000D03*
D11*
X152781000Y-118110000D03*
%TD*%
D12*
%TO.C,SW55*%
X212193500Y-127740000D03*
D13*
X217273500Y-127740000D03*
D12*
X222353500Y-127740000D03*
D14*
X219813500Y-122660000D03*
X213463500Y-125200000D03*
%TD*%
D10*
%TO.C,D51*%
X146113500Y-137160000D03*
D11*
X138493500Y-137160000D03*
%TD*%
D12*
%TO.C,SW49*%
X97893500Y-127740000D03*
D13*
X102973500Y-127740000D03*
D12*
X108053500Y-127740000D03*
D14*
X105513500Y-122660000D03*
X99163500Y-125200000D03*
%TD*%
D12*
%TO.C,SW59*%
X300299750Y-127740000D03*
D13*
X305379750Y-127740000D03*
D12*
X310459750Y-127740000D03*
D14*
X307919750Y-122660000D03*
X301569750Y-125200000D03*
%TD*%
D12*
%TO.C,SW46*%
X331256000Y-108690000D03*
D13*
X336336000Y-108690000D03*
D12*
X341416000Y-108690000D03*
D14*
X338876000Y-103610000D03*
X332526000Y-106150000D03*
%TD*%
D12*
%TO.C,SW70*%
X240768500Y-146790000D03*
D13*
X245848500Y-146790000D03*
D12*
X250928500Y-146790000D03*
D14*
X248388500Y-141710000D03*
X242038500Y-144250000D03*
%TD*%
D12*
%TO.C,SW3*%
X83606000Y-70590000D03*
D13*
X88686000Y-70590000D03*
D12*
X93766000Y-70590000D03*
D14*
X91226000Y-65510000D03*
X84876000Y-68050000D03*
%TD*%
D12*
%TO.C,SW31*%
X331256000Y-89640000D03*
D13*
X336336000Y-89640000D03*
D12*
X341416000Y-89640000D03*
D14*
X338876000Y-84560000D03*
X332526000Y-87100000D03*
%TD*%
D10*
%TO.C,D61*%
X67532250Y-156210000D03*
D11*
X59912250Y-156210000D03*
%TD*%
D10*
%TO.C,D26*%
X227076000Y-99060000D03*
D11*
X219456000Y-99060000D03*
%TD*%
D12*
%TO.C,SW81*%
X274106000Y-165840000D03*
D13*
X279186000Y-165840000D03*
D12*
X284266000Y-165840000D03*
D14*
X281726000Y-160760000D03*
X275376000Y-163300000D03*
%TD*%
D12*
%TO.C,SW40*%
X207431000Y-108690000D03*
D13*
X212511000Y-108690000D03*
D12*
X217591000Y-108690000D03*
D14*
X215051000Y-103610000D03*
X208701000Y-106150000D03*
%TD*%
D12*
%TO.C,SW42*%
X245531000Y-108690000D03*
D13*
X250611000Y-108690000D03*
D12*
X255691000Y-108690000D03*
D14*
X253151000Y-103610000D03*
X246801000Y-106150000D03*
%TD*%
M02*
