%TF.GenerationSoftware,KiCad,Pcbnew,8.0.8-8.0.8-0~ubuntu22.04.1*%
%TF.CreationDate,2025-03-13T07:20:04-04:00*%
%TF.ProjectId,kb_test,6b625f74-6573-4742-9e6b-696361645f70,rev?*%
%TF.SameCoordinates,Original*%
%TF.FileFunction,Copper,L1,Top*%
%TF.FilePolarity,Positive*%
%FSLAX46Y46*%
G04 Gerber Fmt 4.6, Leading zero omitted, Abs format (unit mm)*
G04 Created by KiCad (PCBNEW 8.0.8-8.0.8-0~ubuntu22.04.1) date 2025-03-13 07:20:04*
%MOMM*%
%LPD*%
G01*
G04 APERTURE LIST*
%TA.AperFunction,ComponentPad*%
%ADD10C,2.200000*%
%TD*%
%TA.AperFunction,ComponentPad*%
%ADD11R,2.200000X2.200000*%
%TD*%
%TA.AperFunction,ComponentPad*%
%ADD12O,2.200000X2.200000*%
%TD*%
%TA.AperFunction,ComponentPad*%
%ADD13R,1.700000X1.700000*%
%TD*%
%TA.AperFunction,ComponentPad*%
%ADD14O,1.700000X1.700000*%
%TD*%
%TA.AperFunction,ComponentPad*%
%ADD15C,1.397000*%
%TD*%
%TA.AperFunction,ComponentPad*%
%ADD16O,1.727200X1.727200*%
%TD*%
%TA.AperFunction,ComponentPad*%
%ADD17R,1.727200X1.727200*%
%TD*%
%TA.AperFunction,ComponentPad*%
%ADD18C,1.727200*%
%TD*%
%TA.AperFunction,ViaPad*%
%ADD19C,0.600000*%
%TD*%
%TA.AperFunction,Conductor*%
%ADD20C,0.200000*%
%TD*%
G04 APERTURE END LIST*
D10*
%TO.P,SW26,1,1*%
%TO.N,COL9*%
X228550000Y-69150000D03*
%TO.P,SW26,2,2*%
%TO.N,Net-(D26-A)*%
X222200000Y-71690000D03*
%TD*%
%TO.P,SW12,1,1*%
%TO.N,COL11*%
X266650000Y-50100000D03*
%TO.P,SW12,2,2*%
%TO.N,Net-(D12-A)*%
X260300000Y-52640000D03*
%TD*%
%TO.P,SW62,1,1*%
%TO.N,COL1*%
X99962500Y-126300000D03*
%TO.P,SW62,2,2*%
%TO.N,Net-(D62-A)*%
X93612500Y-128840000D03*
%TD*%
%TO.P,SW15,1,1*%
%TO.N,COL14*%
X323800000Y-50100000D03*
%TO.P,SW15,2,2*%
%TO.N,Net-(D15-A)*%
X317450000Y-52640000D03*
%TD*%
%TO.P,SW84,1,1*%
%TO.N,COL9*%
X342850000Y-145350000D03*
%TO.P,SW84,2,2*%
%TO.N,Net-(D84-A)*%
X336500000Y-147890000D03*
%TD*%
%TO.P,SW37,1,1*%
%TO.N,COL5*%
X161875000Y-88200000D03*
%TO.P,SW37,2,2*%
%TO.N,Net-(D37-A)*%
X155525000Y-90740000D03*
%TD*%
%TO.P,SW78,1,1*%
%TO.N,COL3*%
X178543750Y-145350000D03*
%TO.P,SW78,2,2*%
%TO.N,Net-(D78-A)*%
X172193750Y-147890000D03*
%TD*%
%TO.P,SW53,1,1*%
%TO.N,COL6*%
X185687500Y-107250000D03*
%TO.P,SW53,2,2*%
%TO.N,Net-(D53-A)*%
X179337500Y-109790000D03*
%TD*%
%TO.P,SW68,1,1*%
%TO.N,COL7*%
X214262500Y-126300000D03*
%TO.P,SW68,2,2*%
%TO.N,Net-(D68-A)*%
X207912500Y-128840000D03*
%TD*%
%TO.P,SW29,1,1*%
%TO.N,COL12*%
X285700000Y-69150000D03*
%TO.P,SW29,2,2*%
%TO.N,Net-(D29-A)*%
X279350000Y-71690000D03*
%TD*%
%TO.P,SW34,1,1*%
%TO.N,COL2*%
X104725000Y-88200000D03*
%TO.P,SW34,2,2*%
%TO.N,Net-(D34-A)*%
X98375000Y-90740000D03*
%TD*%
%TO.P,SW24,1,1*%
%TO.N,COL7*%
X190450000Y-69150000D03*
%TO.P,SW24,2,2*%
%TO.N,Net-(D24-A)*%
X184100000Y-71690000D03*
%TD*%
%TO.P,SW32,1,1*%
%TO.N,COL0*%
X61862500Y-88200000D03*
%TO.P,SW32,2,2*%
%TO.N,Net-(D32-A)*%
X55512500Y-90740000D03*
%TD*%
%TO.P,SW16,1,1*%
%TO.N,COL15*%
X342850000Y-50100000D03*
%TO.P,SW16,2,2*%
%TO.N,Net-(D16-A)*%
X336500000Y-52640000D03*
%TD*%
%TO.P,SW54,1,1*%
%TO.N,COL7*%
X204737500Y-107250000D03*
%TO.P,SW54,2,2*%
%TO.N,Net-(D54-A)*%
X198387500Y-109790000D03*
%TD*%
%TO.P,SW36,1,1*%
%TO.N,COL4*%
X142825000Y-88200000D03*
%TO.P,SW36,2,2*%
%TO.N,Net-(D36-A)*%
X136475000Y-90740000D03*
%TD*%
%TO.P,SW6,1,1*%
%TO.N,COL5*%
X152350000Y-50100000D03*
%TO.P,SW6,2,2*%
%TO.N,Net-(D6-A)*%
X146000000Y-52640000D03*
%TD*%
%TO.P,SW44,1,1*%
%TO.N,COL12*%
X295225000Y-88200000D03*
%TO.P,SW44,2,2*%
%TO.N,Net-(D44-A)*%
X288875000Y-90740000D03*
%TD*%
%TO.P,SW9,1,1*%
%TO.N,COL8*%
X209500000Y-50100000D03*
%TO.P,SW9,2,2*%
%TO.N,Net-(D9-A)*%
X203150000Y-52640000D03*
%TD*%
%TO.P,SW51,1,1*%
%TO.N,COL4*%
X147587500Y-107250000D03*
%TO.P,SW51,2,2*%
%TO.N,Net-(D51-A)*%
X141237500Y-109790000D03*
%TD*%
%TO.P,SW45,1,1*%
%TO.N,COL13*%
X319037500Y-88200000D03*
%TO.P,SW45,2,2*%
%TO.N,Net-(D45-A)*%
X312687500Y-90740000D03*
%TD*%
%TO.P,SW52,1,1*%
%TO.N,COL5*%
X166637500Y-107250000D03*
%TO.P,SW52,2,2*%
%TO.N,Net-(D52-A)*%
X160287500Y-109790000D03*
%TD*%
%TO.P,SW58,1,1*%
%TO.N,COL11*%
X280937500Y-107250000D03*
%TO.P,SW58,2,2*%
%TO.N,Net-(D58-A)*%
X274587500Y-109790000D03*
%TD*%
%TO.P,SW66,1,1*%
%TO.N,COL5*%
X176162500Y-126300000D03*
%TO.P,SW66,2,2*%
%TO.N,Net-(D66-A)*%
X169812500Y-128840000D03*
%TD*%
%TO.P,SW33,1,1*%
%TO.N,COL1*%
X85675000Y-88200000D03*
%TO.P,SW33,2,2*%
%TO.N,Net-(D33-A)*%
X79325000Y-90740000D03*
%TD*%
%TO.P,SW14,1,1*%
%TO.N,COL13*%
X304750000Y-50100000D03*
%TO.P,SW14,2,2*%
%TO.N,Net-(D14-A)*%
X298400000Y-52640000D03*
%TD*%
%TO.P,SW77,1,1*%
%TO.N,COL2*%
X107106250Y-145350000D03*
%TO.P,SW77,2,2*%
%TO.N,Net-(D77-A)*%
X100756250Y-147890000D03*
%TD*%
%TO.P,SW71,1,1*%
%TO.N,COL10*%
X271412500Y-126300000D03*
%TO.P,SW71,2,2*%
%TO.N,Net-(D71-A)*%
X265062500Y-128840000D03*
%TD*%
%TO.P,SW20,1,1*%
%TO.N,COL3*%
X114250000Y-69150000D03*
%TO.P,SW20,2,2*%
%TO.N,Net-(D20-A)*%
X107900000Y-71690000D03*
%TD*%
%TO.P,SW39,1,1*%
%TO.N,COL7*%
X199975000Y-88200000D03*
%TO.P,SW39,2,2*%
%TO.N,Net-(D39-A)*%
X193625000Y-90740000D03*
%TD*%
%TO.P,SW83,1,1*%
%TO.N,COL8*%
X323800000Y-145350000D03*
%TO.P,SW83,2,2*%
%TO.N,Net-(D83-A)*%
X317450000Y-147890000D03*
%TD*%
%TO.P,SW38,1,1*%
%TO.N,COL6*%
X180925000Y-88200000D03*
%TO.P,SW38,2,2*%
%TO.N,Net-(D38-A)*%
X174575000Y-90740000D03*
%TD*%
%TO.P,SW80,1,1*%
%TO.N,COL5*%
X266650000Y-145350000D03*
%TO.P,SW80,2,2*%
%TO.N,Net-(D80-A)*%
X260300000Y-147890000D03*
%TD*%
%TO.P,SW48,1,1*%
%TO.N,COL1*%
X90437500Y-107250000D03*
%TO.P,SW48,2,2*%
%TO.N,Net-(D48-A)*%
X84087500Y-109790000D03*
%TD*%
%TO.P,SW79,1,1*%
%TO.N,COL4*%
X247600000Y-145350000D03*
%TO.P,SW79,2,2*%
%TO.N,Net-(D79-A)*%
X241250000Y-147890000D03*
%TD*%
%TO.P,SW35,1,1*%
%TO.N,COL3*%
X123775000Y-88200000D03*
%TO.P,SW35,2,2*%
%TO.N,Net-(D35-A)*%
X117425000Y-90740000D03*
%TD*%
%TO.P,SW23,1,1*%
%TO.N,COL6*%
X171400000Y-69150000D03*
%TO.P,SW23,2,2*%
%TO.N,Net-(D23-A)*%
X165050000Y-71690000D03*
%TD*%
%TO.P,SW43,1,1*%
%TO.N,COL11*%
X276175000Y-88200000D03*
%TO.P,SW43,2,2*%
%TO.N,Net-(D43-A)*%
X269825000Y-90740000D03*
%TD*%
%TO.P,SW8,1,1*%
%TO.N,COL7*%
X190450000Y-50100000D03*
%TO.P,SW8,2,2*%
%TO.N,Net-(D8-A)*%
X184100000Y-52640000D03*
%TD*%
%TO.P,SW69,1,1*%
%TO.N,COL8*%
X233312500Y-126300000D03*
%TO.P,SW69,2,2*%
%TO.N,Net-(D69-A)*%
X226962500Y-128840000D03*
%TD*%
%TO.P,SW21,1,1*%
%TO.N,COL4*%
X133300000Y-69150000D03*
%TO.P,SW21,2,2*%
%TO.N,Net-(D21-A)*%
X126950000Y-71690000D03*
%TD*%
%TO.P,SW5,1,1*%
%TO.N,COL4*%
X133300000Y-50100000D03*
%TO.P,SW5,2,2*%
%TO.N,Net-(D5-A)*%
X126950000Y-52640000D03*
%TD*%
%TO.P,SW30,1,1*%
%TO.N,COL13*%
X314275000Y-69150000D03*
%TO.P,SW30,2,2*%
%TO.N,Net-(D30-A)*%
X307925000Y-71690000D03*
%TD*%
%TO.P,SW72,1,1*%
%TO.N,COL11*%
X297606250Y-126300000D03*
%TO.P,SW72,2,2*%
%TO.N,Net-(D72-A)*%
X291256250Y-128840000D03*
%TD*%
%TO.P,SW75,1,1*%
%TO.N,COL0*%
X59481250Y-145350000D03*
%TO.P,SW75,2,2*%
%TO.N,Net-(D75-A)*%
X53131250Y-147890000D03*
%TD*%
%TO.P,SW2,1,1*%
%TO.N,COL1*%
X76150000Y-50100000D03*
%TO.P,SW2,2,2*%
%TO.N,Net-(D2-A)*%
X69800000Y-52640000D03*
%TD*%
%TO.P,SW10,1,1*%
%TO.N,COL9*%
X228550000Y-50100000D03*
%TO.P,SW10,2,2*%
%TO.N,Net-(D10-A)*%
X222200000Y-52640000D03*
%TD*%
%TO.P,SW60,1,1*%
%TO.N,COL13*%
X342850000Y-107250000D03*
%TO.P,SW60,2,2*%
%TO.N,Net-(D60-A)*%
X336500000Y-109790000D03*
%TD*%
%TO.P,SW11,1,1*%
%TO.N,COL10*%
X247600000Y-50100000D03*
%TO.P,SW11,2,2*%
%TO.N,Net-(D11-A)*%
X241250000Y-52640000D03*
%TD*%
%TO.P,SW28,1,1*%
%TO.N,COL11*%
X266650000Y-69150000D03*
%TO.P,SW28,2,2*%
%TO.N,Net-(D28-A)*%
X260300000Y-71690000D03*
%TD*%
%TO.P,SW67,1,1*%
%TO.N,COL6*%
X195212500Y-126300000D03*
%TO.P,SW67,2,2*%
%TO.N,Net-(D67-A)*%
X188862500Y-128840000D03*
%TD*%
%TO.P,SW47,1,1*%
%TO.N,COL0*%
X64243750Y-107250000D03*
%TO.P,SW47,2,2*%
%TO.N,Net-(D47-A)*%
X57893750Y-109790000D03*
%TD*%
%TO.P,SW25,1,1*%
%TO.N,COL8*%
X209500000Y-69150000D03*
%TO.P,SW25,2,2*%
%TO.N,Net-(D25-A)*%
X203150000Y-71690000D03*
%TD*%
%TO.P,SW74,1,1*%
%TO.N,COL13*%
X342850000Y-126300000D03*
%TO.P,SW74,2,2*%
%TO.N,Net-(D74-A)*%
X336500000Y-128840000D03*
%TD*%
%TO.P,SW82,1,1*%
%TO.N,COL7*%
X304750000Y-145350000D03*
%TO.P,SW82,2,2*%
%TO.N,Net-(D82-A)*%
X298400000Y-147890000D03*
%TD*%
%TO.P,SW63,1,1*%
%TO.N,COL2*%
X119012500Y-126300000D03*
%TO.P,SW63,2,2*%
%TO.N,Net-(D63-A)*%
X112662500Y-128840000D03*
%TD*%
%TO.P,SW50,1,1*%
%TO.N,COL3*%
X128537500Y-107250000D03*
%TO.P,SW50,2,2*%
%TO.N,Net-(D50-A)*%
X122187500Y-109790000D03*
%TD*%
%TO.P,SW1,1,1*%
%TO.N,COL0*%
X57100000Y-50100000D03*
%TO.P,SW1,2,2*%
%TO.N,Net-(D1-A)*%
X50750000Y-52640000D03*
%TD*%
%TO.P,SW17,1,1*%
%TO.N,COL0*%
X57100000Y-69150000D03*
%TO.P,SW17,2,2*%
%TO.N,Net-(D17-A)*%
X50750000Y-71690000D03*
%TD*%
%TO.P,SW56,1,1*%
%TO.N,COL9*%
X242837500Y-107250000D03*
%TO.P,SW56,2,2*%
%TO.N,Net-(D56-A)*%
X236487500Y-109790000D03*
%TD*%
%TO.P,SW13,1,1*%
%TO.N,COL12*%
X285700000Y-50100000D03*
%TO.P,SW13,2,2*%
%TO.N,Net-(D13-A)*%
X279350000Y-52640000D03*
%TD*%
%TO.P,SW4,1,1*%
%TO.N,COL3*%
X114250000Y-50100000D03*
%TO.P,SW4,2,2*%
%TO.N,Net-(D4-A)*%
X107900000Y-52640000D03*
%TD*%
%TO.P,SW18,1,1*%
%TO.N,COL1*%
X76150000Y-69150000D03*
%TO.P,SW18,2,2*%
%TO.N,Net-(D18-A)*%
X69800000Y-71690000D03*
%TD*%
%TO.P,SW7,1,1*%
%TO.N,COL6*%
X171400000Y-50100000D03*
%TO.P,SW7,2,2*%
%TO.N,Net-(D7-A)*%
X165050000Y-52640000D03*
%TD*%
%TO.P,SW22,1,1*%
%TO.N,COL5*%
X152350000Y-69150000D03*
%TO.P,SW22,2,2*%
%TO.N,Net-(D22-A)*%
X146000000Y-71690000D03*
%TD*%
%TO.P,SW73,1,1*%
%TO.N,COL12*%
X323800000Y-126300000D03*
%TO.P,SW73,2,2*%
%TO.N,Net-(D73-A)*%
X317450000Y-128840000D03*
%TD*%
%TO.P,SW61,1,1*%
%TO.N,COL0*%
X69006250Y-126300000D03*
%TO.P,SW61,2,2*%
%TO.N,Net-(D61-A)*%
X62656250Y-128840000D03*
%TD*%
%TO.P,SW27,1,1*%
%TO.N,COL10*%
X247600000Y-69150000D03*
%TO.P,SW27,2,2*%
%TO.N,Net-(D27-A)*%
X241250000Y-71690000D03*
%TD*%
%TO.P,SW65,1,1*%
%TO.N,COL4*%
X157112500Y-126300000D03*
%TO.P,SW65,2,2*%
%TO.N,Net-(D65-A)*%
X150762500Y-128840000D03*
%TD*%
%TO.P,SW76,1,1*%
%TO.N,COL1*%
X83293750Y-145350000D03*
%TO.P,SW76,2,2*%
%TO.N,Net-(D76-A)*%
X76943750Y-147890000D03*
%TD*%
%TO.P,SW41,1,1*%
%TO.N,COL9*%
X238075000Y-88200000D03*
%TO.P,SW41,2,2*%
%TO.N,Net-(D41-A)*%
X231725000Y-90740000D03*
%TD*%
%TO.P,SW57,1,1*%
%TO.N,COL10*%
X261887500Y-107250000D03*
%TO.P,SW57,2,2*%
%TO.N,Net-(D57-A)*%
X255537500Y-109790000D03*
%TD*%
%TO.P,SW64,1,1*%
%TO.N,COL3*%
X138062500Y-126300000D03*
%TO.P,SW64,2,2*%
%TO.N,Net-(D64-A)*%
X131712500Y-128840000D03*
%TD*%
%TO.P,SW19,1,1*%
%TO.N,COL2*%
X95200000Y-69150000D03*
%TO.P,SW19,2,2*%
%TO.N,Net-(D19-A)*%
X88850000Y-71690000D03*
%TD*%
%TO.P,SW55,1,1*%
%TO.N,COL8*%
X223787500Y-107250000D03*
%TO.P,SW55,2,2*%
%TO.N,Net-(D55-A)*%
X217437500Y-109790000D03*
%TD*%
%TO.P,SW49,1,1*%
%TO.N,COL2*%
X109487500Y-107250000D03*
%TO.P,SW49,2,2*%
%TO.N,Net-(D49-A)*%
X103137500Y-109790000D03*
%TD*%
%TO.P,SW59,1,1*%
%TO.N,COL12*%
X311893750Y-107250000D03*
%TO.P,SW59,2,2*%
%TO.N,Net-(D59-A)*%
X305543750Y-109790000D03*
%TD*%
%TO.P,SW46,1,1*%
%TO.N,COL14*%
X342850000Y-88200000D03*
%TO.P,SW46,2,2*%
%TO.N,Net-(D46-A)*%
X336500000Y-90740000D03*
%TD*%
%TO.P,SW70,1,1*%
%TO.N,COL9*%
X252362500Y-126300000D03*
%TO.P,SW70,2,2*%
%TO.N,Net-(D70-A)*%
X246012500Y-128840000D03*
%TD*%
%TO.P,SW3,1,1*%
%TO.N,COL2*%
X95200000Y-50100000D03*
%TO.P,SW3,2,2*%
%TO.N,Net-(D3-A)*%
X88850000Y-52640000D03*
%TD*%
%TO.P,SW31,1,1*%
%TO.N,COL14*%
X342850000Y-69150000D03*
%TO.P,SW31,2,2*%
%TO.N,Net-(D31-A)*%
X336500000Y-71690000D03*
%TD*%
%TO.P,SW81,1,1*%
%TO.N,COL6*%
X285700000Y-145350000D03*
%TO.P,SW81,2,2*%
%TO.N,Net-(D81-A)*%
X279350000Y-147890000D03*
%TD*%
%TO.P,SW40,1,1*%
%TO.N,COL8*%
X219025000Y-88200000D03*
%TO.P,SW40,2,2*%
%TO.N,Net-(D40-A)*%
X212675000Y-90740000D03*
%TD*%
%TO.P,SW42,1,1*%
%TO.N,COL10*%
X257125000Y-88200000D03*
%TO.P,SW42,2,2*%
%TO.N,Net-(D42-A)*%
X250775000Y-90740000D03*
%TD*%
D11*
%TO.P,D53,1,K*%
%TO.N,ROW3*%
X188187500Y-121750000D03*
D12*
%TO.P,D53,2,A*%
%TO.N,Net-(D53-A)*%
X180567500Y-121750000D03*
%TD*%
D11*
%TO.P,D23,1,K*%
%TO.N,ROW1*%
X173900000Y-83650000D03*
D12*
%TO.P,D23,2,A*%
%TO.N,Net-(D23-A)*%
X166280000Y-83650000D03*
%TD*%
D11*
%TO.P,D29,1,K*%
%TO.N,ROW1*%
X288200000Y-83650000D03*
D12*
%TO.P,D29,2,A*%
%TO.N,Net-(D29-A)*%
X280580000Y-83650000D03*
%TD*%
D11*
%TO.P,D48,1,K*%
%TO.N,ROW3*%
X92937500Y-121750000D03*
D12*
%TO.P,D48,2,A*%
%TO.N,Net-(D48-A)*%
X85317500Y-121750000D03*
%TD*%
D11*
%TO.P,D60,1,K*%
%TO.N,ROW3*%
X345350000Y-121750000D03*
D12*
%TO.P,D60,2,A*%
%TO.N,Net-(D60-A)*%
X337730000Y-121750000D03*
%TD*%
D11*
%TO.P,D34,1,K*%
%TO.N,ROW2*%
X107225000Y-102700000D03*
D12*
%TO.P,D34,2,A*%
%TO.N,Net-(D34-A)*%
X99605000Y-102700000D03*
%TD*%
D11*
%TO.P,D1,1,K*%
%TO.N,ROW0*%
X59600000Y-64600000D03*
D12*
%TO.P,D1,2,A*%
%TO.N,Net-(D1-A)*%
X51980000Y-64600000D03*
%TD*%
D11*
%TO.P,D43,1,K*%
%TO.N,ROW2*%
X278675000Y-102700000D03*
D12*
%TO.P,D43,2,A*%
%TO.N,Net-(D43-A)*%
X271055000Y-102700000D03*
%TD*%
D11*
%TO.P,D12,1,K*%
%TO.N,ROW0*%
X269150000Y-64600000D03*
D12*
%TO.P,D12,2,A*%
%TO.N,Net-(D12-A)*%
X261530000Y-64600000D03*
%TD*%
D11*
%TO.P,D73,1,K*%
%TO.N,ROW4*%
X326300000Y-140800000D03*
D12*
%TO.P,D73,2,A*%
%TO.N,Net-(D73-A)*%
X318680000Y-140800000D03*
%TD*%
D11*
%TO.P,D24,1,K*%
%TO.N,ROW1*%
X192950000Y-83650000D03*
D12*
%TO.P,D24,2,A*%
%TO.N,Net-(D24-A)*%
X185330000Y-83650000D03*
%TD*%
D11*
%TO.P,D40,1,K*%
%TO.N,ROW2*%
X221525000Y-102700000D03*
D12*
%TO.P,D40,2,A*%
%TO.N,Net-(D40-A)*%
X213905000Y-102700000D03*
%TD*%
D11*
%TO.P,D62,1,K*%
%TO.N,ROW4*%
X102462500Y-140800000D03*
D12*
%TO.P,D62,2,A*%
%TO.N,Net-(D62-A)*%
X94842500Y-140800000D03*
%TD*%
D11*
%TO.P,D84,1,K*%
%TO.N,ROW5*%
X345350000Y-159850000D03*
D12*
%TO.P,D84,2,A*%
%TO.N,Net-(D84-A)*%
X337730000Y-159850000D03*
%TD*%
D11*
%TO.P,D36,1,K*%
%TO.N,ROW2*%
X145325000Y-102700000D03*
D12*
%TO.P,D36,2,A*%
%TO.N,Net-(D36-A)*%
X137705000Y-102700000D03*
%TD*%
D11*
%TO.P,D76,1,K*%
%TO.N,ROW5*%
X85793750Y-159850000D03*
D12*
%TO.P,D76,2,A*%
%TO.N,Net-(D76-A)*%
X78173750Y-159850000D03*
%TD*%
D11*
%TO.P,D69,1,K*%
%TO.N,ROW4*%
X235812500Y-140800000D03*
D12*
%TO.P,D69,2,A*%
%TO.N,Net-(D69-A)*%
X228192500Y-140800000D03*
%TD*%
D13*
%TO.P,J1,1,Pin_1*%
%TO.N,VCC*%
X39800000Y-109000000D03*
D14*
%TO.P,J1,2,Pin_2*%
%TO.N,/RX*%
X37260000Y-109000000D03*
%TO.P,J1,3,Pin_3*%
%TO.N,/TX*%
X34720000Y-109000000D03*
%TO.P,J1,4,Pin_4*%
%TO.N,GND*%
X32180000Y-109000000D03*
%TD*%
D11*
%TO.P,D5,1,K*%
%TO.N,ROW0*%
X135800000Y-64600000D03*
D12*
%TO.P,D5,2,A*%
%TO.N,Net-(D5-A)*%
X128180000Y-64600000D03*
%TD*%
D11*
%TO.P,D38,1,K*%
%TO.N,ROW2*%
X183425000Y-102700000D03*
D12*
%TO.P,D38,2,A*%
%TO.N,Net-(D38-A)*%
X175805000Y-102700000D03*
%TD*%
D11*
%TO.P,D21,1,K*%
%TO.N,ROW1*%
X135800000Y-83650000D03*
D12*
%TO.P,D21,2,A*%
%TO.N,Net-(D21-A)*%
X128180000Y-83650000D03*
%TD*%
D11*
%TO.P,D30,1,K*%
%TO.N,ROW1*%
X316775000Y-83650000D03*
D12*
%TO.P,D30,2,A*%
%TO.N,Net-(D30-A)*%
X309155000Y-83650000D03*
%TD*%
D15*
%TO.P,SW85,1,1*%
%TO.N,Net-(A1-RESET-PadRST1)*%
X39810000Y-97460000D03*
X32190000Y-97460000D03*
%TO.P,SW85,2,2*%
%TO.N,GND*%
X39810000Y-102540000D03*
X32190000Y-102540000D03*
%TD*%
D11*
%TO.P,D10,1,K*%
%TO.N,ROW0*%
X231050000Y-64600000D03*
D12*
%TO.P,D10,2,A*%
%TO.N,Net-(D10-A)*%
X223430000Y-64600000D03*
%TD*%
D11*
%TO.P,D16,1,K*%
%TO.N,ROW0*%
X345350000Y-64600000D03*
D12*
%TO.P,D16,2,A*%
%TO.N,Net-(D16-A)*%
X337730000Y-64600000D03*
%TD*%
D11*
%TO.P,D28,1,K*%
%TO.N,ROW1*%
X269150000Y-83650000D03*
D12*
%TO.P,D28,2,A*%
%TO.N,Net-(D28-A)*%
X261530000Y-83650000D03*
%TD*%
D11*
%TO.P,D11,1,K*%
%TO.N,ROW0*%
X250100000Y-64600000D03*
D12*
%TO.P,D11,2,A*%
%TO.N,Net-(D11-A)*%
X242480000Y-64600000D03*
%TD*%
D11*
%TO.P,D39,1,K*%
%TO.N,ROW2*%
X202475000Y-102700000D03*
D12*
%TO.P,D39,2,A*%
%TO.N,Net-(D39-A)*%
X194855000Y-102700000D03*
%TD*%
D11*
%TO.P,D82,1,K*%
%TO.N,ROW5*%
X307250000Y-159850000D03*
D12*
%TO.P,D82,2,A*%
%TO.N,Net-(D82-A)*%
X299630000Y-159850000D03*
%TD*%
D11*
%TO.P,D74,1,K*%
%TO.N,ROW4*%
X345350000Y-140800000D03*
D12*
%TO.P,D74,2,A*%
%TO.N,Net-(D74-A)*%
X337730000Y-140800000D03*
%TD*%
D11*
%TO.P,D59,1,K*%
%TO.N,ROW3*%
X314393750Y-121750000D03*
D12*
%TO.P,D59,2,A*%
%TO.N,Net-(D59-A)*%
X306773750Y-121750000D03*
%TD*%
D11*
%TO.P,D42,1,K*%
%TO.N,ROW2*%
X259625000Y-102700000D03*
D12*
%TO.P,D42,2,A*%
%TO.N,Net-(D42-A)*%
X252005000Y-102700000D03*
%TD*%
D11*
%TO.P,D13,1,K*%
%TO.N,ROW0*%
X288200000Y-64600000D03*
D12*
%TO.P,D13,2,A*%
%TO.N,Net-(D13-A)*%
X280580000Y-64600000D03*
%TD*%
D11*
%TO.P,D83,1,K*%
%TO.N,ROW5*%
X326300000Y-159850000D03*
D12*
%TO.P,D83,2,A*%
%TO.N,Net-(D83-A)*%
X318680000Y-159850000D03*
%TD*%
D11*
%TO.P,D55,1,K*%
%TO.N,ROW3*%
X226287500Y-121750000D03*
D12*
%TO.P,D55,2,A*%
%TO.N,Net-(D55-A)*%
X218667500Y-121750000D03*
%TD*%
D11*
%TO.P,D41,1,K*%
%TO.N,ROW2*%
X240575000Y-102700000D03*
D12*
%TO.P,D41,2,A*%
%TO.N,Net-(D41-A)*%
X232955000Y-102700000D03*
%TD*%
D11*
%TO.P,D27,1,K*%
%TO.N,ROW1*%
X250100000Y-83650000D03*
D12*
%TO.P,D27,2,A*%
%TO.N,Net-(D27-A)*%
X242480000Y-83650000D03*
%TD*%
D11*
%TO.P,D46,1,K*%
%TO.N,ROW2*%
X345350000Y-102700000D03*
D12*
%TO.P,D46,2,A*%
%TO.N,Net-(D46-A)*%
X337730000Y-102700000D03*
%TD*%
D11*
%TO.P,D79,1,K*%
%TO.N,ROW5*%
X250100000Y-159850000D03*
D12*
%TO.P,D79,2,A*%
%TO.N,Net-(D79-A)*%
X242480000Y-159850000D03*
%TD*%
D11*
%TO.P,D72,1,K*%
%TO.N,ROW4*%
X300106250Y-140800000D03*
D12*
%TO.P,D72,2,A*%
%TO.N,Net-(D72-A)*%
X292486250Y-140800000D03*
%TD*%
D16*
%TO.P,A1,*%
%TO.N,*%
X43240000Y-71840000D03*
X43240000Y-74380000D03*
%TO.P,A1,3V3,3.3V*%
%TO.N,unconnected-(A1-3.3V-Pad3V3)*%
X43240000Y-51520000D03*
%TO.P,A1,5V,5V*%
%TO.N,VCC*%
X43240000Y-76920000D03*
%TO.P,A1,A0,A0*%
%TO.N,ROW0*%
X43240000Y-56600000D03*
%TO.P,A1,A1,A1*%
%TO.N,ROW1*%
X43240000Y-59140000D03*
%TO.P,A1,A2,A2*%
%TO.N,ROW2*%
X43240000Y-61680000D03*
%TO.P,A1,A3,A3*%
%TO.N,ROW3*%
X43240000Y-64220000D03*
%TO.P,A1,A4,A4*%
%TO.N,ROW4*%
X43240000Y-66760000D03*
%TO.P,A1,A5,A5*%
%TO.N,ROW5*%
X43240000Y-69300000D03*
%TO.P,A1,AREF,AREF*%
%TO.N,unconnected-(A1-PadAREF)*%
X43240000Y-54060000D03*
%TO.P,A1,D0,D0/RX*%
%TO.N,/RX*%
X28000000Y-82000000D03*
%TO.P,A1,D1,D1/TX*%
%TO.N,/TX*%
X28000000Y-84540000D03*
%TO.P,A1,D2,D2/SDA*%
%TO.N,COL14*%
X28000000Y-74380000D03*
%TO.P,A1,D3,D3/SCL*%
%TO.N,COL15*%
X28000000Y-71840000D03*
%TO.P,A1,D4,D4*%
%TO.N,COL0*%
X28000000Y-69300000D03*
%TO.P,A1,D5,D5*%
%TO.N,COL1*%
X28000000Y-66760000D03*
%TO.P,A1,D6,D6*%
%TO.N,COL2*%
X28000000Y-64220000D03*
%TO.P,A1,D7,D7_INT4*%
%TO.N,COL3*%
X28000000Y-61680000D03*
%TO.P,A1,D8,D8*%
%TO.N,COL4*%
X28000000Y-59140000D03*
%TO.P,A1,D9,D9*%
%TO.N,COL5*%
X28000000Y-56600000D03*
%TO.P,A1,D10,D10*%
%TO.N,COL6*%
X28000000Y-54060000D03*
%TO.P,A1,D11,D11*%
%TO.N,COL7*%
X28000000Y-51520000D03*
%TO.P,A1,D12,D12*%
%TO.N,COL8*%
X28000000Y-48980000D03*
%TO.P,A1,D13,D13*%
%TO.N,COL9*%
X43240000Y-48980000D03*
D17*
%TO.P,A1,GND1,GND*%
%TO.N,GND*%
X43240000Y-82000000D03*
%TO.P,A1,GND2,GND*%
X28000000Y-76920000D03*
D16*
%TO.P,A1,MISO,SPI_MISO*%
%TO.N,COL10*%
X43240000Y-87080000D03*
D18*
%TO.P,A1,MOSI,SPI_MOSI*%
%TO.N,COL11*%
X28000000Y-89620000D03*
D16*
%TO.P,A1,RST1,RESET*%
%TO.N,Net-(A1-RESET-PadRST1)*%
X43240000Y-79460000D03*
%TO.P,A1,RST2,RESET*%
%TO.N,unconnected-(A1-RESET-PadRST2)*%
X28000000Y-79460000D03*
%TO.P,A1,SCK,SPI_SCK*%
%TO.N,COL12*%
X43240000Y-89620000D03*
%TO.P,A1,SS,SPI_CS*%
%TO.N,COL13*%
X28000000Y-87080000D03*
%TO.P,A1,VIN,VIN*%
%TO.N,unconnected-(A1-PadVIN)*%
X43240000Y-84540000D03*
%TD*%
D11*
%TO.P,D71,1,K*%
%TO.N,ROW4*%
X273912500Y-140800000D03*
D12*
%TO.P,D71,2,A*%
%TO.N,Net-(D71-A)*%
X266292500Y-140800000D03*
%TD*%
D11*
%TO.P,D35,1,K*%
%TO.N,ROW2*%
X126275000Y-102700000D03*
D12*
%TO.P,D35,2,A*%
%TO.N,Net-(D35-A)*%
X118655000Y-102700000D03*
%TD*%
D11*
%TO.P,D6,1,K*%
%TO.N,ROW0*%
X154850000Y-64600000D03*
D12*
%TO.P,D6,2,A*%
%TO.N,Net-(D6-A)*%
X147230000Y-64600000D03*
%TD*%
D11*
%TO.P,D78,1,K*%
%TO.N,ROW5*%
X181043750Y-159850000D03*
D12*
%TO.P,D78,2,A*%
%TO.N,Net-(D78-A)*%
X173423750Y-159850000D03*
%TD*%
D11*
%TO.P,D22,1,K*%
%TO.N,ROW1*%
X154850000Y-83650000D03*
D12*
%TO.P,D22,2,A*%
%TO.N,Net-(D22-A)*%
X147230000Y-83650000D03*
%TD*%
D11*
%TO.P,D45,1,K*%
%TO.N,ROW2*%
X321537500Y-102700000D03*
D12*
%TO.P,D45,2,A*%
%TO.N,Net-(D45-A)*%
X313917500Y-102700000D03*
%TD*%
D11*
%TO.P,D67,1,K*%
%TO.N,ROW4*%
X197712500Y-140800000D03*
D12*
%TO.P,D67,2,A*%
%TO.N,Net-(D67-A)*%
X190092500Y-140800000D03*
%TD*%
D11*
%TO.P,D8,1,K*%
%TO.N,ROW0*%
X192950000Y-64600000D03*
D12*
%TO.P,D8,2,A*%
%TO.N,Net-(D8-A)*%
X185330000Y-64600000D03*
%TD*%
D11*
%TO.P,D68,1,K*%
%TO.N,ROW4*%
X216762500Y-140800000D03*
D12*
%TO.P,D68,2,A*%
%TO.N,Net-(D68-A)*%
X209142500Y-140800000D03*
%TD*%
D11*
%TO.P,D54,1,K*%
%TO.N,ROW3*%
X207237500Y-121750000D03*
D12*
%TO.P,D54,2,A*%
%TO.N,Net-(D54-A)*%
X199617500Y-121750000D03*
%TD*%
D11*
%TO.P,D33,1,K*%
%TO.N,ROW2*%
X88175000Y-102700000D03*
D12*
%TO.P,D33,2,A*%
%TO.N,Net-(D33-A)*%
X80555000Y-102700000D03*
%TD*%
D11*
%TO.P,D31,1,K*%
%TO.N,ROW1*%
X345350000Y-83650000D03*
D12*
%TO.P,D31,2,A*%
%TO.N,Net-(D31-A)*%
X337730000Y-83650000D03*
%TD*%
D11*
%TO.P,D20,1,K*%
%TO.N,ROW1*%
X116750000Y-83650000D03*
D12*
%TO.P,D20,2,A*%
%TO.N,Net-(D20-A)*%
X109130000Y-83650000D03*
%TD*%
D11*
%TO.P,D75,1,K*%
%TO.N,ROW5*%
X61981250Y-159850000D03*
D12*
%TO.P,D75,2,A*%
%TO.N,Net-(D75-A)*%
X54361250Y-159850000D03*
%TD*%
D11*
%TO.P,D19,1,K*%
%TO.N,ROW1*%
X97700000Y-83650000D03*
D12*
%TO.P,D19,2,A*%
%TO.N,Net-(D19-A)*%
X90080000Y-83650000D03*
%TD*%
D11*
%TO.P,D15,1,K*%
%TO.N,ROW0*%
X326300000Y-64600000D03*
D12*
%TO.P,D15,2,A*%
%TO.N,Net-(D15-A)*%
X318680000Y-64600000D03*
%TD*%
D11*
%TO.P,D47,1,K*%
%TO.N,ROW3*%
X66743750Y-121750000D03*
D12*
%TO.P,D47,2,A*%
%TO.N,Net-(D47-A)*%
X59123750Y-121750000D03*
%TD*%
D11*
%TO.P,D58,1,K*%
%TO.N,ROW3*%
X283437500Y-121750000D03*
D12*
%TO.P,D58,2,A*%
%TO.N,Net-(D58-A)*%
X275817500Y-121750000D03*
%TD*%
D11*
%TO.P,D63,1,K*%
%TO.N,ROW4*%
X121512500Y-140800000D03*
D12*
%TO.P,D63,2,A*%
%TO.N,Net-(D63-A)*%
X113892500Y-140800000D03*
%TD*%
D11*
%TO.P,D49,1,K*%
%TO.N,ROW3*%
X111987500Y-121750000D03*
D12*
%TO.P,D49,2,A*%
%TO.N,Net-(D49-A)*%
X104367500Y-121750000D03*
%TD*%
D11*
%TO.P,D57,1,K*%
%TO.N,ROW3*%
X264387500Y-121750000D03*
D12*
%TO.P,D57,2,A*%
%TO.N,Net-(D57-A)*%
X256767500Y-121750000D03*
%TD*%
D11*
%TO.P,D80,1,K*%
%TO.N,ROW5*%
X269150000Y-159850000D03*
D12*
%TO.P,D80,2,A*%
%TO.N,Net-(D80-A)*%
X261530000Y-159850000D03*
%TD*%
D11*
%TO.P,D14,1,K*%
%TO.N,ROW0*%
X307250000Y-64600000D03*
D12*
%TO.P,D14,2,A*%
%TO.N,Net-(D14-A)*%
X299630000Y-64600000D03*
%TD*%
D11*
%TO.P,D52,1,K*%
%TO.N,ROW3*%
X169137500Y-121750000D03*
D12*
%TO.P,D52,2,A*%
%TO.N,Net-(D52-A)*%
X161517500Y-121750000D03*
%TD*%
D11*
%TO.P,D65,1,K*%
%TO.N,ROW4*%
X159612500Y-140800000D03*
D12*
%TO.P,D65,2,A*%
%TO.N,Net-(D65-A)*%
X151992500Y-140800000D03*
%TD*%
D11*
%TO.P,D77,1,K*%
%TO.N,ROW5*%
X109606250Y-159850000D03*
D12*
%TO.P,D77,2,A*%
%TO.N,Net-(D77-A)*%
X101986250Y-159850000D03*
%TD*%
D11*
%TO.P,D50,1,K*%
%TO.N,ROW3*%
X131037500Y-121750000D03*
D12*
%TO.P,D50,2,A*%
%TO.N,Net-(D50-A)*%
X123417500Y-121750000D03*
%TD*%
D11*
%TO.P,D32,1,K*%
%TO.N,ROW2*%
X64362500Y-102700000D03*
D12*
%TO.P,D32,2,A*%
%TO.N,Net-(D32-A)*%
X56742500Y-102700000D03*
%TD*%
D11*
%TO.P,D7,1,K*%
%TO.N,ROW0*%
X173900000Y-64600000D03*
D12*
%TO.P,D7,2,A*%
%TO.N,Net-(D7-A)*%
X166280000Y-64600000D03*
%TD*%
D11*
%TO.P,D66,1,K*%
%TO.N,ROW4*%
X178662500Y-140800000D03*
D12*
%TO.P,D66,2,A*%
%TO.N,Net-(D66-A)*%
X171042500Y-140800000D03*
%TD*%
D11*
%TO.P,D81,1,K*%
%TO.N,ROW5*%
X288200000Y-159850000D03*
D12*
%TO.P,D81,2,A*%
%TO.N,Net-(D81-A)*%
X280580000Y-159850000D03*
%TD*%
D11*
%TO.P,D56,1,K*%
%TO.N,ROW3*%
X245337500Y-121750000D03*
D12*
%TO.P,D56,2,A*%
%TO.N,Net-(D56-A)*%
X237717500Y-121750000D03*
%TD*%
D11*
%TO.P,D2,1,K*%
%TO.N,ROW0*%
X78650000Y-64600000D03*
D12*
%TO.P,D2,2,A*%
%TO.N,Net-(D2-A)*%
X71030000Y-64600000D03*
%TD*%
D11*
%TO.P,D64,1,K*%
%TO.N,ROW4*%
X140562500Y-140800000D03*
D12*
%TO.P,D64,2,A*%
%TO.N,Net-(D64-A)*%
X132942500Y-140800000D03*
%TD*%
D11*
%TO.P,D25,1,K*%
%TO.N,ROW1*%
X212000000Y-83650000D03*
D12*
%TO.P,D25,2,A*%
%TO.N,Net-(D25-A)*%
X204380000Y-83650000D03*
%TD*%
D11*
%TO.P,D3,1,K*%
%TO.N,ROW0*%
X97700000Y-64600000D03*
D12*
%TO.P,D3,2,A*%
%TO.N,Net-(D3-A)*%
X90080000Y-64600000D03*
%TD*%
D11*
%TO.P,D17,1,K*%
%TO.N,ROW1*%
X59600000Y-83650000D03*
D12*
%TO.P,D17,2,A*%
%TO.N,Net-(D17-A)*%
X51980000Y-83650000D03*
%TD*%
D11*
%TO.P,D9,1,K*%
%TO.N,ROW0*%
X212000000Y-64600000D03*
D12*
%TO.P,D9,2,A*%
%TO.N,Net-(D9-A)*%
X204380000Y-64600000D03*
%TD*%
D11*
%TO.P,D4,1,K*%
%TO.N,ROW0*%
X116750000Y-64600000D03*
D12*
%TO.P,D4,2,A*%
%TO.N,Net-(D4-A)*%
X109130000Y-64600000D03*
%TD*%
D11*
%TO.P,D70,1,K*%
%TO.N,ROW4*%
X254862500Y-140800000D03*
D12*
%TO.P,D70,2,A*%
%TO.N,Net-(D70-A)*%
X247242500Y-140800000D03*
%TD*%
D11*
%TO.P,D44,1,K*%
%TO.N,ROW2*%
X297725000Y-102700000D03*
D12*
%TO.P,D44,2,A*%
%TO.N,Net-(D44-A)*%
X290105000Y-102700000D03*
%TD*%
D11*
%TO.P,D18,1,K*%
%TO.N,ROW1*%
X78650000Y-83650000D03*
D12*
%TO.P,D18,2,A*%
%TO.N,Net-(D18-A)*%
X71030000Y-83650000D03*
%TD*%
D11*
%TO.P,D37,1,K*%
%TO.N,ROW2*%
X164375000Y-102700000D03*
D12*
%TO.P,D37,2,A*%
%TO.N,Net-(D37-A)*%
X156755000Y-102700000D03*
%TD*%
D11*
%TO.P,D51,1,K*%
%TO.N,ROW3*%
X150087500Y-121750000D03*
D12*
%TO.P,D51,2,A*%
%TO.N,Net-(D51-A)*%
X142467500Y-121750000D03*
%TD*%
D11*
%TO.P,D61,1,K*%
%TO.N,ROW4*%
X71506250Y-140800000D03*
D12*
%TO.P,D61,2,A*%
%TO.N,Net-(D61-A)*%
X63886250Y-140800000D03*
%TD*%
D11*
%TO.P,D26,1,K*%
%TO.N,ROW1*%
X231050000Y-83650000D03*
D12*
%TO.P,D26,2,A*%
%TO.N,Net-(D26-A)*%
X223430000Y-83650000D03*
%TD*%
D19*
%TO.N,COL12*%
X46355000Y-89535000D03*
%TO.N,Net-(A1-RESET-PadRST1)*%
X41910000Y-95250000D03*
%TO.N,/TX*%
X34671000Y-84455000D03*
%TO.N,/RX*%
X36110000Y-82000000D03*
%TO.N,ROW3*%
X47117000Y-118237000D03*
%TO.N,ROW4*%
X67437000Y-68707000D03*
%TO.N,ROW5*%
X48275000Y-69342000D03*
%TO.N,ROW2*%
X65532000Y-61214000D03*
%TO.N,COL12*%
X46467000Y-79502000D03*
X292044000Y-75494000D03*
%TO.N,COL11*%
X30988000Y-75692000D03*
X272613000Y-75113000D03*
%TO.N,COL10*%
X89154000Y-87376000D03*
X85217000Y-69723000D03*
%TO.N,COL15*%
X347980000Y-67056000D03*
%TO.N,COL2*%
X95250000Y-62118000D03*
%TO.N,COL3*%
X114300000Y-60325000D03*
%TO.N,COL14*%
X323977000Y-69723000D03*
%TO.N,COL13*%
X319024000Y-108204000D03*
%TO.N,ROW1*%
X54991000Y-59563000D03*
%TO.N,ROW0*%
X59690000Y-57912000D03*
%TO.N,COL4*%
X62865000Y-57404000D03*
X62865000Y-46736000D03*
X133350000Y-46736000D03*
%TO.N,COL5*%
X152273000Y-52832000D03*
%TO.N,COL6*%
X168402000Y-51816000D03*
%TO.N,COL9*%
X339344000Y-125857000D03*
%TO.N,COL8*%
X323596000Y-136017000D03*
X233426000Y-133985000D03*
%TO.N,COL7*%
X304673000Y-135128000D03*
X214376000Y-134874000D03*
%TO.N,COL6*%
X284607000Y-136144000D03*
X195199000Y-136144000D03*
%TO.N,COL5*%
X263398000Y-135524000D03*
X176162500Y-135495500D03*
%TO.N,COL4*%
X157099000Y-146939000D03*
%TO.N,COL3*%
X138062500Y-144893500D03*
%TO.N,COL2*%
X118807000Y-145350000D03*
%TD*%
D20*
%TO.N,Net-(A1-RESET-PadRST1)*%
X43240000Y-79460000D02*
X39497000Y-83203000D01*
X39497000Y-83203000D02*
X39497000Y-92837000D01*
X39497000Y-92837000D02*
X41910000Y-95250000D01*
%TO.N,VCC*%
X43240000Y-76920000D02*
X37973000Y-82187000D01*
X37973000Y-82187000D02*
X37973000Y-107173000D01*
X37973000Y-107173000D02*
X39800000Y-109000000D01*
%TO.N,COL12*%
X46467000Y-79502000D02*
X46355000Y-79614000D01*
X46355000Y-79614000D02*
X46355000Y-89535000D01*
%TO.N,/TX*%
X34671000Y-84455000D02*
X34720000Y-84504000D01*
X34720000Y-84504000D02*
X34720000Y-109000000D01*
%TO.N,/RX*%
X36110000Y-82000000D02*
X36110000Y-107850000D01*
X36110000Y-107850000D02*
X37260000Y-109000000D01*
%TO.N,ROW5*%
X61981250Y-152146598D02*
X48275000Y-138440348D01*
%TO.N,ROW3*%
X47117000Y-68097000D02*
X47117000Y-118237000D01*
X43240000Y-64220000D02*
X47117000Y-68097000D01*
%TO.N,ROW5*%
X61981250Y-159850000D02*
X61981250Y-152146598D01*
X48275000Y-138440348D02*
X48275000Y-69342000D01*
%TO.N,ROW4*%
X71506250Y-140800000D02*
X70346250Y-139640000D01*
X70346250Y-139640000D02*
X70346250Y-130882944D01*
X71374000Y-129855194D02*
X71374000Y-86868000D01*
X70346250Y-130882944D02*
X71374000Y-129855194D01*
X71374000Y-86868000D02*
X67310000Y-82804000D01*
X67310000Y-82804000D02*
X67310000Y-68834000D01*
X67310000Y-68834000D02*
X67437000Y-68707000D01*
%TO.N,ROW2*%
X64362500Y-102700000D02*
X65659000Y-101403500D01*
X65659000Y-101403500D02*
X65659000Y-61341000D01*
X65659000Y-61341000D02*
X65532000Y-61214000D01*
%TO.N,COL12*%
X285700000Y-69150000D02*
X295225000Y-78675000D01*
X295225000Y-78675000D02*
X295225000Y-88200000D01*
%TO.N,COL11*%
X30988000Y-75692000D02*
X30988000Y-86632000D01*
X30988000Y-86632000D02*
X28000000Y-89620000D01*
X266650000Y-69150000D02*
X276175000Y-78675000D01*
X276175000Y-78675000D02*
X276175000Y-88200000D01*
%TO.N,COL1*%
X76150000Y-74937686D02*
X85675000Y-84462686D01*
%TO.N,COL10*%
X85217000Y-83439000D02*
X89154000Y-87376000D01*
%TO.N,COL1*%
X76150000Y-69150000D02*
X76150000Y-74937686D01*
%TO.N,COL10*%
X85217000Y-69723000D02*
X85217000Y-83439000D01*
%TO.N,COL1*%
X85675000Y-84462686D02*
X85675000Y-88200000D01*
%TO.N,COL15*%
X347980000Y-67056000D02*
X347980000Y-55230000D01*
X347980000Y-55230000D02*
X342850000Y-50100000D01*
%TO.N,COL14*%
X323800000Y-50100000D02*
X323800000Y-69546000D01*
X323800000Y-69546000D02*
X323977000Y-69723000D01*
%TO.N,COL13*%
X319037500Y-88200000D02*
X319037500Y-108190500D01*
X319037500Y-108190500D02*
X319024000Y-108204000D01*
%TO.N,ROW1*%
X54991000Y-59563000D02*
X54991000Y-71337598D01*
X54991000Y-71337598D02*
X59600000Y-75946598D01*
X59600000Y-75946598D02*
X59600000Y-83650000D01*
%TO.N,ROW0*%
X59690000Y-57912000D02*
X59600000Y-58002000D01*
X59600000Y-58002000D02*
X59600000Y-64600000D01*
%TO.N,COL4*%
X62865000Y-46736000D02*
X62865000Y-57404000D01*
X133300000Y-46786000D02*
X133350000Y-46736000D01*
X133300000Y-50100000D02*
X133300000Y-46786000D01*
%TO.N,COL6*%
X168402000Y-51816000D02*
X169684000Y-51816000D01*
X169684000Y-51816000D02*
X171400000Y-50100000D01*
%TO.N,COL9*%
X339344000Y-125857000D02*
X339344000Y-127975899D01*
X339344000Y-127975899D02*
X337566000Y-129753899D01*
X337566000Y-129753899D02*
X337566000Y-138656101D01*
X337566000Y-138656101D02*
X342850000Y-143940101D01*
X342850000Y-143940101D02*
X342850000Y-145350000D01*
%TO.N,COL8*%
X323596000Y-136017000D02*
X323800000Y-136221000D01*
X323800000Y-136221000D02*
X323800000Y-145350000D01*
X233312500Y-126300000D02*
X233312500Y-133871500D01*
X233312500Y-133871500D02*
X233426000Y-133985000D01*
%TO.N,COL7*%
X304673000Y-135128000D02*
X304750000Y-135205000D01*
X304750000Y-135205000D02*
X304750000Y-145350000D01*
%TO.N,COL5*%
X263398000Y-142098000D02*
X263398000Y-135524000D01*
X266650000Y-145350000D02*
X263398000Y-142098000D01*
%TO.N,COL7*%
X214262500Y-126300000D02*
X214262500Y-134760500D01*
X214262500Y-134760500D02*
X214376000Y-134874000D01*
%TO.N,COL6*%
X284607000Y-136144000D02*
X284607000Y-137160000D01*
X284607000Y-137160000D02*
X285700000Y-138253000D01*
X285700000Y-138253000D02*
X285700000Y-145350000D01*
X195212500Y-126300000D02*
X195212500Y-136130500D01*
X195212500Y-136130500D02*
X195199000Y-136144000D01*
%TO.N,COL5*%
X176162500Y-126300000D02*
X176162500Y-135495500D01*
X176149000Y-135509000D02*
X176162500Y-135495500D01*
%TO.N,COL4*%
X157112500Y-126300000D02*
X157164000Y-126300000D01*
X157164000Y-126300000D02*
X157353000Y-126111000D01*
X157353000Y-126111000D02*
X157353000Y-146685000D01*
X157353000Y-146685000D02*
X157099000Y-146939000D01*
%TO.N,COL3*%
X138062500Y-126300000D02*
X138062500Y-144893500D01*
X138049000Y-144907000D02*
X138062500Y-144893500D01*
%TO.N,COL13*%
X342850000Y-107250000D02*
X342850000Y-126300000D01*
%TO.N,COL14*%
X342850000Y-69150000D02*
X342850000Y-88200000D01*
%TO.N,COL13*%
X314275000Y-69150000D02*
X319037500Y-73912500D01*
X319037500Y-73912500D02*
X319037500Y-88200000D01*
X304750000Y-50100000D02*
X314275000Y-59625000D01*
X314275000Y-59625000D02*
X314275000Y-69150000D01*
%TO.N,COL12*%
X311893750Y-107250000D02*
X311893750Y-114393750D01*
X311893750Y-114393750D02*
X323800000Y-126300000D01*
X295225000Y-88200000D02*
X311893750Y-104868750D01*
X311893750Y-104868750D02*
X311893750Y-107250000D01*
X285700000Y-50100000D02*
X285700000Y-69150000D01*
%TO.N,COL11*%
X280937500Y-107250000D02*
X297606250Y-123918750D01*
X297606250Y-123918750D02*
X297606250Y-126300000D01*
X276175000Y-88200000D02*
X280937500Y-92962500D01*
X280937500Y-92962500D02*
X280937500Y-107250000D01*
X266650000Y-50100000D02*
X266650000Y-69150000D01*
%TO.N,COL10*%
X261887500Y-107250000D02*
X271412500Y-116775000D01*
X271412500Y-116775000D02*
X271412500Y-126300000D01*
X257125000Y-88200000D02*
X261887500Y-92962500D01*
X261887500Y-92962500D02*
X261887500Y-107250000D01*
X247600000Y-69150000D02*
X257125000Y-78675000D01*
X257125000Y-78675000D02*
X257125000Y-88200000D01*
%TO.N,COL9*%
X242837500Y-107250000D02*
X252362500Y-116775000D01*
X252362500Y-116775000D02*
X252362500Y-126300000D01*
X238075000Y-88200000D02*
X242837500Y-92962500D01*
X242837500Y-92962500D02*
X242837500Y-107250000D01*
X228550000Y-69150000D02*
X238075000Y-78675000D01*
X238075000Y-78675000D02*
X238075000Y-88200000D01*
%TO.N,COL8*%
X223787500Y-107250000D02*
X233312500Y-116775000D01*
X233312500Y-116775000D02*
X233312500Y-126300000D01*
X219025000Y-88200000D02*
X223787500Y-92962500D01*
X223787500Y-92962500D02*
X223787500Y-107250000D01*
X209500000Y-69150000D02*
X219025000Y-78675000D01*
X219025000Y-78675000D02*
X219025000Y-88200000D01*
%TO.N,COL7*%
X204737500Y-107250000D02*
X214262500Y-116775000D01*
X214262500Y-116775000D02*
X214262500Y-126300000D01*
X199975000Y-88200000D02*
X204737500Y-92962500D01*
X204737500Y-92962500D02*
X204737500Y-107250000D01*
X190450000Y-69150000D02*
X199975000Y-78675000D01*
X199975000Y-78675000D02*
X199975000Y-88200000D01*
%TO.N,COL6*%
X185687500Y-107250000D02*
X195212500Y-116775000D01*
X195212500Y-116775000D02*
X195212500Y-126300000D01*
X180925000Y-88200000D02*
X185687500Y-92962500D01*
X185687500Y-92962500D02*
X185687500Y-107250000D01*
X171400000Y-69150000D02*
X180925000Y-78675000D01*
X180925000Y-78675000D02*
X180925000Y-88200000D01*
%TO.N,COL5*%
X166637500Y-107250000D02*
X176162500Y-116775000D01*
X176162500Y-116775000D02*
X176162500Y-126300000D01*
X161875000Y-88200000D02*
X161875000Y-103000000D01*
X161875000Y-103000000D02*
X166125000Y-107250000D01*
X166125000Y-107250000D02*
X166637500Y-107250000D01*
X152350000Y-69150000D02*
X161875000Y-78675000D01*
X161875000Y-78675000D02*
X161875000Y-88200000D01*
%TO.N,COL4*%
X147587500Y-107250000D02*
X157112500Y-116775000D01*
X157112500Y-116775000D02*
X157112500Y-126300000D01*
X142825000Y-88200000D02*
X147587500Y-92962500D01*
X147587500Y-92962500D02*
X147587500Y-107250000D01*
X133300000Y-69150000D02*
X142825000Y-78675000D01*
X142825000Y-78675000D02*
X142825000Y-88200000D01*
%TO.N,COL3*%
X128537500Y-107250000D02*
X138062500Y-116775000D01*
X138062500Y-116775000D02*
X138062500Y-126300000D01*
X123775000Y-88200000D02*
X128537500Y-92962500D01*
X128537500Y-92962500D02*
X128537500Y-107250000D01*
X114250000Y-69150000D02*
X123775000Y-78675000D01*
X123775000Y-78675000D02*
X123775000Y-88200000D01*
%TO.N,COL2*%
X118807000Y-145350000D02*
X119012500Y-145144500D01*
X119012500Y-145144500D02*
X119012500Y-126300000D01*
X109487500Y-107250000D02*
X119012500Y-116775000D01*
X119012500Y-116775000D02*
X119012500Y-126300000D01*
X104725000Y-88200000D02*
X109487500Y-92962500D01*
X109487500Y-92962500D02*
X109487500Y-107250000D01*
X95200000Y-69150000D02*
X104725000Y-78675000D01*
X104725000Y-78675000D02*
X104725000Y-88200000D01*
%TO.N,COL1*%
X99962500Y-126300000D02*
X94172601Y-126300000D01*
X94172601Y-126300000D02*
X83293750Y-137178851D01*
X83293750Y-137178851D02*
X83293750Y-145350000D01*
X90437500Y-107250000D02*
X99962500Y-116775000D01*
X99962500Y-116775000D02*
X99962500Y-126300000D01*
X85675000Y-88200000D02*
X90437500Y-92962500D01*
X90437500Y-92962500D02*
X90437500Y-107250000D01*
%TO.N,COL0*%
X69006250Y-126300000D02*
X69006250Y-137801320D01*
X69006250Y-137801320D02*
X61457570Y-145350000D01*
X61457570Y-145350000D02*
X59481250Y-145350000D01*
X64243750Y-107250000D02*
X69006250Y-112012500D01*
X69006250Y-112012500D02*
X69006250Y-126300000D01*
X61862500Y-88200000D02*
X61862500Y-104868750D01*
X61862500Y-104868750D02*
X64243750Y-107250000D01*
X57100000Y-69150000D02*
X61862500Y-73912500D01*
X61862500Y-73912500D02*
X61862500Y-88200000D01*
%TO.N,COL10*%
X247600000Y-50100000D02*
X247600000Y-69150000D01*
%TO.N,COL9*%
X228550000Y-50100000D02*
X228550000Y-69150000D01*
%TO.N,COL8*%
X209500000Y-50100000D02*
X209500000Y-69150000D01*
%TO.N,COL7*%
X190450000Y-50100000D02*
X190450000Y-69150000D01*
%TO.N,COL6*%
X171400000Y-50100000D02*
X171400000Y-69150000D01*
%TO.N,COL5*%
X152350000Y-50100000D02*
X152350000Y-69150000D01*
%TO.N,COL4*%
X133300000Y-50100000D02*
X133300000Y-69150000D01*
%TO.N,COL3*%
X114250000Y-50100000D02*
X114250000Y-69150000D01*
%TO.N,COL2*%
X95200000Y-50100000D02*
X95200000Y-69150000D01*
%TO.N,COL1*%
X76150000Y-50100000D02*
X76150000Y-69150000D01*
%TO.N,COL0*%
X57100000Y-50100000D02*
X57100000Y-69150000D01*
%TO.N,Net-(D1-A)*%
X50750000Y-52640000D02*
X50750000Y-63370000D01*
X50750000Y-63370000D02*
X51980000Y-64600000D01*
%TO.N,Net-(D2-A)*%
X69800000Y-52640000D02*
X69800000Y-63370000D01*
X69800000Y-63370000D02*
X71030000Y-64600000D01*
%TO.N,Net-(D3-A)*%
X88850000Y-52640000D02*
X88850000Y-63370000D01*
X88850000Y-63370000D02*
X90080000Y-64600000D01*
%TO.N,Net-(D4-A)*%
X107900000Y-52640000D02*
X107900000Y-63370000D01*
X107900000Y-63370000D02*
X109130000Y-64600000D01*
%TO.N,Net-(D5-A)*%
X126950000Y-63370000D02*
X128180000Y-64600000D01*
X126950000Y-52640000D02*
X126950000Y-63370000D01*
%TO.N,Net-(D6-A)*%
X146000000Y-63370000D02*
X147230000Y-64600000D01*
X146000000Y-52640000D02*
X146000000Y-63370000D01*
%TO.N,Net-(D7-A)*%
X165050000Y-52640000D02*
X165050000Y-63370000D01*
X165050000Y-63370000D02*
X166280000Y-64600000D01*
%TO.N,Net-(D8-A)*%
X184100000Y-52640000D02*
X184100000Y-63370000D01*
X184100000Y-63370000D02*
X185330000Y-64600000D01*
%TO.N,Net-(D9-A)*%
X203150000Y-63370000D02*
X204380000Y-64600000D01*
X203150000Y-52640000D02*
X203150000Y-63370000D01*
%TO.N,Net-(D10-A)*%
X222200000Y-52640000D02*
X222200000Y-63370000D01*
X222200000Y-63370000D02*
X223430000Y-64600000D01*
%TO.N,Net-(D11-A)*%
X241250000Y-63370000D02*
X242480000Y-64600000D01*
X241250000Y-52640000D02*
X241250000Y-63370000D01*
%TO.N,Net-(D12-A)*%
X260300000Y-52640000D02*
X260300000Y-63370000D01*
X260300000Y-63370000D02*
X261530000Y-64600000D01*
%TO.N,Net-(D13-A)*%
X279350000Y-63370000D02*
X280580000Y-64600000D01*
X279350000Y-52640000D02*
X279350000Y-63370000D01*
%TO.N,Net-(D14-A)*%
X298400000Y-63370000D02*
X299630000Y-64600000D01*
X298400000Y-52640000D02*
X298400000Y-63370000D01*
%TO.N,Net-(D15-A)*%
X317450000Y-52640000D02*
X317450000Y-63370000D01*
X317450000Y-63370000D02*
X318680000Y-64600000D01*
%TO.N,Net-(D16-A)*%
X336500000Y-63370000D02*
X337730000Y-64600000D01*
X336500000Y-52640000D02*
X336500000Y-63370000D01*
%TO.N,Net-(D17-A)*%
X50750000Y-82420000D02*
X51980000Y-83650000D01*
X50750000Y-71690000D02*
X50750000Y-82420000D01*
%TO.N,Net-(D18-A)*%
X69800000Y-71690000D02*
X69800000Y-82420000D01*
X69800000Y-82420000D02*
X71030000Y-83650000D01*
%TO.N,Net-(D19-A)*%
X88850000Y-71690000D02*
X88850000Y-82420000D01*
X88850000Y-82420000D02*
X90080000Y-83650000D01*
%TO.N,Net-(D20-A)*%
X107900000Y-71690000D02*
X107900000Y-82420000D01*
X107900000Y-82420000D02*
X109130000Y-83650000D01*
%TO.N,Net-(D21-A)*%
X126950000Y-82420000D02*
X128180000Y-83650000D01*
X126950000Y-71690000D02*
X126950000Y-82420000D01*
%TO.N,Net-(D22-A)*%
X146000000Y-82420000D02*
X147230000Y-83650000D01*
X146000000Y-71690000D02*
X146000000Y-82420000D01*
%TO.N,Net-(D23-A)*%
X165050000Y-71690000D02*
X165050000Y-82420000D01*
X165050000Y-82420000D02*
X166280000Y-83650000D01*
%TO.N,Net-(D24-A)*%
X184100000Y-71690000D02*
X184100000Y-82420000D01*
X184100000Y-82420000D02*
X185330000Y-83650000D01*
%TO.N,Net-(D25-A)*%
X203150000Y-71690000D02*
X203150000Y-82420000D01*
X203150000Y-82420000D02*
X204380000Y-83650000D01*
%TO.N,Net-(D26-A)*%
X222200000Y-71690000D02*
X222200000Y-82420000D01*
X222200000Y-82420000D02*
X223430000Y-83650000D01*
%TO.N,Net-(D27-A)*%
X241250000Y-71690000D02*
X241250000Y-82420000D01*
X241250000Y-82420000D02*
X242480000Y-83650000D01*
%TO.N,Net-(D28-A)*%
X260300000Y-82420000D02*
X261530000Y-83650000D01*
X260300000Y-71690000D02*
X260300000Y-82420000D01*
%TO.N,Net-(D29-A)*%
X279350000Y-71690000D02*
X279350000Y-82420000D01*
X279350000Y-82420000D02*
X280580000Y-83650000D01*
%TO.N,Net-(D30-A)*%
X307925000Y-71690000D02*
X307925000Y-82420000D01*
X307925000Y-82420000D02*
X309155000Y-83650000D01*
%TO.N,Net-(D31-A)*%
X336500000Y-82420000D02*
X337730000Y-83650000D01*
X336500000Y-71690000D02*
X336500000Y-82420000D01*
%TO.N,Net-(D32-A)*%
X55512500Y-101470000D02*
X56742500Y-102700000D01*
X55512500Y-90740000D02*
X55512500Y-101470000D01*
%TO.N,Net-(D33-A)*%
X79325000Y-90740000D02*
X79325000Y-101470000D01*
X79325000Y-101470000D02*
X80555000Y-102700000D01*
%TO.N,Net-(D34-A)*%
X98375000Y-90740000D02*
X98375000Y-101470000D01*
X98375000Y-101470000D02*
X99605000Y-102700000D01*
%TO.N,Net-(D35-A)*%
X117425000Y-101470000D02*
X118655000Y-102700000D01*
X117425000Y-90740000D02*
X117425000Y-101470000D01*
%TO.N,Net-(D36-A)*%
X136475000Y-101470000D02*
X137705000Y-102700000D01*
X136475000Y-90740000D02*
X136475000Y-101470000D01*
%TO.N,Net-(D37-A)*%
X155525000Y-101470000D02*
X156755000Y-102700000D01*
X155525000Y-90740000D02*
X155525000Y-101470000D01*
%TO.N,Net-(D38-A)*%
X174575000Y-90740000D02*
X174575000Y-101470000D01*
X174575000Y-101470000D02*
X175805000Y-102700000D01*
%TO.N,Net-(D39-A)*%
X193625000Y-90740000D02*
X193625000Y-101470000D01*
X193625000Y-101470000D02*
X194855000Y-102700000D01*
%TO.N,Net-(D40-A)*%
X212675000Y-90740000D02*
X212675000Y-101470000D01*
X212675000Y-101470000D02*
X213905000Y-102700000D01*
%TO.N,Net-(D41-A)*%
X231725000Y-101470000D02*
X232955000Y-102700000D01*
X231725000Y-90740000D02*
X231725000Y-101470000D01*
%TO.N,Net-(D42-A)*%
X250775000Y-90740000D02*
X250775000Y-101470000D01*
X250775000Y-101470000D02*
X252005000Y-102700000D01*
%TO.N,Net-(D43-A)*%
X269825000Y-90740000D02*
X269825000Y-101470000D01*
X269825000Y-101470000D02*
X271055000Y-102700000D01*
%TO.N,Net-(D44-A)*%
X288875000Y-90740000D02*
X288875000Y-101470000D01*
X288875000Y-101470000D02*
X290105000Y-102700000D01*
%TO.N,Net-(D45-A)*%
X312687500Y-101470000D02*
X313917500Y-102700000D01*
X312687500Y-90740000D02*
X312687500Y-101470000D01*
%TO.N,Net-(D46-A)*%
X336500000Y-90740000D02*
X336500000Y-101470000D01*
X336500000Y-101470000D02*
X337730000Y-102700000D01*
%TO.N,Net-(D47-A)*%
X57893750Y-120520000D02*
X59123750Y-121750000D01*
X57893750Y-109790000D02*
X57893750Y-120520000D01*
%TO.N,Net-(D48-A)*%
X84087500Y-120520000D02*
X85317500Y-121750000D01*
X84087500Y-109790000D02*
X84087500Y-120520000D01*
%TO.N,Net-(D49-A)*%
X103137500Y-120520000D02*
X104367500Y-121750000D01*
X103137500Y-109790000D02*
X103137500Y-120520000D01*
%TO.N,Net-(D50-A)*%
X122187500Y-109790000D02*
X122187500Y-120520000D01*
X122187500Y-120520000D02*
X123417500Y-121750000D01*
%TO.N,Net-(D51-A)*%
X141237500Y-120520000D02*
X142467500Y-121750000D01*
X141237500Y-109790000D02*
X141237500Y-120520000D01*
%TO.N,Net-(D52-A)*%
X160287500Y-109790000D02*
X160287500Y-120520000D01*
X160287500Y-120520000D02*
X161517500Y-121750000D01*
%TO.N,Net-(D53-A)*%
X179337500Y-109790000D02*
X179337500Y-120520000D01*
X179337500Y-120520000D02*
X180567500Y-121750000D01*
%TO.N,Net-(D54-A)*%
X198387500Y-109790000D02*
X198387500Y-120520000D01*
X198387500Y-120520000D02*
X199617500Y-121750000D01*
%TO.N,Net-(D55-A)*%
X217437500Y-120520000D02*
X218667500Y-121750000D01*
X217437500Y-109790000D02*
X217437500Y-120520000D01*
%TO.N,Net-(D56-A)*%
X236487500Y-120520000D02*
X237717500Y-121750000D01*
X236487500Y-109790000D02*
X236487500Y-120520000D01*
%TO.N,Net-(D57-A)*%
X255537500Y-109790000D02*
X255537500Y-120520000D01*
X255537500Y-120520000D02*
X256767500Y-121750000D01*
%TO.N,Net-(D58-A)*%
X274587500Y-109790000D02*
X274587500Y-120520000D01*
X274587500Y-120520000D02*
X275817500Y-121750000D01*
%TO.N,Net-(D59-A)*%
X305543750Y-109790000D02*
X305543750Y-120520000D01*
X305543750Y-120520000D02*
X306773750Y-121750000D01*
%TO.N,Net-(D60-A)*%
X336500000Y-109790000D02*
X336500000Y-120520000D01*
X336500000Y-120520000D02*
X337730000Y-121750000D01*
%TO.N,Net-(D61-A)*%
X62656250Y-128840000D02*
X62656250Y-139570000D01*
X62656250Y-139570000D02*
X63886250Y-140800000D01*
%TO.N,Net-(D62-A)*%
X93612500Y-139570000D02*
X94842500Y-140800000D01*
X93612500Y-128840000D02*
X93612500Y-139570000D01*
%TO.N,Net-(D63-A)*%
X112662500Y-128840000D02*
X112662500Y-139570000D01*
X112662500Y-139570000D02*
X113892500Y-140800000D01*
%TO.N,Net-(D64-A)*%
X131712500Y-128840000D02*
X131712500Y-139570000D01*
X131712500Y-139570000D02*
X132942500Y-140800000D01*
%TO.N,Net-(D65-A)*%
X150762500Y-139570000D02*
X151992500Y-140800000D01*
X150762500Y-128840000D02*
X150762500Y-139570000D01*
%TO.N,Net-(D66-A)*%
X169812500Y-139570000D02*
X171042500Y-140800000D01*
X169812500Y-128840000D02*
X169812500Y-139570000D01*
%TO.N,Net-(D67-A)*%
X188862500Y-128840000D02*
X188862500Y-139570000D01*
X188862500Y-139570000D02*
X190092500Y-140800000D01*
%TO.N,Net-(D68-A)*%
X207912500Y-139570000D02*
X209142500Y-140800000D01*
X207912500Y-128840000D02*
X207912500Y-139570000D01*
%TO.N,Net-(D69-A)*%
X226962500Y-128840000D02*
X226962500Y-139570000D01*
X226962500Y-139570000D02*
X228192500Y-140800000D01*
%TO.N,Net-(D70-A)*%
X246012500Y-128840000D02*
X246012500Y-139570000D01*
X246012500Y-139570000D02*
X247242500Y-140800000D01*
%TO.N,Net-(D71-A)*%
X265062500Y-128840000D02*
X265062500Y-139570000D01*
X265062500Y-139570000D02*
X266292500Y-140800000D01*
%TO.N,Net-(D72-A)*%
X291256250Y-128840000D02*
X291256250Y-139570000D01*
X291256250Y-139570000D02*
X292486250Y-140800000D01*
%TO.N,Net-(D73-A)*%
X317450000Y-128840000D02*
X317450000Y-139570000D01*
X317450000Y-139570000D02*
X318680000Y-140800000D01*
%TO.N,Net-(D74-A)*%
X336500000Y-128840000D02*
X336500000Y-139570000D01*
X336500000Y-139570000D02*
X337730000Y-140800000D01*
%TO.N,Net-(D75-A)*%
X53131250Y-158620000D02*
X54361250Y-159850000D01*
X53131250Y-147890000D02*
X53131250Y-158620000D01*
%TO.N,Net-(D76-A)*%
X78173750Y-149120000D02*
X78173750Y-159850000D01*
X76943750Y-147890000D02*
X78173750Y-149120000D01*
%TO.N,Net-(D77-A)*%
X100756250Y-147890000D02*
X100756250Y-158620000D01*
X100756250Y-158620000D02*
X101986250Y-159850000D01*
%TO.N,Net-(D78-A)*%
X172193750Y-158620000D02*
X173423750Y-159850000D01*
X172193750Y-147890000D02*
X172193750Y-158620000D01*
%TO.N,Net-(D79-A)*%
X242480000Y-149120000D02*
X242480000Y-159850000D01*
X241250000Y-147890000D02*
X242480000Y-149120000D01*
%TO.N,Net-(D80-A)*%
X261530000Y-149120000D02*
X261530000Y-159850000D01*
X260300000Y-147890000D02*
X261530000Y-149120000D01*
%TO.N,Net-(D81-A)*%
X279350000Y-147890000D02*
X280580000Y-149120000D01*
X280580000Y-149120000D02*
X280580000Y-159850000D01*
%TO.N,Net-(D82-A)*%
X298400000Y-158620000D02*
X299630000Y-159850000D01*
X298400000Y-147890000D02*
X298400000Y-158620000D01*
%TO.N,Net-(D83-A)*%
X317450000Y-147890000D02*
X317450000Y-158620000D01*
X317450000Y-158620000D02*
X318680000Y-159850000D01*
%TO.N,Net-(D84-A)*%
X336500000Y-158620000D02*
X337730000Y-159850000D01*
X336500000Y-147890000D02*
X336500000Y-158620000D01*
%TD*%
%TA.AperFunction,Conductor*%
%TO.N,GND*%
G36*
X42259624Y-69870002D02*
G01*
X42292053Y-69900068D01*
X42410175Y-70056487D01*
X42563308Y-70196086D01*
X42563309Y-70196087D01*
X42739473Y-70305163D01*
X42739476Y-70305164D01*
X42739485Y-70305170D01*
X42932707Y-70380024D01*
X43136393Y-70418100D01*
X43136397Y-70418100D01*
X43343603Y-70418100D01*
X43343607Y-70418100D01*
X43547293Y-70380024D01*
X43740515Y-70305170D01*
X43916692Y-70196086D01*
X44069826Y-70056486D01*
X44159483Y-69937759D01*
X44187947Y-69900068D01*
X44244961Y-69857761D01*
X44288497Y-69850000D01*
X46636500Y-69850000D01*
X46704621Y-69870002D01*
X46751114Y-69923658D01*
X46762500Y-69976000D01*
X46762500Y-78837958D01*
X46742498Y-78906079D01*
X46688842Y-78952572D01*
X46619991Y-78962471D01*
X46619942Y-78962850D01*
X46618593Y-78962672D01*
X46618568Y-78962676D01*
X46618474Y-78962656D01*
X46467000Y-78942715D01*
X46322247Y-78961771D01*
X46254802Y-78989708D01*
X46187358Y-79017645D01*
X46187357Y-79017646D01*
X46187356Y-79017646D01*
X46071526Y-79106526D01*
X45982646Y-79222356D01*
X45982645Y-79222358D01*
X45969675Y-79253670D01*
X45926771Y-79357247D01*
X45907715Y-79501999D01*
X45907715Y-79502000D01*
X45926771Y-79646752D01*
X45982644Y-79781642D01*
X45983617Y-79783326D01*
X45984120Y-79785204D01*
X45985806Y-79789274D01*
X45985270Y-79789495D01*
X46000500Y-79846330D01*
X46000500Y-89046361D01*
X45980498Y-89114482D01*
X45963595Y-89135456D01*
X45959531Y-89139519D01*
X45870646Y-89255356D01*
X45870645Y-89255358D01*
X45842708Y-89322802D01*
X45814771Y-89390247D01*
X45795715Y-89534999D01*
X45795715Y-89535000D01*
X45814771Y-89679752D01*
X45870644Y-89814641D01*
X45870649Y-89814649D01*
X45959525Y-89930474D01*
X46075350Y-90019350D01*
X46075357Y-90019355D01*
X46210246Y-90075228D01*
X46355000Y-90094285D01*
X46499754Y-90075228D01*
X46588283Y-90038557D01*
X46658871Y-90030968D01*
X46722358Y-90062746D01*
X46758586Y-90123804D01*
X46762500Y-90154966D01*
X46762500Y-115444000D01*
X46742498Y-115512121D01*
X46688842Y-115558614D01*
X46636500Y-115570000D01*
X27626500Y-115570000D01*
X27558379Y-115549998D01*
X27511886Y-115496342D01*
X27500500Y-115444000D01*
X27500500Y-108872998D01*
X31083037Y-108872998D01*
X31083038Y-108873000D01*
X31696392Y-108873000D01*
X31680000Y-108934174D01*
X31680000Y-109065826D01*
X31696392Y-109127000D01*
X31083038Y-109127000D01*
X31083037Y-109127001D01*
X31090147Y-109203725D01*
X31146138Y-109400514D01*
X31146140Y-109400519D01*
X31237340Y-109583672D01*
X31360637Y-109746946D01*
X31511838Y-109884784D01*
X31685796Y-109992493D01*
X31685803Y-109992496D01*
X31876578Y-110066403D01*
X31876576Y-110066403D01*
X32053000Y-110099381D01*
X32053000Y-109483608D01*
X32114174Y-109500000D01*
X32245826Y-109500000D01*
X32307000Y-109483608D01*
X32307000Y-110099381D01*
X32483422Y-110066403D01*
X32674196Y-109992496D01*
X32674203Y-109992493D01*
X32848161Y-109884784D01*
X32999362Y-109746946D01*
X33122659Y-109583672D01*
X33213859Y-109400519D01*
X33213861Y-109400514D01*
X33269852Y-109203725D01*
X33276962Y-109127001D01*
X33276962Y-109127000D01*
X32663608Y-109127000D01*
X32680000Y-109065826D01*
X32680000Y-108999995D01*
X33610768Y-108999995D01*
X33610768Y-109000004D01*
X33629654Y-109203819D01*
X33629655Y-109203821D01*
X33685672Y-109400701D01*
X33776912Y-109583935D01*
X33776913Y-109583936D01*
X33900266Y-109747284D01*
X34051536Y-109885185D01*
X34225566Y-109992940D01*
X34225568Y-109992940D01*
X34225573Y-109992944D01*
X34416444Y-110066888D01*
X34617653Y-110104500D01*
X34617655Y-110104500D01*
X34822345Y-110104500D01*
X34822347Y-110104500D01*
X35023556Y-110066888D01*
X35214427Y-109992944D01*
X35388462Y-109885186D01*
X35539732Y-109747285D01*
X35663088Y-109583935D01*
X35754328Y-109400701D01*
X35810345Y-109203821D01*
X35816640Y-109135880D01*
X35829232Y-109000004D01*
X35829232Y-108999995D01*
X35810345Y-108796180D01*
X35754499Y-108599901D01*
X35754328Y-108599299D01*
X35663088Y-108416065D01*
X35620699Y-108359933D01*
X35539733Y-108252715D01*
X35388463Y-108114814D01*
X35214430Y-108007058D01*
X35214424Y-108007054D01*
X35154982Y-107984026D01*
X35098688Y-107940766D01*
X35074718Y-107873938D01*
X35074500Y-107866535D01*
X35074500Y-84882786D01*
X35094502Y-84814665D01*
X35100538Y-84806081D01*
X35155355Y-84734643D01*
X35211228Y-84599754D01*
X35230285Y-84455000D01*
X35211228Y-84310246D01*
X35155355Y-84175358D01*
X35066474Y-84059526D01*
X35066472Y-84059524D01*
X35066471Y-84059523D01*
X34950649Y-83970649D01*
X34950641Y-83970644D01*
X34815752Y-83914771D01*
X34671000Y-83895715D01*
X34526247Y-83914771D01*
X34458802Y-83942708D01*
X34391358Y-83970645D01*
X34391357Y-83970646D01*
X34391356Y-83970646D01*
X34275526Y-84059526D01*
X34186646Y-84175356D01*
X34186645Y-84175358D01*
X34158708Y-84242802D01*
X34130771Y-84310247D01*
X34111715Y-84454999D01*
X34111715Y-84455000D01*
X34130771Y-84599752D01*
X34186644Y-84734641D01*
X34186649Y-84734649D01*
X34275524Y-84850473D01*
X34291872Y-84863017D01*
X34316204Y-84881687D01*
X34358071Y-84939023D01*
X34365500Y-84981649D01*
X34365500Y-107866535D01*
X34345498Y-107934656D01*
X34291842Y-107981149D01*
X34285018Y-107984026D01*
X34225575Y-108007054D01*
X34225569Y-108007058D01*
X34051536Y-108114814D01*
X33900266Y-108252715D01*
X33776913Y-108416063D01*
X33685671Y-108599301D01*
X33629654Y-108796180D01*
X33610768Y-108999995D01*
X32680000Y-108999995D01*
X32680000Y-108934174D01*
X32663608Y-108873000D01*
X33276962Y-108873000D01*
X33276962Y-108872998D01*
X33269852Y-108796274D01*
X33213861Y-108599485D01*
X33213859Y-108599480D01*
X33122659Y-108416327D01*
X32999362Y-108253053D01*
X32848161Y-108115215D01*
X32674203Y-108007506D01*
X32674196Y-108007503D01*
X32483422Y-107933596D01*
X32483424Y-107933596D01*
X32307000Y-107900617D01*
X32307000Y-108516391D01*
X32245826Y-108500000D01*
X32114174Y-108500000D01*
X32053000Y-108516391D01*
X32053000Y-107900617D01*
X31876576Y-107933596D01*
X31685803Y-108007503D01*
X31685796Y-108007506D01*
X31511838Y-108115215D01*
X31360637Y-108253053D01*
X31237340Y-108416327D01*
X31146140Y-108599480D01*
X31146138Y-108599485D01*
X31090147Y-108796274D01*
X31083037Y-108872998D01*
X27500500Y-108872998D01*
X27500500Y-102539996D01*
X31232891Y-102539996D01*
X31232891Y-102540003D01*
X31251280Y-102726715D01*
X31305747Y-102906270D01*
X31394193Y-103071741D01*
X31432264Y-103118130D01*
X31826754Y-102723640D01*
X31864799Y-102789536D01*
X31940464Y-102865201D01*
X32006358Y-102903245D01*
X31611869Y-103297734D01*
X31658258Y-103335806D01*
X31823729Y-103424252D01*
X32003284Y-103478719D01*
X32003283Y-103478719D01*
X32189997Y-103497109D01*
X32190003Y-103497109D01*
X32376715Y-103478719D01*
X32556270Y-103424252D01*
X32721736Y-103335809D01*
X32768129Y-103297733D01*
X32373641Y-102903245D01*
X32439536Y-102865201D01*
X32515201Y-102789536D01*
X32553245Y-102723641D01*
X32947733Y-103118129D01*
X32985809Y-103071736D01*
X33074252Y-102906270D01*
X33128719Y-102726715D01*
X33147109Y-102540003D01*
X33147109Y-102539996D01*
X33128719Y-102353284D01*
X33074252Y-102173729D01*
X32985806Y-102008258D01*
X32947734Y-101961869D01*
X32553245Y-102356358D01*
X32515201Y-102290464D01*
X32439536Y-102214799D01*
X32373640Y-102176754D01*
X32768130Y-101782264D01*
X32721741Y-101744193D01*
X32556270Y-101655747D01*
X32376715Y-101601280D01*
X32376716Y-101601280D01*
X32190003Y-101582891D01*
X32189997Y-101582891D01*
X32003284Y-101601280D01*
X31823729Y-101655747D01*
X31658260Y-101744192D01*
X31658256Y-101744194D01*
X31611868Y-101782263D01*
X32006359Y-102176753D01*
X31940464Y-102214799D01*
X31864799Y-102290464D01*
X31826754Y-102356359D01*
X31432263Y-101961868D01*
X31394194Y-102008256D01*
X31394192Y-102008260D01*
X31305747Y-102173729D01*
X31251280Y-102353284D01*
X31232891Y-102539996D01*
X27500500Y-102539996D01*
X27500500Y-97459996D01*
X31232389Y-97459996D01*
X31232389Y-97460003D01*
X31250787Y-97646813D01*
X31250787Y-97646815D01*
X31305282Y-97826459D01*
X31305284Y-97826465D01*
X31393776Y-97992020D01*
X31512867Y-98137133D01*
X31657980Y-98256224D01*
X31823538Y-98344717D01*
X32003179Y-98399211D01*
X32003183Y-98399211D01*
X32003185Y-98399212D01*
X32189997Y-98417611D01*
X32190000Y-98417611D01*
X32190003Y-98417611D01*
X32376813Y-98399212D01*
X32376815Y-98399212D01*
X32376816Y-98399211D01*
X32376821Y-98399211D01*
X32556462Y-98344717D01*
X32722020Y-98256224D01*
X32867133Y-98137133D01*
X32986224Y-97992020D01*
X33074717Y-97826462D01*
X33129211Y-97646821D01*
X33147611Y-97460000D01*
X33129212Y-97273186D01*
X33129212Y-97273184D01*
X33129211Y-97273181D01*
X33129211Y-97273179D01*
X33074717Y-97093538D01*
X32986224Y-96927980D01*
X32867133Y-96782867D01*
X32722020Y-96663776D01*
X32556465Y-96575284D01*
X32556459Y-96575282D01*
X32376814Y-96520787D01*
X32190003Y-96502389D01*
X32189997Y-96502389D01*
X32003186Y-96520787D01*
X32003184Y-96520787D01*
X31823540Y-96575282D01*
X31823534Y-96575284D01*
X31657979Y-96663776D01*
X31512867Y-96782867D01*
X31393776Y-96927979D01*
X31305284Y-97093534D01*
X31305282Y-97093540D01*
X31250787Y-97273184D01*
X31250787Y-97273186D01*
X31232389Y-97459996D01*
X27500500Y-97459996D01*
X27500500Y-92962666D01*
X27520502Y-92894545D01*
X27574158Y-92848052D01*
X27644432Y-92837948D01*
X27674715Y-92846257D01*
X27714547Y-92862756D01*
X27778745Y-92889348D01*
X27778749Y-92889349D01*
X27778754Y-92889351D01*
X27925294Y-92918500D01*
X28074706Y-92918500D01*
X28221246Y-92889351D01*
X28359284Y-92832174D01*
X28483516Y-92749165D01*
X28589165Y-92643516D01*
X28672174Y-92519284D01*
X28729351Y-92381246D01*
X28758500Y-92234706D01*
X28758500Y-92085294D01*
X28729351Y-91938754D01*
X28672174Y-91800716D01*
X28589165Y-91676484D01*
X28483516Y-91570835D01*
X28359284Y-91487826D01*
X28266882Y-91449552D01*
X28221249Y-91430650D01*
X28221246Y-91430649D01*
X28074709Y-91401500D01*
X28074706Y-91401500D01*
X27925294Y-91401500D01*
X27925290Y-91401500D01*
X27778753Y-91430649D01*
X27778750Y-91430650D01*
X27674718Y-91473742D01*
X27604128Y-91481331D01*
X27540641Y-91449552D01*
X27504414Y-91388494D01*
X27500500Y-91357333D01*
X27500500Y-90809499D01*
X27520502Y-90741378D01*
X27574158Y-90694885D01*
X27644432Y-90684781D01*
X27672013Y-90692007D01*
X27692707Y-90700024D01*
X27896393Y-90738100D01*
X27896397Y-90738100D01*
X28103603Y-90738100D01*
X28103607Y-90738100D01*
X28307293Y-90700024D01*
X28500515Y-90625170D01*
X28676692Y-90516086D01*
X28829826Y-90376486D01*
X28954700Y-90211125D01*
X28954701Y-90211121D01*
X28954703Y-90211120D01*
X29047060Y-90025643D01*
X29047059Y-90025643D01*
X29047064Y-90025635D01*
X29103771Y-89826330D01*
X29122890Y-89620000D01*
X29103771Y-89413670D01*
X29047064Y-89214365D01*
X29040905Y-89201996D01*
X29028445Y-89132101D01*
X29055752Y-89066566D01*
X29064581Y-89056756D01*
X31271671Y-86849668D01*
X31318341Y-86768832D01*
X31342500Y-86678671D01*
X31342500Y-86585329D01*
X31342500Y-81999999D01*
X35550715Y-81999999D01*
X35550715Y-82000000D01*
X35569771Y-82144752D01*
X35625644Y-82279641D01*
X35625649Y-82279649D01*
X35714526Y-82395475D01*
X35718595Y-82399544D01*
X35752621Y-82461856D01*
X35755500Y-82488639D01*
X35755500Y-107896674D01*
X35779659Y-107986833D01*
X35826326Y-108067664D01*
X35826328Y-108067666D01*
X35826329Y-108067668D01*
X36205542Y-108446881D01*
X36239566Y-108509192D01*
X36234502Y-108580007D01*
X36229240Y-108592131D01*
X36225674Y-108599292D01*
X36225671Y-108599301D01*
X36169654Y-108796180D01*
X36150768Y-108999995D01*
X36150768Y-109000004D01*
X36169654Y-109203819D01*
X36169655Y-109203821D01*
X36225672Y-109400701D01*
X36316912Y-109583935D01*
X36316913Y-109583936D01*
X36440266Y-109747284D01*
X36591536Y-109885185D01*
X36765566Y-109992940D01*
X36765568Y-109992940D01*
X36765573Y-109992944D01*
X36956444Y-110066888D01*
X37157653Y-110104500D01*
X37157655Y-110104500D01*
X37362345Y-110104500D01*
X37362347Y-110104500D01*
X37563556Y-110066888D01*
X37754427Y-109992944D01*
X37928462Y-109885186D01*
X38079732Y-109747285D01*
X38203088Y-109583935D01*
X38294328Y-109400701D01*
X38350345Y-109203821D01*
X38356640Y-109135880D01*
X38369232Y-109000004D01*
X38369232Y-108999995D01*
X38350345Y-108796180D01*
X38294499Y-108599901D01*
X38294328Y-108599299D01*
X38203088Y-108416065D01*
X38160699Y-108359933D01*
X38079733Y-108252715D01*
X37928463Y-108114814D01*
X37754433Y-108007059D01*
X37754428Y-108007057D01*
X37754427Y-108007056D01*
X37691211Y-107982566D01*
X37563559Y-107933113D01*
X37563560Y-107933113D01*
X37563557Y-107933112D01*
X37563556Y-107933112D01*
X37362347Y-107895500D01*
X37157653Y-107895500D01*
X37078661Y-107910266D01*
X36956442Y-107933112D01*
X36844163Y-107976610D01*
X36773417Y-107982566D01*
X36710681Y-107949329D01*
X36709552Y-107948213D01*
X36501405Y-107740066D01*
X36467379Y-107677754D01*
X36464500Y-107650971D01*
X36464500Y-82488639D01*
X36484502Y-82420518D01*
X36501405Y-82399544D01*
X36505473Y-82395475D01*
X36512722Y-82386028D01*
X36594355Y-82279643D01*
X36650228Y-82144754D01*
X36650811Y-82140325D01*
X37618500Y-82140325D01*
X37618500Y-107219674D01*
X37642659Y-107309833D01*
X37689326Y-107390664D01*
X37689328Y-107390666D01*
X37689329Y-107390668D01*
X38658596Y-108359935D01*
X38692620Y-108422246D01*
X38695500Y-108449029D01*
X38695500Y-109875063D01*
X38695501Y-109875073D01*
X38710265Y-109949300D01*
X38766516Y-110033484D01*
X38850697Y-110089733D01*
X38850699Y-110089734D01*
X38924933Y-110104500D01*
X40675066Y-110104499D01*
X40675069Y-110104498D01*
X40675073Y-110104498D01*
X40724326Y-110094701D01*
X40749301Y-110089734D01*
X40833484Y-110033484D01*
X40889734Y-109949301D01*
X40904500Y-109875067D01*
X40904499Y-108124934D01*
X40904498Y-108124931D01*
X40904498Y-108124926D01*
X40889734Y-108050699D01*
X40860574Y-108007059D01*
X40833484Y-107966516D01*
X40833483Y-107966515D01*
X40749302Y-107910266D01*
X40675069Y-107895500D01*
X40675067Y-107895500D01*
X39249029Y-107895500D01*
X39180908Y-107875498D01*
X39159934Y-107858595D01*
X38364405Y-107063066D01*
X38330379Y-107000754D01*
X38327500Y-106973971D01*
X38327500Y-102539996D01*
X38852891Y-102539996D01*
X38852891Y-102540003D01*
X38871280Y-102726715D01*
X38925747Y-102906270D01*
X39014193Y-103071741D01*
X39052264Y-103118130D01*
X39446754Y-102723640D01*
X39484799Y-102789536D01*
X39560464Y-102865201D01*
X39626358Y-102903245D01*
X39231869Y-103297734D01*
X39278258Y-103335806D01*
X39443729Y-103424252D01*
X39623284Y-103478719D01*
X39623283Y-103478719D01*
X39809997Y-103497109D01*
X39810003Y-103497109D01*
X39996715Y-103478719D01*
X40176270Y-103424252D01*
X40341736Y-103335809D01*
X40388129Y-103297733D01*
X39993641Y-102903245D01*
X40059536Y-102865201D01*
X40135201Y-102789536D01*
X40173245Y-102723641D01*
X40567733Y-103118129D01*
X40605809Y-103071736D01*
X40694252Y-102906270D01*
X40748719Y-102726715D01*
X40767109Y-102540003D01*
X40767109Y-102539996D01*
X40748719Y-102353284D01*
X40694252Y-102173729D01*
X40605806Y-102008258D01*
X40567734Y-101961869D01*
X40173245Y-102356358D01*
X40135201Y-102290464D01*
X40059536Y-102214799D01*
X39993640Y-102176754D01*
X40388130Y-101782264D01*
X40341741Y-101744193D01*
X40176270Y-101655747D01*
X39996715Y-101601280D01*
X39996716Y-101601280D01*
X39810003Y-101582891D01*
X39809997Y-101582891D01*
X39623284Y-101601280D01*
X39443729Y-101655747D01*
X39278260Y-101744192D01*
X39278256Y-101744194D01*
X39231868Y-101782263D01*
X39626359Y-102176753D01*
X39560464Y-102214799D01*
X39484799Y-102290464D01*
X39446754Y-102356359D01*
X39052263Y-101961868D01*
X39014194Y-102008256D01*
X39014192Y-102008260D01*
X38925747Y-102173729D01*
X38871280Y-102353284D01*
X38852891Y-102539996D01*
X38327500Y-102539996D01*
X38327500Y-97459996D01*
X38852389Y-97459996D01*
X38852389Y-97460003D01*
X38870787Y-97646813D01*
X38870787Y-97646815D01*
X38925282Y-97826459D01*
X38925284Y-97826465D01*
X39013776Y-97992020D01*
X39132867Y-98137133D01*
X39277980Y-98256224D01*
X39443538Y-98344717D01*
X39623179Y-98399211D01*
X39623183Y-98399211D01*
X39623185Y-98399212D01*
X39809997Y-98417611D01*
X39810000Y-98417611D01*
X39810003Y-98417611D01*
X39996813Y-98399212D01*
X39996815Y-98399212D01*
X39996816Y-98399211D01*
X39996821Y-98399211D01*
X40176462Y-98344717D01*
X40342020Y-98256224D01*
X40487133Y-98137133D01*
X40606224Y-97992020D01*
X40694717Y-97826462D01*
X40749211Y-97646821D01*
X40767611Y-97460000D01*
X40749212Y-97273186D01*
X40749212Y-97273184D01*
X40749211Y-97273181D01*
X40749211Y-97273179D01*
X40694717Y-97093538D01*
X40606224Y-96927980D01*
X40487133Y-96782867D01*
X40342020Y-96663776D01*
X40176465Y-96575284D01*
X40176459Y-96575282D01*
X39996814Y-96520787D01*
X39810003Y-96502389D01*
X39809997Y-96502389D01*
X39623186Y-96520787D01*
X39623184Y-96520787D01*
X39443540Y-96575282D01*
X39443534Y-96575284D01*
X39277979Y-96663776D01*
X39132867Y-96782867D01*
X39013776Y-96927979D01*
X38925284Y-97093534D01*
X38925282Y-97093540D01*
X38870787Y-97273184D01*
X38870787Y-97273186D01*
X38852389Y-97459996D01*
X38327500Y-97459996D01*
X38327500Y-83156325D01*
X39142500Y-83156325D01*
X39142500Y-92883674D01*
X39166659Y-92973833D01*
X39213326Y-93054664D01*
X39213334Y-93054674D01*
X41313810Y-95155149D01*
X41347835Y-95217461D01*
X41350715Y-95244244D01*
X41350715Y-95250000D01*
X41369771Y-95394752D01*
X41425644Y-95529641D01*
X41425649Y-95529649D01*
X41514525Y-95645474D01*
X41630350Y-95734350D01*
X41630357Y-95734355D01*
X41765246Y-95790228D01*
X41910000Y-95809285D01*
X42054754Y-95790228D01*
X42189643Y-95734355D01*
X42305474Y-95645474D01*
X42394355Y-95529643D01*
X42450228Y-95394754D01*
X42469285Y-95250000D01*
X42450228Y-95105246D01*
X42394355Y-94970358D01*
X42305474Y-94854526D01*
X42305472Y-94854524D01*
X42305471Y-94854523D01*
X42189649Y-94765649D01*
X42189641Y-94765644D01*
X42054752Y-94709771D01*
X41910000Y-94690715D01*
X41904244Y-94690715D01*
X41836123Y-94670713D01*
X41815149Y-94653810D01*
X39888405Y-92727066D01*
X39854379Y-92664754D01*
X39851500Y-92637971D01*
X39851500Y-92066381D01*
X42289500Y-92066381D01*
X42289500Y-92253618D01*
X42326027Y-92437251D01*
X42397678Y-92610231D01*
X42501698Y-92765908D01*
X42634092Y-92898302D01*
X42789769Y-93002322D01*
X42962749Y-93073973D01*
X43146384Y-93110500D01*
X43146385Y-93110500D01*
X43333615Y-93110500D01*
X43333616Y-93110500D01*
X43517251Y-93073973D01*
X43690231Y-93002322D01*
X43845908Y-92898302D01*
X43978302Y-92765908D01*
X44082322Y-92610231D01*
X44153973Y-92437251D01*
X44190500Y-92253616D01*
X44190500Y-92066384D01*
X44153973Y-91882749D01*
X44082322Y-91709769D01*
X43978302Y-91554092D01*
X43845908Y-91421698D01*
X43690231Y-91317678D01*
X43517251Y-91246027D01*
X43333618Y-91209500D01*
X43333616Y-91209500D01*
X43146384Y-91209500D01*
X43146381Y-91209500D01*
X42962748Y-91246027D01*
X42962743Y-91246029D01*
X42789769Y-91317678D01*
X42634096Y-91421695D01*
X42634089Y-91421700D01*
X42501700Y-91554089D01*
X42501695Y-91554096D01*
X42397678Y-91709769D01*
X42326029Y-91882743D01*
X42326027Y-91882748D01*
X42289500Y-92066381D01*
X39851500Y-92066381D01*
X39851500Y-89620000D01*
X42117110Y-89620000D01*
X42136229Y-89826332D01*
X42192933Y-90025627D01*
X42192939Y-90025643D01*
X42285296Y-90211120D01*
X42285300Y-90211125D01*
X42410175Y-90376487D01*
X42563308Y-90516086D01*
X42563309Y-90516087D01*
X42739473Y-90625163D01*
X42739476Y-90625164D01*
X42739485Y-90625170D01*
X42932707Y-90700024D01*
X43136393Y-90738100D01*
X43136397Y-90738100D01*
X43343603Y-90738100D01*
X43343607Y-90738100D01*
X43547293Y-90700024D01*
X43740515Y-90625170D01*
X43916692Y-90516086D01*
X44069826Y-90376486D01*
X44194700Y-90211125D01*
X44194701Y-90211121D01*
X44194703Y-90211120D01*
X44287060Y-90025643D01*
X44287059Y-90025643D01*
X44287064Y-90025635D01*
X44343771Y-89826330D01*
X44362890Y-89620000D01*
X44343771Y-89413670D01*
X44287064Y-89214365D01*
X44280905Y-89201996D01*
X44194703Y-89028879D01*
X44194699Y-89028874D01*
X44069824Y-88863512D01*
X43916691Y-88723913D01*
X43916690Y-88723912D01*
X43740526Y-88614836D01*
X43740519Y-88614832D01*
X43740515Y-88614830D01*
X43593047Y-88557701D01*
X43547294Y-88539976D01*
X43343607Y-88501900D01*
X43136393Y-88501900D01*
X43136392Y-88501900D01*
X42932705Y-88539976D01*
X42799121Y-88591727D01*
X42739485Y-88614830D01*
X42739484Y-88614830D01*
X42739483Y-88614831D01*
X42739473Y-88614836D01*
X42563309Y-88723912D01*
X42563308Y-88723913D01*
X42410175Y-88863512D01*
X42285300Y-89028874D01*
X42285296Y-89028879D01*
X42192939Y-89214356D01*
X42192933Y-89214372D01*
X42136229Y-89413667D01*
X42117110Y-89620000D01*
X39851500Y-89620000D01*
X39851500Y-87080000D01*
X42117110Y-87080000D01*
X42136229Y-87286332D01*
X42192933Y-87485627D01*
X42192939Y-87485643D01*
X42285296Y-87671120D01*
X42285300Y-87671125D01*
X42410175Y-87836487D01*
X42563308Y-87976086D01*
X42563309Y-87976087D01*
X42739473Y-88085163D01*
X42739476Y-88085164D01*
X42739485Y-88085170D01*
X42932707Y-88160024D01*
X43136393Y-88198100D01*
X43136397Y-88198100D01*
X43343603Y-88198100D01*
X43343607Y-88198100D01*
X43547293Y-88160024D01*
X43740515Y-88085170D01*
X43916692Y-87976086D01*
X44069826Y-87836486D01*
X44194700Y-87671125D01*
X44194701Y-87671121D01*
X44194703Y-87671120D01*
X44287060Y-87485643D01*
X44287059Y-87485643D01*
X44287064Y-87485635D01*
X44343771Y-87286330D01*
X44362890Y-87080000D01*
X44343771Y-86873670D01*
X44287064Y-86674365D01*
X44287060Y-86674356D01*
X44194703Y-86488879D01*
X44194699Y-86488874D01*
X44191895Y-86485161D01*
X44069826Y-86323514D01*
X43916692Y-86183914D01*
X43916691Y-86183913D01*
X43916690Y-86183912D01*
X43740526Y-86074836D01*
X43740519Y-86074832D01*
X43740515Y-86074830D01*
X43622148Y-86028974D01*
X43547294Y-85999976D01*
X43343607Y-85961900D01*
X43136393Y-85961900D01*
X43136392Y-85961900D01*
X42932705Y-85999976D01*
X42782997Y-86057973D01*
X42739485Y-86074830D01*
X42739484Y-86074830D01*
X42739483Y-86074831D01*
X42739473Y-86074836D01*
X42563309Y-86183912D01*
X42563308Y-86183913D01*
X42410175Y-86323512D01*
X42285300Y-86488874D01*
X42285296Y-86488879D01*
X42192939Y-86674356D01*
X42192933Y-86674372D01*
X42136229Y-86873667D01*
X42117110Y-87080000D01*
X39851500Y-87080000D01*
X39851500Y-84540000D01*
X42117110Y-84540000D01*
X42136229Y-84746332D01*
X42192933Y-84945627D01*
X42192939Y-84945643D01*
X42285296Y-85131120D01*
X42285300Y-85131125D01*
X42410175Y-85296487D01*
X42563308Y-85436086D01*
X42563309Y-85436087D01*
X42739473Y-85545163D01*
X42739476Y-85545164D01*
X42739485Y-85545170D01*
X42932707Y-85620024D01*
X43136393Y-85658100D01*
X43136397Y-85658100D01*
X43343603Y-85658100D01*
X43343607Y-85658100D01*
X43547293Y-85620024D01*
X43740515Y-85545170D01*
X43916692Y-85436086D01*
X44069826Y-85296486D01*
X44194700Y-85131125D01*
X44194701Y-85131121D01*
X44194703Y-85131120D01*
X44287060Y-84945643D01*
X44287059Y-84945643D01*
X44287064Y-84945635D01*
X44343771Y-84746330D01*
X44362890Y-84540000D01*
X44343771Y-84333670D01*
X44287064Y-84134365D01*
X44287060Y-84134356D01*
X44194703Y-83948879D01*
X44194699Y-83948874D01*
X44069826Y-83783514D01*
X43916692Y-83643914D01*
X43916691Y-83643913D01*
X43916690Y-83643912D01*
X43740526Y-83534836D01*
X43740519Y-83534832D01*
X43740515Y-83534830D01*
X43622148Y-83488974D01*
X43547294Y-83459976D01*
X43343607Y-83421900D01*
X43136393Y-83421900D01*
X43136392Y-83421900D01*
X42932705Y-83459976D01*
X42782997Y-83517973D01*
X42739485Y-83534830D01*
X42739484Y-83534830D01*
X42739483Y-83534831D01*
X42739473Y-83534836D01*
X42563309Y-83643912D01*
X42563308Y-83643913D01*
X42410175Y-83783512D01*
X42285300Y-83948874D01*
X42285296Y-83948879D01*
X42192939Y-84134356D01*
X42192933Y-84134372D01*
X42136229Y-84333667D01*
X42117110Y-84540000D01*
X39851500Y-84540000D01*
X39851500Y-83402027D01*
X39871502Y-83333906D01*
X39888400Y-83312937D01*
X41907307Y-81294029D01*
X41969617Y-81260006D01*
X42040432Y-81265070D01*
X42097268Y-81307617D01*
X42122079Y-81374137D01*
X42122400Y-81383126D01*
X42122400Y-81873000D01*
X42748109Y-81873000D01*
X42732000Y-81933120D01*
X42732000Y-82066880D01*
X42748109Y-82127000D01*
X42122401Y-82127000D01*
X42122401Y-82888622D01*
X42137137Y-82962705D01*
X42137137Y-82962707D01*
X42193275Y-83046724D01*
X42277293Y-83102862D01*
X42277294Y-83102863D01*
X42351380Y-83117599D01*
X43113000Y-83117599D01*
X43113000Y-82491891D01*
X43173120Y-82508000D01*
X43306880Y-82508000D01*
X43367000Y-82491891D01*
X43367000Y-83117599D01*
X44128614Y-83117599D01*
X44128622Y-83117598D01*
X44202705Y-83102862D01*
X44202707Y-83102862D01*
X44286724Y-83046724D01*
X44342862Y-82962706D01*
X44342863Y-82962705D01*
X44357599Y-82888622D01*
X44357600Y-82888615D01*
X44357600Y-82127000D01*
X43731891Y-82127000D01*
X43748000Y-82066880D01*
X43748000Y-81933120D01*
X43731891Y-81873000D01*
X44357599Y-81873000D01*
X44357599Y-81111386D01*
X44357598Y-81111377D01*
X44342862Y-81037294D01*
X44342862Y-81037292D01*
X44286724Y-80953275D01*
X44202706Y-80897137D01*
X44202705Y-80897136D01*
X44128622Y-80882400D01*
X43367000Y-80882400D01*
X43367000Y-81508108D01*
X43306880Y-81492000D01*
X43173120Y-81492000D01*
X43113000Y-81508108D01*
X43113000Y-80882400D01*
X42623126Y-80882400D01*
X42555005Y-80862398D01*
X42508512Y-80808742D01*
X42498408Y-80738468D01*
X42527902Y-80673888D01*
X42534003Y-80667333D01*
X42679041Y-80522295D01*
X42741351Y-80488272D01*
X42812167Y-80493337D01*
X42813587Y-80493877D01*
X42932707Y-80540024D01*
X43136393Y-80578100D01*
X43136397Y-80578100D01*
X43343603Y-80578100D01*
X43343607Y-80578100D01*
X43547293Y-80540024D01*
X43740515Y-80465170D01*
X43916692Y-80356086D01*
X44069826Y-80216486D01*
X44194700Y-80051125D01*
X44194701Y-80051121D01*
X44194703Y-80051120D01*
X44287060Y-79865643D01*
X44287059Y-79865643D01*
X44287064Y-79865635D01*
X44343771Y-79666330D01*
X44362890Y-79460000D01*
X44343771Y-79253670D01*
X44287064Y-79054365D01*
X44274838Y-79029812D01*
X44194703Y-78868879D01*
X44194699Y-78868874D01*
X44069826Y-78703514D01*
X43916692Y-78563914D01*
X43916691Y-78563913D01*
X43916690Y-78563912D01*
X43740526Y-78454836D01*
X43740519Y-78454832D01*
X43740515Y-78454830D01*
X43622148Y-78408974D01*
X43547294Y-78379976D01*
X43343607Y-78341900D01*
X43136393Y-78341900D01*
X43136392Y-78341900D01*
X42932705Y-78379976D01*
X42782997Y-78437973D01*
X42739485Y-78454830D01*
X42739484Y-78454830D01*
X42739483Y-78454831D01*
X42739473Y-78454836D01*
X42563309Y-78563912D01*
X42563308Y-78563913D01*
X42410175Y-78703512D01*
X42285300Y-78868874D01*
X42285296Y-78868879D01*
X42192939Y-79054356D01*
X42192933Y-79054372D01*
X42136229Y-79253667D01*
X42117110Y-79460000D01*
X42136229Y-79666331D01*
X42192933Y-79865626D01*
X42192937Y-79865638D01*
X42199094Y-79878001D01*
X42211554Y-79947896D01*
X42184247Y-80013431D01*
X42175399Y-80023260D01*
X39261607Y-82937051D01*
X39261608Y-82937052D01*
X39213331Y-82985329D01*
X39213326Y-82985335D01*
X39166659Y-83066166D01*
X39142500Y-83156325D01*
X38327500Y-83156325D01*
X38327500Y-82386028D01*
X38347502Y-82317907D01*
X38364400Y-82296938D01*
X42679041Y-77982296D01*
X42741351Y-77948272D01*
X42812166Y-77953337D01*
X42813589Y-77953878D01*
X42932707Y-78000024D01*
X43136393Y-78038100D01*
X43136397Y-78038100D01*
X43343603Y-78038100D01*
X43343607Y-78038100D01*
X43547293Y-78000024D01*
X43740515Y-77925170D01*
X43916692Y-77816086D01*
X44069826Y-77676486D01*
X44194700Y-77511125D01*
X44194701Y-77511121D01*
X44194703Y-77511120D01*
X44287060Y-77325643D01*
X44287059Y-77325643D01*
X44287064Y-77325635D01*
X44343771Y-77126330D01*
X44362890Y-76920000D01*
X44343771Y-76713670D01*
X44287064Y-76514365D01*
X44287060Y-76514356D01*
X44194703Y-76328879D01*
X44194699Y-76328874D01*
X44069824Y-76163512D01*
X43916691Y-76023913D01*
X43916690Y-76023912D01*
X43740526Y-75914836D01*
X43740519Y-75914832D01*
X43740515Y-75914830D01*
X43622148Y-75868974D01*
X43547294Y-75839976D01*
X43343607Y-75801900D01*
X43136393Y-75801900D01*
X43136392Y-75801900D01*
X42932705Y-75839976D01*
X42782997Y-75897973D01*
X42739485Y-75914830D01*
X42739484Y-75914830D01*
X42739483Y-75914831D01*
X42739473Y-75914836D01*
X42563309Y-76023912D01*
X42563308Y-76023913D01*
X42410175Y-76163512D01*
X42285300Y-76328874D01*
X42285296Y-76328879D01*
X42192939Y-76514356D01*
X42192933Y-76514372D01*
X42136229Y-76713667D01*
X42117110Y-76920000D01*
X42136229Y-77126331D01*
X42192933Y-77325626D01*
X42192937Y-77325638D01*
X42199094Y-77338001D01*
X42211554Y-77407896D01*
X42184247Y-77473431D01*
X42175399Y-77483260D01*
X38849919Y-80808742D01*
X37755332Y-81903329D01*
X37725541Y-81933120D01*
X37689330Y-81969330D01*
X37689326Y-81969335D01*
X37642659Y-82050166D01*
X37618500Y-82140325D01*
X36650811Y-82140325D01*
X36669285Y-82000000D01*
X36650228Y-81855246D01*
X36594355Y-81720358D01*
X36505474Y-81604526D01*
X36505472Y-81604524D01*
X36505471Y-81604523D01*
X36389649Y-81515649D01*
X36389641Y-81515644D01*
X36254752Y-81459771D01*
X36110000Y-81440715D01*
X35965247Y-81459771D01*
X35897802Y-81487708D01*
X35830358Y-81515645D01*
X35830357Y-81515646D01*
X35830356Y-81515646D01*
X35714526Y-81604526D01*
X35625646Y-81720356D01*
X35625645Y-81720358D01*
X35597708Y-81787802D01*
X35569771Y-81855247D01*
X35550715Y-81999999D01*
X31342500Y-81999999D01*
X31342500Y-76180639D01*
X31362502Y-76112518D01*
X31379405Y-76091544D01*
X31383473Y-76087475D01*
X31426519Y-76031377D01*
X31472355Y-75971643D01*
X31528228Y-75836754D01*
X31547285Y-75692000D01*
X31528228Y-75547246D01*
X31472355Y-75412358D01*
X31383474Y-75296526D01*
X31383472Y-75296524D01*
X31383471Y-75296523D01*
X31267649Y-75207649D01*
X31267641Y-75207644D01*
X31132752Y-75151771D01*
X30988000Y-75132715D01*
X30843247Y-75151771D01*
X30775802Y-75179708D01*
X30708358Y-75207645D01*
X30708357Y-75207646D01*
X30708356Y-75207646D01*
X30592526Y-75296526D01*
X30503646Y-75412356D01*
X30503645Y-75412358D01*
X30490215Y-75444781D01*
X30447771Y-75547247D01*
X30428715Y-75691999D01*
X30428715Y-75692000D01*
X30447771Y-75836752D01*
X30503644Y-75971641D01*
X30503649Y-75971649D01*
X30592526Y-76087475D01*
X30596595Y-76091544D01*
X30630621Y-76153856D01*
X30633500Y-76180639D01*
X30633500Y-86432970D01*
X30613498Y-86501091D01*
X30596595Y-86522065D01*
X28560958Y-88557701D01*
X28498646Y-88591727D01*
X28427830Y-88586662D01*
X28426432Y-88586130D01*
X28327985Y-88547992D01*
X28307294Y-88539976D01*
X28103607Y-88501900D01*
X27896393Y-88501900D01*
X27896392Y-88501900D01*
X27692701Y-88539977D01*
X27672012Y-88547992D01*
X27601266Y-88553946D01*
X27538531Y-88520707D01*
X27503726Y-88458827D01*
X27500500Y-88430499D01*
X27500500Y-88269499D01*
X27520502Y-88201378D01*
X27574158Y-88154885D01*
X27644432Y-88144781D01*
X27672013Y-88152007D01*
X27692707Y-88160024D01*
X27896393Y-88198100D01*
X27896397Y-88198100D01*
X28103603Y-88198100D01*
X28103607Y-88198100D01*
X28307293Y-88160024D01*
X28500515Y-88085170D01*
X28676692Y-87976086D01*
X28829826Y-87836486D01*
X28954700Y-87671125D01*
X28954701Y-87671121D01*
X28954703Y-87671120D01*
X29047060Y-87485643D01*
X29047059Y-87485643D01*
X29047064Y-87485635D01*
X29103771Y-87286330D01*
X29122890Y-87080000D01*
X29103771Y-86873670D01*
X29047064Y-86674365D01*
X29047060Y-86674356D01*
X28954703Y-86488879D01*
X28954699Y-86488874D01*
X28951895Y-86485161D01*
X28829826Y-86323514D01*
X28676692Y-86183914D01*
X28676691Y-86183913D01*
X28676690Y-86183912D01*
X28500526Y-86074836D01*
X28500519Y-86074832D01*
X28500515Y-86074830D01*
X28382148Y-86028974D01*
X28307294Y-85999976D01*
X28103607Y-85961900D01*
X27896393Y-85961900D01*
X27896392Y-85961900D01*
X27692701Y-85999977D01*
X27672012Y-86007992D01*
X27601266Y-86013946D01*
X27538531Y-85980707D01*
X27503726Y-85918827D01*
X27500500Y-85890499D01*
X27500500Y-85729499D01*
X27520502Y-85661378D01*
X27574158Y-85614885D01*
X27644432Y-85604781D01*
X27672013Y-85612007D01*
X27692707Y-85620024D01*
X27896393Y-85658100D01*
X27896397Y-85658100D01*
X28103603Y-85658100D01*
X28103607Y-85658100D01*
X28307293Y-85620024D01*
X28500515Y-85545170D01*
X28676692Y-85436086D01*
X28829826Y-85296486D01*
X28954700Y-85131125D01*
X28954701Y-85131121D01*
X28954703Y-85131120D01*
X29047060Y-84945643D01*
X29047059Y-84945643D01*
X29047064Y-84945635D01*
X29103771Y-84746330D01*
X29122890Y-84540000D01*
X29103771Y-84333670D01*
X29047064Y-84134365D01*
X29047060Y-84134356D01*
X28954703Y-83948879D01*
X28954699Y-83948874D01*
X28829826Y-83783514D01*
X28676692Y-83643914D01*
X28676691Y-83643913D01*
X28676690Y-83643912D01*
X28500526Y-83534836D01*
X28500519Y-83534832D01*
X28500515Y-83534830D01*
X28382148Y-83488974D01*
X28307294Y-83459976D01*
X28103607Y-83421900D01*
X27896393Y-83421900D01*
X27896392Y-83421900D01*
X27692701Y-83459977D01*
X27672012Y-83467992D01*
X27601266Y-83473946D01*
X27538531Y-83440707D01*
X27503726Y-83378827D01*
X27500500Y-83350499D01*
X27500500Y-83189499D01*
X27520502Y-83121378D01*
X27574158Y-83074885D01*
X27644432Y-83064781D01*
X27672013Y-83072007D01*
X27692707Y-83080024D01*
X27896393Y-83118100D01*
X27896397Y-83118100D01*
X28103603Y-83118100D01*
X28103607Y-83118100D01*
X28307293Y-83080024D01*
X28500515Y-83005170D01*
X28676692Y-82896086D01*
X28829826Y-82756486D01*
X28954700Y-82591125D01*
X28954701Y-82591121D01*
X28954703Y-82591120D01*
X29047060Y-82405643D01*
X29047059Y-82405643D01*
X29047064Y-82405635D01*
X29103771Y-82206330D01*
X29122890Y-82000000D01*
X29103771Y-81793670D01*
X29047064Y-81594365D01*
X29047060Y-81594356D01*
X28954703Y-81408879D01*
X28954699Y-81408874D01*
X28829824Y-81243512D01*
X28676691Y-81103913D01*
X28676690Y-81103912D01*
X28500526Y-80994836D01*
X28500519Y-80994832D01*
X28500515Y-80994830D01*
X28382148Y-80948974D01*
X28307294Y-80919976D01*
X28103607Y-80881900D01*
X27896393Y-80881900D01*
X27896392Y-80881900D01*
X27692701Y-80919977D01*
X27672012Y-80927992D01*
X27601266Y-80933946D01*
X27538531Y-80900707D01*
X27503726Y-80838827D01*
X27500500Y-80810499D01*
X27500500Y-80649499D01*
X27520502Y-80581378D01*
X27574158Y-80534885D01*
X27644432Y-80524781D01*
X27672013Y-80532007D01*
X27692707Y-80540024D01*
X27896393Y-80578100D01*
X27896397Y-80578100D01*
X28103603Y-80578100D01*
X28103607Y-80578100D01*
X28307293Y-80540024D01*
X28500515Y-80465170D01*
X28676692Y-80356086D01*
X28829826Y-80216486D01*
X28954700Y-80051125D01*
X28954701Y-80051121D01*
X28954703Y-80051120D01*
X29047060Y-79865643D01*
X29047059Y-79865643D01*
X29047064Y-79865635D01*
X29103771Y-79666330D01*
X29122890Y-79460000D01*
X29103771Y-79253670D01*
X29047064Y-79054365D01*
X29034838Y-79029812D01*
X28954703Y-78868879D01*
X28954699Y-78868874D01*
X28829826Y-78703514D01*
X28676692Y-78563914D01*
X28676691Y-78563913D01*
X28676690Y-78563912D01*
X28500526Y-78454836D01*
X28500519Y-78454832D01*
X28500515Y-78454830D01*
X28382148Y-78408974D01*
X28307294Y-78379976D01*
X28103607Y-78341900D01*
X27896393Y-78341900D01*
X27896392Y-78341900D01*
X27692701Y-78379977D01*
X27672012Y-78387992D01*
X27601266Y-78393946D01*
X27538531Y-78360707D01*
X27503726Y-78298827D01*
X27500500Y-78270499D01*
X27500500Y-78163599D01*
X27520502Y-78095478D01*
X27574158Y-78048985D01*
X27626500Y-78037599D01*
X27873000Y-78037599D01*
X27873000Y-77411891D01*
X27933120Y-77428000D01*
X28066880Y-77428000D01*
X28127000Y-77411891D01*
X28127000Y-78037599D01*
X28888614Y-78037599D01*
X28888622Y-78037598D01*
X28962705Y-78022862D01*
X28962707Y-78022862D01*
X29046724Y-77966724D01*
X29102862Y-77882706D01*
X29102863Y-77882705D01*
X29117599Y-77808622D01*
X29117600Y-77808615D01*
X29117600Y-77047000D01*
X28491891Y-77047000D01*
X28508000Y-76986880D01*
X28508000Y-76853120D01*
X28491891Y-76793000D01*
X29117599Y-76793000D01*
X29117599Y-76031386D01*
X29117598Y-76031377D01*
X29102862Y-75957294D01*
X29102862Y-75957292D01*
X29046724Y-75873275D01*
X28962706Y-75817137D01*
X28962705Y-75817136D01*
X28888622Y-75802400D01*
X28127000Y-75802400D01*
X28127000Y-76428108D01*
X28066880Y-76412000D01*
X27933120Y-76412000D01*
X27873000Y-76428108D01*
X27873000Y-75802400D01*
X27626500Y-75802400D01*
X27558379Y-75782398D01*
X27511886Y-75728742D01*
X27500500Y-75676400D01*
X27500500Y-75569499D01*
X27520502Y-75501378D01*
X27574158Y-75454885D01*
X27644432Y-75444781D01*
X27672013Y-75452007D01*
X27692707Y-75460024D01*
X27896393Y-75498100D01*
X27896397Y-75498100D01*
X28103603Y-75498100D01*
X28103607Y-75498100D01*
X28307293Y-75460024D01*
X28500515Y-75385170D01*
X28676692Y-75276086D01*
X28829826Y-75136486D01*
X28954700Y-74971125D01*
X28954701Y-74971121D01*
X28954703Y-74971120D01*
X29047060Y-74785643D01*
X29047059Y-74785643D01*
X29047064Y-74785635D01*
X29103771Y-74586330D01*
X29122890Y-74380000D01*
X42117110Y-74380000D01*
X42136229Y-74586332D01*
X42192933Y-74785627D01*
X42192939Y-74785643D01*
X42285296Y-74971120D01*
X42285300Y-74971125D01*
X42407326Y-75132715D01*
X42410175Y-75136487D01*
X42563308Y-75276086D01*
X42563309Y-75276087D01*
X42739473Y-75385163D01*
X42739476Y-75385164D01*
X42739485Y-75385170D01*
X42932707Y-75460024D01*
X43136393Y-75498100D01*
X43136397Y-75498100D01*
X43343603Y-75498100D01*
X43343607Y-75498100D01*
X43547293Y-75460024D01*
X43740515Y-75385170D01*
X43916692Y-75276086D01*
X44069826Y-75136486D01*
X44194700Y-74971125D01*
X44194701Y-74971121D01*
X44194703Y-74971120D01*
X44287060Y-74785643D01*
X44287059Y-74785643D01*
X44287064Y-74785635D01*
X44343771Y-74586330D01*
X44362890Y-74380000D01*
X44343771Y-74173670D01*
X44287064Y-73974365D01*
X44287060Y-73974356D01*
X44194703Y-73788879D01*
X44194699Y-73788874D01*
X44069826Y-73623514D01*
X43916692Y-73483914D01*
X43916691Y-73483913D01*
X43916690Y-73483912D01*
X43740526Y-73374836D01*
X43740519Y-73374832D01*
X43740515Y-73374830D01*
X43622148Y-73328974D01*
X43547294Y-73299976D01*
X43343607Y-73261900D01*
X43136393Y-73261900D01*
X43136392Y-73261900D01*
X42932705Y-73299976D01*
X42782997Y-73357973D01*
X42739485Y-73374830D01*
X42739484Y-73374830D01*
X42739483Y-73374831D01*
X42739473Y-73374836D01*
X42563309Y-73483912D01*
X42563308Y-73483913D01*
X42410175Y-73623512D01*
X42285300Y-73788874D01*
X42285296Y-73788879D01*
X42192939Y-73974356D01*
X42192933Y-73974372D01*
X42136229Y-74173667D01*
X42117110Y-74380000D01*
X29122890Y-74380000D01*
X29103771Y-74173670D01*
X29047064Y-73974365D01*
X29047060Y-73974356D01*
X28954703Y-73788879D01*
X28954699Y-73788874D01*
X28829826Y-73623514D01*
X28676692Y-73483914D01*
X28676691Y-73483913D01*
X28676690Y-73483912D01*
X28500526Y-73374836D01*
X28500519Y-73374832D01*
X28500515Y-73374830D01*
X28382148Y-73328974D01*
X28307294Y-73299976D01*
X28103607Y-73261900D01*
X27896393Y-73261900D01*
X27896392Y-73261900D01*
X27692701Y-73299977D01*
X27672012Y-73307992D01*
X27601266Y-73313946D01*
X27538531Y-73280707D01*
X27503726Y-73218827D01*
X27500500Y-73190499D01*
X27500500Y-73029499D01*
X27520502Y-72961378D01*
X27574158Y-72914885D01*
X27644432Y-72904781D01*
X27672013Y-72912007D01*
X27692707Y-72920024D01*
X27896393Y-72958100D01*
X27896397Y-72958100D01*
X28103603Y-72958100D01*
X28103607Y-72958100D01*
X28307293Y-72920024D01*
X28500515Y-72845170D01*
X28676692Y-72736086D01*
X28829826Y-72596486D01*
X28954700Y-72431125D01*
X28954701Y-72431121D01*
X28954703Y-72431120D01*
X29047060Y-72245643D01*
X29047059Y-72245643D01*
X29047064Y-72245635D01*
X29103771Y-72046330D01*
X29122890Y-71840000D01*
X42117110Y-71840000D01*
X42136229Y-72046332D01*
X42192933Y-72245627D01*
X42192939Y-72245643D01*
X42285296Y-72431120D01*
X42285300Y-72431125D01*
X42410175Y-72596487D01*
X42563308Y-72736086D01*
X42563309Y-72736087D01*
X42739473Y-72845163D01*
X42739476Y-72845164D01*
X42739485Y-72845170D01*
X42932707Y-72920024D01*
X43136393Y-72958100D01*
X43136397Y-72958100D01*
X43343603Y-72958100D01*
X43343607Y-72958100D01*
X43547293Y-72920024D01*
X43740515Y-72845170D01*
X43916692Y-72736086D01*
X44069826Y-72596486D01*
X44194700Y-72431125D01*
X44194701Y-72431121D01*
X44194703Y-72431120D01*
X44287060Y-72245643D01*
X44287059Y-72245643D01*
X44287064Y-72245635D01*
X44343771Y-72046330D01*
X44362890Y-71840000D01*
X44343771Y-71633670D01*
X44287064Y-71434365D01*
X44287060Y-71434356D01*
X44194703Y-71248879D01*
X44194699Y-71248874D01*
X44194560Y-71248690D01*
X44069826Y-71083514D01*
X43916692Y-70943914D01*
X43916691Y-70943913D01*
X43916690Y-70943912D01*
X43740526Y-70834836D01*
X43740519Y-70834832D01*
X43740515Y-70834830D01*
X43622148Y-70788974D01*
X43547294Y-70759976D01*
X43343607Y-70721900D01*
X43136393Y-70721900D01*
X43136392Y-70721900D01*
X42932705Y-70759976D01*
X42782997Y-70817973D01*
X42739485Y-70834830D01*
X42739484Y-70834830D01*
X42739483Y-70834831D01*
X42739473Y-70834836D01*
X42563309Y-70943912D01*
X42563308Y-70943913D01*
X42410175Y-71083512D01*
X42285300Y-71248874D01*
X42285296Y-71248879D01*
X42192939Y-71434356D01*
X42192933Y-71434372D01*
X42136229Y-71633667D01*
X42117110Y-71840000D01*
X29122890Y-71840000D01*
X29103771Y-71633670D01*
X29047064Y-71434365D01*
X29047060Y-71434356D01*
X28954703Y-71248879D01*
X28954699Y-71248874D01*
X28954560Y-71248690D01*
X28829826Y-71083514D01*
X28676692Y-70943914D01*
X28676691Y-70943913D01*
X28676690Y-70943912D01*
X28500526Y-70834836D01*
X28500519Y-70834832D01*
X28500515Y-70834830D01*
X28382148Y-70788974D01*
X28307294Y-70759976D01*
X28103607Y-70721900D01*
X27896393Y-70721900D01*
X27896392Y-70721900D01*
X27692701Y-70759977D01*
X27672012Y-70767992D01*
X27601266Y-70773946D01*
X27538531Y-70740707D01*
X27503726Y-70678827D01*
X27500500Y-70650499D01*
X27500500Y-70489499D01*
X27520502Y-70421378D01*
X27574158Y-70374885D01*
X27644432Y-70364781D01*
X27672013Y-70372007D01*
X27692707Y-70380024D01*
X27896393Y-70418100D01*
X27896397Y-70418100D01*
X28103603Y-70418100D01*
X28103607Y-70418100D01*
X28307293Y-70380024D01*
X28500515Y-70305170D01*
X28676692Y-70196086D01*
X28829826Y-70056486D01*
X28919483Y-69937759D01*
X28947947Y-69900068D01*
X29004961Y-69857761D01*
X29048497Y-69850000D01*
X42191503Y-69850000D01*
X42259624Y-69870002D01*
G37*
%TD.AperFunction*%
%TD*%
M02*
