M48
; DRILL file {KiCad 8.0.8-8.0.8-0~ubuntu22.04.1} date 2025-03-13T07:20:07-0400
; FORMAT={-:-/ absolute / inch / decimal}
; #@! TF.CreationDate,2025-03-13T07:20:07-04:00
; #@! TF.GenerationSoftware,Kicad,Pcbnew,8.0.8-8.0.8-0~ubuntu22.04.1
; #@! TF.FileFunction,Plated,1,2,PTH
FMAT,2
INCH
; #@! TA.AperFunction,Plated,PTH,ViaDrill
T1C0.0118
; #@! TA.AperFunction,Plated,PTH,ComponentDrill
T2C0.0320
; #@! TA.AperFunction,Plated,PTH,ComponentDrill
T3C0.0394
; #@! TA.AperFunction,Plated,PTH,ComponentDrill
T4C0.0400
; #@! TA.AperFunction,Plated,PTH,ComponentDrill
T5C0.0433
; #@! TA.AperFunction,Plated,PTH,ComponentDrill
T6C0.0610
%
G90
G05
T1
X1.22Y-2.98
X1.365Y-3.325
X1.4217Y-3.2283
X1.65Y-3.75
X1.825Y-3.525
X1.8294Y-3.13
X1.855Y-4.655
X1.9006Y-2.73
X2.165Y-2.345
X2.35Y-2.28
X2.475Y-1.84
X2.475Y-2.26
X2.58Y-2.41
X2.655Y-2.705
X3.355Y-2.745
X3.51Y-3.44
X3.75Y-2.4456
X4.5Y-2.375
X4.6774Y-5.7224
X5.25Y-1.84
X5.4355Y-5.7045
X5.995Y-2.08
X6.185Y-5.785
X6.63Y-2.04
X6.9355Y-5.3345
X7.685Y-5.36
X8.44Y-5.31
X9.19Y-5.275
X10.37Y-5.3356
X10.7328Y-2.9572
X11.205Y-5.36
X11.4978Y-2.9722
X11.995Y-5.32
X12.56Y-4.26
X12.74Y-5.355
X12.755Y-2.745
X13.36Y-4.955
X13.7Y-2.64
T2
X1.2673Y-3.837
X1.2673Y-4.037
X1.5673Y-3.837
X1.5673Y-4.037
T3
X1.2669Y-4.2913
X1.3669Y-4.2913
X1.4669Y-4.2913
X1.5669Y-4.2913
T4
X1.1024Y-1.9283
X1.1024Y-2.0283
X1.1024Y-2.1283
X1.1024Y-2.2283
X1.1024Y-2.3283
X1.1024Y-2.4283
X1.1024Y-2.5283
X1.1024Y-2.6283
X1.1024Y-2.7283
X1.1024Y-2.8283
X1.1024Y-2.9283
X1.1024Y-3.0283
X1.1024Y-3.1283
X1.1024Y-3.2283
X1.1024Y-3.3283
X1.1024Y-3.4283
X1.1024Y-3.5283
X1.7024Y-1.9283
X1.7024Y-2.0283
X1.7024Y-2.1283
X1.7024Y-2.2283
X1.7024Y-2.3283
X1.7024Y-2.4283
X1.7024Y-2.5283
X1.7024Y-2.6283
X1.7024Y-2.7283
X1.7024Y-2.8283
X1.7024Y-2.9283
X1.7024Y-3.0283
X1.7024Y-3.1283
X1.7024Y-3.2283
X1.7024Y-3.3283
X1.7024Y-3.4283
X1.7024Y-3.5283
T5
X2.0465Y-2.5433
X2.0465Y-3.2933
X2.1402Y-6.2933
X2.234Y-4.0433
X2.3277Y-4.7933
X2.3465Y-2.5433
X2.3465Y-3.2933
X2.4402Y-6.2933
X2.5152Y-5.5433
X2.534Y-4.0433
X2.6277Y-4.7933
X2.7965Y-2.5433
X2.7965Y-3.2933
X2.8152Y-5.5433
X3.0777Y-6.2933
X3.0965Y-2.5433
X3.0965Y-3.2933
X3.1715Y-4.0433
X3.359Y-4.7933
X3.3777Y-6.2933
X3.4715Y-4.0433
X3.5465Y-2.5433
X3.5465Y-3.2933
X3.659Y-4.7933
X3.734Y-5.5433
X3.8465Y-2.5433
X3.8465Y-3.2933
X3.9215Y-4.0433
X4.0152Y-6.2933
X4.034Y-5.5433
X4.109Y-4.7933
X4.2215Y-4.0433
X4.2965Y-2.5433
X4.2965Y-3.2933
X4.3152Y-6.2933
X4.409Y-4.7933
X4.484Y-5.5433
X4.5965Y-2.5433
X4.5965Y-3.2933
X4.6715Y-4.0433
X4.784Y-5.5433
X4.859Y-4.7933
X4.9715Y-4.0433
X5.0465Y-2.5433
X5.0465Y-3.2933
X5.159Y-4.7933
X5.234Y-5.5433
X5.3465Y-2.5433
X5.3465Y-3.2933
X5.4215Y-4.0433
X5.534Y-5.5433
X5.609Y-4.7933
X5.7215Y-4.0433
X5.7965Y-2.5433
X5.7965Y-3.2933
X5.909Y-4.7933
X5.984Y-5.5433
X6.0965Y-2.5433
X6.0965Y-3.2933
X6.1715Y-4.0433
X6.284Y-5.5433
X6.359Y-4.7933
X6.4715Y-4.0433
X6.5465Y-2.5433
X6.5465Y-3.2933
X6.659Y-4.7933
X6.734Y-5.5433
X6.8277Y-6.2933
X6.8465Y-2.5433
X6.8465Y-3.2933
X6.9215Y-4.0433
X7.034Y-5.5433
X7.109Y-4.7933
X7.1277Y-6.2933
X7.2215Y-4.0433
X7.2965Y-2.5433
X7.2965Y-3.2933
X7.409Y-4.7933
X7.484Y-5.5433
X7.5965Y-2.5433
X7.5965Y-3.2933
X7.6715Y-4.0433
X7.784Y-5.5433
X7.859Y-4.7933
X7.9715Y-4.0433
X8.0465Y-2.5433
X8.0465Y-3.2933
X8.159Y-4.7933
X8.234Y-5.5433
X8.3465Y-2.5433
X8.3465Y-3.2933
X8.4215Y-4.0433
X8.534Y-5.5433
X8.609Y-4.7933
X8.7215Y-4.0433
X8.7965Y-2.5433
X8.7965Y-3.2933
X8.909Y-4.7933
X8.984Y-5.5433
X9.0965Y-2.5433
X9.0965Y-3.2933
X9.1715Y-4.0433
X9.284Y-5.5433
X9.359Y-4.7933
X9.4715Y-4.0433
X9.5465Y-2.5433
X9.5465Y-3.2933
X9.5465Y-6.2933
X9.659Y-4.7933
X9.734Y-5.5433
X9.8465Y-2.5433
X9.8465Y-3.2933
X9.8465Y-6.2933
X9.9215Y-4.0433
X10.034Y-5.5433
X10.109Y-4.7933
X10.2215Y-4.0433
X10.2965Y-2.5433
X10.2965Y-3.2933
X10.2965Y-6.2933
X10.409Y-4.7933
X10.484Y-5.5433
X10.5965Y-2.5433
X10.5965Y-3.2933
X10.5965Y-6.2933
X10.6715Y-4.0433
X10.784Y-5.5433
X10.859Y-4.7933
X10.9715Y-4.0433
X11.0465Y-2.5433
X11.0465Y-3.2933
X11.0465Y-6.2933
X11.159Y-4.7933
X11.3465Y-2.5433
X11.3465Y-3.2933
X11.3465Y-6.2933
X11.4215Y-4.0433
X11.5152Y-5.5433
X11.7215Y-4.0433
X11.7965Y-2.5433
X11.7965Y-6.2933
X11.8152Y-5.5433
X12.0777Y-4.7933
X12.0965Y-2.5433
X12.0965Y-6.2933
X12.1715Y-3.2933
X12.359Y-4.0433
X12.3777Y-4.7933
X12.4715Y-3.2933
X12.5465Y-2.5433
X12.5465Y-5.5433
X12.5465Y-6.2933
X12.659Y-4.0433
X12.8465Y-2.5433
X12.8465Y-5.5433
X12.8465Y-6.2933
X13.2965Y-2.5433
X13.2965Y-3.2933
X13.2965Y-4.0433
X13.2965Y-4.7933
X13.2965Y-5.5433
X13.2965Y-6.2933
X13.5965Y-2.5433
X13.5965Y-3.2933
X13.5965Y-4.0433
X13.5965Y-4.7933
X13.5965Y-5.5433
X13.5965Y-6.2933
T6
X1.998Y-2.0724
X1.998Y-2.8224
X2.0918Y-5.8224
X2.1855Y-3.5724
X2.248Y-1.9724
X2.248Y-2.7224
X2.2793Y-4.3224
X2.3418Y-5.7224
X2.4355Y-3.4724
X2.4668Y-5.0724
X2.5293Y-4.2224
X2.7168Y-4.9724
X2.748Y-2.0724
X2.748Y-2.8224
X2.998Y-1.9724
X2.998Y-2.7224
X3.0293Y-5.8224
X3.123Y-3.5724
X3.2793Y-5.7224
X3.3105Y-4.3224
X3.373Y-3.4724
X3.498Y-2.0724
X3.498Y-2.8224
X3.5605Y-4.2224
X3.6855Y-5.0724
X3.748Y-1.9724
X3.748Y-2.7224
X3.873Y-3.5724
X3.9355Y-4.9724
X3.9668Y-5.8224
X4.0605Y-4.3224
X4.123Y-3.4724
X4.2168Y-5.7224
X4.248Y-2.0724
X4.248Y-2.8224
X4.3105Y-4.2224
X4.4355Y-5.0724
X4.498Y-1.9724
X4.498Y-2.7224
X4.623Y-3.5724
X4.6855Y-4.9724
X4.8105Y-4.3224
X4.873Y-3.4724
X4.998Y-2.0724
X4.998Y-2.8224
X5.0605Y-4.2224
X5.1855Y-5.0724
X5.248Y-1.9724
X5.248Y-2.7224
X5.373Y-3.5724
X5.4355Y-4.9724
X5.5605Y-4.3224
X5.623Y-3.4724
X5.748Y-2.0724
X5.748Y-2.8224
X5.8105Y-4.2224
X5.9355Y-5.0724
X5.998Y-1.9724
X5.998Y-2.7224
X6.123Y-3.5724
X6.1855Y-4.9724
X6.3105Y-4.3224
X6.373Y-3.4724
X6.498Y-2.0724
X6.498Y-2.8224
X6.5605Y-4.2224
X6.6855Y-5.0724
X6.748Y-1.9724
X6.748Y-2.7224
X6.7793Y-5.8224
X6.873Y-3.5724
X6.9355Y-4.9724
X7.0293Y-5.7224
X7.0605Y-4.3224
X7.123Y-3.4724
X7.248Y-2.0724
X7.248Y-2.8224
X7.3105Y-4.2224
X7.4355Y-5.0724
X7.498Y-1.9724
X7.498Y-2.7224
X7.623Y-3.5724
X7.6855Y-4.9724
X7.8105Y-4.3224
X7.873Y-3.4724
X7.998Y-2.0724
X7.998Y-2.8224
X8.0605Y-4.2224
X8.1855Y-5.0724
X8.248Y-1.9724
X8.248Y-2.7224
X8.373Y-3.5724
X8.4355Y-4.9724
X8.5605Y-4.3224
X8.623Y-3.4724
X8.748Y-2.0724
X8.748Y-2.8224
X8.8105Y-4.2224
X8.9355Y-5.0724
X8.998Y-1.9724
X8.998Y-2.7224
X9.123Y-3.5724
X9.1855Y-4.9724
X9.3105Y-4.3224
X9.373Y-3.4724
X9.498Y-2.0724
X9.498Y-2.8224
X9.498Y-5.8224
X9.5605Y-4.2224
X9.6855Y-5.0724
X9.748Y-1.9724
X9.748Y-2.7224
X9.748Y-5.7224
X9.873Y-3.5724
X9.9355Y-4.9724
X10.0605Y-4.3224
X10.123Y-3.4724
X10.248Y-2.0724
X10.248Y-2.8224
X10.248Y-5.8224
X10.3105Y-4.2224
X10.4355Y-5.0724
X10.498Y-1.9724
X10.498Y-2.7224
X10.498Y-5.7224
X10.623Y-3.5724
X10.6855Y-4.9724
X10.8105Y-4.3224
X10.873Y-3.4724
X10.998Y-2.0724
X10.998Y-2.8224
X10.998Y-5.8224
X11.0605Y-4.2224
X11.248Y-1.9724
X11.248Y-2.7224
X11.248Y-5.7224
X11.373Y-3.5724
X11.4668Y-5.0724
X11.623Y-3.4724
X11.7168Y-4.9724
X11.748Y-2.0724
X11.748Y-5.8224
X11.998Y-1.9724
X11.998Y-5.7224
X12.0293Y-4.3224
X12.123Y-2.8224
X12.2793Y-4.2224
X12.3105Y-3.5724
X12.373Y-2.7224
X12.498Y-2.0724
X12.498Y-5.0724
X12.498Y-5.8224
X12.5605Y-3.4724
X12.748Y-1.9724
X12.748Y-4.9724
X12.748Y-5.7224
X13.248Y-2.0724
X13.248Y-2.8224
X13.248Y-3.5724
X13.248Y-4.3224
X13.248Y-5.0724
X13.248Y-5.8224
X13.498Y-1.9724
X13.498Y-2.7224
X13.498Y-3.4724
X13.498Y-4.2224
X13.498Y-4.9724
X13.498Y-5.7224
M30
