%TF.GenerationSoftware,KiCad,Pcbnew,8.0.8-8.0.8-0~ubuntu22.04.1*%
%TF.CreationDate,2025-03-13T07:20:04-04:00*%
%TF.ProjectId,kb_test,6b625f74-6573-4742-9e6b-696361645f70,rev?*%
%TF.SameCoordinates,Original*%
%TF.FileFunction,Soldermask,Bot*%
%TF.FilePolarity,Negative*%
%FSLAX46Y46*%
G04 Gerber Fmt 4.6, Leading zero omitted, Abs format (unit mm)*
G04 Created by KiCad (PCBNEW 8.0.8-8.0.8-0~ubuntu22.04.1) date 2025-03-13 07:20:04*
%MOMM*%
%LPD*%
G01*
G04 APERTURE LIST*
%ADD10C,4.300000*%
%ADD11C,1.700000*%
%ADD12C,4.000000*%
%ADD13C,2.200000*%
%ADD14R,2.200000X2.200000*%
%ADD15O,2.200000X2.200000*%
%ADD16R,1.700000X1.700000*%
%ADD17O,1.700000X1.700000*%
%ADD18C,1.397000*%
%ADD19C,1.400000*%
%ADD20O,1.727200X1.727200*%
%ADD21C,1.016000*%
%ADD22R,1.727200X1.727200*%
%ADD23C,1.727200*%
G04 APERTURE END LIST*
D10*
%TO.C,H5*%
X327025000Y-114935000D03*
%TD*%
%TO.C,H4*%
X327025000Y-73025000D03*
%TD*%
%TO.C,H3*%
X193040000Y-155575000D03*
%TD*%
%TO.C,H2*%
X35560000Y-57785000D03*
%TD*%
%TO.C,H1*%
X35560000Y-155575000D03*
%TD*%
D11*
%TO.C,SW26*%
X220930000Y-74230000D03*
D12*
X226010000Y-74230000D03*
D11*
X231090000Y-74230000D03*
D13*
X228550000Y-69150000D03*
X222200000Y-71690000D03*
%TD*%
D11*
%TO.C,SW12*%
X259030000Y-55180000D03*
D12*
X264110000Y-55180000D03*
D11*
X269190000Y-55180000D03*
D13*
X266650000Y-50100000D03*
X260300000Y-52640000D03*
%TD*%
D11*
%TO.C,SW62*%
X92342500Y-131380000D03*
D12*
X97422500Y-131380000D03*
D11*
X102502500Y-131380000D03*
D13*
X99962500Y-126300000D03*
X93612500Y-128840000D03*
%TD*%
D11*
%TO.C,SW15*%
X316180000Y-55180000D03*
D12*
X321260000Y-55180000D03*
D11*
X326340000Y-55180000D03*
D13*
X323800000Y-50100000D03*
X317450000Y-52640000D03*
%TD*%
D11*
%TO.C,SW84*%
X335230000Y-150430000D03*
D12*
X340310000Y-150430000D03*
D11*
X345390000Y-150430000D03*
D13*
X342850000Y-145350000D03*
X336500000Y-147890000D03*
%TD*%
D11*
%TO.C,SW37*%
X154255000Y-93280000D03*
D12*
X159335000Y-93280000D03*
D11*
X164415000Y-93280000D03*
D13*
X161875000Y-88200000D03*
X155525000Y-90740000D03*
%TD*%
D11*
%TO.C,SW78*%
X170923750Y-150430000D03*
D12*
X176003750Y-150430000D03*
D11*
X181083750Y-150430000D03*
D13*
X178543750Y-145350000D03*
X172193750Y-147890000D03*
%TD*%
D11*
%TO.C,SW53*%
X178067500Y-112330000D03*
D12*
X183147500Y-112330000D03*
D11*
X188227500Y-112330000D03*
D13*
X185687500Y-107250000D03*
X179337500Y-109790000D03*
%TD*%
D11*
%TO.C,SW68*%
X206642500Y-131380000D03*
D12*
X211722500Y-131380000D03*
D11*
X216802500Y-131380000D03*
D13*
X214262500Y-126300000D03*
X207912500Y-128840000D03*
%TD*%
D11*
%TO.C,SW29*%
X278080000Y-74230000D03*
D12*
X283160000Y-74230000D03*
D11*
X288240000Y-74230000D03*
D13*
X285700000Y-69150000D03*
X279350000Y-71690000D03*
%TD*%
D11*
%TO.C,SW34*%
X97105000Y-93280000D03*
D12*
X102185000Y-93280000D03*
D11*
X107265000Y-93280000D03*
D13*
X104725000Y-88200000D03*
X98375000Y-90740000D03*
%TD*%
D11*
%TO.C,SW24*%
X182830000Y-74230000D03*
D12*
X187910000Y-74230000D03*
D11*
X192990000Y-74230000D03*
D13*
X190450000Y-69150000D03*
X184100000Y-71690000D03*
%TD*%
D11*
%TO.C,SW32*%
X54242500Y-93280000D03*
D12*
X59322500Y-93280000D03*
D11*
X64402500Y-93280000D03*
D13*
X61862500Y-88200000D03*
X55512500Y-90740000D03*
%TD*%
D11*
%TO.C,SW16*%
X335230000Y-55180000D03*
D12*
X340310000Y-55180000D03*
D11*
X345390000Y-55180000D03*
D13*
X342850000Y-50100000D03*
X336500000Y-52640000D03*
%TD*%
D11*
%TO.C,SW54*%
X197117500Y-112330000D03*
D12*
X202197500Y-112330000D03*
D11*
X207277500Y-112330000D03*
D13*
X204737500Y-107250000D03*
X198387500Y-109790000D03*
%TD*%
D11*
%TO.C,SW36*%
X135205000Y-93280000D03*
D12*
X140285000Y-93280000D03*
D11*
X145365000Y-93280000D03*
D13*
X142825000Y-88200000D03*
X136475000Y-90740000D03*
%TD*%
D11*
%TO.C,SW6*%
X144730000Y-55180000D03*
D12*
X149810000Y-55180000D03*
D11*
X154890000Y-55180000D03*
D13*
X152350000Y-50100000D03*
X146000000Y-52640000D03*
%TD*%
D11*
%TO.C,SW44*%
X287605000Y-93280000D03*
D12*
X292685000Y-93280000D03*
D11*
X297765000Y-93280000D03*
D13*
X295225000Y-88200000D03*
X288875000Y-90740000D03*
%TD*%
D11*
%TO.C,SW9*%
X201880000Y-55180000D03*
D12*
X206960000Y-55180000D03*
D11*
X212040000Y-55180000D03*
D13*
X209500000Y-50100000D03*
X203150000Y-52640000D03*
%TD*%
D11*
%TO.C,SW51*%
X139967500Y-112330000D03*
D12*
X145047500Y-112330000D03*
D11*
X150127500Y-112330000D03*
D13*
X147587500Y-107250000D03*
X141237500Y-109790000D03*
%TD*%
D11*
%TO.C,SW45*%
X311417500Y-93280000D03*
D12*
X316497500Y-93280000D03*
D11*
X321577500Y-93280000D03*
D13*
X319037500Y-88200000D03*
X312687500Y-90740000D03*
%TD*%
D11*
%TO.C,SW52*%
X159017500Y-112330000D03*
D12*
X164097500Y-112330000D03*
D11*
X169177500Y-112330000D03*
D13*
X166637500Y-107250000D03*
X160287500Y-109790000D03*
%TD*%
D11*
%TO.C,SW58*%
X273317500Y-112330000D03*
D12*
X278397500Y-112330000D03*
D11*
X283477500Y-112330000D03*
D13*
X280937500Y-107250000D03*
X274587500Y-109790000D03*
%TD*%
D11*
%TO.C,SW66*%
X168542500Y-131380000D03*
D12*
X173622500Y-131380000D03*
D11*
X178702500Y-131380000D03*
D13*
X176162500Y-126300000D03*
X169812500Y-128840000D03*
%TD*%
D11*
%TO.C,SW33*%
X78055000Y-93280000D03*
D12*
X83135000Y-93280000D03*
D11*
X88215000Y-93280000D03*
D13*
X85675000Y-88200000D03*
X79325000Y-90740000D03*
%TD*%
D11*
%TO.C,SW14*%
X297130000Y-55180000D03*
D12*
X302210000Y-55180000D03*
D11*
X307290000Y-55180000D03*
D13*
X304750000Y-50100000D03*
X298400000Y-52640000D03*
%TD*%
D11*
%TO.C,SW77*%
X99486250Y-150430000D03*
D12*
X104566250Y-150430000D03*
D11*
X109646250Y-150430000D03*
D13*
X107106250Y-145350000D03*
X100756250Y-147890000D03*
%TD*%
D11*
%TO.C,SW71*%
X263792500Y-131380000D03*
D12*
X268872500Y-131380000D03*
D11*
X273952500Y-131380000D03*
D13*
X271412500Y-126300000D03*
X265062500Y-128840000D03*
%TD*%
D11*
%TO.C,SW20*%
X106630000Y-74230000D03*
D12*
X111710000Y-74230000D03*
D11*
X116790000Y-74230000D03*
D13*
X114250000Y-69150000D03*
X107900000Y-71690000D03*
%TD*%
D11*
%TO.C,SW39*%
X192355000Y-93280000D03*
D12*
X197435000Y-93280000D03*
D11*
X202515000Y-93280000D03*
D13*
X199975000Y-88200000D03*
X193625000Y-90740000D03*
%TD*%
D11*
%TO.C,SW83*%
X316180000Y-150430000D03*
D12*
X321260000Y-150430000D03*
D11*
X326340000Y-150430000D03*
D13*
X323800000Y-145350000D03*
X317450000Y-147890000D03*
%TD*%
D11*
%TO.C,SW38*%
X173305000Y-93280000D03*
D12*
X178385000Y-93280000D03*
D11*
X183465000Y-93280000D03*
D13*
X180925000Y-88200000D03*
X174575000Y-90740000D03*
%TD*%
D11*
%TO.C,SW80*%
X259030000Y-150430000D03*
D12*
X264110000Y-150430000D03*
D11*
X269190000Y-150430000D03*
D13*
X266650000Y-145350000D03*
X260300000Y-147890000D03*
%TD*%
D11*
%TO.C,SW48*%
X82817500Y-112330000D03*
D12*
X87897500Y-112330000D03*
D11*
X92977500Y-112330000D03*
D13*
X90437500Y-107250000D03*
X84087500Y-109790000D03*
%TD*%
D11*
%TO.C,SW79*%
X239980000Y-150430000D03*
D12*
X245060000Y-150430000D03*
D11*
X250140000Y-150430000D03*
D13*
X247600000Y-145350000D03*
X241250000Y-147890000D03*
%TD*%
D11*
%TO.C,SW35*%
X116155000Y-93280000D03*
D12*
X121235000Y-93280000D03*
D11*
X126315000Y-93280000D03*
D13*
X123775000Y-88200000D03*
X117425000Y-90740000D03*
%TD*%
D11*
%TO.C,SW23*%
X163780000Y-74230000D03*
D12*
X168860000Y-74230000D03*
D11*
X173940000Y-74230000D03*
D13*
X171400000Y-69150000D03*
X165050000Y-71690000D03*
%TD*%
D11*
%TO.C,SW43*%
X268555000Y-93280000D03*
D12*
X273635000Y-93280000D03*
D11*
X278715000Y-93280000D03*
D13*
X276175000Y-88200000D03*
X269825000Y-90740000D03*
%TD*%
D11*
%TO.C,SW8*%
X182830000Y-55180000D03*
D12*
X187910000Y-55180000D03*
D11*
X192990000Y-55180000D03*
D13*
X190450000Y-50100000D03*
X184100000Y-52640000D03*
%TD*%
D11*
%TO.C,SW69*%
X225692500Y-131380000D03*
D12*
X230772500Y-131380000D03*
D11*
X235852500Y-131380000D03*
D13*
X233312500Y-126300000D03*
X226962500Y-128840000D03*
%TD*%
D11*
%TO.C,SW21*%
X125680000Y-74230000D03*
D12*
X130760000Y-74230000D03*
D11*
X135840000Y-74230000D03*
D13*
X133300000Y-69150000D03*
X126950000Y-71690000D03*
%TD*%
D11*
%TO.C,SW5*%
X125680000Y-55180000D03*
D12*
X130760000Y-55180000D03*
D11*
X135840000Y-55180000D03*
D13*
X133300000Y-50100000D03*
X126950000Y-52640000D03*
%TD*%
D11*
%TO.C,SW30*%
X306655000Y-74230000D03*
D12*
X311735000Y-74230000D03*
D11*
X316815000Y-74230000D03*
D13*
X314275000Y-69150000D03*
X307925000Y-71690000D03*
%TD*%
D11*
%TO.C,SW72*%
X289986250Y-131380000D03*
D12*
X295066250Y-131380000D03*
D11*
X300146250Y-131380000D03*
D13*
X297606250Y-126300000D03*
X291256250Y-128840000D03*
%TD*%
D11*
%TO.C,SW75*%
X51861250Y-150430000D03*
D12*
X56941250Y-150430000D03*
D11*
X62021250Y-150430000D03*
D13*
X59481250Y-145350000D03*
X53131250Y-147890000D03*
%TD*%
D11*
%TO.C,SW2*%
X68530000Y-55180000D03*
D12*
X73610000Y-55180000D03*
D11*
X78690000Y-55180000D03*
D13*
X76150000Y-50100000D03*
X69800000Y-52640000D03*
%TD*%
D11*
%TO.C,SW10*%
X220930000Y-55180000D03*
D12*
X226010000Y-55180000D03*
D11*
X231090000Y-55180000D03*
D13*
X228550000Y-50100000D03*
X222200000Y-52640000D03*
%TD*%
D11*
%TO.C,SW60*%
X335230000Y-112330000D03*
D12*
X340310000Y-112330000D03*
D11*
X345390000Y-112330000D03*
D13*
X342850000Y-107250000D03*
X336500000Y-109790000D03*
%TD*%
D11*
%TO.C,SW11*%
X239980000Y-55180000D03*
D12*
X245060000Y-55180000D03*
D11*
X250140000Y-55180000D03*
D13*
X247600000Y-50100000D03*
X241250000Y-52640000D03*
%TD*%
D11*
%TO.C,SW28*%
X259030000Y-74230000D03*
D12*
X264110000Y-74230000D03*
D11*
X269190000Y-74230000D03*
D13*
X266650000Y-69150000D03*
X260300000Y-71690000D03*
%TD*%
D11*
%TO.C,SW67*%
X187592500Y-131380000D03*
D12*
X192672500Y-131380000D03*
D11*
X197752500Y-131380000D03*
D13*
X195212500Y-126300000D03*
X188862500Y-128840000D03*
%TD*%
D11*
%TO.C,SW47*%
X56623750Y-112330000D03*
D12*
X61703750Y-112330000D03*
D11*
X66783750Y-112330000D03*
D13*
X64243750Y-107250000D03*
X57893750Y-109790000D03*
%TD*%
D11*
%TO.C,SW25*%
X201880000Y-74230000D03*
D12*
X206960000Y-74230000D03*
D11*
X212040000Y-74230000D03*
D13*
X209500000Y-69150000D03*
X203150000Y-71690000D03*
%TD*%
D11*
%TO.C,SW74*%
X335230000Y-131380000D03*
D12*
X340310000Y-131380000D03*
D11*
X345390000Y-131380000D03*
D13*
X342850000Y-126300000D03*
X336500000Y-128840000D03*
%TD*%
D11*
%TO.C,SW82*%
X297130000Y-150430000D03*
D12*
X302210000Y-150430000D03*
D11*
X307290000Y-150430000D03*
D13*
X304750000Y-145350000D03*
X298400000Y-147890000D03*
%TD*%
D11*
%TO.C,SW63*%
X111392500Y-131380000D03*
D12*
X116472500Y-131380000D03*
D11*
X121552500Y-131380000D03*
D13*
X119012500Y-126300000D03*
X112662500Y-128840000D03*
%TD*%
D11*
%TO.C,SW50*%
X120917500Y-112330000D03*
D12*
X125997500Y-112330000D03*
D11*
X131077500Y-112330000D03*
D13*
X128537500Y-107250000D03*
X122187500Y-109790000D03*
%TD*%
D11*
%TO.C,SW1*%
X49480000Y-55180000D03*
D12*
X54560000Y-55180000D03*
D11*
X59640000Y-55180000D03*
D13*
X57100000Y-50100000D03*
X50750000Y-52640000D03*
%TD*%
D11*
%TO.C,SW17*%
X49480000Y-74230000D03*
D12*
X54560000Y-74230000D03*
D11*
X59640000Y-74230000D03*
D13*
X57100000Y-69150000D03*
X50750000Y-71690000D03*
%TD*%
D11*
%TO.C,SW56*%
X235217500Y-112330000D03*
D12*
X240297500Y-112330000D03*
D11*
X245377500Y-112330000D03*
D13*
X242837500Y-107250000D03*
X236487500Y-109790000D03*
%TD*%
D11*
%TO.C,SW13*%
X278080000Y-55180000D03*
D12*
X283160000Y-55180000D03*
D11*
X288240000Y-55180000D03*
D13*
X285700000Y-50100000D03*
X279350000Y-52640000D03*
%TD*%
D11*
%TO.C,SW4*%
X106630000Y-55180000D03*
D12*
X111710000Y-55180000D03*
D11*
X116790000Y-55180000D03*
D13*
X114250000Y-50100000D03*
X107900000Y-52640000D03*
%TD*%
D11*
%TO.C,SW18*%
X68530000Y-74230000D03*
D12*
X73610000Y-74230000D03*
D11*
X78690000Y-74230000D03*
D13*
X76150000Y-69150000D03*
X69800000Y-71690000D03*
%TD*%
D11*
%TO.C,SW7*%
X163780000Y-55180000D03*
D12*
X168860000Y-55180000D03*
D11*
X173940000Y-55180000D03*
D13*
X171400000Y-50100000D03*
X165050000Y-52640000D03*
%TD*%
D11*
%TO.C,SW22*%
X144730000Y-74230000D03*
D12*
X149810000Y-74230000D03*
D11*
X154890000Y-74230000D03*
D13*
X152350000Y-69150000D03*
X146000000Y-71690000D03*
%TD*%
D11*
%TO.C,SW73*%
X316180000Y-131380000D03*
D12*
X321260000Y-131380000D03*
D11*
X326340000Y-131380000D03*
D13*
X323800000Y-126300000D03*
X317450000Y-128840000D03*
%TD*%
D11*
%TO.C,SW61*%
X61386250Y-131380000D03*
D12*
X66466250Y-131380000D03*
D11*
X71546250Y-131380000D03*
D13*
X69006250Y-126300000D03*
X62656250Y-128840000D03*
%TD*%
D11*
%TO.C,SW27*%
X239980000Y-74230000D03*
D12*
X245060000Y-74230000D03*
D11*
X250140000Y-74230000D03*
D13*
X247600000Y-69150000D03*
X241250000Y-71690000D03*
%TD*%
D11*
%TO.C,SW65*%
X149492500Y-131380000D03*
D12*
X154572500Y-131380000D03*
D11*
X159652500Y-131380000D03*
D13*
X157112500Y-126300000D03*
X150762500Y-128840000D03*
%TD*%
D11*
%TO.C,SW76*%
X75673750Y-150430000D03*
D12*
X80753750Y-150430000D03*
D11*
X85833750Y-150430000D03*
D13*
X83293750Y-145350000D03*
X76943750Y-147890000D03*
%TD*%
D11*
%TO.C,SW41*%
X230455000Y-93280000D03*
D12*
X235535000Y-93280000D03*
D11*
X240615000Y-93280000D03*
D13*
X238075000Y-88200000D03*
X231725000Y-90740000D03*
%TD*%
D11*
%TO.C,SW57*%
X254267500Y-112330000D03*
D12*
X259347500Y-112330000D03*
D11*
X264427500Y-112330000D03*
D13*
X261887500Y-107250000D03*
X255537500Y-109790000D03*
%TD*%
D11*
%TO.C,SW64*%
X130442500Y-131380000D03*
D12*
X135522500Y-131380000D03*
D11*
X140602500Y-131380000D03*
D13*
X138062500Y-126300000D03*
X131712500Y-128840000D03*
%TD*%
D11*
%TO.C,SW19*%
X87580000Y-74230000D03*
D12*
X92660000Y-74230000D03*
D11*
X97740000Y-74230000D03*
D13*
X95200000Y-69150000D03*
X88850000Y-71690000D03*
%TD*%
D11*
%TO.C,SW55*%
X216167500Y-112330000D03*
D12*
X221247500Y-112330000D03*
D11*
X226327500Y-112330000D03*
D13*
X223787500Y-107250000D03*
X217437500Y-109790000D03*
%TD*%
D11*
%TO.C,SW49*%
X101867500Y-112330000D03*
D12*
X106947500Y-112330000D03*
D11*
X112027500Y-112330000D03*
D13*
X109487500Y-107250000D03*
X103137500Y-109790000D03*
%TD*%
D11*
%TO.C,SW59*%
X304273750Y-112330000D03*
D12*
X309353750Y-112330000D03*
D11*
X314433750Y-112330000D03*
D13*
X311893750Y-107250000D03*
X305543750Y-109790000D03*
%TD*%
D11*
%TO.C,SW46*%
X335230000Y-93280000D03*
D12*
X340310000Y-93280000D03*
D11*
X345390000Y-93280000D03*
D13*
X342850000Y-88200000D03*
X336500000Y-90740000D03*
%TD*%
D11*
%TO.C,SW70*%
X244742500Y-131380000D03*
D12*
X249822500Y-131380000D03*
D11*
X254902500Y-131380000D03*
D13*
X252362500Y-126300000D03*
X246012500Y-128840000D03*
%TD*%
D11*
%TO.C,SW3*%
X87580000Y-55180000D03*
D12*
X92660000Y-55180000D03*
D11*
X97740000Y-55180000D03*
D13*
X95200000Y-50100000D03*
X88850000Y-52640000D03*
%TD*%
D11*
%TO.C,SW31*%
X335230000Y-74230000D03*
D12*
X340310000Y-74230000D03*
D11*
X345390000Y-74230000D03*
D13*
X342850000Y-69150000D03*
X336500000Y-71690000D03*
%TD*%
D11*
%TO.C,SW81*%
X278080000Y-150430000D03*
D12*
X283160000Y-150430000D03*
D11*
X288240000Y-150430000D03*
D13*
X285700000Y-145350000D03*
X279350000Y-147890000D03*
%TD*%
D11*
%TO.C,SW40*%
X211405000Y-93280000D03*
D12*
X216485000Y-93280000D03*
D11*
X221565000Y-93280000D03*
D13*
X219025000Y-88200000D03*
X212675000Y-90740000D03*
%TD*%
D11*
%TO.C,SW42*%
X249505000Y-93280000D03*
D12*
X254585000Y-93280000D03*
D11*
X259665000Y-93280000D03*
D13*
X257125000Y-88200000D03*
X250775000Y-90740000D03*
%TD*%
D14*
%TO.C,D53*%
X188187500Y-121750000D03*
D15*
X180567500Y-121750000D03*
%TD*%
D14*
%TO.C,D23*%
X173900000Y-83650000D03*
D15*
X166280000Y-83650000D03*
%TD*%
D14*
%TO.C,D29*%
X288200000Y-83650000D03*
D15*
X280580000Y-83650000D03*
%TD*%
D14*
%TO.C,D48*%
X92937500Y-121750000D03*
D15*
X85317500Y-121750000D03*
%TD*%
D14*
%TO.C,D60*%
X345350000Y-121750000D03*
D15*
X337730000Y-121750000D03*
%TD*%
D14*
%TO.C,D34*%
X107225000Y-102700000D03*
D15*
X99605000Y-102700000D03*
%TD*%
D14*
%TO.C,D1*%
X59600000Y-64600000D03*
D15*
X51980000Y-64600000D03*
%TD*%
D14*
%TO.C,D43*%
X278675000Y-102700000D03*
D15*
X271055000Y-102700000D03*
%TD*%
D14*
%TO.C,D12*%
X269150000Y-64600000D03*
D15*
X261530000Y-64600000D03*
%TD*%
D14*
%TO.C,D73*%
X326300000Y-140800000D03*
D15*
X318680000Y-140800000D03*
%TD*%
D14*
%TO.C,D24*%
X192950000Y-83650000D03*
D15*
X185330000Y-83650000D03*
%TD*%
D14*
%TO.C,D40*%
X221525000Y-102700000D03*
D15*
X213905000Y-102700000D03*
%TD*%
D14*
%TO.C,D62*%
X102462500Y-140800000D03*
D15*
X94842500Y-140800000D03*
%TD*%
D14*
%TO.C,D84*%
X345350000Y-159850000D03*
D15*
X337730000Y-159850000D03*
%TD*%
D14*
%TO.C,D36*%
X145325000Y-102700000D03*
D15*
X137705000Y-102700000D03*
%TD*%
D14*
%TO.C,D76*%
X85793750Y-159850000D03*
D15*
X78173750Y-159850000D03*
%TD*%
D14*
%TO.C,D69*%
X235812500Y-140800000D03*
D15*
X228192500Y-140800000D03*
%TD*%
D16*
%TO.C,J1*%
X39800000Y-109000000D03*
D17*
X37260000Y-109000000D03*
X34720000Y-109000000D03*
X32180000Y-109000000D03*
%TD*%
D14*
%TO.C,D5*%
X135800000Y-64600000D03*
D15*
X128180000Y-64600000D03*
%TD*%
D14*
%TO.C,D38*%
X183425000Y-102700000D03*
D15*
X175805000Y-102700000D03*
%TD*%
D14*
%TO.C,D21*%
X135800000Y-83650000D03*
D15*
X128180000Y-83650000D03*
%TD*%
D14*
%TO.C,D30*%
X316775000Y-83650000D03*
D15*
X309155000Y-83650000D03*
%TD*%
D18*
%TO.C,SW85*%
X39810000Y-97460000D03*
X32190000Y-97460000D03*
X39810000Y-102540000D03*
X32190000Y-102540000D03*
%TD*%
D14*
%TO.C,D10*%
X231050000Y-64600000D03*
D15*
X223430000Y-64600000D03*
%TD*%
D14*
%TO.C,D16*%
X345350000Y-64600000D03*
D15*
X337730000Y-64600000D03*
%TD*%
D14*
%TO.C,D28*%
X269150000Y-83650000D03*
D15*
X261530000Y-83650000D03*
%TD*%
D14*
%TO.C,D11*%
X250100000Y-64600000D03*
D15*
X242480000Y-64600000D03*
%TD*%
D14*
%TO.C,D39*%
X202475000Y-102700000D03*
D15*
X194855000Y-102700000D03*
%TD*%
D14*
%TO.C,D82*%
X307250000Y-159850000D03*
D15*
X299630000Y-159850000D03*
%TD*%
D14*
%TO.C,D74*%
X345350000Y-140800000D03*
D15*
X337730000Y-140800000D03*
%TD*%
D14*
%TO.C,D59*%
X314393750Y-121750000D03*
D15*
X306773750Y-121750000D03*
%TD*%
D14*
%TO.C,D42*%
X259625000Y-102700000D03*
D15*
X252005000Y-102700000D03*
%TD*%
D14*
%TO.C,D13*%
X288200000Y-64600000D03*
D15*
X280580000Y-64600000D03*
%TD*%
D14*
%TO.C,D83*%
X326300000Y-159850000D03*
D15*
X318680000Y-159850000D03*
%TD*%
D14*
%TO.C,D55*%
X226287500Y-121750000D03*
D15*
X218667500Y-121750000D03*
%TD*%
D14*
%TO.C,D41*%
X240575000Y-102700000D03*
D15*
X232955000Y-102700000D03*
%TD*%
D14*
%TO.C,D27*%
X250100000Y-83650000D03*
D15*
X242480000Y-83650000D03*
%TD*%
D14*
%TO.C,D46*%
X345350000Y-102700000D03*
D15*
X337730000Y-102700000D03*
%TD*%
D14*
%TO.C,D79*%
X250100000Y-159850000D03*
D15*
X242480000Y-159850000D03*
%TD*%
D14*
%TO.C,D72*%
X300106250Y-140800000D03*
D15*
X292486250Y-140800000D03*
%TD*%
D19*
%TO.C,A1*%
X43240000Y-46440000D03*
X28000000Y-46440000D03*
D20*
X43240000Y-71840000D03*
X43240000Y-74380000D03*
D19*
X43240000Y-92160000D03*
D21*
X28000000Y-92160000D03*
D20*
X43240000Y-51520000D03*
X43240000Y-76920000D03*
X43240000Y-56600000D03*
X43240000Y-59140000D03*
X43240000Y-61680000D03*
X43240000Y-64220000D03*
X43240000Y-66760000D03*
X43240000Y-69300000D03*
X43240000Y-54060000D03*
X28000000Y-82000000D03*
X28000000Y-84540000D03*
X28000000Y-74380000D03*
X28000000Y-71840000D03*
X28000000Y-69300000D03*
X28000000Y-66760000D03*
X28000000Y-64220000D03*
X28000000Y-61680000D03*
X28000000Y-59140000D03*
X28000000Y-56600000D03*
X28000000Y-54060000D03*
X28000000Y-51520000D03*
X28000000Y-48980000D03*
X43240000Y-48980000D03*
D22*
X43240000Y-82000000D03*
X28000000Y-76920000D03*
D20*
X43240000Y-87080000D03*
D23*
X28000000Y-89620000D03*
D20*
X43240000Y-79460000D03*
X28000000Y-79460000D03*
X43240000Y-89620000D03*
X28000000Y-87080000D03*
X43240000Y-84540000D03*
%TD*%
D14*
%TO.C,D71*%
X273912500Y-140800000D03*
D15*
X266292500Y-140800000D03*
%TD*%
D14*
%TO.C,D35*%
X126275000Y-102700000D03*
D15*
X118655000Y-102700000D03*
%TD*%
D14*
%TO.C,D6*%
X154850000Y-64600000D03*
D15*
X147230000Y-64600000D03*
%TD*%
D14*
%TO.C,D78*%
X181043750Y-159850000D03*
D15*
X173423750Y-159850000D03*
%TD*%
D14*
%TO.C,D22*%
X154850000Y-83650000D03*
D15*
X147230000Y-83650000D03*
%TD*%
D14*
%TO.C,D45*%
X321537500Y-102700000D03*
D15*
X313917500Y-102700000D03*
%TD*%
D14*
%TO.C,D67*%
X197712500Y-140800000D03*
D15*
X190092500Y-140800000D03*
%TD*%
D14*
%TO.C,D8*%
X192950000Y-64600000D03*
D15*
X185330000Y-64600000D03*
%TD*%
D14*
%TO.C,D68*%
X216762500Y-140800000D03*
D15*
X209142500Y-140800000D03*
%TD*%
D14*
%TO.C,D54*%
X207237500Y-121750000D03*
D15*
X199617500Y-121750000D03*
%TD*%
D14*
%TO.C,D33*%
X88175000Y-102700000D03*
D15*
X80555000Y-102700000D03*
%TD*%
D14*
%TO.C,D31*%
X345350000Y-83650000D03*
D15*
X337730000Y-83650000D03*
%TD*%
D14*
%TO.C,D20*%
X116750000Y-83650000D03*
D15*
X109130000Y-83650000D03*
%TD*%
D14*
%TO.C,D75*%
X61981250Y-159850000D03*
D15*
X54361250Y-159850000D03*
%TD*%
D14*
%TO.C,D19*%
X97700000Y-83650000D03*
D15*
X90080000Y-83650000D03*
%TD*%
D14*
%TO.C,D15*%
X326300000Y-64600000D03*
D15*
X318680000Y-64600000D03*
%TD*%
D14*
%TO.C,D47*%
X66743750Y-121750000D03*
D15*
X59123750Y-121750000D03*
%TD*%
D14*
%TO.C,D58*%
X283437500Y-121750000D03*
D15*
X275817500Y-121750000D03*
%TD*%
D14*
%TO.C,D63*%
X121512500Y-140800000D03*
D15*
X113892500Y-140800000D03*
%TD*%
D14*
%TO.C,D49*%
X111987500Y-121750000D03*
D15*
X104367500Y-121750000D03*
%TD*%
D14*
%TO.C,D57*%
X264387500Y-121750000D03*
D15*
X256767500Y-121750000D03*
%TD*%
D14*
%TO.C,D80*%
X269150000Y-159850000D03*
D15*
X261530000Y-159850000D03*
%TD*%
D14*
%TO.C,D14*%
X307250000Y-64600000D03*
D15*
X299630000Y-64600000D03*
%TD*%
D14*
%TO.C,D52*%
X169137500Y-121750000D03*
D15*
X161517500Y-121750000D03*
%TD*%
D14*
%TO.C,D65*%
X159612500Y-140800000D03*
D15*
X151992500Y-140800000D03*
%TD*%
D14*
%TO.C,D77*%
X109606250Y-159850000D03*
D15*
X101986250Y-159850000D03*
%TD*%
D14*
%TO.C,D50*%
X131037500Y-121750000D03*
D15*
X123417500Y-121750000D03*
%TD*%
D14*
%TO.C,D32*%
X64362500Y-102700000D03*
D15*
X56742500Y-102700000D03*
%TD*%
D14*
%TO.C,D7*%
X173900000Y-64600000D03*
D15*
X166280000Y-64600000D03*
%TD*%
D14*
%TO.C,D66*%
X178662500Y-140800000D03*
D15*
X171042500Y-140800000D03*
%TD*%
D14*
%TO.C,D81*%
X288200000Y-159850000D03*
D15*
X280580000Y-159850000D03*
%TD*%
D14*
%TO.C,D56*%
X245337500Y-121750000D03*
D15*
X237717500Y-121750000D03*
%TD*%
D14*
%TO.C,D2*%
X78650000Y-64600000D03*
D15*
X71030000Y-64600000D03*
%TD*%
D14*
%TO.C,D64*%
X140562500Y-140800000D03*
D15*
X132942500Y-140800000D03*
%TD*%
D14*
%TO.C,D25*%
X212000000Y-83650000D03*
D15*
X204380000Y-83650000D03*
%TD*%
D14*
%TO.C,D3*%
X97700000Y-64600000D03*
D15*
X90080000Y-64600000D03*
%TD*%
D14*
%TO.C,D17*%
X59600000Y-83650000D03*
D15*
X51980000Y-83650000D03*
%TD*%
D14*
%TO.C,D9*%
X212000000Y-64600000D03*
D15*
X204380000Y-64600000D03*
%TD*%
D14*
%TO.C,D4*%
X116750000Y-64600000D03*
D15*
X109130000Y-64600000D03*
%TD*%
D14*
%TO.C,D70*%
X254862500Y-140800000D03*
D15*
X247242500Y-140800000D03*
%TD*%
D14*
%TO.C,D44*%
X297725000Y-102700000D03*
D15*
X290105000Y-102700000D03*
%TD*%
D14*
%TO.C,D18*%
X78650000Y-83650000D03*
D15*
X71030000Y-83650000D03*
%TD*%
D14*
%TO.C,D37*%
X164375000Y-102700000D03*
D15*
X156755000Y-102700000D03*
%TD*%
D14*
%TO.C,D51*%
X150087500Y-121750000D03*
D15*
X142467500Y-121750000D03*
%TD*%
D14*
%TO.C,D61*%
X71506250Y-140800000D03*
D15*
X63886250Y-140800000D03*
%TD*%
D14*
%TO.C,D26*%
X231050000Y-83650000D03*
D15*
X223430000Y-83650000D03*
%TD*%
M02*
