%TF.GenerationSoftware,KiCad,Pcbnew,8.0.8-8.0.8-0~ubuntu22.04.1*%
%TF.CreationDate,2025-03-09T08:59:39-04:00*%
%TF.ProjectId,kb_test,6b625f74-6573-4742-9e6b-696361645f70,rev?*%
%TF.SameCoordinates,Original*%
%TF.FileFunction,Profile,NP*%
%FSLAX46Y46*%
G04 Gerber Fmt 4.6, Leading zero omitted, Abs format (unit mm)*
G04 Created by KiCad (PCBNEW 8.0.8-8.0.8-0~ubuntu22.04.1) date 2025-03-09 08:59:39*
%MOMM*%
%LPD*%
G01*
G04 APERTURE LIST*
%TA.AperFunction,Profile*%
%ADD10C,0.050800*%
%TD*%
G04 APERTURE END LIST*
D10*
X35607895Y-55105000D02*
X34912005Y-55216000D01*
X36302445Y-55216000D02*
X35607895Y-55105000D01*
X36929435Y-55534000D02*
X36302445Y-55216000D01*
X37426925Y-56033000D02*
X36929435Y-55534000D01*
X37746615Y-56660000D02*
X37426925Y-56033000D01*
X37856855Y-57356000D02*
X37746615Y-56660000D01*
X37746615Y-58050000D02*
X37856855Y-57356000D01*
X37426925Y-58677000D02*
X37746615Y-58050000D01*
X36929435Y-59175000D02*
X37426925Y-58677000D01*
X36302445Y-59495000D02*
X36929435Y-59175000D01*
X35607895Y-59605000D02*
X36302445Y-59495000D01*
X34912005Y-59495000D02*
X35607895Y-59605000D01*
X34284975Y-59175000D02*
X34912005Y-59495000D01*
X33786135Y-58677000D02*
X34284975Y-59175000D01*
X33467805Y-58050000D02*
X33786135Y-58677000D01*
X33357565Y-57356000D02*
X33467805Y-58050000D01*
X33467805Y-56660000D02*
X33357565Y-57356000D01*
X33786135Y-56033000D02*
X33467805Y-56660000D01*
X34284975Y-55534000D02*
X33786135Y-56033000D01*
X34912005Y-55216000D02*
X34284975Y-55534000D01*
X350407915Y-55105000D02*
X349711915Y-55216000D01*
X351102915Y-55216000D02*
X350407915Y-55105000D01*
X351729915Y-55534000D02*
X351102915Y-55216000D01*
X352228915Y-56033000D02*
X351729915Y-55534000D01*
X352546915Y-56660000D02*
X352228915Y-56033000D01*
X352658915Y-57356000D02*
X352546915Y-56660000D01*
X352546915Y-58050000D02*
X352658915Y-57356000D01*
X352228915Y-58677000D02*
X352546915Y-58050000D01*
X351729915Y-59175000D02*
X352228915Y-58677000D01*
X351102915Y-59495000D02*
X351729915Y-59175000D01*
X350407915Y-59605000D02*
X351102915Y-59495000D01*
X349711915Y-59495000D02*
X350407915Y-59605000D01*
X349085915Y-59175000D02*
X349711915Y-59495000D01*
X348587915Y-58677000D02*
X349085915Y-59175000D01*
X348267915Y-58050000D02*
X348587915Y-58677000D01*
X348157915Y-57356000D02*
X348267915Y-58050000D01*
X348267915Y-56660000D02*
X348157915Y-57356000D01*
X348587915Y-56033000D02*
X348267915Y-56660000D01*
X349085915Y-55534000D02*
X348587915Y-56033000D01*
X349711915Y-55216000D02*
X349085915Y-55534000D01*
X245474915Y-55105000D02*
X244778915Y-55216000D01*
X246169915Y-55216000D02*
X245474915Y-55105000D01*
X246796915Y-55534000D02*
X246169915Y-55216000D01*
X247293915Y-56033000D02*
X246796915Y-55534000D01*
X247614915Y-56660000D02*
X247293915Y-56033000D01*
X247723915Y-57356000D02*
X247614915Y-56660000D01*
X247614915Y-58050000D02*
X247723915Y-57356000D01*
X247293915Y-58677000D02*
X247614915Y-58050000D01*
X246796915Y-59175000D02*
X247293915Y-58677000D01*
X246169915Y-59495000D02*
X246796915Y-59175000D01*
X245474915Y-59605000D02*
X246169915Y-59495000D01*
X244778915Y-59495000D02*
X245474915Y-59605000D01*
X244151915Y-59175000D02*
X244778915Y-59495000D01*
X243654915Y-58677000D02*
X244151915Y-59175000D01*
X243334915Y-58050000D02*
X243654915Y-58677000D01*
X243224915Y-57356000D02*
X243334915Y-58050000D01*
X243334915Y-56660000D02*
X243224915Y-57356000D01*
X243654915Y-56033000D02*
X243334915Y-56660000D01*
X244151915Y-55534000D02*
X243654915Y-56033000D01*
X244778915Y-55216000D02*
X244151915Y-55534000D01*
X140539915Y-55105000D02*
X139845915Y-55216000D01*
X141235915Y-55216000D02*
X140539915Y-55105000D01*
X141862915Y-55534000D02*
X141235915Y-55216000D01*
X142360915Y-56033000D02*
X141862915Y-55534000D01*
X142679915Y-56660000D02*
X142360915Y-56033000D01*
X142790915Y-57356000D02*
X142679915Y-56660000D01*
X142679915Y-58050000D02*
X142790915Y-57356000D01*
X142360915Y-58677000D02*
X142679915Y-58050000D01*
X141862915Y-59175000D02*
X142360915Y-58677000D01*
X141235915Y-59495000D02*
X141862915Y-59175000D01*
X140539915Y-59605000D02*
X141235915Y-59495000D01*
X139845915Y-59495000D02*
X140539915Y-59605000D01*
X139218915Y-59175000D02*
X139845915Y-59495000D01*
X138720915Y-58677000D02*
X139218915Y-59175000D01*
X138399915Y-58050000D02*
X138720915Y-58677000D01*
X138290915Y-57356000D02*
X138399915Y-58050000D01*
X138399915Y-56660000D02*
X138290915Y-57356000D01*
X138720915Y-56033000D02*
X138399915Y-56660000D01*
X139218915Y-55534000D02*
X138720915Y-56033000D01*
X139845915Y-55216000D02*
X139218915Y-55534000D01*
X35607895Y-179405970D02*
X34912005Y-179516220D01*
X36302445Y-179516220D02*
X35607895Y-179405970D01*
X36929435Y-179835900D02*
X36302445Y-179516220D01*
X37426925Y-180333390D02*
X36929435Y-179835900D01*
X37746615Y-180960380D02*
X37426925Y-180333390D01*
X37856855Y-181656310D02*
X37746615Y-180960380D01*
X37746615Y-182350820D02*
X37856855Y-181656310D01*
X37426925Y-182977850D02*
X37746615Y-182350820D01*
X36929435Y-183476680D02*
X37426925Y-182977850D01*
X36302445Y-183795010D02*
X36929435Y-183476680D01*
X35607895Y-183906630D02*
X36302445Y-183795010D01*
X34912005Y-183795010D02*
X35607895Y-183906630D01*
X34284975Y-183476680D02*
X34912005Y-183795010D01*
X33786135Y-182977850D02*
X34284975Y-183476680D01*
X33467805Y-182350820D02*
X33786135Y-182977850D01*
X33357565Y-181656310D02*
X33467805Y-182350820D01*
X33467805Y-180960380D02*
X33357565Y-181656310D01*
X33786135Y-180333390D02*
X33467805Y-180960380D01*
X34284975Y-179835900D02*
X33786135Y-180333390D01*
X34912005Y-179516220D02*
X34284975Y-179835900D01*
X140539915Y-179405970D02*
X139845915Y-179516220D01*
X141235915Y-179516220D02*
X140539915Y-179405970D01*
X141862915Y-179835900D02*
X141235915Y-179516220D01*
X142360915Y-180333390D02*
X141862915Y-179835900D01*
X142679915Y-180960380D02*
X142360915Y-180333390D01*
X142790915Y-181656310D02*
X142679915Y-180960380D01*
X142679915Y-182350820D02*
X142790915Y-181656310D01*
X142360915Y-182977850D02*
X142679915Y-182350820D01*
X141862915Y-183476680D02*
X142360915Y-182977850D01*
X141235915Y-183795010D02*
X141862915Y-183476680D01*
X140539915Y-183906630D02*
X141235915Y-183795010D01*
X139845915Y-183795010D02*
X140539915Y-183906630D01*
X139218915Y-183476680D02*
X139845915Y-183795010D01*
X138720915Y-182977850D02*
X139218915Y-183476680D01*
X138399915Y-182350820D02*
X138720915Y-182977850D01*
X138290915Y-181656310D02*
X138399915Y-182350820D01*
X138399915Y-180960380D02*
X138290915Y-181656310D01*
X138720915Y-180333390D02*
X138399915Y-180960380D01*
X139218915Y-179835900D02*
X138720915Y-180333390D01*
X139845915Y-179516220D02*
X139218915Y-179835900D01*
X245474915Y-179405970D02*
X244778915Y-179516220D01*
X246169915Y-179516220D02*
X245474915Y-179405970D01*
X246796915Y-179835900D02*
X246169915Y-179516220D01*
X247293915Y-180333390D02*
X246796915Y-179835900D01*
X247614915Y-180960380D02*
X247293915Y-180333390D01*
X247723915Y-181656310D02*
X247614915Y-180960380D01*
X247614915Y-182350820D02*
X247723915Y-181656310D01*
X247293915Y-182977850D02*
X247614915Y-182350820D01*
X246796915Y-183476680D02*
X247293915Y-182977850D01*
X246169915Y-183795010D02*
X246796915Y-183476680D01*
X245474915Y-183906630D02*
X246169915Y-183795010D01*
X244778915Y-183795010D02*
X245474915Y-183906630D01*
X244151915Y-183476680D02*
X244778915Y-183795010D01*
X243654915Y-182977850D02*
X244151915Y-183476680D01*
X243334915Y-182350820D02*
X243654915Y-182977850D01*
X243224915Y-181656310D02*
X243334915Y-182350820D01*
X243334915Y-180960380D02*
X243224915Y-181656310D01*
X243654915Y-180333390D02*
X243334915Y-180960380D01*
X244151915Y-179835900D02*
X243654915Y-180333390D01*
X244778915Y-179516220D02*
X244151915Y-179835900D01*
X350407915Y-179405970D02*
X349711915Y-179516220D01*
X351102915Y-179516220D02*
X350407915Y-179405970D01*
X351729915Y-179835900D02*
X351102915Y-179516220D01*
X352228915Y-180333390D02*
X351729915Y-179835900D01*
X352546915Y-180960380D02*
X352228915Y-180333390D01*
X352658915Y-181656310D02*
X352546915Y-180960380D01*
X352546915Y-182350820D02*
X352658915Y-181656310D01*
X352228915Y-182977850D02*
X352546915Y-182350820D01*
X351729915Y-183476680D02*
X352228915Y-182977850D01*
X351102915Y-183795010D02*
X351729915Y-183476680D01*
X350407915Y-183906630D02*
X351102915Y-183795010D01*
X349711915Y-183795010D02*
X350407915Y-183906630D01*
X349085915Y-183476680D02*
X349711915Y-183795010D01*
X348587915Y-182977850D02*
X349085915Y-183476680D01*
X348267915Y-182350820D02*
X348587915Y-182977850D01*
X348157915Y-181656310D02*
X348267915Y-182350820D01*
X348267915Y-180960380D02*
X348157915Y-181656310D01*
X348587915Y-180333390D02*
X348267915Y-180960380D01*
X349085915Y-179835900D02*
X348587915Y-180333390D01*
X349711915Y-179516220D02*
X349085915Y-179835900D01*
X32607915Y-52355000D02*
X353407915Y-52355000D01*
X32450815Y-52362000D02*
X32607915Y-52355000D01*
X32293715Y-52380000D02*
X32450815Y-52362000D01*
X32140755Y-52410000D02*
X32293715Y-52380000D01*
X31987795Y-52453000D02*
X32140755Y-52410000D01*
X31841725Y-52508000D02*
X31987795Y-52453000D01*
X31699785Y-52573000D02*
X31841725Y-52508000D01*
X31561975Y-52650000D02*
X31699785Y-52573000D01*
X31431067Y-52737000D02*
X31561975Y-52650000D01*
X31308420Y-52835000D02*
X31431067Y-52737000D01*
X31192667Y-52941000D02*
X31308420Y-52835000D01*
X31086558Y-53056000D02*
X31192667Y-52941000D01*
X30988715Y-53179000D02*
X31086558Y-53056000D01*
X30901900Y-53310000D02*
X30988715Y-53179000D01*
X30824730Y-53448000D02*
X30901900Y-53310000D01*
X30759962Y-53590000D02*
X30824730Y-53448000D01*
X30704840Y-53736000D02*
X30759962Y-53590000D01*
X30662121Y-53889000D02*
X30704840Y-53736000D01*
X30631804Y-54042000D02*
X30662121Y-53889000D01*
X30613890Y-54199000D02*
X30631804Y-54042000D01*
X30607000Y-54356000D02*
X30613890Y-54199000D01*
X30607000Y-184654910D02*
X30607000Y-54356000D01*
X30613890Y-184812000D02*
X30607000Y-184654910D01*
X30631804Y-184967720D02*
X30613890Y-184812000D01*
X30662121Y-185122060D02*
X30631804Y-184967720D01*
X30704840Y-185275030D02*
X30662121Y-185122060D01*
X30759962Y-185421100D02*
X30704840Y-185275030D01*
X30824730Y-185563040D02*
X30759962Y-185421100D01*
X30901900Y-185700840D02*
X30824730Y-185563040D01*
X30988715Y-185831750D02*
X30901900Y-185700840D01*
X31086558Y-185954400D02*
X30988715Y-185831750D01*
X31192667Y-186070154D02*
X31086558Y-185954400D01*
X31308420Y-186176263D02*
X31192667Y-186070154D01*
X31431067Y-186274102D02*
X31308420Y-186176263D01*
X31561975Y-186360921D02*
X31431067Y-186274102D01*
X31699785Y-186438091D02*
X31561975Y-186360921D01*
X31841725Y-186502858D02*
X31699785Y-186438091D01*
X31987795Y-186557979D02*
X31841725Y-186502858D01*
X32140755Y-186600697D02*
X31987795Y-186557979D01*
X32293715Y-186631015D02*
X32140755Y-186600697D01*
X32450815Y-186648929D02*
X32293715Y-186631015D01*
X32607915Y-186655819D02*
X32450815Y-186648929D01*
X353407915Y-186655819D02*
X32607915Y-186655819D01*
X353563915Y-186648929D02*
X353407915Y-186655819D01*
X353719915Y-186631015D02*
X353563915Y-186648929D01*
X353873915Y-186600697D02*
X353719915Y-186631015D01*
X354026915Y-186557979D02*
X353873915Y-186600697D01*
X354172915Y-186502858D02*
X354026915Y-186557979D01*
X354314915Y-186438091D02*
X354172915Y-186502858D01*
X354452915Y-186360921D02*
X354314915Y-186438091D01*
X354583915Y-186274102D02*
X354452915Y-186360921D01*
X354706915Y-186176263D02*
X354583915Y-186274102D01*
X354821915Y-186070154D02*
X354706915Y-186176263D01*
X354927915Y-185954400D02*
X354821915Y-186070154D01*
X355025915Y-185831750D02*
X354927915Y-185954400D01*
X355112915Y-185700840D02*
X355025915Y-185831750D01*
X355189915Y-185563040D02*
X355112915Y-185700840D01*
X355254915Y-185421100D02*
X355189915Y-185563040D01*
X355309915Y-185275030D02*
X355254915Y-185421100D01*
X355352915Y-185122060D02*
X355309915Y-185275030D01*
X355382915Y-184967720D02*
X355352915Y-185122060D01*
X355400915Y-184812000D02*
X355382915Y-184967720D01*
X355407915Y-184656280D02*
X355400915Y-184812000D01*
X355407915Y-54356000D02*
X355407915Y-184656280D01*
X355400915Y-54199000D02*
X355407915Y-54356000D01*
X355382915Y-54042000D02*
X355400915Y-54199000D01*
X355352915Y-53889000D02*
X355382915Y-54042000D01*
X355309915Y-53736000D02*
X355352915Y-53889000D01*
X355254915Y-53590000D02*
X355309915Y-53736000D01*
X355189915Y-53448000D02*
X355254915Y-53590000D01*
X355112915Y-53310000D02*
X355189915Y-53448000D01*
X355025915Y-53179000D02*
X355112915Y-53310000D01*
X354927915Y-53056000D02*
X355025915Y-53179000D01*
X354821915Y-52941000D02*
X354927915Y-53056000D01*
X354706915Y-52835000D02*
X354821915Y-52941000D01*
X354583915Y-52737000D02*
X354706915Y-52835000D01*
X354452915Y-52650000D02*
X354583915Y-52737000D01*
X354314915Y-52573000D02*
X354452915Y-52650000D01*
X354172915Y-52508000D02*
X354314915Y-52573000D01*
X354026915Y-52453000D02*
X354172915Y-52508000D01*
X353873915Y-52410000D02*
X354026915Y-52453000D01*
X353719915Y-52380000D02*
X353873915Y-52410000D01*
X353563915Y-52362000D02*
X353719915Y-52380000D01*
X353407915Y-52355000D02*
X353563915Y-52362000D01*
M02*
