M48
; DRILL file {KiCad 8.0.8-8.0.8-0~ubuntu22.04.1} date 2025-03-13T07:20:07-0400
; FORMAT={-:-/ absolute / inch / decimal}
; #@! TF.CreationDate,2025-03-13T07:20:07-04:00
; #@! TF.GenerationSoftware,Kicad,Pcbnew,8.0.8-8.0.8-0~ubuntu22.04.1
; #@! TF.FileFunction,NonPlated,1,2,NPTH
FMAT,2
INCH
; #@! TA.AperFunction,NonPlated,NPTH,ComponentDrill
T1C0.0400
; #@! TA.AperFunction,NonPlated,NPTH,ComponentDrill
T2C0.0551
; #@! TA.AperFunction,NonPlated,NPTH,ComponentDrill
T3C0.0669
; #@! TA.AperFunction,NonPlated,NPTH,ComponentDrill
T4C0.1575
; #@! TA.AperFunction,NonPlated,NPTH,ComponentDrill
T5C0.1693
%
G90
G05
T1
X1.1024Y-3.6283
T2
X1.1024Y-1.8283
X1.7024Y-1.8283
X1.7024Y-3.6283
T3
X1.948Y-2.1724
X1.948Y-2.9224
X2.0418Y-5.9224
X2.1355Y-3.6724
X2.2293Y-4.4224
X2.348Y-2.1724
X2.348Y-2.9224
X2.4168Y-5.1724
X2.4418Y-5.9224
X2.5355Y-3.6724
X2.6293Y-4.4224
X2.698Y-2.1724
X2.698Y-2.9224
X2.8168Y-5.1724
X2.9793Y-5.9224
X3.073Y-3.6724
X3.098Y-2.1724
X3.098Y-2.9224
X3.2605Y-4.4224
X3.3793Y-5.9224
X3.448Y-2.1724
X3.448Y-2.9224
X3.473Y-3.6724
X3.6355Y-5.1724
X3.6605Y-4.4224
X3.823Y-3.6724
X3.848Y-2.1724
X3.848Y-2.9224
X3.9168Y-5.9224
X4.0105Y-4.4224
X4.0355Y-5.1724
X4.198Y-2.1724
X4.198Y-2.9224
X4.223Y-3.6724
X4.3168Y-5.9224
X4.3855Y-5.1724
X4.4105Y-4.4224
X4.573Y-3.6724
X4.598Y-2.1724
X4.598Y-2.9224
X4.7605Y-4.4224
X4.7855Y-5.1724
X4.948Y-2.1724
X4.948Y-2.9224
X4.973Y-3.6724
X5.1355Y-5.1724
X5.1605Y-4.4224
X5.323Y-3.6724
X5.348Y-2.1724
X5.348Y-2.9224
X5.5105Y-4.4224
X5.5355Y-5.1724
X5.698Y-2.1724
X5.698Y-2.9224
X5.723Y-3.6724
X5.8855Y-5.1724
X5.9105Y-4.4224
X6.073Y-3.6724
X6.098Y-2.1724
X6.098Y-2.9224
X6.2605Y-4.4224
X6.2855Y-5.1724
X6.448Y-2.1724
X6.448Y-2.9224
X6.473Y-3.6724
X6.6355Y-5.1724
X6.6605Y-4.4224
X6.7293Y-5.9224
X6.823Y-3.6724
X6.848Y-2.1724
X6.848Y-2.9224
X7.0105Y-4.4224
X7.0355Y-5.1724
X7.1293Y-5.9224
X7.198Y-2.1724
X7.198Y-2.9224
X7.223Y-3.6724
X7.3855Y-5.1724
X7.4105Y-4.4224
X7.573Y-3.6724
X7.598Y-2.1724
X7.598Y-2.9224
X7.7605Y-4.4224
X7.7855Y-5.1724
X7.948Y-2.1724
X7.948Y-2.9224
X7.973Y-3.6724
X8.1355Y-5.1724
X8.1605Y-4.4224
X8.323Y-3.6724
X8.348Y-2.1724
X8.348Y-2.9224
X8.5105Y-4.4224
X8.5355Y-5.1724
X8.698Y-2.1724
X8.698Y-2.9224
X8.723Y-3.6724
X8.8855Y-5.1724
X8.9105Y-4.4224
X9.073Y-3.6724
X9.098Y-2.1724
X9.098Y-2.9224
X9.2605Y-4.4224
X9.2855Y-5.1724
X9.448Y-2.1724
X9.448Y-2.9224
X9.448Y-5.9224
X9.473Y-3.6724
X9.6355Y-5.1724
X9.6605Y-4.4224
X9.823Y-3.6724
X9.848Y-2.1724
X9.848Y-2.9224
X9.848Y-5.9224
X10.0105Y-4.4224
X10.0355Y-5.1724
X10.198Y-2.1724
X10.198Y-2.9224
X10.198Y-5.9224
X10.223Y-3.6724
X10.3855Y-5.1724
X10.4105Y-4.4224
X10.573Y-3.6724
X10.598Y-2.1724
X10.598Y-2.9224
X10.598Y-5.9224
X10.7605Y-4.4224
X10.7855Y-5.1724
X10.948Y-2.1724
X10.948Y-2.9224
X10.948Y-5.9224
X10.973Y-3.6724
X11.1605Y-4.4224
X11.323Y-3.6724
X11.348Y-2.1724
X11.348Y-2.9224
X11.348Y-5.9224
X11.4168Y-5.1724
X11.698Y-2.1724
X11.698Y-5.9224
X11.723Y-3.6724
X11.8168Y-5.1724
X11.9793Y-4.4224
X12.073Y-2.9224
X12.098Y-2.1724
X12.098Y-5.9224
X12.2605Y-3.6724
X12.3793Y-4.4224
X12.448Y-2.1724
X12.448Y-5.1724
X12.448Y-5.9224
X12.473Y-2.9224
X12.6605Y-3.6724
X12.848Y-2.1724
X12.848Y-5.1724
X12.848Y-5.9224
X13.198Y-2.1724
X13.198Y-2.9224
X13.198Y-3.6724
X13.198Y-4.4224
X13.198Y-5.1724
X13.198Y-5.9224
X13.598Y-2.1724
X13.598Y-2.9224
X13.598Y-3.6724
X13.598Y-4.4224
X13.598Y-5.1724
X13.598Y-5.9224
T4
X2.148Y-2.1724
X2.148Y-2.9224
X2.2418Y-5.9224
X2.3355Y-3.6724
X2.4293Y-4.4224
X2.6168Y-5.1724
X2.898Y-2.1724
X2.898Y-2.9224
X3.1793Y-5.9224
X3.273Y-3.6724
X3.4605Y-4.4224
X3.648Y-2.1724
X3.648Y-2.9224
X3.8355Y-5.1724
X4.023Y-3.6724
X4.1168Y-5.9224
X4.2105Y-4.4224
X4.398Y-2.1724
X4.398Y-2.9224
X4.5855Y-5.1724
X4.773Y-3.6724
X4.9605Y-4.4224
X5.148Y-2.1724
X5.148Y-2.9224
X5.3355Y-5.1724
X5.523Y-3.6724
X5.7105Y-4.4224
X5.898Y-2.1724
X5.898Y-2.9224
X6.0855Y-5.1724
X6.273Y-3.6724
X6.4605Y-4.4224
X6.648Y-2.1724
X6.648Y-2.9224
X6.8355Y-5.1724
X6.9293Y-5.9224
X7.023Y-3.6724
X7.2105Y-4.4224
X7.398Y-2.1724
X7.398Y-2.9224
X7.5855Y-5.1724
X7.773Y-3.6724
X7.9605Y-4.4224
X8.148Y-2.1724
X8.148Y-2.9224
X8.3355Y-5.1724
X8.523Y-3.6724
X8.7105Y-4.4224
X8.898Y-2.1724
X8.898Y-2.9224
X9.0855Y-5.1724
X9.273Y-3.6724
X9.4605Y-4.4224
X9.648Y-2.1724
X9.648Y-2.9224
X9.648Y-5.9224
X9.8355Y-5.1724
X10.023Y-3.6724
X10.2105Y-4.4224
X10.398Y-2.1724
X10.398Y-2.9224
X10.398Y-5.9224
X10.5855Y-5.1724
X10.773Y-3.6724
X10.9605Y-4.4224
X11.148Y-2.1724
X11.148Y-2.9224
X11.148Y-5.9224
X11.523Y-3.6724
X11.6168Y-5.1724
X11.898Y-2.1724
X11.898Y-5.9224
X12.1793Y-4.4224
X12.273Y-2.9224
X12.4605Y-3.6724
X12.648Y-2.1724
X12.648Y-5.1724
X12.648Y-5.9224
X13.398Y-2.1724
X13.398Y-2.9224
X13.398Y-3.6724
X13.398Y-4.4224
X13.398Y-5.1724
X13.398Y-5.9224
T5
X1.4Y-2.275
X1.4Y-6.125
X7.6Y-6.125
X12.875Y-2.875
X12.875Y-4.525
M30
