%TF.GenerationSoftware,KiCad,Pcbnew,8.0.8-8.0.8-0~ubuntu22.04.1*%
%TF.CreationDate,2025-03-09T08:59:39-04:00*%
%TF.ProjectId,kb_test,6b625f74-6573-4742-9e6b-696361645f70,rev?*%
%TF.SameCoordinates,Original*%
%TF.FileFunction,Copper,L1,Top*%
%TF.FilePolarity,Positive*%
%FSLAX46Y46*%
G04 Gerber Fmt 4.6, Leading zero omitted, Abs format (unit mm)*
G04 Created by KiCad (PCBNEW 8.0.8-8.0.8-0~ubuntu22.04.1) date 2025-03-09 08:59:39*
%MOMM*%
%LPD*%
G01*
G04 APERTURE LIST*
%TA.AperFunction,ComponentPad*%
%ADD10R,2.200000X2.200000*%
%TD*%
%TA.AperFunction,ComponentPad*%
%ADD11O,2.200000X2.200000*%
%TD*%
%TA.AperFunction,ComponentPad*%
%ADD12C,2.200000*%
%TD*%
%TA.AperFunction,Conductor*%
%ADD13C,0.200000*%
%TD*%
G04 APERTURE END LIST*
D10*
%TO.P,D53,1,K*%
%TO.N,ROW3*%
X184213500Y-137160000D03*
D11*
%TO.P,D53,2,A*%
%TO.N,Net-(D53-A)*%
X176593500Y-137160000D03*
%TD*%
D12*
%TO.P,SW26,1,1*%
%TO.N,COL9*%
X224576000Y-84560000D03*
%TO.P,SW26,2,2*%
%TO.N,Net-(D26-A)*%
X218226000Y-87100000D03*
%TD*%
%TO.P,SW12,1,1*%
%TO.N,COL11*%
X262676000Y-65510000D03*
%TO.P,SW12,2,2*%
%TO.N,Net-(D12-A)*%
X256326000Y-68050000D03*
%TD*%
D10*
%TO.P,D23,1,K*%
%TO.N,ROW1*%
X169926000Y-99060000D03*
D11*
%TO.P,D23,2,A*%
%TO.N,Net-(D23-A)*%
X162306000Y-99060000D03*
%TD*%
D10*
%TO.P,D29,1,K*%
%TO.N,ROW1*%
X284226000Y-99060000D03*
D11*
%TO.P,D29,2,A*%
%TO.N,Net-(D29-A)*%
X276606000Y-99060000D03*
%TD*%
D12*
%TO.P,SW62,1,1*%
%TO.N,COL1*%
X95988500Y-141710000D03*
%TO.P,SW62,2,2*%
%TO.N,Net-(D62-A)*%
X89638500Y-144250000D03*
%TD*%
D10*
%TO.P,D48,1,K*%
%TO.N,ROW3*%
X88963500Y-137160000D03*
D11*
%TO.P,D48,2,A*%
%TO.N,Net-(D48-A)*%
X81343500Y-137160000D03*
%TD*%
D10*
%TO.P,D60,1,K*%
%TO.N,ROW3*%
X341376000Y-137160000D03*
D11*
%TO.P,D60,2,A*%
%TO.N,Net-(D60-A)*%
X333756000Y-137160000D03*
%TD*%
D12*
%TO.P,SW15,1,1*%
%TO.N,COL14*%
X319826000Y-65510000D03*
%TO.P,SW15,2,2*%
%TO.N,Net-(D15-A)*%
X313476000Y-68050000D03*
%TD*%
%TO.P,SW84,1,1*%
%TO.N,COL9*%
X338876000Y-160760000D03*
%TO.P,SW84,2,2*%
%TO.N,Net-(D84-A)*%
X332526000Y-163300000D03*
%TD*%
D10*
%TO.P,D34,1,K*%
%TO.N,ROW2*%
X103251000Y-118110000D03*
D11*
%TO.P,D34,2,A*%
%TO.N,Net-(D34-A)*%
X95631000Y-118110000D03*
%TD*%
D12*
%TO.P,SW37,1,1*%
%TO.N,COL5*%
X157901000Y-103610000D03*
%TO.P,SW37,2,2*%
%TO.N,Net-(D37-A)*%
X151551000Y-106150000D03*
%TD*%
D10*
%TO.P,D1,1,K*%
%TO.N,ROW0*%
X55626000Y-80010000D03*
D11*
%TO.P,D1,2,A*%
%TO.N,Net-(D1-A)*%
X48006000Y-80010000D03*
%TD*%
D12*
%TO.P,SW78,1,1*%
%TO.N,COL3*%
X174569750Y-160760000D03*
%TO.P,SW78,2,2*%
%TO.N,Net-(D78-A)*%
X168219750Y-163300000D03*
%TD*%
D10*
%TO.P,D43,1,K*%
%TO.N,ROW2*%
X274701000Y-118110000D03*
D11*
%TO.P,D43,2,A*%
%TO.N,Net-(D43-A)*%
X267081000Y-118110000D03*
%TD*%
D12*
%TO.P,SW53,1,1*%
%TO.N,COL6*%
X181713500Y-122660000D03*
%TO.P,SW53,2,2*%
%TO.N,Net-(D53-A)*%
X175363500Y-125200000D03*
%TD*%
D10*
%TO.P,D12,1,K*%
%TO.N,ROW0*%
X265176000Y-80010000D03*
D11*
%TO.P,D12,2,A*%
%TO.N,Net-(D12-A)*%
X257556000Y-80010000D03*
%TD*%
D12*
%TO.P,SW68,1,1*%
%TO.N,COL7*%
X210288500Y-141710000D03*
%TO.P,SW68,2,2*%
%TO.N,Net-(D68-A)*%
X203938500Y-144250000D03*
%TD*%
%TO.P,SW29,1,1*%
%TO.N,COL12*%
X281726000Y-84560000D03*
%TO.P,SW29,2,2*%
%TO.N,Net-(D29-A)*%
X275376000Y-87100000D03*
%TD*%
D10*
%TO.P,D73,1,K*%
%TO.N,ROW4*%
X322326000Y-156210000D03*
D11*
%TO.P,D73,2,A*%
%TO.N,Net-(D73-A)*%
X314706000Y-156210000D03*
%TD*%
D10*
%TO.P,D24,1,K*%
%TO.N,ROW1*%
X188976000Y-99060000D03*
D11*
%TO.P,D24,2,A*%
%TO.N,Net-(D24-A)*%
X181356000Y-99060000D03*
%TD*%
D10*
%TO.P,D40,1,K*%
%TO.N,ROW2*%
X217551000Y-118110000D03*
D11*
%TO.P,D40,2,A*%
%TO.N,Net-(D40-A)*%
X209931000Y-118110000D03*
%TD*%
D10*
%TO.P,D62,1,K*%
%TO.N,ROW4*%
X98488500Y-156210000D03*
D11*
%TO.P,D62,2,A*%
%TO.N,Net-(D62-A)*%
X90868500Y-156210000D03*
%TD*%
D12*
%TO.P,SW34,1,1*%
%TO.N,COL2*%
X100751000Y-103610000D03*
%TO.P,SW34,2,2*%
%TO.N,Net-(D34-A)*%
X94401000Y-106150000D03*
%TD*%
%TO.P,SW24,1,1*%
%TO.N,COL7*%
X186476000Y-84560000D03*
%TO.P,SW24,2,2*%
%TO.N,Net-(D24-A)*%
X180126000Y-87100000D03*
%TD*%
%TO.P,SW32,1,1*%
%TO.N,COL0*%
X57888500Y-103610000D03*
%TO.P,SW32,2,2*%
%TO.N,Net-(D32-A)*%
X51538500Y-106150000D03*
%TD*%
%TO.P,SW16,1,1*%
%TO.N,COL15*%
X338876000Y-65510000D03*
%TO.P,SW16,2,2*%
%TO.N,Net-(D16-A)*%
X332526000Y-68050000D03*
%TD*%
%TO.P,SW54,1,1*%
%TO.N,COL7*%
X200763500Y-122660000D03*
%TO.P,SW54,2,2*%
%TO.N,Net-(D54-A)*%
X194413500Y-125200000D03*
%TD*%
D10*
%TO.P,D84,1,K*%
%TO.N,ROW5*%
X341376000Y-175260000D03*
D11*
%TO.P,D84,2,A*%
%TO.N,Net-(D84-A)*%
X333756000Y-175260000D03*
%TD*%
D12*
%TO.P,SW36,1,1*%
%TO.N,COL4*%
X138851000Y-103610000D03*
%TO.P,SW36,2,2*%
%TO.N,Net-(D36-A)*%
X132501000Y-106150000D03*
%TD*%
%TO.P,SW6,1,1*%
%TO.N,COL5*%
X148376000Y-65510000D03*
%TO.P,SW6,2,2*%
%TO.N,Net-(D6-A)*%
X142026000Y-68050000D03*
%TD*%
%TO.P,SW44,1,1*%
%TO.N,COL12*%
X291251000Y-103610000D03*
%TO.P,SW44,2,2*%
%TO.N,Net-(D44-A)*%
X284901000Y-106150000D03*
%TD*%
%TO.P,SW9,1,1*%
%TO.N,COL8*%
X205526000Y-65510000D03*
%TO.P,SW9,2,2*%
%TO.N,Net-(D9-A)*%
X199176000Y-68050000D03*
%TD*%
%TO.P,SW51,1,1*%
%TO.N,COL4*%
X143613500Y-122660000D03*
%TO.P,SW51,2,2*%
%TO.N,Net-(D51-A)*%
X137263500Y-125200000D03*
%TD*%
%TO.P,SW45,1,1*%
%TO.N,COL13*%
X315063500Y-103610000D03*
%TO.P,SW45,2,2*%
%TO.N,Net-(D45-A)*%
X308713500Y-106150000D03*
%TD*%
D10*
%TO.P,D36,1,K*%
%TO.N,ROW2*%
X141351000Y-118110000D03*
D11*
%TO.P,D36,2,A*%
%TO.N,Net-(D36-A)*%
X133731000Y-118110000D03*
%TD*%
D10*
%TO.P,D76,1,K*%
%TO.N,ROW5*%
X81819750Y-175260000D03*
D11*
%TO.P,D76,2,A*%
%TO.N,Net-(D76-A)*%
X74199750Y-175260000D03*
%TD*%
D12*
%TO.P,SW52,1,1*%
%TO.N,COL5*%
X162663500Y-122660000D03*
%TO.P,SW52,2,2*%
%TO.N,Net-(D52-A)*%
X156313500Y-125200000D03*
%TD*%
%TO.P,SW58,1,1*%
%TO.N,COL11*%
X276963500Y-122660000D03*
%TO.P,SW58,2,2*%
%TO.N,Net-(D58-A)*%
X270613500Y-125200000D03*
%TD*%
D10*
%TO.P,D69,1,K*%
%TO.N,ROW4*%
X231838500Y-156210000D03*
D11*
%TO.P,D69,2,A*%
%TO.N,Net-(D69-A)*%
X224218500Y-156210000D03*
%TD*%
D12*
%TO.P,SW66,1,1*%
%TO.N,COL5*%
X172188500Y-141710000D03*
%TO.P,SW66,2,2*%
%TO.N,Net-(D66-A)*%
X165838500Y-144250000D03*
%TD*%
D10*
%TO.P,D5,1,K*%
%TO.N,ROW0*%
X131826000Y-80010000D03*
D11*
%TO.P,D5,2,A*%
%TO.N,Net-(D5-A)*%
X124206000Y-80010000D03*
%TD*%
D10*
%TO.P,D38,1,K*%
%TO.N,ROW2*%
X179451000Y-118110000D03*
D11*
%TO.P,D38,2,A*%
%TO.N,Net-(D38-A)*%
X171831000Y-118110000D03*
%TD*%
D10*
%TO.P,D21,1,K*%
%TO.N,ROW1*%
X131826000Y-99060000D03*
D11*
%TO.P,D21,2,A*%
%TO.N,Net-(D21-A)*%
X124206000Y-99060000D03*
%TD*%
D10*
%TO.P,D30,1,K*%
%TO.N,ROW1*%
X312801000Y-99060000D03*
D11*
%TO.P,D30,2,A*%
%TO.N,Net-(D30-A)*%
X305181000Y-99060000D03*
%TD*%
D12*
%TO.P,SW33,1,1*%
%TO.N,COL1*%
X81701000Y-103610000D03*
%TO.P,SW33,2,2*%
%TO.N,Net-(D33-A)*%
X75351000Y-106150000D03*
%TD*%
%TO.P,SW14,1,1*%
%TO.N,COL13*%
X300776000Y-65510000D03*
%TO.P,SW14,2,2*%
%TO.N,Net-(D14-A)*%
X294426000Y-68050000D03*
%TD*%
D10*
%TO.P,D10,1,K*%
%TO.N,ROW0*%
X227076000Y-80010000D03*
D11*
%TO.P,D10,2,A*%
%TO.N,Net-(D10-A)*%
X219456000Y-80010000D03*
%TD*%
D10*
%TO.P,D16,1,K*%
%TO.N,ROW0*%
X341376000Y-80010000D03*
D11*
%TO.P,D16,2,A*%
%TO.N,Net-(D16-A)*%
X333756000Y-80010000D03*
%TD*%
D12*
%TO.P,SW77,1,1*%
%TO.N,COL2*%
X103132250Y-160760000D03*
%TO.P,SW77,2,2*%
%TO.N,Net-(D77-A)*%
X96782250Y-163300000D03*
%TD*%
D10*
%TO.P,D28,1,K*%
%TO.N,ROW1*%
X265176000Y-99060000D03*
D11*
%TO.P,D28,2,A*%
%TO.N,Net-(D28-A)*%
X257556000Y-99060000D03*
%TD*%
D10*
%TO.P,D11,1,K*%
%TO.N,ROW0*%
X246126000Y-80010000D03*
D11*
%TO.P,D11,2,A*%
%TO.N,Net-(D11-A)*%
X238506000Y-80010000D03*
%TD*%
D10*
%TO.P,D39,1,K*%
%TO.N,ROW2*%
X198501000Y-118110000D03*
D11*
%TO.P,D39,2,A*%
%TO.N,Net-(D39-A)*%
X190881000Y-118110000D03*
%TD*%
D12*
%TO.P,SW71,1,1*%
%TO.N,COL10*%
X267438500Y-141710000D03*
%TO.P,SW71,2,2*%
%TO.N,Net-(D71-A)*%
X261088500Y-144250000D03*
%TD*%
%TO.P,SW20,1,1*%
%TO.N,COL3*%
X110276000Y-84560000D03*
%TO.P,SW20,2,2*%
%TO.N,Net-(D20-A)*%
X103926000Y-87100000D03*
%TD*%
D10*
%TO.P,D82,1,K*%
%TO.N,ROW5*%
X303276000Y-175260000D03*
D11*
%TO.P,D82,2,A*%
%TO.N,Net-(D82-A)*%
X295656000Y-175260000D03*
%TD*%
D10*
%TO.P,D74,1,K*%
%TO.N,ROW4*%
X341376000Y-156210000D03*
D11*
%TO.P,D74,2,A*%
%TO.N,Net-(D74-A)*%
X333756000Y-156210000D03*
%TD*%
D12*
%TO.P,SW39,1,1*%
%TO.N,COL7*%
X196001000Y-103610000D03*
%TO.P,SW39,2,2*%
%TO.N,Net-(D39-A)*%
X189651000Y-106150000D03*
%TD*%
%TO.P,SW83,1,1*%
%TO.N,COL8*%
X319826000Y-160760000D03*
%TO.P,SW83,2,2*%
%TO.N,Net-(D83-A)*%
X313476000Y-163300000D03*
%TD*%
%TO.P,SW38,1,1*%
%TO.N,COL6*%
X176951000Y-103610000D03*
%TO.P,SW38,2,2*%
%TO.N,Net-(D38-A)*%
X170601000Y-106150000D03*
%TD*%
D10*
%TO.P,D59,1,K*%
%TO.N,ROW3*%
X310419750Y-137160000D03*
D11*
%TO.P,D59,2,A*%
%TO.N,Net-(D59-A)*%
X302799750Y-137160000D03*
%TD*%
D10*
%TO.P,D42,1,K*%
%TO.N,ROW2*%
X255651000Y-118110000D03*
D11*
%TO.P,D42,2,A*%
%TO.N,Net-(D42-A)*%
X248031000Y-118110000D03*
%TD*%
D12*
%TO.P,SW80,1,1*%
%TO.N,COL5*%
X262676000Y-160760000D03*
%TO.P,SW80,2,2*%
%TO.N,Net-(D80-A)*%
X256326000Y-163300000D03*
%TD*%
D10*
%TO.P,D13,1,K*%
%TO.N,ROW0*%
X284226000Y-80010000D03*
D11*
%TO.P,D13,2,A*%
%TO.N,Net-(D13-A)*%
X276606000Y-80010000D03*
%TD*%
D12*
%TO.P,SW48,1,1*%
%TO.N,COL1*%
X86463500Y-122660000D03*
%TO.P,SW48,2,2*%
%TO.N,Net-(D48-A)*%
X80113500Y-125200000D03*
%TD*%
D10*
%TO.P,D83,1,K*%
%TO.N,ROW5*%
X322326000Y-175260000D03*
D11*
%TO.P,D83,2,A*%
%TO.N,Net-(D83-A)*%
X314706000Y-175260000D03*
%TD*%
D10*
%TO.P,D55,1,K*%
%TO.N,ROW3*%
X222313500Y-137160000D03*
D11*
%TO.P,D55,2,A*%
%TO.N,Net-(D55-A)*%
X214693500Y-137160000D03*
%TD*%
D12*
%TO.P,SW79,1,1*%
%TO.N,COL4*%
X243626000Y-160760000D03*
%TO.P,SW79,2,2*%
%TO.N,Net-(D79-A)*%
X237276000Y-163300000D03*
%TD*%
%TO.P,SW35,1,1*%
%TO.N,COL3*%
X119801000Y-103610000D03*
%TO.P,SW35,2,2*%
%TO.N,Net-(D35-A)*%
X113451000Y-106150000D03*
%TD*%
%TO.P,SW23,1,1*%
%TO.N,COL6*%
X167426000Y-84560000D03*
%TO.P,SW23,2,2*%
%TO.N,Net-(D23-A)*%
X161076000Y-87100000D03*
%TD*%
D10*
%TO.P,D41,1,K*%
%TO.N,ROW2*%
X236601000Y-118110000D03*
D11*
%TO.P,D41,2,A*%
%TO.N,Net-(D41-A)*%
X228981000Y-118110000D03*
%TD*%
D10*
%TO.P,D27,1,K*%
%TO.N,ROW1*%
X246126000Y-99060000D03*
D11*
%TO.P,D27,2,A*%
%TO.N,Net-(D27-A)*%
X238506000Y-99060000D03*
%TD*%
D12*
%TO.P,SW43,1,1*%
%TO.N,COL11*%
X272201000Y-103610000D03*
%TO.P,SW43,2,2*%
%TO.N,Net-(D43-A)*%
X265851000Y-106150000D03*
%TD*%
%TO.P,SW8,1,1*%
%TO.N,COL7*%
X186476000Y-65510000D03*
%TO.P,SW8,2,2*%
%TO.N,Net-(D8-A)*%
X180126000Y-68050000D03*
%TD*%
%TO.P,SW69,1,1*%
%TO.N,COL8*%
X229338500Y-141710000D03*
%TO.P,SW69,2,2*%
%TO.N,Net-(D69-A)*%
X222988500Y-144250000D03*
%TD*%
%TO.P,SW21,1,1*%
%TO.N,COL4*%
X129326000Y-84560000D03*
%TO.P,SW21,2,2*%
%TO.N,Net-(D21-A)*%
X122976000Y-87100000D03*
%TD*%
D10*
%TO.P,D46,1,K*%
%TO.N,ROW2*%
X341376000Y-118110000D03*
D11*
%TO.P,D46,2,A*%
%TO.N,Net-(D46-A)*%
X333756000Y-118110000D03*
%TD*%
D10*
%TO.P,D79,1,K*%
%TO.N,ROW5*%
X246126000Y-175260000D03*
D11*
%TO.P,D79,2,A*%
%TO.N,Net-(D79-A)*%
X238506000Y-175260000D03*
%TD*%
D10*
%TO.P,D72,1,K*%
%TO.N,ROW4*%
X296132250Y-156210000D03*
D11*
%TO.P,D72,2,A*%
%TO.N,Net-(D72-A)*%
X288512250Y-156210000D03*
%TD*%
D10*
%TO.P,D71,1,K*%
%TO.N,ROW4*%
X269938500Y-156210000D03*
D11*
%TO.P,D71,2,A*%
%TO.N,Net-(D71-A)*%
X262318500Y-156210000D03*
%TD*%
D12*
%TO.P,SW5,1,1*%
%TO.N,COL4*%
X129326000Y-65510000D03*
%TO.P,SW5,2,2*%
%TO.N,Net-(D5-A)*%
X122976000Y-68050000D03*
%TD*%
%TO.P,SW30,1,1*%
%TO.N,COL13*%
X310301000Y-84560000D03*
%TO.P,SW30,2,2*%
%TO.N,Net-(D30-A)*%
X303951000Y-87100000D03*
%TD*%
D10*
%TO.P,D35,1,K*%
%TO.N,ROW2*%
X122301000Y-118110000D03*
D11*
%TO.P,D35,2,A*%
%TO.N,Net-(D35-A)*%
X114681000Y-118110000D03*
%TD*%
D10*
%TO.P,D6,1,K*%
%TO.N,ROW0*%
X150876000Y-80010000D03*
D11*
%TO.P,D6,2,A*%
%TO.N,Net-(D6-A)*%
X143256000Y-80010000D03*
%TD*%
D12*
%TO.P,SW72,1,1*%
%TO.N,COL11*%
X293632250Y-141710000D03*
%TO.P,SW72,2,2*%
%TO.N,Net-(D72-A)*%
X287282250Y-144250000D03*
%TD*%
D10*
%TO.P,D78,1,K*%
%TO.N,ROW5*%
X177069750Y-175260000D03*
D11*
%TO.P,D78,2,A*%
%TO.N,Net-(D78-A)*%
X169449750Y-175260000D03*
%TD*%
D10*
%TO.P,D22,1,K*%
%TO.N,ROW1*%
X150876000Y-99060000D03*
D11*
%TO.P,D22,2,A*%
%TO.N,Net-(D22-A)*%
X143256000Y-99060000D03*
%TD*%
D10*
%TO.P,D45,1,K*%
%TO.N,ROW2*%
X317563500Y-118110000D03*
D11*
%TO.P,D45,2,A*%
%TO.N,Net-(D45-A)*%
X309943500Y-118110000D03*
%TD*%
D10*
%TO.P,D67,1,K*%
%TO.N,ROW4*%
X193738500Y-156210000D03*
D11*
%TO.P,D67,2,A*%
%TO.N,Net-(D67-A)*%
X186118500Y-156210000D03*
%TD*%
D10*
%TO.P,D8,1,K*%
%TO.N,ROW0*%
X188976000Y-80010000D03*
D11*
%TO.P,D8,2,A*%
%TO.N,Net-(D8-A)*%
X181356000Y-80010000D03*
%TD*%
D12*
%TO.P,SW75,1,1*%
%TO.N,COL0*%
X55507250Y-160760000D03*
%TO.P,SW75,2,2*%
%TO.N,Net-(D75-A)*%
X49157250Y-163300000D03*
%TD*%
D10*
%TO.P,D68,1,K*%
%TO.N,ROW4*%
X212788500Y-156210000D03*
D11*
%TO.P,D68,2,A*%
%TO.N,Net-(D68-A)*%
X205168500Y-156210000D03*
%TD*%
D10*
%TO.P,D54,1,K*%
%TO.N,ROW3*%
X203263500Y-137160000D03*
D11*
%TO.P,D54,2,A*%
%TO.N,Net-(D54-A)*%
X195643500Y-137160000D03*
%TD*%
D12*
%TO.P,SW2,1,1*%
%TO.N,COL1*%
X72176000Y-65510000D03*
%TO.P,SW2,2,2*%
%TO.N,Net-(D2-A)*%
X65826000Y-68050000D03*
%TD*%
D10*
%TO.P,D33,1,K*%
%TO.N,ROW2*%
X84201000Y-118110000D03*
D11*
%TO.P,D33,2,A*%
%TO.N,Net-(D33-A)*%
X76581000Y-118110000D03*
%TD*%
D10*
%TO.P,D31,1,K*%
%TO.N,ROW1*%
X341376000Y-99060000D03*
D11*
%TO.P,D31,2,A*%
%TO.N,Net-(D31-A)*%
X333756000Y-99060000D03*
%TD*%
D12*
%TO.P,SW10,1,1*%
%TO.N,COL9*%
X224576000Y-65510000D03*
%TO.P,SW10,2,2*%
%TO.N,Net-(D10-A)*%
X218226000Y-68050000D03*
%TD*%
D10*
%TO.P,D20,1,K*%
%TO.N,ROW1*%
X112776000Y-99060000D03*
D11*
%TO.P,D20,2,A*%
%TO.N,Net-(D20-A)*%
X105156000Y-99060000D03*
%TD*%
D12*
%TO.P,SW60,1,1*%
%TO.N,COL13*%
X338876000Y-122660000D03*
%TO.P,SW60,2,2*%
%TO.N,Net-(D60-A)*%
X332526000Y-125200000D03*
%TD*%
D10*
%TO.P,D75,1,K*%
%TO.N,ROW5*%
X58007250Y-175260000D03*
D11*
%TO.P,D75,2,A*%
%TO.N,Net-(D75-A)*%
X50387250Y-175260000D03*
%TD*%
D12*
%TO.P,SW11,1,1*%
%TO.N,COL10*%
X243626000Y-65510000D03*
%TO.P,SW11,2,2*%
%TO.N,Net-(D11-A)*%
X237276000Y-68050000D03*
%TD*%
D10*
%TO.P,D19,1,K*%
%TO.N,ROW1*%
X93726000Y-99060000D03*
D11*
%TO.P,D19,2,A*%
%TO.N,Net-(D19-A)*%
X86106000Y-99060000D03*
%TD*%
D12*
%TO.P,SW28,1,1*%
%TO.N,COL11*%
X262676000Y-84560000D03*
%TO.P,SW28,2,2*%
%TO.N,Net-(D28-A)*%
X256326000Y-87100000D03*
%TD*%
D10*
%TO.P,D15,1,K*%
%TO.N,ROW0*%
X322326000Y-80010000D03*
D11*
%TO.P,D15,2,A*%
%TO.N,Net-(D15-A)*%
X314706000Y-80010000D03*
%TD*%
D12*
%TO.P,SW67,1,1*%
%TO.N,COL6*%
X191238500Y-141710000D03*
%TO.P,SW67,2,2*%
%TO.N,Net-(D67-A)*%
X184888500Y-144250000D03*
%TD*%
%TO.P,SW47,1,1*%
%TO.N,COL0*%
X60269750Y-122660000D03*
%TO.P,SW47,2,2*%
%TO.N,Net-(D47-A)*%
X53919750Y-125200000D03*
%TD*%
%TO.P,SW25,1,1*%
%TO.N,COL8*%
X205526000Y-84560000D03*
%TO.P,SW25,2,2*%
%TO.N,Net-(D25-A)*%
X199176000Y-87100000D03*
%TD*%
%TO.P,SW74,1,1*%
%TO.N,COL13*%
X338876000Y-141710000D03*
%TO.P,SW74,2,2*%
%TO.N,Net-(D74-A)*%
X332526000Y-144250000D03*
%TD*%
%TO.P,SW82,1,1*%
%TO.N,COL7*%
X300776000Y-160760000D03*
%TO.P,SW82,2,2*%
%TO.N,Net-(D82-A)*%
X294426000Y-163300000D03*
%TD*%
%TO.P,SW63,1,1*%
%TO.N,COL2*%
X115038500Y-141710000D03*
%TO.P,SW63,2,2*%
%TO.N,Net-(D63-A)*%
X108688500Y-144250000D03*
%TD*%
%TO.P,SW50,1,1*%
%TO.N,COL3*%
X124563500Y-122660000D03*
%TO.P,SW50,2,2*%
%TO.N,Net-(D50-A)*%
X118213500Y-125200000D03*
%TD*%
D10*
%TO.P,D47,1,K*%
%TO.N,ROW3*%
X62769750Y-137160000D03*
D11*
%TO.P,D47,2,A*%
%TO.N,Net-(D47-A)*%
X55149750Y-137160000D03*
%TD*%
D10*
%TO.P,D58,1,K*%
%TO.N,ROW3*%
X279463500Y-137160000D03*
D11*
%TO.P,D58,2,A*%
%TO.N,Net-(D58-A)*%
X271843500Y-137160000D03*
%TD*%
D10*
%TO.P,D63,1,K*%
%TO.N,ROW4*%
X117538500Y-156210000D03*
D11*
%TO.P,D63,2,A*%
%TO.N,Net-(D63-A)*%
X109918500Y-156210000D03*
%TD*%
D12*
%TO.P,SW1,1,1*%
%TO.N,COL0*%
X53126000Y-65510000D03*
%TO.P,SW1,2,2*%
%TO.N,Net-(D1-A)*%
X46776000Y-68050000D03*
%TD*%
D10*
%TO.P,D49,1,K*%
%TO.N,ROW3*%
X108013500Y-137160000D03*
D11*
%TO.P,D49,2,A*%
%TO.N,Net-(D49-A)*%
X100393500Y-137160000D03*
%TD*%
D12*
%TO.P,SW17,1,1*%
%TO.N,COL0*%
X53126000Y-84560000D03*
%TO.P,SW17,2,2*%
%TO.N,Net-(D17-A)*%
X46776000Y-87100000D03*
%TD*%
%TO.P,SW56,1,1*%
%TO.N,COL9*%
X238863500Y-122660000D03*
%TO.P,SW56,2,2*%
%TO.N,Net-(D56-A)*%
X232513500Y-125200000D03*
%TD*%
D10*
%TO.P,D57,1,K*%
%TO.N,ROW3*%
X260413500Y-137160000D03*
D11*
%TO.P,D57,2,A*%
%TO.N,Net-(D57-A)*%
X252793500Y-137160000D03*
%TD*%
D10*
%TO.P,D80,1,K*%
%TO.N,ROW5*%
X265176000Y-175260000D03*
D11*
%TO.P,D80,2,A*%
%TO.N,Net-(D80-A)*%
X257556000Y-175260000D03*
%TD*%
D10*
%TO.P,D14,1,K*%
%TO.N,ROW0*%
X303276000Y-80010000D03*
D11*
%TO.P,D14,2,A*%
%TO.N,Net-(D14-A)*%
X295656000Y-80010000D03*
%TD*%
D12*
%TO.P,SW13,1,1*%
%TO.N,COL12*%
X281726000Y-65510000D03*
%TO.P,SW13,2,2*%
%TO.N,Net-(D13-A)*%
X275376000Y-68050000D03*
%TD*%
%TO.P,SW4,1,1*%
%TO.N,COL3*%
X110276000Y-65510000D03*
%TO.P,SW4,2,2*%
%TO.N,Net-(D4-A)*%
X103926000Y-68050000D03*
%TD*%
%TO.P,SW18,1,1*%
%TO.N,COL1*%
X72176000Y-84560000D03*
%TO.P,SW18,2,2*%
%TO.N,Net-(D18-A)*%
X65826000Y-87100000D03*
%TD*%
D10*
%TO.P,D52,1,K*%
%TO.N,ROW3*%
X165163500Y-137160000D03*
D11*
%TO.P,D52,2,A*%
%TO.N,Net-(D52-A)*%
X157543500Y-137160000D03*
%TD*%
D12*
%TO.P,SW7,1,1*%
%TO.N,COL6*%
X167426000Y-65510000D03*
%TO.P,SW7,2,2*%
%TO.N,Net-(D7-A)*%
X161076000Y-68050000D03*
%TD*%
D10*
%TO.P,D65,1,K*%
%TO.N,ROW4*%
X155638500Y-156210000D03*
D11*
%TO.P,D65,2,A*%
%TO.N,Net-(D65-A)*%
X148018500Y-156210000D03*
%TD*%
D10*
%TO.P,D77,1,K*%
%TO.N,ROW5*%
X105632250Y-175260000D03*
D11*
%TO.P,D77,2,A*%
%TO.N,Net-(D77-A)*%
X98012250Y-175260000D03*
%TD*%
D10*
%TO.P,D50,1,K*%
%TO.N,ROW3*%
X127063500Y-137160000D03*
D11*
%TO.P,D50,2,A*%
%TO.N,Net-(D50-A)*%
X119443500Y-137160000D03*
%TD*%
D12*
%TO.P,SW22,1,1*%
%TO.N,COL5*%
X148376000Y-84560000D03*
%TO.P,SW22,2,2*%
%TO.N,Net-(D22-A)*%
X142026000Y-87100000D03*
%TD*%
%TO.P,SW73,1,1*%
%TO.N,COL12*%
X319826000Y-141710000D03*
%TO.P,SW73,2,2*%
%TO.N,Net-(D73-A)*%
X313476000Y-144250000D03*
%TD*%
%TO.P,SW61,1,1*%
%TO.N,COL0*%
X65032250Y-141710000D03*
%TO.P,SW61,2,2*%
%TO.N,Net-(D61-A)*%
X58682250Y-144250000D03*
%TD*%
D10*
%TO.P,D32,1,K*%
%TO.N,ROW2*%
X60388500Y-118110000D03*
D11*
%TO.P,D32,2,A*%
%TO.N,Net-(D32-A)*%
X52768500Y-118110000D03*
%TD*%
D10*
%TO.P,D7,1,K*%
%TO.N,ROW0*%
X169926000Y-80010000D03*
D11*
%TO.P,D7,2,A*%
%TO.N,Net-(D7-A)*%
X162306000Y-80010000D03*
%TD*%
D12*
%TO.P,SW27,1,1*%
%TO.N,COL10*%
X243626000Y-84560000D03*
%TO.P,SW27,2,2*%
%TO.N,Net-(D27-A)*%
X237276000Y-87100000D03*
%TD*%
D10*
%TO.P,D66,1,K*%
%TO.N,ROW4*%
X174688500Y-156210000D03*
D11*
%TO.P,D66,2,A*%
%TO.N,Net-(D66-A)*%
X167068500Y-156210000D03*
%TD*%
D10*
%TO.P,D81,1,K*%
%TO.N,ROW5*%
X284226000Y-175260000D03*
D11*
%TO.P,D81,2,A*%
%TO.N,Net-(D81-A)*%
X276606000Y-175260000D03*
%TD*%
D10*
%TO.P,D56,1,K*%
%TO.N,ROW3*%
X241363500Y-137160000D03*
D11*
%TO.P,D56,2,A*%
%TO.N,Net-(D56-A)*%
X233743500Y-137160000D03*
%TD*%
D12*
%TO.P,SW65,1,1*%
%TO.N,COL4*%
X153138500Y-141710000D03*
%TO.P,SW65,2,2*%
%TO.N,Net-(D65-A)*%
X146788500Y-144250000D03*
%TD*%
D10*
%TO.P,D2,1,K*%
%TO.N,ROW0*%
X74676000Y-80010000D03*
D11*
%TO.P,D2,2,A*%
%TO.N,Net-(D2-A)*%
X67056000Y-80010000D03*
%TD*%
D10*
%TO.P,D64,1,K*%
%TO.N,ROW4*%
X136588500Y-156210000D03*
D11*
%TO.P,D64,2,A*%
%TO.N,Net-(D64-A)*%
X128968500Y-156210000D03*
%TD*%
D10*
%TO.P,D25,1,K*%
%TO.N,ROW1*%
X208026000Y-99060000D03*
D11*
%TO.P,D25,2,A*%
%TO.N,Net-(D25-A)*%
X200406000Y-99060000D03*
%TD*%
D10*
%TO.P,D3,1,K*%
%TO.N,ROW0*%
X93726000Y-80010000D03*
D11*
%TO.P,D3,2,A*%
%TO.N,Net-(D3-A)*%
X86106000Y-80010000D03*
%TD*%
D12*
%TO.P,SW76,1,1*%
%TO.N,COL1*%
X79319750Y-160760000D03*
%TO.P,SW76,2,2*%
%TO.N,Net-(D76-A)*%
X72969750Y-163300000D03*
%TD*%
D10*
%TO.P,D17,1,K*%
%TO.N,ROW1*%
X55626000Y-99060000D03*
D11*
%TO.P,D17,2,A*%
%TO.N,Net-(D17-A)*%
X48006000Y-99060000D03*
%TD*%
D12*
%TO.P,SW41,1,1*%
%TO.N,COL9*%
X234101000Y-103610000D03*
%TO.P,SW41,2,2*%
%TO.N,Net-(D41-A)*%
X227751000Y-106150000D03*
%TD*%
%TO.P,SW57,1,1*%
%TO.N,COL10*%
X257913500Y-122660000D03*
%TO.P,SW57,2,2*%
%TO.N,Net-(D57-A)*%
X251563500Y-125200000D03*
%TD*%
D10*
%TO.P,D9,1,K*%
%TO.N,ROW0*%
X208026000Y-80010000D03*
D11*
%TO.P,D9,2,A*%
%TO.N,Net-(D9-A)*%
X200406000Y-80010000D03*
%TD*%
D12*
%TO.P,SW64,1,1*%
%TO.N,COL3*%
X134088500Y-141710000D03*
%TO.P,SW64,2,2*%
%TO.N,Net-(D64-A)*%
X127738500Y-144250000D03*
%TD*%
%TO.P,SW19,1,1*%
%TO.N,COL2*%
X91226000Y-84560000D03*
%TO.P,SW19,2,2*%
%TO.N,Net-(D19-A)*%
X84876000Y-87100000D03*
%TD*%
D10*
%TO.P,D4,1,K*%
%TO.N,ROW0*%
X112776000Y-80010000D03*
D11*
%TO.P,D4,2,A*%
%TO.N,Net-(D4-A)*%
X105156000Y-80010000D03*
%TD*%
D10*
%TO.P,D70,1,K*%
%TO.N,ROW4*%
X250888500Y-156210000D03*
D11*
%TO.P,D70,2,A*%
%TO.N,Net-(D70-A)*%
X243268500Y-156210000D03*
%TD*%
D10*
%TO.P,D44,1,K*%
%TO.N,ROW2*%
X293751000Y-118110000D03*
D11*
%TO.P,D44,2,A*%
%TO.N,Net-(D44-A)*%
X286131000Y-118110000D03*
%TD*%
D10*
%TO.P,D18,1,K*%
%TO.N,ROW1*%
X74676000Y-99060000D03*
D11*
%TO.P,D18,2,A*%
%TO.N,Net-(D18-A)*%
X67056000Y-99060000D03*
%TD*%
D10*
%TO.P,D37,1,K*%
%TO.N,ROW2*%
X160401000Y-118110000D03*
D11*
%TO.P,D37,2,A*%
%TO.N,Net-(D37-A)*%
X152781000Y-118110000D03*
%TD*%
D12*
%TO.P,SW55,1,1*%
%TO.N,COL8*%
X219813500Y-122660000D03*
%TO.P,SW55,2,2*%
%TO.N,Net-(D55-A)*%
X213463500Y-125200000D03*
%TD*%
D10*
%TO.P,D51,1,K*%
%TO.N,ROW3*%
X146113500Y-137160000D03*
D11*
%TO.P,D51,2,A*%
%TO.N,Net-(D51-A)*%
X138493500Y-137160000D03*
%TD*%
D12*
%TO.P,SW49,1,1*%
%TO.N,COL2*%
X105513500Y-122660000D03*
%TO.P,SW49,2,2*%
%TO.N,Net-(D49-A)*%
X99163500Y-125200000D03*
%TD*%
%TO.P,SW59,1,1*%
%TO.N,COL12*%
X307919750Y-122660000D03*
%TO.P,SW59,2,2*%
%TO.N,Net-(D59-A)*%
X301569750Y-125200000D03*
%TD*%
%TO.P,SW46,1,1*%
%TO.N,COL14*%
X338876000Y-103610000D03*
%TO.P,SW46,2,2*%
%TO.N,Net-(D46-A)*%
X332526000Y-106150000D03*
%TD*%
%TO.P,SW70,1,1*%
%TO.N,COL9*%
X248388500Y-141710000D03*
%TO.P,SW70,2,2*%
%TO.N,Net-(D70-A)*%
X242038500Y-144250000D03*
%TD*%
%TO.P,SW3,1,1*%
%TO.N,COL2*%
X91226000Y-65510000D03*
%TO.P,SW3,2,2*%
%TO.N,Net-(D3-A)*%
X84876000Y-68050000D03*
%TD*%
%TO.P,SW31,1,1*%
%TO.N,COL14*%
X338876000Y-84560000D03*
%TO.P,SW31,2,2*%
%TO.N,Net-(D31-A)*%
X332526000Y-87100000D03*
%TD*%
D10*
%TO.P,D61,1,K*%
%TO.N,ROW4*%
X67532250Y-156210000D03*
D11*
%TO.P,D61,2,A*%
%TO.N,Net-(D61-A)*%
X59912250Y-156210000D03*
%TD*%
D10*
%TO.P,D26,1,K*%
%TO.N,ROW1*%
X227076000Y-99060000D03*
D11*
%TO.P,D26,2,A*%
%TO.N,Net-(D26-A)*%
X219456000Y-99060000D03*
%TD*%
D12*
%TO.P,SW81,1,1*%
%TO.N,COL6*%
X281726000Y-160760000D03*
%TO.P,SW81,2,2*%
%TO.N,Net-(D81-A)*%
X275376000Y-163300000D03*
%TD*%
%TO.P,SW40,1,1*%
%TO.N,COL8*%
X215051000Y-103610000D03*
%TO.P,SW40,2,2*%
%TO.N,Net-(D40-A)*%
X208701000Y-106150000D03*
%TD*%
%TO.P,SW42,1,1*%
%TO.N,COL10*%
X253151000Y-103610000D03*
%TO.P,SW42,2,2*%
%TO.N,Net-(D42-A)*%
X246801000Y-106150000D03*
%TD*%
D13*
%TO.N,Net-(D1-A)*%
X46776000Y-78780000D02*
X48006000Y-80010000D01*
X46776000Y-68050000D02*
X46776000Y-78780000D01*
%TO.N,Net-(D2-A)*%
X65826000Y-78780000D02*
X67056000Y-80010000D01*
X65826000Y-68050000D02*
X65826000Y-78780000D01*
%TO.N,Net-(D3-A)*%
X84876000Y-68050000D02*
X84876000Y-78780000D01*
X84876000Y-78780000D02*
X86106000Y-80010000D01*
%TO.N,Net-(D4-A)*%
X103926000Y-68050000D02*
X103926000Y-78780000D01*
X103926000Y-78780000D02*
X105156000Y-80010000D01*
%TO.N,Net-(D5-A)*%
X122976000Y-68050000D02*
X122976000Y-78780000D01*
X122976000Y-78780000D02*
X124206000Y-80010000D01*
%TO.N,Net-(D6-A)*%
X142026000Y-68050000D02*
X142026000Y-78780000D01*
X142026000Y-78780000D02*
X143256000Y-80010000D01*
%TO.N,Net-(D7-A)*%
X161076000Y-68050000D02*
X161076000Y-78780000D01*
X161076000Y-78780000D02*
X162306000Y-80010000D01*
%TO.N,Net-(D8-A)*%
X180126000Y-68050000D02*
X180126000Y-78780000D01*
X180126000Y-78780000D02*
X181356000Y-80010000D01*
%TO.N,Net-(D9-A)*%
X199176000Y-78780000D02*
X200406000Y-80010000D01*
X199176000Y-68050000D02*
X199176000Y-78780000D01*
%TO.N,Net-(D10-A)*%
X218226000Y-68050000D02*
X218226000Y-78780000D01*
X218226000Y-78780000D02*
X219456000Y-80010000D01*
%TO.N,Net-(D11-A)*%
X237276000Y-68050000D02*
X237276000Y-78780000D01*
X237276000Y-78780000D02*
X238506000Y-80010000D01*
%TO.N,Net-(D12-A)*%
X256326000Y-68050000D02*
X256326000Y-78780000D01*
X256326000Y-78780000D02*
X257556000Y-80010000D01*
%TO.N,Net-(D13-A)*%
X275376000Y-68050000D02*
X275376000Y-78780000D01*
X275376000Y-78780000D02*
X276606000Y-80010000D01*
%TO.N,Net-(D14-A)*%
X294426000Y-68050000D02*
X294426000Y-78780000D01*
X294426000Y-78780000D02*
X295656000Y-80010000D01*
%TO.N,Net-(D15-A)*%
X313476000Y-68050000D02*
X313476000Y-78780000D01*
X313476000Y-78780000D02*
X314706000Y-80010000D01*
%TO.N,Net-(D16-A)*%
X332526000Y-68050000D02*
X332526000Y-78780000D01*
X332526000Y-78780000D02*
X333756000Y-80010000D01*
%TO.N,Net-(D17-A)*%
X46776000Y-87100000D02*
X46776000Y-97830000D01*
X46776000Y-97830000D02*
X48006000Y-99060000D01*
%TO.N,Net-(D18-A)*%
X65826000Y-87100000D02*
X65826000Y-97830000D01*
X65826000Y-97830000D02*
X67056000Y-99060000D01*
%TO.N,Net-(D19-A)*%
X84876000Y-87100000D02*
X84876000Y-97830000D01*
X84876000Y-97830000D02*
X86106000Y-99060000D01*
%TO.N,Net-(D20-A)*%
X103926000Y-87100000D02*
X103926000Y-97830000D01*
X103926000Y-97830000D02*
X105156000Y-99060000D01*
%TO.N,Net-(D21-A)*%
X122976000Y-87100000D02*
X122976000Y-97830000D01*
X122976000Y-97830000D02*
X124206000Y-99060000D01*
%TO.N,Net-(D22-A)*%
X142026000Y-87100000D02*
X142026000Y-97830000D01*
X142026000Y-97830000D02*
X143256000Y-99060000D01*
%TO.N,Net-(D23-A)*%
X161076000Y-87100000D02*
X161076000Y-97830000D01*
X161076000Y-97830000D02*
X162306000Y-99060000D01*
%TO.N,Net-(D24-A)*%
X180126000Y-97830000D02*
X181356000Y-99060000D01*
X180126000Y-87100000D02*
X180126000Y-97830000D01*
%TO.N,Net-(D25-A)*%
X199176000Y-87100000D02*
X199176000Y-97830000D01*
X199176000Y-97830000D02*
X200406000Y-99060000D01*
%TO.N,Net-(D26-A)*%
X218226000Y-87100000D02*
X218226000Y-97830000D01*
X218226000Y-97830000D02*
X219456000Y-99060000D01*
%TO.N,Net-(D27-A)*%
X237276000Y-97830000D02*
X238506000Y-99060000D01*
X237276000Y-87100000D02*
X237276000Y-97830000D01*
%TO.N,Net-(D28-A)*%
X256326000Y-87100000D02*
X256326000Y-97830000D01*
X256326000Y-97830000D02*
X257556000Y-99060000D01*
%TO.N,Net-(D29-A)*%
X275376000Y-97830000D02*
X276606000Y-99060000D01*
X275376000Y-87100000D02*
X275376000Y-97830000D01*
%TO.N,Net-(D30-A)*%
X303951000Y-87100000D02*
X303951000Y-97830000D01*
X303951000Y-97830000D02*
X305181000Y-99060000D01*
%TO.N,Net-(D31-A)*%
X332526000Y-97830000D02*
X333756000Y-99060000D01*
X332526000Y-87100000D02*
X332526000Y-97830000D01*
%TO.N,Net-(D32-A)*%
X51538500Y-106150000D02*
X51538500Y-116880000D01*
X51538500Y-116880000D02*
X52768500Y-118110000D01*
%TO.N,Net-(D33-A)*%
X75351000Y-116880000D02*
X76581000Y-118110000D01*
X75351000Y-106150000D02*
X75351000Y-116880000D01*
%TO.N,Net-(D34-A)*%
X94401000Y-116880000D02*
X95631000Y-118110000D01*
X94401000Y-106150000D02*
X94401000Y-116880000D01*
%TO.N,Net-(D35-A)*%
X113451000Y-106150000D02*
X113451000Y-116880000D01*
X113451000Y-116880000D02*
X114681000Y-118110000D01*
%TO.N,Net-(D36-A)*%
X132501000Y-106150000D02*
X132501000Y-116880000D01*
X132501000Y-116880000D02*
X133731000Y-118110000D01*
%TO.N,Net-(D37-A)*%
X151551000Y-116880000D02*
X152781000Y-118110000D01*
X151551000Y-106150000D02*
X151551000Y-116880000D01*
%TO.N,Net-(D38-A)*%
X170601000Y-106150000D02*
X170601000Y-116880000D01*
X170601000Y-116880000D02*
X171831000Y-118110000D01*
%TO.N,Net-(D39-A)*%
X189651000Y-116880000D02*
X190881000Y-118110000D01*
X189651000Y-106150000D02*
X189651000Y-116880000D01*
%TO.N,Net-(D40-A)*%
X208701000Y-116880000D02*
X209931000Y-118110000D01*
X208701000Y-106150000D02*
X208701000Y-116880000D01*
%TO.N,Net-(D41-A)*%
X227751000Y-106150000D02*
X227751000Y-116880000D01*
X227751000Y-116880000D02*
X228981000Y-118110000D01*
%TO.N,Net-(D42-A)*%
X246801000Y-116880000D02*
X248031000Y-118110000D01*
X246801000Y-106150000D02*
X246801000Y-116880000D01*
%TO.N,Net-(D43-A)*%
X265851000Y-116880000D02*
X267081000Y-118110000D01*
X265851000Y-106150000D02*
X265851000Y-116880000D01*
%TO.N,Net-(D44-A)*%
X284901000Y-106150000D02*
X284901000Y-116880000D01*
X284901000Y-116880000D02*
X286131000Y-118110000D01*
%TO.N,Net-(D45-A)*%
X308713500Y-106150000D02*
X308713500Y-116880000D01*
X308713500Y-116880000D02*
X309943500Y-118110000D01*
%TO.N,Net-(D46-A)*%
X332526000Y-106150000D02*
X332526000Y-116880000D01*
X332526000Y-116880000D02*
X333756000Y-118110000D01*
%TO.N,Net-(D47-A)*%
X53919750Y-135930000D02*
X55149750Y-137160000D01*
X53919750Y-125200000D02*
X53919750Y-135930000D01*
%TO.N,Net-(D48-A)*%
X80113500Y-135930000D02*
X81343500Y-137160000D01*
X80113500Y-125200000D02*
X80113500Y-135930000D01*
%TO.N,Net-(D49-A)*%
X99163500Y-125200000D02*
X99163500Y-135930000D01*
X99163500Y-135930000D02*
X100393500Y-137160000D01*
%TO.N,Net-(D50-A)*%
X118213500Y-125200000D02*
X118213500Y-135930000D01*
X118213500Y-135930000D02*
X119443500Y-137160000D01*
%TO.N,Net-(D51-A)*%
X137263500Y-135930000D02*
X138493500Y-137160000D01*
X137263500Y-125200000D02*
X137263500Y-135930000D01*
%TO.N,Net-(D52-A)*%
X156313500Y-135930000D02*
X157543500Y-137160000D01*
X156313500Y-125200000D02*
X156313500Y-135930000D01*
%TO.N,Net-(D53-A)*%
X175363500Y-135930000D02*
X176593500Y-137160000D01*
X175363500Y-125200000D02*
X175363500Y-135930000D01*
%TO.N,Net-(D54-A)*%
X194413500Y-125200000D02*
X194413500Y-135930000D01*
X194413500Y-135930000D02*
X195643500Y-137160000D01*
%TO.N,Net-(D55-A)*%
X213463500Y-125200000D02*
X213463500Y-135930000D01*
X213463500Y-135930000D02*
X214693500Y-137160000D01*
%TO.N,Net-(D56-A)*%
X232513500Y-135930000D02*
X233743500Y-137160000D01*
X232513500Y-125200000D02*
X232513500Y-135930000D01*
%TO.N,Net-(D57-A)*%
X251563500Y-135930000D02*
X252793500Y-137160000D01*
X251563500Y-125200000D02*
X251563500Y-135930000D01*
%TO.N,Net-(D58-A)*%
X270613500Y-125200000D02*
X270613500Y-135930000D01*
X270613500Y-135930000D02*
X271843500Y-137160000D01*
%TO.N,Net-(D59-A)*%
X301569750Y-135930000D02*
X302799750Y-137160000D01*
X301569750Y-125200000D02*
X301569750Y-135930000D01*
%TO.N,Net-(D60-A)*%
X332526000Y-135930000D02*
X333756000Y-137160000D01*
X332526000Y-125200000D02*
X332526000Y-135930000D01*
%TO.N,Net-(D61-A)*%
X58682250Y-154980000D02*
X59912250Y-156210000D01*
X58682250Y-144250000D02*
X58682250Y-154980000D01*
%TO.N,Net-(D62-A)*%
X89638500Y-144250000D02*
X89638500Y-154980000D01*
X89638500Y-154980000D02*
X90868500Y-156210000D01*
%TO.N,Net-(D63-A)*%
X108688500Y-144250000D02*
X108688500Y-154980000D01*
X108688500Y-154980000D02*
X109918500Y-156210000D01*
%TO.N,Net-(D64-A)*%
X127738500Y-154980000D02*
X128968500Y-156210000D01*
X127738500Y-144250000D02*
X127738500Y-154980000D01*
%TO.N,Net-(D65-A)*%
X146788500Y-154980000D02*
X148018500Y-156210000D01*
X146788500Y-144250000D02*
X146788500Y-154980000D01*
%TO.N,Net-(D66-A)*%
X165838500Y-154980000D02*
X167068500Y-156210000D01*
X165838500Y-144250000D02*
X165838500Y-154980000D01*
%TO.N,Net-(D67-A)*%
X184888500Y-144250000D02*
X184888500Y-154980000D01*
X184888500Y-154980000D02*
X186118500Y-156210000D01*
%TO.N,Net-(D68-A)*%
X203938500Y-144250000D02*
X203938500Y-154980000D01*
X203938500Y-154980000D02*
X205168500Y-156210000D01*
%TO.N,Net-(D69-A)*%
X222988500Y-154980000D02*
X224218500Y-156210000D01*
X222988500Y-144250000D02*
X222988500Y-154980000D01*
%TO.N,Net-(D70-A)*%
X242038500Y-144250000D02*
X242038500Y-154980000D01*
X242038500Y-154980000D02*
X243268500Y-156210000D01*
%TO.N,Net-(D71-A)*%
X261088500Y-154980000D02*
X262318500Y-156210000D01*
X261088500Y-144250000D02*
X261088500Y-154980000D01*
%TO.N,Net-(D72-A)*%
X287282250Y-144250000D02*
X287282250Y-154980000D01*
X287282250Y-154980000D02*
X288512250Y-156210000D01*
%TO.N,Net-(D73-A)*%
X313476000Y-144250000D02*
X313476000Y-154980000D01*
X313476000Y-154980000D02*
X314706000Y-156210000D01*
%TO.N,Net-(D74-A)*%
X332526000Y-144250000D02*
X332526000Y-154980000D01*
X332526000Y-154980000D02*
X333756000Y-156210000D01*
%TO.N,Net-(D75-A)*%
X49157250Y-163300000D02*
X49157250Y-174030000D01*
X49157250Y-174030000D02*
X50387250Y-175260000D01*
%TO.N,Net-(D76-A)*%
X72969750Y-163300000D02*
X72969750Y-174030000D01*
X72969750Y-174030000D02*
X74199750Y-175260000D01*
%TO.N,Net-(D77-A)*%
X96782250Y-174030000D02*
X98012250Y-175260000D01*
X96782250Y-163300000D02*
X96782250Y-174030000D01*
%TO.N,Net-(D78-A)*%
X168219750Y-163300000D02*
X168219750Y-174030000D01*
X168219750Y-174030000D02*
X169449750Y-175260000D01*
%TO.N,Net-(D79-A)*%
X237276000Y-163300000D02*
X237276000Y-174030000D01*
X237276000Y-174030000D02*
X238506000Y-175260000D01*
%TO.N,Net-(D80-A)*%
X256326000Y-163300000D02*
X256326000Y-174030000D01*
X256326000Y-174030000D02*
X257556000Y-175260000D01*
%TO.N,Net-(D81-A)*%
X275376000Y-163300000D02*
X275376000Y-174030000D01*
X275376000Y-174030000D02*
X276606000Y-175260000D01*
%TO.N,Net-(D82-A)*%
X294426000Y-174030000D02*
X295656000Y-175260000D01*
X294426000Y-163300000D02*
X294426000Y-174030000D01*
%TO.N,Net-(D83-A)*%
X313476000Y-174030000D02*
X314706000Y-175260000D01*
X313476000Y-163300000D02*
X313476000Y-174030000D01*
%TO.N,Net-(D84-A)*%
X332526000Y-163300000D02*
X332526000Y-174030000D01*
X332526000Y-174030000D02*
X333756000Y-175260000D01*
%TD*%
M02*
