M48
; DRILL file {KiCad 8.0.8-8.0.8-0~ubuntu22.04.1} date 2025-03-09T08:59:42-0400
; FORMAT={-:-/ absolute / inch / decimal}
; #@! TF.CreationDate,2025-03-09T08:59:42-04:00
; #@! TF.GenerationSoftware,Kicad,Pcbnew,8.0.8-8.0.8-0~ubuntu22.04.1
; #@! TF.FileFunction,NonPlated,1,2,NPTH
FMAT,2
INCH
; #@! TA.AperFunction,NonPlated,NPTH,ComponentDrill
T1C0.0669
; #@! TA.AperFunction,NonPlated,NPTH,ComponentDrill
T2C0.1575
%
G90
G05
T1
X1.7916Y-2.7791
X1.7916Y-3.5291
X1.8853Y-6.5291
X1.9791Y-4.2791
X2.0728Y-5.0291
X2.1916Y-2.7791
X2.1916Y-3.5291
X2.2603Y-5.7791
X2.2853Y-6.5291
X2.3791Y-4.2791
X2.4728Y-5.0291
X2.5416Y-2.7791
X2.5416Y-3.5291
X2.6603Y-5.7791
X2.8228Y-6.5291
X2.9166Y-4.2791
X2.9416Y-2.7791
X2.9416Y-3.5291
X3.1041Y-5.0291
X3.2228Y-6.5291
X3.2916Y-2.7791
X3.2916Y-3.5291
X3.3166Y-4.2791
X3.4791Y-5.7791
X3.5041Y-5.0291
X3.6666Y-4.2791
X3.6916Y-2.7791
X3.6916Y-3.5291
X3.7603Y-6.5291
X3.8541Y-5.0291
X3.8791Y-5.7791
X4.0416Y-2.7791
X4.0416Y-3.5291
X4.0666Y-4.2791
X4.1603Y-6.5291
X4.2291Y-5.7791
X4.2541Y-5.0291
X4.4166Y-4.2791
X4.4416Y-2.7791
X4.4416Y-3.5291
X4.6041Y-5.0291
X4.6291Y-5.7791
X4.7916Y-2.7791
X4.7916Y-3.5291
X4.8166Y-4.2791
X4.9791Y-5.7791
X5.0041Y-5.0291
X5.1666Y-4.2791
X5.1916Y-2.7791
X5.1916Y-3.5291
X5.3541Y-5.0291
X5.3791Y-5.7791
X5.5416Y-2.7791
X5.5416Y-3.5291
X5.5666Y-4.2791
X5.7291Y-5.7791
X5.7541Y-5.0291
X5.9166Y-4.2791
X5.9416Y-2.7791
X5.9416Y-3.5291
X6.1041Y-5.0291
X6.1291Y-5.7791
X6.2916Y-2.7791
X6.2916Y-3.5291
X6.3166Y-4.2791
X6.4791Y-5.7791
X6.5041Y-5.0291
X6.5728Y-6.5291
X6.6666Y-4.2791
X6.6916Y-2.7791
X6.6916Y-3.5291
X6.8541Y-5.0291
X6.8791Y-5.7791
X6.9728Y-6.5291
X7.0416Y-2.7791
X7.0416Y-3.5291
X7.0666Y-4.2791
X7.2291Y-5.7791
X7.2541Y-5.0291
X7.4166Y-4.2791
X7.4416Y-2.7791
X7.4416Y-3.5291
X7.6041Y-5.0291
X7.6291Y-5.7791
X7.7916Y-2.7791
X7.7916Y-3.5291
X7.8166Y-4.2791
X7.9791Y-5.7791
X8.0041Y-5.0291
X8.1666Y-4.2791
X8.1916Y-2.7791
X8.1916Y-3.5291
X8.3541Y-5.0291
X8.3791Y-5.7791
X8.5416Y-2.7791
X8.5416Y-3.5291
X8.5666Y-4.2791
X8.7291Y-5.7791
X8.7541Y-5.0291
X8.9166Y-4.2791
X8.9416Y-2.7791
X8.9416Y-3.5291
X9.1041Y-5.0291
X9.1291Y-5.7791
X9.2916Y-2.7791
X9.2916Y-3.5291
X9.2916Y-6.5291
X9.3166Y-4.2791
X9.4791Y-5.7791
X9.5041Y-5.0291
X9.6666Y-4.2791
X9.6916Y-2.7791
X9.6916Y-3.5291
X9.6916Y-6.5291
X9.8541Y-5.0291
X9.8791Y-5.7791
X10.0416Y-2.7791
X10.0416Y-3.5291
X10.0416Y-6.5291
X10.0666Y-4.2791
X10.2291Y-5.7791
X10.2541Y-5.0291
X10.4166Y-4.2791
X10.4416Y-2.7791
X10.4416Y-3.5291
X10.4416Y-6.5291
X10.6041Y-5.0291
X10.6291Y-5.7791
X10.7916Y-2.7791
X10.7916Y-3.5291
X10.7916Y-6.5291
X10.8166Y-4.2791
X11.0041Y-5.0291
X11.1666Y-4.2791
X11.1916Y-2.7791
X11.1916Y-3.5291
X11.1916Y-6.5291
X11.2603Y-5.7791
X11.5416Y-2.7791
X11.5416Y-6.5291
X11.5666Y-4.2791
X11.6603Y-5.7791
X11.8228Y-5.0291
X11.9166Y-3.5291
X11.9416Y-2.7791
X11.9416Y-6.5291
X12.1041Y-4.2791
X12.2228Y-5.0291
X12.2916Y-2.7791
X12.2916Y-5.7791
X12.2916Y-6.5291
X12.3166Y-3.5291
X12.5041Y-4.2791
X12.6916Y-2.7791
X12.6916Y-5.7791
X12.6916Y-6.5291
X13.0416Y-2.7791
X13.0416Y-3.5291
X13.0416Y-4.2791
X13.0416Y-5.0291
X13.0416Y-5.7791
X13.0416Y-6.5291
X13.4416Y-2.7791
X13.4416Y-3.5291
X13.4416Y-4.2791
X13.4416Y-5.0291
X13.4416Y-5.7791
X13.4416Y-6.5291
T2
X1.9916Y-2.7791
X1.9916Y-3.5291
X2.0853Y-6.5291
X2.1791Y-4.2791
X2.2728Y-5.0291
X2.4603Y-5.7791
X2.7416Y-2.7791
X2.7416Y-3.5291
X3.0228Y-6.5291
X3.1166Y-4.2791
X3.3041Y-5.0291
X3.4916Y-2.7791
X3.4916Y-3.5291
X3.6791Y-5.7791
X3.8666Y-4.2791
X3.9603Y-6.5291
X4.0541Y-5.0291
X4.2416Y-2.7791
X4.2416Y-3.5291
X4.4291Y-5.7791
X4.6166Y-4.2791
X4.8041Y-5.0291
X4.9916Y-2.7791
X4.9916Y-3.5291
X5.1791Y-5.7791
X5.3666Y-4.2791
X5.5541Y-5.0291
X5.7416Y-2.7791
X5.7416Y-3.5291
X5.9291Y-5.7791
X6.1166Y-4.2791
X6.3041Y-5.0291
X6.4916Y-2.7791
X6.4916Y-3.5291
X6.6791Y-5.7791
X6.7728Y-6.5291
X6.8666Y-4.2791
X7.0541Y-5.0291
X7.2416Y-2.7791
X7.2416Y-3.5291
X7.4291Y-5.7791
X7.6166Y-4.2791
X7.8041Y-5.0291
X7.9916Y-2.7791
X7.9916Y-3.5291
X8.1791Y-5.7791
X8.3666Y-4.2791
X8.5541Y-5.0291
X8.7416Y-2.7791
X8.7416Y-3.5291
X8.9291Y-5.7791
X9.1166Y-4.2791
X9.3041Y-5.0291
X9.4916Y-2.7791
X9.4916Y-3.5291
X9.4916Y-6.5291
X9.6791Y-5.7791
X9.8666Y-4.2791
X10.0541Y-5.0291
X10.2416Y-2.7791
X10.2416Y-3.5291
X10.2416Y-6.5291
X10.4291Y-5.7791
X10.6166Y-4.2791
X10.8041Y-5.0291
X10.9916Y-2.7791
X10.9916Y-3.5291
X10.9916Y-6.5291
X11.3666Y-4.2791
X11.4603Y-5.7791
X11.7416Y-2.7791
X11.7416Y-6.5291
X12.0228Y-5.0291
X12.1166Y-3.5291
X12.3041Y-4.2791
X12.4916Y-2.7791
X12.4916Y-5.7791
X12.4916Y-6.5291
X13.2416Y-2.7791
X13.2416Y-3.5291
X13.2416Y-4.2791
X13.2416Y-5.0291
X13.2416Y-5.7791
X13.2416Y-6.5291
M30
