  0
SECTION
  2
HEADER
  9
$ACADVER
  1
AC1009
  9
$FILLMODE
 70
 0
  9
$SPLFRAME
 70
 1
  9
$EXTMIN
 10
0
 20
0
 30
0.0
  9
$EXTMAX
 10
1058.33
 20
1058.33
 30
0.0
  0
ENDSEC
  0
SECTION
  2
TABLES
  0
TABLE
  2
LAYER
 70
1
  0
LAYER
  2
0
 70
     0
 62
     7
  6
CONTINUOUS
  0
ENDTAB
  0
ENDSEC
  0
SECTION
  2
ENTITIES
  0
LINE
  8
0
 62
     0
 10
342.896
 20
139.605
 30
0.0
 11
343.053
 21
139.598
 31
0.0
  0
LINE
  8
0
 62
     0
 10
343.053
 20
139.598
 30
0.0
 11
343.209
 21
139.58
 31
0.0
  0
LINE
  8
0
 62
     0
 10
343.209
 20
139.58
 30
0.0
 11
343.363
 21
139.55
 31
0.0
  0
LINE
  8
0
 62
     0
 10
343.363
 20
139.55
 30
0.0
 11
343.515
 21
139.507
 31
0.0
  0
LINE
  8
0
 62
     0
 10
343.515
 20
139.507
 30
0.0
 11
343.662
 21
139.452
 31
0.0
  0
LINE
  8
0
 62
     0
 10
343.662
 20
139.452
 30
0.0
 11
343.804
 21
139.387
 31
0.0
  0
LINE
  8
0
 62
     0
 10
343.804
 20
139.387
 30
0.0
 11
343.94
 21
139.31
 31
0.0
  0
LINE
  8
0
 62
     0
 10
343.94
 20
139.31
 30
0.0
 11
344.071
 21
139.223
 31
0.0
  0
LINE
  8
0
 62
     0
 10
344.071
 20
139.223
 30
0.0
 11
344.194
 21
139.125
 31
0.0
  0
LINE
  8
0
 62
     0
 10
344.194
 20
139.125
 30
0.0
 11
344.311
 21
139.019
 31
0.0
  0
LINE
  8
0
 62
     0
 10
344.311
 20
139.019
 30
0.0
 11
344.416
 21
138.903
 31
0.0
  0
LINE
  8
0
 62
     0
 10
344.416
 20
138.903
 30
0.0
 11
344.515
 21
138.781
 31
0.0
  0
LINE
  8
0
 62
     0
 10
344.515
 20
138.781
 30
0.0
 11
344.602
 21
138.65
 31
0.0
  0
LINE
  8
0
 62
     0
 10
344.602
 20
138.65
 30
0.0
 11
344.679
 21
138.512
 31
0.0
  0
LINE
  8
0
 62
     0
 10
344.679
 20
138.512
 30
0.0
 11
344.744
 21
138.37
 31
0.0
  0
LINE
  8
0
 62
     0
 10
344.744
 20
138.37
 30
0.0
 11
344.799
 21
138.224
 31
0.0
  0
LINE
  8
0
 62
     0
 10
344.799
 20
138.224
 30
0.0
 11
344.84
 21
138.071
 31
0.0
  0
LINE
  8
0
 62
     0
 10
344.84
 20
138.071
 30
0.0
 11
344.872
 21
137.918
 31
0.0
  0
LINE
  8
0
 62
     0
 10
344.872
 20
137.918
 30
0.0
 11
344.89
 21
137.761
 31
0.0
  0
LINE
  8
0
 62
     0
 10
344.89
 20
137.761
 30
0.0
 11
344.897
 21
137.604
 31
0.0
  0
LINE
  8
0
 62
     0
 10
344.897
 20
137.604
 30
0.0
 11
344.897
 21
2.30408
 31
0.0
  0
LINE
  8
0
 62
     0
 10
344.897
 20
2.30408
 30
0.0
 11
344.89
 21
2.14698
 31
0.0
  0
LINE
  8
0
 62
     0
 10
344.89
 20
2.14698
 30
0.0
 11
344.872
 21
1.99126
 31
0.0
  0
LINE
  8
0
 62
     0
 10
344.872
 20
1.99126
 30
0.0
 11
344.84
 21
1.83692
 31
0.0
  0
LINE
  8
0
 62
     0
 10
344.84
 20
1.83692
 30
0.0
 11
344.799
 21
1.68534
 31
0.0
  0
LINE
  8
0
 62
     0
 10
344.799
 20
1.68534
 30
0.0
 11
344.744
 21
1.53789
 31
0.0
  0
LINE
  8
0
 62
     0
 10
344.744
 20
1.53789
 30
0.0
 11
344.679
 21
1.39595
 31
0.0
  0
LINE
  8
0
 62
     0
 10
344.679
 20
1.39595
 30
0.0
 11
344.602
 21
1.25953
 31
0.0
  0
LINE
  8
0
 62
     0
 10
344.602
 20
1.25953
 30
0.0
 11
344.515
 21
1.12861
 31
0.0
  0
LINE
  8
0
 62
     0
 10
344.515
 20
1.12861
 30
0.0
 11
344.416
 21
1.00597
 31
0.0
  0
LINE
  8
0
 62
     0
 10
344.416
 20
1.00597
 30
0.0
 11
344.311
 21
0.888834
 31
0.0
  0
LINE
  8
0
 62
     0
 10
344.311
 20
0.888834
 30
0.0
 11
344.194
 21
0.784105
 31
0.0
  0
LINE
  8
0
 62
     0
 10
344.194
 20
0.784105
 30
0.0
 11
344.071
 21
0.684886
 31
0.0
  0
LINE
  8
0
 62
     0
 10
344.071
 20
0.684886
 30
0.0
 11
343.94
 21
0.598068
 31
0.0
  0
LINE
  8
0
 62
     0
 10
343.94
 20
0.598068
 30
0.0
 11
343.804
 21
0.520898
 31
0.0
  0
LINE
  8
0
 62
     0
 10
343.804
 20
0.520898
 30
0.0
 11
343.662
 21
0.456131
 31
0.0
  0
LINE
  8
0
 62
     0
 10
343.662
 20
0.456131
 30
0.0
 11
343.515
 21
0.40101
 31
0.0
  0
LINE
  8
0
 62
     0
 10
343.515
 20
0.40101
 30
0.0
 11
343.363
 21
0.359668
 31
0.0
  0
LINE
  8
0
 62
     0
 10
343.363
 20
0.359668
 30
0.0
 11
343.209
 21
0.327973
 31
0.0
  0
LINE
  8
0
 62
     0
 10
343.209
 20
0.327973
 30
0.0
 11
343.053
 21
0.310059
 31
0.0
  0
LINE
  8
0
 62
     0
 10
343.053
 20
0.310059
 30
0.0
 11
342.896
 21
0.303168
 31
0.0
  0
LINE
  8
0
 62
     0
 10
342.896
 20
0.303168
 30
0.0
 11
2.096
 21
0.303168
 31
0.0
  0
LINE
  8
0
 62
     0
 10
2.096
 20
0.303168
 30
0.0
 11
1.9389
 21
0.310059
 31
0.0
  0
LINE
  8
0
 62
     0
 10
1.9389
 20
0.310059
 30
0.0
 11
1.7818
 21
0.327973
 31
0.0
  0
LINE
  8
0
 62
     0
 10
1.7818
 20
0.327973
 30
0.0
 11
1.62884
 21
0.359668
 31
0.0
  0
LINE
  8
0
 62
     0
 10
1.62884
 20
0.359668
 30
0.0
 11
1.47588
 21
0.40101
 31
0.0
  0
LINE
  8
0
 62
     0
 10
1.47588
 20
0.40101
 30
0.0
 11
1.32981
 21
0.456131
 31
0.0
  0
LINE
  8
0
 62
     0
 10
1.32981
 20
0.456131
 30
0.0
 11
1.18787
 21
0.520898
 31
0.0
  0
LINE
  8
0
 62
     0
 10
1.18787
 20
0.520898
 30
0.0
 11
1.05006
 21
0.598068
 31
0.0
  0
LINE
  8
0
 62
     0
 10
1.05006
 20
0.598068
 30
0.0
 11
0.919152
 21
0.684886
 31
0.0
  0
LINE
  8
0
 62
     0
 10
0.919152
 20
0.684886
 30
0.0
 11
0.796505
 21
0.784105
 31
0.0
  0
LINE
  8
0
 62
     0
 10
0.796505
 20
0.784105
 30
0.0
 11
0.680752
 21
0.888834
 31
0.0
  0
LINE
  8
0
 62
     0
 10
0.680752
 20
0.888834
 30
0.0
 11
0.574643
 21
1.00597
 31
0.0
  0
LINE
  8
0
 62
     0
 10
0.574643
 20
1.00597
 30
0.0
 11
0.4768
 21
1.12861
 31
0.0
  0
LINE
  8
0
 62
     0
 10
0.4768
 20
1.12861
 30
0.0
 11
0.389985
 21
1.25953
 31
0.0
  0
LINE
  8
0
 62
     0
 10
0.389985
 20
1.25953
 30
0.0
 11
0.312815
 21
1.39595
 31
0.0
  0
LINE
  8
0
 62
     0
 10
0.312815
 20
1.39595
 30
0.0
 11
0.248047
 21
1.53789
 31
0.0
  0
LINE
  8
0
 62
     0
 10
0.248047
 20
1.53789
 30
0.0
 11
0.192925
 21
1.68534
 31
0.0
  0
LINE
  8
0
 62
     0
 10
0.192925
 20
1.68534
 30
0.0
 11
0.150206
 21
1.83692
 31
0.0
  0
LINE
  8
0
 62
     0
 10
0.150206
 20
1.83692
 30
0.0
 11
0.119889
 21
1.99126
 31
0.0
  0
LINE
  8
0
 62
     0
 10
0.119889
 20
1.99126
 30
0.0
 11
0.101975
 21
2.14698
 31
0.0
  0
LINE
  8
0
 62
     0
 10
0.101975
 20
2.14698
 30
0.0
 11
0.0950846
 21
2.30408
 31
0.0
  0
LINE
  8
0
 62
     0
 10
0.0950846
 20
2.30408
 30
0.0
 11
0.0950846
 21
137.604
 31
0.0
  0
LINE
  8
0
 62
     0
 10
0.0950846
 20
137.604
 30
0.0
 11
0.101975
 21
137.761
 31
0.0
  0
LINE
  8
0
 62
     0
 10
0.101975
 20
137.761
 30
0.0
 11
0.119889
 21
137.918
 31
0.0
  0
LINE
  8
0
 62
     0
 10
0.119889
 20
137.918
 30
0.0
 11
0.150206
 21
138.071
 31
0.0
  0
LINE
  8
0
 62
     0
 10
0.150206
 20
138.071
 30
0.0
 11
0.192925
 21
138.224
 31
0.0
  0
LINE
  8
0
 62
     0
 10
0.192925
 20
138.224
 30
0.0
 11
0.248047
 21
138.37
 31
0.0
  0
LINE
  8
0
 62
     0
 10
0.248047
 20
138.37
 30
0.0
 11
0.312815
 21
138.512
 31
0.0
  0
LINE
  8
0
 62
     0
 10
0.312815
 20
138.512
 30
0.0
 11
0.389985
 21
138.65
 31
0.0
  0
LINE
  8
0
 62
     0
 10
0.389985
 20
138.65
 30
0.0
 11
0.4768
 21
138.781
 31
0.0
  0
LINE
  8
0
 62
     0
 10
0.4768
 20
138.781
 30
0.0
 11
0.574643
 21
138.903
 31
0.0
  0
LINE
  8
0
 62
     0
 10
0.574643
 20
138.903
 30
0.0
 11
0.680752
 21
139.019
 31
0.0
  0
LINE
  8
0
 62
     0
 10
0.680752
 20
139.019
 30
0.0
 11
0.796505
 21
139.125
 31
0.0
  0
LINE
  8
0
 62
     0
 10
0.796505
 20
139.125
 30
0.0
 11
0.919152
 21
139.223
 31
0.0
  0
LINE
  8
0
 62
     0
 10
0.919152
 20
139.223
 30
0.0
 11
1.05006
 21
139.31
 31
0.0
  0
LINE
  8
0
 62
     0
 10
1.05006
 20
139.31
 30
0.0
 11
1.18787
 21
139.387
 31
0.0
  0
LINE
  8
0
 62
     0
 10
1.18787
 20
139.387
 30
0.0
 11
1.32981
 21
139.452
 31
0.0
  0
LINE
  8
0
 62
     0
 10
1.32981
 20
139.452
 30
0.0
 11
1.47588
 21
139.507
 31
0.0
  0
LINE
  8
0
 62
     0
 10
1.47588
 20
139.507
 30
0.0
 11
1.62884
 21
139.55
 31
0.0
  0
LINE
  8
0
 62
     0
 10
1.62884
 20
139.55
 30
0.0
 11
1.7818
 21
139.58
 31
0.0
  0
LINE
  8
0
 62
     0
 10
1.7818
 20
139.58
 30
0.0
 11
1.9389
 21
139.598
 31
0.0
  0
LINE
  8
0
 62
     0
 10
1.9389
 20
139.598
 30
0.0
 11
2.096
 21
139.605
 31
0.0
  0
LINE
  8
0
 62
     0
 10
2.096
 20
139.605
 30
0.0
 11
342.896
 21
139.605
 31
0.0
  0
LINE
  8
0
 62
     0
 10
339.2
 20
7.44418
 30
0.0
 11
338.573
 21
7.12445
 31
0.0
  0
LINE
  8
0
 62
     0
 10
338.573
 20
7.12445
 30
0.0
 11
338.075
 21
6.627
 31
0.0
  0
LINE
  8
0
 62
     0
 10
338.075
 20
6.627
 30
0.0
 11
337.757
 21
5.99997
 31
0.0
  0
LINE
  8
0
 62
     0
 10
337.757
 20
5.99997
 30
0.0
 11
337.647
 21
5.30408
 31
0.0
  0
LINE
  8
0
 62
     0
 10
337.647
 20
5.30408
 30
0.0
 11
337.757
 21
4.60816
 31
0.0
  0
LINE
  8
0
 62
     0
 10
337.757
 20
4.60816
 30
0.0
 11
338.075
 21
3.98117
 31
0.0
  0
LINE
  8
0
 62
     0
 10
338.075
 20
3.98117
 30
0.0
 11
338.573
 21
3.48368
 31
0.0
  0
LINE
  8
0
 62
     0
 10
338.573
 20
3.48368
 30
0.0
 11
339.2
 21
3.16398
 31
0.0
  0
LINE
  8
0
 62
     0
 10
339.2
 20
3.16398
 30
0.0
 11
339.896
 21
3.05373
 31
0.0
  0
LINE
  8
0
 62
     0
 10
339.896
 20
3.05373
 30
0.0
 11
340.592
 21
3.16398
 31
0.0
  0
LINE
  8
0
 62
     0
 10
340.592
 20
3.16398
 30
0.0
 11
341.219
 21
3.48368
 31
0.0
  0
LINE
  8
0
 62
     0
 10
341.219
 20
3.48368
 30
0.0
 11
341.716
 21
3.98117
 31
0.0
  0
LINE
  8
0
 62
     0
 10
341.716
 20
3.98117
 30
0.0
 11
342.036
 21
4.60816
 31
0.0
  0
LINE
  8
0
 62
     0
 10
342.036
 20
4.60816
 30
0.0
 11
342.146
 21
5.30408
 31
0.0
  0
LINE
  8
0
 62
     0
 10
342.146
 20
5.30408
 30
0.0
 11
342.036
 21
5.99997
 31
0.0
  0
LINE
  8
0
 62
     0
 10
342.036
 20
5.99997
 30
0.0
 11
341.716
 21
6.627
 31
0.0
  0
LINE
  8
0
 62
     0
 10
341.716
 20
6.627
 30
0.0
 11
341.219
 21
7.12445
 31
0.0
  0
LINE
  8
0
 62
     0
 10
341.219
 20
7.12445
 30
0.0
 11
340.592
 21
7.44418
 31
0.0
  0
LINE
  8
0
 62
     0
 10
340.592
 20
7.44418
 30
0.0
 11
339.896
 21
7.55304
 31
0.0
  0
LINE
  8
0
 62
     0
 10
339.896
 20
7.55304
 30
0.0
 11
339.2
 21
7.44418
 31
0.0
  0
LINE
  8
0
 62
     0
 10
227.601
 20
7.44418
 30
0.0
 11
226.974
 21
7.12445
 31
0.0
  0
LINE
  8
0
 62
     0
 10
226.974
 20
7.12445
 30
0.0
 11
226.475
 21
6.627
 31
0.0
  0
LINE
  8
0
 62
     0
 10
226.475
 20
6.627
 30
0.0
 11
226.155
 21
5.99997
 31
0.0
  0
LINE
  8
0
 62
     0
 10
226.155
 20
5.99997
 30
0.0
 11
226.045
 21
5.30408
 31
0.0
  0
LINE
  8
0
 62
     0
 10
226.045
 20
5.30408
 30
0.0
 11
226.155
 21
4.60816
 31
0.0
  0
LINE
  8
0
 62
     0
 10
226.155
 20
4.60816
 30
0.0
 11
226.475
 21
3.98117
 31
0.0
  0
LINE
  8
0
 62
     0
 10
226.475
 20
3.98117
 30
0.0
 11
226.974
 21
3.48368
 31
0.0
  0
LINE
  8
0
 62
     0
 10
226.974
 20
3.48368
 30
0.0
 11
227.601
 21
3.16398
 31
0.0
  0
LINE
  8
0
 62
     0
 10
227.601
 20
3.16398
 30
0.0
 11
228.296
 21
3.05373
 31
0.0
  0
LINE
  8
0
 62
     0
 10
228.296
 20
3.05373
 30
0.0
 11
228.99
 21
3.16398
 31
0.0
  0
LINE
  8
0
 62
     0
 10
228.99
 20
3.16398
 30
0.0
 11
229.618
 21
3.48368
 31
0.0
  0
LINE
  8
0
 62
     0
 10
229.618
 20
3.48368
 30
0.0
 11
230.116
 21
3.98117
 31
0.0
  0
LINE
  8
0
 62
     0
 10
230.116
 20
3.98117
 30
0.0
 11
230.436
 21
4.60816
 31
0.0
  0
LINE
  8
0
 62
     0
 10
230.436
 20
4.60816
 30
0.0
 11
230.546
 21
5.30408
 31
0.0
  0
LINE
  8
0
 62
     0
 10
230.546
 20
5.30408
 30
0.0
 11
230.436
 21
5.99997
 31
0.0
  0
LINE
  8
0
 62
     0
 10
230.436
 20
5.99997
 30
0.0
 11
230.116
 21
6.627
 31
0.0
  0
LINE
  8
0
 62
     0
 10
230.116
 20
6.627
 30
0.0
 11
229.618
 21
7.12445
 31
0.0
  0
LINE
  8
0
 62
     0
 10
229.618
 20
7.12445
 30
0.0
 11
228.99
 21
7.44418
 31
0.0
  0
LINE
  8
0
 62
     0
 10
228.99
 20
7.44418
 30
0.0
 11
228.296
 21
7.55304
 31
0.0
  0
LINE
  8
0
 62
     0
 10
228.296
 20
7.55304
 30
0.0
 11
227.601
 21
7.44418
 31
0.0
  0
LINE
  8
0
 62
     0
 10
116
 20
7.44418
 30
0.0
 11
115.372
 21
7.12445
 31
0.0
  0
LINE
  8
0
 62
     0
 10
115.372
 20
7.12445
 30
0.0
 11
114.876
 21
6.627
 31
0.0
  0
LINE
  8
0
 62
     0
 10
114.876
 20
6.627
 30
0.0
 11
114.555
 21
5.99997
 31
0.0
  0
LINE
  8
0
 62
     0
 10
114.555
 20
5.99997
 30
0.0
 11
114.446
 21
5.30408
 31
0.0
  0
LINE
  8
0
 62
     0
 10
114.446
 20
5.30408
 30
0.0
 11
114.555
 21
4.60816
 31
0.0
  0
LINE
  8
0
 62
     0
 10
114.555
 20
4.60816
 30
0.0
 11
114.876
 21
3.98117
 31
0.0
  0
LINE
  8
0
 62
     0
 10
114.876
 20
3.98117
 30
0.0
 11
115.372
 21
3.48368
 31
0.0
  0
LINE
  8
0
 62
     0
 10
115.372
 20
3.48368
 30
0.0
 11
116
 21
3.16398
 31
0.0
  0
LINE
  8
0
 62
     0
 10
116
 20
3.16398
 30
0.0
 11
116.695
 21
3.05373
 31
0.0
  0
LINE
  8
0
 62
     0
 10
116.695
 20
3.05373
 30
0.0
 11
117.391
 21
3.16398
 31
0.0
  0
LINE
  8
0
 62
     0
 10
117.391
 20
3.16398
 30
0.0
 11
118.018
 21
3.48368
 31
0.0
  0
LINE
  8
0
 62
     0
 10
118.018
 20
3.48368
 30
0.0
 11
118.515
 21
3.98117
 31
0.0
  0
LINE
  8
0
 62
     0
 10
118.515
 20
3.98117
 30
0.0
 11
118.835
 21
4.60816
 31
0.0
  0
LINE
  8
0
 62
     0
 10
118.835
 20
4.60816
 30
0.0
 11
118.945
 21
5.30408
 31
0.0
  0
LINE
  8
0
 62
     0
 10
118.945
 20
5.30408
 30
0.0
 11
118.835
 21
5.99997
 31
0.0
  0
LINE
  8
0
 62
     0
 10
118.835
 20
5.99997
 30
0.0
 11
118.515
 21
6.627
 31
0.0
  0
LINE
  8
0
 62
     0
 10
118.515
 20
6.627
 30
0.0
 11
118.018
 21
7.12445
 31
0.0
  0
LINE
  8
0
 62
     0
 10
118.018
 20
7.12445
 30
0.0
 11
117.391
 21
7.44418
 31
0.0
  0
LINE
  8
0
 62
     0
 10
117.391
 20
7.44418
 30
0.0
 11
116.695
 21
7.55304
 31
0.0
  0
LINE
  8
0
 62
     0
 10
116.695
 20
7.55304
 30
0.0
 11
116
 21
7.44418
 31
0.0
  0
LINE
  8
0
 62
     0
 10
4.40009
 20
7.44418
 30
0.0
 11
3.77306
 21
7.12445
 31
0.0
  0
LINE
  8
0
 62
     0
 10
3.77306
 20
7.12445
 30
0.0
 11
3.27422
 21
6.627
 31
0.0
  0
LINE
  8
0
 62
     0
 10
3.27422
 20
6.627
 30
0.0
 11
2.95589
 21
5.99997
 31
0.0
  0
LINE
  8
0
 62
     0
 10
2.95589
 20
5.99997
 30
0.0
 11
2.84565
 21
5.30408
 31
0.0
  0
LINE
  8
0
 62
     0
 10
2.84565
 20
5.30408
 30
0.0
 11
2.95589
 21
4.60816
 31
0.0
  0
LINE
  8
0
 62
     0
 10
2.95589
 20
4.60816
 30
0.0
 11
3.27422
 21
3.98117
 31
0.0
  0
LINE
  8
0
 62
     0
 10
3.27422
 20
3.98117
 30
0.0
 11
3.77306
 21
3.48368
 31
0.0
  0
LINE
  8
0
 62
     0
 10
3.77306
 20
3.48368
 30
0.0
 11
4.40009
 21
3.16398
 31
0.0
  0
LINE
  8
0
 62
     0
 10
4.40009
 20
3.16398
 30
0.0
 11
5.09598
 21
3.05373
 31
0.0
  0
LINE
  8
0
 62
     0
 10
5.09598
 20
3.05373
 30
0.0
 11
5.79053
 21
3.16398
 31
0.0
  0
LINE
  8
0
 62
     0
 10
5.79053
 20
3.16398
 30
0.0
 11
6.41752
 21
3.48368
 31
0.0
  0
LINE
  8
0
 62
     0
 10
6.41752
 20
3.48368
 30
0.0
 11
6.91501
 21
3.98117
 31
0.0
  0
LINE
  8
0
 62
     0
 10
6.91501
 20
3.98117
 30
0.0
 11
7.2347
 21
4.60816
 31
0.0
  0
LINE
  8
0
 62
     0
 10
7.2347
 20
4.60816
 30
0.0
 11
7.34494
 21
5.30408
 31
0.0
  0
LINE
  8
0
 62
     0
 10
7.34494
 20
5.30408
 30
0.0
 11
7.2347
 21
5.99997
 31
0.0
  0
LINE
  8
0
 62
     0
 10
7.2347
 20
5.99997
 30
0.0
 11
6.91501
 21
6.627
 31
0.0
  0
LINE
  8
0
 62
     0
 10
6.91501
 20
6.627
 30
0.0
 11
6.41752
 21
7.12445
 31
0.0
  0
LINE
  8
0
 62
     0
 10
6.41752
 20
7.12445
 30
0.0
 11
5.79053
 21
7.44418
 31
0.0
  0
LINE
  8
0
 62
     0
 10
5.79053
 20
7.44418
 30
0.0
 11
5.09598
 21
7.55304
 31
0.0
  0
LINE
  8
0
 62
     0
 10
5.09598
 20
7.55304
 30
0.0
 11
4.40009
 21
7.44418
 31
0.0
  0
LINE
  8
0
 62
     0
 10
154.063
 20
31.8299
 30
0.0
 11
154.063
 21
27.1294
 31
0.0
  0
LINE
  8
0
 62
     0
 10
154.063
 20
27.1294
 30
0.0
 11
114.438
 21
27.1294
 31
0.0
  0
LINE
  8
0
 62
     0
 10
114.438
 20
27.1294
 30
0.0
 11
114.438
 21
30.3609
 31
0.0
  0
LINE
  8
0
 62
     0
 10
114.438
 20
30.3609
 30
0.0
 11
112.714
 21
30.3609
 31
0.0
  0
LINE
  8
0
 62
     0
 10
112.714
 20
30.3609
 30
0.0
 11
112.714
 21
31.2801
 31
0.0
  0
LINE
  8
0
 62
     0
 10
112.714
 20
31.2801
 30
0.0
 11
109.413
 21
31.2801
 31
0.0
  0
LINE
  8
0
 62
     0
 10
109.413
 20
31.2801
 30
0.0
 11
109.413
 21
30.3609
 31
0.0
  0
LINE
  8
0
 62
     0
 10
109.413
 20
30.3609
 30
0.0
 11
107.688
 21
30.3609
 31
0.0
  0
LINE
  8
0
 62
     0
 10
107.688
 20
30.3609
 30
0.0
 11
107.688
 21
27.1294
 31
0.0
  0
LINE
  8
0
 62
     0
 10
107.688
 20
27.1294
 30
0.0
 11
106.864
 21
27.1294
 31
0.0
  0
LINE
  8
0
 62
     0
 10
106.864
 20
27.1294
 30
0.0
 11
106.864
 21
24.3307
 31
0.0
  0
LINE
  8
0
 62
     0
 10
106.864
 20
24.3307
 30
0.0
 11
107.688
 21
24.3307
 31
0.0
  0
LINE
  8
0
 62
     0
 10
107.688
 20
24.3307
 30
0.0
 11
107.688
 21
18.0606
 31
0.0
  0
LINE
  8
0
 62
     0
 10
107.688
 20
18.0606
 30
0.0
 11
109.413
 21
18.0606
 31
0.0
  0
LINE
  8
0
 62
     0
 10
109.413
 20
18.0606
 30
0.0
 11
109.413
 21
17.0808
 31
0.0
  0
LINE
  8
0
 62
     0
 10
109.413
 20
17.0808
 30
0.0
 11
112.714
 21
17.0808
 31
0.0
  0
LINE
  8
0
 62
     0
 10
112.714
 20
17.0808
 30
0.0
 11
112.714
 21
18.0606
 31
0.0
  0
LINE
  8
0
 62
     0
 10
112.714
 20
18.0606
 30
0.0
 11
114.438
 21
18.0606
 31
0.0
  0
LINE
  8
0
 62
     0
 10
114.438
 20
18.0606
 30
0.0
 11
114.438
 21
22.5309
 31
0.0
  0
LINE
  8
0
 62
     0
 10
114.438
 20
22.5309
 30
0.0
 11
154.063
 21
22.5309
 31
0.0
  0
LINE
  8
0
 62
     0
 10
154.063
 20
22.5309
 30
0.0
 11
154.063
 21
17.8304
 31
0.0
  0
LINE
  8
0
 62
     0
 10
154.063
 20
17.8304
 30
0.0
 11
168.064
 21
17.8304
 31
0.0
  0
LINE
  8
0
 62
     0
 10
168.064
 20
17.8304
 30
0.0
 11
168.064
 21
22.5309
 31
0.0
  0
LINE
  8
0
 62
     0
 10
168.064
 20
22.5309
 30
0.0
 11
207.688
 21
22.5309
 31
0.0
  0
LINE
  8
0
 62
     0
 10
207.688
 20
22.5309
 30
0.0
 11
207.688
 21
18.0606
 31
0.0
  0
LINE
  8
0
 62
     0
 10
207.688
 20
18.0606
 30
0.0
 11
209.413
 21
18.0606
 31
0.0
  0
LINE
  8
0
 62
     0
 10
209.413
 20
18.0606
 30
0.0
 11
209.413
 21
17.0808
 31
0.0
  0
LINE
  8
0
 62
     0
 10
209.413
 20
17.0808
 30
0.0
 11
212.714
 21
17.0808
 31
0.0
  0
LINE
  8
0
 62
     0
 10
212.714
 20
17.0808
 30
0.0
 11
212.714
 21
18.0606
 31
0.0
  0
LINE
  8
0
 62
     0
 10
212.714
 20
18.0606
 30
0.0
 11
214.438
 21
18.0606
 31
0.0
  0
LINE
  8
0
 62
     0
 10
214.438
 20
18.0606
 30
0.0
 11
214.438
 21
24.3307
 31
0.0
  0
LINE
  8
0
 62
     0
 10
214.438
 20
24.3307
 30
0.0
 11
215.263
 21
24.3307
 31
0.0
  0
LINE
  8
0
 62
     0
 10
215.263
 20
24.3307
 30
0.0
 11
215.263
 21
27.1294
 31
0.0
  0
LINE
  8
0
 62
     0
 10
215.263
 20
27.1294
 30
0.0
 11
214.438
 21
27.1294
 31
0.0
  0
LINE
  8
0
 62
     0
 10
214.438
 20
27.1294
 30
0.0
 11
214.438
 21
30.3609
 31
0.0
  0
LINE
  8
0
 62
     0
 10
214.438
 20
30.3609
 30
0.0
 11
212.714
 21
30.3609
 31
0.0
  0
LINE
  8
0
 62
     0
 10
212.714
 20
30.3609
 30
0.0
 11
212.714
 21
31.2801
 31
0.0
  0
LINE
  8
0
 62
     0
 10
212.714
 20
31.2801
 30
0.0
 11
209.413
 21
31.2801
 31
0.0
  0
LINE
  8
0
 62
     0
 10
209.413
 20
31.2801
 30
0.0
 11
209.413
 21
30.3609
 31
0.0
  0
LINE
  8
0
 62
     0
 10
209.413
 20
30.3609
 30
0.0
 11
207.688
 21
30.3609
 31
0.0
  0
LINE
  8
0
 62
     0
 10
207.688
 20
30.3609
 30
0.0
 11
207.688
 21
27.1294
 31
0.0
  0
LINE
  8
0
 62
     0
 10
207.688
 20
27.1294
 30
0.0
 11
168.064
 21
27.1294
 31
0.0
  0
LINE
  8
0
 62
     0
 10
168.064
 20
27.1294
 30
0.0
 11
168.064
 21
31.8299
 31
0.0
  0
LINE
  8
0
 62
     0
 10
168.064
 20
31.8299
 30
0.0
 11
154.063
 21
31.8299
 31
0.0
  0
LINE
  8
0
 62
     0
 10
35.0022
 20
31.8299
 30
0.0
 11
49.0015
 21
31.8299
 31
0.0
  0
LINE
  8
0
 62
     0
 10
49.0015
 20
31.8299
 30
0.0
 11
49.0015
 21
17.8304
 31
0.0
  0
LINE
  8
0
 62
     0
 10
49.0015
 20
17.8304
 30
0.0
 11
35.0022
 21
17.8304
 31
0.0
  0
LINE
  8
0
 62
     0
 10
35.0022
 20
17.8304
 30
0.0
 11
35.0022
 21
31.8299
 31
0.0
  0
LINE
  8
0
 62
     0
 10
58.8133
 20
31.8299
 30
0.0
 11
72.814
 21
31.8299
 31
0.0
  0
LINE
  8
0
 62
     0
 10
72.814
 20
31.8299
 30
0.0
 11
72.814
 21
17.8304
 31
0.0
  0
LINE
  8
0
 62
     0
 10
72.814
 20
17.8304
 30
0.0
 11
58.8133
 21
17.8304
 31
0.0
  0
LINE
  8
0
 62
     0
 10
58.8133
 20
17.8304
 30
0.0
 11
58.8133
 21
31.8299
 31
0.0
  0
LINE
  8
0
 62
     0
 10
82.6273
 20
31.8299
 30
0.0
 11
96.6265
 21
31.8299
 31
0.0
  0
LINE
  8
0
 62
     0
 10
96.6265
 20
31.8299
 30
0.0
 11
96.6265
 21
17.8304
 31
0.0
  0
LINE
  8
0
 62
     0
 10
96.6265
 20
17.8304
 30
0.0
 11
82.6273
 21
17.8304
 31
0.0
  0
LINE
  8
0
 62
     0
 10
82.6273
 20
17.8304
 30
0.0
 11
82.6273
 21
31.8299
 31
0.0
  0
LINE
  8
0
 62
     0
 10
223.121
 20
31.8299
 30
0.0
 11
237.12
 21
31.8299
 31
0.0
  0
LINE
  8
0
 62
     0
 10
237.12
 20
31.8299
 30
0.0
 11
237.12
 21
17.8304
 31
0.0
  0
LINE
  8
0
 62
     0
 10
237.12
 20
17.8304
 30
0.0
 11
223.121
 21
17.8304
 31
0.0
  0
LINE
  8
0
 62
     0
 10
223.121
 20
17.8304
 30
0.0
 11
223.121
 21
31.8299
 31
0.0
  0
LINE
  8
0
 62
     0
 10
242.171
 20
31.8299
 30
0.0
 11
256.17
 21
31.8299
 31
0.0
  0
LINE
  8
0
 62
     0
 10
256.17
 20
31.8299
 30
0.0
 11
256.17
 21
17.8304
 31
0.0
  0
LINE
  8
0
 62
     0
 10
256.17
 20
17.8304
 30
0.0
 11
242.171
 21
17.8304
 31
0.0
  0
LINE
  8
0
 62
     0
 10
242.171
 20
17.8304
 30
0.0
 11
242.171
 21
31.8299
 31
0.0
  0
LINE
  8
0
 62
     0
 10
261.221
 20
31.8299
 30
0.0
 11
275.22
 21
31.8299
 31
0.0
  0
LINE
  8
0
 62
     0
 10
275.22
 20
31.8299
 30
0.0
 11
275.22
 21
17.8304
 31
0.0
  0
LINE
  8
0
 62
     0
 10
275.22
 20
17.8304
 30
0.0
 11
261.221
 21
17.8304
 31
0.0
  0
LINE
  8
0
 62
     0
 10
261.221
 20
17.8304
 30
0.0
 11
261.221
 21
31.8299
 31
0.0
  0
LINE
  8
0
 62
     0
 10
280.271
 20
31.8299
 30
0.0
 11
294.27
 21
31.8299
 31
0.0
  0
LINE
  8
0
 62
     0
 10
294.27
 20
31.8299
 30
0.0
 11
294.27
 21
17.8304
 31
0.0
  0
LINE
  8
0
 62
     0
 10
294.27
 20
17.8304
 30
0.0
 11
280.271
 21
17.8304
 31
0.0
  0
LINE
  8
0
 62
     0
 10
280.271
 20
17.8304
 30
0.0
 11
280.271
 21
31.8299
 31
0.0
  0
LINE
  8
0
 62
     0
 10
299.321
 20
31.8299
 30
0.0
 11
313.32
 21
31.8299
 31
0.0
  0
LINE
  8
0
 62
     0
 10
313.32
 20
31.8299
 30
0.0
 11
313.32
 21
17.8304
 31
0.0
  0
LINE
  8
0
 62
     0
 10
313.32
 20
17.8304
 30
0.0
 11
299.321
 21
17.8304
 31
0.0
  0
LINE
  8
0
 62
     0
 10
299.321
 20
17.8304
 30
0.0
 11
299.321
 21
31.8299
 31
0.0
  0
LINE
  8
0
 62
     0
 10
318.371
 20
31.8299
 30
0.0
 11
332.37
 21
31.8299
 31
0.0
  0
LINE
  8
0
 62
     0
 10
332.37
 20
31.8299
 30
0.0
 11
332.37
 21
17.8304
 31
0.0
  0
LINE
  8
0
 62
     0
 10
332.37
 20
17.8304
 30
0.0
 11
318.371
 21
17.8304
 31
0.0
  0
LINE
  8
0
 62
     0
 10
318.371
 20
17.8304
 30
0.0
 11
318.371
 21
31.8299
 31
0.0
  0
LINE
  8
0
 62
     0
 10
44.5273
 20
50.8801
 30
0.0
 11
44.5273
 21
46.1793
 31
0.0
  0
LINE
  8
0
 62
     0
 10
44.5273
 20
46.1793
 30
0.0
 11
43.0018
 21
46.1793
 31
0.0
  0
LINE
  8
0
 62
     0
 10
43.0018
 20
46.1793
 30
0.0
 11
43.0018
 21
49.4097
 31
0.0
  0
LINE
  8
0
 62
     0
 10
43.0018
 20
49.4097
 30
0.0
 11
41.2764
 21
49.4097
 31
0.0
  0
LINE
  8
0
 62
     0
 10
41.2764
 20
49.4097
 30
0.0
 11
41.2764
 21
50.3301
 31
0.0
  0
LINE
  8
0
 62
     0
 10
41.2764
 20
50.3301
 30
0.0
 11
37.9758
 21
50.3301
 31
0.0
  0
LINE
  8
0
 62
     0
 10
37.9758
 20
50.3301
 30
0.0
 11
37.9758
 21
49.4097
 31
0.0
  0
LINE
  8
0
 62
     0
 10
37.9758
 20
49.4097
 30
0.0
 11
36.2522
 21
49.4097
 31
0.0
  0
LINE
  8
0
 62
     0
 10
36.2522
 20
49.4097
 30
0.0
 11
36.2522
 21
46.1793
 31
0.0
  0
LINE
  8
0
 62
     0
 10
36.2522
 20
46.1793
 30
0.0
 11
35.4266
 21
46.1793
 31
0.0
  0
LINE
  8
0
 62
     0
 10
35.4266
 20
46.1793
 30
0.0
 11
35.4266
 21
43.3793
 31
0.0
  0
LINE
  8
0
 62
     0
 10
35.4266
 20
43.3793
 30
0.0
 11
36.2522
 21
43.3793
 31
0.0
  0
LINE
  8
0
 62
     0
 10
36.2522
 20
43.3793
 30
0.0
 11
36.2522
 21
37.1105
 31
0.0
  0
LINE
  8
0
 62
     0
 10
36.2522
 20
37.1105
 30
0.0
 11
37.9758
 21
37.1105
 31
0.0
  0
LINE
  8
0
 62
     0
 10
37.9758
 20
37.1105
 30
0.0
 11
37.9758
 21
36.1294
 31
0.0
  0
LINE
  8
0
 62
     0
 10
37.9758
 20
36.1294
 30
0.0
 11
41.2764
 21
36.1294
 31
0.0
  0
LINE
  8
0
 62
     0
 10
41.2764
 20
36.1294
 30
0.0
 11
41.2764
 21
37.1105
 31
0.0
  0
LINE
  8
0
 62
     0
 10
41.2764
 20
37.1105
 30
0.0
 11
43.0018
 21
37.1105
 31
0.0
  0
LINE
  8
0
 62
     0
 10
43.0018
 20
37.1105
 30
0.0
 11
43.0018
 21
41.5809
 31
0.0
  0
LINE
  8
0
 62
     0
 10
43.0018
 20
41.5809
 30
0.0
 11
44.5273
 21
41.5809
 31
0.0
  0
LINE
  8
0
 62
     0
 10
44.5273
 20
41.5809
 30
0.0
 11
44.5273
 21
36.879
 31
0.0
  0
LINE
  8
0
 62
     0
 10
44.5273
 20
36.879
 30
0.0
 11
58.5265
 21
36.879
 31
0.0
  0
LINE
  8
0
 62
     0
 10
58.5265
 20
36.879
 30
0.0
 11
58.5265
 21
41.5809
 31
0.0
  0
LINE
  8
0
 62
     0
 10
58.5265
 20
41.5809
 30
0.0
 11
60.0523
 21
41.5809
 31
0.0
  0
LINE
  8
0
 62
     0
 10
60.0523
 20
41.5809
 30
0.0
 11
60.0523
 21
37.1105
 31
0.0
  0
LINE
  8
0
 62
     0
 10
60.0523
 20
37.1105
 30
0.0
 11
61.776
 21
37.1105
 31
0.0
  0
LINE
  8
0
 62
     0
 10
61.776
 20
37.1105
 30
0.0
 11
61.776
 21
36.1294
 31
0.0
  0
LINE
  8
0
 62
     0
 10
61.776
 20
36.1294
 30
0.0
 11
65.0766
 21
36.1294
 31
0.0
  0
LINE
  8
0
 62
     0
 10
65.0766
 20
36.1294
 30
0.0
 11
65.0766
 21
37.1105
 31
0.0
  0
LINE
  8
0
 62
     0
 10
65.0766
 20
37.1105
 30
0.0
 11
66.8016
 21
37.1105
 31
0.0
  0
LINE
  8
0
 62
     0
 10
66.8016
 20
37.1105
 30
0.0
 11
66.8016
 21
43.3793
 31
0.0
  0
LINE
  8
0
 62
     0
 10
66.8016
 20
43.3793
 30
0.0
 11
67.6257
 21
43.3793
 31
0.0
  0
LINE
  8
0
 62
     0
 10
67.6257
 20
43.3793
 30
0.0
 11
67.6257
 21
46.1793
 31
0.0
  0
LINE
  8
0
 62
     0
 10
67.6257
 20
46.1793
 30
0.0
 11
66.8016
 21
46.1793
 31
0.0
  0
LINE
  8
0
 62
     0
 10
66.8016
 20
46.1793
 30
0.0
 11
66.8016
 21
49.4097
 31
0.0
  0
LINE
  8
0
 62
     0
 10
66.8016
 20
49.4097
 30
0.0
 11
65.0766
 21
49.4097
 31
0.0
  0
LINE
  8
0
 62
     0
 10
65.0766
 20
49.4097
 30
0.0
 11
65.0766
 21
50.3301
 31
0.0
  0
LINE
  8
0
 62
     0
 10
65.0766
 20
50.3301
 30
0.0
 11
61.776
 21
50.3301
 31
0.0
  0
LINE
  8
0
 62
     0
 10
61.776
 20
50.3301
 30
0.0
 11
61.776
 21
49.4097
 31
0.0
  0
LINE
  8
0
 62
     0
 10
61.776
 20
49.4097
 30
0.0
 11
60.0523
 21
49.4097
 31
0.0
  0
LINE
  8
0
 62
     0
 10
60.0523
 20
49.4097
 30
0.0
 11
60.0523
 21
46.1793
 31
0.0
  0
LINE
  8
0
 62
     0
 10
60.0523
 20
46.1793
 30
0.0
 11
58.5265
 21
46.1793
 31
0.0
  0
LINE
  8
0
 62
     0
 10
58.5265
 20
46.1793
 30
0.0
 11
58.5265
 21
50.8801
 31
0.0
  0
LINE
  8
0
 62
     0
 10
58.5265
 20
50.8801
 30
0.0
 11
44.5273
 21
50.8801
 31
0.0
  0
LINE
  8
0
 62
     0
 10
75.4821
 20
50.8801
 30
0.0
 11
89.4828
 21
50.8801
 31
0.0
  0
LINE
  8
0
 62
     0
 10
89.4828
 20
50.8801
 30
0.0
 11
89.4828
 21
36.879
 31
0.0
  0
LINE
  8
0
 62
     0
 10
89.4828
 20
36.879
 30
0.0
 11
75.4821
 21
36.879
 31
0.0
  0
LINE
  8
0
 62
     0
 10
75.4821
 20
36.879
 30
0.0
 11
75.4821
 21
50.8801
 31
0.0
  0
LINE
  8
0
 62
     0
 10
94.5321
 20
50.8801
 30
0.0
 11
108.533
 21
50.8801
 31
0.0
  0
LINE
  8
0
 62
     0
 10
108.533
 20
50.8801
 30
0.0
 11
108.533
 21
36.879
 31
0.0
  0
LINE
  8
0
 62
     0
 10
108.533
 20
36.879
 30
0.0
 11
94.5321
 21
36.879
 31
0.0
  0
LINE
  8
0
 62
     0
 10
94.5321
 20
36.879
 30
0.0
 11
94.5321
 21
50.8801
 31
0.0
  0
LINE
  8
0
 62
     0
 10
113.582
 20
50.8801
 30
0.0
 11
127.583
 21
50.8801
 31
0.0
  0
LINE
  8
0
 62
     0
 10
127.583
 20
50.8801
 30
0.0
 11
127.583
 21
36.879
 31
0.0
  0
LINE
  8
0
 62
     0
 10
127.583
 20
36.879
 30
0.0
 11
113.582
 21
36.879
 31
0.0
  0
LINE
  8
0
 62
     0
 10
113.582
 20
36.879
 30
0.0
 11
113.582
 21
50.8801
 31
0.0
  0
LINE
  8
0
 62
     0
 10
132.632
 20
50.8801
 30
0.0
 11
146.633
 21
50.8801
 31
0.0
  0
LINE
  8
0
 62
     0
 10
146.633
 20
50.8801
 30
0.0
 11
146.633
 21
36.879
 31
0.0
  0
LINE
  8
0
 62
     0
 10
146.633
 20
36.879
 30
0.0
 11
132.632
 21
36.879
 31
0.0
  0
LINE
  8
0
 62
     0
 10
132.632
 20
36.879
 30
0.0
 11
132.632
 21
50.8801
 31
0.0
  0
LINE
  8
0
 62
     0
 10
151.682
 20
50.8801
 30
0.0
 11
165.683
 21
50.8801
 31
0.0
  0
LINE
  8
0
 62
     0
 10
165.683
 20
50.8801
 30
0.0
 11
165.683
 21
36.879
 31
0.0
  0
LINE
  8
0
 62
     0
 10
165.683
 20
36.879
 30
0.0
 11
151.682
 21
36.879
 31
0.0
  0
LINE
  8
0
 62
     0
 10
151.682
 20
36.879
 30
0.0
 11
151.682
 21
50.8801
 31
0.0
  0
LINE
  8
0
 62
     0
 10
170.732
 20
50.8801
 30
0.0
 11
184.733
 21
50.8801
 31
0.0
  0
LINE
  8
0
 62
     0
 10
184.733
 20
50.8801
 30
0.0
 11
184.733
 21
36.879
 31
0.0
  0
LINE
  8
0
 62
     0
 10
184.733
 20
36.879
 30
0.0
 11
170.732
 21
36.879
 31
0.0
  0
LINE
  8
0
 62
     0
 10
170.732
 20
36.879
 30
0.0
 11
170.732
 21
50.8801
 31
0.0
  0
LINE
  8
0
 62
     0
 10
189.782
 20
50.8801
 30
0.0
 11
203.783
 21
50.8801
 31
0.0
  0
LINE
  8
0
 62
     0
 10
203.783
 20
50.8801
 30
0.0
 11
203.783
 21
36.879
 31
0.0
  0
LINE
  8
0
 62
     0
 10
203.783
 20
36.879
 30
0.0
 11
189.782
 21
36.879
 31
0.0
  0
LINE
  8
0
 62
     0
 10
189.782
 20
36.879
 30
0.0
 11
189.782
 21
50.8801
 31
0.0
  0
LINE
  8
0
 62
     0
 10
208.832
 20
50.8801
 30
0.0
 11
222.833
 21
50.8801
 31
0.0
  0
LINE
  8
0
 62
     0
 10
222.833
 20
50.8801
 30
0.0
 11
222.833
 21
36.879
 31
0.0
  0
LINE
  8
0
 62
     0
 10
222.833
 20
36.879
 30
0.0
 11
208.832
 21
36.879
 31
0.0
  0
LINE
  8
0
 62
     0
 10
208.832
 20
36.879
 30
0.0
 11
208.832
 21
50.8801
 31
0.0
  0
LINE
  8
0
 62
     0
 10
227.882
 20
50.8801
 30
0.0
 11
241.883
 21
50.8801
 31
0.0
  0
LINE
  8
0
 62
     0
 10
241.883
 20
50.8801
 30
0.0
 11
241.883
 21
36.879
 31
0.0
  0
LINE
  8
0
 62
     0
 10
241.883
 20
36.879
 30
0.0
 11
227.882
 21
36.879
 31
0.0
  0
LINE
  8
0
 62
     0
 10
227.882
 20
36.879
 30
0.0
 11
227.882
 21
50.8801
 31
0.0
  0
LINE
  8
0
 62
     0
 10
246.932
 20
50.8801
 30
0.0
 11
260.933
 21
50.8801
 31
0.0
  0
LINE
  8
0
 62
     0
 10
260.933
 20
50.8801
 30
0.0
 11
260.933
 21
36.879
 31
0.0
  0
LINE
  8
0
 62
     0
 10
260.933
 20
36.879
 30
0.0
 11
246.932
 21
36.879
 31
0.0
  0
LINE
  8
0
 62
     0
 10
246.932
 20
36.879
 30
0.0
 11
246.932
 21
50.8801
 31
0.0
  0
LINE
  8
0
 62
     0
 10
273.127
 20
50.8801
 30
0.0
 11
287.127
 21
50.8801
 31
0.0
  0
LINE
  8
0
 62
     0
 10
287.127
 20
50.8801
 30
0.0
 11
287.127
 21
36.879
 31
0.0
  0
LINE
  8
0
 62
     0
 10
287.127
 20
36.879
 30
0.0
 11
273.127
 21
36.879
 31
0.0
  0
LINE
  8
0
 62
     0
 10
273.127
 20
36.879
 30
0.0
 11
273.127
 21
50.8801
 31
0.0
  0
LINE
  8
0
 62
     0
 10
299.321
 20
50.8801
 30
0.0
 11
313.32
 21
50.8801
 31
0.0
  0
LINE
  8
0
 62
     0
 10
313.32
 20
50.8801
 30
0.0
 11
313.32
 21
36.879
 31
0.0
  0
LINE
  8
0
 62
     0
 10
313.32
 20
36.879
 30
0.0
 11
299.321
 21
36.879
 31
0.0
  0
LINE
  8
0
 62
     0
 10
299.321
 20
36.879
 30
0.0
 11
299.321
 21
50.8801
 31
0.0
  0
LINE
  8
0
 62
     0
 10
318.371
 20
50.8801
 30
0.0
 11
332.37
 21
50.8801
 31
0.0
  0
LINE
  8
0
 62
     0
 10
332.37
 20
50.8801
 30
0.0
 11
332.37
 21
36.879
 31
0.0
  0
LINE
  8
0
 62
     0
 10
332.37
 20
36.879
 30
0.0
 11
318.371
 21
36.879
 31
0.0
  0
LINE
  8
0
 62
     0
 10
318.371
 20
36.879
 30
0.0
 11
318.371
 21
50.8801
 31
0.0
  0
LINE
  8
0
 62
     0
 10
287.413
 20
69.9301
 30
0.0
 11
287.413
 21
65.2293
 31
0.0
  0
LINE
  8
0
 62
     0
 10
287.413
 20
65.2293
 30
0.0
 11
285.888
 21
65.2293
 31
0.0
  0
LINE
  8
0
 62
     0
 10
285.888
 20
65.2293
 30
0.0
 11
285.888
 21
68.4597
 31
0.0
  0
LINE
  8
0
 62
     0
 10
285.888
 20
68.4597
 30
0.0
 11
284.164
 21
68.4597
 31
0.0
  0
LINE
  8
0
 62
     0
 10
284.164
 20
68.4597
 30
0.0
 11
284.164
 21
69.3801
 31
0.0
  0
LINE
  8
0
 62
     0
 10
284.164
 20
69.3801
 30
0.0
 11
280.863
 21
69.3801
 31
0.0
  0
LINE
  8
0
 62
     0
 10
280.863
 20
69.3801
 30
0.0
 11
280.863
 21
68.4597
 31
0.0
  0
LINE
  8
0
 62
     0
 10
280.863
 20
68.4597
 30
0.0
 11
279.138
 21
68.4597
 31
0.0
  0
LINE
  8
0
 62
     0
 10
279.138
 20
68.4597
 30
0.0
 11
279.138
 21
65.2293
 31
0.0
  0
LINE
  8
0
 62
     0
 10
279.138
 20
65.2293
 30
0.0
 11
278.314
 21
65.2293
 31
0.0
  0
LINE
  8
0
 62
     0
 10
278.314
 20
65.2293
 30
0.0
 11
278.314
 21
62.4293
 31
0.0
  0
LINE
  8
0
 62
     0
 10
278.314
 20
62.4293
 30
0.0
 11
279.138
 21
62.4293
 31
0.0
  0
LINE
  8
0
 62
     0
 10
279.138
 20
62.4293
 30
0.0
 11
279.138
 21
56.159
 31
0.0
  0
LINE
  8
0
 62
     0
 10
279.138
 20
56.159
 30
0.0
 11
280.863
 21
56.159
 31
0.0
  0
LINE
  8
0
 62
     0
 10
280.863
 20
56.159
 30
0.0
 11
280.863
 21
55.1794
 31
0.0
  0
LINE
  8
0
 62
     0
 10
280.863
 20
55.1794
 30
0.0
 11
284.164
 21
55.1794
 31
0.0
  0
LINE
  8
0
 62
     0
 10
284.164
 20
55.1794
 30
0.0
 11
284.164
 21
56.159
 31
0.0
  0
LINE
  8
0
 62
     0
 10
284.164
 20
56.159
 30
0.0
 11
285.888
 21
56.159
 31
0.0
  0
LINE
  8
0
 62
     0
 10
285.888
 20
56.159
 30
0.0
 11
285.888
 21
60.6294
 31
0.0
  0
LINE
  8
0
 62
     0
 10
285.888
 20
60.6294
 30
0.0
 11
287.413
 21
60.6294
 31
0.0
  0
LINE
  8
0
 62
     0
 10
287.413
 20
60.6294
 30
0.0
 11
287.413
 21
55.929
 31
0.0
  0
LINE
  8
0
 62
     0
 10
287.413
 20
55.929
 30
0.0
 11
301.414
 21
55.929
 31
0.0
  0
LINE
  8
0
 62
     0
 10
301.414
 20
55.929
 30
0.0
 11
301.414
 21
60.6294
 31
0.0
  0
LINE
  8
0
 62
     0
 10
301.414
 20
60.6294
 30
0.0
 11
302.938
 21
60.6294
 31
0.0
  0
LINE
  8
0
 62
     0
 10
302.938
 20
60.6294
 30
0.0
 11
302.938
 21
56.159
 31
0.0
  0
LINE
  8
0
 62
     0
 10
302.938
 20
56.159
 30
0.0
 11
304.663
 21
56.159
 31
0.0
  0
LINE
  8
0
 62
     0
 10
304.663
 20
56.159
 30
0.0
 11
304.663
 21
55.1794
 31
0.0
  0
LINE
  8
0
 62
     0
 10
304.663
 20
55.1794
 30
0.0
 11
307.964
 21
55.1794
 31
0.0
  0
LINE
  8
0
 62
     0
 10
307.964
 20
55.1794
 30
0.0
 11
307.964
 21
56.159
 31
0.0
  0
LINE
  8
0
 62
     0
 10
307.964
 20
56.159
 30
0.0
 11
309.688
 21
56.159
 31
0.0
  0
LINE
  8
0
 62
     0
 10
309.688
 20
56.159
 30
0.0
 11
309.688
 21
62.4293
 31
0.0
  0
LINE
  8
0
 62
     0
 10
309.688
 20
62.4293
 30
0.0
 11
310.513
 21
62.4293
 31
0.0
  0
LINE
  8
0
 62
     0
 10
310.513
 20
62.4293
 30
0.0
 11
310.513
 21
65.2293
 31
0.0
  0
LINE
  8
0
 62
     0
 10
310.513
 20
65.2293
 30
0.0
 11
309.688
 21
65.2293
 31
0.0
  0
LINE
  8
0
 62
     0
 10
309.688
 20
65.2293
 30
0.0
 11
309.688
 21
68.4597
 31
0.0
  0
LINE
  8
0
 62
     0
 10
309.688
 20
68.4597
 30
0.0
 11
307.964
 21
68.4597
 31
0.0
  0
LINE
  8
0
 62
     0
 10
307.964
 20
68.4597
 30
0.0
 11
307.964
 21
69.3801
 31
0.0
  0
LINE
  8
0
 62
     0
 10
307.964
 20
69.3801
 30
0.0
 11
304.663
 21
69.3801
 31
0.0
  0
LINE
  8
0
 62
     0
 10
304.663
 20
69.3801
 30
0.0
 11
304.663
 21
68.4597
 31
0.0
  0
LINE
  8
0
 62
     0
 10
304.663
 20
68.4597
 30
0.0
 11
302.938
 21
68.4597
 31
0.0
  0
LINE
  8
0
 62
     0
 10
302.938
 20
68.4597
 30
0.0
 11
302.938
 21
65.2293
 31
0.0
  0
LINE
  8
0
 62
     0
 10
302.938
 20
65.2293
 30
0.0
 11
301.414
 21
65.2293
 31
0.0
  0
LINE
  8
0
 62
     0
 10
301.414
 20
65.2293
 30
0.0
 11
301.414
 21
69.9301
 31
0.0
  0
LINE
  8
0
 62
     0
 10
301.414
 20
69.9301
 30
0.0
 11
287.413
 21
69.9301
 31
0.0
  0
LINE
  8
0
 62
     0
 10
39.7633
 20
69.9301
 30
0.0
 11
53.764
 21
69.9301
 31
0.0
  0
LINE
  8
0
 62
     0
 10
53.764
 20
69.9301
 30
0.0
 11
53.764
 21
55.929
 31
0.0
  0
LINE
  8
0
 62
     0
 10
53.764
 20
55.929
 30
0.0
 11
39.7633
 21
55.929
 31
0.0
  0
LINE
  8
0
 62
     0
 10
39.7633
 20
55.929
 30
0.0
 11
39.7633
 21
69.9301
 31
0.0
  0
LINE
  8
0
 62
     0
 10
65.9571
 20
69.9301
 30
0.0
 11
79.9578
 21
69.9301
 31
0.0
  0
LINE
  8
0
 62
     0
 10
79.9578
 20
69.9301
 30
0.0
 11
79.9578
 21
55.929
 31
0.0
  0
LINE
  8
0
 62
     0
 10
79.9578
 20
55.929
 30
0.0
 11
65.9571
 21
55.929
 31
0.0
  0
LINE
  8
0
 62
     0
 10
65.9571
 20
55.929
 30
0.0
 11
65.9571
 21
69.9301
 31
0.0
  0
LINE
  8
0
 62
     0
 10
85.0071
 20
69.9301
 30
0.0
 11
99.0078
 21
69.9301
 31
0.0
  0
LINE
  8
0
 62
     0
 10
99.0078
 20
69.9301
 30
0.0
 11
99.0078
 21
55.929
 31
0.0
  0
LINE
  8
0
 62
     0
 10
99.0078
 20
55.929
 30
0.0
 11
85.0071
 21
55.929
 31
0.0
  0
LINE
  8
0
 62
     0
 10
85.0071
 20
55.929
 30
0.0
 11
85.0071
 21
69.9301
 31
0.0
  0
LINE
  8
0
 62
     0
 10
104.057
 20
69.9301
 30
0.0
 11
118.058
 21
69.9301
 31
0.0
  0
LINE
  8
0
 62
     0
 10
118.058
 20
69.9301
 30
0.0
 11
118.058
 21
55.929
 31
0.0
  0
LINE
  8
0
 62
     0
 10
118.058
 20
55.929
 30
0.0
 11
104.057
 21
55.929
 31
0.0
  0
LINE
  8
0
 62
     0
 10
104.057
 20
55.929
 30
0.0
 11
104.057
 21
69.9301
 31
0.0
  0
LINE
  8
0
 62
     0
 10
123.107
 20
69.9301
 30
0.0
 11
137.108
 21
69.9301
 31
0.0
  0
LINE
  8
0
 62
     0
 10
137.108
 20
69.9301
 30
0.0
 11
137.108
 21
55.929
 31
0.0
  0
LINE
  8
0
 62
     0
 10
137.108
 20
55.929
 30
0.0
 11
123.107
 21
55.929
 31
0.0
  0
LINE
  8
0
 62
     0
 10
123.107
 20
55.929
 30
0.0
 11
123.107
 21
69.9301
 31
0.0
  0
LINE
  8
0
 62
     0
 10
142.157
 20
69.9301
 30
0.0
 11
156.158
 21
69.9301
 31
0.0
  0
LINE
  8
0
 62
     0
 10
156.158
 20
69.9301
 30
0.0
 11
156.158
 21
55.929
 31
0.0
  0
LINE
  8
0
 62
     0
 10
156.158
 20
55.929
 30
0.0
 11
142.157
 21
55.929
 31
0.0
  0
LINE
  8
0
 62
     0
 10
142.157
 20
55.929
 30
0.0
 11
142.157
 21
69.9301
 31
0.0
  0
LINE
  8
0
 62
     0
 10
161.207
 20
69.9301
 30
0.0
 11
175.208
 21
69.9301
 31
0.0
  0
LINE
  8
0
 62
     0
 10
175.208
 20
69.9301
 30
0.0
 11
175.208
 21
55.929
 31
0.0
  0
LINE
  8
0
 62
     0
 10
175.208
 20
55.929
 30
0.0
 11
161.207
 21
55.929
 31
0.0
  0
LINE
  8
0
 62
     0
 10
161.207
 20
55.929
 30
0.0
 11
161.207
 21
69.9301
 31
0.0
  0
LINE
  8
0
 62
     0
 10
180.257
 20
69.9301
 30
0.0
 11
194.258
 21
69.9301
 31
0.0
  0
LINE
  8
0
 62
     0
 10
194.258
 20
69.9301
 30
0.0
 11
194.258
 21
55.929
 31
0.0
  0
LINE
  8
0
 62
     0
 10
194.258
 20
55.929
 30
0.0
 11
180.257
 21
55.929
 31
0.0
  0
LINE
  8
0
 62
     0
 10
180.257
 20
55.929
 30
0.0
 11
180.257
 21
69.9301
 31
0.0
  0
LINE
  8
0
 62
     0
 10
199.307
 20
69.9301
 30
0.0
 11
213.308
 21
69.9301
 31
0.0
  0
LINE
  8
0
 62
     0
 10
213.308
 20
69.9301
 30
0.0
 11
213.308
 21
55.929
 31
0.0
  0
LINE
  8
0
 62
     0
 10
213.308
 20
55.929
 30
0.0
 11
199.307
 21
55.929
 31
0.0
  0
LINE
  8
0
 62
     0
 10
199.307
 20
55.929
 30
0.0
 11
199.307
 21
69.9301
 31
0.0
  0
LINE
  8
0
 62
     0
 10
218.357
 20
69.9301
 30
0.0
 11
232.358
 21
69.9301
 31
0.0
  0
LINE
  8
0
 62
     0
 10
232.358
 20
69.9301
 30
0.0
 11
232.358
 21
55.929
 31
0.0
  0
LINE
  8
0
 62
     0
 10
232.358
 20
55.929
 30
0.0
 11
218.357
 21
55.929
 31
0.0
  0
LINE
  8
0
 62
     0
 10
218.357
 20
55.929
 30
0.0
 11
218.357
 21
69.9301
 31
0.0
  0
LINE
  8
0
 62
     0
 10
237.407
 20
69.9301
 30
0.0
 11
251.408
 21
69.9301
 31
0.0
  0
LINE
  8
0
 62
     0
 10
251.408
 20
69.9301
 30
0.0
 11
251.408
 21
55.929
 31
0.0
  0
LINE
  8
0
 62
     0
 10
251.408
 20
55.929
 30
0.0
 11
237.407
 21
55.929
 31
0.0
  0
LINE
  8
0
 62
     0
 10
237.407
 20
55.929
 30
0.0
 11
237.407
 21
69.9301
 31
0.0
  0
LINE
  8
0
 62
     0
 10
256.457
 20
69.9301
 30
0.0
 11
270.458
 21
69.9301
 31
0.0
  0
LINE
  8
0
 62
     0
 10
270.458
 20
69.9301
 30
0.0
 11
270.458
 21
55.929
 31
0.0
  0
LINE
  8
0
 62
     0
 10
270.458
 20
55.929
 30
0.0
 11
256.457
 21
55.929
 31
0.0
  0
LINE
  8
0
 62
     0
 10
256.457
 20
55.929
 30
0.0
 11
256.457
 21
69.9301
 31
0.0
  0
LINE
  8
0
 62
     0
 10
318.371
 20
69.9301
 30
0.0
 11
332.37
 21
69.9301
 31
0.0
  0
LINE
  8
0
 62
     0
 10
332.37
 20
69.9301
 30
0.0
 11
332.37
 21
55.929
 31
0.0
  0
LINE
  8
0
 62
     0
 10
332.37
 20
55.929
 30
0.0
 11
318.371
 21
55.929
 31
0.0
  0
LINE
  8
0
 62
     0
 10
318.371
 20
55.929
 30
0.0
 11
318.371
 21
69.9301
 31
0.0
  0
LINE
  8
0
 62
     0
 10
37.3821
 20
88.9801
 30
0.0
 11
51.3828
 21
88.9801
 31
0.0
  0
LINE
  8
0
 62
     0
 10
51.3828
 20
88.9801
 30
0.0
 11
51.3828
 21
74.979
 31
0.0
  0
LINE
  8
0
 62
     0
 10
51.3828
 20
74.979
 30
0.0
 11
37.3821
 21
74.979
 31
0.0
  0
LINE
  8
0
 62
     0
 10
37.3821
 20
74.979
 30
0.0
 11
37.3821
 21
88.9801
 31
0.0
  0
LINE
  8
0
 62
     0
 10
61.196
 20
88.9801
 30
0.0
 11
75.1953
 21
88.9801
 31
0.0
  0
LINE
  8
0
 62
     0
 10
75.1953
 20
88.9801
 30
0.0
 11
75.1953
 21
74.979
 31
0.0
  0
LINE
  8
0
 62
     0
 10
75.1953
 20
74.979
 30
0.0
 11
61.196
 21
74.979
 31
0.0
  0
LINE
  8
0
 62
     0
 10
61.196
 20
74.979
 30
0.0
 11
61.196
 21
88.9801
 31
0.0
  0
LINE
  8
0
 62
     0
 10
80.2446
 20
88.9801
 30
0.0
 11
94.2439
 21
88.9801
 31
0.0
  0
LINE
  8
0
 62
     0
 10
94.2439
 20
88.9801
 30
0.0
 11
94.2439
 21
74.979
 31
0.0
  0
LINE
  8
0
 62
     0
 10
94.2439
 20
74.979
 30
0.0
 11
80.2446
 21
74.979
 31
0.0
  0
LINE
  8
0
 62
     0
 10
80.2446
 20
74.979
 30
0.0
 11
80.2446
 21
88.9801
 31
0.0
  0
LINE
  8
0
 62
     0
 10
99.2946
 20
88.9801
 30
0.0
 11
113.294
 21
88.9801
 31
0.0
  0
LINE
  8
0
 62
     0
 10
113.294
 20
88.9801
 30
0.0
 11
113.294
 21
74.979
 31
0.0
  0
LINE
  8
0
 62
     0
 10
113.294
 20
74.979
 30
0.0
 11
99.2946
 21
74.979
 31
0.0
  0
LINE
  8
0
 62
     0
 10
99.2946
 20
74.979
 30
0.0
 11
99.2946
 21
88.9801
 31
0.0
  0
LINE
  8
0
 62
     0
 10
118.346
 20
88.9801
 30
0.0
 11
132.345
 21
88.9801
 31
0.0
  0
LINE
  8
0
 62
     0
 10
132.345
 20
88.9801
 30
0.0
 11
132.345
 21
74.979
 31
0.0
  0
LINE
  8
0
 62
     0
 10
132.345
 20
74.979
 30
0.0
 11
118.346
 21
74.979
 31
0.0
  0
LINE
  8
0
 62
     0
 10
118.346
 20
74.979
 30
0.0
 11
118.346
 21
88.9801
 31
0.0
  0
LINE
  8
0
 62
     0
 10
137.396
 20
88.9801
 30
0.0
 11
151.395
 21
88.9801
 31
0.0
  0
LINE
  8
0
 62
     0
 10
151.395
 20
88.9801
 30
0.0
 11
151.395
 21
74.979
 31
0.0
  0
LINE
  8
0
 62
     0
 10
151.395
 20
74.979
 30
0.0
 11
137.396
 21
74.979
 31
0.0
  0
LINE
  8
0
 62
     0
 10
137.396
 20
74.979
 30
0.0
 11
137.396
 21
88.9801
 31
0.0
  0
LINE
  8
0
 62
     0
 10
156.446
 20
88.9801
 30
0.0
 11
170.445
 21
88.9801
 31
0.0
  0
LINE
  8
0
 62
     0
 10
170.445
 20
88.9801
 30
0.0
 11
170.445
 21
74.979
 31
0.0
  0
LINE
  8
0
 62
     0
 10
170.445
 20
74.979
 30
0.0
 11
156.446
 21
74.979
 31
0.0
  0
LINE
  8
0
 62
     0
 10
156.446
 20
74.979
 30
0.0
 11
156.446
 21
88.9801
 31
0.0
  0
LINE
  8
0
 62
     0
 10
175.496
 20
88.9801
 30
0.0
 11
189.495
 21
88.9801
 31
0.0
  0
LINE
  8
0
 62
     0
 10
189.495
 20
88.9801
 30
0.0
 11
189.495
 21
74.979
 31
0.0
  0
LINE
  8
0
 62
     0
 10
189.495
 20
74.979
 30
0.0
 11
175.496
 21
74.979
 31
0.0
  0
LINE
  8
0
 62
     0
 10
175.496
 20
74.979
 30
0.0
 11
175.496
 21
88.9801
 31
0.0
  0
LINE
  8
0
 62
     0
 10
194.546
 20
88.9801
 30
0.0
 11
208.545
 21
88.9801
 31
0.0
  0
LINE
  8
0
 62
     0
 10
208.545
 20
88.9801
 30
0.0
 11
208.545
 21
74.979
 31
0.0
  0
LINE
  8
0
 62
     0
 10
208.545
 20
74.979
 30
0.0
 11
194.546
 21
74.979
 31
0.0
  0
LINE
  8
0
 62
     0
 10
194.546
 20
74.979
 30
0.0
 11
194.546
 21
88.9801
 31
0.0
  0
LINE
  8
0
 62
     0
 10
213.596
 20
88.9801
 30
0.0
 11
227.595
 21
88.9801
 31
0.0
  0
LINE
  8
0
 62
     0
 10
227.595
 20
88.9801
 30
0.0
 11
227.595
 21
74.979
 31
0.0
  0
LINE
  8
0
 62
     0
 10
227.595
 20
74.979
 30
0.0
 11
213.596
 21
74.979
 31
0.0
  0
LINE
  8
0
 62
     0
 10
213.596
 20
74.979
 30
0.0
 11
213.596
 21
88.9801
 31
0.0
  0
LINE
  8
0
 62
     0
 10
232.646
 20
88.9801
 30
0.0
 11
246.645
 21
88.9801
 31
0.0
  0
LINE
  8
0
 62
     0
 10
246.645
 20
88.9801
 30
0.0
 11
246.645
 21
74.979
 31
0.0
  0
LINE
  8
0
 62
     0
 10
246.645
 20
74.979
 30
0.0
 11
232.646
 21
74.979
 31
0.0
  0
LINE
  8
0
 62
     0
 10
232.646
 20
74.979
 30
0.0
 11
232.646
 21
88.9801
 31
0.0
  0
LINE
  8
0
 62
     0
 10
251.696
 20
88.9801
 30
0.0
 11
265.695
 21
88.9801
 31
0.0
  0
LINE
  8
0
 62
     0
 10
265.695
 20
88.9801
 30
0.0
 11
265.695
 21
74.979
 31
0.0
  0
LINE
  8
0
 62
     0
 10
265.695
 20
74.979
 30
0.0
 11
251.696
 21
74.979
 31
0.0
  0
LINE
  8
0
 62
     0
 10
251.696
 20
74.979
 30
0.0
 11
251.696
 21
88.9801
 31
0.0
  0
LINE
  8
0
 62
     0
 10
270.746
 20
88.9801
 30
0.0
 11
284.745
 21
88.9801
 31
0.0
  0
LINE
  8
0
 62
     0
 10
284.745
 20
88.9801
 30
0.0
 11
284.745
 21
74.979
 31
0.0
  0
LINE
  8
0
 62
     0
 10
284.745
 20
74.979
 30
0.0
 11
270.746
 21
74.979
 31
0.0
  0
LINE
  8
0
 62
     0
 10
270.746
 20
74.979
 30
0.0
 11
270.746
 21
88.9801
 31
0.0
  0
LINE
  8
0
 62
     0
 10
294.557
 20
88.9801
 30
0.0
 11
308.558
 21
88.9801
 31
0.0
  0
LINE
  8
0
 62
     0
 10
308.558
 20
88.9801
 30
0.0
 11
308.558
 21
74.979
 31
0.0
  0
LINE
  8
0
 62
     0
 10
308.558
 20
74.979
 30
0.0
 11
294.557
 21
74.979
 31
0.0
  0
LINE
  8
0
 62
     0
 10
294.557
 20
74.979
 30
0.0
 11
294.557
 21
88.9801
 31
0.0
  0
LINE
  8
0
 62
     0
 10
318.371
 20
88.9801
 30
0.0
 11
332.37
 21
88.9801
 31
0.0
  0
LINE
  8
0
 62
     0
 10
332.37
 20
88.9801
 30
0.0
 11
332.37
 21
74.979
 31
0.0
  0
LINE
  8
0
 62
     0
 10
332.37
 20
74.979
 30
0.0
 11
318.371
 21
74.979
 31
0.0
  0
LINE
  8
0
 62
     0
 10
318.371
 20
74.979
 30
0.0
 11
318.371
 21
88.9801
 31
0.0
  0
LINE
  8
0
 62
     0
 10
289.796
 20
108.03
 30
0.0
 11
289.796
 21
103.329
 31
0.0
  0
LINE
  8
0
 62
     0
 10
289.796
 20
103.329
 30
0.0
 11
288.271
 21
103.329
 31
0.0
  0
LINE
  8
0
 62
     0
 10
288.271
 20
103.329
 30
0.0
 11
288.271
 21
106.56
 31
0.0
  0
LINE
  8
0
 62
     0
 10
288.271
 20
106.56
 30
0.0
 11
286.545
 21
106.56
 31
0.0
  0
LINE
  8
0
 62
     0
 10
286.545
 20
106.56
 30
0.0
 11
286.545
 21
107.48
 31
0.0
  0
LINE
  8
0
 62
     0
 10
286.545
 20
107.48
 30
0.0
 11
283.246
 21
107.48
 31
0.0
  0
LINE
  8
0
 62
     0
 10
283.246
 20
107.48
 30
0.0
 11
283.246
 21
106.56
 31
0.0
  0
LINE
  8
0
 62
     0
 10
283.246
 20
106.56
 30
0.0
 11
281.521
 21
106.56
 31
0.0
  0
LINE
  8
0
 62
     0
 10
281.521
 20
106.56
 30
0.0
 11
281.521
 21
103.329
 31
0.0
  0
LINE
  8
0
 62
     0
 10
281.521
 20
103.329
 30
0.0
 11
280.695
 21
103.329
 31
0.0
  0
LINE
  8
0
 62
     0
 10
280.695
 20
103.329
 30
0.0
 11
280.695
 21
100.529
 31
0.0
  0
LINE
  8
0
 62
     0
 10
280.695
 20
100.529
 30
0.0
 11
281.521
 21
100.529
 31
0.0
  0
LINE
  8
0
 62
     0
 10
281.521
 20
100.529
 30
0.0
 11
281.521
 21
94.2591
 31
0.0
  0
LINE
  8
0
 62
     0
 10
281.521
 20
94.2591
 30
0.0
 11
283.246
 21
94.2591
 31
0.0
  0
LINE
  8
0
 62
     0
 10
283.246
 20
94.2591
 30
0.0
 11
283.246
 21
93.2794
 31
0.0
  0
LINE
  8
0
 62
     0
 10
283.246
 20
93.2794
 30
0.0
 11
286.545
 21
93.2794
 31
0.0
  0
LINE
  8
0
 62
     0
 10
286.545
 20
93.2794
 30
0.0
 11
286.545
 21
94.2591
 31
0.0
  0
LINE
  8
0
 62
     0
 10
286.545
 20
94.2591
 30
0.0
 11
288.271
 21
94.2591
 31
0.0
  0
LINE
  8
0
 62
     0
 10
288.271
 20
94.2591
 30
0.0
 11
288.271
 21
98.7294
 31
0.0
  0
LINE
  8
0
 62
     0
 10
288.271
 20
98.7294
 30
0.0
 11
289.796
 21
98.7294
 31
0.0
  0
LINE
  8
0
 62
     0
 10
289.796
 20
98.7294
 30
0.0
 11
289.796
 21
94.029
 31
0.0
  0
LINE
  8
0
 62
     0
 10
289.796
 20
94.029
 30
0.0
 11
303.795
 21
94.029
 31
0.0
  0
LINE
  8
0
 62
     0
 10
303.795
 20
94.029
 30
0.0
 11
303.795
 21
98.7294
 31
0.0
  0
LINE
  8
0
 62
     0
 10
303.795
 20
98.7294
 30
0.0
 11
305.321
 21
98.7294
 31
0.0
  0
LINE
  8
0
 62
     0
 10
305.321
 20
98.7294
 30
0.0
 11
305.321
 21
94.2591
 31
0.0
  0
LINE
  8
0
 62
     0
 10
305.321
 20
94.2591
 30
0.0
 11
307.045
 21
94.2591
 31
0.0
  0
LINE
  8
0
 62
     0
 10
307.045
 20
94.2591
 30
0.0
 11
307.045
 21
93.2794
 31
0.0
  0
LINE
  8
0
 62
     0
 10
307.045
 20
93.2794
 30
0.0
 11
310.345
 21
93.2794
 31
0.0
  0
LINE
  8
0
 62
     0
 10
310.345
 20
93.2794
 30
0.0
 11
310.345
 21
94.2591
 31
0.0
  0
LINE
  8
0
 62
     0
 10
310.345
 20
94.2591
 30
0.0
 11
312.07
 21
94.2591
 31
0.0
  0
LINE
  8
0
 62
     0
 10
312.07
 20
94.2591
 30
0.0
 11
312.07
 21
100.529
 31
0.0
  0
LINE
  8
0
 62
     0
 10
312.07
 20
100.529
 30
0.0
 11
312.896
 21
100.529
 31
0.0
  0
LINE
  8
0
 62
     0
 10
312.896
 20
100.529
 30
0.0
 11
312.896
 21
103.329
 31
0.0
  0
LINE
  8
0
 62
     0
 10
312.896
 20
103.329
 30
0.0
 11
312.07
 21
103.329
 31
0.0
  0
LINE
  8
0
 62
     0
 10
312.07
 20
103.329
 30
0.0
 11
312.07
 21
106.56
 31
0.0
  0
LINE
  8
0
 62
     0
 10
312.07
 20
106.56
 30
0.0
 11
310.345
 21
106.56
 31
0.0
  0
LINE
  8
0
 62
     0
 10
310.345
 20
106.56
 30
0.0
 11
310.345
 21
107.48
 31
0.0
  0
LINE
  8
0
 62
     0
 10
310.345
 20
107.48
 30
0.0
 11
307.045
 21
107.48
 31
0.0
  0
LINE
  8
0
 62
     0
 10
307.045
 20
107.48
 30
0.0
 11
307.045
 21
106.56
 31
0.0
  0
LINE
  8
0
 62
     0
 10
307.045
 20
106.56
 30
0.0
 11
305.321
 21
106.56
 31
0.0
  0
LINE
  8
0
 62
     0
 10
305.321
 20
106.56
 30
0.0
 11
305.321
 21
103.329
 31
0.0
  0
LINE
  8
0
 62
     0
 10
305.321
 20
103.329
 30
0.0
 11
303.795
 21
103.329
 31
0.0
  0
LINE
  8
0
 62
     0
 10
303.795
 20
103.329
 30
0.0
 11
303.795
 21
108.03
 31
0.0
  0
LINE
  8
0
 62
     0
 10
303.795
 20
108.03
 30
0.0
 11
289.796
 21
108.03
 31
0.0
  0
LINE
  8
0
 62
     0
 10
32.6209
 20
108.03
 30
0.0
 11
46.6203
 21
108.03
 31
0.0
  0
LINE
  8
0
 62
     0
 10
46.6203
 20
108.03
 30
0.0
 11
46.6203
 21
94.029
 31
0.0
  0
LINE
  8
0
 62
     0
 10
46.6203
 20
94.029
 30
0.0
 11
32.6209
 21
94.029
 31
0.0
  0
LINE
  8
0
 62
     0
 10
32.6209
 20
94.029
 30
0.0
 11
32.6209
 21
108.03
 31
0.0
  0
LINE
  8
0
 62
     0
 10
51.671
 20
108.03
 30
0.0
 11
65.6703
 21
108.03
 31
0.0
  0
LINE
  8
0
 62
     0
 10
65.6703
 20
108.03
 30
0.0
 11
65.6703
 21
94.029
 31
0.0
  0
LINE
  8
0
 62
     0
 10
65.6703
 20
94.029
 30
0.0
 11
51.671
 21
94.029
 31
0.0
  0
LINE
  8
0
 62
     0
 10
51.671
 20
94.029
 30
0.0
 11
51.671
 21
108.03
 31
0.0
  0
LINE
  8
0
 62
     0
 10
70.721
 20
108.03
 30
0.0
 11
84.7203
 21
108.03
 31
0.0
  0
LINE
  8
0
 62
     0
 10
84.7203
 20
108.03
 30
0.0
 11
84.7203
 21
94.029
 31
0.0
  0
LINE
  8
0
 62
     0
 10
84.7203
 20
94.029
 30
0.0
 11
70.721
 21
94.029
 31
0.0
  0
LINE
  8
0
 62
     0
 10
70.721
 20
94.029
 30
0.0
 11
70.721
 21
108.03
 31
0.0
  0
LINE
  8
0
 62
     0
 10
89.771
 20
108.03
 30
0.0
 11
103.77
 21
108.03
 31
0.0
  0
LINE
  8
0
 62
     0
 10
103.77
 20
108.03
 30
0.0
 11
103.77
 21
94.029
 31
0.0
  0
LINE
  8
0
 62
     0
 10
103.77
 20
94.029
 30
0.0
 11
89.771
 21
94.029
 31
0.0
  0
LINE
  8
0
 62
     0
 10
89.771
 20
94.029
 30
0.0
 11
89.771
 21
108.03
 31
0.0
  0
LINE
  8
0
 62
     0
 10
108.821
 20
108.03
 30
0.0
 11
122.82
 21
108.03
 31
0.0
  0
LINE
  8
0
 62
     0
 10
122.82
 20
108.03
 30
0.0
 11
122.82
 21
94.029
 31
0.0
  0
LINE
  8
0
 62
     0
 10
122.82
 20
94.029
 30
0.0
 11
108.821
 21
94.029
 31
0.0
  0
LINE
  8
0
 62
     0
 10
108.821
 20
94.029
 30
0.0
 11
108.821
 21
108.03
 31
0.0
  0
LINE
  8
0
 62
     0
 10
127.871
 20
108.03
 30
0.0
 11
141.87
 21
108.03
 31
0.0
  0
LINE
  8
0
 62
     0
 10
141.87
 20
108.03
 30
0.0
 11
141.87
 21
94.029
 31
0.0
  0
LINE
  8
0
 62
     0
 10
141.87
 20
94.029
 30
0.0
 11
127.871
 21
94.029
 31
0.0
  0
LINE
  8
0
 62
     0
 10
127.871
 20
94.029
 30
0.0
 11
127.871
 21
108.03
 31
0.0
  0
LINE
  8
0
 62
     0
 10
146.921
 20
108.03
 30
0.0
 11
160.92
 21
108.03
 31
0.0
  0
LINE
  8
0
 62
     0
 10
160.92
 20
108.03
 30
0.0
 11
160.92
 21
94.029
 31
0.0
  0
LINE
  8
0
 62
     0
 10
160.92
 20
94.029
 30
0.0
 11
146.921
 21
94.029
 31
0.0
  0
LINE
  8
0
 62
     0
 10
146.921
 20
94.029
 30
0.0
 11
146.921
 21
108.03
 31
0.0
  0
LINE
  8
0
 62
     0
 10
165.971
 20
108.03
 30
0.0
 11
179.97
 21
108.03
 31
0.0
  0
LINE
  8
0
 62
     0
 10
179.97
 20
108.03
 30
0.0
 11
179.97
 21
94.029
 31
0.0
  0
LINE
  8
0
 62
     0
 10
179.97
 20
94.029
 30
0.0
 11
165.971
 21
94.029
 31
0.0
  0
LINE
  8
0
 62
     0
 10
165.971
 20
94.029
 30
0.0
 11
165.971
 21
108.03
 31
0.0
  0
LINE
  8
0
 62
     0
 10
185.021
 20
108.03
 30
0.0
 11
199.02
 21
108.03
 31
0.0
  0
LINE
  8
0
 62
     0
 10
199.02
 20
108.03
 30
0.0
 11
199.02
 21
94.029
 31
0.0
  0
LINE
  8
0
 62
     0
 10
199.02
 20
94.029
 30
0.0
 11
185.021
 21
94.029
 31
0.0
  0
LINE
  8
0
 62
     0
 10
185.021
 20
94.029
 30
0.0
 11
185.021
 21
108.03
 31
0.0
  0
LINE
  8
0
 62
     0
 10
204.071
 20
108.03
 30
0.0
 11
218.07
 21
108.03
 31
0.0
  0
LINE
  8
0
 62
     0
 10
218.07
 20
108.03
 30
0.0
 11
218.07
 21
94.029
 31
0.0
  0
LINE
  8
0
 62
     0
 10
218.07
 20
94.029
 30
0.0
 11
204.071
 21
94.029
 31
0.0
  0
LINE
  8
0
 62
     0
 10
204.071
 20
94.029
 30
0.0
 11
204.071
 21
108.03
 31
0.0
  0
LINE
  8
0
 62
     0
 10
223.121
 20
108.03
 30
0.0
 11
237.12
 21
108.03
 31
0.0
  0
LINE
  8
0
 62
     0
 10
237.12
 20
108.03
 30
0.0
 11
237.12
 21
94.029
 31
0.0
  0
LINE
  8
0
 62
     0
 10
237.12
 20
94.029
 30
0.0
 11
223.121
 21
94.029
 31
0.0
  0
LINE
  8
0
 62
     0
 10
223.121
 20
94.029
 30
0.0
 11
223.121
 21
108.03
 31
0.0
  0
LINE
  8
0
 62
     0
 10
242.171
 20
108.03
 30
0.0
 11
256.17
 21
108.03
 31
0.0
  0
LINE
  8
0
 62
     0
 10
256.17
 20
108.03
 30
0.0
 11
256.17
 21
94.029
 31
0.0
  0
LINE
  8
0
 62
     0
 10
256.17
 20
94.029
 30
0.0
 11
242.171
 21
94.029
 31
0.0
  0
LINE
  8
0
 62
     0
 10
242.171
 20
94.029
 30
0.0
 11
242.171
 21
108.03
 31
0.0
  0
LINE
  8
0
 62
     0
 10
261.221
 20
108.03
 30
0.0
 11
275.22
 21
108.03
 31
0.0
  0
LINE
  8
0
 62
     0
 10
275.22
 20
108.03
 30
0.0
 11
275.22
 21
94.029
 31
0.0
  0
LINE
  8
0
 62
     0
 10
275.22
 20
94.029
 30
0.0
 11
261.221
 21
94.029
 31
0.0
  0
LINE
  8
0
 62
     0
 10
261.221
 20
94.029
 30
0.0
 11
261.221
 21
108.03
 31
0.0
  0
LINE
  8
0
 62
     0
 10
318.371
 20
108.03
 30
0.0
 11
332.37
 21
108.03
 31
0.0
  0
LINE
  8
0
 62
     0
 10
332.37
 20
108.03
 30
0.0
 11
332.37
 21
94.029
 31
0.0
  0
LINE
  8
0
 62
     0
 10
332.37
 20
94.029
 30
0.0
 11
318.371
 21
94.029
 31
0.0
  0
LINE
  8
0
 62
     0
 10
318.371
 20
94.029
 30
0.0
 11
318.371
 21
108.03
 31
0.0
  0
LINE
  8
0
 62
     0
 10
32.6209
 20
127.08
 30
0.0
 11
46.6203
 21
127.08
 31
0.0
  0
LINE
  8
0
 62
     0
 10
46.6203
 20
127.08
 30
0.0
 11
46.6203
 21
113.079
 31
0.0
  0
LINE
  8
0
 62
     0
 10
46.6203
 20
113.079
 30
0.0
 11
32.6209
 21
113.079
 31
0.0
  0
LINE
  8
0
 62
     0
 10
32.6209
 20
113.079
 30
0.0
 11
32.6209
 21
127.08
 31
0.0
  0
LINE
  8
0
 62
     0
 10
51.671
 20
127.08
 30
0.0
 11
65.6703
 21
127.08
 31
0.0
  0
LINE
  8
0
 62
     0
 10
65.6703
 20
127.08
 30
0.0
 11
65.6703
 21
113.079
 31
0.0
  0
LINE
  8
0
 62
     0
 10
65.6703
 20
113.079
 30
0.0
 11
51.671
 21
113.079
 31
0.0
  0
LINE
  8
0
 62
     0
 10
51.671
 20
113.079
 30
0.0
 11
51.671
 21
127.08
 31
0.0
  0
LINE
  8
0
 62
     0
 10
70.721
 20
127.08
 30
0.0
 11
84.7203
 21
127.08
 31
0.0
  0
LINE
  8
0
 62
     0
 10
84.7203
 20
127.08
 30
0.0
 11
84.7203
 21
113.079
 31
0.0
  0
LINE
  8
0
 62
     0
 10
84.7203
 20
113.079
 30
0.0
 11
70.721
 21
113.079
 31
0.0
  0
LINE
  8
0
 62
     0
 10
70.721
 20
113.079
 30
0.0
 11
70.721
 21
127.08
 31
0.0
  0
LINE
  8
0
 62
     0
 10
89.771
 20
127.08
 30
0.0
 11
103.77
 21
127.08
 31
0.0
  0
LINE
  8
0
 62
     0
 10
103.77
 20
127.08
 30
0.0
 11
103.77
 21
113.079
 31
0.0
  0
LINE
  8
0
 62
     0
 10
103.77
 20
113.079
 30
0.0
 11
89.771
 21
113.079
 31
0.0
  0
LINE
  8
0
 62
     0
 10
89.771
 20
113.079
 30
0.0
 11
89.771
 21
127.08
 31
0.0
  0
LINE
  8
0
 62
     0
 10
108.821
 20
127.08
 30
0.0
 11
122.82
 21
127.08
 31
0.0
  0
LINE
  8
0
 62
     0
 10
122.82
 20
127.08
 30
0.0
 11
122.82
 21
113.079
 31
0.0
  0
LINE
  8
0
 62
     0
 10
122.82
 20
113.079
 30
0.0
 11
108.821
 21
113.079
 31
0.0
  0
LINE
  8
0
 62
     0
 10
108.821
 20
113.079
 30
0.0
 11
108.821
 21
127.08
 31
0.0
  0
LINE
  8
0
 62
     0
 10
127.871
 20
127.08
 30
0.0
 11
141.87
 21
127.08
 31
0.0
  0
LINE
  8
0
 62
     0
 10
141.87
 20
127.08
 30
0.0
 11
141.87
 21
113.079
 31
0.0
  0
LINE
  8
0
 62
     0
 10
141.87
 20
113.079
 30
0.0
 11
127.871
 21
113.079
 31
0.0
  0
LINE
  8
0
 62
     0
 10
127.871
 20
113.079
 30
0.0
 11
127.871
 21
127.08
 31
0.0
  0
LINE
  8
0
 62
     0
 10
146.921
 20
127.08
 30
0.0
 11
160.92
 21
127.08
 31
0.0
  0
LINE
  8
0
 62
     0
 10
160.92
 20
127.08
 30
0.0
 11
160.92
 21
113.079
 31
0.0
  0
LINE
  8
0
 62
     0
 10
160.92
 20
113.079
 30
0.0
 11
146.921
 21
113.079
 31
0.0
  0
LINE
  8
0
 62
     0
 10
146.921
 20
113.079
 30
0.0
 11
146.921
 21
127.08
 31
0.0
  0
LINE
  8
0
 62
     0
 10
165.971
 20
127.08
 30
0.0
 11
179.97
 21
127.08
 31
0.0
  0
LINE
  8
0
 62
     0
 10
179.97
 20
127.08
 30
0.0
 11
179.97
 21
113.079
 31
0.0
  0
LINE
  8
0
 62
     0
 10
179.97
 20
113.079
 30
0.0
 11
165.971
 21
113.079
 31
0.0
  0
LINE
  8
0
 62
     0
 10
165.971
 20
113.079
 30
0.0
 11
165.971
 21
127.08
 31
0.0
  0
LINE
  8
0
 62
     0
 10
185.021
 20
127.08
 30
0.0
 11
199.02
 21
127.08
 31
0.0
  0
LINE
  8
0
 62
     0
 10
199.02
 20
127.08
 30
0.0
 11
199.02
 21
113.079
 31
0.0
  0
LINE
  8
0
 62
     0
 10
199.02
 20
113.079
 30
0.0
 11
185.021
 21
113.079
 31
0.0
  0
LINE
  8
0
 62
     0
 10
185.021
 20
113.079
 30
0.0
 11
185.021
 21
127.08
 31
0.0
  0
LINE
  8
0
 62
     0
 10
204.071
 20
127.08
 30
0.0
 11
218.07
 21
127.08
 31
0.0
  0
LINE
  8
0
 62
     0
 10
218.07
 20
127.08
 30
0.0
 11
218.07
 21
113.079
 31
0.0
  0
LINE
  8
0
 62
     0
 10
218.07
 20
113.079
 30
0.0
 11
204.071
 21
113.079
 31
0.0
  0
LINE
  8
0
 62
     0
 10
204.071
 20
113.079
 30
0.0
 11
204.071
 21
127.08
 31
0.0
  0
LINE
  8
0
 62
     0
 10
223.121
 20
127.08
 30
0.0
 11
237.12
 21
127.08
 31
0.0
  0
LINE
  8
0
 62
     0
 10
237.12
 20
127.08
 30
0.0
 11
237.12
 21
113.079
 31
0.0
  0
LINE
  8
0
 62
     0
 10
237.12
 20
113.079
 30
0.0
 11
223.121
 21
113.079
 31
0.0
  0
LINE
  8
0
 62
     0
 10
223.121
 20
113.079
 30
0.0
 11
223.121
 21
127.08
 31
0.0
  0
LINE
  8
0
 62
     0
 10
242.171
 20
127.08
 30
0.0
 11
256.17
 21
127.08
 31
0.0
  0
LINE
  8
0
 62
     0
 10
256.17
 20
127.08
 30
0.0
 11
256.17
 21
113.079
 31
0.0
  0
LINE
  8
0
 62
     0
 10
256.17
 20
113.079
 30
0.0
 11
242.171
 21
113.079
 31
0.0
  0
LINE
  8
0
 62
     0
 10
242.171
 20
113.079
 30
0.0
 11
242.171
 21
127.08
 31
0.0
  0
LINE
  8
0
 62
     0
 10
261.221
 20
127.08
 30
0.0
 11
275.22
 21
127.08
 31
0.0
  0
LINE
  8
0
 62
     0
 10
275.22
 20
127.08
 30
0.0
 11
275.22
 21
113.079
 31
0.0
  0
LINE
  8
0
 62
     0
 10
275.22
 20
113.079
 30
0.0
 11
261.221
 21
113.079
 31
0.0
  0
LINE
  8
0
 62
     0
 10
261.221
 20
113.079
 30
0.0
 11
261.221
 21
127.08
 31
0.0
  0
LINE
  8
0
 62
     0
 10
280.271
 20
127.08
 30
0.0
 11
294.27
 21
127.08
 31
0.0
  0
LINE
  8
0
 62
     0
 10
294.27
 20
127.08
 30
0.0
 11
294.27
 21
113.079
 31
0.0
  0
LINE
  8
0
 62
     0
 10
294.27
 20
113.079
 30
0.0
 11
280.271
 21
113.079
 31
0.0
  0
LINE
  8
0
 62
     0
 10
280.271
 20
113.079
 30
0.0
 11
280.271
 21
127.08
 31
0.0
  0
LINE
  8
0
 62
     0
 10
299.321
 20
127.08
 30
0.0
 11
313.32
 21
127.08
 31
0.0
  0
LINE
  8
0
 62
     0
 10
313.32
 20
127.08
 30
0.0
 11
313.32
 21
113.079
 31
0.0
  0
LINE
  8
0
 62
     0
 10
313.32
 20
113.079
 30
0.0
 11
299.321
 21
113.079
 31
0.0
  0
LINE
  8
0
 62
     0
 10
299.321
 20
113.079
 30
0.0
 11
299.321
 21
127.08
 31
0.0
  0
LINE
  8
0
 62
     0
 10
318.371
 20
127.08
 30
0.0
 11
332.37
 21
127.08
 31
0.0
  0
LINE
  8
0
 62
     0
 10
332.37
 20
127.08
 30
0.0
 11
332.37
 21
113.079
 31
0.0
  0
LINE
  8
0
 62
     0
 10
332.37
 20
113.079
 30
0.0
 11
318.371
 21
113.079
 31
0.0
  0
LINE
  8
0
 62
     0
 10
318.371
 20
113.079
 30
0.0
 11
318.371
 21
127.08
 31
0.0
  0
LINE
  8
0
 62
     0
 10
116
 20
136.744
 30
0.0
 11
115.372
 21
136.426
 31
0.0
  0
LINE
  8
0
 62
     0
 10
115.372
 20
136.426
 30
0.0
 11
114.876
 21
135.927
 31
0.0
  0
LINE
  8
0
 62
     0
 10
114.876
 20
135.927
 30
0.0
 11
114.555
 21
135.3
 31
0.0
  0
LINE
  8
0
 62
     0
 10
114.555
 20
135.3
 30
0.0
 11
114.446
 21
134.604
 31
0.0
  0
LINE
  8
0
 62
     0
 10
114.446
 20
134.604
 30
0.0
 11
114.555
 21
133.91
 31
0.0
  0
LINE
  8
0
 62
     0
 10
114.555
 20
133.91
 30
0.0
 11
114.876
 21
133.283
 31
0.0
  0
LINE
  8
0
 62
     0
 10
114.876
 20
133.283
 30
0.0
 11
115.372
 21
132.785
 31
0.0
  0
LINE
  8
0
 62
     0
 10
115.372
 20
132.785
 30
0.0
 11
116
 21
132.465
 31
0.0
  0
LINE
  8
0
 62
     0
 10
116
 20
132.465
 30
0.0
 11
116.695
 21
132.355
 31
0.0
  0
LINE
  8
0
 62
     0
 10
116.695
 20
132.355
 30
0.0
 11
117.391
 21
132.465
 31
0.0
  0
LINE
  8
0
 62
     0
 10
117.391
 20
132.465
 30
0.0
 11
118.018
 21
132.785
 31
0.0
  0
LINE
  8
0
 62
     0
 10
118.018
 20
132.785
 30
0.0
 11
118.515
 21
133.283
 31
0.0
  0
LINE
  8
0
 62
     0
 10
118.515
 20
133.283
 30
0.0
 11
118.835
 21
133.91
 31
0.0
  0
LINE
  8
0
 62
     0
 10
118.835
 20
133.91
 30
0.0
 11
118.945
 21
134.604
 31
0.0
  0
LINE
  8
0
 62
     0
 10
118.945
 20
134.604
 30
0.0
 11
118.835
 21
135.3
 31
0.0
  0
LINE
  8
0
 62
     0
 10
118.835
 20
135.3
 30
0.0
 11
118.515
 21
135.927
 31
0.0
  0
LINE
  8
0
 62
     0
 10
118.515
 20
135.927
 30
0.0
 11
118.018
 21
136.426
 31
0.0
  0
LINE
  8
0
 62
     0
 10
118.018
 20
136.426
 30
0.0
 11
117.391
 21
136.744
 31
0.0
  0
LINE
  8
0
 62
     0
 10
117.391
 20
136.744
 30
0.0
 11
116.695
 21
136.854
 31
0.0
  0
LINE
  8
0
 62
     0
 10
116.695
 20
136.854
 30
0.0
 11
116
 21
136.744
 31
0.0
  0
LINE
  8
0
 62
     0
 10
227.601
 20
136.744
 30
0.0
 11
226.974
 21
136.426
 31
0.0
  0
LINE
  8
0
 62
     0
 10
226.974
 20
136.426
 30
0.0
 11
226.475
 21
135.927
 31
0.0
  0
LINE
  8
0
 62
     0
 10
226.475
 20
135.927
 30
0.0
 11
226.155
 21
135.3
 31
0.0
  0
LINE
  8
0
 62
     0
 10
226.155
 20
135.3
 30
0.0
 11
226.045
 21
134.604
 31
0.0
  0
LINE
  8
0
 62
     0
 10
226.045
 20
134.604
 30
0.0
 11
226.155
 21
133.91
 31
0.0
  0
LINE
  8
0
 62
     0
 10
226.155
 20
133.91
 30
0.0
 11
226.475
 21
133.283
 31
0.0
  0
LINE
  8
0
 62
     0
 10
226.475
 20
133.283
 30
0.0
 11
226.974
 21
132.785
 31
0.0
  0
LINE
  8
0
 62
     0
 10
226.974
 20
132.785
 30
0.0
 11
227.601
 21
132.465
 31
0.0
  0
LINE
  8
0
 62
     0
 10
227.601
 20
132.465
 30
0.0
 11
228.296
 21
132.355
 31
0.0
  0
LINE
  8
0
 62
     0
 10
228.296
 20
132.355
 30
0.0
 11
228.99
 21
132.465
 31
0.0
  0
LINE
  8
0
 62
     0
 10
228.99
 20
132.465
 30
0.0
 11
229.618
 21
132.785
 31
0.0
  0
LINE
  8
0
 62
     0
 10
229.618
 20
132.785
 30
0.0
 11
230.116
 21
133.283
 31
0.0
  0
LINE
  8
0
 62
     0
 10
230.116
 20
133.283
 30
0.0
 11
230.436
 21
133.91
 31
0.0
  0
LINE
  8
0
 62
     0
 10
230.436
 20
133.91
 30
0.0
 11
230.546
 21
134.604
 31
0.0
  0
LINE
  8
0
 62
     0
 10
230.546
 20
134.604
 30
0.0
 11
230.436
 21
135.3
 31
0.0
  0
LINE
  8
0
 62
     0
 10
230.436
 20
135.3
 30
0.0
 11
230.116
 21
135.927
 31
0.0
  0
LINE
  8
0
 62
     0
 10
230.116
 20
135.927
 30
0.0
 11
229.618
 21
136.426
 31
0.0
  0
LINE
  8
0
 62
     0
 10
229.618
 20
136.426
 30
0.0
 11
228.99
 21
136.744
 31
0.0
  0
LINE
  8
0
 62
     0
 10
228.99
 20
136.744
 30
0.0
 11
228.296
 21
136.854
 31
0.0
  0
LINE
  8
0
 62
     0
 10
228.296
 20
136.854
 30
0.0
 11
227.601
 21
136.744
 31
0.0
  0
LINE
  8
0
 62
     0
 10
339.2
 20
136.744
 30
0.0
 11
338.573
 21
136.426
 31
0.0
  0
LINE
  8
0
 62
     0
 10
338.573
 20
136.426
 30
0.0
 11
338.075
 21
135.927
 31
0.0
  0
LINE
  8
0
 62
     0
 10
338.075
 20
135.927
 30
0.0
 11
337.757
 21
135.3
 31
0.0
  0
LINE
  8
0
 62
     0
 10
337.757
 20
135.3
 30
0.0
 11
337.647
 21
134.604
 31
0.0
  0
LINE
  8
0
 62
     0
 10
337.647
 20
134.604
 30
0.0
 11
337.757
 21
133.91
 31
0.0
  0
LINE
  8
0
 62
     0
 10
337.757
 20
133.91
 30
0.0
 11
338.075
 21
133.283
 31
0.0
  0
LINE
  8
0
 62
     0
 10
338.075
 20
133.283
 30
0.0
 11
338.573
 21
132.785
 31
0.0
  0
LINE
  8
0
 62
     0
 10
338.573
 20
132.785
 30
0.0
 11
339.2
 21
132.465
 31
0.0
  0
LINE
  8
0
 62
     0
 10
339.2
 20
132.465
 30
0.0
 11
339.896
 21
132.355
 31
0.0
  0
LINE
  8
0
 62
     0
 10
339.896
 20
132.355
 30
0.0
 11
340.592
 21
132.465
 31
0.0
  0
LINE
  8
0
 62
     0
 10
340.592
 20
132.465
 30
0.0
 11
341.219
 21
132.785
 31
0.0
  0
LINE
  8
0
 62
     0
 10
341.219
 20
132.785
 30
0.0
 11
341.716
 21
133.283
 31
0.0
  0
LINE
  8
0
 62
     0
 10
341.716
 20
133.283
 30
0.0
 11
342.036
 21
133.91
 31
0.0
  0
LINE
  8
0
 62
     0
 10
342.036
 20
133.91
 30
0.0
 11
342.146
 21
134.604
 31
0.0
  0
LINE
  8
0
 62
     0
 10
342.146
 20
134.604
 30
0.0
 11
342.036
 21
135.3
 31
0.0
  0
LINE
  8
0
 62
     0
 10
342.036
 20
135.3
 30
0.0
 11
341.716
 21
135.927
 31
0.0
  0
LINE
  8
0
 62
     0
 10
341.716
 20
135.927
 30
0.0
 11
341.219
 21
136.426
 31
0.0
  0
LINE
  8
0
 62
     0
 10
341.219
 20
136.426
 30
0.0
 11
340.592
 21
136.744
 31
0.0
  0
LINE
  8
0
 62
     0
 10
340.592
 20
136.744
 30
0.0
 11
339.896
 21
136.854
 31
0.0
  0
LINE
  8
0
 62
     0
 10
339.896
 20
136.854
 30
0.0
 11
339.2
 21
136.744
 31
0.0
  0
LINE
  8
0
 62
     0
 10
4.40009
 20
136.744
 30
0.0
 11
3.77306
 21
136.426
 31
0.0
  0
LINE
  8
0
 62
     0
 10
3.77306
 20
136.426
 30
0.0
 11
3.27422
 21
135.927
 31
0.0
  0
LINE
  8
0
 62
     0
 10
3.27422
 20
135.927
 30
0.0
 11
2.95589
 21
135.3
 31
0.0
  0
LINE
  8
0
 62
     0
 10
2.95589
 20
135.3
 30
0.0
 11
2.84565
 21
134.604
 31
0.0
  0
LINE
  8
0
 62
     0
 10
2.84565
 20
134.604
 30
0.0
 11
2.95589
 21
133.91
 31
0.0
  0
LINE
  8
0
 62
     0
 10
2.95589
 20
133.91
 30
0.0
 11
3.27422
 21
133.283
 31
0.0
  0
LINE
  8
0
 62
     0
 10
3.27422
 20
133.283
 30
0.0
 11
3.77306
 21
132.785
 31
0.0
  0
LINE
  8
0
 62
     0
 10
3.77306
 20
132.785
 30
0.0
 11
4.40009
 21
132.465
 31
0.0
  0
LINE
  8
0
 62
     0
 10
4.40009
 20
132.465
 30
0.0
 11
5.09598
 21
132.355
 31
0.0
  0
LINE
  8
0
 62
     0
 10
5.09598
 20
132.355
 30
0.0
 11
5.79053
 21
132.465
 31
0.0
  0
LINE
  8
0
 62
     0
 10
5.79053
 20
132.465
 30
0.0
 11
6.41752
 21
132.785
 31
0.0
  0
LINE
  8
0
 62
     0
 10
6.41752
 20
132.785
 30
0.0
 11
6.91501
 21
133.283
 31
0.0
  0
LINE
  8
0
 62
     0
 10
6.91501
 20
133.283
 30
0.0
 11
7.2347
 21
133.91
 31
0.0
  0
LINE
  8
0
 62
     0
 10
7.2347
 20
133.91
 30
0.0
 11
7.34494
 21
134.604
 31
0.0
  0
LINE
  8
0
 62
     0
 10
7.34494
 20
134.604
 30
0.0
 11
7.2347
 21
135.3
 31
0.0
  0
LINE
  8
0
 62
     0
 10
7.2347
 20
135.3
 30
0.0
 11
6.91501
 21
135.927
 31
0.0
  0
LINE
  8
0
 62
     0
 10
6.91501
 20
135.927
 30
0.0
 11
6.41752
 21
136.426
 31
0.0
  0
LINE
  8
0
 62
     0
 10
6.41752
 20
136.426
 30
0.0
 11
5.79053
 21
136.744
 31
0.0
  0
LINE
  8
0
 62
     0
 10
5.79053
 20
136.744
 30
0.0
 11
5.09598
 21
136.854
 31
0.0
  0
LINE
  8
0
 62
     0
 10
5.09598
 20
136.854
 30
0.0
 11
4.40009
 21
136.744
 31
0.0
  0
ENDSEC
  0
EOF
