  0
SECTION
  2
HEADER
  9
$ACADVER
  1
AC1009
  9
$FILLMODE
 70
 0
  9
$SPLFRAME
 70
 1
  9
$EXTMIN
 10
0
 20
0
 30
0.0
  9
$EXTMAX
 10
1058.33
 20
1058.33
 30
0.0
  0
ENDSEC
  0
SECTION
  2
TABLES
  0
TABLE
  2
LAYER
 70
1
  0
LAYER
  2
0
 70
     0
 62
     7
  6
CONTINUOUS
  0
ENDTAB
  0
ENDSEC
  0
SECTION
  2
ENTITIES
  0
LINE
  8
0
 62
     0
 10
157.496
 20
134.666
 30
0.0
 11
157.496
 21
124.666
 31
0.0
  0
LINE
  8
0
 62
     0
 10
157.496
 20
124.666
 30
0.0
 11
10.0955
 21
124.666
 31
0.0
  0
LINE
  8
0
 62
     0
 10
10.0955
 20
124.666
 30
0.0
 11
10.0955
 21
10.3656
 31
0.0
  0
LINE
  8
0
 62
     0
 10
10.0955
 20
10.3656
 30
0.0
 11
314.897
 21
10.3656
 31
0.0
  0
LINE
  8
0
 62
     0
 10
314.897
 20
10.3656
 30
0.0
 11
314.897
 21
124.666
 31
0.0
  0
LINE
  8
0
 62
     0
 10
314.897
 20
124.666
 30
0.0
 11
167.495
 21
124.666
 31
0.0
  0
LINE
  8
0
 62
     0
 10
167.495
 20
124.666
 30
0.0
 11
167.495
 21
134.666
 31
0.0
  0
LINE
  8
0
 62
     0
 10
167.495
 20
134.666
 30
0.0
 11
322.896
 21
134.666
 31
0.0
  0
LINE
  8
0
 62
     0
 10
322.896
 20
134.666
 30
0.0
 11
323.052
 21
134.659
 31
0.0
  0
LINE
  8
0
 62
     0
 10
323.052
 20
134.659
 30
0.0
 11
323.208
 21
134.641
 31
0.0
  0
LINE
  8
0
 62
     0
 10
323.208
 20
134.641
 30
0.0
 11
323.362
 21
134.611
 31
0.0
  0
LINE
  8
0
 62
     0
 10
323.362
 20
134.611
 30
0.0
 11
323.515
 21
134.568
 31
0.0
  0
LINE
  8
0
 62
     0
 10
323.515
 20
134.568
 30
0.0
 11
323.661
 21
134.513
 31
0.0
  0
LINE
  8
0
 62
     0
 10
323.661
 20
134.513
 30
0.0
 11
323.803
 21
134.448
 31
0.0
  0
LINE
  8
0
 62
     0
 10
323.803
 20
134.448
 30
0.0
 11
323.941
 21
134.371
 31
0.0
  0
LINE
  8
0
 62
     0
 10
323.941
 20
134.371
 30
0.0
 11
324.072
 21
134.284
 31
0.0
  0
LINE
  8
0
 62
     0
 10
324.072
 20
134.284
 30
0.0
 11
324.195
 21
134.186
 31
0.0
  0
LINE
  8
0
 62
     0
 10
324.195
 20
134.186
 30
0.0
 11
324.31
 21
134.08
 31
0.0
  0
LINE
  8
0
 62
     0
 10
324.31
 20
134.08
 30
0.0
 11
324.416
 21
133.965
 31
0.0
  0
LINE
  8
0
 62
     0
 10
324.416
 20
133.965
 30
0.0
 11
324.514
 21
133.842
 31
0.0
  0
LINE
  8
0
 62
     0
 10
324.514
 20
133.842
 30
0.0
 11
324.601
 21
133.711
 31
0.0
  0
LINE
  8
0
 62
     0
 10
324.601
 20
133.711
 30
0.0
 11
324.678
 21
133.573
 31
0.0
  0
LINE
  8
0
 62
     0
 10
324.678
 20
133.573
 30
0.0
 11
324.743
 21
133.431
 31
0.0
  0
LINE
  8
0
 62
     0
 10
324.743
 20
133.431
 30
0.0
 11
324.798
 21
133.285
 31
0.0
  0
LINE
  8
0
 62
     0
 10
324.798
 20
133.285
 30
0.0
 11
324.841
 21
133.132
 31
0.0
  0
LINE
  8
0
 62
     0
 10
324.841
 20
133.132
 30
0.0
 11
324.871
 21
132.979
 31
0.0
  0
LINE
  8
0
 62
     0
 10
324.871
 20
132.979
 30
0.0
 11
324.889
 21
132.822
 31
0.0
  0
LINE
  8
0
 62
     0
 10
324.889
 20
132.822
 30
0.0
 11
324.896
 21
132.665
 31
0.0
  0
LINE
  8
0
 62
     0
 10
324.896
 20
132.665
 30
0.0
 11
324.896
 21
2.36472
 31
0.0
  0
LINE
  8
0
 62
     0
 10
324.896
 20
2.36472
 30
0.0
 11
324.889
 21
2.209
 31
0.0
  0
LINE
  8
0
 62
     0
 10
324.889
 20
2.209
 30
0.0
 11
324.871
 21
2.05328
 31
0.0
  0
LINE
  8
0
 62
     0
 10
324.871
 20
2.05328
 30
0.0
 11
324.841
 21
1.89894
 31
0.0
  0
LINE
  8
0
 62
     0
 10
324.841
 20
1.89894
 30
0.0
 11
324.798
 21
1.74597
 31
0.0
  0
LINE
  8
0
 62
     0
 10
324.798
 20
1.74597
 30
0.0
 11
324.743
 21
1.5999
 31
0.0
  0
LINE
  8
0
 62
     0
 10
324.743
 20
1.5999
 30
0.0
 11
324.678
 21
1.45796
 31
0.0
  0
LINE
  8
0
 62
     0
 10
324.678
 20
1.45796
 30
0.0
 11
324.601
 21
1.32016
 31
0.0
  0
LINE
  8
0
 62
     0
 10
324.601
 20
1.32016
 30
0.0
 11
324.514
 21
1.18925
 31
0.0
  0
LINE
  8
0
 62
     0
 10
324.514
 20
1.18925
 30
0.0
 11
324.416
 21
1.0666
 31
0.0
  0
LINE
  8
0
 62
     0
 10
324.416
 20
1.0666
 30
0.0
 11
324.31
 21
0.950846
 31
0.0
  0
LINE
  8
0
 62
     0
 10
324.31
 20
0.950846
 30
0.0
 11
324.195
 21
0.844737
 31
0.0
  0
LINE
  8
0
 62
     0
 10
324.195
 20
0.844737
 30
0.0
 11
324.072
 21
0.746898
 31
0.0
  0
LINE
  8
0
 62
     0
 10
324.072
 20
0.746898
 30
0.0
 11
323.941
 21
0.660079
 31
0.0
  0
LINE
  8
0
 62
     0
 10
323.941
 20
0.660079
 30
0.0
 11
323.803
 21
0.582909
 31
0.0
  0
LINE
  8
0
 62
     0
 10
323.803
 20
0.582909
 30
0.0
 11
323.661
 21
0.518142
 31
0.0
  0
LINE
  8
0
 62
     0
 10
323.661
 20
0.518142
 30
0.0
 11
323.515
 21
0.463021
 31
0.0
  0
LINE
  8
0
 62
     0
 10
323.515
 20
0.463021
 30
0.0
 11
323.362
 21
0.420303
 31
0.0
  0
LINE
  8
0
 62
     0
 10
323.362
 20
0.420303
 30
0.0
 11
323.208
 21
0.389985
 31
0.0
  0
LINE
  8
0
 62
     0
 10
323.208
 20
0.389985
 30
0.0
 11
323.052
 21
0.372071
 31
0.0
  0
LINE
  8
0
 62
     0
 10
323.052
 20
0.372071
 30
0.0
 11
322.896
 21
0.365181
 31
0.0
  0
LINE
  8
0
 62
     0
 10
322.896
 20
0.365181
 30
0.0
 11
2.096
 21
0.365181
 31
0.0
  0
LINE
  8
0
 62
     0
 10
2.096
 20
0.365181
 30
0.0
 11
1.9389
 21
0.372071
 31
0.0
  0
LINE
  8
0
 62
     0
 10
1.9389
 20
0.372071
 30
0.0
 11
1.7818
 21
0.389985
 31
0.0
  0
LINE
  8
0
 62
     0
 10
1.7818
 20
0.389985
 30
0.0
 11
1.62884
 21
0.420303
 31
0.0
  0
LINE
  8
0
 62
     0
 10
1.62884
 20
0.420303
 30
0.0
 11
1.47588
 21
0.463021
 31
0.0
  0
LINE
  8
0
 62
     0
 10
1.47588
 20
0.463021
 30
0.0
 11
1.32981
 21
0.518142
 31
0.0
  0
LINE
  8
0
 62
     0
 10
1.32981
 20
0.518142
 30
0.0
 11
1.18787
 21
0.582909
 31
0.0
  0
LINE
  8
0
 62
     0
 10
1.18787
 20
0.582909
 30
0.0
 11
1.05006
 21
0.660079
 31
0.0
  0
LINE
  8
0
 62
     0
 10
1.05006
 20
0.660079
 30
0.0
 11
0.919152
 21
0.746898
 31
0.0
  0
LINE
  8
0
 62
     0
 10
0.919152
 20
0.746898
 30
0.0
 11
0.796505
 21
0.844737
 31
0.0
  0
LINE
  8
0
 62
     0
 10
0.796505
 20
0.844737
 30
0.0
 11
0.680752
 21
0.950846
 31
0.0
  0
LINE
  8
0
 62
     0
 10
0.680752
 20
0.950846
 30
0.0
 11
0.574643
 21
1.0666
 31
0.0
  0
LINE
  8
0
 62
     0
 10
0.574643
 20
1.0666
 30
0.0
 11
0.4768
 21
1.18925
 31
0.0
  0
LINE
  8
0
 62
     0
 10
0.4768
 20
1.18925
 30
0.0
 11
0.389985
 21
1.32016
 31
0.0
  0
LINE
  8
0
 62
     0
 10
0.389985
 20
1.32016
 30
0.0
 11
0.312815
 21
1.45796
 31
0.0
  0
LINE
  8
0
 62
     0
 10
0.312815
 20
1.45796
 30
0.0
 11
0.248047
 21
1.5999
 31
0.0
  0
LINE
  8
0
 62
     0
 10
0.248047
 20
1.5999
 30
0.0
 11
0.192925
 21
1.74597
 31
0.0
  0
LINE
  8
0
 62
     0
 10
0.192925
 20
1.74597
 30
0.0
 11
0.150206
 21
1.89894
 31
0.0
  0
LINE
  8
0
 62
     0
 10
0.150206
 20
1.89894
 30
0.0
 11
0.119889
 21
2.05328
 31
0.0
  0
LINE
  8
0
 62
     0
 10
0.119889
 20
2.05328
 30
0.0
 11
0.101975
 21
2.209
 31
0.0
  0
LINE
  8
0
 62
     0
 10
0.101975
 20
2.209
 30
0.0
 11
0.0950846
 21
2.36609
 31
0.0
  0
LINE
  8
0
 62
     0
 10
0.0950846
 20
2.36609
 30
0.0
 11
0.0950846
 21
132.665
 31
0.0
  0
LINE
  8
0
 62
     0
 10
0.0950846
 20
132.665
 30
0.0
 11
0.101975
 21
132.822
 31
0.0
  0
LINE
  8
0
 62
     0
 10
0.101975
 20
132.822
 30
0.0
 11
0.119889
 21
132.979
 31
0.0
  0
LINE
  8
0
 62
     0
 10
0.119889
 20
132.979
 30
0.0
 11
0.150206
 21
133.132
 31
0.0
  0
LINE
  8
0
 62
     0
 10
0.150206
 20
133.132
 30
0.0
 11
0.192925
 21
133.285
 31
0.0
  0
LINE
  8
0
 62
     0
 10
0.192925
 20
133.285
 30
0.0
 11
0.248047
 21
133.431
 31
0.0
  0
LINE
  8
0
 62
     0
 10
0.248047
 20
133.431
 30
0.0
 11
0.312815
 21
133.573
 31
0.0
  0
LINE
  8
0
 62
     0
 10
0.312815
 20
133.573
 30
0.0
 11
0.389985
 21
133.711
 31
0.0
  0
LINE
  8
0
 62
     0
 10
0.389985
 20
133.711
 30
0.0
 11
0.4768
 21
133.842
 31
0.0
  0
LINE
  8
0
 62
     0
 10
0.4768
 20
133.842
 30
0.0
 11
0.574643
 21
133.965
 31
0.0
  0
LINE
  8
0
 62
     0
 10
0.574643
 20
133.965
 30
0.0
 11
0.680752
 21
134.08
 31
0.0
  0
LINE
  8
0
 62
     0
 10
0.680752
 20
134.08
 30
0.0
 11
0.796505
 21
134.186
 31
0.0
  0
LINE
  8
0
 62
     0
 10
0.796505
 20
134.186
 30
0.0
 11
0.919152
 21
134.284
 31
0.0
  0
LINE
  8
0
 62
     0
 10
0.919152
 20
134.284
 30
0.0
 11
1.05006
 21
134.371
 31
0.0
  0
LINE
  8
0
 62
     0
 10
1.05006
 20
134.371
 30
0.0
 11
1.18787
 21
134.448
 31
0.0
  0
LINE
  8
0
 62
     0
 10
1.18787
 20
134.448
 30
0.0
 11
1.32981
 21
134.513
 31
0.0
  0
LINE
  8
0
 62
     0
 10
1.32981
 20
134.513
 30
0.0
 11
1.47588
 21
134.568
 31
0.0
  0
LINE
  8
0
 62
     0
 10
1.47588
 20
134.568
 30
0.0
 11
1.62884
 21
134.611
 31
0.0
  0
LINE
  8
0
 62
     0
 10
1.62884
 20
134.611
 30
0.0
 11
1.7818
 21
134.641
 31
0.0
  0
LINE
  8
0
 62
     0
 10
1.7818
 20
134.641
 30
0.0
 11
1.9389
 21
134.659
 31
0.0
  0
LINE
  8
0
 62
     0
 10
1.9389
 20
134.659
 30
0.0
 11
2.096
 21
134.666
 31
0.0
  0
LINE
  8
0
 62
     0
 10
2.096
 20
134.666
 30
0.0
 11
157.496
 21
134.666
 31
0.0
  0
LINE
  8
0
 62
     0
 10
319.2
 20
7.50478
 30
0.0
 11
318.574
 21
7.1851
 31
0.0
  0
LINE
  8
0
 62
     0
 10
318.574
 20
7.1851
 30
0.0
 11
318.076
 21
6.68761
 31
0.0
  0
LINE
  8
0
 62
     0
 10
318.076
 20
6.68761
 30
0.0
 11
317.756
 21
6.06062
 31
0.0
  0
LINE
  8
0
 62
     0
 10
317.756
 20
6.06062
 30
0.0
 11
317.646
 21
5.36469
 31
0.0
  0
LINE
  8
0
 62
     0
 10
317.646
 20
5.36469
 30
0.0
 11
317.756
 21
4.67018
 31
0.0
  0
LINE
  8
0
 62
     0
 10
317.756
 20
4.67018
 30
0.0
 11
318.076
 21
4.04315
 31
0.0
  0
LINE
  8
0
 62
     0
 10
318.076
 20
4.04315
 30
0.0
 11
318.574
 21
3.54432
 31
0.0
  0
LINE
  8
0
 62
     0
 10
318.574
 20
3.54432
 30
0.0
 11
319.2
 21
3.22599
 31
0.0
  0
LINE
  8
0
 62
     0
 10
319.2
 20
3.22599
 30
0.0
 11
319.896
 21
3.11437
 31
0.0
  0
LINE
  8
0
 62
     0
 10
319.896
 20
3.11437
 30
0.0
 11
320.591
 21
3.22599
 31
0.0
  0
LINE
  8
0
 62
     0
 10
320.591
 20
3.22599
 30
0.0
 11
321.218
 21
3.54432
 31
0.0
  0
LINE
  8
0
 62
     0
 10
321.218
 20
3.54432
 30
0.0
 11
321.717
 21
4.04315
 31
0.0
  0
LINE
  8
0
 62
     0
 10
321.717
 20
4.04315
 30
0.0
 11
322.035
 21
4.67018
 31
0.0
  0
LINE
  8
0
 62
     0
 10
322.035
 20
4.67018
 30
0.0
 11
322.147
 21
5.36469
 31
0.0
  0
LINE
  8
0
 62
     0
 10
322.147
 20
5.36469
 30
0.0
 11
322.035
 21
6.06062
 31
0.0
  0
LINE
  8
0
 62
     0
 10
322.035
 20
6.06062
 30
0.0
 11
321.717
 21
6.68761
 31
0.0
  0
LINE
  8
0
 62
     0
 10
321.717
 20
6.68761
 30
0.0
 11
321.218
 21
7.1851
 31
0.0
  0
LINE
  8
0
 62
     0
 10
321.218
 20
7.1851
 30
0.0
 11
320.591
 21
7.50478
 31
0.0
  0
LINE
  8
0
 62
     0
 10
320.591
 20
7.50478
 30
0.0
 11
319.896
 21
7.61503
 31
0.0
  0
LINE
  8
0
 62
     0
 10
319.896
 20
7.61503
 30
0.0
 11
319.2
 21
7.50478
 31
0.0
  0
LINE
  8
0
 62
     0
 10
214.267
 20
7.50478
 30
0.0
 11
213.64
 21
7.1851
 31
0.0
  0
LINE
  8
0
 62
     0
 10
213.64
 20
7.1851
 30
0.0
 11
213.143
 21
6.68761
 31
0.0
  0
LINE
  8
0
 62
     0
 10
213.143
 20
6.68761
 30
0.0
 11
212.823
 21
6.06062
 31
0.0
  0
LINE
  8
0
 62
     0
 10
212.823
 20
6.06062
 30
0.0
 11
212.713
 21
5.36469
 31
0.0
  0
LINE
  8
0
 62
     0
 10
212.713
 20
5.36469
 30
0.0
 11
212.823
 21
4.67018
 31
0.0
  0
LINE
  8
0
 62
     0
 10
212.823
 20
4.67018
 30
0.0
 11
213.143
 21
4.04315
 31
0.0
  0
LINE
  8
0
 62
     0
 10
213.143
 20
4.04315
 30
0.0
 11
213.64
 21
3.54432
 31
0.0
  0
LINE
  8
0
 62
     0
 10
213.64
 20
3.54432
 30
0.0
 11
214.267
 21
3.22599
 31
0.0
  0
LINE
  8
0
 62
     0
 10
214.267
 20
3.22599
 30
0.0
 11
214.963
 21
3.11437
 31
0.0
  0
LINE
  8
0
 62
     0
 10
214.963
 20
3.11437
 30
0.0
 11
215.658
 21
3.22599
 31
0.0
  0
LINE
  8
0
 62
     0
 10
215.658
 20
3.22599
 30
0.0
 11
216.285
 21
3.54432
 31
0.0
  0
LINE
  8
0
 62
     0
 10
216.285
 20
3.54432
 30
0.0
 11
216.782
 21
4.04315
 31
0.0
  0
LINE
  8
0
 62
     0
 10
216.782
 20
4.04315
 30
0.0
 11
217.103
 21
4.67018
 31
0.0
  0
LINE
  8
0
 62
     0
 10
217.103
 20
4.67018
 30
0.0
 11
217.212
 21
5.36469
 31
0.0
  0
LINE
  8
0
 62
     0
 10
217.212
 20
5.36469
 30
0.0
 11
217.103
 21
6.06062
 31
0.0
  0
LINE
  8
0
 62
     0
 10
217.103
 20
6.06062
 30
0.0
 11
216.782
 21
6.68761
 31
0.0
  0
LINE
  8
0
 62
     0
 10
216.782
 20
6.68761
 30
0.0
 11
216.285
 21
7.1851
 31
0.0
  0
LINE
  8
0
 62
     0
 10
216.285
 20
7.1851
 30
0.0
 11
215.658
 21
7.50478
 31
0.0
  0
LINE
  8
0
 62
     0
 10
215.658
 20
7.50478
 30
0.0
 11
214.963
 21
7.61503
 31
0.0
  0
LINE
  8
0
 62
     0
 10
214.963
 20
7.61503
 30
0.0
 11
214.267
 21
7.50478
 31
0.0
  0
LINE
  8
0
 62
     0
 10
109.334
 20
7.50478
 30
0.0
 11
108.707
 21
7.1851
 31
0.0
  0
LINE
  8
0
 62
     0
 10
108.707
 20
7.1851
 30
0.0
 11
108.209
 21
6.68761
 31
0.0
  0
LINE
  8
0
 62
     0
 10
108.209
 20
6.68761
 30
0.0
 11
107.888
 21
6.06062
 31
0.0
  0
LINE
  8
0
 62
     0
 10
107.888
 20
6.06062
 30
0.0
 11
107.779
 21
5.36469
 31
0.0
  0
LINE
  8
0
 62
     0
 10
107.779
 20
5.36469
 30
0.0
 11
107.888
 21
4.67018
 31
0.0
  0
LINE
  8
0
 62
     0
 10
107.888
 20
4.67018
 30
0.0
 11
108.209
 21
4.04315
 31
0.0
  0
LINE
  8
0
 62
     0
 10
108.209
 20
4.04315
 30
0.0
 11
108.707
 21
3.54432
 31
0.0
  0
LINE
  8
0
 62
     0
 10
108.707
 20
3.54432
 30
0.0
 11
109.334
 21
3.22599
 31
0.0
  0
LINE
  8
0
 62
     0
 10
109.334
 20
3.22599
 30
0.0
 11
110.028
 21
3.11437
 31
0.0
  0
LINE
  8
0
 62
     0
 10
110.028
 20
3.11437
 30
0.0
 11
110.724
 21
3.22599
 31
0.0
  0
LINE
  8
0
 62
     0
 10
110.724
 20
3.22599
 30
0.0
 11
111.351
 21
3.54432
 31
0.0
  0
LINE
  8
0
 62
     0
 10
111.351
 20
3.54432
 30
0.0
 11
111.849
 21
4.04315
 31
0.0
  0
LINE
  8
0
 62
     0
 10
111.849
 20
4.04315
 30
0.0
 11
112.168
 21
4.67018
 31
0.0
  0
LINE
  8
0
 62
     0
 10
112.168
 20
4.67018
 30
0.0
 11
112.279
 21
5.36469
 31
0.0
  0
LINE
  8
0
 62
     0
 10
112.279
 20
5.36469
 30
0.0
 11
112.168
 21
6.06062
 31
0.0
  0
LINE
  8
0
 62
     0
 10
112.168
 20
6.06062
 30
0.0
 11
111.849
 21
6.68761
 31
0.0
  0
LINE
  8
0
 62
     0
 10
111.849
 20
6.68761
 30
0.0
 11
111.351
 21
7.1851
 31
0.0
  0
LINE
  8
0
 62
     0
 10
111.351
 20
7.1851
 30
0.0
 11
110.724
 21
7.50478
 31
0.0
  0
LINE
  8
0
 62
     0
 10
110.724
 20
7.50478
 30
0.0
 11
110.028
 21
7.61503
 31
0.0
  0
LINE
  8
0
 62
     0
 10
110.028
 20
7.61503
 30
0.0
 11
109.334
 21
7.50478
 31
0.0
  0
LINE
  8
0
 62
     0
 10
4.40009
 20
7.50478
 30
0.0
 11
3.77306
 21
7.1851
 31
0.0
  0
LINE
  8
0
 62
     0
 10
3.77306
 20
7.1851
 30
0.0
 11
3.27422
 21
6.68761
 31
0.0
  0
LINE
  8
0
 62
     0
 10
3.27422
 20
6.68761
 30
0.0
 11
2.95589
 21
6.06062
 31
0.0
  0
LINE
  8
0
 62
     0
 10
2.95589
 20
6.06062
 30
0.0
 11
2.84565
 21
5.36469
 31
0.0
  0
LINE
  8
0
 62
     0
 10
2.84565
 20
5.36469
 30
0.0
 11
2.95589
 21
4.67018
 31
0.0
  0
LINE
  8
0
 62
     0
 10
2.95589
 20
4.67018
 30
0.0
 11
3.27422
 21
4.04315
 31
0.0
  0
LINE
  8
0
 62
     0
 10
3.27422
 20
4.04315
 30
0.0
 11
3.77306
 21
3.54432
 31
0.0
  0
LINE
  8
0
 62
     0
 10
3.77306
 20
3.54432
 30
0.0
 11
4.40009
 21
3.22599
 31
0.0
  0
LINE
  8
0
 62
     0
 10
4.40009
 20
3.22599
 30
0.0
 11
5.09598
 21
3.11437
 31
0.0
  0
LINE
  8
0
 62
     0
 10
5.09598
 20
3.11437
 30
0.0
 11
5.79053
 21
3.22599
 31
0.0
  0
LINE
  8
0
 62
     0
 10
5.79053
 20
3.22599
 30
0.0
 11
6.41752
 21
3.54432
 31
0.0
  0
LINE
  8
0
 62
     0
 10
6.41752
 20
3.54432
 30
0.0
 11
6.91501
 21
4.04315
 31
0.0
  0
LINE
  8
0
 62
     0
 10
6.91501
 20
4.04315
 30
0.0
 11
7.2347
 21
4.67018
 31
0.0
  0
LINE
  8
0
 62
     0
 10
7.2347
 20
4.67018
 30
0.0
 11
7.34494
 21
5.36469
 31
0.0
  0
LINE
  8
0
 62
     0
 10
7.34494
 20
5.36469
 30
0.0
 11
7.2347
 21
6.06062
 31
0.0
  0
LINE
  8
0
 62
     0
 10
7.2347
 20
6.06062
 30
0.0
 11
6.91501
 21
6.68761
 31
0.0
  0
LINE
  8
0
 62
     0
 10
6.91501
 20
6.68761
 30
0.0
 11
6.41752
 21
7.1851
 31
0.0
  0
LINE
  8
0
 62
     0
 10
6.41752
 20
7.1851
 30
0.0
 11
5.79053
 21
7.50478
 31
0.0
  0
LINE
  8
0
 62
     0
 10
5.79053
 20
7.50478
 30
0.0
 11
5.09598
 21
7.61503
 31
0.0
  0
LINE
  8
0
 62
     0
 10
5.09598
 20
7.61503
 30
0.0
 11
4.40009
 21
7.50478
 31
0.0
  0
LINE
  8
0
 62
     0
 10
109.334
 20
131.805
 30
0.0
 11
108.707
 21
131.487
 31
0.0
  0
LINE
  8
0
 62
     0
 10
108.707
 20
131.487
 30
0.0
 11
108.209
 21
130.988
 31
0.0
  0
LINE
  8
0
 62
     0
 10
108.209
 20
130.988
 30
0.0
 11
107.888
 21
130.361
 31
0.0
  0
LINE
  8
0
 62
     0
 10
107.888
 20
130.361
 30
0.0
 11
107.779
 21
129.665
 31
0.0
  0
LINE
  8
0
 62
     0
 10
107.779
 20
129.665
 30
0.0
 11
107.888
 21
128.971
 31
0.0
  0
LINE
  8
0
 62
     0
 10
107.888
 20
128.971
 30
0.0
 11
108.209
 21
128.344
 31
0.0
  0
LINE
  8
0
 62
     0
 10
108.209
 20
128.344
 30
0.0
 11
108.707
 21
127.846
 31
0.0
  0
LINE
  8
0
 62
     0
 10
108.707
 20
127.846
 30
0.0
 11
109.334
 21
127.526
 31
0.0
  0
LINE
  8
0
 62
     0
 10
109.334
 20
127.526
 30
0.0
 11
110.028
 21
127.416
 31
0.0
  0
LINE
  8
0
 62
     0
 10
110.028
 20
127.416
 30
0.0
 11
110.724
 21
127.526
 31
0.0
  0
LINE
  8
0
 62
     0
 10
110.724
 20
127.526
 30
0.0
 11
111.351
 21
127.846
 31
0.0
  0
LINE
  8
0
 62
     0
 10
111.351
 20
127.846
 30
0.0
 11
111.849
 21
128.344
 31
0.0
  0
LINE
  8
0
 62
     0
 10
111.849
 20
128.344
 30
0.0
 11
112.168
 21
128.971
 31
0.0
  0
LINE
  8
0
 62
     0
 10
112.168
 20
128.971
 30
0.0
 11
112.279
 21
129.665
 31
0.0
  0
LINE
  8
0
 62
     0
 10
112.279
 20
129.665
 30
0.0
 11
112.168
 21
130.361
 31
0.0
  0
LINE
  8
0
 62
     0
 10
112.168
 20
130.361
 30
0.0
 11
111.849
 21
130.988
 31
0.0
  0
LINE
  8
0
 62
     0
 10
111.849
 20
130.988
 30
0.0
 11
111.351
 21
131.487
 31
0.0
  0
LINE
  8
0
 62
     0
 10
111.351
 20
131.487
 30
0.0
 11
110.724
 21
131.805
 31
0.0
  0
LINE
  8
0
 62
     0
 10
110.724
 20
131.805
 30
0.0
 11
110.028
 21
131.916
 31
0.0
  0
LINE
  8
0
 62
     0
 10
110.028
 20
131.916
 30
0.0
 11
109.334
 21
131.805
 31
0.0
  0
LINE
  8
0
 62
     0
 10
214.267
 20
131.805
 30
0.0
 11
213.64
 21
131.487
 31
0.0
  0
LINE
  8
0
 62
     0
 10
213.64
 20
131.487
 30
0.0
 11
213.143
 21
130.988
 31
0.0
  0
LINE
  8
0
 62
     0
 10
213.143
 20
130.988
 30
0.0
 11
212.823
 21
130.361
 31
0.0
  0
LINE
  8
0
 62
     0
 10
212.823
 20
130.361
 30
0.0
 11
212.713
 21
129.665
 31
0.0
  0
LINE
  8
0
 62
     0
 10
212.713
 20
129.665
 30
0.0
 11
212.823
 21
128.971
 31
0.0
  0
LINE
  8
0
 62
     0
 10
212.823
 20
128.971
 30
0.0
 11
213.143
 21
128.344
 31
0.0
  0
LINE
  8
0
 62
     0
 10
213.143
 20
128.344
 30
0.0
 11
213.64
 21
127.846
 31
0.0
  0
LINE
  8
0
 62
     0
 10
213.64
 20
127.846
 30
0.0
 11
214.267
 21
127.526
 31
0.0
  0
LINE
  8
0
 62
     0
 10
214.267
 20
127.526
 30
0.0
 11
214.963
 21
127.416
 31
0.0
  0
LINE
  8
0
 62
     0
 10
214.963
 20
127.416
 30
0.0
 11
215.658
 21
127.526
 31
0.0
  0
LINE
  8
0
 62
     0
 10
215.658
 20
127.526
 30
0.0
 11
216.285
 21
127.846
 31
0.0
  0
LINE
  8
0
 62
     0
 10
216.285
 20
127.846
 30
0.0
 11
216.782
 21
128.344
 31
0.0
  0
LINE
  8
0
 62
     0
 10
216.782
 20
128.344
 30
0.0
 11
217.103
 21
128.971
 31
0.0
  0
LINE
  8
0
 62
     0
 10
217.103
 20
128.971
 30
0.0
 11
217.212
 21
129.665
 31
0.0
  0
LINE
  8
0
 62
     0
 10
217.212
 20
129.665
 30
0.0
 11
217.103
 21
130.361
 31
0.0
  0
LINE
  8
0
 62
     0
 10
217.103
 20
130.361
 30
0.0
 11
216.782
 21
130.988
 31
0.0
  0
LINE
  8
0
 62
     0
 10
216.782
 20
130.988
 30
0.0
 11
216.285
 21
131.487
 31
0.0
  0
LINE
  8
0
 62
     0
 10
216.285
 20
131.487
 30
0.0
 11
215.658
 21
131.805
 31
0.0
  0
LINE
  8
0
 62
     0
 10
215.658
 20
131.805
 30
0.0
 11
214.963
 21
131.916
 31
0.0
  0
LINE
  8
0
 62
     0
 10
214.963
 20
131.916
 30
0.0
 11
214.267
 21
131.805
 31
0.0
  0
LINE
  8
0
 62
     0
 10
319.2
 20
131.805
 30
0.0
 11
318.574
 21
131.487
 31
0.0
  0
LINE
  8
0
 62
     0
 10
318.574
 20
131.487
 30
0.0
 11
318.076
 21
130.988
 31
0.0
  0
LINE
  8
0
 62
     0
 10
318.076
 20
130.988
 30
0.0
 11
317.756
 21
130.361
 31
0.0
  0
LINE
  8
0
 62
     0
 10
317.756
 20
130.361
 30
0.0
 11
317.646
 21
129.665
 31
0.0
  0
LINE
  8
0
 62
     0
 10
317.646
 20
129.665
 30
0.0
 11
317.756
 21
128.971
 31
0.0
  0
LINE
  8
0
 62
     0
 10
317.756
 20
128.971
 30
0.0
 11
318.076
 21
128.344
 31
0.0
  0
LINE
  8
0
 62
     0
 10
318.076
 20
128.344
 30
0.0
 11
318.574
 21
127.846
 31
0.0
  0
LINE
  8
0
 62
     0
 10
318.574
 20
127.846
 30
0.0
 11
319.2
 21
127.526
 31
0.0
  0
LINE
  8
0
 62
     0
 10
319.2
 20
127.526
 30
0.0
 11
319.896
 21
127.416
 31
0.0
  0
LINE
  8
0
 62
     0
 10
319.896
 20
127.416
 30
0.0
 11
320.591
 21
127.526
 31
0.0
  0
LINE
  8
0
 62
     0
 10
320.591
 20
127.526
 30
0.0
 11
321.218
 21
127.846
 31
0.0
  0
LINE
  8
0
 62
     0
 10
321.218
 20
127.846
 30
0.0
 11
321.717
 21
128.344
 31
0.0
  0
LINE
  8
0
 62
     0
 10
321.717
 20
128.344
 30
0.0
 11
322.035
 21
128.971
 31
0.0
  0
LINE
  8
0
 62
     0
 10
322.035
 20
128.971
 30
0.0
 11
322.147
 21
129.665
 31
0.0
  0
LINE
  8
0
 62
     0
 10
322.147
 20
129.665
 30
0.0
 11
322.035
 21
130.361
 31
0.0
  0
LINE
  8
0
 62
     0
 10
322.035
 20
130.361
 30
0.0
 11
321.717
 21
130.988
 31
0.0
  0
LINE
  8
0
 62
     0
 10
321.717
 20
130.988
 30
0.0
 11
321.218
 21
131.487
 31
0.0
  0
LINE
  8
0
 62
     0
 10
321.218
 20
131.487
 30
0.0
 11
320.591
 21
131.805
 31
0.0
  0
LINE
  8
0
 62
     0
 10
320.591
 20
131.805
 30
0.0
 11
319.896
 21
131.916
 31
0.0
  0
LINE
  8
0
 62
     0
 10
319.896
 20
131.916
 30
0.0
 11
319.2
 21
131.805
 31
0.0
  0
LINE
  8
0
 62
     0
 10
4.40009
 20
131.805
 30
0.0
 11
3.77306
 21
131.487
 31
0.0
  0
LINE
  8
0
 62
     0
 10
3.77306
 20
131.487
 30
0.0
 11
3.27422
 21
130.988
 31
0.0
  0
LINE
  8
0
 62
     0
 10
3.27422
 20
130.988
 30
0.0
 11
2.95589
 21
130.361
 31
0.0
  0
LINE
  8
0
 62
     0
 10
2.95589
 20
130.361
 30
0.0
 11
2.84565
 21
129.665
 31
0.0
  0
LINE
  8
0
 62
     0
 10
2.84565
 20
129.665
 30
0.0
 11
2.95589
 21
128.971
 31
0.0
  0
LINE
  8
0
 62
     0
 10
2.95589
 20
128.971
 30
0.0
 11
3.27422
 21
128.344
 31
0.0
  0
LINE
  8
0
 62
     0
 10
3.27422
 20
128.344
 30
0.0
 11
3.77306
 21
127.846
 31
0.0
  0
LINE
  8
0
 62
     0
 10
3.77306
 20
127.846
 30
0.0
 11
4.40009
 21
127.526
 31
0.0
  0
LINE
  8
0
 62
     0
 10
4.40009
 20
127.526
 30
0.0
 11
5.09598
 21
127.416
 31
0.0
  0
LINE
  8
0
 62
     0
 10
5.09598
 20
127.416
 30
0.0
 11
5.79053
 21
127.526
 31
0.0
  0
LINE
  8
0
 62
     0
 10
5.79053
 20
127.526
 30
0.0
 11
6.41752
 21
127.846
 31
0.0
  0
LINE
  8
0
 62
     0
 10
6.41752
 20
127.846
 30
0.0
 11
6.91501
 21
128.344
 31
0.0
  0
LINE
  8
0
 62
     0
 10
6.91501
 20
128.344
 30
0.0
 11
7.2347
 21
128.971
 31
0.0
  0
LINE
  8
0
 62
     0
 10
7.2347
 20
128.971
 30
0.0
 11
7.34494
 21
129.665
 31
0.0
  0
LINE
  8
0
 62
     0
 10
7.34494
 20
129.665
 30
0.0
 11
7.2347
 21
130.361
 31
0.0
  0
LINE
  8
0
 62
     0
 10
7.2347
 20
130.361
 30
0.0
 11
6.91501
 21
130.988
 31
0.0
  0
LINE
  8
0
 62
     0
 10
6.91501
 20
130.988
 30
0.0
 11
6.41752
 21
131.487
 31
0.0
  0
LINE
  8
0
 62
     0
 10
6.41752
 20
131.487
 30
0.0
 11
5.79053
 21
131.805
 31
0.0
  0
LINE
  8
0
 62
     0
 10
5.79053
 20
131.805
 30
0.0
 11
5.09598
 21
131.916
 31
0.0
  0
LINE
  8
0
 62
     0
 10
5.09598
 20
131.916
 30
0.0
 11
4.40009
 21
131.805
 31
0.0
  0
ENDSEC
  0
EOF
