  0
SECTION
  2
HEADER
  9
$ACADVER
  1
AC1009
  9
$FILLMODE
 70
 0
  9
$SPLFRAME
 70
 1
  9
$EXTMIN
 10
0
 20
0
 30
0.0
  9
$EXTMAX
 10
1058.33
 20
1058.33
 30
0.0
  0
ENDSEC
  0
SECTION
  2
TABLES
  0
TABLE
  2
LAYER
 70
1
  0
LAYER
  2
0
 70
     0
 62
     7
  6
CONTINUOUS
  0
ENDTAB
  0
ENDSEC
  0
SECTION
  2
ENTITIES
  0
LINE
  8
0
 62
     0
 10
177.496
 20
139.605
 30
0.0
 11
177.496
 21
129.605
 31
0.0
  0
LINE
  8
0
 62
     0
 10
177.496
 20
129.605
 30
0.0
 11
10.0955
 21
129.605
 31
0.0
  0
LINE
  8
0
 62
     0
 10
10.0955
 20
129.605
 30
0.0
 11
10.0955
 21
10.3036
 31
0.0
  0
LINE
  8
0
 62
     0
 10
10.0955
 20
10.3036
 30
0.0
 11
334.897
 21
10.3036
 31
0.0
  0
LINE
  8
0
 62
     0
 10
334.897
 20
10.3036
 30
0.0
 11
334.897
 21
129.605
 31
0.0
  0
LINE
  8
0
 62
     0
 10
334.897
 20
129.605
 30
0.0
 11
187.496
 21
129.605
 31
0.0
  0
LINE
  8
0
 62
     0
 10
187.496
 20
129.605
 30
0.0
 11
187.496
 21
139.605
 31
0.0
  0
LINE
  8
0
 62
     0
 10
187.496
 20
139.605
 30
0.0
 11
342.896
 21
139.605
 31
0.0
  0
LINE
  8
0
 62
     0
 10
342.896
 20
139.605
 30
0.0
 11
343.053
 21
139.598
 31
0.0
  0
LINE
  8
0
 62
     0
 10
343.053
 20
139.598
 30
0.0
 11
343.209
 21
139.58
 31
0.0
  0
LINE
  8
0
 62
     0
 10
343.209
 20
139.58
 30
0.0
 11
343.363
 21
139.55
 31
0.0
  0
LINE
  8
0
 62
     0
 10
343.363
 20
139.55
 30
0.0
 11
343.515
 21
139.507
 31
0.0
  0
LINE
  8
0
 62
     0
 10
343.515
 20
139.507
 30
0.0
 11
343.662
 21
139.452
 31
0.0
  0
LINE
  8
0
 62
     0
 10
343.662
 20
139.452
 30
0.0
 11
343.804
 21
139.387
 31
0.0
  0
LINE
  8
0
 62
     0
 10
343.804
 20
139.387
 30
0.0
 11
343.94
 21
139.31
 31
0.0
  0
LINE
  8
0
 62
     0
 10
343.94
 20
139.31
 30
0.0
 11
344.071
 21
139.223
 31
0.0
  0
LINE
  8
0
 62
     0
 10
344.071
 20
139.223
 30
0.0
 11
344.194
 21
139.125
 31
0.0
  0
LINE
  8
0
 62
     0
 10
344.194
 20
139.125
 30
0.0
 11
344.311
 21
139.019
 31
0.0
  0
LINE
  8
0
 62
     0
 10
344.311
 20
139.019
 30
0.0
 11
344.416
 21
138.903
 31
0.0
  0
LINE
  8
0
 62
     0
 10
344.416
 20
138.903
 30
0.0
 11
344.515
 21
138.781
 31
0.0
  0
LINE
  8
0
 62
     0
 10
344.515
 20
138.781
 30
0.0
 11
344.602
 21
138.65
 31
0.0
  0
LINE
  8
0
 62
     0
 10
344.602
 20
138.65
 30
0.0
 11
344.679
 21
138.512
 31
0.0
  0
LINE
  8
0
 62
     0
 10
344.679
 20
138.512
 30
0.0
 11
344.744
 21
138.37
 31
0.0
  0
LINE
  8
0
 62
     0
 10
344.744
 20
138.37
 30
0.0
 11
344.799
 21
138.224
 31
0.0
  0
LINE
  8
0
 62
     0
 10
344.799
 20
138.224
 30
0.0
 11
344.84
 21
138.071
 31
0.0
  0
LINE
  8
0
 62
     0
 10
344.84
 20
138.071
 30
0.0
 11
344.872
 21
137.918
 31
0.0
  0
LINE
  8
0
 62
     0
 10
344.872
 20
137.918
 30
0.0
 11
344.89
 21
137.761
 31
0.0
  0
LINE
  8
0
 62
     0
 10
344.89
 20
137.761
 30
0.0
 11
344.897
 21
137.604
 31
0.0
  0
LINE
  8
0
 62
     0
 10
344.897
 20
137.604
 30
0.0
 11
344.897
 21
2.30408
 31
0.0
  0
LINE
  8
0
 62
     0
 10
344.897
 20
2.30408
 30
0.0
 11
344.89
 21
2.14698
 31
0.0
  0
LINE
  8
0
 62
     0
 10
344.89
 20
2.14698
 30
0.0
 11
344.872
 21
1.99126
 31
0.0
  0
LINE
  8
0
 62
     0
 10
344.872
 20
1.99126
 30
0.0
 11
344.84
 21
1.83692
 31
0.0
  0
LINE
  8
0
 62
     0
 10
344.84
 20
1.83692
 30
0.0
 11
344.799
 21
1.68534
 31
0.0
  0
LINE
  8
0
 62
     0
 10
344.799
 20
1.68534
 30
0.0
 11
344.744
 21
1.53789
 31
0.0
  0
LINE
  8
0
 62
     0
 10
344.744
 20
1.53789
 30
0.0
 11
344.679
 21
1.39595
 31
0.0
  0
LINE
  8
0
 62
     0
 10
344.679
 20
1.39595
 30
0.0
 11
344.602
 21
1.25953
 31
0.0
  0
LINE
  8
0
 62
     0
 10
344.602
 20
1.25953
 30
0.0
 11
344.515
 21
1.12861
 31
0.0
  0
LINE
  8
0
 62
     0
 10
344.515
 20
1.12861
 30
0.0
 11
344.416
 21
1.00597
 31
0.0
  0
LINE
  8
0
 62
     0
 10
344.416
 20
1.00597
 30
0.0
 11
344.311
 21
0.888834
 31
0.0
  0
LINE
  8
0
 62
     0
 10
344.311
 20
0.888834
 30
0.0
 11
344.194
 21
0.784105
 31
0.0
  0
LINE
  8
0
 62
     0
 10
344.194
 20
0.784105
 30
0.0
 11
344.071
 21
0.684886
 31
0.0
  0
LINE
  8
0
 62
     0
 10
344.071
 20
0.684886
 30
0.0
 11
343.94
 21
0.598068
 31
0.0
  0
LINE
  8
0
 62
     0
 10
343.94
 20
0.598068
 30
0.0
 11
343.804
 21
0.520898
 31
0.0
  0
LINE
  8
0
 62
     0
 10
343.804
 20
0.520898
 30
0.0
 11
343.662
 21
0.456131
 31
0.0
  0
LINE
  8
0
 62
     0
 10
343.662
 20
0.456131
 30
0.0
 11
343.515
 21
0.40101
 31
0.0
  0
LINE
  8
0
 62
     0
 10
343.515
 20
0.40101
 30
0.0
 11
343.363
 21
0.359668
 31
0.0
  0
LINE
  8
0
 62
     0
 10
343.363
 20
0.359668
 30
0.0
 11
343.209
 21
0.327973
 31
0.0
  0
LINE
  8
0
 62
     0
 10
343.209
 20
0.327973
 30
0.0
 11
343.053
 21
0.310059
 31
0.0
  0
LINE
  8
0
 62
     0
 10
343.053
 20
0.310059
 30
0.0
 11
342.896
 21
0.303168
 31
0.0
  0
LINE
  8
0
 62
     0
 10
342.896
 20
0.303168
 30
0.0
 11
2.096
 21
0.303168
 31
0.0
  0
LINE
  8
0
 62
     0
 10
2.096
 20
0.303168
 30
0.0
 11
1.9389
 21
0.310059
 31
0.0
  0
LINE
  8
0
 62
     0
 10
1.9389
 20
0.310059
 30
0.0
 11
1.7818
 21
0.327973
 31
0.0
  0
LINE
  8
0
 62
     0
 10
1.7818
 20
0.327973
 30
0.0
 11
1.62884
 21
0.359668
 31
0.0
  0
LINE
  8
0
 62
     0
 10
1.62884
 20
0.359668
 30
0.0
 11
1.47588
 21
0.40101
 31
0.0
  0
LINE
  8
0
 62
     0
 10
1.47588
 20
0.40101
 30
0.0
 11
1.32981
 21
0.456131
 31
0.0
  0
LINE
  8
0
 62
     0
 10
1.32981
 20
0.456131
 30
0.0
 11
1.18787
 21
0.520898
 31
0.0
  0
LINE
  8
0
 62
     0
 10
1.18787
 20
0.520898
 30
0.0
 11
1.05006
 21
0.598068
 31
0.0
  0
LINE
  8
0
 62
     0
 10
1.05006
 20
0.598068
 30
0.0
 11
0.919152
 21
0.684886
 31
0.0
  0
LINE
  8
0
 62
     0
 10
0.919152
 20
0.684886
 30
0.0
 11
0.796505
 21
0.784105
 31
0.0
  0
LINE
  8
0
 62
     0
 10
0.796505
 20
0.784105
 30
0.0
 11
0.680752
 21
0.888834
 31
0.0
  0
LINE
  8
0
 62
     0
 10
0.680752
 20
0.888834
 30
0.0
 11
0.574643
 21
1.00597
 31
0.0
  0
LINE
  8
0
 62
     0
 10
0.574643
 20
1.00597
 30
0.0
 11
0.4768
 21
1.12861
 31
0.0
  0
LINE
  8
0
 62
     0
 10
0.4768
 20
1.12861
 30
0.0
 11
0.389985
 21
1.25953
 31
0.0
  0
LINE
  8
0
 62
     0
 10
0.389985
 20
1.25953
 30
0.0
 11
0.312815
 21
1.39595
 31
0.0
  0
LINE
  8
0
 62
     0
 10
0.312815
 20
1.39595
 30
0.0
 11
0.248047
 21
1.53789
 31
0.0
  0
LINE
  8
0
 62
     0
 10
0.248047
 20
1.53789
 30
0.0
 11
0.192925
 21
1.68534
 31
0.0
  0
LINE
  8
0
 62
     0
 10
0.192925
 20
1.68534
 30
0.0
 11
0.150206
 21
1.83692
 31
0.0
  0
LINE
  8
0
 62
     0
 10
0.150206
 20
1.83692
 30
0.0
 11
0.119889
 21
1.99126
 31
0.0
  0
LINE
  8
0
 62
     0
 10
0.119889
 20
1.99126
 30
0.0
 11
0.101975
 21
2.14698
 31
0.0
  0
LINE
  8
0
 62
     0
 10
0.101975
 20
2.14698
 30
0.0
 11
0.0950846
 21
2.30408
 31
0.0
  0
LINE
  8
0
 62
     0
 10
0.0950846
 20
2.30408
 30
0.0
 11
0.0950846
 21
137.604
 31
0.0
  0
LINE
  8
0
 62
     0
 10
0.0950846
 20
137.604
 30
0.0
 11
0.101975
 21
137.761
 31
0.0
  0
LINE
  8
0
 62
     0
 10
0.101975
 20
137.761
 30
0.0
 11
0.119889
 21
137.918
 31
0.0
  0
LINE
  8
0
 62
     0
 10
0.119889
 20
137.918
 30
0.0
 11
0.150206
 21
138.071
 31
0.0
  0
LINE
  8
0
 62
     0
 10
0.150206
 20
138.071
 30
0.0
 11
0.192925
 21
138.224
 31
0.0
  0
LINE
  8
0
 62
     0
 10
0.192925
 20
138.224
 30
0.0
 11
0.248047
 21
138.37
 31
0.0
  0
LINE
  8
0
 62
     0
 10
0.248047
 20
138.37
 30
0.0
 11
0.312815
 21
138.512
 31
0.0
  0
LINE
  8
0
 62
     0
 10
0.312815
 20
138.512
 30
0.0
 11
0.389985
 21
138.65
 31
0.0
  0
LINE
  8
0
 62
     0
 10
0.389985
 20
138.65
 30
0.0
 11
0.4768
 21
138.781
 31
0.0
  0
LINE
  8
0
 62
     0
 10
0.4768
 20
138.781
 30
0.0
 11
0.574643
 21
138.903
 31
0.0
  0
LINE
  8
0
 62
     0
 10
0.574643
 20
138.903
 30
0.0
 11
0.680752
 21
139.019
 31
0.0
  0
LINE
  8
0
 62
     0
 10
0.680752
 20
139.019
 30
0.0
 11
0.796505
 21
139.125
 31
0.0
  0
LINE
  8
0
 62
     0
 10
0.796505
 20
139.125
 30
0.0
 11
0.919152
 21
139.223
 31
0.0
  0
LINE
  8
0
 62
     0
 10
0.919152
 20
139.223
 30
0.0
 11
1.05006
 21
139.31
 31
0.0
  0
LINE
  8
0
 62
     0
 10
1.05006
 20
139.31
 30
0.0
 11
1.18787
 21
139.387
 31
0.0
  0
LINE
  8
0
 62
     0
 10
1.18787
 20
139.387
 30
0.0
 11
1.32981
 21
139.452
 31
0.0
  0
LINE
  8
0
 62
     0
 10
1.32981
 20
139.452
 30
0.0
 11
1.47588
 21
139.507
 31
0.0
  0
LINE
  8
0
 62
     0
 10
1.47588
 20
139.507
 30
0.0
 11
1.62884
 21
139.55
 31
0.0
  0
LINE
  8
0
 62
     0
 10
1.62884
 20
139.55
 30
0.0
 11
1.7818
 21
139.58
 31
0.0
  0
LINE
  8
0
 62
     0
 10
1.7818
 20
139.58
 30
0.0
 11
1.9389
 21
139.598
 31
0.0
  0
LINE
  8
0
 62
     0
 10
1.9389
 20
139.598
 30
0.0
 11
2.096
 21
139.605
 31
0.0
  0
LINE
  8
0
 62
     0
 10
2.096
 20
139.605
 30
0.0
 11
177.496
 21
139.605
 31
0.0
  0
LINE
  8
0
 62
     0
 10
339.2
 20
7.44418
 30
0.0
 11
338.573
 21
7.12445
 31
0.0
  0
LINE
  8
0
 62
     0
 10
338.573
 20
7.12445
 30
0.0
 11
338.075
 21
6.627
 31
0.0
  0
LINE
  8
0
 62
     0
 10
338.075
 20
6.627
 30
0.0
 11
337.757
 21
5.99997
 31
0.0
  0
LINE
  8
0
 62
     0
 10
337.757
 20
5.99997
 30
0.0
 11
337.647
 21
5.30408
 31
0.0
  0
LINE
  8
0
 62
     0
 10
337.647
 20
5.30408
 30
0.0
 11
337.757
 21
4.60816
 31
0.0
  0
LINE
  8
0
 62
     0
 10
337.757
 20
4.60816
 30
0.0
 11
338.075
 21
3.98117
 31
0.0
  0
LINE
  8
0
 62
     0
 10
338.075
 20
3.98117
 30
0.0
 11
338.573
 21
3.48368
 31
0.0
  0
LINE
  8
0
 62
     0
 10
338.573
 20
3.48368
 30
0.0
 11
339.2
 21
3.16398
 31
0.0
  0
LINE
  8
0
 62
     0
 10
339.2
 20
3.16398
 30
0.0
 11
339.896
 21
3.05373
 31
0.0
  0
LINE
  8
0
 62
     0
 10
339.896
 20
3.05373
 30
0.0
 11
340.592
 21
3.16398
 31
0.0
  0
LINE
  8
0
 62
     0
 10
340.592
 20
3.16398
 30
0.0
 11
341.219
 21
3.48368
 31
0.0
  0
LINE
  8
0
 62
     0
 10
341.219
 20
3.48368
 30
0.0
 11
341.716
 21
3.98117
 31
0.0
  0
LINE
  8
0
 62
     0
 10
341.716
 20
3.98117
 30
0.0
 11
342.036
 21
4.60816
 31
0.0
  0
LINE
  8
0
 62
     0
 10
342.036
 20
4.60816
 30
0.0
 11
342.146
 21
5.30408
 31
0.0
  0
LINE
  8
0
 62
     0
 10
342.146
 20
5.30408
 30
0.0
 11
342.036
 21
5.99997
 31
0.0
  0
LINE
  8
0
 62
     0
 10
342.036
 20
5.99997
 30
0.0
 11
341.716
 21
6.627
 31
0.0
  0
LINE
  8
0
 62
     0
 10
341.716
 20
6.627
 30
0.0
 11
341.219
 21
7.12445
 31
0.0
  0
LINE
  8
0
 62
     0
 10
341.219
 20
7.12445
 30
0.0
 11
340.592
 21
7.44418
 31
0.0
  0
LINE
  8
0
 62
     0
 10
340.592
 20
7.44418
 30
0.0
 11
339.896
 21
7.55304
 31
0.0
  0
LINE
  8
0
 62
     0
 10
339.896
 20
7.55304
 30
0.0
 11
339.2
 21
7.44418
 31
0.0
  0
LINE
  8
0
 62
     0
 10
227.601
 20
7.44418
 30
0.0
 11
226.974
 21
7.12445
 31
0.0
  0
LINE
  8
0
 62
     0
 10
226.974
 20
7.12445
 30
0.0
 11
226.475
 21
6.627
 31
0.0
  0
LINE
  8
0
 62
     0
 10
226.475
 20
6.627
 30
0.0
 11
226.155
 21
5.99997
 31
0.0
  0
LINE
  8
0
 62
     0
 10
226.155
 20
5.99997
 30
0.0
 11
226.045
 21
5.30408
 31
0.0
  0
LINE
  8
0
 62
     0
 10
226.045
 20
5.30408
 30
0.0
 11
226.155
 21
4.60816
 31
0.0
  0
LINE
  8
0
 62
     0
 10
226.155
 20
4.60816
 30
0.0
 11
226.475
 21
3.98117
 31
0.0
  0
LINE
  8
0
 62
     0
 10
226.475
 20
3.98117
 30
0.0
 11
226.974
 21
3.48368
 31
0.0
  0
LINE
  8
0
 62
     0
 10
226.974
 20
3.48368
 30
0.0
 11
227.601
 21
3.16398
 31
0.0
  0
LINE
  8
0
 62
     0
 10
227.601
 20
3.16398
 30
0.0
 11
228.296
 21
3.05373
 31
0.0
  0
LINE
  8
0
 62
     0
 10
228.296
 20
3.05373
 30
0.0
 11
228.99
 21
3.16398
 31
0.0
  0
LINE
  8
0
 62
     0
 10
228.99
 20
3.16398
 30
0.0
 11
229.618
 21
3.48368
 31
0.0
  0
LINE
  8
0
 62
     0
 10
229.618
 20
3.48368
 30
0.0
 11
230.116
 21
3.98117
 31
0.0
  0
LINE
  8
0
 62
     0
 10
230.116
 20
3.98117
 30
0.0
 11
230.436
 21
4.60816
 31
0.0
  0
LINE
  8
0
 62
     0
 10
230.436
 20
4.60816
 30
0.0
 11
230.546
 21
5.30408
 31
0.0
  0
LINE
  8
0
 62
     0
 10
230.546
 20
5.30408
 30
0.0
 11
230.436
 21
5.99997
 31
0.0
  0
LINE
  8
0
 62
     0
 10
230.436
 20
5.99997
 30
0.0
 11
230.116
 21
6.627
 31
0.0
  0
LINE
  8
0
 62
     0
 10
230.116
 20
6.627
 30
0.0
 11
229.618
 21
7.12445
 31
0.0
  0
LINE
  8
0
 62
     0
 10
229.618
 20
7.12445
 30
0.0
 11
228.99
 21
7.44418
 31
0.0
  0
LINE
  8
0
 62
     0
 10
228.99
 20
7.44418
 30
0.0
 11
228.296
 21
7.55304
 31
0.0
  0
LINE
  8
0
 62
     0
 10
228.296
 20
7.55304
 30
0.0
 11
227.601
 21
7.44418
 31
0.0
  0
LINE
  8
0
 62
     0
 10
116
 20
7.44418
 30
0.0
 11
115.372
 21
7.12445
 31
0.0
  0
LINE
  8
0
 62
     0
 10
115.372
 20
7.12445
 30
0.0
 11
114.876
 21
6.627
 31
0.0
  0
LINE
  8
0
 62
     0
 10
114.876
 20
6.627
 30
0.0
 11
114.555
 21
5.99997
 31
0.0
  0
LINE
  8
0
 62
     0
 10
114.555
 20
5.99997
 30
0.0
 11
114.446
 21
5.30408
 31
0.0
  0
LINE
  8
0
 62
     0
 10
114.446
 20
5.30408
 30
0.0
 11
114.555
 21
4.60816
 31
0.0
  0
LINE
  8
0
 62
     0
 10
114.555
 20
4.60816
 30
0.0
 11
114.876
 21
3.98117
 31
0.0
  0
LINE
  8
0
 62
     0
 10
114.876
 20
3.98117
 30
0.0
 11
115.372
 21
3.48368
 31
0.0
  0
LINE
  8
0
 62
     0
 10
115.372
 20
3.48368
 30
0.0
 11
116
 21
3.16398
 31
0.0
  0
LINE
  8
0
 62
     0
 10
116
 20
3.16398
 30
0.0
 11
116.695
 21
3.05373
 31
0.0
  0
LINE
  8
0
 62
     0
 10
116.695
 20
3.05373
 30
0.0
 11
117.391
 21
3.16398
 31
0.0
  0
LINE
  8
0
 62
     0
 10
117.391
 20
3.16398
 30
0.0
 11
118.018
 21
3.48368
 31
0.0
  0
LINE
  8
0
 62
     0
 10
118.018
 20
3.48368
 30
0.0
 11
118.515
 21
3.98117
 31
0.0
  0
LINE
  8
0
 62
     0
 10
118.515
 20
3.98117
 30
0.0
 11
118.835
 21
4.60816
 31
0.0
  0
LINE
  8
0
 62
     0
 10
118.835
 20
4.60816
 30
0.0
 11
118.945
 21
5.30408
 31
0.0
  0
LINE
  8
0
 62
     0
 10
118.945
 20
5.30408
 30
0.0
 11
118.835
 21
5.99997
 31
0.0
  0
LINE
  8
0
 62
     0
 10
118.835
 20
5.99997
 30
0.0
 11
118.515
 21
6.627
 31
0.0
  0
LINE
  8
0
 62
     0
 10
118.515
 20
6.627
 30
0.0
 11
118.018
 21
7.12445
 31
0.0
  0
LINE
  8
0
 62
     0
 10
118.018
 20
7.12445
 30
0.0
 11
117.391
 21
7.44418
 31
0.0
  0
LINE
  8
0
 62
     0
 10
117.391
 20
7.44418
 30
0.0
 11
116.695
 21
7.55304
 31
0.0
  0
LINE
  8
0
 62
     0
 10
116.695
 20
7.55304
 30
0.0
 11
116
 21
7.44418
 31
0.0
  0
LINE
  8
0
 62
     0
 10
4.40009
 20
7.44418
 30
0.0
 11
3.77306
 21
7.12445
 31
0.0
  0
LINE
  8
0
 62
     0
 10
3.77306
 20
7.12445
 30
0.0
 11
3.27422
 21
6.627
 31
0.0
  0
LINE
  8
0
 62
     0
 10
3.27422
 20
6.627
 30
0.0
 11
2.95589
 21
5.99997
 31
0.0
  0
LINE
  8
0
 62
     0
 10
2.95589
 20
5.99997
 30
0.0
 11
2.84565
 21
5.30408
 31
0.0
  0
LINE
  8
0
 62
     0
 10
2.84565
 20
5.30408
 30
0.0
 11
2.95589
 21
4.60816
 31
0.0
  0
LINE
  8
0
 62
     0
 10
2.95589
 20
4.60816
 30
0.0
 11
3.27422
 21
3.98117
 31
0.0
  0
LINE
  8
0
 62
     0
 10
3.27422
 20
3.98117
 30
0.0
 11
3.77306
 21
3.48368
 31
0.0
  0
LINE
  8
0
 62
     0
 10
3.77306
 20
3.48368
 30
0.0
 11
4.40009
 21
3.16398
 31
0.0
  0
LINE
  8
0
 62
     0
 10
4.40009
 20
3.16398
 30
0.0
 11
5.09598
 21
3.05373
 31
0.0
  0
LINE
  8
0
 62
     0
 10
5.09598
 20
3.05373
 30
0.0
 11
5.79053
 21
3.16398
 31
0.0
  0
LINE
  8
0
 62
     0
 10
5.79053
 20
3.16398
 30
0.0
 11
6.41752
 21
3.48368
 31
0.0
  0
LINE
  8
0
 62
     0
 10
6.41752
 20
3.48368
 30
0.0
 11
6.91501
 21
3.98117
 31
0.0
  0
LINE
  8
0
 62
     0
 10
6.91501
 20
3.98117
 30
0.0
 11
7.2347
 21
4.60816
 31
0.0
  0
LINE
  8
0
 62
     0
 10
7.2347
 20
4.60816
 30
0.0
 11
7.34494
 21
5.30408
 31
0.0
  0
LINE
  8
0
 62
     0
 10
7.34494
 20
5.30408
 30
0.0
 11
7.2347
 21
5.99997
 31
0.0
  0
LINE
  8
0
 62
     0
 10
7.2347
 20
5.99997
 30
0.0
 11
6.91501
 21
6.627
 31
0.0
  0
LINE
  8
0
 62
     0
 10
6.91501
 20
6.627
 30
0.0
 11
6.41752
 21
7.12445
 31
0.0
  0
LINE
  8
0
 62
     0
 10
6.41752
 20
7.12445
 30
0.0
 11
5.79053
 21
7.44418
 31
0.0
  0
LINE
  8
0
 62
     0
 10
5.79053
 20
7.44418
 30
0.0
 11
5.09598
 21
7.55304
 31
0.0
  0
LINE
  8
0
 62
     0
 10
5.09598
 20
7.55304
 30
0.0
 11
4.40009
 21
7.44418
 31
0.0
  0
LINE
  8
0
 62
     0
 10
116
 20
136.744
 30
0.0
 11
115.372
 21
136.426
 31
0.0
  0
LINE
  8
0
 62
     0
 10
115.372
 20
136.426
 30
0.0
 11
114.876
 21
135.927
 31
0.0
  0
LINE
  8
0
 62
     0
 10
114.876
 20
135.927
 30
0.0
 11
114.555
 21
135.3
 31
0.0
  0
LINE
  8
0
 62
     0
 10
114.555
 20
135.3
 30
0.0
 11
114.446
 21
134.604
 31
0.0
  0
LINE
  8
0
 62
     0
 10
114.446
 20
134.604
 30
0.0
 11
114.555
 21
133.91
 31
0.0
  0
LINE
  8
0
 62
     0
 10
114.555
 20
133.91
 30
0.0
 11
114.876
 21
133.283
 31
0.0
  0
LINE
  8
0
 62
     0
 10
114.876
 20
133.283
 30
0.0
 11
115.372
 21
132.785
 31
0.0
  0
LINE
  8
0
 62
     0
 10
115.372
 20
132.785
 30
0.0
 11
116
 21
132.465
 31
0.0
  0
LINE
  8
0
 62
     0
 10
116
 20
132.465
 30
0.0
 11
116.695
 21
132.355
 31
0.0
  0
LINE
  8
0
 62
     0
 10
116.695
 20
132.355
 30
0.0
 11
117.391
 21
132.465
 31
0.0
  0
LINE
  8
0
 62
     0
 10
117.391
 20
132.465
 30
0.0
 11
118.018
 21
132.785
 31
0.0
  0
LINE
  8
0
 62
     0
 10
118.018
 20
132.785
 30
0.0
 11
118.515
 21
133.283
 31
0.0
  0
LINE
  8
0
 62
     0
 10
118.515
 20
133.283
 30
0.0
 11
118.835
 21
133.91
 31
0.0
  0
LINE
  8
0
 62
     0
 10
118.835
 20
133.91
 30
0.0
 11
118.945
 21
134.604
 31
0.0
  0
LINE
  8
0
 62
     0
 10
118.945
 20
134.604
 30
0.0
 11
118.835
 21
135.3
 31
0.0
  0
LINE
  8
0
 62
     0
 10
118.835
 20
135.3
 30
0.0
 11
118.515
 21
135.927
 31
0.0
  0
LINE
  8
0
 62
     0
 10
118.515
 20
135.927
 30
0.0
 11
118.018
 21
136.426
 31
0.0
  0
LINE
  8
0
 62
     0
 10
118.018
 20
136.426
 30
0.0
 11
117.391
 21
136.744
 31
0.0
  0
LINE
  8
0
 62
     0
 10
117.391
 20
136.744
 30
0.0
 11
116.695
 21
136.854
 31
0.0
  0
LINE
  8
0
 62
     0
 10
116.695
 20
136.854
 30
0.0
 11
116
 21
136.744
 31
0.0
  0
LINE
  8
0
 62
     0
 10
227.601
 20
136.744
 30
0.0
 11
226.974
 21
136.426
 31
0.0
  0
LINE
  8
0
 62
     0
 10
226.974
 20
136.426
 30
0.0
 11
226.475
 21
135.927
 31
0.0
  0
LINE
  8
0
 62
     0
 10
226.475
 20
135.927
 30
0.0
 11
226.155
 21
135.3
 31
0.0
  0
LINE
  8
0
 62
     0
 10
226.155
 20
135.3
 30
0.0
 11
226.045
 21
134.604
 31
0.0
  0
LINE
  8
0
 62
     0
 10
226.045
 20
134.604
 30
0.0
 11
226.155
 21
133.91
 31
0.0
  0
LINE
  8
0
 62
     0
 10
226.155
 20
133.91
 30
0.0
 11
226.475
 21
133.283
 31
0.0
  0
LINE
  8
0
 62
     0
 10
226.475
 20
133.283
 30
0.0
 11
226.974
 21
132.785
 31
0.0
  0
LINE
  8
0
 62
     0
 10
226.974
 20
132.785
 30
0.0
 11
227.601
 21
132.465
 31
0.0
  0
LINE
  8
0
 62
     0
 10
227.601
 20
132.465
 30
0.0
 11
228.296
 21
132.355
 31
0.0
  0
LINE
  8
0
 62
     0
 10
228.296
 20
132.355
 30
0.0
 11
228.99
 21
132.465
 31
0.0
  0
LINE
  8
0
 62
     0
 10
228.99
 20
132.465
 30
0.0
 11
229.618
 21
132.785
 31
0.0
  0
LINE
  8
0
 62
     0
 10
229.618
 20
132.785
 30
0.0
 11
230.116
 21
133.283
 31
0.0
  0
LINE
  8
0
 62
     0
 10
230.116
 20
133.283
 30
0.0
 11
230.436
 21
133.91
 31
0.0
  0
LINE
  8
0
 62
     0
 10
230.436
 20
133.91
 30
0.0
 11
230.546
 21
134.604
 31
0.0
  0
LINE
  8
0
 62
     0
 10
230.546
 20
134.604
 30
0.0
 11
230.436
 21
135.3
 31
0.0
  0
LINE
  8
0
 62
     0
 10
230.436
 20
135.3
 30
0.0
 11
230.116
 21
135.927
 31
0.0
  0
LINE
  8
0
 62
     0
 10
230.116
 20
135.927
 30
0.0
 11
229.618
 21
136.426
 31
0.0
  0
LINE
  8
0
 62
     0
 10
229.618
 20
136.426
 30
0.0
 11
228.99
 21
136.744
 31
0.0
  0
LINE
  8
0
 62
     0
 10
228.99
 20
136.744
 30
0.0
 11
228.296
 21
136.854
 31
0.0
  0
LINE
  8
0
 62
     0
 10
228.296
 20
136.854
 30
0.0
 11
227.601
 21
136.744
 31
0.0
  0
LINE
  8
0
 62
     0
 10
339.2
 20
136.744
 30
0.0
 11
338.573
 21
136.426
 31
0.0
  0
LINE
  8
0
 62
     0
 10
338.573
 20
136.426
 30
0.0
 11
338.075
 21
135.927
 31
0.0
  0
LINE
  8
0
 62
     0
 10
338.075
 20
135.927
 30
0.0
 11
337.757
 21
135.3
 31
0.0
  0
LINE
  8
0
 62
     0
 10
337.757
 20
135.3
 30
0.0
 11
337.647
 21
134.604
 31
0.0
  0
LINE
  8
0
 62
     0
 10
337.647
 20
134.604
 30
0.0
 11
337.757
 21
133.91
 31
0.0
  0
LINE
  8
0
 62
     0
 10
337.757
 20
133.91
 30
0.0
 11
338.075
 21
133.283
 31
0.0
  0
LINE
  8
0
 62
     0
 10
338.075
 20
133.283
 30
0.0
 11
338.573
 21
132.785
 31
0.0
  0
LINE
  8
0
 62
     0
 10
338.573
 20
132.785
 30
0.0
 11
339.2
 21
132.465
 31
0.0
  0
LINE
  8
0
 62
     0
 10
339.2
 20
132.465
 30
0.0
 11
339.896
 21
132.355
 31
0.0
  0
LINE
  8
0
 62
     0
 10
339.896
 20
132.355
 30
0.0
 11
340.592
 21
132.465
 31
0.0
  0
LINE
  8
0
 62
     0
 10
340.592
 20
132.465
 30
0.0
 11
341.219
 21
132.785
 31
0.0
  0
LINE
  8
0
 62
     0
 10
341.219
 20
132.785
 30
0.0
 11
341.716
 21
133.283
 31
0.0
  0
LINE
  8
0
 62
     0
 10
341.716
 20
133.283
 30
0.0
 11
342.036
 21
133.91
 31
0.0
  0
LINE
  8
0
 62
     0
 10
342.036
 20
133.91
 30
0.0
 11
342.146
 21
134.604
 31
0.0
  0
LINE
  8
0
 62
     0
 10
342.146
 20
134.604
 30
0.0
 11
342.036
 21
135.3
 31
0.0
  0
LINE
  8
0
 62
     0
 10
342.036
 20
135.3
 30
0.0
 11
341.716
 21
135.927
 31
0.0
  0
LINE
  8
0
 62
     0
 10
341.716
 20
135.927
 30
0.0
 11
341.219
 21
136.426
 31
0.0
  0
LINE
  8
0
 62
     0
 10
341.219
 20
136.426
 30
0.0
 11
340.592
 21
136.744
 31
0.0
  0
LINE
  8
0
 62
     0
 10
340.592
 20
136.744
 30
0.0
 11
339.896
 21
136.854
 31
0.0
  0
LINE
  8
0
 62
     0
 10
339.896
 20
136.854
 30
0.0
 11
339.2
 21
136.744
 31
0.0
  0
LINE
  8
0
 62
     0
 10
4.40009
 20
136.744
 30
0.0
 11
3.77306
 21
136.426
 31
0.0
  0
LINE
  8
0
 62
     0
 10
3.77306
 20
136.426
 30
0.0
 11
3.27422
 21
135.927
 31
0.0
  0
LINE
  8
0
 62
     0
 10
3.27422
 20
135.927
 30
0.0
 11
2.95589
 21
135.3
 31
0.0
  0
LINE
  8
0
 62
     0
 10
2.95589
 20
135.3
 30
0.0
 11
2.84565
 21
134.604
 31
0.0
  0
LINE
  8
0
 62
     0
 10
2.84565
 20
134.604
 30
0.0
 11
2.95589
 21
133.91
 31
0.0
  0
LINE
  8
0
 62
     0
 10
2.95589
 20
133.91
 30
0.0
 11
3.27422
 21
133.283
 31
0.0
  0
LINE
  8
0
 62
     0
 10
3.27422
 20
133.283
 30
0.0
 11
3.77306
 21
132.785
 31
0.0
  0
LINE
  8
0
 62
     0
 10
3.77306
 20
132.785
 30
0.0
 11
4.40009
 21
132.465
 31
0.0
  0
LINE
  8
0
 62
     0
 10
4.40009
 20
132.465
 30
0.0
 11
5.09598
 21
132.355
 31
0.0
  0
LINE
  8
0
 62
     0
 10
5.09598
 20
132.355
 30
0.0
 11
5.79053
 21
132.465
 31
0.0
  0
LINE
  8
0
 62
     0
 10
5.79053
 20
132.465
 30
0.0
 11
6.41752
 21
132.785
 31
0.0
  0
LINE
  8
0
 62
     0
 10
6.41752
 20
132.785
 30
0.0
 11
6.91501
 21
133.283
 31
0.0
  0
LINE
  8
0
 62
     0
 10
6.91501
 20
133.283
 30
0.0
 11
7.2347
 21
133.91
 31
0.0
  0
LINE
  8
0
 62
     0
 10
7.2347
 20
133.91
 30
0.0
 11
7.34494
 21
134.604
 31
0.0
  0
LINE
  8
0
 62
     0
 10
7.34494
 20
134.604
 30
0.0
 11
7.2347
 21
135.3
 31
0.0
  0
LINE
  8
0
 62
     0
 10
7.2347
 20
135.3
 30
0.0
 11
6.91501
 21
135.927
 31
0.0
  0
LINE
  8
0
 62
     0
 10
6.91501
 20
135.927
 30
0.0
 11
6.41752
 21
136.426
 31
0.0
  0
LINE
  8
0
 62
     0
 10
6.41752
 20
136.426
 30
0.0
 11
5.79053
 21
136.744
 31
0.0
  0
LINE
  8
0
 62
     0
 10
5.79053
 20
136.744
 30
0.0
 11
5.09598
 21
136.854
 31
0.0
  0
LINE
  8
0
 62
     0
 10
5.09598
 20
136.854
 30
0.0
 11
4.40009
 21
136.744
 31
0.0
  0
ENDSEC
  0
EOF
