  0
SECTION
  2
HEADER
  9
$ACADVER
  1
AC1009
  9
$FILLMODE
 70
 0
  9
$SPLFRAME
 70
 1
  9
$EXTMIN
 10
0
 20
0
 30
0.0
  9
$EXTMAX
 10
1058.33
 20
1058.33
 30
0.0
  0
ENDSEC
  0
SECTION
  2
TABLES
  0
TABLE
  2
LAYER
 70
1
  0
LAYER
  2
0
 70
     0
 62
     7
  6
CONTINUOUS
  0
ENDTAB
  0
ENDSEC
  0
SECTION
  2
ENTITIES
  0
LINE
  8
0
 62
     0
 10
322.896
 20
134.666
 30
0.0
 11
323.052
 21
134.659
 31
0.0
  0
LINE
  8
0
 62
     0
 10
323.052
 20
134.659
 30
0.0
 11
323.208
 21
134.641
 31
0.0
  0
LINE
  8
0
 62
     0
 10
323.208
 20
134.641
 30
0.0
 11
323.362
 21
134.611
 31
0.0
  0
LINE
  8
0
 62
     0
 10
323.362
 20
134.611
 30
0.0
 11
323.515
 21
134.568
 31
0.0
  0
LINE
  8
0
 62
     0
 10
323.515
 20
134.568
 30
0.0
 11
323.661
 21
134.513
 31
0.0
  0
LINE
  8
0
 62
     0
 10
323.661
 20
134.513
 30
0.0
 11
323.803
 21
134.448
 31
0.0
  0
LINE
  8
0
 62
     0
 10
323.803
 20
134.448
 30
0.0
 11
323.941
 21
134.371
 31
0.0
  0
LINE
  8
0
 62
     0
 10
323.941
 20
134.371
 30
0.0
 11
324.072
 21
134.284
 31
0.0
  0
LINE
  8
0
 62
     0
 10
324.072
 20
134.284
 30
0.0
 11
324.195
 21
134.186
 31
0.0
  0
LINE
  8
0
 62
     0
 10
324.195
 20
134.186
 30
0.0
 11
324.31
 21
134.08
 31
0.0
  0
LINE
  8
0
 62
     0
 10
324.31
 20
134.08
 30
0.0
 11
324.416
 21
133.965
 31
0.0
  0
LINE
  8
0
 62
     0
 10
324.416
 20
133.965
 30
0.0
 11
324.514
 21
133.842
 31
0.0
  0
LINE
  8
0
 62
     0
 10
324.514
 20
133.842
 30
0.0
 11
324.601
 21
133.711
 31
0.0
  0
LINE
  8
0
 62
     0
 10
324.601
 20
133.711
 30
0.0
 11
324.678
 21
133.573
 31
0.0
  0
LINE
  8
0
 62
     0
 10
324.678
 20
133.573
 30
0.0
 11
324.743
 21
133.431
 31
0.0
  0
LINE
  8
0
 62
     0
 10
324.743
 20
133.431
 30
0.0
 11
324.798
 21
133.285
 31
0.0
  0
LINE
  8
0
 62
     0
 10
324.798
 20
133.285
 30
0.0
 11
324.841
 21
133.132
 31
0.0
  0
LINE
  8
0
 62
     0
 10
324.841
 20
133.132
 30
0.0
 11
324.871
 21
132.979
 31
0.0
  0
LINE
  8
0
 62
     0
 10
324.871
 20
132.979
 30
0.0
 11
324.889
 21
132.822
 31
0.0
  0
LINE
  8
0
 62
     0
 10
324.889
 20
132.822
 30
0.0
 11
324.896
 21
132.665
 31
0.0
  0
LINE
  8
0
 62
     0
 10
324.896
 20
132.665
 30
0.0
 11
324.896
 21
2.36472
 31
0.0
  0
LINE
  8
0
 62
     0
 10
324.896
 20
2.36472
 30
0.0
 11
324.889
 21
2.209
 31
0.0
  0
LINE
  8
0
 62
     0
 10
324.889
 20
2.209
 30
0.0
 11
324.871
 21
2.05328
 31
0.0
  0
LINE
  8
0
 62
     0
 10
324.871
 20
2.05328
 30
0.0
 11
324.841
 21
1.89894
 31
0.0
  0
LINE
  8
0
 62
     0
 10
324.841
 20
1.89894
 30
0.0
 11
324.798
 21
1.74597
 31
0.0
  0
LINE
  8
0
 62
     0
 10
324.798
 20
1.74597
 30
0.0
 11
324.743
 21
1.5999
 31
0.0
  0
LINE
  8
0
 62
     0
 10
324.743
 20
1.5999
 30
0.0
 11
324.678
 21
1.45796
 31
0.0
  0
LINE
  8
0
 62
     0
 10
324.678
 20
1.45796
 30
0.0
 11
324.601
 21
1.32016
 31
0.0
  0
LINE
  8
0
 62
     0
 10
324.601
 20
1.32016
 30
0.0
 11
324.514
 21
1.18925
 31
0.0
  0
LINE
  8
0
 62
     0
 10
324.514
 20
1.18925
 30
0.0
 11
324.416
 21
1.0666
 31
0.0
  0
LINE
  8
0
 62
     0
 10
324.416
 20
1.0666
 30
0.0
 11
324.31
 21
0.950846
 31
0.0
  0
LINE
  8
0
 62
     0
 10
324.31
 20
0.950846
 30
0.0
 11
324.195
 21
0.844737
 31
0.0
  0
LINE
  8
0
 62
     0
 10
324.195
 20
0.844737
 30
0.0
 11
324.072
 21
0.746898
 31
0.0
  0
LINE
  8
0
 62
     0
 10
324.072
 20
0.746898
 30
0.0
 11
323.941
 21
0.660079
 31
0.0
  0
LINE
  8
0
 62
     0
 10
323.941
 20
0.660079
 30
0.0
 11
323.803
 21
0.582909
 31
0.0
  0
LINE
  8
0
 62
     0
 10
323.803
 20
0.582909
 30
0.0
 11
323.661
 21
0.518142
 31
0.0
  0
LINE
  8
0
 62
     0
 10
323.661
 20
0.518142
 30
0.0
 11
323.515
 21
0.463021
 31
0.0
  0
LINE
  8
0
 62
     0
 10
323.515
 20
0.463021
 30
0.0
 11
323.362
 21
0.420303
 31
0.0
  0
LINE
  8
0
 62
     0
 10
323.362
 20
0.420303
 30
0.0
 11
323.208
 21
0.389985
 31
0.0
  0
LINE
  8
0
 62
     0
 10
323.208
 20
0.389985
 30
0.0
 11
323.052
 21
0.372071
 31
0.0
  0
LINE
  8
0
 62
     0
 10
323.052
 20
0.372071
 30
0.0
 11
322.896
 21
0.365181
 31
0.0
  0
LINE
  8
0
 62
     0
 10
322.896
 20
0.365181
 30
0.0
 11
2.096
 21
0.365181
 31
0.0
  0
LINE
  8
0
 62
     0
 10
2.096
 20
0.365181
 30
0.0
 11
1.9389
 21
0.372071
 31
0.0
  0
LINE
  8
0
 62
     0
 10
1.9389
 20
0.372071
 30
0.0
 11
1.7818
 21
0.389985
 31
0.0
  0
LINE
  8
0
 62
     0
 10
1.7818
 20
0.389985
 30
0.0
 11
1.62884
 21
0.420303
 31
0.0
  0
LINE
  8
0
 62
     0
 10
1.62884
 20
0.420303
 30
0.0
 11
1.47588
 21
0.463021
 31
0.0
  0
LINE
  8
0
 62
     0
 10
1.47588
 20
0.463021
 30
0.0
 11
1.32981
 21
0.518142
 31
0.0
  0
LINE
  8
0
 62
     0
 10
1.32981
 20
0.518142
 30
0.0
 11
1.18787
 21
0.582909
 31
0.0
  0
LINE
  8
0
 62
     0
 10
1.18787
 20
0.582909
 30
0.0
 11
1.05006
 21
0.660079
 31
0.0
  0
LINE
  8
0
 62
     0
 10
1.05006
 20
0.660079
 30
0.0
 11
0.919152
 21
0.746898
 31
0.0
  0
LINE
  8
0
 62
     0
 10
0.919152
 20
0.746898
 30
0.0
 11
0.796505
 21
0.844737
 31
0.0
  0
LINE
  8
0
 62
     0
 10
0.796505
 20
0.844737
 30
0.0
 11
0.680752
 21
0.950846
 31
0.0
  0
LINE
  8
0
 62
     0
 10
0.680752
 20
0.950846
 30
0.0
 11
0.574643
 21
1.0666
 31
0.0
  0
LINE
  8
0
 62
     0
 10
0.574643
 20
1.0666
 30
0.0
 11
0.4768
 21
1.18925
 31
0.0
  0
LINE
  8
0
 62
     0
 10
0.4768
 20
1.18925
 30
0.0
 11
0.389985
 21
1.32016
 31
0.0
  0
LINE
  8
0
 62
     0
 10
0.389985
 20
1.32016
 30
0.0
 11
0.312815
 21
1.45796
 31
0.0
  0
LINE
  8
0
 62
     0
 10
0.312815
 20
1.45796
 30
0.0
 11
0.248047
 21
1.5999
 31
0.0
  0
LINE
  8
0
 62
     0
 10
0.248047
 20
1.5999
 30
0.0
 11
0.192925
 21
1.74597
 31
0.0
  0
LINE
  8
0
 62
     0
 10
0.192925
 20
1.74597
 30
0.0
 11
0.150206
 21
1.89894
 31
0.0
  0
LINE
  8
0
 62
     0
 10
0.150206
 20
1.89894
 30
0.0
 11
0.119889
 21
2.05328
 31
0.0
  0
LINE
  8
0
 62
     0
 10
0.119889
 20
2.05328
 30
0.0
 11
0.101975
 21
2.209
 31
0.0
  0
LINE
  8
0
 62
     0
 10
0.101975
 20
2.209
 30
0.0
 11
0.0950846
 21
2.36609
 31
0.0
  0
LINE
  8
0
 62
     0
 10
0.0950846
 20
2.36609
 30
0.0
 11
0.0950846
 21
132.665
 31
0.0
  0
LINE
  8
0
 62
     0
 10
0.0950846
 20
132.665
 30
0.0
 11
0.101975
 21
132.822
 31
0.0
  0
LINE
  8
0
 62
     0
 10
0.101975
 20
132.822
 30
0.0
 11
0.119889
 21
132.979
 31
0.0
  0
LINE
  8
0
 62
     0
 10
0.119889
 20
132.979
 30
0.0
 11
0.150206
 21
133.132
 31
0.0
  0
LINE
  8
0
 62
     0
 10
0.150206
 20
133.132
 30
0.0
 11
0.192925
 21
133.285
 31
0.0
  0
LINE
  8
0
 62
     0
 10
0.192925
 20
133.285
 30
0.0
 11
0.248047
 21
133.431
 31
0.0
  0
LINE
  8
0
 62
     0
 10
0.248047
 20
133.431
 30
0.0
 11
0.312815
 21
133.573
 31
0.0
  0
LINE
  8
0
 62
     0
 10
0.312815
 20
133.573
 30
0.0
 11
0.389985
 21
133.711
 31
0.0
  0
LINE
  8
0
 62
     0
 10
0.389985
 20
133.711
 30
0.0
 11
0.4768
 21
133.842
 31
0.0
  0
LINE
  8
0
 62
     0
 10
0.4768
 20
133.842
 30
0.0
 11
0.574643
 21
133.965
 31
0.0
  0
LINE
  8
0
 62
     0
 10
0.574643
 20
133.965
 30
0.0
 11
0.680752
 21
134.08
 31
0.0
  0
LINE
  8
0
 62
     0
 10
0.680752
 20
134.08
 30
0.0
 11
0.796505
 21
134.186
 31
0.0
  0
LINE
  8
0
 62
     0
 10
0.796505
 20
134.186
 30
0.0
 11
0.919152
 21
134.284
 31
0.0
  0
LINE
  8
0
 62
     0
 10
0.919152
 20
134.284
 30
0.0
 11
1.05006
 21
134.371
 31
0.0
  0
LINE
  8
0
 62
     0
 10
1.05006
 20
134.371
 30
0.0
 11
1.18787
 21
134.448
 31
0.0
  0
LINE
  8
0
 62
     0
 10
1.18787
 20
134.448
 30
0.0
 11
1.32981
 21
134.513
 31
0.0
  0
LINE
  8
0
 62
     0
 10
1.32981
 20
134.513
 30
0.0
 11
1.47588
 21
134.568
 31
0.0
  0
LINE
  8
0
 62
     0
 10
1.47588
 20
134.568
 30
0.0
 11
1.62884
 21
134.611
 31
0.0
  0
LINE
  8
0
 62
     0
 10
1.62884
 20
134.611
 30
0.0
 11
1.7818
 21
134.641
 31
0.0
  0
LINE
  8
0
 62
     0
 10
1.7818
 20
134.641
 30
0.0
 11
1.9389
 21
134.659
 31
0.0
  0
LINE
  8
0
 62
     0
 10
1.9389
 20
134.659
 30
0.0
 11
2.096
 21
134.666
 31
0.0
  0
LINE
  8
0
 62
     0
 10
2.096
 20
134.666
 30
0.0
 11
322.896
 21
134.666
 31
0.0
  0
LINE
  8
0
 62
     0
 10
319.2
 20
7.50478
 30
0.0
 11
318.574
 21
7.1851
 31
0.0
  0
LINE
  8
0
 62
     0
 10
318.574
 20
7.1851
 30
0.0
 11
318.076
 21
6.68761
 31
0.0
  0
LINE
  8
0
 62
     0
 10
318.076
 20
6.68761
 30
0.0
 11
317.756
 21
6.06062
 31
0.0
  0
LINE
  8
0
 62
     0
 10
317.756
 20
6.06062
 30
0.0
 11
317.646
 21
5.36469
 31
0.0
  0
LINE
  8
0
 62
     0
 10
317.646
 20
5.36469
 30
0.0
 11
317.756
 21
4.67018
 31
0.0
  0
LINE
  8
0
 62
     0
 10
317.756
 20
4.67018
 30
0.0
 11
318.076
 21
4.04315
 31
0.0
  0
LINE
  8
0
 62
     0
 10
318.076
 20
4.04315
 30
0.0
 11
318.574
 21
3.54432
 31
0.0
  0
LINE
  8
0
 62
     0
 10
318.574
 20
3.54432
 30
0.0
 11
319.2
 21
3.22599
 31
0.0
  0
LINE
  8
0
 62
     0
 10
319.2
 20
3.22599
 30
0.0
 11
319.896
 21
3.11437
 31
0.0
  0
LINE
  8
0
 62
     0
 10
319.896
 20
3.11437
 30
0.0
 11
320.591
 21
3.22599
 31
0.0
  0
LINE
  8
0
 62
     0
 10
320.591
 20
3.22599
 30
0.0
 11
321.218
 21
3.54432
 31
0.0
  0
LINE
  8
0
 62
     0
 10
321.218
 20
3.54432
 30
0.0
 11
321.717
 21
4.04315
 31
0.0
  0
LINE
  8
0
 62
     0
 10
321.717
 20
4.04315
 30
0.0
 11
322.035
 21
4.67018
 31
0.0
  0
LINE
  8
0
 62
     0
 10
322.035
 20
4.67018
 30
0.0
 11
322.147
 21
5.36469
 31
0.0
  0
LINE
  8
0
 62
     0
 10
322.147
 20
5.36469
 30
0.0
 11
322.035
 21
6.06062
 31
0.0
  0
LINE
  8
0
 62
     0
 10
322.035
 20
6.06062
 30
0.0
 11
321.717
 21
6.68761
 31
0.0
  0
LINE
  8
0
 62
     0
 10
321.717
 20
6.68761
 30
0.0
 11
321.218
 21
7.1851
 31
0.0
  0
LINE
  8
0
 62
     0
 10
321.218
 20
7.1851
 30
0.0
 11
320.591
 21
7.50478
 31
0.0
  0
LINE
  8
0
 62
     0
 10
320.591
 20
7.50478
 30
0.0
 11
319.896
 21
7.61503
 31
0.0
  0
LINE
  8
0
 62
     0
 10
319.896
 20
7.61503
 30
0.0
 11
319.2
 21
7.50478
 31
0.0
  0
LINE
  8
0
 62
     0
 10
214.267
 20
7.50478
 30
0.0
 11
213.64
 21
7.1851
 31
0.0
  0
LINE
  8
0
 62
     0
 10
213.64
 20
7.1851
 30
0.0
 11
213.143
 21
6.68761
 31
0.0
  0
LINE
  8
0
 62
     0
 10
213.143
 20
6.68761
 30
0.0
 11
212.823
 21
6.06062
 31
0.0
  0
LINE
  8
0
 62
     0
 10
212.823
 20
6.06062
 30
0.0
 11
212.713
 21
5.36469
 31
0.0
  0
LINE
  8
0
 62
     0
 10
212.713
 20
5.36469
 30
0.0
 11
212.823
 21
4.67018
 31
0.0
  0
LINE
  8
0
 62
     0
 10
212.823
 20
4.67018
 30
0.0
 11
213.143
 21
4.04315
 31
0.0
  0
LINE
  8
0
 62
     0
 10
213.143
 20
4.04315
 30
0.0
 11
213.64
 21
3.54432
 31
0.0
  0
LINE
  8
0
 62
     0
 10
213.64
 20
3.54432
 30
0.0
 11
214.267
 21
3.22599
 31
0.0
  0
LINE
  8
0
 62
     0
 10
214.267
 20
3.22599
 30
0.0
 11
214.963
 21
3.11437
 31
0.0
  0
LINE
  8
0
 62
     0
 10
214.963
 20
3.11437
 30
0.0
 11
215.658
 21
3.22599
 31
0.0
  0
LINE
  8
0
 62
     0
 10
215.658
 20
3.22599
 30
0.0
 11
216.285
 21
3.54432
 31
0.0
  0
LINE
  8
0
 62
     0
 10
216.285
 20
3.54432
 30
0.0
 11
216.782
 21
4.04315
 31
0.0
  0
LINE
  8
0
 62
     0
 10
216.782
 20
4.04315
 30
0.0
 11
217.103
 21
4.67018
 31
0.0
  0
LINE
  8
0
 62
     0
 10
217.103
 20
4.67018
 30
0.0
 11
217.212
 21
5.36469
 31
0.0
  0
LINE
  8
0
 62
     0
 10
217.212
 20
5.36469
 30
0.0
 11
217.103
 21
6.06062
 31
0.0
  0
LINE
  8
0
 62
     0
 10
217.103
 20
6.06062
 30
0.0
 11
216.782
 21
6.68761
 31
0.0
  0
LINE
  8
0
 62
     0
 10
216.782
 20
6.68761
 30
0.0
 11
216.285
 21
7.1851
 31
0.0
  0
LINE
  8
0
 62
     0
 10
216.285
 20
7.1851
 30
0.0
 11
215.658
 21
7.50478
 31
0.0
  0
LINE
  8
0
 62
     0
 10
215.658
 20
7.50478
 30
0.0
 11
214.963
 21
7.61503
 31
0.0
  0
LINE
  8
0
 62
     0
 10
214.963
 20
7.61503
 30
0.0
 11
214.267
 21
7.50478
 31
0.0
  0
LINE
  8
0
 62
     0
 10
109.334
 20
7.50478
 30
0.0
 11
108.707
 21
7.1851
 31
0.0
  0
LINE
  8
0
 62
     0
 10
108.707
 20
7.1851
 30
0.0
 11
108.209
 21
6.68761
 31
0.0
  0
LINE
  8
0
 62
     0
 10
108.209
 20
6.68761
 30
0.0
 11
107.888
 21
6.06062
 31
0.0
  0
LINE
  8
0
 62
     0
 10
107.888
 20
6.06062
 30
0.0
 11
107.779
 21
5.36469
 31
0.0
  0
LINE
  8
0
 62
     0
 10
107.779
 20
5.36469
 30
0.0
 11
107.888
 21
4.67018
 31
0.0
  0
LINE
  8
0
 62
     0
 10
107.888
 20
4.67018
 30
0.0
 11
108.209
 21
4.04315
 31
0.0
  0
LINE
  8
0
 62
     0
 10
108.209
 20
4.04315
 30
0.0
 11
108.707
 21
3.54432
 31
0.0
  0
LINE
  8
0
 62
     0
 10
108.707
 20
3.54432
 30
0.0
 11
109.334
 21
3.22599
 31
0.0
  0
LINE
  8
0
 62
     0
 10
109.334
 20
3.22599
 30
0.0
 11
110.028
 21
3.11437
 31
0.0
  0
LINE
  8
0
 62
     0
 10
110.028
 20
3.11437
 30
0.0
 11
110.724
 21
3.22599
 31
0.0
  0
LINE
  8
0
 62
     0
 10
110.724
 20
3.22599
 30
0.0
 11
111.351
 21
3.54432
 31
0.0
  0
LINE
  8
0
 62
     0
 10
111.351
 20
3.54432
 30
0.0
 11
111.849
 21
4.04315
 31
0.0
  0
LINE
  8
0
 62
     0
 10
111.849
 20
4.04315
 30
0.0
 11
112.168
 21
4.67018
 31
0.0
  0
LINE
  8
0
 62
     0
 10
112.168
 20
4.67018
 30
0.0
 11
112.279
 21
5.36469
 31
0.0
  0
LINE
  8
0
 62
     0
 10
112.279
 20
5.36469
 30
0.0
 11
112.168
 21
6.06062
 31
0.0
  0
LINE
  8
0
 62
     0
 10
112.168
 20
6.06062
 30
0.0
 11
111.849
 21
6.68761
 31
0.0
  0
LINE
  8
0
 62
     0
 10
111.849
 20
6.68761
 30
0.0
 11
111.351
 21
7.1851
 31
0.0
  0
LINE
  8
0
 62
     0
 10
111.351
 20
7.1851
 30
0.0
 11
110.724
 21
7.50478
 31
0.0
  0
LINE
  8
0
 62
     0
 10
110.724
 20
7.50478
 30
0.0
 11
110.028
 21
7.61503
 31
0.0
  0
LINE
  8
0
 62
     0
 10
110.028
 20
7.61503
 30
0.0
 11
109.334
 21
7.50478
 31
0.0
  0
LINE
  8
0
 62
     0
 10
4.40009
 20
7.50478
 30
0.0
 11
3.77306
 21
7.1851
 31
0.0
  0
LINE
  8
0
 62
     0
 10
3.77306
 20
7.1851
 30
0.0
 11
3.27422
 21
6.68761
 31
0.0
  0
LINE
  8
0
 62
     0
 10
3.27422
 20
6.68761
 30
0.0
 11
2.95589
 21
6.06062
 31
0.0
  0
LINE
  8
0
 62
     0
 10
2.95589
 20
6.06062
 30
0.0
 11
2.84565
 21
5.36469
 31
0.0
  0
LINE
  8
0
 62
     0
 10
2.84565
 20
5.36469
 30
0.0
 11
2.95589
 21
4.67018
 31
0.0
  0
LINE
  8
0
 62
     0
 10
2.95589
 20
4.67018
 30
0.0
 11
3.27422
 21
4.04315
 31
0.0
  0
LINE
  8
0
 62
     0
 10
3.27422
 20
4.04315
 30
0.0
 11
3.77306
 21
3.54432
 31
0.0
  0
LINE
  8
0
 62
     0
 10
3.77306
 20
3.54432
 30
0.0
 11
4.40009
 21
3.22599
 31
0.0
  0
LINE
  8
0
 62
     0
 10
4.40009
 20
3.22599
 30
0.0
 11
5.09598
 21
3.11437
 31
0.0
  0
LINE
  8
0
 62
     0
 10
5.09598
 20
3.11437
 30
0.0
 11
5.79053
 21
3.22599
 31
0.0
  0
LINE
  8
0
 62
     0
 10
5.79053
 20
3.22599
 30
0.0
 11
6.41752
 21
3.54432
 31
0.0
  0
LINE
  8
0
 62
     0
 10
6.41752
 20
3.54432
 30
0.0
 11
6.91501
 21
4.04315
 31
0.0
  0
LINE
  8
0
 62
     0
 10
6.91501
 20
4.04315
 30
0.0
 11
7.2347
 21
4.67018
 31
0.0
  0
LINE
  8
0
 62
     0
 10
7.2347
 20
4.67018
 30
0.0
 11
7.34494
 21
5.36469
 31
0.0
  0
LINE
  8
0
 62
     0
 10
7.34494
 20
5.36469
 30
0.0
 11
7.2347
 21
6.06062
 31
0.0
  0
LINE
  8
0
 62
     0
 10
7.2347
 20
6.06062
 30
0.0
 11
6.91501
 21
6.68761
 31
0.0
  0
LINE
  8
0
 62
     0
 10
6.91501
 20
6.68761
 30
0.0
 11
6.41752
 21
7.1851
 31
0.0
  0
LINE
  8
0
 62
     0
 10
6.41752
 20
7.1851
 30
0.0
 11
5.79053
 21
7.50478
 31
0.0
  0
LINE
  8
0
 62
     0
 10
5.79053
 20
7.50478
 30
0.0
 11
5.09598
 21
7.61503
 31
0.0
  0
LINE
  8
0
 62
     0
 10
5.09598
 20
7.61503
 30
0.0
 11
4.40009
 21
7.50478
 31
0.0
  0
LINE
  8
0
 62
     0
 10
134.064
 20
26.8911
 30
0.0
 11
134.064
 21
22.1905
 31
0.0
  0
LINE
  8
0
 62
     0
 10
134.064
 20
22.1905
 30
0.0
 11
94.4383
 21
22.1905
 31
0.0
  0
LINE
  8
0
 62
     0
 10
94.4383
 20
22.1905
 30
0.0
 11
94.4383
 21
25.422
 31
0.0
  0
LINE
  8
0
 62
     0
 10
94.4383
 20
25.422
 30
0.0
 11
92.7132
 21
25.422
 31
0.0
  0
LINE
  8
0
 62
     0
 10
92.7132
 20
25.422
 30
0.0
 11
92.7132
 21
26.3412
 31
0.0
  0
LINE
  8
0
 62
     0
 10
92.7132
 20
26.3412
 30
0.0
 11
89.414
 21
26.3412
 31
0.0
  0
LINE
  8
0
 62
     0
 10
89.414
 20
26.3412
 30
0.0
 11
89.414
 21
25.422
 31
0.0
  0
LINE
  8
0
 62
     0
 10
89.414
 20
25.422
 30
0.0
 11
87.6886
 21
25.422
 31
0.0
  0
LINE
  8
0
 62
     0
 10
87.6886
 20
25.422
 30
0.0
 11
87.6886
 21
22.1905
 31
0.0
  0
LINE
  8
0
 62
     0
 10
87.6886
 20
22.1905
 30
0.0
 11
86.8634
 21
22.1905
 31
0.0
  0
LINE
  8
0
 62
     0
 10
86.8634
 20
22.1905
 30
0.0
 11
86.8634
 21
19.3918
 31
0.0
  0
LINE
  8
0
 62
     0
 10
86.8634
 20
19.3918
 30
0.0
 11
87.6886
 21
19.3918
 31
0.0
  0
LINE
  8
0
 62
     0
 10
87.6886
 20
19.3918
 30
0.0
 11
87.6886
 21
13.1217
 31
0.0
  0
LINE
  8
0
 62
     0
 10
87.6886
 20
13.1217
 30
0.0
 11
89.414
 21
13.1217
 31
0.0
  0
LINE
  8
0
 62
     0
 10
89.414
 20
13.1217
 30
0.0
 11
89.414
 21
12.1419
 31
0.0
  0
LINE
  8
0
 62
     0
 10
89.414
 20
12.1419
 30
0.0
 11
92.7132
 21
12.1419
 31
0.0
  0
LINE
  8
0
 62
     0
 10
92.7132
 20
12.1419
 30
0.0
 11
92.7132
 21
13.1217
 31
0.0
  0
LINE
  8
0
 62
     0
 10
92.7132
 20
13.1217
 30
0.0
 11
94.4383
 21
13.1217
 31
0.0
  0
LINE
  8
0
 62
     0
 10
94.4383
 20
13.1217
 30
0.0
 11
94.4383
 21
17.592
 31
0.0
  0
LINE
  8
0
 62
     0
 10
94.4383
 20
17.592
 30
0.0
 11
134.064
 21
17.592
 31
0.0
  0
LINE
  8
0
 62
     0
 10
134.064
 20
17.592
 30
0.0
 11
134.064
 21
12.8916
 31
0.0
  0
LINE
  8
0
 62
     0
 10
134.064
 20
12.8916
 30
0.0
 11
148.063
 21
12.8916
 31
0.0
  0
LINE
  8
0
 62
     0
 10
148.063
 20
12.8916
 30
0.0
 11
148.063
 21
17.592
 31
0.0
  0
LINE
  8
0
 62
     0
 10
148.063
 20
17.592
 30
0.0
 11
187.689
 21
17.592
 31
0.0
  0
LINE
  8
0
 62
     0
 10
187.689
 20
17.592
 30
0.0
 11
187.689
 21
13.1217
 31
0.0
  0
LINE
  8
0
 62
     0
 10
187.689
 20
13.1217
 30
0.0
 11
189.414
 21
13.1217
 31
0.0
  0
LINE
  8
0
 62
     0
 10
189.414
 20
13.1217
 30
0.0
 11
189.414
 21
12.1419
 31
0.0
  0
LINE
  8
0
 62
     0
 10
189.414
 20
12.1419
 30
0.0
 11
192.713
 21
12.1419
 31
0.0
  0
LINE
  8
0
 62
     0
 10
192.713
 20
12.1419
 30
0.0
 11
192.713
 21
13.1217
 31
0.0
  0
LINE
  8
0
 62
     0
 10
192.713
 20
13.1217
 30
0.0
 11
194.438
 21
13.1217
 31
0.0
  0
LINE
  8
0
 62
     0
 10
194.438
 20
13.1217
 30
0.0
 11
194.438
 21
19.3918
 31
0.0
  0
LINE
  8
0
 62
     0
 10
194.438
 20
19.3918
 30
0.0
 11
195.264
 21
19.3918
 31
0.0
  0
LINE
  8
0
 62
     0
 10
195.264
 20
19.3918
 30
0.0
 11
195.264
 21
22.1905
 31
0.0
  0
LINE
  8
0
 62
     0
 10
195.264
 20
22.1905
 30
0.0
 11
194.438
 21
22.1905
 31
0.0
  0
LINE
  8
0
 62
     0
 10
194.438
 20
22.1905
 30
0.0
 11
194.438
 21
25.422
 31
0.0
  0
LINE
  8
0
 62
     0
 10
194.438
 20
25.422
 30
0.0
 11
192.713
 21
25.422
 31
0.0
  0
LINE
  8
0
 62
     0
 10
192.713
 20
25.422
 30
0.0
 11
192.713
 21
26.3412
 31
0.0
  0
LINE
  8
0
 62
     0
 10
192.713
 20
26.3412
 30
0.0
 11
189.414
 21
26.3412
 31
0.0
  0
LINE
  8
0
 62
     0
 10
189.414
 20
26.3412
 30
0.0
 11
189.414
 21
25.422
 31
0.0
  0
LINE
  8
0
 62
     0
 10
189.414
 20
25.422
 30
0.0
 11
187.689
 21
25.422
 31
0.0
  0
LINE
  8
0
 62
     0
 10
187.689
 20
25.422
 30
0.0
 11
187.689
 21
22.1905
 31
0.0
  0
LINE
  8
0
 62
     0
 10
187.689
 20
22.1905
 30
0.0
 11
148.063
 21
22.1905
 31
0.0
  0
LINE
  8
0
 62
     0
 10
148.063
 20
22.1905
 30
0.0
 11
148.063
 21
26.8911
 31
0.0
  0
LINE
  8
0
 62
     0
 10
148.063
 20
26.8911
 30
0.0
 11
134.064
 21
26.8911
 31
0.0
  0
LINE
  8
0
 62
     0
 10
15.0013
 20
26.8911
 30
0.0
 11
29.0008
 21
26.8911
 31
0.0
  0
LINE
  8
0
 62
     0
 10
29.0008
 20
26.8911
 30
0.0
 11
29.0008
 21
12.8916
 31
0.0
  0
LINE
  8
0
 62
     0
 10
29.0008
 20
12.8916
 30
0.0
 11
15.0013
 21
12.8916
 31
0.0
  0
LINE
  8
0
 62
     0
 10
15.0013
 20
12.8916
 30
0.0
 11
15.0013
 21
26.8911
 31
0.0
  0
LINE
  8
0
 62
     0
 10
38.8137
 20
26.8911
 30
0.0
 11
52.8133
 21
26.8911
 31
0.0
  0
LINE
  8
0
 62
     0
 10
52.8133
 20
26.8911
 30
0.0
 11
52.8133
 21
12.8916
 31
0.0
  0
LINE
  8
0
 62
     0
 10
52.8133
 20
12.8916
 30
0.0
 11
38.8137
 21
12.8916
 31
0.0
  0
LINE
  8
0
 62
     0
 10
38.8137
 20
12.8916
 30
0.0
 11
38.8137
 21
26.8911
 31
0.0
  0
LINE
  8
0
 62
     0
 10
62.6262
 20
26.8911
 30
0.0
 11
76.6258
 21
26.8911
 31
0.0
  0
LINE
  8
0
 62
     0
 10
76.6258
 20
26.8911
 30
0.0
 11
76.6258
 21
12.8916
 31
0.0
  0
LINE
  8
0
 62
     0
 10
76.6258
 20
12.8916
 30
0.0
 11
62.6262
 21
12.8916
 31
0.0
  0
LINE
  8
0
 62
     0
 10
62.6262
 20
12.8916
 30
0.0
 11
62.6262
 21
26.8911
 31
0.0
  0
LINE
  8
0
 62
     0
 10
203.12
 20
26.8911
 30
0.0
 11
217.121
 21
26.8911
 31
0.0
  0
LINE
  8
0
 62
     0
 10
217.121
 20
26.8911
 30
0.0
 11
217.121
 21
12.8916
 31
0.0
  0
LINE
  8
0
 62
     0
 10
217.121
 20
12.8916
 30
0.0
 11
203.12
 21
12.8916
 31
0.0
  0
LINE
  8
0
 62
     0
 10
203.12
 20
12.8916
 30
0.0
 11
203.12
 21
26.8911
 31
0.0
  0
LINE
  8
0
 62
     0
 10
222.17
 20
26.8911
 30
0.0
 11
236.171
 21
26.8911
 31
0.0
  0
LINE
  8
0
 62
     0
 10
236.171
 20
26.8911
 30
0.0
 11
236.171
 21
12.8916
 31
0.0
  0
LINE
  8
0
 62
     0
 10
236.171
 20
12.8916
 30
0.0
 11
222.17
 21
12.8916
 31
0.0
  0
LINE
  8
0
 62
     0
 10
222.17
 20
12.8916
 30
0.0
 11
222.17
 21
26.8911
 31
0.0
  0
LINE
  8
0
 62
     0
 10
241.22
 20
26.8911
 30
0.0
 11
255.221
 21
26.8911
 31
0.0
  0
LINE
  8
0
 62
     0
 10
255.221
 20
26.8911
 30
0.0
 11
255.221
 21
12.8916
 31
0.0
  0
LINE
  8
0
 62
     0
 10
255.221
 20
12.8916
 30
0.0
 11
241.22
 21
12.8916
 31
0.0
  0
LINE
  8
0
 62
     0
 10
241.22
 20
12.8916
 30
0.0
 11
241.22
 21
26.8911
 31
0.0
  0
LINE
  8
0
 62
     0
 10
260.27
 20
26.8911
 30
0.0
 11
274.271
 21
26.8911
 31
0.0
  0
LINE
  8
0
 62
     0
 10
274.271
 20
26.8911
 30
0.0
 11
274.271
 21
12.8916
 31
0.0
  0
LINE
  8
0
 62
     0
 10
274.271
 20
12.8916
 30
0.0
 11
260.27
 21
12.8916
 31
0.0
  0
LINE
  8
0
 62
     0
 10
260.27
 20
12.8916
 30
0.0
 11
260.27
 21
26.8911
 31
0.0
  0
LINE
  8
0
 62
     0
 10
279.32
 20
26.8911
 30
0.0
 11
293.321
 21
26.8911
 31
0.0
  0
LINE
  8
0
 62
     0
 10
293.321
 20
26.8911
 30
0.0
 11
293.321
 21
12.8916
 31
0.0
  0
LINE
  8
0
 62
     0
 10
293.321
 20
12.8916
 30
0.0
 11
279.32
 21
12.8916
 31
0.0
  0
LINE
  8
0
 62
     0
 10
279.32
 20
12.8916
 30
0.0
 11
279.32
 21
26.8911
 31
0.0
  0
LINE
  8
0
 62
     0
 10
298.37
 20
26.8911
 30
0.0
 11
312.371
 21
26.8911
 31
0.0
  0
LINE
  8
0
 62
     0
 10
312.371
 20
26.8911
 30
0.0
 11
312.371
 21
12.8916
 31
0.0
  0
LINE
  8
0
 62
     0
 10
312.371
 20
12.8916
 30
0.0
 11
298.37
 21
12.8916
 31
0.0
  0
LINE
  8
0
 62
     0
 10
298.37
 20
12.8916
 30
0.0
 11
298.37
 21
26.8911
 31
0.0
  0
LINE
  8
0
 62
     0
 10
24.5263
 20
45.9412
 30
0.0
 11
24.5263
 21
41.2404
 31
0.0
  0
LINE
  8
0
 62
     0
 10
24.5263
 20
41.2404
 30
0.0
 11
23.0008
 21
41.2404
 31
0.0
  0
LINE
  8
0
 62
     0
 10
23.0008
 20
41.2404
 30
0.0
 11
23.0008
 21
44.4708
 31
0.0
  0
LINE
  8
0
 62
     0
 10
23.0008
 20
44.4708
 30
0.0
 11
21.2769
 21
44.4708
 31
0.0
  0
LINE
  8
0
 62
     0
 10
21.2769
 20
44.4708
 30
0.0
 11
21.2769
 21
45.3912
 31
0.0
  0
LINE
  8
0
 62
     0
 10
21.2769
 20
45.3912
 30
0.0
 11
17.9765
 21
45.3912
 31
0.0
  0
LINE
  8
0
 62
     0
 10
17.9765
 20
45.3912
 30
0.0
 11
17.9765
 21
44.4708
 31
0.0
  0
LINE
  8
0
 62
     0
 10
17.9765
 20
44.4708
 30
0.0
 11
16.2512
 21
44.4708
 31
0.0
  0
LINE
  8
0
 62
     0
 10
16.2512
 20
44.4708
 30
0.0
 11
16.2512
 21
41.2404
 31
0.0
  0
LINE
  8
0
 62
     0
 10
16.2512
 20
41.2404
 30
0.0
 11
15.4271
 21
41.2404
 31
0.0
  0
LINE
  8
0
 62
     0
 10
15.4271
 20
41.2404
 30
0.0
 11
15.4271
 21
38.4404
 31
0.0
  0
LINE
  8
0
 62
     0
 10
15.4271
 20
38.4404
 30
0.0
 11
16.2512
 21
38.4404
 31
0.0
  0
LINE
  8
0
 62
     0
 10
16.2512
 20
38.4404
 30
0.0
 11
16.2512
 21
32.1717
 31
0.0
  0
LINE
  8
0
 62
     0
 10
16.2512
 20
32.1717
 30
0.0
 11
17.9765
 21
32.1717
 31
0.0
  0
LINE
  8
0
 62
     0
 10
17.9765
 20
32.1717
 30
0.0
 11
17.9765
 21
31.1905
 31
0.0
  0
LINE
  8
0
 62
     0
 10
17.9765
 20
31.1905
 30
0.0
 11
21.2769
 21
31.1905
 31
0.0
  0
LINE
  8
0
 62
     0
 10
21.2769
 20
31.1905
 30
0.0
 11
21.2769
 21
32.1717
 31
0.0
  0
LINE
  8
0
 62
     0
 10
21.2769
 20
32.1717
 30
0.0
 11
23.0008
 21
32.1717
 31
0.0
  0
LINE
  8
0
 62
     0
 10
23.0008
 20
32.1717
 30
0.0
 11
23.0008
 21
36.642
 31
0.0
  0
LINE
  8
0
 62
     0
 10
23.0008
 20
36.642
 30
0.0
 11
24.5263
 21
36.642
 31
0.0
  0
LINE
  8
0
 62
     0
 10
24.5263
 20
36.642
 30
0.0
 11
24.5263
 21
31.9402
 31
0.0
  0
LINE
  8
0
 62
     0
 10
24.5263
 20
31.9402
 30
0.0
 11
38.5258
 21
31.9402
 31
0.0
  0
LINE
  8
0
 62
     0
 10
38.5258
 20
31.9402
 30
0.0
 11
38.5258
 21
36.642
 31
0.0
  0
LINE
  8
0
 62
     0
 10
38.5258
 20
36.642
 30
0.0
 11
40.0512
 21
36.642
 31
0.0
  0
LINE
  8
0
 62
     0
 10
40.0512
 20
36.642
 30
0.0
 11
40.0512
 21
32.1717
 31
0.0
  0
LINE
  8
0
 62
     0
 10
40.0512
 20
32.1717
 30
0.0
 11
41.7766
 21
32.1717
 31
0.0
  0
LINE
  8
0
 62
     0
 10
41.7766
 20
32.1717
 30
0.0
 11
41.7766
 21
31.1905
 31
0.0
  0
LINE
  8
0
 62
     0
 10
41.7766
 20
31.1905
 30
0.0
 11
45.0769
 21
31.1905
 31
0.0
  0
LINE
  8
0
 62
     0
 10
45.0769
 20
31.1905
 30
0.0
 11
45.0769
 21
32.1717
 31
0.0
  0
LINE
  8
0
 62
     0
 10
45.0769
 20
32.1717
 30
0.0
 11
46.8009
 21
32.1717
 31
0.0
  0
LINE
  8
0
 62
     0
 10
46.8009
 20
32.1717
 30
0.0
 11
46.8009
 21
38.4404
 31
0.0
  0
LINE
  8
0
 62
     0
 10
46.8009
 20
38.4404
 30
0.0
 11
47.6264
 21
38.4404
 31
0.0
  0
LINE
  8
0
 62
     0
 10
47.6264
 20
38.4404
 30
0.0
 11
47.6264
 21
41.2404
 31
0.0
  0
LINE
  8
0
 62
     0
 10
47.6264
 20
41.2404
 30
0.0
 11
46.8009
 21
41.2404
 31
0.0
  0
LINE
  8
0
 62
     0
 10
46.8009
 20
41.2404
 30
0.0
 11
46.8009
 21
44.4708
 31
0.0
  0
LINE
  8
0
 62
     0
 10
46.8009
 20
44.4708
 30
0.0
 11
45.0769
 21
44.4708
 31
0.0
  0
LINE
  8
0
 62
     0
 10
45.0769
 20
44.4708
 30
0.0
 11
45.0769
 21
45.3912
 31
0.0
  0
LINE
  8
0
 62
     0
 10
45.0769
 20
45.3912
 30
0.0
 11
41.7766
 21
45.3912
 31
0.0
  0
LINE
  8
0
 62
     0
 10
41.7766
 20
45.3912
 30
0.0
 11
41.7766
 21
44.4708
 31
0.0
  0
LINE
  8
0
 62
     0
 10
41.7766
 20
44.4708
 30
0.0
 11
40.0512
 21
44.4708
 31
0.0
  0
LINE
  8
0
 62
     0
 10
40.0512
 20
44.4708
 30
0.0
 11
40.0512
 21
41.2404
 31
0.0
  0
LINE
  8
0
 62
     0
 10
40.0512
 20
41.2404
 30
0.0
 11
38.5258
 21
41.2404
 31
0.0
  0
LINE
  8
0
 62
     0
 10
38.5258
 20
41.2404
 30
0.0
 11
38.5258
 21
45.9412
 31
0.0
  0
LINE
  8
0
 62
     0
 10
38.5258
 20
45.9412
 30
0.0
 11
24.5263
 21
45.9412
 31
0.0
  0
LINE
  8
0
 62
     0
 10
55.4824
 20
45.9412
 30
0.0
 11
69.4821
 21
45.9412
 31
0.0
  0
LINE
  8
0
 62
     0
 10
69.4821
 20
45.9412
 30
0.0
 11
69.4821
 21
31.9402
 31
0.0
  0
LINE
  8
0
 62
     0
 10
69.4821
 20
31.9402
 30
0.0
 11
55.4824
 21
31.9402
 31
0.0
  0
LINE
  8
0
 62
     0
 10
55.4824
 20
31.9402
 30
0.0
 11
55.4824
 21
45.9412
 31
0.0
  0
LINE
  8
0
 62
     0
 10
74.5324
 20
45.9412
 30
0.0
 11
88.5321
 21
45.9412
 31
0.0
  0
LINE
  8
0
 62
     0
 10
88.5321
 20
45.9412
 30
0.0
 11
88.5321
 21
31.9402
 31
0.0
  0
LINE
  8
0
 62
     0
 10
88.5321
 20
31.9402
 30
0.0
 11
74.5324
 21
31.9402
 31
0.0
  0
LINE
  8
0
 62
     0
 10
74.5324
 20
31.9402
 30
0.0
 11
74.5324
 21
45.9412
 31
0.0
  0
LINE
  8
0
 62
     0
 10
93.5824
 20
45.9412
 30
0.0
 11
107.582
 21
45.9412
 31
0.0
  0
LINE
  8
0
 62
     0
 10
107.582
 20
45.9412
 30
0.0
 11
107.582
 21
31.9402
 31
0.0
  0
LINE
  8
0
 62
     0
 10
107.582
 20
31.9402
 30
0.0
 11
93.5824
 21
31.9402
 31
0.0
  0
LINE
  8
0
 62
     0
 10
93.5824
 20
31.9402
 30
0.0
 11
93.5824
 21
45.9412
 31
0.0
  0
LINE
  8
0
 62
     0
 10
112.632
 20
45.9412
 30
0.0
 11
126.632
 21
45.9412
 31
0.0
  0
LINE
  8
0
 62
     0
 10
126.632
 20
45.9412
 30
0.0
 11
126.632
 21
31.9402
 31
0.0
  0
LINE
  8
0
 62
     0
 10
126.632
 20
31.9402
 30
0.0
 11
112.632
 21
31.9402
 31
0.0
  0
LINE
  8
0
 62
     0
 10
112.632
 20
31.9402
 30
0.0
 11
112.632
 21
45.9412
 31
0.0
  0
LINE
  8
0
 62
     0
 10
131.682
 20
45.9412
 30
0.0
 11
145.682
 21
45.9412
 31
0.0
  0
LINE
  8
0
 62
     0
 10
145.682
 20
45.9412
 30
0.0
 11
145.682
 21
31.9402
 31
0.0
  0
LINE
  8
0
 62
     0
 10
145.682
 20
31.9402
 30
0.0
 11
131.682
 21
31.9402
 31
0.0
  0
LINE
  8
0
 62
     0
 10
131.682
 20
31.9402
 30
0.0
 11
131.682
 21
45.9412
 31
0.0
  0
LINE
  8
0
 62
     0
 10
150.732
 20
45.9412
 30
0.0
 11
164.732
 21
45.9412
 31
0.0
  0
LINE
  8
0
 62
     0
 10
164.732
 20
45.9412
 30
0.0
 11
164.732
 21
31.9402
 31
0.0
  0
LINE
  8
0
 62
     0
 10
164.732
 20
31.9402
 30
0.0
 11
150.732
 21
31.9402
 31
0.0
  0
LINE
  8
0
 62
     0
 10
150.732
 20
31.9402
 30
0.0
 11
150.732
 21
45.9412
 31
0.0
  0
LINE
  8
0
 62
     0
 10
169.782
 20
45.9412
 30
0.0
 11
183.782
 21
45.9412
 31
0.0
  0
LINE
  8
0
 62
     0
 10
183.782
 20
45.9412
 30
0.0
 11
183.782
 21
31.9402
 31
0.0
  0
LINE
  8
0
 62
     0
 10
183.782
 20
31.9402
 30
0.0
 11
169.782
 21
31.9402
 31
0.0
  0
LINE
  8
0
 62
     0
 10
169.782
 20
31.9402
 30
0.0
 11
169.782
 21
45.9412
 31
0.0
  0
LINE
  8
0
 62
     0
 10
188.832
 20
45.9412
 30
0.0
 11
202.832
 21
45.9412
 31
0.0
  0
LINE
  8
0
 62
     0
 10
202.832
 20
45.9412
 30
0.0
 11
202.832
 21
31.9402
 31
0.0
  0
LINE
  8
0
 62
     0
 10
202.832
 20
31.9402
 30
0.0
 11
188.832
 21
31.9402
 31
0.0
  0
LINE
  8
0
 62
     0
 10
188.832
 20
31.9402
 30
0.0
 11
188.832
 21
45.9412
 31
0.0
  0
LINE
  8
0
 62
     0
 10
207.882
 20
45.9412
 30
0.0
 11
221.882
 21
45.9412
 31
0.0
  0
LINE
  8
0
 62
     0
 10
221.882
 20
45.9412
 30
0.0
 11
221.882
 21
31.9402
 31
0.0
  0
LINE
  8
0
 62
     0
 10
221.882
 20
31.9402
 30
0.0
 11
207.882
 21
31.9402
 31
0.0
  0
LINE
  8
0
 62
     0
 10
207.882
 20
31.9402
 30
0.0
 11
207.882
 21
45.9412
 31
0.0
  0
LINE
  8
0
 62
     0
 10
226.932
 20
45.9412
 30
0.0
 11
240.932
 21
45.9412
 31
0.0
  0
LINE
  8
0
 62
     0
 10
240.932
 20
45.9412
 30
0.0
 11
240.932
 21
31.9402
 31
0.0
  0
LINE
  8
0
 62
     0
 10
240.932
 20
31.9402
 30
0.0
 11
226.932
 21
31.9402
 31
0.0
  0
LINE
  8
0
 62
     0
 10
226.932
 20
31.9402
 30
0.0
 11
226.932
 21
45.9412
 31
0.0
  0
LINE
  8
0
 62
     0
 10
253.126
 20
45.9412
 30
0.0
 11
267.126
 21
45.9412
 31
0.0
  0
LINE
  8
0
 62
     0
 10
267.126
 20
45.9412
 30
0.0
 11
267.126
 21
31.9402
 31
0.0
  0
LINE
  8
0
 62
     0
 10
267.126
 20
31.9402
 30
0.0
 11
253.126
 21
31.9402
 31
0.0
  0
LINE
  8
0
 62
     0
 10
253.126
 20
31.9402
 30
0.0
 11
253.126
 21
45.9412
 31
0.0
  0
LINE
  8
0
 62
     0
 10
279.32
 20
45.9412
 30
0.0
 11
293.321
 21
45.9412
 31
0.0
  0
LINE
  8
0
 62
     0
 10
293.321
 20
45.9412
 30
0.0
 11
293.321
 21
31.9402
 31
0.0
  0
LINE
  8
0
 62
     0
 10
293.321
 20
31.9402
 30
0.0
 11
279.32
 21
31.9402
 31
0.0
  0
LINE
  8
0
 62
     0
 10
279.32
 20
31.9402
 30
0.0
 11
279.32
 21
45.9412
 31
0.0
  0
LINE
  8
0
 62
     0
 10
298.37
 20
45.9412
 30
0.0
 11
312.371
 21
45.9412
 31
0.0
  0
LINE
  8
0
 62
     0
 10
312.371
 20
45.9412
 30
0.0
 11
312.371
 21
31.9402
 31
0.0
  0
LINE
  8
0
 62
     0
 10
312.371
 20
31.9402
 30
0.0
 11
298.37
 21
31.9402
 31
0.0
  0
LINE
  8
0
 62
     0
 10
298.37
 20
31.9402
 30
0.0
 11
298.37
 21
45.9412
 31
0.0
  0
LINE
  8
0
 62
     0
 10
267.414
 20
64.9912
 30
0.0
 11
267.414
 21
60.2904
 31
0.0
  0
LINE
  8
0
 62
     0
 10
267.414
 20
60.2904
 30
0.0
 11
265.888
 21
60.2904
 31
0.0
  0
LINE
  8
0
 62
     0
 10
265.888
 20
60.2904
 30
0.0
 11
265.888
 21
63.5208
 31
0.0
  0
LINE
  8
0
 62
     0
 10
265.888
 20
63.5208
 30
0.0
 11
264.163
 21
63.5208
 31
0.0
  0
LINE
  8
0
 62
     0
 10
264.163
 20
63.5208
 30
0.0
 11
264.163
 21
64.4412
 31
0.0
  0
LINE
  8
0
 62
     0
 10
264.163
 20
64.4412
 30
0.0
 11
260.864
 21
64.4412
 31
0.0
  0
LINE
  8
0
 62
     0
 10
260.864
 20
64.4412
 30
0.0
 11
260.864
 21
63.5208
 31
0.0
  0
LINE
  8
0
 62
     0
 10
260.864
 20
63.5208
 30
0.0
 11
259.139
 21
63.5208
 31
0.0
  0
LINE
  8
0
 62
     0
 10
259.139
 20
63.5208
 30
0.0
 11
259.139
 21
60.2904
 31
0.0
  0
LINE
  8
0
 62
     0
 10
259.139
 20
60.2904
 30
0.0
 11
258.313
 21
60.2904
 31
0.0
  0
LINE
  8
0
 62
     0
 10
258.313
 20
60.2904
 30
0.0
 11
258.313
 21
57.4904
 31
0.0
  0
LINE
  8
0
 62
     0
 10
258.313
 20
57.4904
 30
0.0
 11
259.139
 21
57.4904
 31
0.0
  0
LINE
  8
0
 62
     0
 10
259.139
 20
57.4904
 30
0.0
 11
259.139
 21
51.2202
 31
0.0
  0
LINE
  8
0
 62
     0
 10
259.139
 20
51.2202
 30
0.0
 11
260.864
 21
51.2202
 31
0.0
  0
LINE
  8
0
 62
     0
 10
260.864
 20
51.2202
 30
0.0
 11
260.864
 21
50.2405
 31
0.0
  0
LINE
  8
0
 62
     0
 10
260.864
 20
50.2405
 30
0.0
 11
264.163
 21
50.2405
 31
0.0
  0
LINE
  8
0
 62
     0
 10
264.163
 20
50.2405
 30
0.0
 11
264.163
 21
51.2202
 31
0.0
  0
LINE
  8
0
 62
     0
 10
264.163
 20
51.2202
 30
0.0
 11
265.888
 21
51.2202
 31
0.0
  0
LINE
  8
0
 62
     0
 10
265.888
 20
51.2202
 30
0.0
 11
265.888
 21
55.6906
 31
0.0
  0
LINE
  8
0
 62
     0
 10
265.888
 20
55.6906
 30
0.0
 11
267.414
 21
55.6906
 31
0.0
  0
LINE
  8
0
 62
     0
 10
267.414
 20
55.6906
 30
0.0
 11
267.414
 21
50.9901
 31
0.0
  0
LINE
  8
0
 62
     0
 10
267.414
 20
50.9901
 30
0.0
 11
281.413
 21
50.9901
 31
0.0
  0
LINE
  8
0
 62
     0
 10
281.413
 20
50.9901
 30
0.0
 11
281.413
 21
55.6906
 31
0.0
  0
LINE
  8
0
 62
     0
 10
281.413
 20
55.6906
 30
0.0
 11
282.939
 21
55.6906
 31
0.0
  0
LINE
  8
0
 62
     0
 10
282.939
 20
55.6906
 30
0.0
 11
282.939
 21
51.2202
 31
0.0
  0
LINE
  8
0
 62
     0
 10
282.939
 20
51.2202
 30
0.0
 11
284.664
 21
51.2202
 31
0.0
  0
LINE
  8
0
 62
     0
 10
284.664
 20
51.2202
 30
0.0
 11
284.664
 21
50.2405
 31
0.0
  0
LINE
  8
0
 62
     0
 10
284.664
 20
50.2405
 30
0.0
 11
287.963
 21
50.2405
 31
0.0
  0
LINE
  8
0
 62
     0
 10
287.963
 20
50.2405
 30
0.0
 11
287.963
 21
51.2202
 31
0.0
  0
LINE
  8
0
 62
     0
 10
287.963
 20
51.2202
 30
0.0
 11
289.688
 21
51.2202
 31
0.0
  0
LINE
  8
0
 62
     0
 10
289.688
 20
51.2202
 30
0.0
 11
289.688
 21
57.4904
 31
0.0
  0
LINE
  8
0
 62
     0
 10
289.688
 20
57.4904
 30
0.0
 11
290.514
 21
57.4904
 31
0.0
  0
LINE
  8
0
 62
     0
 10
290.514
 20
57.4904
 30
0.0
 11
290.514
 21
60.2904
 31
0.0
  0
LINE
  8
0
 62
     0
 10
290.514
 20
60.2904
 30
0.0
 11
289.688
 21
60.2904
 31
0.0
  0
LINE
  8
0
 62
     0
 10
289.688
 20
60.2904
 30
0.0
 11
289.688
 21
63.5208
 31
0.0
  0
LINE
  8
0
 62
     0
 10
289.688
 20
63.5208
 30
0.0
 11
287.963
 21
63.5208
 31
0.0
  0
LINE
  8
0
 62
     0
 10
287.963
 20
63.5208
 30
0.0
 11
287.963
 21
64.4412
 31
0.0
  0
LINE
  8
0
 62
     0
 10
287.963
 20
64.4412
 30
0.0
 11
284.664
 21
64.4412
 31
0.0
  0
LINE
  8
0
 62
     0
 10
284.664
 20
64.4412
 30
0.0
 11
284.664
 21
63.5208
 31
0.0
  0
LINE
  8
0
 62
     0
 10
284.664
 20
63.5208
 30
0.0
 11
282.939
 21
63.5208
 31
0.0
  0
LINE
  8
0
 62
     0
 10
282.939
 20
63.5208
 30
0.0
 11
282.939
 21
60.2904
 31
0.0
  0
LINE
  8
0
 62
     0
 10
282.939
 20
60.2904
 30
0.0
 11
281.413
 21
60.2904
 31
0.0
  0
LINE
  8
0
 62
     0
 10
281.413
 20
60.2904
 30
0.0
 11
281.413
 21
64.9912
 31
0.0
  0
LINE
  8
0
 62
     0
 10
281.413
 20
64.9912
 30
0.0
 11
267.414
 21
64.9912
 31
0.0
  0
LINE
  8
0
 62
     0
 10
19.7638
 20
64.9912
 30
0.0
 11
33.7633
 21
64.9912
 31
0.0
  0
LINE
  8
0
 62
     0
 10
33.7633
 20
64.9912
 30
0.0
 11
33.7633
 21
50.9901
 31
0.0
  0
LINE
  8
0
 62
     0
 10
33.7633
 20
50.9901
 30
0.0
 11
19.7638
 21
50.9901
 31
0.0
  0
LINE
  8
0
 62
     0
 10
19.7638
 20
50.9901
 30
0.0
 11
19.7638
 21
64.9912
 31
0.0
  0
LINE
  8
0
 62
     0
 10
45.9574
 20
64.9912
 30
0.0
 11
59.9571
 21
64.9912
 31
0.0
  0
LINE
  8
0
 62
     0
 10
59.9571
 20
64.9912
 30
0.0
 11
59.9571
 21
50.9901
 31
0.0
  0
LINE
  8
0
 62
     0
 10
59.9571
 20
50.9901
 30
0.0
 11
45.9574
 21
50.9901
 31
0.0
  0
LINE
  8
0
 62
     0
 10
45.9574
 20
50.9901
 30
0.0
 11
45.9574
 21
64.9912
 31
0.0
  0
LINE
  8
0
 62
     0
 10
65.0074
 20
64.9912
 30
0.0
 11
79.0071
 21
64.9912
 31
0.0
  0
LINE
  8
0
 62
     0
 10
79.0071
 20
64.9912
 30
0.0
 11
79.0071
 21
50.9901
 31
0.0
  0
LINE
  8
0
 62
     0
 10
79.0071
 20
50.9901
 30
0.0
 11
65.0074
 21
50.9901
 31
0.0
  0
LINE
  8
0
 62
     0
 10
65.0074
 20
50.9901
 30
0.0
 11
65.0074
 21
64.9912
 31
0.0
  0
LINE
  8
0
 62
     0
 10
84.0574
 20
64.9912
 30
0.0
 11
98.0571
 21
64.9912
 31
0.0
  0
LINE
  8
0
 62
     0
 10
98.0571
 20
64.9912
 30
0.0
 11
98.0571
 21
50.9901
 31
0.0
  0
LINE
  8
0
 62
     0
 10
98.0571
 20
50.9901
 30
0.0
 11
84.0574
 21
50.9901
 31
0.0
  0
LINE
  8
0
 62
     0
 10
84.0574
 20
50.9901
 30
0.0
 11
84.0574
 21
64.9912
 31
0.0
  0
LINE
  8
0
 62
     0
 10
103.107
 20
64.9912
 30
0.0
 11
117.107
 21
64.9912
 31
0.0
  0
LINE
  8
0
 62
     0
 10
117.107
 20
64.9912
 30
0.0
 11
117.107
 21
50.9901
 31
0.0
  0
LINE
  8
0
 62
     0
 10
117.107
 20
50.9901
 30
0.0
 11
103.107
 21
50.9901
 31
0.0
  0
LINE
  8
0
 62
     0
 10
103.107
 20
50.9901
 30
0.0
 11
103.107
 21
64.9912
 31
0.0
  0
LINE
  8
0
 62
     0
 10
122.157
 20
64.9912
 30
0.0
 11
136.157
 21
64.9912
 31
0.0
  0
LINE
  8
0
 62
     0
 10
136.157
 20
64.9912
 30
0.0
 11
136.157
 21
50.9901
 31
0.0
  0
LINE
  8
0
 62
     0
 10
136.157
 20
50.9901
 30
0.0
 11
122.157
 21
50.9901
 31
0.0
  0
LINE
  8
0
 62
     0
 10
122.157
 20
50.9901
 30
0.0
 11
122.157
 21
64.9912
 31
0.0
  0
LINE
  8
0
 62
     0
 10
141.207
 20
64.9912
 30
0.0
 11
155.207
 21
64.9912
 31
0.0
  0
LINE
  8
0
 62
     0
 10
155.207
 20
64.9912
 30
0.0
 11
155.207
 21
50.9901
 31
0.0
  0
LINE
  8
0
 62
     0
 10
155.207
 20
50.9901
 30
0.0
 11
141.207
 21
50.9901
 31
0.0
  0
LINE
  8
0
 62
     0
 10
141.207
 20
50.9901
 30
0.0
 11
141.207
 21
64.9912
 31
0.0
  0
LINE
  8
0
 62
     0
 10
160.257
 20
64.9912
 30
0.0
 11
174.257
 21
64.9912
 31
0.0
  0
LINE
  8
0
 62
     0
 10
174.257
 20
64.9912
 30
0.0
 11
174.257
 21
50.9901
 31
0.0
  0
LINE
  8
0
 62
     0
 10
174.257
 20
50.9901
 30
0.0
 11
160.257
 21
50.9901
 31
0.0
  0
LINE
  8
0
 62
     0
 10
160.257
 20
50.9901
 30
0.0
 11
160.257
 21
64.9912
 31
0.0
  0
LINE
  8
0
 62
     0
 10
179.307
 20
64.9912
 30
0.0
 11
193.307
 21
64.9912
 31
0.0
  0
LINE
  8
0
 62
     0
 10
193.307
 20
64.9912
 30
0.0
 11
193.307
 21
50.9901
 31
0.0
  0
LINE
  8
0
 62
     0
 10
193.307
 20
50.9901
 30
0.0
 11
179.307
 21
50.9901
 31
0.0
  0
LINE
  8
0
 62
     0
 10
179.307
 20
50.9901
 30
0.0
 11
179.307
 21
64.9912
 31
0.0
  0
LINE
  8
0
 62
     0
 10
198.357
 20
64.9912
 30
0.0
 11
212.357
 21
64.9912
 31
0.0
  0
LINE
  8
0
 62
     0
 10
212.357
 20
64.9912
 30
0.0
 11
212.357
 21
50.9901
 31
0.0
  0
LINE
  8
0
 62
     0
 10
212.357
 20
50.9901
 30
0.0
 11
198.357
 21
50.9901
 31
0.0
  0
LINE
  8
0
 62
     0
 10
198.357
 20
50.9901
 30
0.0
 11
198.357
 21
64.9912
 31
0.0
  0
LINE
  8
0
 62
     0
 10
217.407
 20
64.9912
 30
0.0
 11
231.407
 21
64.9912
 31
0.0
  0
LINE
  8
0
 62
     0
 10
231.407
 20
64.9912
 30
0.0
 11
231.407
 21
50.9901
 31
0.0
  0
LINE
  8
0
 62
     0
 10
231.407
 20
50.9901
 30
0.0
 11
217.407
 21
50.9901
 31
0.0
  0
LINE
  8
0
 62
     0
 10
217.407
 20
50.9901
 30
0.0
 11
217.407
 21
64.9912
 31
0.0
  0
LINE
  8
0
 62
     0
 10
236.457
 20
64.9912
 30
0.0
 11
250.457
 21
64.9912
 31
0.0
  0
LINE
  8
0
 62
     0
 10
250.457
 20
64.9912
 30
0.0
 11
250.457
 21
50.9901
 31
0.0
  0
LINE
  8
0
 62
     0
 10
250.457
 20
50.9901
 30
0.0
 11
236.457
 21
50.9901
 31
0.0
  0
LINE
  8
0
 62
     0
 10
236.457
 20
50.9901
 30
0.0
 11
236.457
 21
64.9912
 31
0.0
  0
LINE
  8
0
 62
     0
 10
298.37
 20
64.9912
 30
0.0
 11
312.371
 21
64.9912
 31
0.0
  0
LINE
  8
0
 62
     0
 10
312.371
 20
64.9912
 30
0.0
 11
312.371
 21
50.9901
 31
0.0
  0
LINE
  8
0
 62
     0
 10
312.371
 20
50.9901
 30
0.0
 11
298.37
 21
50.9901
 31
0.0
  0
LINE
  8
0
 62
     0
 10
298.37
 20
50.9901
 30
0.0
 11
298.37
 21
64.9912
 31
0.0
  0
LINE
  8
0
 62
     0
 10
17.3826
 20
84.0412
 30
0.0
 11
31.3821
 21
84.0412
 31
0.0
  0
LINE
  8
0
 62
     0
 10
31.3821
 20
84.0412
 30
0.0
 11
31.3821
 21
70.0401
 31
0.0
  0
LINE
  8
0
 62
     0
 10
31.3821
 20
70.0401
 30
0.0
 11
17.3826
 21
70.0401
 31
0.0
  0
LINE
  8
0
 62
     0
 10
17.3826
 20
70.0401
 30
0.0
 11
17.3826
 21
84.0412
 31
0.0
  0
LINE
  8
0
 62
     0
 10
41.1949
 20
84.0412
 30
0.0
 11
55.196
 21
84.0412
 31
0.0
  0
LINE
  8
0
 62
     0
 10
55.196
 20
84.0412
 30
0.0
 11
55.196
 21
70.0401
 31
0.0
  0
LINE
  8
0
 62
     0
 10
55.196
 20
70.0401
 30
0.0
 11
41.1949
 21
70.0401
 31
0.0
  0
LINE
  8
0
 62
     0
 10
41.1949
 20
70.0401
 30
0.0
 11
41.1949
 21
84.0412
 31
0.0
  0
LINE
  8
0
 62
     0
 10
60.2449
 20
84.0412
 30
0.0
 11
74.246
 21
84.0412
 31
0.0
  0
LINE
  8
0
 62
     0
 10
74.246
 20
84.0412
 30
0.0
 11
74.246
 21
70.0401
 31
0.0
  0
LINE
  8
0
 62
     0
 10
74.246
 20
70.0401
 30
0.0
 11
60.2449
 21
70.0401
 31
0.0
  0
LINE
  8
0
 62
     0
 10
60.2449
 20
70.0401
 30
0.0
 11
60.2449
 21
84.0412
 31
0.0
  0
LINE
  8
0
 62
     0
 10
79.2949
 20
84.0412
 30
0.0
 11
93.296
 21
84.0412
 31
0.0
  0
LINE
  8
0
 62
     0
 10
93.296
 20
84.0412
 30
0.0
 11
93.296
 21
70.0401
 31
0.0
  0
LINE
  8
0
 62
     0
 10
93.296
 20
70.0401
 30
0.0
 11
79.2949
 21
70.0401
 31
0.0
  0
LINE
  8
0
 62
     0
 10
79.2949
 20
70.0401
 30
0.0
 11
79.2949
 21
84.0412
 31
0.0
  0
LINE
  8
0
 62
     0
 10
98.3449
 20
84.0412
 30
0.0
 11
112.346
 21
84.0412
 31
0.0
  0
LINE
  8
0
 62
     0
 10
112.346
 20
84.0412
 30
0.0
 11
112.346
 21
70.0401
 31
0.0
  0
LINE
  8
0
 62
     0
 10
112.346
 20
70.0401
 30
0.0
 11
98.3449
 21
70.0401
 31
0.0
  0
LINE
  8
0
 62
     0
 10
98.3449
 20
70.0401
 30
0.0
 11
98.3449
 21
84.0412
 31
0.0
  0
LINE
  8
0
 62
     0
 10
117.395
 20
84.0412
 30
0.0
 11
131.396
 21
84.0412
 31
0.0
  0
LINE
  8
0
 62
     0
 10
131.396
 20
84.0412
 30
0.0
 11
131.396
 21
70.0401
 31
0.0
  0
LINE
  8
0
 62
     0
 10
131.396
 20
70.0401
 30
0.0
 11
117.395
 21
70.0401
 31
0.0
  0
LINE
  8
0
 62
     0
 10
117.395
 20
70.0401
 30
0.0
 11
117.395
 21
84.0412
 31
0.0
  0
LINE
  8
0
 62
     0
 10
136.445
 20
84.0412
 30
0.0
 11
150.446
 21
84.0412
 31
0.0
  0
LINE
  8
0
 62
     0
 10
150.446
 20
84.0412
 30
0.0
 11
150.446
 21
70.0401
 31
0.0
  0
LINE
  8
0
 62
     0
 10
150.446
 20
70.0401
 30
0.0
 11
136.445
 21
70.0401
 31
0.0
  0
LINE
  8
0
 62
     0
 10
136.445
 20
70.0401
 30
0.0
 11
136.445
 21
84.0412
 31
0.0
  0
LINE
  8
0
 62
     0
 10
155.495
 20
84.0412
 30
0.0
 11
169.496
 21
84.0412
 31
0.0
  0
LINE
  8
0
 62
     0
 10
169.496
 20
84.0412
 30
0.0
 11
169.496
 21
70.0401
 31
0.0
  0
LINE
  8
0
 62
     0
 10
169.496
 20
70.0401
 30
0.0
 11
155.495
 21
70.0401
 31
0.0
  0
LINE
  8
0
 62
     0
 10
155.495
 20
70.0401
 30
0.0
 11
155.495
 21
84.0412
 31
0.0
  0
LINE
  8
0
 62
     0
 10
174.545
 20
84.0412
 30
0.0
 11
188.546
 21
84.0412
 31
0.0
  0
LINE
  8
0
 62
     0
 10
188.546
 20
84.0412
 30
0.0
 11
188.546
 21
70.0401
 31
0.0
  0
LINE
  8
0
 62
     0
 10
188.546
 20
70.0401
 30
0.0
 11
174.545
 21
70.0401
 31
0.0
  0
LINE
  8
0
 62
     0
 10
174.545
 20
70.0401
 30
0.0
 11
174.545
 21
84.0412
 31
0.0
  0
LINE
  8
0
 62
     0
 10
193.595
 20
84.0412
 30
0.0
 11
207.596
 21
84.0412
 31
0.0
  0
LINE
  8
0
 62
     0
 10
207.596
 20
84.0412
 30
0.0
 11
207.596
 21
70.0401
 31
0.0
  0
LINE
  8
0
 62
     0
 10
207.596
 20
70.0401
 30
0.0
 11
193.595
 21
70.0401
 31
0.0
  0
LINE
  8
0
 62
     0
 10
193.595
 20
70.0401
 30
0.0
 11
193.595
 21
84.0412
 31
0.0
  0
LINE
  8
0
 62
     0
 10
212.645
 20
84.0412
 30
0.0
 11
226.646
 21
84.0412
 31
0.0
  0
LINE
  8
0
 62
     0
 10
226.646
 20
84.0412
 30
0.0
 11
226.646
 21
70.0401
 31
0.0
  0
LINE
  8
0
 62
     0
 10
226.646
 20
70.0401
 30
0.0
 11
212.645
 21
70.0401
 31
0.0
  0
LINE
  8
0
 62
     0
 10
212.645
 20
70.0401
 30
0.0
 11
212.645
 21
84.0412
 31
0.0
  0
LINE
  8
0
 62
     0
 10
231.695
 20
84.0412
 30
0.0
 11
245.696
 21
84.0412
 31
0.0
  0
LINE
  8
0
 62
     0
 10
245.696
 20
84.0412
 30
0.0
 11
245.696
 21
70.0401
 31
0.0
  0
LINE
  8
0
 62
     0
 10
245.696
 20
70.0401
 30
0.0
 11
231.695
 21
70.0401
 31
0.0
  0
LINE
  8
0
 62
     0
 10
231.695
 20
70.0401
 30
0.0
 11
231.695
 21
84.0412
 31
0.0
  0
LINE
  8
0
 62
     0
 10
250.745
 20
84.0412
 30
0.0
 11
264.746
 21
84.0412
 31
0.0
  0
LINE
  8
0
 62
     0
 10
264.746
 20
84.0412
 30
0.0
 11
264.746
 21
70.0401
 31
0.0
  0
LINE
  8
0
 62
     0
 10
264.746
 20
70.0401
 30
0.0
 11
250.745
 21
70.0401
 31
0.0
  0
LINE
  8
0
 62
     0
 10
250.745
 20
70.0401
 30
0.0
 11
250.745
 21
84.0412
 31
0.0
  0
LINE
  8
0
 62
     0
 10
274.557
 20
84.0412
 30
0.0
 11
288.557
 21
84.0412
 31
0.0
  0
LINE
  8
0
 62
     0
 10
288.557
 20
84.0412
 30
0.0
 11
288.557
 21
70.0401
 31
0.0
  0
LINE
  8
0
 62
     0
 10
288.557
 20
70.0401
 30
0.0
 11
274.557
 21
70.0401
 31
0.0
  0
LINE
  8
0
 62
     0
 10
274.557
 20
70.0401
 30
0.0
 11
274.557
 21
84.0412
 31
0.0
  0
LINE
  8
0
 62
     0
 10
298.37
 20
84.0412
 30
0.0
 11
312.371
 21
84.0412
 31
0.0
  0
LINE
  8
0
 62
     0
 10
312.371
 20
84.0412
 30
0.0
 11
312.371
 21
70.0401
 31
0.0
  0
LINE
  8
0
 62
     0
 10
312.371
 20
70.0401
 30
0.0
 11
298.37
 21
70.0401
 31
0.0
  0
LINE
  8
0
 62
     0
 10
298.37
 20
70.0401
 30
0.0
 11
298.37
 21
84.0412
 31
0.0
  0
LINE
  8
0
 62
     0
 10
269.795
 20
103.091
 30
0.0
 11
269.795
 21
98.3904
 31
0.0
  0
LINE
  8
0
 62
     0
 10
269.795
 20
98.3904
 30
0.0
 11
268.271
 21
98.3904
 31
0.0
  0
LINE
  8
0
 62
     0
 10
268.271
 20
98.3904
 30
0.0
 11
268.271
 21
101.621
 31
0.0
  0
LINE
  8
0
 62
     0
 10
268.271
 20
101.621
 30
0.0
 11
266.546
 21
101.621
 31
0.0
  0
LINE
  8
0
 62
     0
 10
266.546
 20
101.621
 30
0.0
 11
266.546
 21
102.541
 31
0.0
  0
LINE
  8
0
 62
     0
 10
266.546
 20
102.541
 30
0.0
 11
263.245
 21
102.541
 31
0.0
  0
LINE
  8
0
 62
     0
 10
263.245
 20
102.541
 30
0.0
 11
263.245
 21
101.621
 31
0.0
  0
LINE
  8
0
 62
     0
 10
263.245
 20
101.621
 30
0.0
 11
261.52
 21
101.621
 31
0.0
  0
LINE
  8
0
 62
     0
 10
261.52
 20
101.621
 30
0.0
 11
261.52
 21
98.3904
 31
0.0
  0
LINE
  8
0
 62
     0
 10
261.52
 20
98.3904
 30
0.0
 11
260.696
 21
98.3904
 31
0.0
  0
LINE
  8
0
 62
     0
 10
260.696
 20
98.3904
 30
0.0
 11
260.696
 21
95.5904
 31
0.0
  0
LINE
  8
0
 62
     0
 10
260.696
 20
95.5904
 30
0.0
 11
261.52
 21
95.5904
 31
0.0
  0
LINE
  8
0
 62
     0
 10
261.52
 20
95.5904
 30
0.0
 11
261.52
 21
89.3202
 31
0.0
  0
LINE
  8
0
 62
     0
 10
261.52
 20
89.3202
 30
0.0
 11
263.245
 21
89.3202
 31
0.0
  0
LINE
  8
0
 62
     0
 10
263.245
 20
89.3202
 30
0.0
 11
263.245
 21
88.3405
 31
0.0
  0
LINE
  8
0
 62
     0
 10
263.245
 20
88.3405
 30
0.0
 11
266.546
 21
88.3405
 31
0.0
  0
LINE
  8
0
 62
     0
 10
266.546
 20
88.3405
 30
0.0
 11
266.546
 21
89.3202
 31
0.0
  0
LINE
  8
0
 62
     0
 10
266.546
 20
89.3202
 30
0.0
 11
268.271
 21
89.3202
 31
0.0
  0
LINE
  8
0
 62
     0
 10
268.271
 20
89.3202
 30
0.0
 11
268.271
 21
93.7906
 31
0.0
  0
LINE
  8
0
 62
     0
 10
268.271
 20
93.7906
 30
0.0
 11
269.795
 21
93.7906
 31
0.0
  0
LINE
  8
0
 62
     0
 10
269.795
 20
93.7906
 30
0.0
 11
269.795
 21
89.0901
 31
0.0
  0
LINE
  8
0
 62
     0
 10
269.795
 20
89.0901
 30
0.0
 11
283.796
 21
89.0901
 31
0.0
  0
LINE
  8
0
 62
     0
 10
283.796
 20
89.0901
 30
0.0
 11
283.796
 21
93.7906
 31
0.0
  0
LINE
  8
0
 62
     0
 10
283.796
 20
93.7906
 30
0.0
 11
285.32
 21
93.7906
 31
0.0
  0
LINE
  8
0
 62
     0
 10
285.32
 20
93.7906
 30
0.0
 11
285.32
 21
89.3202
 31
0.0
  0
LINE
  8
0
 62
     0
 10
285.32
 20
89.3202
 30
0.0
 11
287.045
 21
89.3202
 31
0.0
  0
LINE
  8
0
 62
     0
 10
287.045
 20
89.3202
 30
0.0
 11
287.045
 21
88.3405
 31
0.0
  0
LINE
  8
0
 62
     0
 10
287.045
 20
88.3405
 30
0.0
 11
290.346
 21
88.3405
 31
0.0
  0
LINE
  8
0
 62
     0
 10
290.346
 20
88.3405
 30
0.0
 11
290.346
 21
89.3202
 31
0.0
  0
LINE
  8
0
 62
     0
 10
290.346
 20
89.3202
 30
0.0
 11
292.071
 21
89.3202
 31
0.0
  0
LINE
  8
0
 62
     0
 10
292.071
 20
89.3202
 30
0.0
 11
292.071
 21
95.5904
 31
0.0
  0
LINE
  8
0
 62
     0
 10
292.071
 20
95.5904
 30
0.0
 11
292.895
 21
95.5904
 31
0.0
  0
LINE
  8
0
 62
     0
 10
292.895
 20
95.5904
 30
0.0
 11
292.895
 21
98.3904
 31
0.0
  0
LINE
  8
0
 62
     0
 10
292.895
 20
98.3904
 30
0.0
 11
292.071
 21
98.3904
 31
0.0
  0
LINE
  8
0
 62
     0
 10
292.071
 20
98.3904
 30
0.0
 11
292.071
 21
101.621
 31
0.0
  0
LINE
  8
0
 62
     0
 10
292.071
 20
101.621
 30
0.0
 11
290.346
 21
101.621
 31
0.0
  0
LINE
  8
0
 62
     0
 10
290.346
 20
101.621
 30
0.0
 11
290.346
 21
102.541
 31
0.0
  0
LINE
  8
0
 62
     0
 10
290.346
 20
102.541
 30
0.0
 11
287.045
 21
102.541
 31
0.0
  0
LINE
  8
0
 62
     0
 10
287.045
 20
102.541
 30
0.0
 11
287.045
 21
101.621
 31
0.0
  0
LINE
  8
0
 62
     0
 10
287.045
 20
101.621
 30
0.0
 11
285.32
 21
101.621
 31
0.0
  0
LINE
  8
0
 62
     0
 10
285.32
 20
101.621
 30
0.0
 11
285.32
 21
98.3904
 31
0.0
  0
LINE
  8
0
 62
     0
 10
285.32
 20
98.3904
 30
0.0
 11
283.796
 21
98.3904
 31
0.0
  0
LINE
  8
0
 62
     0
 10
283.796
 20
98.3904
 30
0.0
 11
283.796
 21
103.091
 31
0.0
  0
LINE
  8
0
 62
     0
 10
283.796
 20
103.091
 30
0.0
 11
269.795
 21
103.091
 31
0.0
  0
LINE
  8
0
 62
     0
 10
12.6201
 20
103.091
 30
0.0
 11
26.6209
 21
103.091
 31
0.0
  0
LINE
  8
0
 62
     0
 10
26.6209
 20
103.091
 30
0.0
 11
26.6209
 21
89.0901
 31
0.0
  0
LINE
  8
0
 62
     0
 10
26.6209
 20
89.0901
 30
0.0
 11
12.6201
 21
89.0901
 31
0.0
  0
LINE
  8
0
 62
     0
 10
12.6201
 20
89.0901
 30
0.0
 11
12.6201
 21
103.091
 31
0.0
  0
LINE
  8
0
 62
     0
 10
31.6701
 20
103.091
 30
0.0
 11
45.671
 21
103.091
 31
0.0
  0
LINE
  8
0
 62
     0
 10
45.671
 20
103.091
 30
0.0
 11
45.671
 21
89.0901
 31
0.0
  0
LINE
  8
0
 62
     0
 10
45.671
 20
89.0901
 30
0.0
 11
31.6701
 21
89.0901
 31
0.0
  0
LINE
  8
0
 62
     0
 10
31.6701
 20
89.0901
 30
0.0
 11
31.6701
 21
103.091
 31
0.0
  0
LINE
  8
0
 62
     0
 10
50.7199
 20
103.091
 30
0.0
 11
64.721
 21
103.091
 31
0.0
  0
LINE
  8
0
 62
     0
 10
64.721
 20
103.091
 30
0.0
 11
64.721
 21
89.0901
 31
0.0
  0
LINE
  8
0
 62
     0
 10
64.721
 20
89.0901
 30
0.0
 11
50.7199
 21
89.0901
 31
0.0
  0
LINE
  8
0
 62
     0
 10
50.7199
 20
89.0901
 30
0.0
 11
50.7199
 21
103.091
 31
0.0
  0
LINE
  8
0
 62
     0
 10
69.7699
 20
103.091
 30
0.0
 11
83.771
 21
103.091
 31
0.0
  0
LINE
  8
0
 62
     0
 10
83.771
 20
103.091
 30
0.0
 11
83.771
 21
89.0901
 31
0.0
  0
LINE
  8
0
 62
     0
 10
83.771
 20
89.0901
 30
0.0
 11
69.7699
 21
89.0901
 31
0.0
  0
LINE
  8
0
 62
     0
 10
69.7699
 20
89.0901
 30
0.0
 11
69.7699
 21
103.091
 31
0.0
  0
LINE
  8
0
 62
     0
 10
88.8199
 20
103.091
 30
0.0
 11
102.821
 21
103.091
 31
0.0
  0
LINE
  8
0
 62
     0
 10
102.821
 20
103.091
 30
0.0
 11
102.821
 21
89.0901
 31
0.0
  0
LINE
  8
0
 62
     0
 10
102.821
 20
89.0901
 30
0.0
 11
88.8199
 21
89.0901
 31
0.0
  0
LINE
  8
0
 62
     0
 10
88.8199
 20
89.0901
 30
0.0
 11
88.8199
 21
103.091
 31
0.0
  0
LINE
  8
0
 62
     0
 10
107.87
 20
103.091
 30
0.0
 11
121.87
 21
103.091
 31
0.0
  0
LINE
  8
0
 62
     0
 10
121.87
 20
103.091
 30
0.0
 11
121.87
 21
89.0901
 31
0.0
  0
LINE
  8
0
 62
     0
 10
121.87
 20
89.0901
 30
0.0
 11
107.87
 21
89.0901
 31
0.0
  0
LINE
  8
0
 62
     0
 10
107.87
 20
89.0901
 30
0.0
 11
107.87
 21
103.091
 31
0.0
  0
LINE
  8
0
 62
     0
 10
126.92
 20
103.091
 30
0.0
 11
140.921
 21
103.091
 31
0.0
  0
LINE
  8
0
 62
     0
 10
140.921
 20
103.091
 30
0.0
 11
140.921
 21
89.0901
 31
0.0
  0
LINE
  8
0
 62
     0
 10
140.921
 20
89.0901
 30
0.0
 11
126.92
 21
89.0901
 31
0.0
  0
LINE
  8
0
 62
     0
 10
126.92
 20
89.0901
 30
0.0
 11
126.92
 21
103.091
 31
0.0
  0
LINE
  8
0
 62
     0
 10
145.97
 20
103.091
 30
0.0
 11
159.971
 21
103.091
 31
0.0
  0
LINE
  8
0
 62
     0
 10
159.971
 20
103.091
 30
0.0
 11
159.971
 21
89.0901
 31
0.0
  0
LINE
  8
0
 62
     0
 10
159.971
 20
89.0901
 30
0.0
 11
145.97
 21
89.0901
 31
0.0
  0
LINE
  8
0
 62
     0
 10
145.97
 20
89.0901
 30
0.0
 11
145.97
 21
103.091
 31
0.0
  0
LINE
  8
0
 62
     0
 10
165.02
 20
103.091
 30
0.0
 11
179.021
 21
103.091
 31
0.0
  0
LINE
  8
0
 62
     0
 10
179.021
 20
103.091
 30
0.0
 11
179.021
 21
89.0901
 31
0.0
  0
LINE
  8
0
 62
     0
 10
179.021
 20
89.0901
 30
0.0
 11
165.02
 21
89.0901
 31
0.0
  0
LINE
  8
0
 62
     0
 10
165.02
 20
89.0901
 30
0.0
 11
165.02
 21
103.091
 31
0.0
  0
LINE
  8
0
 62
     0
 10
184.07
 20
103.091
 30
0.0
 11
198.071
 21
103.091
 31
0.0
  0
LINE
  8
0
 62
     0
 10
198.071
 20
103.091
 30
0.0
 11
198.071
 21
89.0901
 31
0.0
  0
LINE
  8
0
 62
     0
 10
198.071
 20
89.0901
 30
0.0
 11
184.07
 21
89.0901
 31
0.0
  0
LINE
  8
0
 62
     0
 10
184.07
 20
89.0901
 30
0.0
 11
184.07
 21
103.091
 31
0.0
  0
LINE
  8
0
 62
     0
 10
203.12
 20
103.091
 30
0.0
 11
217.121
 21
103.091
 31
0.0
  0
LINE
  8
0
 62
     0
 10
217.121
 20
103.091
 30
0.0
 11
217.121
 21
89.0901
 31
0.0
  0
LINE
  8
0
 62
     0
 10
217.121
 20
89.0901
 30
0.0
 11
203.12
 21
89.0901
 31
0.0
  0
LINE
  8
0
 62
     0
 10
203.12
 20
89.0901
 30
0.0
 11
203.12
 21
103.091
 31
0.0
  0
LINE
  8
0
 62
     0
 10
222.17
 20
103.091
 30
0.0
 11
236.171
 21
103.091
 31
0.0
  0
LINE
  8
0
 62
     0
 10
236.171
 20
103.091
 30
0.0
 11
236.171
 21
89.0901
 31
0.0
  0
LINE
  8
0
 62
     0
 10
236.171
 20
89.0901
 30
0.0
 11
222.17
 21
89.0901
 31
0.0
  0
LINE
  8
0
 62
     0
 10
222.17
 20
89.0901
 30
0.0
 11
222.17
 21
103.091
 31
0.0
  0
LINE
  8
0
 62
     0
 10
241.22
 20
103.091
 30
0.0
 11
255.221
 21
103.091
 31
0.0
  0
LINE
  8
0
 62
     0
 10
255.221
 20
103.091
 30
0.0
 11
255.221
 21
89.0901
 31
0.0
  0
LINE
  8
0
 62
     0
 10
255.221
 20
89.0901
 30
0.0
 11
241.22
 21
89.0901
 31
0.0
  0
LINE
  8
0
 62
     0
 10
241.22
 20
89.0901
 30
0.0
 11
241.22
 21
103.091
 31
0.0
  0
LINE
  8
0
 62
     0
 10
298.37
 20
103.091
 30
0.0
 11
312.371
 21
103.091
 31
0.0
  0
LINE
  8
0
 62
     0
 10
312.371
 20
103.091
 30
0.0
 11
312.371
 21
89.0901
 31
0.0
  0
LINE
  8
0
 62
     0
 10
312.371
 20
89.0901
 30
0.0
 11
298.37
 21
89.0901
 31
0.0
  0
LINE
  8
0
 62
     0
 10
298.37
 20
89.0901
 30
0.0
 11
298.37
 21
103.091
 31
0.0
  0
LINE
  8
0
 62
     0
 10
12.6201
 20
122.141
 30
0.0
 11
26.6209
 21
122.141
 31
0.0
  0
LINE
  8
0
 62
     0
 10
26.6209
 20
122.141
 30
0.0
 11
26.6209
 21
108.14
 31
0.0
  0
LINE
  8
0
 62
     0
 10
26.6209
 20
108.14
 30
0.0
 11
12.6201
 21
108.14
 31
0.0
  0
LINE
  8
0
 62
     0
 10
12.6201
 20
108.14
 30
0.0
 11
12.6201
 21
122.141
 31
0.0
  0
LINE
  8
0
 62
     0
 10
31.6701
 20
122.141
 30
0.0
 11
45.671
 21
122.141
 31
0.0
  0
LINE
  8
0
 62
     0
 10
45.671
 20
122.141
 30
0.0
 11
45.671
 21
108.14
 31
0.0
  0
LINE
  8
0
 62
     0
 10
45.671
 20
108.14
 30
0.0
 11
31.6701
 21
108.14
 31
0.0
  0
LINE
  8
0
 62
     0
 10
31.6701
 20
108.14
 30
0.0
 11
31.6701
 21
122.141
 31
0.0
  0
LINE
  8
0
 62
     0
 10
50.7199
 20
122.141
 30
0.0
 11
64.721
 21
122.141
 31
0.0
  0
LINE
  8
0
 62
     0
 10
64.721
 20
122.141
 30
0.0
 11
64.721
 21
108.14
 31
0.0
  0
LINE
  8
0
 62
     0
 10
64.721
 20
108.14
 30
0.0
 11
50.7199
 21
108.14
 31
0.0
  0
LINE
  8
0
 62
     0
 10
50.7199
 20
108.14
 30
0.0
 11
50.7199
 21
122.141
 31
0.0
  0
LINE
  8
0
 62
     0
 10
69.7699
 20
122.141
 30
0.0
 11
83.771
 21
122.141
 31
0.0
  0
LINE
  8
0
 62
     0
 10
83.771
 20
122.141
 30
0.0
 11
83.771
 21
108.14
 31
0.0
  0
LINE
  8
0
 62
     0
 10
83.771
 20
108.14
 30
0.0
 11
69.7699
 21
108.14
 31
0.0
  0
LINE
  8
0
 62
     0
 10
69.7699
 20
108.14
 30
0.0
 11
69.7699
 21
122.141
 31
0.0
  0
LINE
  8
0
 62
     0
 10
88.8199
 20
122.141
 30
0.0
 11
102.821
 21
122.141
 31
0.0
  0
LINE
  8
0
 62
     0
 10
102.821
 20
122.141
 30
0.0
 11
102.821
 21
108.14
 31
0.0
  0
LINE
  8
0
 62
     0
 10
102.821
 20
108.14
 30
0.0
 11
88.8199
 21
108.14
 31
0.0
  0
LINE
  8
0
 62
     0
 10
88.8199
 20
108.14
 30
0.0
 11
88.8199
 21
122.141
 31
0.0
  0
LINE
  8
0
 62
     0
 10
107.87
 20
122.141
 30
0.0
 11
121.87
 21
122.141
 31
0.0
  0
LINE
  8
0
 62
     0
 10
121.87
 20
122.141
 30
0.0
 11
121.87
 21
108.14
 31
0.0
  0
LINE
  8
0
 62
     0
 10
121.87
 20
108.14
 30
0.0
 11
107.87
 21
108.14
 31
0.0
  0
LINE
  8
0
 62
     0
 10
107.87
 20
108.14
 30
0.0
 11
107.87
 21
122.141
 31
0.0
  0
LINE
  8
0
 62
     0
 10
126.92
 20
122.141
 30
0.0
 11
140.921
 21
122.141
 31
0.0
  0
LINE
  8
0
 62
     0
 10
140.921
 20
122.141
 30
0.0
 11
140.921
 21
108.14
 31
0.0
  0
LINE
  8
0
 62
     0
 10
140.921
 20
108.14
 30
0.0
 11
126.92
 21
108.14
 31
0.0
  0
LINE
  8
0
 62
     0
 10
126.92
 20
108.14
 30
0.0
 11
126.92
 21
122.141
 31
0.0
  0
LINE
  8
0
 62
     0
 10
145.97
 20
122.141
 30
0.0
 11
159.971
 21
122.141
 31
0.0
  0
LINE
  8
0
 62
     0
 10
159.971
 20
122.141
 30
0.0
 11
159.971
 21
108.14
 31
0.0
  0
LINE
  8
0
 62
     0
 10
159.971
 20
108.14
 30
0.0
 11
145.97
 21
108.14
 31
0.0
  0
LINE
  8
0
 62
     0
 10
145.97
 20
108.14
 30
0.0
 11
145.97
 21
122.141
 31
0.0
  0
LINE
  8
0
 62
     0
 10
165.02
 20
122.141
 30
0.0
 11
179.021
 21
122.141
 31
0.0
  0
LINE
  8
0
 62
     0
 10
179.021
 20
122.141
 30
0.0
 11
179.021
 21
108.14
 31
0.0
  0
LINE
  8
0
 62
     0
 10
179.021
 20
108.14
 30
0.0
 11
165.02
 21
108.14
 31
0.0
  0
LINE
  8
0
 62
     0
 10
165.02
 20
108.14
 30
0.0
 11
165.02
 21
122.141
 31
0.0
  0
LINE
  8
0
 62
     0
 10
184.07
 20
122.141
 30
0.0
 11
198.071
 21
122.141
 31
0.0
  0
LINE
  8
0
 62
     0
 10
198.071
 20
122.141
 30
0.0
 11
198.071
 21
108.14
 31
0.0
  0
LINE
  8
0
 62
     0
 10
198.071
 20
108.14
 30
0.0
 11
184.07
 21
108.14
 31
0.0
  0
LINE
  8
0
 62
     0
 10
184.07
 20
108.14
 30
0.0
 11
184.07
 21
122.141
 31
0.0
  0
LINE
  8
0
 62
     0
 10
203.12
 20
122.141
 30
0.0
 11
217.121
 21
122.141
 31
0.0
  0
LINE
  8
0
 62
     0
 10
217.121
 20
122.141
 30
0.0
 11
217.121
 21
108.14
 31
0.0
  0
LINE
  8
0
 62
     0
 10
217.121
 20
108.14
 30
0.0
 11
203.12
 21
108.14
 31
0.0
  0
LINE
  8
0
 62
     0
 10
203.12
 20
108.14
 30
0.0
 11
203.12
 21
122.141
 31
0.0
  0
LINE
  8
0
 62
     0
 10
222.17
 20
122.141
 30
0.0
 11
236.171
 21
122.141
 31
0.0
  0
LINE
  8
0
 62
     0
 10
236.171
 20
122.141
 30
0.0
 11
236.171
 21
108.14
 31
0.0
  0
LINE
  8
0
 62
     0
 10
236.171
 20
108.14
 30
0.0
 11
222.17
 21
108.14
 31
0.0
  0
LINE
  8
0
 62
     0
 10
222.17
 20
108.14
 30
0.0
 11
222.17
 21
122.141
 31
0.0
  0
LINE
  8
0
 62
     0
 10
241.22
 20
122.141
 30
0.0
 11
255.221
 21
122.141
 31
0.0
  0
LINE
  8
0
 62
     0
 10
255.221
 20
122.141
 30
0.0
 11
255.221
 21
108.14
 31
0.0
  0
LINE
  8
0
 62
     0
 10
255.221
 20
108.14
 30
0.0
 11
241.22
 21
108.14
 31
0.0
  0
LINE
  8
0
 62
     0
 10
241.22
 20
108.14
 30
0.0
 11
241.22
 21
122.141
 31
0.0
  0
LINE
  8
0
 62
     0
 10
260.27
 20
122.141
 30
0.0
 11
274.271
 21
122.141
 31
0.0
  0
LINE
  8
0
 62
     0
 10
274.271
 20
122.141
 30
0.0
 11
274.271
 21
108.14
 31
0.0
  0
LINE
  8
0
 62
     0
 10
274.271
 20
108.14
 30
0.0
 11
260.27
 21
108.14
 31
0.0
  0
LINE
  8
0
 62
     0
 10
260.27
 20
108.14
 30
0.0
 11
260.27
 21
122.141
 31
0.0
  0
LINE
  8
0
 62
     0
 10
279.32
 20
122.141
 30
0.0
 11
293.321
 21
122.141
 31
0.0
  0
LINE
  8
0
 62
     0
 10
293.321
 20
122.141
 30
0.0
 11
293.321
 21
108.14
 31
0.0
  0
LINE
  8
0
 62
     0
 10
293.321
 20
108.14
 30
0.0
 11
279.32
 21
108.14
 31
0.0
  0
LINE
  8
0
 62
     0
 10
279.32
 20
108.14
 30
0.0
 11
279.32
 21
122.141
 31
0.0
  0
LINE
  8
0
 62
     0
 10
298.37
 20
122.141
 30
0.0
 11
312.371
 21
122.141
 31
0.0
  0
LINE
  8
0
 62
     0
 10
312.371
 20
122.141
 30
0.0
 11
312.371
 21
108.14
 31
0.0
  0
LINE
  8
0
 62
     0
 10
312.371
 20
108.14
 30
0.0
 11
298.37
 21
108.14
 31
0.0
  0
LINE
  8
0
 62
     0
 10
298.37
 20
108.14
 30
0.0
 11
298.37
 21
122.141
 31
0.0
  0
LINE
  8
0
 62
     0
 10
109.334
 20
131.805
 30
0.0
 11
108.707
 21
131.487
 31
0.0
  0
LINE
  8
0
 62
     0
 10
108.707
 20
131.487
 30
0.0
 11
108.209
 21
130.988
 31
0.0
  0
LINE
  8
0
 62
     0
 10
108.209
 20
130.988
 30
0.0
 11
107.888
 21
130.361
 31
0.0
  0
LINE
  8
0
 62
     0
 10
107.888
 20
130.361
 30
0.0
 11
107.779
 21
129.665
 31
0.0
  0
LINE
  8
0
 62
     0
 10
107.779
 20
129.665
 30
0.0
 11
107.888
 21
128.971
 31
0.0
  0
LINE
  8
0
 62
     0
 10
107.888
 20
128.971
 30
0.0
 11
108.209
 21
128.344
 31
0.0
  0
LINE
  8
0
 62
     0
 10
108.209
 20
128.344
 30
0.0
 11
108.707
 21
127.846
 31
0.0
  0
LINE
  8
0
 62
     0
 10
108.707
 20
127.846
 30
0.0
 11
109.334
 21
127.526
 31
0.0
  0
LINE
  8
0
 62
     0
 10
109.334
 20
127.526
 30
0.0
 11
110.028
 21
127.416
 31
0.0
  0
LINE
  8
0
 62
     0
 10
110.028
 20
127.416
 30
0.0
 11
110.724
 21
127.526
 31
0.0
  0
LINE
  8
0
 62
     0
 10
110.724
 20
127.526
 30
0.0
 11
111.351
 21
127.846
 31
0.0
  0
LINE
  8
0
 62
     0
 10
111.351
 20
127.846
 30
0.0
 11
111.849
 21
128.344
 31
0.0
  0
LINE
  8
0
 62
     0
 10
111.849
 20
128.344
 30
0.0
 11
112.168
 21
128.971
 31
0.0
  0
LINE
  8
0
 62
     0
 10
112.168
 20
128.971
 30
0.0
 11
112.279
 21
129.665
 31
0.0
  0
LINE
  8
0
 62
     0
 10
112.279
 20
129.665
 30
0.0
 11
112.168
 21
130.361
 31
0.0
  0
LINE
  8
0
 62
     0
 10
112.168
 20
130.361
 30
0.0
 11
111.849
 21
130.988
 31
0.0
  0
LINE
  8
0
 62
     0
 10
111.849
 20
130.988
 30
0.0
 11
111.351
 21
131.487
 31
0.0
  0
LINE
  8
0
 62
     0
 10
111.351
 20
131.487
 30
0.0
 11
110.724
 21
131.805
 31
0.0
  0
LINE
  8
0
 62
     0
 10
110.724
 20
131.805
 30
0.0
 11
110.028
 21
131.916
 31
0.0
  0
LINE
  8
0
 62
     0
 10
110.028
 20
131.916
 30
0.0
 11
109.334
 21
131.805
 31
0.0
  0
LINE
  8
0
 62
     0
 10
214.267
 20
131.805
 30
0.0
 11
213.64
 21
131.487
 31
0.0
  0
LINE
  8
0
 62
     0
 10
213.64
 20
131.487
 30
0.0
 11
213.143
 21
130.988
 31
0.0
  0
LINE
  8
0
 62
     0
 10
213.143
 20
130.988
 30
0.0
 11
212.823
 21
130.361
 31
0.0
  0
LINE
  8
0
 62
     0
 10
212.823
 20
130.361
 30
0.0
 11
212.713
 21
129.665
 31
0.0
  0
LINE
  8
0
 62
     0
 10
212.713
 20
129.665
 30
0.0
 11
212.823
 21
128.971
 31
0.0
  0
LINE
  8
0
 62
     0
 10
212.823
 20
128.971
 30
0.0
 11
213.143
 21
128.344
 31
0.0
  0
LINE
  8
0
 62
     0
 10
213.143
 20
128.344
 30
0.0
 11
213.64
 21
127.846
 31
0.0
  0
LINE
  8
0
 62
     0
 10
213.64
 20
127.846
 30
0.0
 11
214.267
 21
127.526
 31
0.0
  0
LINE
  8
0
 62
     0
 10
214.267
 20
127.526
 30
0.0
 11
214.963
 21
127.416
 31
0.0
  0
LINE
  8
0
 62
     0
 10
214.963
 20
127.416
 30
0.0
 11
215.658
 21
127.526
 31
0.0
  0
LINE
  8
0
 62
     0
 10
215.658
 20
127.526
 30
0.0
 11
216.285
 21
127.846
 31
0.0
  0
LINE
  8
0
 62
     0
 10
216.285
 20
127.846
 30
0.0
 11
216.782
 21
128.344
 31
0.0
  0
LINE
  8
0
 62
     0
 10
216.782
 20
128.344
 30
0.0
 11
217.103
 21
128.971
 31
0.0
  0
LINE
  8
0
 62
     0
 10
217.103
 20
128.971
 30
0.0
 11
217.212
 21
129.665
 31
0.0
  0
LINE
  8
0
 62
     0
 10
217.212
 20
129.665
 30
0.0
 11
217.103
 21
130.361
 31
0.0
  0
LINE
  8
0
 62
     0
 10
217.103
 20
130.361
 30
0.0
 11
216.782
 21
130.988
 31
0.0
  0
LINE
  8
0
 62
     0
 10
216.782
 20
130.988
 30
0.0
 11
216.285
 21
131.487
 31
0.0
  0
LINE
  8
0
 62
     0
 10
216.285
 20
131.487
 30
0.0
 11
215.658
 21
131.805
 31
0.0
  0
LINE
  8
0
 62
     0
 10
215.658
 20
131.805
 30
0.0
 11
214.963
 21
131.916
 31
0.0
  0
LINE
  8
0
 62
     0
 10
214.963
 20
131.916
 30
0.0
 11
214.267
 21
131.805
 31
0.0
  0
LINE
  8
0
 62
     0
 10
319.2
 20
131.805
 30
0.0
 11
318.574
 21
131.487
 31
0.0
  0
LINE
  8
0
 62
     0
 10
318.574
 20
131.487
 30
0.0
 11
318.076
 21
130.988
 31
0.0
  0
LINE
  8
0
 62
     0
 10
318.076
 20
130.988
 30
0.0
 11
317.756
 21
130.361
 31
0.0
  0
LINE
  8
0
 62
     0
 10
317.756
 20
130.361
 30
0.0
 11
317.646
 21
129.665
 31
0.0
  0
LINE
  8
0
 62
     0
 10
317.646
 20
129.665
 30
0.0
 11
317.756
 21
128.971
 31
0.0
  0
LINE
  8
0
 62
     0
 10
317.756
 20
128.971
 30
0.0
 11
318.076
 21
128.344
 31
0.0
  0
LINE
  8
0
 62
     0
 10
318.076
 20
128.344
 30
0.0
 11
318.574
 21
127.846
 31
0.0
  0
LINE
  8
0
 62
     0
 10
318.574
 20
127.846
 30
0.0
 11
319.2
 21
127.526
 31
0.0
  0
LINE
  8
0
 62
     0
 10
319.2
 20
127.526
 30
0.0
 11
319.896
 21
127.416
 31
0.0
  0
LINE
  8
0
 62
     0
 10
319.896
 20
127.416
 30
0.0
 11
320.591
 21
127.526
 31
0.0
  0
LINE
  8
0
 62
     0
 10
320.591
 20
127.526
 30
0.0
 11
321.218
 21
127.846
 31
0.0
  0
LINE
  8
0
 62
     0
 10
321.218
 20
127.846
 30
0.0
 11
321.717
 21
128.344
 31
0.0
  0
LINE
  8
0
 62
     0
 10
321.717
 20
128.344
 30
0.0
 11
322.035
 21
128.971
 31
0.0
  0
LINE
  8
0
 62
     0
 10
322.035
 20
128.971
 30
0.0
 11
322.147
 21
129.665
 31
0.0
  0
LINE
  8
0
 62
     0
 10
322.147
 20
129.665
 30
0.0
 11
322.035
 21
130.361
 31
0.0
  0
LINE
  8
0
 62
     0
 10
322.035
 20
130.361
 30
0.0
 11
321.717
 21
130.988
 31
0.0
  0
LINE
  8
0
 62
     0
 10
321.717
 20
130.988
 30
0.0
 11
321.218
 21
131.487
 31
0.0
  0
LINE
  8
0
 62
     0
 10
321.218
 20
131.487
 30
0.0
 11
320.591
 21
131.805
 31
0.0
  0
LINE
  8
0
 62
     0
 10
320.591
 20
131.805
 30
0.0
 11
319.896
 21
131.916
 31
0.0
  0
LINE
  8
0
 62
     0
 10
319.896
 20
131.916
 30
0.0
 11
319.2
 21
131.805
 31
0.0
  0
LINE
  8
0
 62
     0
 10
4.40009
 20
131.805
 30
0.0
 11
3.77306
 21
131.487
 31
0.0
  0
LINE
  8
0
 62
     0
 10
3.77306
 20
131.487
 30
0.0
 11
3.27422
 21
130.988
 31
0.0
  0
LINE
  8
0
 62
     0
 10
3.27422
 20
130.988
 30
0.0
 11
2.95589
 21
130.361
 31
0.0
  0
LINE
  8
0
 62
     0
 10
2.95589
 20
130.361
 30
0.0
 11
2.84565
 21
129.665
 31
0.0
  0
LINE
  8
0
 62
     0
 10
2.84565
 20
129.665
 30
0.0
 11
2.95589
 21
128.971
 31
0.0
  0
LINE
  8
0
 62
     0
 10
2.95589
 20
128.971
 30
0.0
 11
3.27422
 21
128.344
 31
0.0
  0
LINE
  8
0
 62
     0
 10
3.27422
 20
128.344
 30
0.0
 11
3.77306
 21
127.846
 31
0.0
  0
LINE
  8
0
 62
     0
 10
3.77306
 20
127.846
 30
0.0
 11
4.40009
 21
127.526
 31
0.0
  0
LINE
  8
0
 62
     0
 10
4.40009
 20
127.526
 30
0.0
 11
5.09598
 21
127.416
 31
0.0
  0
LINE
  8
0
 62
     0
 10
5.09598
 20
127.416
 30
0.0
 11
5.79053
 21
127.526
 31
0.0
  0
LINE
  8
0
 62
     0
 10
5.79053
 20
127.526
 30
0.0
 11
6.41752
 21
127.846
 31
0.0
  0
LINE
  8
0
 62
     0
 10
6.41752
 20
127.846
 30
0.0
 11
6.91501
 21
128.344
 31
0.0
  0
LINE
  8
0
 62
     0
 10
6.91501
 20
128.344
 30
0.0
 11
7.2347
 21
128.971
 31
0.0
  0
LINE
  8
0
 62
     0
 10
7.2347
 20
128.971
 30
0.0
 11
7.34494
 21
129.665
 31
0.0
  0
LINE
  8
0
 62
     0
 10
7.34494
 20
129.665
 30
0.0
 11
7.2347
 21
130.361
 31
0.0
  0
LINE
  8
0
 62
     0
 10
7.2347
 20
130.361
 30
0.0
 11
6.91501
 21
130.988
 31
0.0
  0
LINE
  8
0
 62
     0
 10
6.91501
 20
130.988
 30
0.0
 11
6.41752
 21
131.487
 31
0.0
  0
LINE
  8
0
 62
     0
 10
6.41752
 20
131.487
 30
0.0
 11
5.79053
 21
131.805
 31
0.0
  0
LINE
  8
0
 62
     0
 10
5.79053
 20
131.805
 30
0.0
 11
5.09598
 21
131.916
 31
0.0
  0
LINE
  8
0
 62
     0
 10
5.09598
 20
131.916
 30
0.0
 11
4.40009
 21
131.805
 31
0.0
  0
ENDSEC
  0
EOF
