<?xml version="1.0"?>
<svg xmlns="http://www.w3.org/2000/svg" xmlns:lc="https://librecad.org" xmlns:xlink="http://www.w3.org/1999/xlink" width="324.8009154in" height="134.300819in" viewBox="0 0 324.8009154 134.300819">
    <g lc:layername="0" lc:is_locked="false" lc:is_construction="false" fill="none" stroke="black" stroke-width="5">
        <line x1="322.8009154" y1="0" x2="322.9569154" y2="0.007"/>
        <line x1="322.9569154" y1="0.007" x2="323.1129154" y2="0.025"/>
        <line x1="323.1129154" y1="0.025" x2="323.2669154" y2="0.055"/>
        <line x1="323.2669154" y1="0.055" x2="323.4199154" y2="0.098"/>
        <line x1="323.4199154" y1="0.098" x2="323.5659154" y2="0.153"/>
        <line x1="323.5659154" y1="0.153" x2="323.7079154" y2="0.218"/>
        <line x1="323.7079154" y1="0.218" x2="323.8459154" y2="0.295"/>
        <line x1="323.8459154" y1="0.295" x2="323.9769154" y2="0.382"/>
        <line x1="323.9769154" y1="0.382" x2="324.0999154" y2="0.48"/>
        <line x1="324.0999154" y1="0.48" x2="324.2149154" y2="0.586"/>
        <line x1="324.2149154" y1="0.586" x2="324.3209154" y2="0.701"/>
        <line x1="324.3209154" y1="0.701" x2="324.4189154" y2="0.824"/>
        <line x1="324.4189154" y1="0.824" x2="324.5059154" y2="0.955"/>
        <line x1="324.5059154" y1="0.955" x2="324.5829154" y2="1.093"/>
        <line x1="324.5829154" y1="1.093" x2="324.6479154" y2="1.235"/>
        <line x1="324.6479154" y1="1.235" x2="324.7029154" y2="1.381"/>
        <line x1="324.7029154" y1="1.381" x2="324.7459154" y2="1.534"/>
        <line x1="324.7459154" y1="1.534" x2="324.7759154" y2="1.687"/>
        <line x1="324.7759154" y1="1.687" x2="324.7939154" y2="1.844"/>
        <line x1="324.7939154" y1="1.844" x2="324.8009154" y2="2.001"/>
        <line x1="324.8009154" y1="2.001" x2="324.8009154" y2="132.30128"/>
        <line x1="324.8009154" y1="132.30128" x2="324.7939154" y2="132.457"/>
        <line x1="324.7939154" y1="132.457" x2="324.7759154" y2="132.61272"/>
        <line x1="324.7759154" y1="132.61272" x2="324.7459154" y2="132.76706"/>
        <line x1="324.7459154" y1="132.76706" x2="324.7029154" y2="132.92003"/>
        <line x1="324.7029154" y1="132.92003" x2="324.6479154" y2="133.0661"/>
        <line x1="324.6479154" y1="133.0661" x2="324.5829154" y2="133.20804"/>
        <line x1="324.5829154" y1="133.20804" x2="324.5059154" y2="133.34584"/>
        <line x1="324.5059154" y1="133.34584" x2="324.4189154" y2="133.47675"/>
        <line x1="324.4189154" y1="133.47675" x2="324.3209154" y2="133.5994"/>
        <line x1="324.3209154" y1="133.5994" x2="324.2149154" y2="133.715154"/>
        <line x1="324.2149154" y1="133.715154" x2="324.0999154" y2="133.821263"/>
        <line x1="324.0999154" y1="133.821263" x2="323.9769154" y2="133.919102"/>
        <line x1="323.9769154" y1="133.919102" x2="323.8459154" y2="134.005921"/>
        <line x1="323.8459154" y1="134.005921" x2="323.7079154" y2="134.083091"/>
        <line x1="323.7079154" y1="134.083091" x2="323.5659154" y2="134.147858"/>
        <line x1="323.5659154" y1="134.147858" x2="323.4199154" y2="134.202979"/>
        <line x1="323.4199154" y1="134.202979" x2="323.2669154" y2="134.245697"/>
        <line x1="323.2669154" y1="134.245697" x2="323.1129154" y2="134.276015"/>
        <line x1="323.1129154" y1="134.276015" x2="322.9569154" y2="134.293929"/>
        <line x1="322.9569154" y1="134.293929" x2="322.8009154" y2="134.300819"/>
        <line x1="322.8009154" y1="134.300819" x2="2.0009154" y2="134.300819"/>
        <line x1="2.0009154" y1="134.300819" x2="1.8438154" y2="134.293929"/>
        <line x1="1.8438154" y1="134.293929" x2="1.6867154" y2="134.276015"/>
        <line x1="1.6867154" y1="134.276015" x2="1.5337554" y2="134.245697"/>
        <line x1="1.5337554" y1="134.245697" x2="1.3807954" y2="134.202979"/>
        <line x1="1.3807954" y1="134.202979" x2="1.2347254" y2="134.147858"/>
        <line x1="1.2347254" y1="134.147858" x2="1.0927854" y2="134.083091"/>
        <line x1="1.0927854" y1="134.083091" x2="0.9549754" y2="134.005921"/>
        <line x1="0.9549754" y1="134.005921" x2="0.8240674" y2="133.919102"/>
        <line x1="0.8240674" y1="133.919102" x2="0.7014204" y2="133.821263"/>
        <line x1="0.7014204" y1="133.821263" x2="0.5856674" y2="133.715154"/>
        <line x1="0.5856674" y1="133.715154" x2="0.4795584" y2="133.5994"/>
        <line x1="0.4795584" y1="133.5994" x2="0.3817154" y2="133.47675"/>
        <line x1="0.3817154" y1="133.47675" x2="0.2949004" y2="133.34584"/>
        <line x1="0.2949004" y1="133.34584" x2="0.2177304" y2="133.20804"/>
        <line x1="0.2177304" y1="133.20804" x2="0.1529624" y2="133.0661"/>
        <line x1="0.1529624" y1="133.0661" x2="0.0978404" y2="132.92003"/>
        <line x1="0.0978404" y1="132.92003" x2="0.0551214" y2="132.76706"/>
        <line x1="0.0551214" y1="132.76706" x2="0.0248044" y2="132.61272"/>
        <line x1="0.0248044" y1="132.61272" x2="0.0068904" y2="132.457"/>
        <line x1="0.0068904" y1="132.457" x2="0" y2="132.29991"/>
        <line x1="0" y1="132.29991" x2="0" y2="2.001"/>
        <line x1="0" y1="2.001" x2="0.0068904" y2="1.844"/>
        <line x1="0.0068904" y1="1.844" x2="0.0248044" y2="1.687"/>
        <line x1="0.0248044" y1="1.687" x2="0.0551214" y2="1.534"/>
        <line x1="0.0551214" y1="1.534" x2="0.0978404" y2="1.381"/>
        <line x1="0.0978404" y1="1.381" x2="0.1529624" y2="1.235"/>
        <line x1="0.1529624" y1="1.235" x2="0.2177304" y2="1.093"/>
        <line x1="0.2177304" y1="1.093" x2="0.2949004" y2="0.955"/>
        <line x1="0.2949004" y1="0.955" x2="0.3817154" y2="0.824"/>
        <line x1="0.3817154" y1="0.824" x2="0.4795584" y2="0.701"/>
        <line x1="0.4795584" y1="0.701" x2="0.5856674" y2="0.586"/>
        <line x1="0.5856674" y1="0.586" x2="0.7014204" y2="0.48"/>
        <line x1="0.7014204" y1="0.48" x2="0.8240674" y2="0.382"/>
        <line x1="0.8240674" y1="0.382" x2="0.9549754" y2="0.295"/>
        <line x1="0.9549754" y1="0.295" x2="1.0927854" y2="0.218"/>
        <line x1="1.0927854" y1="0.218" x2="1.2347254" y2="0.153"/>
        <line x1="1.2347254" y1="0.153" x2="1.3807954" y2="0.098"/>
        <line x1="1.3807954" y1="0.098" x2="1.5337554" y2="0.055"/>
        <line x1="1.5337554" y1="0.055" x2="1.6867154" y2="0.025"/>
        <line x1="1.6867154" y1="0.025" x2="1.8438154" y2="0.007"/>
        <line x1="1.8438154" y1="0.007" x2="2.0009154" y2="0"/>
        <line x1="2.0009154" y1="0" x2="322.8009154" y2="0"/>
        <line x1="319.1049154" y1="127.16122" x2="318.4789154" y2="127.4809"/>
        <line x1="318.4789154" y1="127.4809" x2="317.9809154" y2="127.97839"/>
        <line x1="317.9809154" y1="127.97839" x2="317.6609154" y2="128.60538"/>
        <line x1="317.6609154" y1="128.60538" x2="317.5509154" y2="129.30131"/>
        <line x1="317.5509154" y1="129.30131" x2="317.6609154" y2="129.99582"/>
        <line x1="317.6609154" y1="129.99582" x2="317.9809154" y2="130.62285"/>
        <line x1="317.9809154" y1="130.62285" x2="318.4789154" y2="131.12168"/>
        <line x1="318.4789154" y1="131.12168" x2="319.1049154" y2="131.44001"/>
        <line x1="319.1049154" y1="131.44001" x2="319.8009154" y2="131.55163"/>
        <line x1="319.8009154" y1="131.55163" x2="320.4959154" y2="131.44001"/>
        <line x1="320.4959154" y1="131.44001" x2="321.1229154" y2="131.12168"/>
        <line x1="321.1229154" y1="131.12168" x2="321.6219154" y2="130.62285"/>
        <line x1="321.6219154" y1="130.62285" x2="321.9399154" y2="129.99582"/>
        <line x1="321.9399154" y1="129.99582" x2="322.0519154" y2="129.30131"/>
        <line x1="322.0519154" y1="129.30131" x2="321.9399154" y2="128.60538"/>
        <line x1="321.9399154" y1="128.60538" x2="321.6219154" y2="127.97839"/>
        <line x1="321.6219154" y1="127.97839" x2="321.1229154" y2="127.4809"/>
        <line x1="321.1229154" y1="127.4809" x2="320.4959154" y2="127.16122"/>
        <line x1="320.4959154" y1="127.16122" x2="319.8009154" y2="127.05097"/>
        <line x1="319.8009154" y1="127.05097" x2="319.1049154" y2="127.16122"/>
        <line x1="214.1719154" y1="127.16122" x2="213.5449154" y2="127.4809"/>
        <line x1="213.5449154" y1="127.4809" x2="213.0479154" y2="127.97839"/>
        <line x1="213.0479154" y1="127.97839" x2="212.7279154" y2="128.60538"/>
        <line x1="212.7279154" y1="128.60538" x2="212.6179154" y2="129.30131"/>
        <line x1="212.6179154" y1="129.30131" x2="212.7279154" y2="129.99582"/>
        <line x1="212.7279154" y1="129.99582" x2="213.0479154" y2="130.62285"/>
        <line x1="213.0479154" y1="130.62285" x2="213.5449154" y2="131.12168"/>
        <line x1="213.5449154" y1="131.12168" x2="214.1719154" y2="131.44001"/>
        <line x1="214.1719154" y1="131.44001" x2="214.8679154" y2="131.55163"/>
        <line x1="214.8679154" y1="131.55163" x2="215.5629154" y2="131.44001"/>
        <line x1="215.5629154" y1="131.44001" x2="216.1899154" y2="131.12168"/>
        <line x1="216.1899154" y1="131.12168" x2="216.6869154" y2="130.62285"/>
        <line x1="216.6869154" y1="130.62285" x2="217.0079154" y2="129.99582"/>
        <line x1="217.0079154" y1="129.99582" x2="217.1169154" y2="129.30131"/>
        <line x1="217.1169154" y1="129.30131" x2="217.0079154" y2="128.60538"/>
        <line x1="217.0079154" y1="128.60538" x2="216.6869154" y2="127.97839"/>
        <line x1="216.6869154" y1="127.97839" x2="216.1899154" y2="127.4809"/>
        <line x1="216.1899154" y1="127.4809" x2="215.5629154" y2="127.16122"/>
        <line x1="215.5629154" y1="127.16122" x2="214.8679154" y2="127.05097"/>
        <line x1="214.8679154" y1="127.05097" x2="214.1719154" y2="127.16122"/>
        <line x1="109.2389154" y1="127.16122" x2="108.6119154" y2="127.4809"/>
        <line x1="108.6119154" y1="127.4809" x2="108.1139154" y2="127.97839"/>
        <line x1="108.1139154" y1="127.97839" x2="107.7929154" y2="128.60538"/>
        <line x1="107.7929154" y1="128.60538" x2="107.6839154" y2="129.30131"/>
        <line x1="107.6839154" y1="129.30131" x2="107.7929154" y2="129.99582"/>
        <line x1="107.7929154" y1="129.99582" x2="108.1139154" y2="130.62285"/>
        <line x1="108.1139154" y1="130.62285" x2="108.6119154" y2="131.12168"/>
        <line x1="108.6119154" y1="131.12168" x2="109.2389154" y2="131.44001"/>
        <line x1="109.2389154" y1="131.44001" x2="109.9329154" y2="131.55163"/>
        <line x1="109.9329154" y1="131.55163" x2="110.6289154" y2="131.44001"/>
        <line x1="110.6289154" y1="131.44001" x2="111.2559154" y2="131.12168"/>
        <line x1="111.2559154" y1="131.12168" x2="111.7539154" y2="130.62285"/>
        <line x1="111.7539154" y1="130.62285" x2="112.0729154" y2="129.99582"/>
        <line x1="112.0729154" y1="129.99582" x2="112.1839154" y2="129.30131"/>
        <line x1="112.1839154" y1="129.30131" x2="112.0729154" y2="128.60538"/>
        <line x1="112.0729154" y1="128.60538" x2="111.7539154" y2="127.97839"/>
        <line x1="111.7539154" y1="127.97839" x2="111.2559154" y2="127.4809"/>
        <line x1="111.2559154" y1="127.4809" x2="110.6289154" y2="127.16122"/>
        <line x1="110.6289154" y1="127.16122" x2="109.9329154" y2="127.05097"/>
        <line x1="109.9329154" y1="127.05097" x2="109.2389154" y2="127.16122"/>
        <line x1="4.3050054" y1="127.16122" x2="3.6779754" y2="127.4809"/>
        <line x1="3.6779754" y1="127.4809" x2="3.1791354" y2="127.97839"/>
        <line x1="3.1791354" y1="127.97839" x2="2.8608054" y2="128.60538"/>
        <line x1="2.8608054" y1="128.60538" x2="2.7505654" y2="129.30131"/>
        <line x1="2.7505654" y1="129.30131" x2="2.8608054" y2="129.99582"/>
        <line x1="2.8608054" y1="129.99582" x2="3.1791354" y2="130.62285"/>
        <line x1="3.1791354" y1="130.62285" x2="3.6779754" y2="131.12168"/>
        <line x1="3.6779754" y1="131.12168" x2="4.3050054" y2="131.44001"/>
        <line x1="4.3050054" y1="131.44001" x2="5.0008954" y2="131.55163"/>
        <line x1="5.0008954" y1="131.55163" x2="5.6954454" y2="131.44001"/>
        <line x1="5.6954454" y1="131.44001" x2="6.3224354" y2="131.12168"/>
        <line x1="6.3224354" y1="131.12168" x2="6.8199254" y2="130.62285"/>
        <line x1="6.8199254" y1="130.62285" x2="7.1396154" y2="129.99582"/>
        <line x1="7.1396154" y1="129.99582" x2="7.2498554" y2="129.30131"/>
        <line x1="7.2498554" y1="129.30131" x2="7.1396154" y2="128.60538"/>
        <line x1="7.1396154" y1="128.60538" x2="6.8199254" y2="127.97839"/>
        <line x1="6.8199254" y1="127.97839" x2="6.3224354" y2="127.4809"/>
        <line x1="6.3224354" y1="127.4809" x2="5.6954454" y2="127.16122"/>
        <line x1="5.6954454" y1="127.16122" x2="5.0008954" y2="127.05097"/>
        <line x1="5.0008954" y1="127.05097" x2="4.3050054" y2="127.16122"/>
        <line x1="133.9689154" y1="107.7749" x2="133.9689154" y2="112.4755"/>
        <line x1="133.9689154" y1="112.4755" x2="94.3432154" y2="112.4755"/>
        <line x1="94.3432154" y1="112.4755" x2="94.3432154" y2="109.244"/>
        <line x1="94.3432154" y1="109.244" x2="92.6181154" y2="109.244"/>
        <line x1="92.6181154" y1="109.244" x2="92.6181154" y2="108.3248"/>
        <line x1="92.6181154" y1="108.3248" x2="89.3189154" y2="108.3248"/>
        <line x1="89.3189154" y1="108.3248" x2="89.3189154" y2="109.244"/>
        <line x1="89.3189154" y1="109.244" x2="87.5935154" y2="109.244"/>
        <line x1="87.5935154" y1="109.244" x2="87.5935154" y2="112.4755"/>
        <line x1="87.5935154" y1="112.4755" x2="86.7683154" y2="112.4755"/>
        <line x1="86.7683154" y1="112.4755" x2="86.7683154" y2="115.2742"/>
        <line x1="86.7683154" y1="115.2742" x2="87.5935154" y2="115.2742"/>
        <line x1="87.5935154" y1="115.2742" x2="87.5935154" y2="121.5443"/>
        <line x1="87.5935154" y1="121.5443" x2="89.3189154" y2="121.5443"/>
        <line x1="89.3189154" y1="121.5443" x2="89.3189154" y2="122.5241"/>
        <line x1="89.3189154" y1="122.5241" x2="92.6181154" y2="122.5241"/>
        <line x1="92.6181154" y1="122.5241" x2="92.6181154" y2="121.5443"/>
        <line x1="92.6181154" y1="121.5443" x2="94.3432154" y2="121.5443"/>
        <line x1="94.3432154" y1="121.5443" x2="94.3432154" y2="117.074"/>
        <line x1="94.3432154" y1="117.074" x2="133.9689154" y2="117.074"/>
        <line x1="133.9689154" y1="117.074" x2="133.9689154" y2="121.7744"/>
        <line x1="133.9689154" y1="121.7744" x2="147.9679154" y2="121.7744"/>
        <line x1="147.9679154" y1="121.7744" x2="147.9679154" y2="117.074"/>
        <line x1="147.9679154" y1="117.074" x2="187.5939154" y2="117.074"/>
        <line x1="187.5939154" y1="117.074" x2="187.5939154" y2="121.5443"/>
        <line x1="187.5939154" y1="121.5443" x2="189.3189154" y2="121.5443"/>
        <line x1="189.3189154" y1="121.5443" x2="189.3189154" y2="122.5241"/>
        <line x1="189.3189154" y1="122.5241" x2="192.6179154" y2="122.5241"/>
        <line x1="192.6179154" y1="122.5241" x2="192.6179154" y2="121.5443"/>
        <line x1="192.6179154" y1="121.5443" x2="194.3429154" y2="121.5443"/>
        <line x1="194.3429154" y1="121.5443" x2="194.3429154" y2="115.2742"/>
        <line x1="194.3429154" y1="115.2742" x2="195.1689154" y2="115.2742"/>
        <line x1="195.1689154" y1="115.2742" x2="195.1689154" y2="112.4755"/>
        <line x1="195.1689154" y1="112.4755" x2="194.3429154" y2="112.4755"/>
        <line x1="194.3429154" y1="112.4755" x2="194.3429154" y2="109.244"/>
        <line x1="194.3429154" y1="109.244" x2="192.6179154" y2="109.244"/>
        <line x1="192.6179154" y1="109.244" x2="192.6179154" y2="108.3248"/>
        <line x1="192.6179154" y1="108.3248" x2="189.3189154" y2="108.3248"/>
        <line x1="189.3189154" y1="108.3248" x2="189.3189154" y2="109.244"/>
        <line x1="189.3189154" y1="109.244" x2="187.5939154" y2="109.244"/>
        <line x1="187.5939154" y1="109.244" x2="187.5939154" y2="112.4755"/>
        <line x1="187.5939154" y1="112.4755" x2="147.9679154" y2="112.4755"/>
        <line x1="147.9679154" y1="112.4755" x2="147.9679154" y2="107.7749"/>
        <line x1="147.9679154" y1="107.7749" x2="133.9689154" y2="107.7749"/>
        <line x1="14.9062154" y1="107.7749" x2="28.9057154" y2="107.7749"/>
        <line x1="28.9057154" y1="107.7749" x2="28.9057154" y2="121.7744"/>
        <line x1="28.9057154" y1="121.7744" x2="14.9062154" y2="121.7744"/>
        <line x1="14.9062154" y1="121.7744" x2="14.9062154" y2="107.7749"/>
        <line x1="38.7186154" y1="107.7749" x2="52.7182154" y2="107.7749"/>
        <line x1="52.7182154" y1="107.7749" x2="52.7182154" y2="121.7744"/>
        <line x1="52.7182154" y1="121.7744" x2="38.7186154" y2="121.7744"/>
        <line x1="38.7186154" y1="121.7744" x2="38.7186154" y2="107.7749"/>
        <line x1="62.5311154" y1="107.7749" x2="76.5307154" y2="107.7749"/>
        <line x1="76.5307154" y1="107.7749" x2="76.5307154" y2="121.7744"/>
        <line x1="76.5307154" y1="121.7744" x2="62.5311154" y2="121.7744"/>
        <line x1="62.5311154" y1="121.7744" x2="62.5311154" y2="107.7749"/>
        <line x1="203.0249154" y1="107.7749" x2="217.0259154" y2="107.7749"/>
        <line x1="217.0259154" y1="107.7749" x2="217.0259154" y2="121.7744"/>
        <line x1="217.0259154" y1="121.7744" x2="203.0249154" y2="121.7744"/>
        <line x1="203.0249154" y1="121.7744" x2="203.0249154" y2="107.7749"/>
        <line x1="222.0749154" y1="107.7749" x2="236.0759154" y2="107.7749"/>
        <line x1="236.0759154" y1="107.7749" x2="236.0759154" y2="121.7744"/>
        <line x1="236.0759154" y1="121.7744" x2="222.0749154" y2="121.7744"/>
        <line x1="222.0749154" y1="121.7744" x2="222.0749154" y2="107.7749"/>
        <line x1="241.1249154" y1="107.7749" x2="255.1259154" y2="107.7749"/>
        <line x1="255.1259154" y1="107.7749" x2="255.1259154" y2="121.7744"/>
        <line x1="255.1259154" y1="121.7744" x2="241.1249154" y2="121.7744"/>
        <line x1="241.1249154" y1="121.7744" x2="241.1249154" y2="107.7749"/>
        <line x1="260.1749154" y1="107.7749" x2="274.1759154" y2="107.7749"/>
        <line x1="274.1759154" y1="107.7749" x2="274.1759154" y2="121.7744"/>
        <line x1="274.1759154" y1="121.7744" x2="260.1749154" y2="121.7744"/>
        <line x1="260.1749154" y1="121.7744" x2="260.1749154" y2="107.7749"/>
        <line x1="279.2249154" y1="107.7749" x2="293.2259154" y2="107.7749"/>
        <line x1="293.2259154" y1="107.7749" x2="293.2259154" y2="121.7744"/>
        <line x1="293.2259154" y1="121.7744" x2="279.2249154" y2="121.7744"/>
        <line x1="279.2249154" y1="121.7744" x2="279.2249154" y2="107.7749"/>
        <line x1="298.2749154" y1="107.7749" x2="312.2759154" y2="107.7749"/>
        <line x1="312.2759154" y1="107.7749" x2="312.2759154" y2="121.7744"/>
        <line x1="312.2759154" y1="121.7744" x2="298.2749154" y2="121.7744"/>
        <line x1="298.2749154" y1="121.7744" x2="298.2749154" y2="107.7749"/>
        <line x1="24.4312154" y1="88.7248" x2="24.4312154" y2="93.4256"/>
        <line x1="24.4312154" y1="93.4256" x2="22.9057154" y2="93.4256"/>
        <line x1="22.9057154" y1="93.4256" x2="22.9057154" y2="90.1952"/>
        <line x1="22.9057154" y1="90.1952" x2="21.1818154" y2="90.1952"/>
        <line x1="21.1818154" y1="90.1952" x2="21.1818154" y2="89.2748"/>
        <line x1="21.1818154" y1="89.2748" x2="17.8814154" y2="89.2748"/>
        <line x1="17.8814154" y1="89.2748" x2="17.8814154" y2="90.1952"/>
        <line x1="17.8814154" y1="90.1952" x2="16.1561154" y2="90.1952"/>
        <line x1="16.1561154" y1="90.1952" x2="16.1561154" y2="93.4256"/>
        <line x1="16.1561154" y1="93.4256" x2="15.3320154" y2="93.4256"/>
        <line x1="15.3320154" y1="93.4256" x2="15.3320154" y2="96.2256"/>
        <line x1="15.3320154" y1="96.2256" x2="16.1561154" y2="96.2256"/>
        <line x1="16.1561154" y1="96.2256" x2="16.1561154" y2="102.4943"/>
        <line x1="16.1561154" y1="102.4943" x2="17.8814154" y2="102.4943"/>
        <line x1="17.8814154" y1="102.4943" x2="17.8814154" y2="103.4755"/>
        <line x1="17.8814154" y1="103.4755" x2="21.1818154" y2="103.4755"/>
        <line x1="21.1818154" y1="103.4755" x2="21.1818154" y2="102.4943"/>
        <line x1="21.1818154" y1="102.4943" x2="22.9057154" y2="102.4943"/>
        <line x1="22.9057154" y1="102.4943" x2="22.9057154" y2="98.024"/>
        <line x1="22.9057154" y1="98.024" x2="24.4312154" y2="98.024"/>
        <line x1="24.4312154" y1="98.024" x2="24.4312154" y2="102.7258"/>
        <line x1="24.4312154" y1="102.7258" x2="38.4307154" y2="102.7258"/>
        <line x1="38.4307154" y1="102.7258" x2="38.4307154" y2="98.024"/>
        <line x1="38.4307154" y1="98.024" x2="39.9561154" y2="98.024"/>
        <line x1="39.9561154" y1="98.024" x2="39.9561154" y2="102.4943"/>
        <line x1="39.9561154" y1="102.4943" x2="41.6815154" y2="102.4943"/>
        <line x1="41.6815154" y1="102.4943" x2="41.6815154" y2="103.4755"/>
        <line x1="41.6815154" y1="103.4755" x2="44.9818154" y2="103.4755"/>
        <line x1="44.9818154" y1="103.4755" x2="44.9818154" y2="102.4943"/>
        <line x1="44.9818154" y1="102.4943" x2="46.7058154" y2="102.4943"/>
        <line x1="46.7058154" y1="102.4943" x2="46.7058154" y2="96.2256"/>
        <line x1="46.7058154" y1="96.2256" x2="47.5313154" y2="96.2256"/>
        <line x1="47.5313154" y1="96.2256" x2="47.5313154" y2="93.4256"/>
        <line x1="47.5313154" y1="93.4256" x2="46.7058154" y2="93.4256"/>
        <line x1="46.7058154" y1="93.4256" x2="46.7058154" y2="90.1952"/>
        <line x1="46.7058154" y1="90.1952" x2="44.9818154" y2="90.1952"/>
        <line x1="44.9818154" y1="90.1952" x2="44.9818154" y2="89.2748"/>
        <line x1="44.9818154" y1="89.2748" x2="41.6815154" y2="89.2748"/>
        <line x1="41.6815154" y1="89.2748" x2="41.6815154" y2="90.1952"/>
        <line x1="41.6815154" y1="90.1952" x2="39.9561154" y2="90.1952"/>
        <line x1="39.9561154" y1="90.1952" x2="39.9561154" y2="93.4256"/>
        <line x1="39.9561154" y1="93.4256" x2="38.4307154" y2="93.4256"/>
        <line x1="38.4307154" y1="93.4256" x2="38.4307154" y2="88.7248"/>
        <line x1="38.4307154" y1="88.7248" x2="24.4312154" y2="88.7248"/>
        <line x1="55.3873154" y1="88.7248" x2="69.3870154" y2="88.7248"/>
        <line x1="69.3870154" y1="88.7248" x2="69.3870154" y2="102.7258"/>
        <line x1="69.3870154" y1="102.7258" x2="55.3873154" y2="102.7258"/>
        <line x1="55.3873154" y1="102.7258" x2="55.3873154" y2="88.7248"/>
        <line x1="74.4373154" y1="88.7248" x2="88.4370154" y2="88.7248"/>
        <line x1="88.4370154" y1="88.7248" x2="88.4370154" y2="102.7258"/>
        <line x1="88.4370154" y1="102.7258" x2="74.4373154" y2="102.7258"/>
        <line x1="74.4373154" y1="102.7258" x2="74.4373154" y2="88.7248"/>
        <line x1="93.4873154" y1="88.7248" x2="107.4869154" y2="88.7248"/>
        <line x1="107.4869154" y1="88.7248" x2="107.4869154" y2="102.7258"/>
        <line x1="107.4869154" y1="102.7258" x2="93.4873154" y2="102.7258"/>
        <line x1="93.4873154" y1="102.7258" x2="93.4873154" y2="88.7248"/>
        <line x1="112.5369154" y1="88.7248" x2="126.5369154" y2="88.7248"/>
        <line x1="126.5369154" y1="88.7248" x2="126.5369154" y2="102.7258"/>
        <line x1="126.5369154" y1="102.7258" x2="112.5369154" y2="102.7258"/>
        <line x1="112.5369154" y1="102.7258" x2="112.5369154" y2="88.7248"/>
        <line x1="131.5869154" y1="88.7248" x2="145.5869154" y2="88.7248"/>
        <line x1="145.5869154" y1="88.7248" x2="145.5869154" y2="102.7258"/>
        <line x1="145.5869154" y1="102.7258" x2="131.5869154" y2="102.7258"/>
        <line x1="131.5869154" y1="102.7258" x2="131.5869154" y2="88.7248"/>
        <line x1="150.6369154" y1="88.7248" x2="164.6369154" y2="88.7248"/>
        <line x1="164.6369154" y1="88.7248" x2="164.6369154" y2="102.7258"/>
        <line x1="164.6369154" y1="102.7258" x2="150.6369154" y2="102.7258"/>
        <line x1="150.6369154" y1="102.7258" x2="150.6369154" y2="88.7248"/>
        <line x1="169.6869154" y1="88.7248" x2="183.6869154" y2="88.7248"/>
        <line x1="183.6869154" y1="88.7248" x2="183.6869154" y2="102.7258"/>
        <line x1="183.6869154" y1="102.7258" x2="169.6869154" y2="102.7258"/>
        <line x1="169.6869154" y1="102.7258" x2="169.6869154" y2="88.7248"/>
        <line x1="188.7369154" y1="88.7248" x2="202.7369154" y2="88.7248"/>
        <line x1="202.7369154" y1="88.7248" x2="202.7369154" y2="102.7258"/>
        <line x1="202.7369154" y1="102.7258" x2="188.7369154" y2="102.7258"/>
        <line x1="188.7369154" y1="102.7258" x2="188.7369154" y2="88.7248"/>
        <line x1="207.7869154" y1="88.7248" x2="221.7869154" y2="88.7248"/>
        <line x1="221.7869154" y1="88.7248" x2="221.7869154" y2="102.7258"/>
        <line x1="221.7869154" y1="102.7258" x2="207.7869154" y2="102.7258"/>
        <line x1="207.7869154" y1="102.7258" x2="207.7869154" y2="88.7248"/>
        <line x1="226.8369154" y1="88.7248" x2="240.8369154" y2="88.7248"/>
        <line x1="240.8369154" y1="88.7248" x2="240.8369154" y2="102.7258"/>
        <line x1="240.8369154" y1="102.7258" x2="226.8369154" y2="102.7258"/>
        <line x1="226.8369154" y1="102.7258" x2="226.8369154" y2="88.7248"/>
        <line x1="253.0309154" y1="88.7248" x2="267.0309154" y2="88.7248"/>
        <line x1="267.0309154" y1="88.7248" x2="267.0309154" y2="102.7258"/>
        <line x1="267.0309154" y1="102.7258" x2="253.0309154" y2="102.7258"/>
        <line x1="253.0309154" y1="102.7258" x2="253.0309154" y2="88.7248"/>
        <line x1="279.2249154" y1="88.7248" x2="293.2259154" y2="88.7248"/>
        <line x1="293.2259154" y1="88.7248" x2="293.2259154" y2="102.7258"/>
        <line x1="293.2259154" y1="102.7258" x2="279.2249154" y2="102.7258"/>
        <line x1="279.2249154" y1="102.7258" x2="279.2249154" y2="88.7248"/>
        <line x1="298.2749154" y1="88.7248" x2="312.2759154" y2="88.7248"/>
        <line x1="312.2759154" y1="88.7248" x2="312.2759154" y2="102.7258"/>
        <line x1="312.2759154" y1="102.7258" x2="298.2749154" y2="102.7258"/>
        <line x1="298.2749154" y1="102.7258" x2="298.2749154" y2="88.7248"/>
        <line x1="267.3189154" y1="69.6748" x2="267.3189154" y2="74.3756"/>
        <line x1="267.3189154" y1="74.3756" x2="265.7929154" y2="74.3756"/>
        <line x1="265.7929154" y1="74.3756" x2="265.7929154" y2="71.1452"/>
        <line x1="265.7929154" y1="71.1452" x2="264.0679154" y2="71.1452"/>
        <line x1="264.0679154" y1="71.1452" x2="264.0679154" y2="70.2248"/>
        <line x1="264.0679154" y1="70.2248" x2="260.7689154" y2="70.2248"/>
        <line x1="260.7689154" y1="70.2248" x2="260.7689154" y2="71.1452"/>
        <line x1="260.7689154" y1="71.1452" x2="259.0439154" y2="71.1452"/>
        <line x1="259.0439154" y1="71.1452" x2="259.0439154" y2="74.3756"/>
        <line x1="259.0439154" y1="74.3756" x2="258.2179154" y2="74.3756"/>
        <line x1="258.2179154" y1="74.3756" x2="258.2179154" y2="77.1756"/>
        <line x1="258.2179154" y1="77.1756" x2="259.0439154" y2="77.1756"/>
        <line x1="259.0439154" y1="77.1756" x2="259.0439154" y2="83.4458"/>
        <line x1="259.0439154" y1="83.4458" x2="260.7689154" y2="83.4458"/>
        <line x1="260.7689154" y1="83.4458" x2="260.7689154" y2="84.4255"/>
        <line x1="260.7689154" y1="84.4255" x2="264.0679154" y2="84.4255"/>
        <line x1="264.0679154" y1="84.4255" x2="264.0679154" y2="83.4458"/>
        <line x1="264.0679154" y1="83.4458" x2="265.7929154" y2="83.4458"/>
        <line x1="265.7929154" y1="83.4458" x2="265.7929154" y2="78.9754"/>
        <line x1="265.7929154" y1="78.9754" x2="267.3189154" y2="78.9754"/>
        <line x1="267.3189154" y1="78.9754" x2="267.3189154" y2="83.6759"/>
        <line x1="267.3189154" y1="83.6759" x2="281.3179154" y2="83.6759"/>
        <line x1="281.3179154" y1="83.6759" x2="281.3179154" y2="78.9754"/>
        <line x1="281.3179154" y1="78.9754" x2="282.8439154" y2="78.9754"/>
        <line x1="282.8439154" y1="78.9754" x2="282.8439154" y2="83.4458"/>
        <line x1="282.8439154" y1="83.4458" x2="284.5689154" y2="83.4458"/>
        <line x1="284.5689154" y1="83.4458" x2="284.5689154" y2="84.4255"/>
        <line x1="284.5689154" y1="84.4255" x2="287.8679154" y2="84.4255"/>
        <line x1="287.8679154" y1="84.4255" x2="287.8679154" y2="83.4458"/>
        <line x1="287.8679154" y1="83.4458" x2="289.5929154" y2="83.4458"/>
        <line x1="289.5929154" y1="83.4458" x2="289.5929154" y2="77.1756"/>
        <line x1="289.5929154" y1="77.1756" x2="290.4189154" y2="77.1756"/>
        <line x1="290.4189154" y1="77.1756" x2="290.4189154" y2="74.3756"/>
        <line x1="290.4189154" y1="74.3756" x2="289.5929154" y2="74.3756"/>
        <line x1="289.5929154" y1="74.3756" x2="289.5929154" y2="71.1452"/>
        <line x1="289.5929154" y1="71.1452" x2="287.8679154" y2="71.1452"/>
        <line x1="287.8679154" y1="71.1452" x2="287.8679154" y2="70.2248"/>
        <line x1="287.8679154" y1="70.2248" x2="284.5689154" y2="70.2248"/>
        <line x1="284.5689154" y1="70.2248" x2="284.5689154" y2="71.1452"/>
        <line x1="284.5689154" y1="71.1452" x2="282.8439154" y2="71.1452"/>
        <line x1="282.8439154" y1="71.1452" x2="282.8439154" y2="74.3756"/>
        <line x1="282.8439154" y1="74.3756" x2="281.3179154" y2="74.3756"/>
        <line x1="281.3179154" y1="74.3756" x2="281.3179154" y2="69.6748"/>
        <line x1="281.3179154" y1="69.6748" x2="267.3189154" y2="69.6748"/>
        <line x1="19.6687154" y1="69.6748" x2="33.6682154" y2="69.6748"/>
        <line x1="33.6682154" y1="69.6748" x2="33.6682154" y2="83.6759"/>
        <line x1="33.6682154" y1="83.6759" x2="19.6687154" y2="83.6759"/>
        <line x1="19.6687154" y1="83.6759" x2="19.6687154" y2="69.6748"/>
        <line x1="45.8623154" y1="69.6748" x2="59.8620154" y2="69.6748"/>
        <line x1="59.8620154" y1="69.6748" x2="59.8620154" y2="83.6759"/>
        <line x1="59.8620154" y1="83.6759" x2="45.8623154" y2="83.6759"/>
        <line x1="45.8623154" y1="83.6759" x2="45.8623154" y2="69.6748"/>
        <line x1="64.9123154" y1="69.6748" x2="78.9120154" y2="69.6748"/>
        <line x1="78.9120154" y1="69.6748" x2="78.9120154" y2="83.6759"/>
        <line x1="78.9120154" y1="83.6759" x2="64.9123154" y2="83.6759"/>
        <line x1="64.9123154" y1="83.6759" x2="64.9123154" y2="69.6748"/>
        <line x1="83.9623154" y1="69.6748" x2="97.9620154" y2="69.6748"/>
        <line x1="97.9620154" y1="69.6748" x2="97.9620154" y2="83.6759"/>
        <line x1="97.9620154" y1="83.6759" x2="83.9623154" y2="83.6759"/>
        <line x1="83.9623154" y1="83.6759" x2="83.9623154" y2="69.6748"/>
        <line x1="103.0119154" y1="69.6748" x2="117.0119154" y2="69.6748"/>
        <line x1="117.0119154" y1="69.6748" x2="117.0119154" y2="83.6759"/>
        <line x1="117.0119154" y1="83.6759" x2="103.0119154" y2="83.6759"/>
        <line x1="103.0119154" y1="83.6759" x2="103.0119154" y2="69.6748"/>
        <line x1="122.0619154" y1="69.6748" x2="136.0619154" y2="69.6748"/>
        <line x1="136.0619154" y1="69.6748" x2="136.0619154" y2="83.6759"/>
        <line x1="136.0619154" y1="83.6759" x2="122.0619154" y2="83.6759"/>
        <line x1="122.0619154" y1="83.6759" x2="122.0619154" y2="69.6748"/>
        <line x1="141.1119154" y1="69.6748" x2="155.1119154" y2="69.6748"/>
        <line x1="155.1119154" y1="69.6748" x2="155.1119154" y2="83.6759"/>
        <line x1="155.1119154" y1="83.6759" x2="141.1119154" y2="83.6759"/>
        <line x1="141.1119154" y1="83.6759" x2="141.1119154" y2="69.6748"/>
        <line x1="160.1619154" y1="69.6748" x2="174.1619154" y2="69.6748"/>
        <line x1="174.1619154" y1="69.6748" x2="174.1619154" y2="83.6759"/>
        <line x1="174.1619154" y1="83.6759" x2="160.1619154" y2="83.6759"/>
        <line x1="160.1619154" y1="83.6759" x2="160.1619154" y2="69.6748"/>
        <line x1="179.2119154" y1="69.6748" x2="193.2119154" y2="69.6748"/>
        <line x1="193.2119154" y1="69.6748" x2="193.2119154" y2="83.6759"/>
        <line x1="193.2119154" y1="83.6759" x2="179.2119154" y2="83.6759"/>
        <line x1="179.2119154" y1="83.6759" x2="179.2119154" y2="69.6748"/>
        <line x1="198.2619154" y1="69.6748" x2="212.2619154" y2="69.6748"/>
        <line x1="212.2619154" y1="69.6748" x2="212.2619154" y2="83.6759"/>
        <line x1="212.2619154" y1="83.6759" x2="198.2619154" y2="83.6759"/>
        <line x1="198.2619154" y1="83.6759" x2="198.2619154" y2="69.6748"/>
        <line x1="217.3119154" y1="69.6748" x2="231.3119154" y2="69.6748"/>
        <line x1="231.3119154" y1="69.6748" x2="231.3119154" y2="83.6759"/>
        <line x1="231.3119154" y1="83.6759" x2="217.3119154" y2="83.6759"/>
        <line x1="217.3119154" y1="83.6759" x2="217.3119154" y2="69.6748"/>
        <line x1="236.3619154" y1="69.6748" x2="250.3619154" y2="69.6748"/>
        <line x1="250.3619154" y1="69.6748" x2="250.3619154" y2="83.6759"/>
        <line x1="250.3619154" y1="83.6759" x2="236.3619154" y2="83.6759"/>
        <line x1="236.3619154" y1="83.6759" x2="236.3619154" y2="69.6748"/>
        <line x1="298.2749154" y1="69.6748" x2="312.2759154" y2="69.6748"/>
        <line x1="312.2759154" y1="69.6748" x2="312.2759154" y2="83.6759"/>
        <line x1="312.2759154" y1="83.6759" x2="298.2749154" y2="83.6759"/>
        <line x1="298.2749154" y1="83.6759" x2="298.2749154" y2="69.6748"/>
        <line x1="17.2875154" y1="50.6248" x2="31.2870154" y2="50.6248"/>
        <line x1="31.2870154" y1="50.6248" x2="31.2870154" y2="64.6259"/>
        <line x1="31.2870154" y1="64.6259" x2="17.2875154" y2="64.6259"/>
        <line x1="17.2875154" y1="64.6259" x2="17.2875154" y2="50.6248"/>
        <line x1="41.0998154" y1="50.6248" x2="55.1009154" y2="50.6248"/>
        <line x1="55.1009154" y1="50.6248" x2="55.1009154" y2="64.6259"/>
        <line x1="55.1009154" y1="64.6259" x2="41.0998154" y2="64.6259"/>
        <line x1="41.0998154" y1="64.6259" x2="41.0998154" y2="50.6248"/>
        <line x1="60.1498154" y1="50.6248" x2="74.1509154" y2="50.6248"/>
        <line x1="74.1509154" y1="50.6248" x2="74.1509154" y2="64.6259"/>
        <line x1="74.1509154" y1="64.6259" x2="60.1498154" y2="64.6259"/>
        <line x1="60.1498154" y1="64.6259" x2="60.1498154" y2="50.6248"/>
        <line x1="79.1998154" y1="50.6248" x2="93.2009154" y2="50.6248"/>
        <line x1="93.2009154" y1="50.6248" x2="93.2009154" y2="64.6259"/>
        <line x1="93.2009154" y1="64.6259" x2="79.1998154" y2="64.6259"/>
        <line x1="79.1998154" y1="64.6259" x2="79.1998154" y2="50.6248"/>
        <line x1="98.2498154" y1="50.6248" x2="112.2509154" y2="50.6248"/>
        <line x1="112.2509154" y1="50.6248" x2="112.2509154" y2="64.6259"/>
        <line x1="112.2509154" y1="64.6259" x2="98.2498154" y2="64.6259"/>
        <line x1="98.2498154" y1="64.6259" x2="98.2498154" y2="50.6248"/>
        <line x1="117.2999154" y1="50.6248" x2="131.3009154" y2="50.6248"/>
        <line x1="131.3009154" y1="50.6248" x2="131.3009154" y2="64.6259"/>
        <line x1="131.3009154" y1="64.6259" x2="117.2999154" y2="64.6259"/>
        <line x1="117.2999154" y1="64.6259" x2="117.2999154" y2="50.6248"/>
        <line x1="136.3499154" y1="50.6248" x2="150.3509154" y2="50.6248"/>
        <line x1="150.3509154" y1="50.6248" x2="150.3509154" y2="64.6259"/>
        <line x1="150.3509154" y1="64.6259" x2="136.3499154" y2="64.6259"/>
        <line x1="136.3499154" y1="64.6259" x2="136.3499154" y2="50.6248"/>
        <line x1="155.3999154" y1="50.6248" x2="169.4009154" y2="50.6248"/>
        <line x1="169.4009154" y1="50.6248" x2="169.4009154" y2="64.6259"/>
        <line x1="169.4009154" y1="64.6259" x2="155.3999154" y2="64.6259"/>
        <line x1="155.3999154" y1="64.6259" x2="155.3999154" y2="50.6248"/>
        <line x1="174.4499154" y1="50.6248" x2="188.4509154" y2="50.6248"/>
        <line x1="188.4509154" y1="50.6248" x2="188.4509154" y2="64.6259"/>
        <line x1="188.4509154" y1="64.6259" x2="174.4499154" y2="64.6259"/>
        <line x1="174.4499154" y1="64.6259" x2="174.4499154" y2="50.6248"/>
        <line x1="193.4999154" y1="50.6248" x2="207.5009154" y2="50.6248"/>
        <line x1="207.5009154" y1="50.6248" x2="207.5009154" y2="64.6259"/>
        <line x1="207.5009154" y1="64.6259" x2="193.4999154" y2="64.6259"/>
        <line x1="193.4999154" y1="64.6259" x2="193.4999154" y2="50.6248"/>
        <line x1="212.5499154" y1="50.6248" x2="226.5509154" y2="50.6248"/>
        <line x1="226.5509154" y1="50.6248" x2="226.5509154" y2="64.6259"/>
        <line x1="226.5509154" y1="64.6259" x2="212.5499154" y2="64.6259"/>
        <line x1="212.5499154" y1="64.6259" x2="212.5499154" y2="50.6248"/>
        <line x1="231.5999154" y1="50.6248" x2="245.6009154" y2="50.6248"/>
        <line x1="245.6009154" y1="50.6248" x2="245.6009154" y2="64.6259"/>
        <line x1="245.6009154" y1="64.6259" x2="231.5999154" y2="64.6259"/>
        <line x1="231.5999154" y1="64.6259" x2="231.5999154" y2="50.6248"/>
        <line x1="250.6499154" y1="50.6248" x2="264.6509154" y2="50.6248"/>
        <line x1="264.6509154" y1="50.6248" x2="264.6509154" y2="64.6259"/>
        <line x1="264.6509154" y1="64.6259" x2="250.6499154" y2="64.6259"/>
        <line x1="250.6499154" y1="64.6259" x2="250.6499154" y2="50.6248"/>
        <line x1="274.4619154" y1="50.6248" x2="288.4619154" y2="50.6248"/>
        <line x1="288.4619154" y1="50.6248" x2="288.4619154" y2="64.6259"/>
        <line x1="288.4619154" y1="64.6259" x2="274.4619154" y2="64.6259"/>
        <line x1="274.4619154" y1="64.6259" x2="274.4619154" y2="50.6248"/>
        <line x1="298.2749154" y1="50.6248" x2="312.2759154" y2="50.6248"/>
        <line x1="312.2759154" y1="50.6248" x2="312.2759154" y2="64.6259"/>
        <line x1="312.2759154" y1="64.6259" x2="298.2749154" y2="64.6259"/>
        <line x1="298.2749154" y1="64.6259" x2="298.2749154" y2="50.6248"/>
        <line x1="269.6999154" y1="31.575" x2="269.6999154" y2="36.2756"/>
        <line x1="269.6999154" y1="36.2756" x2="268.1759154" y2="36.2756"/>
        <line x1="268.1759154" y1="36.2756" x2="268.1759154" y2="33.045"/>
        <line x1="268.1759154" y1="33.045" x2="266.4509154" y2="33.045"/>
        <line x1="266.4509154" y1="33.045" x2="266.4509154" y2="32.125"/>
        <line x1="266.4509154" y1="32.125" x2="263.1499154" y2="32.125"/>
        <line x1="263.1499154" y1="32.125" x2="263.1499154" y2="33.045"/>
        <line x1="263.1499154" y1="33.045" x2="261.4249154" y2="33.045"/>
        <line x1="261.4249154" y1="33.045" x2="261.4249154" y2="36.2756"/>
        <line x1="261.4249154" y1="36.2756" x2="260.6009154" y2="36.2756"/>
        <line x1="260.6009154" y1="36.2756" x2="260.6009154" y2="39.0756"/>
        <line x1="260.6009154" y1="39.0756" x2="261.4249154" y2="39.0756"/>
        <line x1="261.4249154" y1="39.0756" x2="261.4249154" y2="45.3458"/>
        <line x1="261.4249154" y1="45.3458" x2="263.1499154" y2="45.3458"/>
        <line x1="263.1499154" y1="45.3458" x2="263.1499154" y2="46.3255"/>
        <line x1="263.1499154" y1="46.3255" x2="266.4509154" y2="46.3255"/>
        <line x1="266.4509154" y1="46.3255" x2="266.4509154" y2="45.3458"/>
        <line x1="266.4509154" y1="45.3458" x2="268.1759154" y2="45.3458"/>
        <line x1="268.1759154" y1="45.3458" x2="268.1759154" y2="40.8754"/>
        <line x1="268.1759154" y1="40.8754" x2="269.6999154" y2="40.8754"/>
        <line x1="269.6999154" y1="40.8754" x2="269.6999154" y2="45.5759"/>
        <line x1="269.6999154" y1="45.5759" x2="283.7009154" y2="45.5759"/>
        <line x1="283.7009154" y1="45.5759" x2="283.7009154" y2="40.8754"/>
        <line x1="283.7009154" y1="40.8754" x2="285.2249154" y2="40.8754"/>
        <line x1="285.2249154" y1="40.8754" x2="285.2249154" y2="45.3458"/>
        <line x1="285.2249154" y1="45.3458" x2="286.9499154" y2="45.3458"/>
        <line x1="286.9499154" y1="45.3458" x2="286.9499154" y2="46.3255"/>
        <line x1="286.9499154" y1="46.3255" x2="290.2509154" y2="46.3255"/>
        <line x1="290.2509154" y1="46.3255" x2="290.2509154" y2="45.3458"/>
        <line x1="290.2509154" y1="45.3458" x2="291.9759154" y2="45.3458"/>
        <line x1="291.9759154" y1="45.3458" x2="291.9759154" y2="39.0756"/>
        <line x1="291.9759154" y1="39.0756" x2="292.7999154" y2="39.0756"/>
        <line x1="292.7999154" y1="39.0756" x2="292.7999154" y2="36.2756"/>
        <line x1="292.7999154" y1="36.2756" x2="291.9759154" y2="36.2756"/>
        <line x1="291.9759154" y1="36.2756" x2="291.9759154" y2="33.045"/>
        <line x1="291.9759154" y1="33.045" x2="290.2509154" y2="33.045"/>
        <line x1="290.2509154" y1="33.045" x2="290.2509154" y2="32.125"/>
        <line x1="290.2509154" y1="32.125" x2="286.9499154" y2="32.125"/>
        <line x1="286.9499154" y1="32.125" x2="286.9499154" y2="33.045"/>
        <line x1="286.9499154" y1="33.045" x2="285.2249154" y2="33.045"/>
        <line x1="285.2249154" y1="33.045" x2="285.2249154" y2="36.2756"/>
        <line x1="285.2249154" y1="36.2756" x2="283.7009154" y2="36.2756"/>
        <line x1="283.7009154" y1="36.2756" x2="283.7009154" y2="31.575"/>
        <line x1="283.7009154" y1="31.575" x2="269.6999154" y2="31.575"/>
        <line x1="12.5250154" y1="31.575" x2="26.5258154" y2="31.575"/>
        <line x1="26.5258154" y1="31.575" x2="26.5258154" y2="45.5759"/>
        <line x1="26.5258154" y1="45.5759" x2="12.5250154" y2="45.5759"/>
        <line x1="12.5250154" y1="45.5759" x2="12.5250154" y2="31.575"/>
        <line x1="31.5750154" y1="31.575" x2="45.5759154" y2="31.575"/>
        <line x1="45.5759154" y1="31.575" x2="45.5759154" y2="45.5759"/>
        <line x1="45.5759154" y1="45.5759" x2="31.5750154" y2="45.5759"/>
        <line x1="31.5750154" y1="45.5759" x2="31.5750154" y2="31.575"/>
        <line x1="50.6248154" y1="31.575" x2="64.6259154" y2="31.575"/>
        <line x1="64.6259154" y1="31.575" x2="64.6259154" y2="45.5759"/>
        <line x1="64.6259154" y1="45.5759" x2="50.6248154" y2="45.5759"/>
        <line x1="50.6248154" y1="45.5759" x2="50.6248154" y2="31.575"/>
        <line x1="69.6748154" y1="31.575" x2="83.6759154" y2="31.575"/>
        <line x1="83.6759154" y1="31.575" x2="83.6759154" y2="45.5759"/>
        <line x1="83.6759154" y1="45.5759" x2="69.6748154" y2="45.5759"/>
        <line x1="69.6748154" y1="45.5759" x2="69.6748154" y2="31.575"/>
        <line x1="88.7248154" y1="31.575" x2="102.7259154" y2="31.575"/>
        <line x1="102.7259154" y1="31.575" x2="102.7259154" y2="45.5759"/>
        <line x1="102.7259154" y1="45.5759" x2="88.7248154" y2="45.5759"/>
        <line x1="88.7248154" y1="45.5759" x2="88.7248154" y2="31.575"/>
        <line x1="107.7749154" y1="31.575" x2="121.7749154" y2="31.575"/>
        <line x1="121.7749154" y1="31.575" x2="121.7749154" y2="45.5759"/>
        <line x1="121.7749154" y1="45.5759" x2="107.7749154" y2="45.5759"/>
        <line x1="107.7749154" y1="45.5759" x2="107.7749154" y2="31.575"/>
        <line x1="126.8249154" y1="31.575" x2="140.8259154" y2="31.575"/>
        <line x1="140.8259154" y1="31.575" x2="140.8259154" y2="45.5759"/>
        <line x1="140.8259154" y1="45.5759" x2="126.8249154" y2="45.5759"/>
        <line x1="126.8249154" y1="45.5759" x2="126.8249154" y2="31.575"/>
        <line x1="145.8749154" y1="31.575" x2="159.8759154" y2="31.575"/>
        <line x1="159.8759154" y1="31.575" x2="159.8759154" y2="45.5759"/>
        <line x1="159.8759154" y1="45.5759" x2="145.8749154" y2="45.5759"/>
        <line x1="145.8749154" y1="45.5759" x2="145.8749154" y2="31.575"/>
        <line x1="164.9249154" y1="31.575" x2="178.9259154" y2="31.575"/>
        <line x1="178.9259154" y1="31.575" x2="178.9259154" y2="45.5759"/>
        <line x1="178.9259154" y1="45.5759" x2="164.9249154" y2="45.5759"/>
        <line x1="164.9249154" y1="45.5759" x2="164.9249154" y2="31.575"/>
        <line x1="183.9749154" y1="31.575" x2="197.9759154" y2="31.575"/>
        <line x1="197.9759154" y1="31.575" x2="197.9759154" y2="45.5759"/>
        <line x1="197.9759154" y1="45.5759" x2="183.9749154" y2="45.5759"/>
        <line x1="183.9749154" y1="45.5759" x2="183.9749154" y2="31.575"/>
        <line x1="203.0249154" y1="31.575" x2="217.0259154" y2="31.575"/>
        <line x1="217.0259154" y1="31.575" x2="217.0259154" y2="45.5759"/>
        <line x1="217.0259154" y1="45.5759" x2="203.0249154" y2="45.5759"/>
        <line x1="203.0249154" y1="45.5759" x2="203.0249154" y2="31.575"/>
        <line x1="222.0749154" y1="31.575" x2="236.0759154" y2="31.575"/>
        <line x1="236.0759154" y1="31.575" x2="236.0759154" y2="45.5759"/>
        <line x1="236.0759154" y1="45.5759" x2="222.0749154" y2="45.5759"/>
        <line x1="222.0749154" y1="45.5759" x2="222.0749154" y2="31.575"/>
        <line x1="241.1249154" y1="31.575" x2="255.1259154" y2="31.575"/>
        <line x1="255.1259154" y1="31.575" x2="255.1259154" y2="45.5759"/>
        <line x1="255.1259154" y1="45.5759" x2="241.1249154" y2="45.5759"/>
        <line x1="241.1249154" y1="45.5759" x2="241.1249154" y2="31.575"/>
        <line x1="298.2749154" y1="31.575" x2="312.2759154" y2="31.575"/>
        <line x1="312.2759154" y1="31.575" x2="312.2759154" y2="45.5759"/>
        <line x1="312.2759154" y1="45.5759" x2="298.2749154" y2="45.5759"/>
        <line x1="298.2749154" y1="45.5759" x2="298.2749154" y2="31.575"/>
        <line x1="12.5250154" y1="12.525" x2="26.5258154" y2="12.525"/>
        <line x1="26.5258154" y1="12.525" x2="26.5258154" y2="26.526"/>
        <line x1="26.5258154" y1="26.526" x2="12.5250154" y2="26.526"/>
        <line x1="12.5250154" y1="26.526" x2="12.5250154" y2="12.525"/>
        <line x1="31.5750154" y1="12.525" x2="45.5759154" y2="12.525"/>
        <line x1="45.5759154" y1="12.525" x2="45.5759154" y2="26.526"/>
        <line x1="45.5759154" y1="26.526" x2="31.5750154" y2="26.526"/>
        <line x1="31.5750154" y1="26.526" x2="31.5750154" y2="12.525"/>
        <line x1="50.6248154" y1="12.525" x2="64.6259154" y2="12.525"/>
        <line x1="64.6259154" y1="12.525" x2="64.6259154" y2="26.526"/>
        <line x1="64.6259154" y1="26.526" x2="50.6248154" y2="26.526"/>
        <line x1="50.6248154" y1="26.526" x2="50.6248154" y2="12.525"/>
        <line x1="69.6748154" y1="12.525" x2="83.6759154" y2="12.525"/>
        <line x1="83.6759154" y1="12.525" x2="83.6759154" y2="26.526"/>
        <line x1="83.6759154" y1="26.526" x2="69.6748154" y2="26.526"/>
        <line x1="69.6748154" y1="26.526" x2="69.6748154" y2="12.525"/>
        <line x1="88.7248154" y1="12.525" x2="102.7259154" y2="12.525"/>
        <line x1="102.7259154" y1="12.525" x2="102.7259154" y2="26.526"/>
        <line x1="102.7259154" y1="26.526" x2="88.7248154" y2="26.526"/>
        <line x1="88.7248154" y1="26.526" x2="88.7248154" y2="12.525"/>
        <line x1="107.7749154" y1="12.525" x2="121.7749154" y2="12.525"/>
        <line x1="121.7749154" y1="12.525" x2="121.7749154" y2="26.526"/>
        <line x1="121.7749154" y1="26.526" x2="107.7749154" y2="26.526"/>
        <line x1="107.7749154" y1="26.526" x2="107.7749154" y2="12.525"/>
        <line x1="126.8249154" y1="12.525" x2="140.8259154" y2="12.525"/>
        <line x1="140.8259154" y1="12.525" x2="140.8259154" y2="26.526"/>
        <line x1="140.8259154" y1="26.526" x2="126.8249154" y2="26.526"/>
        <line x1="126.8249154" y1="26.526" x2="126.8249154" y2="12.525"/>
        <line x1="145.8749154" y1="12.525" x2="159.8759154" y2="12.525"/>
        <line x1="159.8759154" y1="12.525" x2="159.8759154" y2="26.526"/>
        <line x1="159.8759154" y1="26.526" x2="145.8749154" y2="26.526"/>
        <line x1="145.8749154" y1="26.526" x2="145.8749154" y2="12.525"/>
        <line x1="164.9249154" y1="12.525" x2="178.9259154" y2="12.525"/>
        <line x1="178.9259154" y1="12.525" x2="178.9259154" y2="26.526"/>
        <line x1="178.9259154" y1="26.526" x2="164.9249154" y2="26.526"/>
        <line x1="164.9249154" y1="26.526" x2="164.9249154" y2="12.525"/>
        <line x1="183.9749154" y1="12.525" x2="197.9759154" y2="12.525"/>
        <line x1="197.9759154" y1="12.525" x2="197.9759154" y2="26.526"/>
        <line x1="197.9759154" y1="26.526" x2="183.9749154" y2="26.526"/>
        <line x1="183.9749154" y1="26.526" x2="183.9749154" y2="12.525"/>
        <line x1="203.0249154" y1="12.525" x2="217.0259154" y2="12.525"/>
        <line x1="217.0259154" y1="12.525" x2="217.0259154" y2="26.526"/>
        <line x1="217.0259154" y1="26.526" x2="203.0249154" y2="26.526"/>
        <line x1="203.0249154" y1="26.526" x2="203.0249154" y2="12.525"/>
        <line x1="222.0749154" y1="12.525" x2="236.0759154" y2="12.525"/>
        <line x1="236.0759154" y1="12.525" x2="236.0759154" y2="26.526"/>
        <line x1="236.0759154" y1="26.526" x2="222.0749154" y2="26.526"/>
        <line x1="222.0749154" y1="26.526" x2="222.0749154" y2="12.525"/>
        <line x1="241.1249154" y1="12.525" x2="255.1259154" y2="12.525"/>
        <line x1="255.1259154" y1="12.525" x2="255.1259154" y2="26.526"/>
        <line x1="255.1259154" y1="26.526" x2="241.1249154" y2="26.526"/>
        <line x1="241.1249154" y1="26.526" x2="241.1249154" y2="12.525"/>
        <line x1="260.1749154" y1="12.525" x2="274.1759154" y2="12.525"/>
        <line x1="274.1759154" y1="12.525" x2="274.1759154" y2="26.526"/>
        <line x1="274.1759154" y1="26.526" x2="260.1749154" y2="26.526"/>
        <line x1="260.1749154" y1="26.526" x2="260.1749154" y2="12.525"/>
        <line x1="279.2249154" y1="12.525" x2="293.2259154" y2="12.525"/>
        <line x1="293.2259154" y1="12.525" x2="293.2259154" y2="26.526"/>
        <line x1="293.2259154" y1="26.526" x2="279.2249154" y2="26.526"/>
        <line x1="279.2249154" y1="26.526" x2="279.2249154" y2="12.525"/>
        <line x1="298.2749154" y1="12.525" x2="312.2759154" y2="12.525"/>
        <line x1="312.2759154" y1="12.525" x2="312.2759154" y2="26.526"/>
        <line x1="312.2759154" y1="26.526" x2="298.2749154" y2="26.526"/>
        <line x1="298.2749154" y1="26.526" x2="298.2749154" y2="12.525"/>
        <line x1="109.2389154" y1="2.861" x2="108.6119154" y2="3.179"/>
        <line x1="108.6119154" y1="3.179" x2="108.1139154" y2="3.678"/>
        <line x1="108.1139154" y1="3.678" x2="107.7929154" y2="4.305"/>
        <line x1="107.7929154" y1="4.305" x2="107.6839154" y2="5.001"/>
        <line x1="107.6839154" y1="5.001" x2="107.7929154" y2="5.695"/>
        <line x1="107.7929154" y1="5.695" x2="108.1139154" y2="6.322"/>
        <line x1="108.1139154" y1="6.322" x2="108.6119154" y2="6.82"/>
        <line x1="108.6119154" y1="6.82" x2="109.2389154" y2="7.14"/>
        <line x1="109.2389154" y1="7.14" x2="109.9329154" y2="7.25"/>
        <line x1="109.9329154" y1="7.25" x2="110.6289154" y2="7.14"/>
        <line x1="110.6289154" y1="7.14" x2="111.2559154" y2="6.82"/>
        <line x1="111.2559154" y1="6.82" x2="111.7539154" y2="6.322"/>
        <line x1="111.7539154" y1="6.322" x2="112.0729154" y2="5.695"/>
        <line x1="112.0729154" y1="5.695" x2="112.1839154" y2="5.001"/>
        <line x1="112.1839154" y1="5.001" x2="112.0729154" y2="4.305"/>
        <line x1="112.0729154" y1="4.305" x2="111.7539154" y2="3.678"/>
        <line x1="111.7539154" y1="3.678" x2="111.2559154" y2="3.179"/>
        <line x1="111.2559154" y1="3.179" x2="110.6289154" y2="2.861"/>
        <line x1="110.6289154" y1="2.861" x2="109.9329154" y2="2.75"/>
        <line x1="109.9329154" y1="2.75" x2="109.2389154" y2="2.861"/>
        <line x1="214.1719154" y1="2.861" x2="213.5449154" y2="3.179"/>
        <line x1="213.5449154" y1="3.179" x2="213.0479154" y2="3.678"/>
        <line x1="213.0479154" y1="3.678" x2="212.7279154" y2="4.305"/>
        <line x1="212.7279154" y1="4.305" x2="212.6179154" y2="5.001"/>
        <line x1="212.6179154" y1="5.001" x2="212.7279154" y2="5.695"/>
        <line x1="212.7279154" y1="5.695" x2="213.0479154" y2="6.322"/>
        <line x1="213.0479154" y1="6.322" x2="213.5449154" y2="6.82"/>
        <line x1="213.5449154" y1="6.82" x2="214.1719154" y2="7.14"/>
        <line x1="214.1719154" y1="7.14" x2="214.8679154" y2="7.25"/>
        <line x1="214.8679154" y1="7.25" x2="215.5629154" y2="7.14"/>
        <line x1="215.5629154" y1="7.14" x2="216.1899154" y2="6.82"/>
        <line x1="216.1899154" y1="6.82" x2="216.6869154" y2="6.322"/>
        <line x1="216.6869154" y1="6.322" x2="217.0079154" y2="5.695"/>
        <line x1="217.0079154" y1="5.695" x2="217.1169154" y2="5.001"/>
        <line x1="217.1169154" y1="5.001" x2="217.0079154" y2="4.305"/>
        <line x1="217.0079154" y1="4.305" x2="216.6869154" y2="3.678"/>
        <line x1="216.6869154" y1="3.678" x2="216.1899154" y2="3.179"/>
        <line x1="216.1899154" y1="3.179" x2="215.5629154" y2="2.861"/>
        <line x1="215.5629154" y1="2.861" x2="214.8679154" y2="2.75"/>
        <line x1="214.8679154" y1="2.75" x2="214.1719154" y2="2.861"/>
        <line x1="319.1049154" y1="2.861" x2="318.4789154" y2="3.179"/>
        <line x1="318.4789154" y1="3.179" x2="317.9809154" y2="3.678"/>
        <line x1="317.9809154" y1="3.678" x2="317.6609154" y2="4.305"/>
        <line x1="317.6609154" y1="4.305" x2="317.5509154" y2="5.001"/>
        <line x1="317.5509154" y1="5.001" x2="317.6609154" y2="5.695"/>
        <line x1="317.6609154" y1="5.695" x2="317.9809154" y2="6.322"/>
        <line x1="317.9809154" y1="6.322" x2="318.4789154" y2="6.82"/>
        <line x1="318.4789154" y1="6.82" x2="319.1049154" y2="7.14"/>
        <line x1="319.1049154" y1="7.14" x2="319.8009154" y2="7.25"/>
        <line x1="319.8009154" y1="7.25" x2="320.4959154" y2="7.14"/>
        <line x1="320.4959154" y1="7.14" x2="321.1229154" y2="6.82"/>
        <line x1="321.1229154" y1="6.82" x2="321.6219154" y2="6.322"/>
        <line x1="321.6219154" y1="6.322" x2="321.9399154" y2="5.695"/>
        <line x1="321.9399154" y1="5.695" x2="322.0519154" y2="5.001"/>
        <line x1="322.0519154" y1="5.001" x2="321.9399154" y2="4.305"/>
        <line x1="321.9399154" y1="4.305" x2="321.6219154" y2="3.678"/>
        <line x1="321.6219154" y1="3.678" x2="321.1229154" y2="3.179"/>
        <line x1="321.1229154" y1="3.179" x2="320.4959154" y2="2.861"/>
        <line x1="320.4959154" y1="2.861" x2="319.8009154" y2="2.75"/>
        <line x1="319.8009154" y1="2.75" x2="319.1049154" y2="2.861"/>
        <line x1="4.3050054" y1="2.861" x2="3.6779754" y2="3.179"/>
        <line x1="3.6779754" y1="3.179" x2="3.1791354" y2="3.678"/>
        <line x1="3.1791354" y1="3.678" x2="2.8608054" y2="4.305"/>
        <line x1="2.8608054" y1="4.305" x2="2.7505654" y2="5.001"/>
        <line x1="2.7505654" y1="5.001" x2="2.8608054" y2="5.695"/>
        <line x1="2.8608054" y1="5.695" x2="3.1791354" y2="6.322"/>
        <line x1="3.1791354" y1="6.322" x2="3.6779754" y2="6.82"/>
        <line x1="3.6779754" y1="6.82" x2="4.3050054" y2="7.14"/>
        <line x1="4.3050054" y1="7.14" x2="5.0008954" y2="7.25"/>
        <line x1="5.0008954" y1="7.25" x2="5.6954454" y2="7.14"/>
        <line x1="5.6954454" y1="7.14" x2="6.3224354" y2="6.82"/>
        <line x1="6.3224354" y1="6.82" x2="6.8199254" y2="6.322"/>
        <line x1="6.8199254" y1="6.322" x2="7.1396154" y2="5.695"/>
        <line x1="7.1396154" y1="5.695" x2="7.2498554" y2="5.001"/>
        <line x1="7.2498554" y1="5.001" x2="7.1396154" y2="4.305"/>
        <line x1="7.1396154" y1="4.305" x2="6.8199254" y2="3.678"/>
        <line x1="6.8199254" y1="3.678" x2="6.3224354" y2="3.179"/>
        <line x1="6.3224354" y1="3.179" x2="5.6954454" y2="2.861"/>
        <line x1="5.6954454" y1="2.861" x2="5.0008954" y2="2.75"/>
        <line x1="5.0008954" y1="2.75" x2="4.3050054" y2="2.861"/>
    </g>
</svg>
