  0
SECTION
  2
HEADER
  9
$ACADVER
  1
AC1003
  9
$EXTMIN
 10
4.35756625824729
 20
10.5429297111309
  9
$EXTMAX
 10
16.1586883252473
 20
6.21226120713087
  9
$INSUNITS
 70
1
  9
$INSBASE
 10
10.2581272917473
 20
8.37759545913089
999
Created with OMAX LAYOUT for Windows. (www.omax.com) 3/13/2025
  0
ENDSEC
  0
SECTION
  2
TABLES
  0
TABLE
  2
LAYER
 70
    10
  0
LAYER
  2
0
 70
     0
 62
     7
  6
CONTINUOUS
  0
LAYER
  2
1
 70
     0
 62
     7
  6
CONTINUOUS
  0
LAYER
  2
2
 70
     0
 62
     7
  6
CONTINUOUS
  0
LAYER
  2
3
 70
     0
 62
     7
  6
CONTINUOUS
  0
LAYER
  2
4
 70
     0
 62
     7
  6
CONTINUOUS
  0
LAYER
  2
5
 70
     0
 62
     7
  6
CONTINUOUS
  0
LAYER
  2
6
 70
     0
 62
     7
  6
CONTINUOUS
  0
LAYER
  2
7
 70
     0
 62
     7
  6
CONTINUOUS
  0
LAYER
  2
8
 70
     0
 62
     7
  6
CONTINUOUS
  0
LAYER
  2
9
 70
     0
 62
     7
  6
CONTINUOUS
  0
LAYER
  2
10
 70
     0
 62
     7
  6
CONTINUOUS
  0
LAYER
  2
11
 70
     0
 62
     7
  6
CONTINUOUS
  0
LAYER
  2
12
 70
     0
 62
     7
  6
CONTINUOUS
  0
LAYER
  2
13
 70
     0
 62
     7
  6
CONTINUOUS
  0
LAYER
  2
14
 70
     0
 62
     7
  6
CONTINUOUS
  0
LAYER
  2
15
 70
     0
 62
     7
  6
CONTINUOUS
  0
LAYER
  2
16
 70
     0
 62
     7
  6
CONTINUOUS
  0
LAYER
  2
17
 70
     0
 62
     7
  6
CONTINUOUS
  0
LAYER
  2
18
 70
     0
 62
     7
  6
CONTINUOUS
  0
LAYER
  2
19
 70
     0
 62
     7
  6
CONTINUOUS
  0
LAYER
  2
20
 70
     0
 62
     7
  6
CONTINUOUS
  0
LAYER
  2
21
 70
     0
 62
     7
  6
CONTINUOUS
  0
LAYER
  2
22
 70
     0
 62
     7
  6
CONTINUOUS
  0
LAYER
  2
23
 70
     0
 62
     7
  6
CONTINUOUS
  0
LAYER
  2
24
 70
     0
 62
     7
  6
CONTINUOUS
  0
LAYER
  2
25
 70
     0
 62
     7
  6
CONTINUOUS
  0
LAYER
  2
26
 70
     0
 62
     7
  6
CONTINUOUS
  0
LAYER
  2
27
 70
     0
 62
     7
  6
CONTINUOUS
  0
LAYER
  2
28
 70
     0
 62
     7
  6
CONTINUOUS
  0
LAYER
  2
29
 70
     0
 62
     7
  6
CONTINUOUS
  0
LAYER
  2
30
 70
     0
 62
     7
  6
CONTINUOUS
  0
LAYER
  2
31
 70
     0
 62
     7
  6
CONTINUOUS
  0
ENDTAB
  0
ENDSEC
  0
SECTION
  2
ENTITIES
  0
LINE
  8
0
  6
CONTINUOUS
 62
0
 10
4.95251806916821
 20
6.51953408599913
 30
0.0
 11
5.79011137201001
 21
6.51081020852606
 31
0.0
  0
LINE
  8
0
  6
CONTINUOUS
 62
0
 10
5.8900161941682
 20
6.51953408599913
 30
0.0
 11
6.72760949701
 21
6.51081020852606
 31
0.0
  0
LINE
  8
0
  6
CONTINUOUS
 62
0
 10
6.82751431916819
 20
6.51953408599913
 30
0.0
 11
11.3657054852473
 21
6.49768977013087
 31
0.0
  0
LINE
  8
0
  6
CONTINUOUS
 62
0
 10
11.5157054852473
 20
6.54768977013087
 30
0.0
 11
12.25883859201
 21
6.64860028727607
 31
0.0
  0
LINE
  8
0
  6
CONTINUOUS
 62
0
 10
12.3587434141682
 20
6.65732416474913
 30
0.0
 11
13.00883709201
 21
6.64860028727607
 31
0.0
  0
LINE
  8
0
  6
CONTINUOUS
 62
0
 10
13.1087419141682
 20
6.65732416474913
 30
0.0
 11
13.75883559201
 21
6.64860028727607
 31
0.0
  0
LINE
  8
0
  6
CONTINUOUS
 62
0
 10
13.8587404141682
 20
6.65732416474913
 30
0.0
 11
14.50883409201
 21
6.64860028727607
 31
0.0
  0
LINE
  8
0
  6
CONTINUOUS
 62
0
 10
14.6087389141682
 20
6.65732416474913
 30
0.0
 11
15.25883259201
 21
6.64860028727607
 31
0.0
  0
LINE
  8
0
  6
CONTINUOUS
 62
0
 10
15.3587374141682
 20
6.65732416474913
 30
0.0
 11
15.7518757608521
 21
6.64307604089359
 31
0.0
  0
LINE
  8
0
  6
CONTINUOUS
 62
0
 10
15.743151883379
 20
6.74298086305178
 30
0.0
 11
15.7574049284846
 21
7.319806178319
 31
0.0
  0
LINE
  8
0
  6
CONTINUOUS
 62
0
 10
15.6575001063264
 20
7.31108230084594
 30
0.0
 11
15.0074064284846
 21
7.319806178319
 31
0.0
  0
LINE
  8
0
  6
CONTINUOUS
 62
0
 10
14.9075016063264
 20
7.31108230084594
 30
0.0
 11
13.9761486484846
 21
7.319806178319
 31
0.0
  0
LINE
  8
0
  6
CONTINUOUS
 62
0
 10
13.8762438263264
 20
7.31108230084594
 30
0.0
 11
12.9448514984846
 21
7.319806178319
 31
0.0
  0
LINE
  8
0
  6
CONTINUOUS
 62
0
 10
12.8449466763264
 20
7.31108230084594
 30
0.0
 11
12.1948529984846
 21
7.319806178319
 31
0.0
  0
LINE
  8
0
  6
CONTINUOUS
 62
0
 10
12.0949481763264
 20
7.31108230084594
 30
0.0
 11
11.4448544984846
 21
7.319806178319
 31
0.0
  0
LINE
  8
0
  6
CONTINUOUS
 62
0
 10
11.3449496763264
 20
7.31108230084594
 30
0.0
 11
10.6948559984846
 21
7.319806178319
 31
0.0
  0
LINE
  8
0
  6
CONTINUOUS
 62
0
 10
10.5949511763264
 20
7.31108230084594
 30
0.0
 11
9.94485749848458
 21
7.319806178319
 31
0.0
  0
LINE
  8
0
  6
CONTINUOUS
 62
0
 10
9.84495267632639
 20
7.31108230084594
 30
0.0
 11
9.19485899848457
 21
7.319806178319
 31
0.0
  0
LINE
  8
0
  6
CONTINUOUS
 62
0
 10
9.09495417632638
 20
7.31108230084594
 30
0.0
 11
8.44486049848457
 21
7.319806178319
 31
0.0
  0
LINE
  8
0
  6
CONTINUOUS
 62
0
 10
8.34495567632638
 20
7.31108230084594
 30
0.0
 11
7.69486199848456
 21
7.319806178319
 31
0.0
  0
LINE
  8
0
  6
CONTINUOUS
 62
0
 10
7.59495717632637
 20
7.31108230084594
 30
0.0
 11
6.94486743548456
 21
7.319806178319
 31
0.0
  0
LINE
  8
0
  6
CONTINUOUS
 62
0
 10
6.84496261332637
 20
7.31108230084594
 30
0.0
 11
6.19486893548456
 21
7.319806178319
 31
0.0
  0
LINE
  8
0
  6
CONTINUOUS
 62
0
 10
6.09496411332637
 20
7.31108230084594
 30
0.0
 11
4.69833329324729
 21
7.33505000013087
 31
0.0
  0
LINE
  8
0
  6
CONTINUOUS
 62
0
 10
4.64833329324729
 20
7.48505000013087
 30
0.0
 11
4.75886540301001
 21
10.1229722755261
 31
0.0
  0
LINE
  8
0
  6
CONTINUOUS
 62
0
 10
4.8587702251682
 20
10.1316961529991
 30
0.0
 11
5.50886390301001
 21
10.1229722755261
 31
0.0
  0
LINE
  8
0
  6
CONTINUOUS
 62
0
 10
5.6087687251682
 20
10.1316961529991
 30
0.0
 11
6.25886240301002
 21
10.1229722755261
 31
0.0
  0
LINE
  8
0
  6
CONTINUOUS
 62
0
 10
6.35876722516821
 20
10.1316961529991
 30
0.0
 11
7.00884909201001
 21
10.1229722755261
 31
0.0
  0
LINE
  8
0
  6
CONTINUOUS
 62
0
 10
7.1087539141682
 20
10.1316961529991
 30
0.0
 11
7.75884759201002
 21
10.1229722755261
 31
0.0
  0
LINE
  8
0
  6
CONTINUOUS
 62
0
 10
7.85875241416821
 20
10.1316961529991
 30
0.0
 11
8.50884609200999
 21
10.1229722755261
 31
0.0
  0
LINE
  8
0
  6
CONTINUOUS
 62
0
 10
8.60875091416818
 20
10.1316961529991
 30
0.0
 11
9.25884459201
 21
10.1229722755261
 31
0.0
  0
LINE
  8
0
  6
CONTINUOUS
 62
0
 10
9.35874941416819
 20
10.1316961529991
 30
0.0
 11
10.00884309201
 21
10.1229722755261
 31
0.0
  0
LINE
  8
0
  6
CONTINUOUS
 62
0
 10
10.1087479141682
 20
10.1316961529991
 30
0.0
 11
10.75884159201
 21
10.1229722755261
 31
0.0
  0
LINE
  8
0
  6
CONTINUOUS
 62
0
 10
10.8587464141682
 20
10.1316961529991
 30
0.0
 11
11.50884009201
 21
10.1229722755261
 31
0.0
  0
LINE
  8
0
  6
CONTINUOUS
 62
0
 10
11.6087449141682
 20
10.1316961529991
 30
0.0
 11
12.25883859201
 21
10.1229722755261
 31
0.0
  0
LINE
  8
0
  6
CONTINUOUS
 62
0
 10
12.3587434141682
 20
10.1316961529991
 30
0.0
 11
13.00883709201
 21
10.1229722755261
 31
0.0
  0
LINE
  8
0
  6
CONTINUOUS
 62
0
 10
13.1087419141682
 20
10.1316961529991
 30
0.0
 11
13.75883559201
 21
10.1229722755261
 31
0.0
  0
LINE
  8
0
  6
CONTINUOUS
 62
0
 10
13.8587404141682
 20
10.1316961529991
 30
0.0
 11
14.50883409201
 21
10.1229722755261
 31
0.0
  0
LINE
  8
0
  6
CONTINUOUS
 62
0
 10
14.6087389141682
 20
10.1316961529991
 30
0.0
 11
15.25883259201
 21
10.1229722755261
 31
0.0
  0
LINE
  8
0
  6
CONTINUOUS
 62
0
 10
15.3587374141682
 20
10.1316961529991
 30
0.0
 11
15.7387899446425
 21
10.1415675743681
 31
0.0
  0
LINE
  8
0
  6
CONTINUOUS
 62
0
 10
15.7475138221156
 20
10.04166275221
 30
0.0
 11
15.7574049284846
 21
9.61573432923566
 31
0.0
  0
LINE
  8
0
  6
CONTINUOUS
 62
0
 10
15.6575001063264
 20
9.60701045176259
 30
0.0
 11
14.3067631952473
 21
9.60785284113086
 31
0.0
  0
LINE
  8
0
  6
CONTINUOUS
 62
0
 10
14.1567631952473
 20
9.55785284113086
 30
0.0
 11
13.5074094284846
 21
9.38605959173566
 31
0.0
  0
LINE
  8
0
  6
CONTINUOUS
 62
0
 10
13.4075046063264
 20
9.37733571426259
 30
0.0
 11
12.7574109284846
 21
9.38605959173566
 31
0.0
  0
LINE
  8
0
  6
CONTINUOUS
 62
0
 10
12.6575061063264
 20
9.37733571426259
 30
0.0
 11
12.0074124284846
 21
9.38605959173566
 31
0.0
  0
LINE
  8
0
  6
CONTINUOUS
 62
0
 10
11.9075076063264
 20
9.37733571426259
 30
0.0
 11
11.2574139284846
 21
9.38605959173566
 31
0.0
  0
LINE
  8
0
  6
CONTINUOUS
 62
0
 10
11.1575091063264
 20
9.37733571426259
 30
0.0
 11
10.5074154284846
 21
9.38605959173566
 31
0.0
  0
LINE
  8
0
  6
CONTINUOUS
 62
0
 10
10.4075106063264
 20
9.37733571426259
 30
0.0
 11
9.75741692848457
 21
9.38605959173566
 31
0.0
  0
LINE
  8
0
  6
CONTINUOUS
 62
0
 10
9.65751210632638
 20
9.37733571426259
 30
0.0
 11
9.00741842848457
 21
9.38605959173566
 31
0.0
  0
LINE
  8
0
  6
CONTINUOUS
 62
0
 10
8.90751360632638
 20
9.37733571426259
 30
0.0
 11
8.25741992848456
 21
9.38605959173566
 31
0.0
  0
LINE
  8
0
  6
CONTINUOUS
 62
0
 10
8.15751510632637
 20
9.37733571426259
 30
0.0
 11
7.50742142848456
 21
9.38605959173566
 31
0.0
  0
LINE
  8
0
  6
CONTINUOUS
 62
0
 10
7.40751660632637
 20
9.37733571426259
 30
0.0
 11
6.75742292848455
 21
9.38605959173566
 31
0.0
  0
LINE
  8
0
  6
CONTINUOUS
 62
0
 10
6.65751810632636
 20
9.37733571426259
 30
0.0
 11
6.00742442848458
 21
9.38605959173566
 31
0.0
  0
LINE
  8
0
  6
CONTINUOUS
 62
0
 10
5.90751960632639
 20
9.37733571426259
 30
0.0
 11
5.25742592848457
 21
9.38605959173566
 31
0.0
  0
LINE
  8
0
  6
CONTINUOUS
 62
0
 10
5.15752110632638
 20
9.37733571426259
 30
0.0
 11
4.81032033180916
 21
9.39156907436814
 31
0.0
  0
LINE
  8
0
  6
CONTINUOUS
 62
0
 10
4.81904420928222
 20
9.29166425220995
 30
0.0
 11
4.94636502801
 21
8.62297625977607
 31
0.0
  0
LINE
  8
0
  6
CONTINUOUS
 62
0
 10
5.04626985016819
 20
8.63170013724914
 30
0.0
 11
5.88386315301002
 21
8.62297625977607
 31
0.0
  0
LINE
  8
0
  6
CONTINUOUS
 62
0
 10
5.98376797516821
 20
8.63170013724914
 30
0.0
 11
6.63380653501001
 21
8.62297625977607
 31
0.0
  0
LINE
  8
0
  6
CONTINUOUS
 62
0
 10
6.7337113571682
 20
8.63170013724914
 30
0.0
 11
7.38380897200999
 21
8.62297625977607
 31
0.0
  0
LINE
  8
0
  6
CONTINUOUS
 62
0
 10
7.48371379416818
 20
8.63170013724914
 30
0.0
 11
8.13384684200999
 21
8.62297625977607
 31
0.0
  0
LINE
  8
0
  6
CONTINUOUS
 62
0
 10
8.23375166416818
 20
8.63170013724914
 30
0.0
 11
8.88384534201
 21
8.62297625977607
 31
0.0
  0
LINE
  8
0
  6
CONTINUOUS
 62
0
 10
8.98375016416819
 20
8.63170013724914
 30
0.0
 11
9.63384384201
 21
8.62297625977607
 31
0.0
  0
LINE
  8
0
  6
CONTINUOUS
 62
0
 10
9.73374866416819
 20
8.63170013724914
 30
0.0
 11
10.38384234201
 21
8.62297625977607
 31
0.0
  0
LINE
  8
0
  6
CONTINUOUS
 62
0
 10
10.4837471641682
 20
8.63170013724914
 30
0.0
 11
11.13384084201
 21
8.62297625977607
 31
0.0
  0
LINE
  8
0
  6
CONTINUOUS
 62
0
 10
11.2337456641682
 20
8.63170013724914
 30
0.0
 11
11.88383934201
 21
8.62297625977607
 31
0.0
  0
LINE
  8
0
  6
CONTINUOUS
 62
0
 10
11.9837441641682
 20
8.63170013724914
 30
0.0
 11
12.63383784201
 21
8.62297625977607
 31
0.0
  0
LINE
  8
0
  6
CONTINUOUS
 62
0
 10
12.7337426641682
 20
8.63170013724914
 30
0.0
 11
13.38383634201
 21
8.62297625977607
 31
0.0
  0
LINE
  8
0
  6
CONTINUOUS
 62
0
 10
13.4837411641682
 20
8.63170013724914
 30
0.0
 11
14.13383484201
 21
8.62297625977607
 31
0.0
  0
LINE
  8
0
  6
CONTINUOUS
 62
0
 10
14.2337396641682
 20
8.63170013724914
 30
0.0
 11
15.07135265201
 21
8.62297625977607
 31
0.0
  0
LINE
  8
0
  6
CONTINUOUS
 62
0
 10
15.1712574741682
 20
8.63170013724914
 30
0.0
 11
15.7387899446425
 21
8.64157057436815
 31
0.0
  0
LINE
  8
0
  6
CONTINUOUS
 62
0
 10
15.7475138221156
 20
8.54166575220996
 30
0.0
 11
15.7574049284846
 21
8.11573995390233
 31
0.0
  0
LINE
  8
0
  6
CONTINUOUS
 62
0
 10
15.6575001063264
 20
8.10701607642927
 30
0.0
 11
14.2129444852473
 21
8.10786765213086
 31
0.0
  0
LINE
  8
0
  6
CONTINUOUS
 62
0
 10
14.0629444852473
 20
8.05786765213086
 30
0.0
 11
13.3198507484846
 21
8.02386940273566
 31
0.0
  0
LINE
  8
0
  6
CONTINUOUS
 62
0
 10
13.2199459263264
 20
8.0151455252626
 30
0.0
 11
12.5698522484846
 21
8.02386940273566
 31
0.0
  0
LINE
  8
0
  6
CONTINUOUS
 62
0
 10
12.4699474263264
 20
8.0151455252626
 30
0.0
 11
11.8198537484846
 21
8.02386940273566
 31
0.0
  0
LINE
  8
0
  6
CONTINUOUS
 62
0
 10
11.7199489263264
 20
8.0151455252626
 30
0.0
 11
11.0698552484846
 21
8.02386940273566
 31
0.0
  0
LINE
  8
0
  6
CONTINUOUS
 62
0
 10
10.9699504263264
 20
8.0151455252626
 30
0.0
 11
10.3198567484846
 21
8.02386940273566
 31
0.0
  0
LINE
  8
0
  6
CONTINUOUS
 62
0
 10
10.2199519263264
 20
8.0151455252626
 30
0.0
 11
9.56985824848457
 21
8.02386940273566
 31
0.0
  0
LINE
  8
0
  6
CONTINUOUS
 62
0
 10
9.46995342632638
 20
8.0151455252626
 30
0.0
 11
8.81985974848457
 21
8.02386940273566
 31
0.0
  0
LINE
  8
0
  6
CONTINUOUS
 62
0
 10
8.71995492632638
 20
8.0151455252626
 30
0.0
 11
8.06986124848457
 21
8.02386940273566
 31
0.0
  0
LINE
  8
0
  6
CONTINUOUS
 62
0
 10
7.96995642632638
 20
8.0151455252626
 30
0.0
 11
7.31986274848456
 21
8.02386940273566
 31
0.0
  0
LINE
  8
0
  6
CONTINUOUS
 62
0
 10
7.21995792632637
 20
8.0151455252626
 30
0.0
 11
6.56986818548456
 21
8.02386940273566
 31
0.0
  0
LINE
  8
0
  6
CONTINUOUS
 62
0
 10
6.46996336332637
 20
8.0151455252626
 30
0.0
 11
5.81986968548456
 21
8.02386940273566
 31
0.0
  0
LINE
  8
0
  6
CONTINUOUS
 62
0
 10
5.71996486332637
 20
8.0151455252626
 30
0.0
 11
4.78861977948456
 21
8.02386940273566
 31
0.0
  0
LINE
  8
0
  6
CONTINUOUS
 62
0
 10
5.11057171824191
 20
7.34293964813087
 30
0.0
 11
5.08057171824191
 21
7.34293964813087
 31
0.0
  0
LINE
  8
0
  6
CONTINUOUS
 62
0
 10
5.1720546758048
 20
7.19171634113087
 30
0.0
 11
5.2020546758048
 21
7.19171634113087
 31
0.0
  0
LINE
  8
0
  6
CONTINUOUS
 62
0
 10
9.3168235831924
 20
6.59293327413087
 30
0.0
 11
9.2868235831924
 21
6.59293327413087
 31
0.0
  0
LINE
  8
0
  6
CONTINUOUS
 62
0
 10
9.46215416060057
 20
6.44177295913086
 30
0.0
 11
9.49215416060057
 21
6.44177295913086
 31
0.0
  0
LINE
  8
0
  6
CONTINUOUS
 62
0
 10
7.51295798524729
 20
6.40976704009461
 30
0.0
 11
7.51295798524729
 21
6.37976704009461
 31
0.0
  0
LINE
  8
0
  6
CONTINUOUS
 62
0
 10
11.3157054852473
 20
6.36322641958475
 30
0.0
 11
11.3157054852473
 21
6.39322641958475
 31
0.0
  0
LINE
  8
0
  6
CONTINUOUS
 62
0
 10
14.5763318538164
 20
7.94171484113086
 30
0.0
 11
14.6063318538164
 21
7.94171484113086
 31
0.0
  0
LINE
  8
0
  6
CONTINUOUS
 62
0
 10
14.7783431514893
 20
8.09293814813087
 30
0.0
 11
14.7483431514893
 21
8.09293814813087
 31
0.0
  0
LINE
  8
0
  6
CONTINUOUS
 62
0
 10
14.6190734314218
 20
9.59293121113086
 30
0.0
 11
14.5890734314218
 21
9.59293121113086
 31
0.0
  0
LINE
  8
0
  6
CONTINUOUS
 62
0
 10
14.8630173499379
 20
9.44171184113086
 30
0.0
 11
14.8930173499378
 21
9.44171184113086
 31
0.0
  0
LINE
  8
3
  6
CONTINUOUS
 62
3
 10
5.0024704802473
 20
6.51735311663086
 30
0.0
 11
5.0024704802473
 21
6.79293327413087
 31
0.0
  0
LINE
  8
3
  6
CONTINUOUS
 62
3
 10
5.0024704802473
 20
6.79293327413087
 30
0.0
 11
4.4513180392473
 21
6.79293327413087
 31
0.0
  0
LINE
  8
3
  6
CONTINUOUS
 62
3
 10
4.4513180392473
 20
6.79293327413087
 30
0.0
 11
4.4513180392473
 21
6.24177295913086
 31
0.0
  0
LINE
  8
3
  6
CONTINUOUS
 62
3
 10
4.4513180392473
 20
6.24177295913086
 30
0.0
 11
5.0024704802473
 21
6.24177295913086
 31
0.0
  0
LINE
  8
3
  6
CONTINUOUS
 62
3
 10
5.0024704802473
 20
6.24177295913086
 30
0.0
 11
5.0024704802473
 21
6.51735311663086
 31
0.0
  0
LINE
  8
3
  6
CONTINUOUS
 62
3
 10
5.93996860524729
 20
6.51735311663086
 30
0.0
 11
5.93996860524729
 21
6.79293327413087
 31
0.0
  0
LINE
  8
3
  6
CONTINUOUS
 62
3
 10
5.93996860524729
 20
6.79293327413087
 30
0.0
 11
5.38876104624728
 21
6.79293327413087
 31
0.0
  0
LINE
  8
3
  6
CONTINUOUS
 62
3
 10
5.38876104624728
 20
6.79293327413087
 30
0.0
 11
5.38876104624728
 21
6.24177295913086
 31
0.0
  0
LINE
  8
3
  6
CONTINUOUS
 62
3
 10
5.38876104624728
 20
6.24177295913086
 30
0.0
 11
5.93996860524729
 21
6.24177295913086
 31
0.0
  0
LINE
  8
3
  6
CONTINUOUS
 62
3
 10
5.93996860524729
 20
6.24177295913086
 30
0.0
 11
5.93996860524729
 21
6.51735311663086
 31
0.0
  0
LINE
  8
3
  6
CONTINUOUS
 62
3
 10
6.87746673024728
 20
6.51735311663086
 30
0.0
 11
6.87746673024728
 21
6.79293327413087
 31
0.0
  0
LINE
  8
3
  6
CONTINUOUS
 62
3
 10
6.87746673024728
 20
6.79293327413087
 30
0.0
 11
6.32631822624728
 21
6.79293327413087
 31
0.0
  0
LINE
  8
3
  6
CONTINUOUS
 62
3
 10
6.32631822624728
 20
6.79293327413087
 30
0.0
 11
6.32631822624728
 21
6.24177295913086
 31
0.0
  0
LINE
  8
3
  6
CONTINUOUS
 62
3
 10
6.32631822624728
 20
6.24177295913086
 30
0.0
 11
6.87746673024728
 21
6.24177295913086
 31
0.0
  0
LINE
  8
3
  6
CONTINUOUS
 62
3
 10
6.87746673024728
 20
6.24177295913086
 30
0.0
 11
6.87746673024728
 21
6.51735311663086
 31
0.0
  0
LINE
  8
3
  6
CONTINUOUS
 62
3
 10
11.5157054852473
 20
6.49768977013087
 30
0.0
 11
11.5481857352473
 21
6.49768977013087
 31
0.0
  0
LINE
  8
3
  6
CONTINUOUS
 62
3
 10
11.5481857352473
 20
6.49768977013087
 30
0.0
 11
11.5481857352473
 21
6.60787458913087
 31
0.0
  0
LINE
  8
3
  6
CONTINUOUS
 62
3
 10
11.5481857352473
 20
6.60787458913087
 30
0.0
 11
11.5157054852473
 21
6.60787458913087
 31
0.0
  0
LINE
  8
3
  6
CONTINUOUS
 62
3
 10
11.5157054852473
 20
6.60787458913087
 30
0.0
 11
11.5157054852473
 21
6.73509874413087
 31
0.0
  0
LINE
  8
3
  6
CONTINUOUS
 62
3
 10
11.5157054852473
 20
6.73509874413087
 30
0.0
 11
11.4478316052473
 21
6.73509874413087
 31
0.0
  0
LINE
  8
3
  6
CONTINUOUS
 62
3
 10
11.4478316052473
 20
6.73509874413087
 30
0.0
 11
11.4478316052473
 21
6.77128764813087
 31
0.0
  0
LINE
  8
3
  6
CONTINUOUS
 62
3
 10
11.4478316052473
 20
6.77128764813087
 30
0.0
 11
11.3178712352473
 21
6.77128764813087
 31
0.0
  0
LINE
  8
3
  6
CONTINUOUS
 62
3
 10
11.3178712352473
 20
6.77128764813087
 30
0.0
 11
11.3178712352473
 21
6.73509874413087
 31
0.0
  0
LINE
  8
3
  6
CONTINUOUS
 62
3
 10
11.3178712352473
 20
6.73509874413087
 30
0.0
 11
11.2499579852473
 21
6.73509874413087
 31
0.0
  0
LINE
  8
3
  6
CONTINUOUS
 62
3
 10
11.2499579852473
 20
6.73509874413087
 30
0.0
 11
11.2499579852473
 21
6.60787458913087
 31
0.0
  0
LINE
  8
3
  6
CONTINUOUS
 62
3
 10
11.2499579852473
 20
6.60787458913087
 30
0.0
 11
9.68996110524728
 21
6.60787458913087
 31
0.0
  0
LINE
  8
3
  6
CONTINUOUS
 62
3
 10
9.68996110524728
 20
6.60787458913087
 30
0.0
 11
9.68996110524728
 21
6.79293327413087
 31
0.0
  0
LINE
  8
3
  6
CONTINUOUS
 62
3
 10
9.68996110524728
 20
6.79293327413087
 30
0.0
 11
9.3213235831924
 21
6.79293327413087
 31
0.0
  0
LINE
  8
3
  6
CONTINUOUS
 62
3
 10
9.13874173524729
 20
6.79293327413087
 30
0.0
 11
9.13874173524729
 21
6.60787458913087
 31
0.0
  0
LINE
  8
3
  6
CONTINUOUS
 62
3
 10
9.13874173524729
 20
6.60787458913087
 30
0.0
 11
7.5787054852473
 21
6.60787458913087
 31
0.0
  0
LINE
  8
3
  6
CONTINUOUS
 62
3
 10
7.5787054852473
 20
6.60787458913087
 30
0.0
 11
7.5787054852473
 21
6.73509874413087
 31
0.0
  0
LINE
  8
3
  6
CONTINUOUS
 62
3
 10
7.5787054852473
 20
6.73509874413087
 30
0.0
 11
7.51083160524729
 21
6.73509874413087
 31
0.0
  0
LINE
  8
3
  6
CONTINUOUS
 62
3
 10
7.51083160524729
 20
6.73509874413087
 30
0.0
 11
7.51083160524729
 21
6.77128764813087
 31
0.0
  0
LINE
  8
3
  6
CONTINUOUS
 62
3
 10
7.51083160524729
 20
6.77128764813087
 30
0.0
 11
7.3808712352473
 21
6.77128764813087
 31
0.0
  0
LINE
  8
3
  6
CONTINUOUS
 62
3
 10
7.3808712352473
 20
6.77128764813087
 30
0.0
 11
7.3808712352473
 21
6.73509874413087
 31
0.0
  0
LINE
  8
3
  6
CONTINUOUS
 62
3
 10
7.3808712352473
 20
6.73509874413087
 30
0.0
 11
7.31295798524729
 21
6.73509874413087
 31
0.0
  0
LINE
  8
3
  6
CONTINUOUS
 62
3
 10
7.31295798524729
 20
6.73509874413087
 30
0.0
 11
7.31295798524729
 21
6.60787458913087
 31
0.0
  0
LINE
  8
3
  6
CONTINUOUS
 62
3
 10
7.31295798524729
 20
6.60787458913087
 30
0.0
 11
7.2805171052473
 21
6.60787458913087
 31
0.0
  0
LINE
  8
3
  6
CONTINUOUS
 62
3
 10
7.2805171052473
 20
6.60787458913087
 30
0.0
 11
7.2805171052473
 21
6.49768977013087
 31
0.0
  0
LINE
  8
3
  6
CONTINUOUS
 62
3
 10
7.2805171052473
 20
6.49768977013087
 30
0.0
 11
7.31295798524729
 21
6.49768977013087
 31
0.0
  0
LINE
  8
3
  6
CONTINUOUS
 62
3
 10
7.31295798524729
 20
6.49768977013087
 30
0.0
 11
7.31295798524729
 21
6.41426704009453
 31
0.0
  0
LINE
  8
3
  6
CONTINUOUS
 62
3
 10
7.31295798524729
 20
6.25083593313087
 30
0.0
 11
7.3808712352473
 21
6.25083593313087
 31
0.0
  0
LINE
  8
3
  6
CONTINUOUS
 62
3
 10
7.3808712352473
 20
6.25083593313087
 30
0.0
 11
7.3808712352473
 21
6.21226120713087
 31
0.0
  0
LINE
  8
3
  6
CONTINUOUS
 62
3
 10
7.3808712352473
 20
6.21226120713087
 30
0.0
 11
7.51083160524729
 21
6.21226120713087
 31
0.0
  0
LINE
  8
3
  6
CONTINUOUS
 62
3
 10
7.51083160524729
 20
6.21226120713087
 30
0.0
 11
7.51083160524729
 21
6.25083593313087
 31
0.0
  0
LINE
  8
3
  6
CONTINUOUS
 62
3
 10
7.51083160524729
 20
6.25083593313087
 30
0.0
 11
7.5787054852473
 21
6.25083593313087
 31
0.0
  0
LINE
  8
3
  6
CONTINUOUS
 62
3
 10
7.5787054852473
 20
6.25083593313087
 30
0.0
 11
7.5787054852473
 21
6.42683164413086
 31
0.0
  0
LINE
  8
3
  6
CONTINUOUS
 62
3
 10
7.5787054852473
 20
6.42683164413086
 30
0.0
 11
9.13874173524729
 21
6.42683164413086
 31
0.0
  0
LINE
  8
3
  6
CONTINUOUS
 62
3
 10
9.13874173524729
 20
6.42683164413086
 30
0.0
 11
9.13874173524729
 21
6.24177295913086
 31
0.0
  0
LINE
  8
3
  6
CONTINUOUS
 62
3
 10
9.13874173524729
 20
6.24177295913086
 30
0.0
 11
9.45765416060057
 21
6.24177295913086
 31
0.0
  0
LINE
  8
3
  6
CONTINUOUS
 62
3
 10
9.68996110524728
 20
6.24177295913086
 30
0.0
 11
9.68996110524728
 21
6.42683164413086
 31
0.0
  0
LINE
  8
3
  6
CONTINUOUS
 62
3
 10
9.68996110524728
 20
6.42683164413086
 30
0.0
 11
11.2499579852473
 21
6.42683164413086
 31
0.0
  0
LINE
  8
3
  6
CONTINUOUS
 62
3
 10
11.2499579852473
 20
6.42683164413086
 30
0.0
 11
11.2499579852473
 21
6.25083593313087
 31
0.0
  0
LINE
  8
3
  6
CONTINUOUS
 62
3
 10
11.2499579852473
 20
6.25083593313087
 30
0.0
 11
11.3178712352473
 21
6.25083593313087
 31
0.0
  0
LINE
  8
3
  6
CONTINUOUS
 62
3
 10
11.3178712352473
 20
6.25083593313087
 30
0.0
 11
11.3178712352473
 21
6.21226120713087
 31
0.0
  0
LINE
  8
3
  6
CONTINUOUS
 62
3
 10
11.3178712352473
 20
6.21226120713087
 30
0.0
 11
11.4478316052473
 21
6.21226120713087
 31
0.0
  0
LINE
  8
3
  6
CONTINUOUS
 62
3
 10
11.4478316052473
 20
6.21226120713087
 30
0.0
 11
11.4478316052473
 21
6.25083593313087
 31
0.0
  0
LINE
  8
3
  6
CONTINUOUS
 62
3
 10
11.4478316052473
 20
6.25083593313087
 30
0.0
 11
11.5157054852473
 21
6.25083593313087
 31
0.0
  0
LINE
  8
3
  6
CONTINUOUS
 62
3
 10
11.5157054852473
 20
6.25083593313087
 30
0.0
 11
11.5157054852473
 21
6.35872641958429
 31
0.0
  0
LINE
  8
3
  6
CONTINUOUS
 62
3
 10
12.4086958252473
 20
6.65514319538087
 30
0.0
 11
12.4086958252473
 21
6.79293327413087
 31
0.0
  0
LINE
  8
3
  6
CONTINUOUS
 62
3
 10
12.4086958252473
 20
6.79293327413087
 30
0.0
 11
11.8575551952473
 21
6.79293327413087
 31
0.0
  0
LINE
  8
3
  6
CONTINUOUS
 62
3
 10
11.8575551952473
 20
6.79293327413087
 30
0.0
 11
11.8575551952473
 21
6.24177295913086
 31
0.0
  0
LINE
  8
3
  6
CONTINUOUS
 62
3
 10
11.8575551952473
 20
6.24177295913086
 30
0.0
 11
12.4086958252473
 21
6.24177295913086
 31
0.0
  0
LINE
  8
3
  6
CONTINUOUS
 62
3
 10
12.4086958252473
 20
6.24177295913086
 30
0.0
 11
12.4086958252473
 21
6.65514319538087
 31
0.0
  0
LINE
  8
3
  6
CONTINUOUS
 62
3
 10
13.1586943252473
 20
6.65514319538087
 30
0.0
 11
13.1586943252473
 21
6.79293327413087
 31
0.0
  0
LINE
  8
3
  6
CONTINUOUS
 62
3
 10
13.1586943252473
 20
6.79293327413087
 30
0.0
 11
12.6075536952473
 21
6.79293327413087
 31
0.0
  0
LINE
  8
3
  6
CONTINUOUS
 62
3
 10
12.6075536952473
 20
6.79293327413087
 30
0.0
 11
12.6075536952473
 21
6.24177295913086
 31
0.0
  0
LINE
  8
3
  6
CONTINUOUS
 62
3
 10
12.6075536952473
 20
6.24177295913086
 30
0.0
 11
13.1586943252473
 21
6.24177295913086
 31
0.0
  0
LINE
  8
3
  6
CONTINUOUS
 62
3
 10
13.1586943252473
 20
6.24177295913086
 30
0.0
 11
13.1586943252473
 21
6.65514319538087
 31
0.0
  0
LINE
  8
3
  6
CONTINUOUS
 62
3
 10
13.9086928252473
 20
6.65514319538087
 30
0.0
 11
13.9086928252473
 21
6.79293327413087
 31
0.0
  0
LINE
  8
3
  6
CONTINUOUS
 62
3
 10
13.9086928252473
 20
6.79293327413087
 30
0.0
 11
13.3575521952473
 21
6.79293327413087
 31
0.0
  0
LINE
  8
3
  6
CONTINUOUS
 62
3
 10
13.3575521952473
 20
6.79293327413087
 30
0.0
 11
13.3575521952473
 21
6.24177295913086
 31
0.0
  0
LINE
  8
3
  6
CONTINUOUS
 62
3
 10
13.3575521952473
 20
6.24177295913086
 30
0.0
 11
13.9086928252473
 21
6.24177295913086
 31
0.0
  0
LINE
  8
3
  6
CONTINUOUS
 62
3
 10
13.9086928252473
 20
6.24177295913086
 30
0.0
 11
13.9086928252473
 21
6.65514319538087
 31
0.0
  0
LINE
  8
3
  6
CONTINUOUS
 62
3
 10
14.6586913252473
 20
6.65514319538087
 30
0.0
 11
14.6586913252473
 21
6.79293327413087
 31
0.0
  0
LINE
  8
3
  6
CONTINUOUS
 62
3
 10
14.6586913252473
 20
6.79293327413087
 30
0.0
 11
14.1075506952473
 21
6.79293327413087
 31
0.0
  0
LINE
  8
3
  6
CONTINUOUS
 62
3
 10
14.1075506952473
 20
6.79293327413087
 30
0.0
 11
14.1075506952473
 21
6.24177295913086
 31
0.0
  0
LINE
  8
3
  6
CONTINUOUS
 62
3
 10
14.1075506952473
 20
6.24177295913086
 30
0.0
 11
14.6586913252473
 21
6.24177295913086
 31
0.0
  0
LINE
  8
3
  6
CONTINUOUS
 62
3
 10
14.6586913252473
 20
6.24177295913086
 30
0.0
 11
14.6586913252473
 21
6.65514319538087
 31
0.0
  0
LINE
  8
3
  6
CONTINUOUS
 62
3
 10
15.4086898252473
 20
6.65514319538087
 30
0.0
 11
15.4086898252473
 21
6.79293327413087
 31
0.0
  0
LINE
  8
3
  6
CONTINUOUS
 62
3
 10
15.4086898252473
 20
6.79293327413087
 30
0.0
 11
14.8575491952473
 21
6.79293327413087
 31
0.0
  0
LINE
  8
3
  6
CONTINUOUS
 62
3
 10
14.8575491952473
 20
6.79293327413087
 30
0.0
 11
14.8575491952473
 21
6.24177295913086
 31
0.0
  0
LINE
  8
3
  6
CONTINUOUS
 62
3
 10
14.8575491952473
 20
6.24177295913086
 30
0.0
 11
15.4086898252473
 21
6.24177295913086
 31
0.0
  0
LINE
  8
3
  6
CONTINUOUS
 62
3
 10
15.4086898252473
 20
6.24177295913086
 30
0.0
 11
15.4086898252473
 21
6.65514319538087
 31
0.0
  0
LINE
  8
3
  6
CONTINUOUS
 62
3
 10
15.7453328527473
 20
6.79293327413087
 30
0.0
 11
15.6075476952473
 21
6.79293327413087
 31
0.0
  0
LINE
  8
3
  6
CONTINUOUS
 62
3
 10
15.6075476952473
 20
6.79293327413087
 30
0.0
 11
15.6075476952473
 21
6.24177295913086
 31
0.0
  0
LINE
  8
3
  6
CONTINUOUS
 62
3
 10
15.6075476952473
 20
6.24177295913086
 30
0.0
 11
16.1586883252473
 21
6.24177295913086
 31
0.0
  0
LINE
  8
3
  6
CONTINUOUS
 62
3
 10
16.1586883252473
 20
6.24177295913086
 30
0.0
 11
16.1586883252473
 21
6.79293327413087
 31
0.0
  0
LINE
  8
3
  6
CONTINUOUS
 62
3
 10
16.1586883252473
 20
6.79293327413087
 30
0.0
 11
15.7453328527473
 21
6.79293327413087
 31
0.0
  0
LINE
  8
3
  6
CONTINUOUS
 62
3
 10
15.6075476952473
 20
7.3132632702142
 30
0.0
 11
15.6075476952473
 21
6.99171634113087
 31
0.0
  0
LINE
  8
3
  6
CONTINUOUS
 62
3
 10
15.6075476952473
 20
6.99171634113087
 30
0.0
 11
16.1586883252473
 21
6.99171634113087
 31
0.0
  0
LINE
  8
3
  6
CONTINUOUS
 62
3
 10
16.1586883252473
 20
6.99171634113087
 30
0.0
 11
16.1586883252473
 21
7.54293964813087
 31
0.0
  0
LINE
  8
3
  6
CONTINUOUS
 62
3
 10
16.1586883252473
 20
7.54293964813087
 30
0.0
 11
15.6075476952473
 21
7.54293964813087
 31
0.0
  0
LINE
  8
3
  6
CONTINUOUS
 62
3
 10
15.6075476952473
 20
7.54293964813087
 30
0.0
 11
15.6075476952473
 21
7.3132632702142
 31
0.0
  0
LINE
  8
3
  6
CONTINUOUS
 62
3
 10
14.8575491952473
 20
7.3132632702142
 30
0.0
 11
14.8575491952473
 21
6.99171634113087
 31
0.0
  0
LINE
  8
3
  6
CONTINUOUS
 62
3
 10
14.8575491952473
 20
6.99171634113087
 30
0.0
 11
15.4086898252473
 21
6.99171634113087
 31
0.0
  0
LINE
  8
3
  6
CONTINUOUS
 62
3
 10
15.4086898252473
 20
6.99171634113087
 30
0.0
 11
15.4086898252473
 21
7.54293964813087
 31
0.0
  0
LINE
  8
3
  6
CONTINUOUS
 62
3
 10
15.4086898252473
 20
7.54293964813087
 30
0.0
 11
14.8575491952473
 21
7.54293964813087
 31
0.0
  0
LINE
  8
3
  6
CONTINUOUS
 62
3
 10
14.8575491952473
 20
7.54293964813087
 30
0.0
 11
14.8575491952473
 21
7.3132632702142
 31
0.0
  0
LINE
  8
3
  6
CONTINUOUS
 62
3
 10
13.8262914152473
 20
7.3132632702142
 30
0.0
 11
13.8262914152473
 21
6.99171634113087
 31
0.0
  0
LINE
  8
3
  6
CONTINUOUS
 62
3
 10
13.8262914152473
 20
6.99171634113087
 30
0.0
 11
14.3774714152473
 21
6.99171634113087
 31
0.0
  0
LINE
  8
3
  6
CONTINUOUS
 62
3
 10
14.3774714152473
 20
6.99171634113087
 30
0.0
 11
14.3774714152473
 21
7.54293964813087
 31
0.0
  0
LINE
  8
3
  6
CONTINUOUS
 62
3
 10
14.3774714152473
 20
7.54293964813087
 30
0.0
 11
13.8262914152473
 21
7.54293964813087
 31
0.0
  0
LINE
  8
3
  6
CONTINUOUS
 62
3
 10
13.8262914152473
 20
7.54293964813087
 30
0.0
 11
13.8262914152473
 21
7.3132632702142
 31
0.0
  0
LINE
  8
3
  6
CONTINUOUS
 62
3
 10
12.7949942652473
 20
7.3132632702142
 30
0.0
 11
12.7949942652473
 21
6.99171634113087
 31
0.0
  0
LINE
  8
3
  6
CONTINUOUS
 62
3
 10
12.7949942652473
 20
6.99171634113087
 30
0.0
 11
13.3462136352473
 21
6.99171634113087
 31
0.0
  0
LINE
  8
3
  6
CONTINUOUS
 62
3
 10
13.3462136352473
 20
6.99171634113087
 30
0.0
 11
13.3462136352473
 21
7.54293964813087
 31
0.0
  0
LINE
  8
3
  6
CONTINUOUS
 62
3
 10
13.3462136352473
 20
7.54293964813087
 30
0.0
 11
12.7949942652473
 21
7.54293964813087
 31
0.0
  0
LINE
  8
3
  6
CONTINUOUS
 62
3
 10
12.7949942652473
 20
7.54293964813087
 30
0.0
 11
12.7949942652473
 21
7.3132632702142
 31
0.0
  0
LINE
  8
3
  6
CONTINUOUS
 62
3
 10
12.0449957652473
 20
7.3132632702142
 30
0.0
 11
12.0449957652473
 21
6.99171634113087
 31
0.0
  0
LINE
  8
3
  6
CONTINUOUS
 62
3
 10
12.0449957652473
 20
6.99171634113087
 30
0.0
 11
12.5962151352473
 21
6.99171634113087
 31
0.0
  0
LINE
  8
3
  6
CONTINUOUS
 62
3
 10
12.5962151352473
 20
6.99171634113087
 30
0.0
 11
12.5962151352473
 21
7.54293964813087
 31
0.0
  0
LINE
  8
3
  6
CONTINUOUS
 62
3
 10
12.5962151352473
 20
7.54293964813087
 30
0.0
 11
12.0449957652473
 21
7.54293964813087
 31
0.0
  0
LINE
  8
3
  6
CONTINUOUS
 62
3
 10
12.0449957652473
 20
7.54293964813087
 30
0.0
 11
12.0449957652473
 21
7.3132632702142
 31
0.0
  0
LINE
  8
3
  6
CONTINUOUS
 62
3
 10
11.2949972652473
 20
7.3132632702142
 30
0.0
 11
11.2949972652473
 21
6.99171634113087
 31
0.0
  0
LINE
  8
3
  6
CONTINUOUS
 62
3
 10
11.2949972652473
 20
6.99171634113087
 30
0.0
 11
11.8462166352473
 21
6.99171634113087
 31
0.0
  0
LINE
  8
3
  6
CONTINUOUS
 62
3
 10
11.8462166352473
 20
6.99171634113087
 30
0.0
 11
11.8462166352473
 21
7.54293964813087
 31
0.0
  0
LINE
  8
3
  6
CONTINUOUS
 62
3
 10
11.8462166352473
 20
7.54293964813087
 30
0.0
 11
11.2949972652473
 21
7.54293964813087
 31
0.0
  0
LINE
  8
3
  6
CONTINUOUS
 62
3
 10
11.2949972652473
 20
7.54293964813087
 30
0.0
 11
11.2949972652473
 21
7.3132632702142
 31
0.0
  0
LINE
  8
3
  6
CONTINUOUS
 62
3
 10
10.5449987652473
 20
7.3132632702142
 30
0.0
 11
10.5449987652473
 21
6.99171634113087
 31
0.0
  0
LINE
  8
3
  6
CONTINUOUS
 62
3
 10
10.5449987652473
 20
6.99171634113087
 30
0.0
 11
11.0962181352473
 21
6.99171634113087
 31
0.0
  0
LINE
  8
3
  6
CONTINUOUS
 62
3
 10
11.0962181352473
 20
6.99171634113087
 30
0.0
 11
11.0962181352473
 21
7.54293964813087
 31
0.0
  0
LINE
  8
3
  6
CONTINUOUS
 62
3
 10
11.0962181352473
 20
7.54293964813087
 30
0.0
 11
10.5449987652473
 21
7.54293964813087
 31
0.0
  0
LINE
  8
3
  6
CONTINUOUS
 62
3
 10
10.5449987652473
 20
7.54293964813087
 30
0.0
 11
10.5449987652473
 21
7.3132632702142
 31
0.0
  0
LINE
  8
3
  6
CONTINUOUS
 62
3
 10
9.7950002652473
 20
7.3132632702142
 30
0.0
 11
9.7950002652473
 21
6.99171634113087
 31
0.0
  0
LINE
  8
3
  6
CONTINUOUS
 62
3
 10
9.7950002652473
 20
6.99171634113087
 30
0.0
 11
10.3462196352473
 21
6.99171634113087
 31
0.0
  0
LINE
  8
3
  6
CONTINUOUS
 62
3
 10
10.3462196352473
 20
6.99171634113087
 30
0.0
 11
10.3462196352473
 21
7.54293964813087
 31
0.0
  0
LINE
  8
3
  6
CONTINUOUS
 62
3
 10
10.3462196352473
 20
7.54293964813087
 30
0.0
 11
9.7950002652473
 21
7.54293964813087
 31
0.0
  0
LINE
  8
3
  6
CONTINUOUS
 62
3
 10
9.7950002652473
 20
7.54293964813087
 30
0.0
 11
9.7950002652473
 21
7.3132632702142
 31
0.0
  0
LINE
  8
3
  6
CONTINUOUS
 62
3
 10
9.04500176524729
 20
7.3132632702142
 30
0.0
 11
9.04500176524729
 21
6.99171634113087
 31
0.0
  0
LINE
  8
3
  6
CONTINUOUS
 62
3
 10
9.04500176524729
 20
6.99171634113087
 30
0.0
 11
9.59622113524728
 21
6.99171634113087
 31
0.0
  0
LINE
  8
3
  6
CONTINUOUS
 62
3
 10
9.59622113524728
 20
6.99171634113087
 30
0.0
 11
9.59622113524728
 21
7.54293964813087
 31
0.0
  0
LINE
  8
3
  6
CONTINUOUS
 62
3
 10
9.59622113524728
 20
7.54293964813087
 30
0.0
 11
9.04500176524729
 21
7.54293964813087
 31
0.0
  0
LINE
  8
3
  6
CONTINUOUS
 62
3
 10
9.04500176524729
 20
7.54293964813087
 30
0.0
 11
9.04500176524729
 21
7.3132632702142
 31
0.0
  0
LINE
  8
3
  6
CONTINUOUS
 62
3
 10
8.29500326524729
 20
7.3132632702142
 30
0.0
 11
8.29500326524729
 21
6.99171634113087
 31
0.0
  0
LINE
  8
3
  6
CONTINUOUS
 62
3
 10
8.29500326524729
 20
6.99171634113087
 30
0.0
 11
8.84622263524727
 21
6.99171634113087
 31
0.0
  0
LINE
  8
3
  6
CONTINUOUS
 62
3
 10
8.84622263524727
 20
6.99171634113087
 30
0.0
 11
8.84622263524727
 21
7.54293964813087
 31
0.0
  0
LINE
  8
3
  6
CONTINUOUS
 62
3
 10
8.84622263524727
 20
7.54293964813087
 30
0.0
 11
8.29500326524729
 21
7.54293964813087
 31
0.0
  0
LINE
  8
3
  6
CONTINUOUS
 62
3
 10
8.29500326524729
 20
7.54293964813087
 30
0.0
 11
8.29500326524729
 21
7.3132632702142
 31
0.0
  0
LINE
  8
3
  6
CONTINUOUS
 62
3
 10
7.54500476524728
 20
7.3132632702142
 30
0.0
 11
7.54500476524728
 21
6.99171634113087
 31
0.0
  0
LINE
  8
3
  6
CONTINUOUS
 62
3
 10
7.54500476524728
 20
6.99171634113087
 30
0.0
 11
8.0962241352473
 21
6.99171634113087
 31
0.0
  0
LINE
  8
3
  6
CONTINUOUS
 62
3
 10
8.0962241352473
 20
6.99171634113087
 30
0.0
 11
8.0962241352473
 21
7.54293964813087
 31
0.0
  0
LINE
  8
3
  6
CONTINUOUS
 62
3
 10
8.0962241352473
 20
7.54293964813087
 30
0.0
 11
7.54500476524728
 21
7.54293964813087
 31
0.0
  0
LINE
  8
3
  6
CONTINUOUS
 62
3
 10
7.54500476524728
 20
7.54293964813087
 30
0.0
 11
7.54500476524728
 21
7.3132632702142
 31
0.0
  0
LINE
  8
3
  6
CONTINUOUS
 62
3
 10
6.79501020224728
 20
7.3132632702142
 30
0.0
 11
6.79501020224728
 21
6.99171634113087
 31
0.0
  0
LINE
  8
3
  6
CONTINUOUS
 62
3
 10
6.79501020224728
 20
6.99171634113087
 30
0.0
 11
7.34622563524729
 21
6.99171634113087
 31
0.0
  0
LINE
  8
3
  6
CONTINUOUS
 62
3
 10
7.34622563524729
 20
6.99171634113087
 30
0.0
 11
7.34622563524729
 21
7.54293964813087
 31
0.0
  0
LINE
  8
3
  6
CONTINUOUS
 62
3
 10
7.34622563524729
 20
7.54293964813087
 30
0.0
 11
6.79501020224728
 21
7.54293964813087
 31
0.0
  0
LINE
  8
3
  6
CONTINUOUS
 62
3
 10
6.79501020224728
 20
7.54293964813087
 30
0.0
 11
6.79501020224728
 21
7.3132632702142
 31
0.0
  0
LINE
  8
3
  6
CONTINUOUS
 62
3
 10
6.04501170224728
 20
7.3132632702142
 30
0.0
 11
6.04501170224728
 21
6.99171634113087
 31
0.0
  0
LINE
  8
3
  6
CONTINUOUS
 62
3
 10
6.04501170224728
 20
6.99171634113087
 30
0.0
 11
6.59621926124728
 21
6.99171634113087
 31
0.0
  0
LINE
  8
3
  6
CONTINUOUS
 62
3
 10
6.59621926124728
 20
6.99171634113087
 30
0.0
 11
6.59621926124728
 21
7.54293964813087
 31
0.0
  0
LINE
  8
3
  6
CONTINUOUS
 62
3
 10
6.59621926124728
 20
7.54293964813087
 30
0.0
 11
6.04501170224728
 21
7.54293964813087
 31
0.0
  0
LINE
  8
3
  6
CONTINUOUS
 62
3
 10
6.04501170224728
 20
7.54293964813087
 30
0.0
 11
6.04501170224728
 21
7.3132632702142
 31
0.0
  0
LINE
  8
3
  6
CONTINUOUS
 62
3
 10
4.69833329324729
 20
7.48505000013087
 30
0.0
 11
4.69833329324729
 21
7.52128614813087
 31
0.0
  0
LINE
  8
3
  6
CONTINUOUS
 62
3
 10
4.69833329324729
 20
7.52128614813087
 30
0.0
 11
4.56838867124728
 21
7.52128614813087
 31
0.0
  0
LINE
  8
3
  6
CONTINUOUS
 62
3
 10
4.56838867124728
 20
7.52128614813087
 30
0.0
 11
4.56838867124728
 21
7.48505000013087
 31
0.0
  0
LINE
  8
3
  6
CONTINUOUS
 62
3
 10
4.56838867124728
 20
7.48505000013087
 30
0.0
 11
4.50053053924728
 21
7.48505000013087
 31
0.0
  0
LINE
  8
3
  6
CONTINUOUS
 62
3
 10
4.50053053924728
 20
7.48505000013087
 30
0.0
 11
4.50053053924728
 21
7.35786915213087
 31
0.0
  0
LINE
  8
3
  6
CONTINUOUS
 62
3
 10
4.50053053924728
 20
7.35786915213087
 30
0.0
 11
4.46802666724727
 21
7.35786915213087
 31
0.0
  0
LINE
  8
3
  6
CONTINUOUS
 62
3
 10
4.46802666724727
 20
7.35786915213087
 30
0.0
 11
4.46802666724727
 21
7.24763315213087
 31
0.0
  0
LINE
  8
3
  6
CONTINUOUS
 62
3
 10
4.46802666724727
 20
7.24763315213087
 30
0.0
 11
4.50053053924728
 21
7.24763315213087
 31
0.0
  0
LINE
  8
3
  6
CONTINUOUS
 62
3
 10
4.50053053924728
 20
7.24763315213087
 30
0.0
 11
4.50053053924728
 21
7.00083049613087
 31
0.0
  0
LINE
  8
3
  6
CONTINUOUS
 62
3
 10
4.50053053924728
 20
7.00083049613087
 30
0.0
 11
4.56838867124728
 21
7.00083049613087
 31
0.0
  0
LINE
  8
3
  6
CONTINUOUS
 62
3
 10
4.56838867124728
 20
7.00083049613087
 30
0.0
 11
4.56838867124728
 21
6.96220458913086
 31
0.0
  0
LINE
  8
3
  6
CONTINUOUS
 62
3
 10
4.56838867124728
 20
6.96220458913086
 30
0.0
 11
4.69833329324729
 21
6.96220458913086
 31
0.0
  0
LINE
  8
3
  6
CONTINUOUS
 62
3
 10
4.69833329324729
 20
6.96220458913086
 30
0.0
 11
4.69833329324729
 21
7.00083049613087
 31
0.0
  0
LINE
  8
3
  6
CONTINUOUS
 62
3
 10
4.69833329324729
 20
7.00083049613087
 30
0.0
 11
4.76626229124727
 21
7.00083049613087
 31
0.0
  0
LINE
  8
3
  6
CONTINUOUS
 62
3
 10
4.76626229124727
 20
7.00083049613087
 30
0.0
 11
4.76626229124727
 21
7.17683014413087
 31
0.0
  0
LINE
  8
3
  6
CONTINUOUS
 62
3
 10
4.76626229124727
 20
7.17683014413087
 30
0.0
 11
4.82632122624727
 21
7.17683014413087
 31
0.0
  0
LINE
  8
3
  6
CONTINUOUS
 62
3
 10
4.82632122624727
 20
7.17683014413087
 30
0.0
 11
4.82632122624727
 21
6.99171634113087
 31
0.0
  0
LINE
  8
3
  6
CONTINUOUS
 62
3
 10
4.82632122624727
 20
6.99171634113087
 30
0.0
 11
5.1675546758048
 21
6.99171634113087
 31
0.0
  0
LINE
  8
3
  6
CONTINUOUS
 62
3
 10
5.3774697302473
 20
6.99171634113087
 30
0.0
 11
5.3774697302473
 21
7.17683014413087
 31
0.0
  0
LINE
  8
3
  6
CONTINUOUS
 62
3
 10
5.3774697302473
 20
7.17683014413087
 30
0.0
 11
5.43754047624728
 21
7.17683014413087
 31
0.0
  0
LINE
  8
3
  6
CONTINUOUS
 62
3
 10
5.43754047624728
 20
7.17683014413087
 30
0.0
 11
5.43754047624728
 21
7.00083049613087
 31
0.0
  0
LINE
  8
3
  6
CONTINUOUS
 62
3
 10
5.43754047624728
 20
7.00083049613087
 30
0.0
 11
5.50540254524728
 21
7.00083049613087
 31
0.0
  0
LINE
  8
3
  6
CONTINUOUS
 62
3
 10
5.50540254524728
 20
7.00083049613087
 30
0.0
 11
5.50540254524728
 21
6.96220458913086
 31
0.0
  0
LINE
  8
3
  6
CONTINUOUS
 62
3
 10
5.50540254524728
 20
6.96220458913086
 30
0.0
 11
5.63534716724729
 21
6.96220458913086
 31
0.0
  0
LINE
  8
3
  6
CONTINUOUS
 62
3
 10
5.63534716724729
 20
6.96220458913086
 30
0.0
 11
5.63534716724729
 21
7.00083049613087
 31
0.0
  0
LINE
  8
3
  6
CONTINUOUS
 62
3
 10
5.63534716724729
 20
7.00083049613087
 30
0.0
 11
5.70326041724729
 21
7.00083049613087
 31
0.0
  0
LINE
  8
3
  6
CONTINUOUS
 62
3
 10
5.70326041724729
 20
7.00083049613087
 30
0.0
 11
5.70326041724729
 21
7.24763315213087
 31
0.0
  0
LINE
  8
3
  6
CONTINUOUS
 62
3
 10
5.70326041724729
 20
7.24763315213087
 30
0.0
 11
5.73570523424729
 21
7.24763315213087
 31
0.0
  0
LINE
  8
3
  6
CONTINUOUS
 62
3
 10
5.73570523424729
 20
7.24763315213087
 30
0.0
 11
5.73570523424729
 21
7.35786915213087
 31
0.0
  0
LINE
  8
3
  6
CONTINUOUS
 62
3
 10
5.73570523424729
 20
7.35786915213087
 30
0.0
 11
5.70326041724729
 21
7.35786915213087
 31
0.0
  0
LINE
  8
3
  6
CONTINUOUS
 62
3
 10
5.70326041724729
 20
7.35786915213087
 30
0.0
 11
5.70326041724729
 21
7.48505000013087
 31
0.0
  0
LINE
  8
3
  6
CONTINUOUS
 62
3
 10
5.70326041724729
 20
7.48505000013087
 30
0.0
 11
5.63534716724729
 21
7.48505000013087
 31
0.0
  0
LINE
  8
3
  6
CONTINUOUS
 62
3
 10
5.63534716724729
 20
7.48505000013087
 30
0.0
 11
5.63534716724729
 21
7.52128614813087
 31
0.0
  0
LINE
  8
3
  6
CONTINUOUS
 62
3
 10
5.63534716724729
 20
7.52128614813087
 30
0.0
 11
5.50540254524728
 21
7.52128614813087
 31
0.0
  0
LINE
  8
3
  6
CONTINUOUS
 62
3
 10
5.50540254524728
 20
7.52128614813087
 30
0.0
 11
5.50540254524728
 21
7.48505000013087
 31
0.0
  0
LINE
  8
3
  6
CONTINUOUS
 62
3
 10
5.50540254524728
 20
7.48505000013087
 30
0.0
 11
5.43754047624728
 21
7.48505000013087
 31
0.0
  0
LINE
  8
3
  6
CONTINUOUS
 62
3
 10
5.43754047624728
 20
7.48505000013087
 30
0.0
 11
5.43754047624728
 21
7.35786915213087
 31
0.0
  0
LINE
  8
3
  6
CONTINUOUS
 62
3
 10
5.43754047624728
 20
7.35786915213087
 30
0.0
 11
5.3774697302473
 21
7.35786915213087
 31
0.0
  0
LINE
  8
3
  6
CONTINUOUS
 62
3
 10
5.3774697302473
 20
7.35786915213087
 30
0.0
 11
5.3774697302473
 21
7.54293964813087
 31
0.0
  0
LINE
  8
3
  6
CONTINUOUS
 62
3
 10
5.3774697302473
 20
7.54293964813087
 30
0.0
 11
5.1150717182419
 21
7.54293964813087
 31
0.0
  0
LINE
  8
3
  6
CONTINUOUS
 62
3
 10
4.82632122624727
 20
7.54293964813087
 30
0.0
 11
4.82632122624727
 21
7.35786915213087
 31
0.0
  0
LINE
  8
3
  6
CONTINUOUS
 62
3
 10
4.82632122624727
 20
7.35786915213087
 30
0.0
 11
4.76626229124727
 21
7.35786915213087
 31
0.0
  0
LINE
  8
3
  6
CONTINUOUS
 62
3
 10
4.76626229124727
 20
7.35786915213087
 30
0.0
 11
4.76626229124727
 21
7.48505000013087
 31
0.0
  0
LINE
  8
3
  6
CONTINUOUS
 62
3
 10
4.76626229124727
 20
7.48505000013087
 30
0.0
 11
4.69833329324729
 21
7.48505000013087
 31
0.0
  0
LINE
  8
3
  6
CONTINUOUS
 62
3
 10
4.90872263624729
 20
10.1295151836309
 30
0.0
 11
4.90872263624729
 21
10.5429297111309
 31
0.0
  0
LINE
  8
3
  6
CONTINUOUS
 62
3
 10
4.90872263624729
 20
10.5429297111309
 30
0.0
 11
4.35756625824729
 21
10.5429297111309
 31
0.0
  0
LINE
  8
3
  6
CONTINUOUS
 62
3
 10
4.35756625824729
 20
10.5429297111309
 30
0.0
 11
4.35756625824729
 21
9.99171034113087
 31
0.0
  0
LINE
  8
3
  6
CONTINUOUS
 62
3
 10
4.35756625824729
 20
9.99171034113087
 30
0.0
 11
4.90872263624729
 21
9.99171034113087
 31
0.0
  0
LINE
  8
3
  6
CONTINUOUS
 62
3
 10
4.90872263624729
 20
9.99171034113087
 30
0.0
 11
4.90872263624729
 21
10.1295151836309
 31
0.0
  0
LINE
  8
3
  6
CONTINUOUS
 62
3
 10
5.65872113624729
 20
10.1295151836309
 30
0.0
 11
5.65872113624729
 21
10.5429297111309
 31
0.0
  0
LINE
  8
3
  6
CONTINUOUS
 62
3
 10
5.65872113624729
 20
10.5429297111309
 30
0.0
 11
5.10756869524729
 21
10.5429297111309
 31
0.0
  0
LINE
  8
3
  6
CONTINUOUS
 62
3
 10
5.10756869524729
 20
10.5429297111309
 30
0.0
 11
5.10756869524729
 21
9.99171034113087
 31
0.0
  0
LINE
  8
3
  6
CONTINUOUS
 62
3
 10
5.10756869524729
 20
9.99171034113087
 30
0.0
 11
5.65872113624729
 21
9.99171034113087
 31
0.0
  0
LINE
  8
3
  6
CONTINUOUS
 62
3
 10
5.65872113624729
 20
9.99171034113087
 30
0.0
 11
5.65872113624729
 21
10.1295151836309
 31
0.0
  0
LINE
  8
3
  6
CONTINUOUS
 62
3
 10
6.4087196362473
 20
10.1295151836309
 30
0.0
 11
6.4087196362473
 21
10.5429297111309
 31
0.0
  0
LINE
  8
3
  6
CONTINUOUS
 62
3
 10
6.4087196362473
 20
10.5429297111309
 30
0.0
 11
5.8575671952473
 21
10.5429297111309
 31
0.0
  0
LINE
  8
3
  6
CONTINUOUS
 62
3
 10
5.8575671952473
 20
10.5429297111309
 30
0.0
 11
5.8575671952473
 21
9.99171034113087
 31
0.0
  0
LINE
  8
3
  6
CONTINUOUS
 62
3
 10
5.8575671952473
 20
9.99171034113087
 30
0.0
 11
6.4087196362473
 21
9.99171034113087
 31
0.0
  0
LINE
  8
3
  6
CONTINUOUS
 62
3
 10
6.4087196362473
 20
9.99171034113087
 30
0.0
 11
6.4087196362473
 21
10.1295151836309
 31
0.0
  0
LINE
  8
3
  6
CONTINUOUS
 62
3
 10
7.15870632524729
 20
10.1295151836309
 30
0.0
 11
7.15870632524729
 21
10.5429297111309
 31
0.0
  0
LINE
  8
3
  6
CONTINUOUS
 62
3
 10
7.15870632524729
 20
10.5429297111309
 30
0.0
 11
6.60756569524727
 21
10.5429297111309
 31
0.0
  0
LINE
  8
3
  6
CONTINUOUS
 62
3
 10
6.60756569524727
 20
10.5429297111309
 30
0.0
 11
6.60756569524727
 21
9.99171034113087
 31
0.0
  0
LINE
  8
3
  6
CONTINUOUS
 62
3
 10
6.60756569524727
 20
9.99171034113087
 30
0.0
 11
7.15870632524729
 21
9.99171034113087
 31
0.0
  0
LINE
  8
3
  6
CONTINUOUS
 62
3
 10
7.15870632524729
 20
9.99171034113087
 30
0.0
 11
7.15870632524729
 21
10.1295151836309
 31
0.0
  0
LINE
  8
3
  6
CONTINUOUS
 62
3
 10
7.9087048252473
 20
10.1295151836309
 30
0.0
 11
7.9087048252473
 21
10.5429297111309
 31
0.0
  0
LINE
  8
3
  6
CONTINUOUS
 62
3
 10
7.9087048252473
 20
10.5429297111309
 30
0.0
 11
7.35756419524728
 21
10.5429297111309
 31
0.0
  0
LINE
  8
3
  6
CONTINUOUS
 62
3
 10
7.35756419524728
 20
10.5429297111309
 30
0.0
 11
7.35756419524728
 21
9.99171034113087
 31
0.0
  0
LINE
  8
3
  6
CONTINUOUS
 62
3
 10
7.35756419524728
 20
9.99171034113087
 30
0.0
 11
7.9087048252473
 21
9.99171034113087
 31
0.0
  0
LINE
  8
3
  6
CONTINUOUS
 62
3
 10
7.9087048252473
 20
9.99171034113087
 30
0.0
 11
7.9087048252473
 21
10.1295151836309
 31
0.0
  0
LINE
  8
3
  6
CONTINUOUS
 62
3
 10
8.65870332524727
 20
10.1295151836309
 30
0.0
 11
8.65870332524727
 21
10.5429297111309
 31
0.0
  0
LINE
  8
3
  6
CONTINUOUS
 62
3
 10
8.65870332524727
 20
10.5429297111309
 30
0.0
 11
8.10756269524728
 21
10.5429297111309
 31
0.0
  0
LINE
  8
3
  6
CONTINUOUS
 62
3
 10
8.10756269524728
 20
10.5429297111309
 30
0.0
 11
8.10756269524728
 21
9.99171034113087
 31
0.0
  0
LINE
  8
3
  6
CONTINUOUS
 62
3
 10
8.10756269524728
 20
9.99171034113087
 30
0.0
 11
8.65870332524727
 21
9.99171034113087
 31
0.0
  0
LINE
  8
3
  6
CONTINUOUS
 62
3
 10
8.65870332524727
 20
9.99171034113087
 30
0.0
 11
8.65870332524727
 21
10.1295151836309
 31
0.0
  0
LINE
  8
3
  6
CONTINUOUS
 62
3
 10
9.40870182524728
 20
10.1295151836309
 30
0.0
 11
9.40870182524728
 21
10.5429297111309
 31
0.0
  0
LINE
  8
3
  6
CONTINUOUS
 62
3
 10
9.40870182524728
 20
10.5429297111309
 30
0.0
 11
8.85756119524729
 21
10.5429297111309
 31
0.0
  0
LINE
  8
3
  6
CONTINUOUS
 62
3
 10
8.85756119524729
 20
10.5429297111309
 30
0.0
 11
8.85756119524729
 21
9.99171034113087
 31
0.0
  0
LINE
  8
3
  6
CONTINUOUS
 62
3
 10
8.85756119524729
 20
9.99171034113087
 30
0.0
 11
9.40870182524728
 21
9.99171034113087
 31
0.0
  0
LINE
  8
3
  6
CONTINUOUS
 62
3
 10
9.40870182524728
 20
9.99171034113087
 30
0.0
 11
9.40870182524728
 21
10.1295151836309
 31
0.0
  0
LINE
  8
3
  6
CONTINUOUS
 62
3
 10
10.1587003252473
 20
10.1295151836309
 30
0.0
 11
10.1587003252473
 21
10.5429297111309
 31
0.0
  0
LINE
  8
3
  6
CONTINUOUS
 62
3
 10
10.1587003252473
 20
10.5429297111309
 30
0.0
 11
9.60755969524729
 21
10.5429297111309
 31
0.0
  0
LINE
  8
3
  6
CONTINUOUS
 62
3
 10
9.60755969524729
 20
10.5429297111309
 30
0.0
 11
9.60755969524729
 21
9.99171034113087
 31
0.0
  0
LINE
  8
3
  6
CONTINUOUS
 62
3
 10
9.60755969524729
 20
9.99171034113087
 30
0.0
 11
10.1587003252473
 21
9.99171034113087
 31
0.0
  0
LINE
  8
3
  6
CONTINUOUS
 62
3
 10
10.1587003252473
 20
9.99171034113087
 30
0.0
 11
10.1587003252473
 21
10.1295151836309
 31
0.0
  0
LINE
  8
3
  6
CONTINUOUS
 62
3
 10
10.9086988252473
 20
10.1295151836309
 30
0.0
 11
10.9086988252473
 21
10.5429297111309
 31
0.0
  0
LINE
  8
3
  6
CONTINUOUS
 62
3
 10
10.9086988252473
 20
10.5429297111309
 30
0.0
 11
10.3575581952473
 21
10.5429297111309
 31
0.0
  0
LINE
  8
3
  6
CONTINUOUS
 62
3
 10
10.3575581952473
 20
10.5429297111309
 30
0.0
 11
10.3575581952473
 21
9.99171034113087
 31
0.0
  0
LINE
  8
3
  6
CONTINUOUS
 62
3
 10
10.3575581952473
 20
9.99171034113087
 30
0.0
 11
10.9086988252473
 21
9.99171034113087
 31
0.0
  0
LINE
  8
3
  6
CONTINUOUS
 62
3
 10
10.9086988252473
 20
9.99171034113087
 30
0.0
 11
10.9086988252473
 21
10.1295151836309
 31
0.0
  0
LINE
  8
3
  6
CONTINUOUS
 62
3
 10
11.6586973252473
 20
10.1295151836309
 30
0.0
 11
11.6586973252473
 21
10.5429297111309
 31
0.0
  0
LINE
  8
3
  6
CONTINUOUS
 62
3
 10
11.6586973252473
 20
10.5429297111309
 30
0.0
 11
11.1075566952473
 21
10.5429297111309
 31
0.0
  0
LINE
  8
3
  6
CONTINUOUS
 62
3
 10
11.1075566952473
 20
10.5429297111309
 30
0.0
 11
11.1075566952473
 21
9.99171034113087
 31
0.0
  0
LINE
  8
3
  6
CONTINUOUS
 62
3
 10
11.1075566952473
 20
9.99171034113087
 30
0.0
 11
11.6586973252473
 21
9.99171034113087
 31
0.0
  0
LINE
  8
3
  6
CONTINUOUS
 62
3
 10
11.6586973252473
 20
9.99171034113087
 30
0.0
 11
11.6586973252473
 21
10.1295151836309
 31
0.0
  0
LINE
  8
3
  6
CONTINUOUS
 62
3
 10
12.4086958252473
 20
10.1295151836309
 30
0.0
 11
12.4086958252473
 21
10.5429297111309
 31
0.0
  0
LINE
  8
3
  6
CONTINUOUS
 62
3
 10
12.4086958252473
 20
10.5429297111309
 30
0.0
 11
11.8575551952473
 21
10.5429297111309
 31
0.0
  0
LINE
  8
3
  6
CONTINUOUS
 62
3
 10
11.8575551952473
 20
10.5429297111309
 30
0.0
 11
11.8575551952473
 21
9.99171034113087
 31
0.0
  0
LINE
  8
3
  6
CONTINUOUS
 62
3
 10
11.8575551952473
 20
9.99171034113087
 30
0.0
 11
12.4086958252473
 21
9.99171034113087
 31
0.0
  0
LINE
  8
3
  6
CONTINUOUS
 62
3
 10
12.4086958252473
 20
9.99171034113087
 30
0.0
 11
12.4086958252473
 21
10.1295151836309
 31
0.0
  0
LINE
  8
3
  6
CONTINUOUS
 62
3
 10
13.1586943252473
 20
10.1295151836309
 30
0.0
 11
13.1586943252473
 21
10.5429297111309
 31
0.0
  0
LINE
  8
3
  6
CONTINUOUS
 62
3
 10
13.1586943252473
 20
10.5429297111309
 30
0.0
 11
12.6075536952473
 21
10.5429297111309
 31
0.0
  0
LINE
  8
3
  6
CONTINUOUS
 62
3
 10
12.6075536952473
 20
10.5429297111309
 30
0.0
 11
12.6075536952473
 21
9.99171034113087
 31
0.0
  0
LINE
  8
3
  6
CONTINUOUS
 62
3
 10
12.6075536952473
 20
9.99171034113087
 30
0.0
 11
13.1586943252473
 21
9.99171034113087
 31
0.0
  0
LINE
  8
3
  6
CONTINUOUS
 62
3
 10
13.1586943252473
 20
9.99171034113087
 30
0.0
 11
13.1586943252473
 21
10.1295151836309
 31
0.0
  0
LINE
  8
3
  6
CONTINUOUS
 62
3
 10
13.9086928252473
 20
10.1295151836309
 30
0.0
 11
13.9086928252473
 21
10.5429297111309
 31
0.0
  0
LINE
  8
3
  6
CONTINUOUS
 62
3
 10
13.9086928252473
 20
10.5429297111309
 30
0.0
 11
13.3575521952473
 21
10.5429297111309
 31
0.0
  0
LINE
  8
3
  6
CONTINUOUS
 62
3
 10
13.3575521952473
 20
10.5429297111309
 30
0.0
 11
13.3575521952473
 21
9.99171034113087
 31
0.0
  0
LINE
  8
3
  6
CONTINUOUS
 62
3
 10
13.3575521952473
 20
9.99171034113087
 30
0.0
 11
13.9086928252473
 21
9.99171034113087
 31
0.0
  0
LINE
  8
3
  6
CONTINUOUS
 62
3
 10
13.9086928252473
 20
9.99171034113087
 30
0.0
 11
13.9086928252473
 21
10.1295151836309
 31
0.0
  0
LINE
  8
3
  6
CONTINUOUS
 62
3
 10
14.6586913252473
 20
10.1295151836309
 30
0.0
 11
14.6586913252473
 21
10.5429297111309
 31
0.0
  0
LINE
  8
3
  6
CONTINUOUS
 62
3
 10
14.6586913252473
 20
10.5429297111309
 30
0.0
 11
14.1075506952473
 21
10.5429297111309
 31
0.0
  0
LINE
  8
3
  6
CONTINUOUS
 62
3
 10
14.1075506952473
 20
10.5429297111309
 30
0.0
 11
14.1075506952473
 21
9.99171034113087
 31
0.0
  0
LINE
  8
3
  6
CONTINUOUS
 62
3
 10
14.1075506952473
 20
9.99171034113087
 30
0.0
 11
14.6586913252473
 21
9.99171034113087
 31
0.0
  0
LINE
  8
3
  6
CONTINUOUS
 62
3
 10
14.6586913252473
 20
9.99171034113087
 30
0.0
 11
14.6586913252473
 21
10.1295151836309
 31
0.0
  0
LINE
  8
3
  6
CONTINUOUS
 62
3
 10
15.4086898252473
 20
10.1295151836309
 30
0.0
 11
15.4086898252473
 21
10.5429297111309
 31
0.0
  0
LINE
  8
3
  6
CONTINUOUS
 62
3
 10
15.4086898252473
 20
10.5429297111309
 30
0.0
 11
14.8575491952473
 21
10.5429297111309
 31
0.0
  0
LINE
  8
3
  6
CONTINUOUS
 62
3
 10
14.8575491952473
 20
10.5429297111309
 30
0.0
 11
14.8575491952473
 21
9.99171034113087
 31
0.0
  0
LINE
  8
3
  6
CONTINUOUS
 62
3
 10
14.8575491952473
 20
9.99171034113087
 30
0.0
 11
15.4086898252473
 21
9.99171034113087
 31
0.0
  0
LINE
  8
3
  6
CONTINUOUS
 62
3
 10
15.4086898252473
 20
9.99171034113087
 30
0.0
 11
15.4086898252473
 21
10.1295151836309
 31
0.0
  0
LINE
  8
3
  6
CONTINUOUS
 62
3
 10
15.7453328527473
 20
9.99171034113087
 30
0.0
 11
16.1586883252473
 21
9.99171034113087
 31
0.0
  0
LINE
  8
3
  6
CONTINUOUS
 62
3
 10
16.1586883252473
 20
9.99171034113087
 30
0.0
 11
16.1586883252473
 21
10.5429297111309
 31
0.0
  0
LINE
  8
3
  6
CONTINUOUS
 62
3
 10
16.1586883252473
 20
10.5429297111309
 30
0.0
 11
15.6075476952473
 21
10.5429297111309
 31
0.0
  0
LINE
  8
3
  6
CONTINUOUS
 62
3
 10
15.6075476952473
 20
10.5429297111309
 30
0.0
 11
15.6075476952473
 21
9.99171034113087
 31
0.0
  0
LINE
  8
3
  6
CONTINUOUS
 62
3
 10
15.6075476952473
 20
9.99171034113087
 30
0.0
 11
15.7453328527473
 21
9.99171034113087
 31
0.0
  0
LINE
  8
3
  6
CONTINUOUS
 62
3
 10
15.6075476952473
 20
9.60919142113086
 30
0.0
 11
15.6075476952473
 21
9.24171184113086
 31
0.0
  0
LINE
  8
3
  6
CONTINUOUS
 62
3
 10
15.6075476952473
 20
9.24171184113086
 30
0.0
 11
16.1586883252473
 21
9.24171184113086
 31
0.0
  0
LINE
  8
3
  6
CONTINUOUS
 62
3
 10
16.1586883252473
 20
9.24171184113086
 30
0.0
 11
16.1586883252473
 21
9.79293121113086
 31
0.0
  0
LINE
  8
3
  6
CONTINUOUS
 62
3
 10
16.1586883252473
 20
9.79293121113086
 30
0.0
 11
15.6075476952473
 21
9.79293121113086
 31
0.0
  0
LINE
  8
3
  6
CONTINUOUS
 62
3
 10
15.6075476952473
 20
9.79293121113086
 30
0.0
 11
15.6075476952473
 21
9.60919142113086
 31
0.0
  0
LINE
  8
3
  6
CONTINUOUS
 62
3
 10
14.1567631952473
 20
9.60785284113086
 30
0.0
 11
14.1242435752473
 21
9.60785284113086
 31
0.0
  0
LINE
  8
3
  6
CONTINUOUS
 62
3
 10
14.1242435752473
 20
9.60785284113086
 30
0.0
 11
14.1242435752473
 21
9.49761684113086
 31
0.0
  0
LINE
  8
3
  6
CONTINUOUS
 62
3
 10
14.1242435752473
 20
9.49761684113086
 30
0.0
 11
14.1567631952473
 21
9.49761684113086
 31
0.0
  0
LINE
  8
3
  6
CONTINUOUS
 62
3
 10
14.1567631952473
 20
9.49761684113086
 30
0.0
 11
14.1567631952473
 21
9.25077087813087
 31
0.0
  0
LINE
  8
3
  6
CONTINUOUS
 62
3
 10
14.1567631952473
 20
9.25077087813087
 30
0.0
 11
14.2246764452473
 21
9.25077087813087
 31
0.0
  0
LINE
  8
3
  6
CONTINUOUS
 62
3
 10
14.2246764452473
 20
9.25077087813087
 30
0.0
 11
14.2246764452473
 21
9.21220008913087
 31
0.0
  0
LINE
  8
3
  6
CONTINUOUS
 62
3
 10
14.2246764452473
 20
9.21220008913087
 30
0.0
 11
14.3545580752473
 21
9.21220008913087
 31
0.0
  0
LINE
  8
3
  6
CONTINUOUS
 62
3
 10
14.3545580752473
 20
9.21220008913087
 30
0.0
 11
14.3545580752473
 21
9.25077087813087
 31
0.0
  0
LINE
  8
3
  6
CONTINUOUS
 62
3
 10
14.3545580752473
 20
9.25077087813087
 30
0.0
 11
14.4225106952473
 21
9.25077087813087
 31
0.0
  0
LINE
  8
3
  6
CONTINUOUS
 62
3
 10
14.4225106952473
 20
9.25077087813087
 30
0.0
 11
14.4225106952473
 21
9.42676658913086
 31
0.0
  0
LINE
  8
3
  6
CONTINUOUS
 62
3
 10
14.4225106952473
 20
9.42676658913086
 30
0.0
 11
14.4825499452473
 21
9.42676658913086
 31
0.0
  0
LINE
  8
3
  6
CONTINUOUS
 62
3
 10
14.4825499452473
 20
9.42676658913086
 30
0.0
 11
14.4825499452473
 21
9.24171184113086
 31
0.0
  0
LINE
  8
3
  6
CONTINUOUS
 62
3
 10
14.4825499452473
 20
9.24171184113086
 30
0.0
 11
14.8585173499378
 21
9.24171184113086
 31
0.0
  0
LINE
  8
3
  6
CONTINUOUS
 62
3
 10
15.0336905752473
 20
9.24171184113086
 30
0.0
 11
15.0336905752473
 21
9.42676658913086
 31
0.0
  0
LINE
  8
3
  6
CONTINUOUS
 62
3
 10
15.0336905752473
 20
9.42676658913086
 30
0.0
 11
15.0937691952473
 21
9.42676658913086
 31
0.0
  0
LINE
  8
3
  6
CONTINUOUS
 62
3
 10
15.0937691952473
 20
9.42676658913086
 30
0.0
 11
15.0937691952473
 21
9.25077087813087
 31
0.0
  0
LINE
  8
3
  6
CONTINUOUS
 62
3
 10
15.0937691952473
 20
9.25077087813087
 30
0.0
 11
15.1616430752473
 21
9.25077087813087
 31
0.0
  0
LINE
  8
3
  6
CONTINUOUS
 62
3
 10
15.1616430752473
 20
9.25077087813087
 30
0.0
 11
15.1616430752473
 21
9.21220008913087
 31
0.0
  0
LINE
  8
3
  6
CONTINUOUS
 62
3
 10
15.1616430752473
 20
9.21220008913087
 30
0.0
 11
15.2915640752473
 21
9.21220008913087
 31
0.0
  0
LINE
  8
3
  6
CONTINUOUS
 62
3
 10
15.2915640752473
 20
9.21220008913087
 30
0.0
 11
15.2915640752473
 21
9.25077087813087
 31
0.0
  0
LINE
  8
3
  6
CONTINUOUS
 62
3
 10
15.2915640752473
 20
9.25077087813087
 30
0.0
 11
15.3594773252473
 21
9.25077087813087
 31
0.0
  0
LINE
  8
3
  6
CONTINUOUS
 62
3
 10
15.3594773252473
 20
9.25077087813087
 30
0.0
 11
15.3594773252473
 21
9.49761684113086
 31
0.0
  0
LINE
  8
3
  6
CONTINUOUS
 62
3
 10
15.3594773252473
 20
9.49761684113086
 30
0.0
 11
15.3919969452473
 21
9.49761684113086
 31
0.0
  0
LINE
  8
3
  6
CONTINUOUS
 62
3
 10
15.3919969452473
 20
9.49761684113086
 30
0.0
 11
15.3919969452473
 21
9.60785284113086
 31
0.0
  0
LINE
  8
3
  6
CONTINUOUS
 62
3
 10
15.3919969452473
 20
9.60785284113086
 30
0.0
 11
15.3594773252473
 21
9.60785284113086
 31
0.0
  0
LINE
  8
3
  6
CONTINUOUS
 62
3
 10
15.3594773252473
 20
9.60785284113086
 30
0.0
 11
15.3594773252473
 21
9.73505731113087
 31
0.0
  0
LINE
  8
3
  6
CONTINUOUS
 62
3
 10
15.3594773252473
 20
9.73505731113087
 30
0.0
 11
15.2915640752473
 21
9.73505731113087
 31
0.0
  0
LINE
  8
3
  6
CONTINUOUS
 62
3
 10
15.2915640752473
 20
9.73505731113087
 30
0.0
 11
15.2915640752473
 21
9.77127771113086
 31
0.0
  0
LINE
  8
3
  6
CONTINUOUS
 62
3
 10
15.2915640752473
 20
9.77127771113086
 30
0.0
 11
15.1616430752473
 21
9.77127771113086
 31
0.0
  0
LINE
  8
3
  6
CONTINUOUS
 62
3
 10
15.1616430752473
 20
9.77127771113086
 30
0.0
 11
15.1616430752473
 21
9.73505731113087
 31
0.0
  0
LINE
  8
3
  6
CONTINUOUS
 62
3
 10
15.1616430752473
 20
9.73505731113087
 30
0.0
 11
15.0937691952473
 21
9.73505731113087
 31
0.0
  0
LINE
  8
3
  6
CONTINUOUS
 62
3
 10
15.0937691952473
 20
9.73505731113087
 30
0.0
 11
15.0937691952473
 21
9.60785284113086
 31
0.0
  0
LINE
  8
3
  6
CONTINUOUS
 62
3
 10
15.0937691952473
 20
9.60785284113086
 30
0.0
 11
15.0336905752473
 21
9.60785284113086
 31
0.0
  0
LINE
  8
3
  6
CONTINUOUS
 62
3
 10
15.0336905752473
 20
9.60785284113086
 30
0.0
 11
15.0336905752473
 21
9.79293121113086
 31
0.0
  0
LINE
  8
3
  6
CONTINUOUS
 62
3
 10
15.0336905752473
 20
9.79293121113086
 30
0.0
 11
14.6235734314218
 21
9.79293121113086
 31
0.0
  0
LINE
  8
3
  6
CONTINUOUS
 62
3
 10
14.4825499452473
 20
9.79293121113086
 30
0.0
 11
14.4825499452473
 21
9.60785284113086
 31
0.0
  0
LINE
  8
3
  6
CONTINUOUS
 62
3
 10
14.4825499452473
 20
9.60785284113086
 30
0.0
 11
14.4225106952473
 21
9.60785284113086
 31
0.0
  0
LINE
  8
3
  6
CONTINUOUS
 62
3
 10
14.4225106952473
 20
9.60785284113086
 30
0.0
 11
14.4225106952473
 21
9.73505731113087
 31
0.0
  0
LINE
  8
3
  6
CONTINUOUS
 62
3
 10
14.4225106952473
 20
9.73505731113087
 30
0.0
 11
14.3545580752473
 21
9.73505731113087
 31
0.0
  0
LINE
  8
3
  6
CONTINUOUS
 62
3
 10
14.3545580752473
 20
9.73505731113087
 30
0.0
 11
14.3545580752473
 21
9.77127771113086
 31
0.0
  0
LINE
  8
3
  6
CONTINUOUS
 62
3
 10
14.3545580752473
 20
9.77127771113086
 30
0.0
 11
14.2246764452473
 21
9.77127771113086
 31
0.0
  0
LINE
  8
3
  6
CONTINUOUS
 62
3
 10
14.2246764452473
 20
9.77127771113086
 30
0.0
 11
14.2246764452473
 21
9.73505731113087
 31
0.0
  0
LINE
  8
3
  6
CONTINUOUS
 62
3
 10
14.2246764452473
 20
9.73505731113087
 30
0.0
 11
14.1567631952473
 21
9.73505731113087
 31
0.0
  0
LINE
  8
3
  6
CONTINUOUS
 62
3
 10
14.1567631952473
 20
9.73505731113087
 30
0.0
 11
14.1567631952473
 21
9.60785284113086
 31
0.0
  0
LINE
  8
3
  6
CONTINUOUS
 62
3
 10
13.3575521952473
 20
9.37951668363086
 30
0.0
 11
13.3575521952473
 21
9.24171184113086
 31
0.0
  0
LINE
  8
3
  6
CONTINUOUS
 62
3
 10
13.3575521952473
 20
9.24171184113086
 30
0.0
 11
13.9086928252473
 21
9.24171184113086
 31
0.0
  0
LINE
  8
3
  6
CONTINUOUS
 62
3
 10
13.9086928252473
 20
9.24171184113086
 30
0.0
 11
13.9086928252473
 21
9.79293121113086
 31
0.0
  0
LINE
  8
3
  6
CONTINUOUS
 62
3
 10
13.9086928252473
 20
9.79293121113086
 30
0.0
 11
13.3575521952473
 21
9.79293121113086
 31
0.0
  0
LINE
  8
3
  6
CONTINUOUS
 62
3
 10
13.3575521952473
 20
9.79293121113086
 30
0.0
 11
13.3575521952473
 21
9.37951668363086
 31
0.0
  0
LINE
  8
3
  6
CONTINUOUS
 62
3
 10
12.6075536952473
 20
9.37951668363086
 30
0.0
 11
12.6075536952473
 21
9.24171184113086
 31
0.0
  0
LINE
  8
3
  6
CONTINUOUS
 62
3
 10
12.6075536952473
 20
9.24171184113086
 30
0.0
 11
13.1586943252473
 21
9.24171184113086
 31
0.0
  0
LINE
  8
3
  6
CONTINUOUS
 62
3
 10
13.1586943252473
 20
9.24171184113086
 30
0.0
 11
13.1586943252473
 21
9.79293121113086
 31
0.0
  0
LINE
  8
3
  6
CONTINUOUS
 62
3
 10
13.1586943252473
 20
9.79293121113086
 30
0.0
 11
12.6075536952473
 21
9.79293121113086
 31
0.0
  0
LINE
  8
3
  6
CONTINUOUS
 62
3
 10
12.6075536952473
 20
9.79293121113086
 30
0.0
 11
12.6075536952473
 21
9.37951668363086
 31
0.0
  0
LINE
  8
3
  6
CONTINUOUS
 62
3
 10
11.8575551952473
 20
9.37951668363086
 30
0.0
 11
11.8575551952473
 21
9.24171184113086
 31
0.0
  0
LINE
  8
3
  6
CONTINUOUS
 62
3
 10
11.8575551952473
 20
9.24171184113086
 30
0.0
 11
12.4086958252473
 21
9.24171184113086
 31
0.0
  0
LINE
  8
3
  6
CONTINUOUS
 62
3
 10
12.4086958252473
 20
9.24171184113086
 30
0.0
 11
12.4086958252473
 21
9.79293121113086
 31
0.0
  0
LINE
  8
3
  6
CONTINUOUS
 62
3
 10
12.4086958252473
 20
9.79293121113086
 30
0.0
 11
11.8575551952473
 21
9.79293121113086
 31
0.0
  0
LINE
  8
3
  6
CONTINUOUS
 62
3
 10
11.8575551952473
 20
9.79293121113086
 30
0.0
 11
11.8575551952473
 21
9.37951668363086
 31
0.0
  0
LINE
  8
3
  6
CONTINUOUS
 62
3
 10
11.1075566952473
 20
9.37951668363086
 30
0.0
 11
11.1075566952473
 21
9.24171184113086
 31
0.0
  0
LINE
  8
3
  6
CONTINUOUS
 62
3
 10
11.1075566952473
 20
9.24171184113086
 30
0.0
 11
11.6586973252473
 21
9.24171184113086
 31
0.0
  0
LINE
  8
3
  6
CONTINUOUS
 62
3
 10
11.6586973252473
 20
9.24171184113086
 30
0.0
 11
11.6586973252473
 21
9.79293121113086
 31
0.0
  0
LINE
  8
3
  6
CONTINUOUS
 62
3
 10
11.6586973252473
 20
9.79293121113086
 30
0.0
 11
11.1075566952473
 21
9.79293121113086
 31
0.0
  0
LINE
  8
3
  6
CONTINUOUS
 62
3
 10
11.1075566952473
 20
9.79293121113086
 30
0.0
 11
11.1075566952473
 21
9.37951668363086
 31
0.0
  0
LINE
  8
3
  6
CONTINUOUS
 62
3
 10
10.3575581952473
 20
9.37951668363086
 30
0.0
 11
10.3575581952473
 21
9.24171184113086
 31
0.0
  0
LINE
  8
3
  6
CONTINUOUS
 62
3
 10
10.3575581952473
 20
9.24171184113086
 30
0.0
 11
10.9086988252473
 21
9.24171184113086
 31
0.0
  0
LINE
  8
3
  6
CONTINUOUS
 62
3
 10
10.9086988252473
 20
9.24171184113086
 30
0.0
 11
10.9086988252473
 21
9.79293121113086
 31
0.0
  0
LINE
  8
3
  6
CONTINUOUS
 62
3
 10
10.9086988252473
 20
9.79293121113086
 30
0.0
 11
10.3575581952473
 21
9.79293121113086
 31
0.0
  0
LINE
  8
3
  6
CONTINUOUS
 62
3
 10
10.3575581952473
 20
9.79293121113086
 30
0.0
 11
10.3575581952473
 21
9.37951668363086
 31
0.0
  0
LINE
  8
3
  6
CONTINUOUS
 62
3
 10
9.60755969524729
 20
9.37951668363086
 30
0.0
 11
9.60755969524729
 21
9.24171184113086
 31
0.0
  0
LINE
  8
3
  6
CONTINUOUS
 62
3
 10
9.60755969524729
 20
9.24171184113086
 30
0.0
 11
10.1587003252473
 21
9.24171184113086
 31
0.0
  0
LINE
  8
3
  6
CONTINUOUS
 62
3
 10
10.1587003252473
 20
9.24171184113086
 30
0.0
 11
10.1587003252473
 21
9.79293121113086
 31
0.0
  0
LINE
  8
3
  6
CONTINUOUS
 62
3
 10
10.1587003252473
 20
9.79293121113086
 30
0.0
 11
9.60755969524729
 21
9.79293121113086
 31
0.0
  0
LINE
  8
3
  6
CONTINUOUS
 62
3
 10
9.60755969524729
 20
9.79293121113086
 30
0.0
 11
9.60755969524729
 21
9.37951668363086
 31
0.0
  0
LINE
  8
3
  6
CONTINUOUS
 62
3
 10
8.85756119524729
 20
9.37951668363086
 30
0.0
 11
8.85756119524729
 21
9.24171184113086
 31
0.0
  0
LINE
  8
3
  6
CONTINUOUS
 62
3
 10
8.85756119524729
 20
9.24171184113086
 30
0.0
 11
9.40870182524728
 21
9.24171184113086
 31
0.0
  0
LINE
  8
3
  6
CONTINUOUS
 62
3
 10
9.40870182524728
 20
9.24171184113086
 30
0.0
 11
9.40870182524728
 21
9.79293121113086
 31
0.0
  0
LINE
  8
3
  6
CONTINUOUS
 62
3
 10
9.40870182524728
 20
9.79293121113086
 30
0.0
 11
8.85756119524729
 21
9.79293121113086
 31
0.0
  0
LINE
  8
3
  6
CONTINUOUS
 62
3
 10
8.85756119524729
 20
9.79293121113086
 30
0.0
 11
8.85756119524729
 21
9.37951668363086
 31
0.0
  0
LINE
  8
3
  6
CONTINUOUS
 62
3
 10
8.10756269524728
 20
9.37951668363086
 30
0.0
 11
8.10756269524728
 21
9.24171184113086
 31
0.0
  0
LINE
  8
3
  6
CONTINUOUS
 62
3
 10
8.10756269524728
 20
9.24171184113086
 30
0.0
 11
8.65870332524727
 21
9.24171184113086
 31
0.0
  0
LINE
  8
3
  6
CONTINUOUS
 62
3
 10
8.65870332524727
 20
9.24171184113086
 30
0.0
 11
8.65870332524727
 21
9.79293121113086
 31
0.0
  0
LINE
  8
3
  6
CONTINUOUS
 62
3
 10
8.65870332524727
 20
9.79293121113086
 30
0.0
 11
8.10756269524728
 21
9.79293121113086
 31
0.0
  0
LINE
  8
3
  6
CONTINUOUS
 62
3
 10
8.10756269524728
 20
9.79293121113086
 30
0.0
 11
8.10756269524728
 21
9.37951668363086
 31
0.0
  0
LINE
  8
3
  6
CONTINUOUS
 62
3
 10
7.35756419524728
 20
9.37951668363086
 30
0.0
 11
7.35756419524728
 21
9.24171184113086
 31
0.0
  0
LINE
  8
3
  6
CONTINUOUS
 62
3
 10
7.35756419524728
 20
9.24171184113086
 30
0.0
 11
7.9087048252473
 21
9.24171184113086
 31
0.0
  0
LINE
  8
3
  6
CONTINUOUS
 62
3
 10
7.9087048252473
 20
9.24171184113086
 30
0.0
 11
7.9087048252473
 21
9.79293121113086
 31
0.0
  0
LINE
  8
3
  6
CONTINUOUS
 62
3
 10
7.9087048252473
 20
9.79293121113086
 30
0.0
 11
7.35756419524728
 21
9.79293121113086
 31
0.0
  0
LINE
  8
3
  6
CONTINUOUS
 62
3
 10
7.35756419524728
 20
9.79293121113086
 30
0.0
 11
7.35756419524728
 21
9.37951668363086
 31
0.0
  0
LINE
  8
3
  6
CONTINUOUS
 62
3
 10
6.60756569524727
 20
9.37951668363086
 30
0.0
 11
6.60756569524727
 21
9.24171184113086
 31
0.0
  0
LINE
  8
3
  6
CONTINUOUS
 62
3
 10
6.60756569524727
 20
9.24171184113086
 30
0.0
 11
7.15870632524729
 21
9.24171184113086
 31
0.0
  0
LINE
  8
3
  6
CONTINUOUS
 62
3
 10
7.15870632524729
 20
9.24171184113086
 30
0.0
 11
7.15870632524729
 21
9.79293121113086
 31
0.0
  0
LINE
  8
3
  6
CONTINUOUS
 62
3
 10
7.15870632524729
 20
9.79293121113086
 30
0.0
 11
6.60756569524727
 21
9.79293121113086
 31
0.0
  0
LINE
  8
3
  6
CONTINUOUS
 62
3
 10
6.60756569524727
 20
9.79293121113086
 30
0.0
 11
6.60756569524727
 21
9.37951668363086
 31
0.0
  0
LINE
  8
3
  6
CONTINUOUS
 62
3
 10
5.8575671952473
 20
9.37951668363086
 30
0.0
 11
5.8575671952473
 21
9.24171184113086
 31
0.0
  0
LINE
  8
3
  6
CONTINUOUS
 62
3
 10
5.8575671952473
 20
9.24171184113086
 30
0.0
 11
6.4087196362473
 21
9.24171184113086
 31
0.0
  0
LINE
  8
3
  6
CONTINUOUS
 62
3
 10
6.4087196362473
 20
9.24171184113086
 30
0.0
 11
6.4087196362473
 21
9.79293121113086
 31
0.0
  0
LINE
  8
3
  6
CONTINUOUS
 62
3
 10
6.4087196362473
 20
9.79293121113086
 30
0.0
 11
5.8575671952473
 21
9.79293121113086
 31
0.0
  0
LINE
  8
3
  6
CONTINUOUS
 62
3
 10
5.8575671952473
 20
9.79293121113086
 30
0.0
 11
5.8575671952473
 21
9.37951668363086
 31
0.0
  0
LINE
  8
3
  6
CONTINUOUS
 62
3
 10
5.10756869524729
 20
9.37951668363086
 30
0.0
 11
5.10756869524729
 21
9.24171184113086
 31
0.0
  0
LINE
  8
3
  6
CONTINUOUS
 62
3
 10
5.10756869524729
 20
9.24171184113086
 30
0.0
 11
5.65872113624729
 21
9.24171184113086
 31
0.0
  0
LINE
  8
3
  6
CONTINUOUS
 62
3
 10
5.65872113624729
 20
9.24171184113086
 30
0.0
 11
5.65872113624729
 21
9.79293121113086
 31
0.0
  0
LINE
  8
3
  6
CONTINUOUS
 62
3
 10
5.65872113624729
 20
9.79293121113086
 30
0.0
 11
5.10756869524729
 21
9.79293121113086
 31
0.0
  0
LINE
  8
3
  6
CONTINUOUS
 62
3
 10
5.10756869524729
 20
9.79293121113086
 30
0.0
 11
5.10756869524729
 21
9.37951668363086
 31
0.0
  0
LINE
  8
3
  6
CONTINUOUS
 62
3
 10
4.81686323991396
 20
9.24171184113086
 30
0.0
 11
4.90872263624729
 21
9.24171184113086
 31
0.0
  0
LINE
  8
3
  6
CONTINUOUS
 62
3
 10
4.90872263624729
 20
9.24171184113086
 30
0.0
 11
4.90872263624729
 21
9.79293121113086
 31
0.0
  0
LINE
  8
3
  6
CONTINUOUS
 62
3
 10
4.90872263624729
 20
9.79293121113086
 30
0.0
 11
4.35756625824729
 21
9.79293121113086
 31
0.0
  0
LINE
  8
3
  6
CONTINUOUS
 62
3
 10
4.35756625824729
 20
9.79293121113086
 30
0.0
 11
4.35756625824729
 21
9.24171184113086
 31
0.0
  0
LINE
  8
3
  6
CONTINUOUS
 62
3
 10
4.35756625824729
 20
9.24171184113086
 30
0.0
 11
4.81686323991396
 21
9.24171184113086
 31
0.0
  0
LINE
  8
3
  6
CONTINUOUS
 62
3
 10
5.09622226124728
 20
8.62951916788087
 30
0.0
 11
5.09622226124728
 21
9.04293664813087
 31
0.0
  0
LINE
  8
3
  6
CONTINUOUS
 62
3
 10
5.09622226124728
 20
9.04293664813087
 30
0.0
 11
4.54501470224727
 21
9.04293664813087
 31
0.0
  0
LINE
  8
3
  6
CONTINUOUS
 62
3
 10
4.54501470224727
 20
9.04293664813087
 30
0.0
 11
4.54501470224727
 21
8.49171334113087
 31
0.0
  0
LINE
  8
3
  6
CONTINUOUS
 62
3
 10
4.54501470224727
 20
8.49171334113087
 30
0.0
 11
5.09622226124728
 21
8.49171334113087
 31
0.0
  0
LINE
  8
3
  6
CONTINUOUS
 62
3
 10
5.09622226124728
 20
8.49171334113087
 30
0.0
 11
5.09622226124728
 21
8.62951916788087
 31
0.0
  0
LINE
  8
3
  6
CONTINUOUS
 62
3
 10
6.0337203862473
 20
8.62951916788087
 30
0.0
 11
6.0337203862473
 21
9.04293664813087
 31
0.0
  0
LINE
  8
3
  6
CONTINUOUS
 62
3
 10
6.0337203862473
 20
9.04293664813087
 30
0.0
 11
5.4825679452473
 21
9.04293664813087
 31
0.0
  0
LINE
  8
3
  6
CONTINUOUS
 62
3
 10
5.4825679452473
 20
9.04293664813087
 30
0.0
 11
5.4825679452473
 21
8.49171334113087
 31
0.0
  0
LINE
  8
3
  6
CONTINUOUS
 62
3
 10
5.4825679452473
 20
8.49171334113087
 30
0.0
 11
6.0337203862473
 21
8.49171334113087
 31
0.0
  0
LINE
  8
3
  6
CONTINUOUS
 62
3
 10
6.0337203862473
 20
8.49171334113087
 30
0.0
 11
6.0337203862473
 21
8.62951916788087
 31
0.0
  0
LINE
  8
3
  6
CONTINUOUS
 62
3
 10
6.78366376824729
 20
8.62951916788087
 30
0.0
 11
6.78366376824729
 21
9.04293664813087
 31
0.0
  0
LINE
  8
3
  6
CONTINUOUS
 62
3
 10
6.78366376824729
 20
9.04293664813087
 30
0.0
 11
6.23251132724729
 21
9.04293664813087
 31
0.0
  0
LINE
  8
3
  6
CONTINUOUS
 62
3
 10
6.23251132724729
 20
9.04293664813087
 30
0.0
 11
6.23251132724729
 21
8.49171334113087
 31
0.0
  0
LINE
  8
3
  6
CONTINUOUS
 62
3
 10
6.23251132724729
 20
8.49171334113087
 30
0.0
 11
6.78366376824729
 21
8.49171334113087
 31
0.0
  0
LINE
  8
3
  6
CONTINUOUS
 62
3
 10
6.78366376824729
 20
8.49171334113087
 30
0.0
 11
6.78366376824729
 21
8.62951916788087
 31
0.0
  0
LINE
  8
3
  6
CONTINUOUS
 62
3
 10
7.53366620524727
 20
8.62951916788087
 30
0.0
 11
7.53366620524727
 21
9.04293664813087
 31
0.0
  0
LINE
  8
3
  6
CONTINUOUS
 62
3
 10
7.53366620524727
 20
9.04293664813087
 30
0.0
 11
6.9825098272473
 21
9.04293664813087
 31
0.0
  0
LINE
  8
3
  6
CONTINUOUS
 62
3
 10
6.9825098272473
 20
9.04293664813087
 30
0.0
 11
6.9825098272473
 21
8.49171334113087
 31
0.0
  0
LINE
  8
3
  6
CONTINUOUS
 62
3
 10
6.9825098272473
 20
8.49171334113087
 30
0.0
 11
7.53366620524727
 21
8.49171334113087
 31
0.0
  0
LINE
  8
3
  6
CONTINUOUS
 62
3
 10
7.53366620524727
 20
8.49171334113087
 30
0.0
 11
7.53366620524727
 21
8.62951916788087
 31
0.0
  0
LINE
  8
3
  6
CONTINUOUS
 62
3
 10
8.28370407524727
 20
8.62951916788087
 30
0.0
 11
8.28370407524727
 21
9.04293664813087
 31
0.0
  0
LINE
  8
3
  6
CONTINUOUS
 62
3
 10
8.28370407524727
 20
9.04293664813087
 30
0.0
 11
7.73256344524728
 21
9.04293664813087
 31
0.0
  0
LINE
  8
3
  6
CONTINUOUS
 62
3
 10
7.73256344524728
 20
9.04293664813087
 30
0.0
 11
7.73256344524728
 21
8.49171334113087
 31
0.0
  0
LINE
  8
3
  6
CONTINUOUS
 62
3
 10
7.73256344524728
 20
8.49171334113087
 30
0.0
 11
8.28370407524727
 21
8.49171334113087
 31
0.0
  0
LINE
  8
3
  6
CONTINUOUS
 62
3
 10
8.28370407524727
 20
8.49171334113087
 30
0.0
 11
8.28370407524727
 21
8.62951916788087
 31
0.0
  0
LINE
  8
3
  6
CONTINUOUS
 62
3
 10
9.03370257524728
 20
8.62951916788087
 30
0.0
 11
9.03370257524728
 21
9.04293664813087
 31
0.0
  0
LINE
  8
3
  6
CONTINUOUS
 62
3
 10
9.03370257524728
 20
9.04293664813087
 30
0.0
 11
8.48256194524728
 21
9.04293664813087
 31
0.0
  0
LINE
  8
3
  6
CONTINUOUS
 62
3
 10
8.48256194524728
 20
9.04293664813087
 30
0.0
 11
8.48256194524728
 21
8.49171334113087
 31
0.0
  0
LINE
  8
3
  6
CONTINUOUS
 62
3
 10
8.48256194524728
 20
8.49171334113087
 30
0.0
 11
9.03370257524728
 21
8.49171334113087
 31
0.0
  0
LINE
  8
3
  6
CONTINUOUS
 62
3
 10
9.03370257524728
 20
8.49171334113087
 30
0.0
 11
9.03370257524728
 21
8.62951916788087
 31
0.0
  0
LINE
  8
3
  6
CONTINUOUS
 62
3
 10
9.78370107524728
 20
8.62951916788087
 30
0.0
 11
9.78370107524728
 21
9.04293664813087
 31
0.0
  0
LINE
  8
3
  6
CONTINUOUS
 62
3
 10
9.78370107524728
 20
9.04293664813087
 30
0.0
 11
9.23256044524729
 21
9.04293664813087
 31
0.0
  0
LINE
  8
3
  6
CONTINUOUS
 62
3
 10
9.23256044524729
 20
9.04293664813087
 30
0.0
 11
9.23256044524729
 21
8.49171334113087
 31
0.0
  0
LINE
  8
3
  6
CONTINUOUS
 62
3
 10
9.23256044524729
 20
8.49171334113087
 30
0.0
 11
9.78370107524728
 21
8.49171334113087
 31
0.0
  0
LINE
  8
3
  6
CONTINUOUS
 62
3
 10
9.78370107524728
 20
8.49171334113087
 30
0.0
 11
9.78370107524728
 21
8.62951916788087
 31
0.0
  0
LINE
  8
3
  6
CONTINUOUS
 62
3
 10
10.5336995752473
 20
8.62951916788087
 30
0.0
 11
10.5336995752473
 21
9.04293664813087
 31
0.0
  0
LINE
  8
3
  6
CONTINUOUS
 62
3
 10
10.5336995752473
 20
9.04293664813087
 30
0.0
 11
9.98255894524729
 21
9.04293664813087
 31
0.0
  0
LINE
  8
3
  6
CONTINUOUS
 62
3
 10
9.98255894524729
 20
9.04293664813087
 30
0.0
 11
9.98255894524729
 21
8.49171334113087
 31
0.0
  0
LINE
  8
3
  6
CONTINUOUS
 62
3
 10
9.98255894524729
 20
8.49171334113087
 30
0.0
 11
10.5336995752473
 21
8.49171334113087
 31
0.0
  0
LINE
  8
3
  6
CONTINUOUS
 62
3
 10
10.5336995752473
 20
8.49171334113087
 30
0.0
 11
10.5336995752473
 21
8.62951916788087
 31
0.0
  0
LINE
  8
3
  6
CONTINUOUS
 62
3
 10
11.2836980752473
 20
8.62951916788087
 30
0.0
 11
11.2836980752473
 21
9.04293664813087
 31
0.0
  0
LINE
  8
3
  6
CONTINUOUS
 62
3
 10
11.2836980752473
 20
9.04293664813087
 30
0.0
 11
10.7325574452473
 21
9.04293664813087
 31
0.0
  0
LINE
  8
3
  6
CONTINUOUS
 62
3
 10
10.7325574452473
 20
9.04293664813087
 30
0.0
 11
10.7325574452473
 21
8.49171334113087
 31
0.0
  0
LINE
  8
3
  6
CONTINUOUS
 62
3
 10
10.7325574452473
 20
8.49171334113087
 30
0.0
 11
11.2836980752473
 21
8.49171334113087
 31
0.0
  0
LINE
  8
3
  6
CONTINUOUS
 62
3
 10
11.2836980752473
 20
8.49171334113087
 30
0.0
 11
11.2836980752473
 21
8.62951916788087
 31
0.0
  0
LINE
  8
3
  6
CONTINUOUS
 62
3
 10
12.0336965752473
 20
8.62951916788087
 30
0.0
 11
12.0336965752473
 21
9.04293664813087
 31
0.0
  0
LINE
  8
3
  6
CONTINUOUS
 62
3
 10
12.0336965752473
 20
9.04293664813087
 30
0.0
 11
11.4825559452473
 21
9.04293664813087
 31
0.0
  0
LINE
  8
3
  6
CONTINUOUS
 62
3
 10
11.4825559452473
 20
9.04293664813087
 30
0.0
 11
11.4825559452473
 21
8.49171334113087
 31
0.0
  0
LINE
  8
3
  6
CONTINUOUS
 62
3
 10
11.4825559452473
 20
8.49171334113087
 30
0.0
 11
12.0336965752473
 21
8.49171334113087
 31
0.0
  0
LINE
  8
3
  6
CONTINUOUS
 62
3
 10
12.0336965752473
 20
8.49171334113087
 30
0.0
 11
12.0336965752473
 21
8.62951916788087
 31
0.0
  0
LINE
  8
3
  6
CONTINUOUS
 62
3
 10
12.7836950752473
 20
8.62951916788087
 30
0.0
 11
12.7836950752473
 21
9.04293664813087
 31
0.0
  0
LINE
  8
3
  6
CONTINUOUS
 62
3
 10
12.7836950752473
 20
9.04293664813087
 30
0.0
 11
12.2325544452473
 21
9.04293664813087
 31
0.0
  0
LINE
  8
3
  6
CONTINUOUS
 62
3
 10
12.2325544452473
 20
9.04293664813087
 30
0.0
 11
12.2325544452473
 21
8.49171334113087
 31
0.0
  0
LINE
  8
3
  6
CONTINUOUS
 62
3
 10
12.2325544452473
 20
8.49171334113087
 30
0.0
 11
12.7836950752473
 21
8.49171334113087
 31
0.0
  0
LINE
  8
3
  6
CONTINUOUS
 62
3
 10
12.7836950752473
 20
8.49171334113087
 30
0.0
 11
12.7836950752473
 21
8.62951916788087
 31
0.0
  0
LINE
  8
3
  6
CONTINUOUS
 62
3
 10
13.5336935752473
 20
8.62951916788087
 30
0.0
 11
13.5336935752473
 21
9.04293664813087
 31
0.0
  0
LINE
  8
3
  6
CONTINUOUS
 62
3
 10
13.5336935752473
 20
9.04293664813087
 30
0.0
 11
12.9825529452473
 21
9.04293664813087
 31
0.0
  0
LINE
  8
3
  6
CONTINUOUS
 62
3
 10
12.9825529452473
 20
9.04293664813087
 30
0.0
 11
12.9825529452473
 21
8.49171334113087
 31
0.0
  0
LINE
  8
3
  6
CONTINUOUS
 62
3
 10
12.9825529452473
 20
8.49171334113087
 30
0.0
 11
13.5336935752473
 21
8.49171334113087
 31
0.0
  0
LINE
  8
3
  6
CONTINUOUS
 62
3
 10
13.5336935752473
 20
8.49171334113087
 30
0.0
 11
13.5336935752473
 21
8.62951916788087
 31
0.0
  0
LINE
  8
3
  6
CONTINUOUS
 62
3
 10
14.2836920752473
 20
8.62951916788087
 30
0.0
 11
14.2836920752473
 21
9.04293664813087
 31
0.0
  0
LINE
  8
3
  6
CONTINUOUS
 62
3
 10
14.2836920752473
 20
9.04293664813087
 30
0.0
 11
13.7325514452473
 21
9.04293664813087
 31
0.0
  0
LINE
  8
3
  6
CONTINUOUS
 62
3
 10
13.7325514452473
 20
9.04293664813087
 30
0.0
 11
13.7325514452473
 21
8.49171334113087
 31
0.0
  0
LINE
  8
3
  6
CONTINUOUS
 62
3
 10
13.7325514452473
 20
8.49171334113087
 30
0.0
 11
14.2836920752473
 21
8.49171334113087
 31
0.0
  0
LINE
  8
3
  6
CONTINUOUS
 62
3
 10
14.2836920752473
 20
8.49171334113087
 30
0.0
 11
14.2836920752473
 21
8.62951916788087
 31
0.0
  0
LINE
  8
3
  6
CONTINUOUS
 62
3
 10
15.2212098852473
 20
8.62951916788087
 30
0.0
 11
15.2212098852473
 21
9.04293664813087
 31
0.0
  0
LINE
  8
3
  6
CONTINUOUS
 62
3
 10
15.2212098852473
 20
9.04293664813087
 30
0.0
 11
14.6699905152473
 21
9.04293664813087
 31
0.0
  0
LINE
  8
3
  6
CONTINUOUS
 62
3
 10
14.6699905152473
 20
9.04293664813087
 30
0.0
 11
14.6699905152473
 21
8.49171334113087
 31
0.0
  0
LINE
  8
3
  6
CONTINUOUS
 62
3
 10
14.6699905152473
 20
8.49171334113087
 30
0.0
 11
15.2212098852473
 21
8.49171334113087
 31
0.0
  0
LINE
  8
3
  6
CONTINUOUS
 62
3
 10
15.2212098852473
 20
8.49171334113087
 30
0.0
 11
15.2212098852473
 21
8.62951916788087
 31
0.0
  0
LINE
  8
3
  6
CONTINUOUS
 62
3
 10
15.7453328527473
 20
8.49171334113087
 30
0.0
 11
16.1586883252473
 21
8.49171334113087
 31
0.0
  0
LINE
  8
3
  6
CONTINUOUS
 62
3
 10
16.1586883252473
 20
8.49171334113087
 30
0.0
 11
16.1586883252473
 21
9.04293664813087
 31
0.0
  0
LINE
  8
3
  6
CONTINUOUS
 62
3
 10
16.1586883252473
 20
9.04293664813087
 30
0.0
 11
15.6075476952473
 21
9.04293664813087
 31
0.0
  0
LINE
  8
3
  6
CONTINUOUS
 62
3
 10
15.6075476952473
 20
9.04293664813087
 30
0.0
 11
15.6075476952473
 21
8.49171334113087
 31
0.0
  0
LINE
  8
3
  6
CONTINUOUS
 62
3
 10
15.6075476952473
 20
8.49171334113087
 30
0.0
 11
15.7453328527473
 21
8.49171334113087
 31
0.0
  0
LINE
  8
3
  6
CONTINUOUS
 62
3
 10
15.6075476952473
 20
8.10919704579753
 30
0.0
 11
15.6075476952473
 21
7.74171484113086
 31
0.0
  0
LINE
  8
3
  6
CONTINUOUS
 62
3
 10
15.6075476952473
 20
7.74171484113086
 30
0.0
 11
16.1586883252473
 21
7.74171484113086
 31
0.0
  0
LINE
  8
3
  6
CONTINUOUS
 62
3
 10
16.1586883252473
 20
7.74171484113086
 30
0.0
 11
16.1586883252473
 21
8.29293814813087
 31
0.0
  0
LINE
  8
3
  6
CONTINUOUS
 62
3
 10
16.1586883252473
 20
8.29293814813087
 30
0.0
 11
15.6075476952473
 21
8.29293814813087
 31
0.0
  0
LINE
  8
3
  6
CONTINUOUS
 62
3
 10
15.6075476952473
 20
8.29293814813087
 30
0.0
 11
15.6075476952473
 21
8.10919704579753
 31
0.0
  0
LINE
  8
3
  6
CONTINUOUS
 62
3
 10
14.0629444852473
 20
8.10786765213086
 30
0.0
 11
14.0305036052473
 21
8.10786765213086
 31
0.0
  0
LINE
  8
3
  6
CONTINUOUS
 62
3
 10
14.0305036052473
 20
8.10786765213086
 30
0.0
 11
14.0305036052473
 21
7.99763165213086
 31
0.0
  0
LINE
  8
3
  6
CONTINUOUS
 62
3
 10
14.0305036052473
 20
7.99763165213086
 30
0.0
 11
14.0629444852473
 21
7.99763165213086
 31
0.0
  0
LINE
  8
3
  6
CONTINUOUS
 62
3
 10
14.0629444852473
 20
7.99763165213086
 30
0.0
 11
14.0629444852473
 21
7.75076994113087
 31
0.0
  0
LINE
  8
3
  6
CONTINUOUS
 62
3
 10
14.0629444852473
 20
7.75076994113087
 30
0.0
 11
14.1308577352473
 21
7.75076994113087
 31
0.0
  0
LINE
  8
3
  6
CONTINUOUS
 62
3
 10
14.1308577352473
 20
7.75076994113087
 30
0.0
 11
14.1308577352473
 21
7.71220308913087
 31
0.0
  0
LINE
  8
3
  6
CONTINUOUS
 62
3
 10
14.1308577352473
 20
7.71220308913087
 30
0.0
 11
14.2608181052473
 21
7.71220308913087
 31
0.0
  0
LINE
  8
3
  6
CONTINUOUS
 62
3
 10
14.2608181052473
 20
7.71220308913087
 30
0.0
 11
14.2608181052473
 21
7.75076994113087
 31
0.0
  0
LINE
  8
3
  6
CONTINUOUS
 62
3
 10
14.2608181052473
 20
7.75076994113087
 30
0.0
 11
14.3286919852473
 21
7.75076994113087
 31
0.0
  0
LINE
  8
3
  6
CONTINUOUS
 62
3
 10
14.3286919852473
 20
7.75076994113087
 30
0.0
 11
14.3286919852473
 21
7.92676958913086
 31
0.0
  0
LINE
  8
3
  6
CONTINUOUS
 62
3
 10
14.3286919852473
 20
7.92676958913086
 30
0.0
 11
14.3887312352473
 21
7.92676958913086
 31
0.0
  0
LINE
  8
3
  6
CONTINUOUS
 62
3
 10
14.3887312352473
 20
7.92676958913086
 30
0.0
 11
14.3887312352473
 21
7.74171484113086
 31
0.0
  0
LINE
  8
3
  6
CONTINUOUS
 62
3
 10
14.3887312352473
 20
7.74171484113086
 30
0.0
 11
14.5718318538164
 21
7.74171484113086
 31
0.0
  0
LINE
  8
3
  6
CONTINUOUS
 62
3
 10
14.9399506052473
 20
7.74171484113086
 30
0.0
 11
14.9399506052473
 21
7.92676958913086
 31
0.0
  0
LINE
  8
3
  6
CONTINUOUS
 62
3
 10
14.9399506052473
 20
7.92676958913086
 30
0.0
 11
14.9999504852473
 21
7.92676958913086
 31
0.0
  0
LINE
  8
3
  6
CONTINUOUS
 62
3
 10
14.9999504852473
 20
7.92676958913086
 30
0.0
 11
14.9999504852473
 21
7.75076994113087
 31
0.0
  0
LINE
  8
3
  6
CONTINUOUS
 62
3
 10
14.9999504852473
 20
7.75076994113087
 30
0.0
 11
15.0678637352473
 21
7.75076994113087
 31
0.0
  0
LINE
  8
3
  6
CONTINUOUS
 62
3
 10
15.0678637352473
 20
7.75076994113087
 30
0.0
 11
15.0678637352473
 21
7.71220308913087
 31
0.0
  0
LINE
  8
3
  6
CONTINUOUS
 62
3
 10
15.0678637352473
 20
7.71220308913087
 30
0.0
 11
15.1978241052473
 21
7.71220308913087
 31
0.0
  0
LINE
  8
3
  6
CONTINUOUS
 62
3
 10
15.1978241052473
 20
7.71220308913087
 30
0.0
 11
15.1978241052473
 21
7.75076994113087
 31
0.0
  0
LINE
  8
3
  6
CONTINUOUS
 62
3
 10
15.1978241052473
 20
7.75076994113087
 30
0.0
 11
15.2656979852473
 21
7.75076994113087
 31
0.0
  0
LINE
  8
3
  6
CONTINUOUS
 62
3
 10
15.2656979852473
 20
7.75076994113087
 30
0.0
 11
15.2656979852473
 21
7.99763165213086
 31
0.0
  0
LINE
  8
3
  6
CONTINUOUS
 62
3
 10
15.2656979852473
 20
7.99763165213086
 30
0.0
 11
15.2981782352473
 21
7.99763165213086
 31
0.0
  0
LINE
  8
3
  6
CONTINUOUS
 62
3
 10
15.2981782352473
 20
7.99763165213086
 30
0.0
 11
15.2981782352473
 21
8.10786765213086
 31
0.0
  0
LINE
  8
3
  6
CONTINUOUS
 62
3
 10
15.2981782352473
 20
8.10786765213086
 30
0.0
 11
15.2656979852473
 21
8.10786765213086
 31
0.0
  0
LINE
  8
3
  6
CONTINUOUS
 62
3
 10
15.2656979852473
 20
8.10786765213086
 30
0.0
 11
15.2656979852473
 21
8.23504850013087
 31
0.0
  0
LINE
  8
3
  6
CONTINUOUS
 62
3
 10
15.2656979852473
 20
8.23504850013087
 30
0.0
 11
15.1978241052473
 21
8.23504850013087
 31
0.0
  0
LINE
  8
3
  6
CONTINUOUS
 62
3
 10
15.1978241052473
 20
8.23504850013087
 30
0.0
 11
15.1978241052473
 21
8.27128464813087
 31
0.0
  0
LINE
  8
3
  6
CONTINUOUS
 62
3
 10
15.1978241052473
 20
8.27128464813087
 30
0.0
 11
15.0678637352473
 21
8.27128464813087
 31
0.0
  0
LINE
  8
3
  6
CONTINUOUS
 62
3
 10
15.0678637352473
 20
8.27128464813087
 30
0.0
 11
15.0678637352473
 21
8.23504850013087
 31
0.0
  0
LINE
  8
3
  6
CONTINUOUS
 62
3
 10
15.0678637352473
 20
8.23504850013087
 30
0.0
 11
14.9999504852473
 21
8.23504850013087
 31
0.0
  0
LINE
  8
3
  6
CONTINUOUS
 62
3
 10
14.9999504852473
 20
8.23504850013087
 30
0.0
 11
14.9999504852473
 21
8.10786765213086
 31
0.0
  0
LINE
  8
3
  6
CONTINUOUS
 62
3
 10
14.9999504852473
 20
8.10786765213086
 30
0.0
 11
14.9399506052473
 21
8.10786765213086
 31
0.0
  0
LINE
  8
3
  6
CONTINUOUS
 62
3
 10
14.9399506052473
 20
8.10786765213086
 30
0.0
 11
14.9399506052473
 21
8.29293814813087
 31
0.0
  0
LINE
  8
3
  6
CONTINUOUS
 62
3
 10
14.9399506052473
 20
8.29293814813087
 30
0.0
 11
14.7828431514893
 21
8.29293814813087
 31
0.0
  0
LINE
  8
3
  6
CONTINUOUS
 62
3
 10
14.3887312352473
 20
8.29293814813087
 30
0.0
 11
14.3887312352473
 21
8.10786765213086
 31
0.0
  0
LINE
  8
3
  6
CONTINUOUS
 62
3
 10
14.3887312352473
 20
8.10786765213086
 30
0.0
 11
14.3286919852473
 21
8.10786765213086
 31
0.0
  0
LINE
  8
3
  6
CONTINUOUS
 62
3
 10
14.3286919852473
 20
8.10786765213086
 30
0.0
 11
14.3286919852473
 21
8.23504850013087
 31
0.0
  0
LINE
  8
3
  6
CONTINUOUS
 62
3
 10
14.3286919852473
 20
8.23504850013087
 30
0.0
 11
14.2608181052473
 21
8.23504850013087
 31
0.0
  0
LINE
  8
3
  6
CONTINUOUS
 62
3
 10
14.2608181052473
 20
8.23504850013087
 30
0.0
 11
14.2608181052473
 21
8.27128464813087
 31
0.0
  0
LINE
  8
3
  6
CONTINUOUS
 62
3
 10
14.2608181052473
 20
8.27128464813087
 30
0.0
 11
14.1308577352473
 21
8.27128464813087
 31
0.0
  0
LINE
  8
3
  6
CONTINUOUS
 62
3
 10
14.1308577352473
 20
8.27128464813087
 30
0.0
 11
14.1308577352473
 21
8.23504850013087
 31
0.0
  0
LINE
  8
3
  6
CONTINUOUS
 62
3
 10
14.1308577352473
 20
8.23504850013087
 30
0.0
 11
14.0629444852473
 21
8.23504850013087
 31
0.0
  0
LINE
  8
3
  6
CONTINUOUS
 62
3
 10
14.0629444852473
 20
8.23504850013087
 30
0.0
 11
14.0629444852473
 21
8.10786765213086
 31
0.0
  0
LINE
  8
3
  6
CONTINUOUS
 62
3
 10
13.1699935152473
 20
8.01732649463086
 30
0.0
 11
13.1699935152473
 21
7.74171484113086
 31
0.0
  0
LINE
  8
3
  6
CONTINUOUS
 62
3
 10
13.1699935152473
 20
7.74171484113086
 30
0.0
 11
13.7212128852473
 21
7.74171484113086
 31
0.0
  0
LINE
  8
3
  6
CONTINUOUS
 62
3
 10
13.7212128852473
 20
7.74171484113086
 30
0.0
 11
13.7212128852473
 21
8.29293814813087
 31
0.0
  0
LINE
  8
3
  6
CONTINUOUS
 62
3
 10
13.7212128852473
 20
8.29293814813087
 30
0.0
 11
13.1699935152473
 21
8.29293814813087
 31
0.0
  0
LINE
  8
3
  6
CONTINUOUS
 62
3
 10
13.1699935152473
 20
8.29293814813087
 30
0.0
 11
13.1699935152473
 21
8.01732649463086
 31
0.0
  0
LINE
  8
3
  6
CONTINUOUS
 62
3
 10
12.4199950152473
 20
8.01732649463086
 30
0.0
 11
12.4199950152473
 21
7.74171484113086
 31
0.0
  0
LINE
  8
3
  6
CONTINUOUS
 62
3
 10
12.4199950152473
 20
7.74171484113086
 30
0.0
 11
12.9712143852473
 21
7.74171484113086
 31
0.0
  0
LINE
  8
3
  6
CONTINUOUS
 62
3
 10
12.9712143852473
 20
7.74171484113086
 30
0.0
 11
12.9712143852473
 21
8.29293814813087
 31
0.0
  0
LINE
  8
3
  6
CONTINUOUS
 62
3
 10
12.9712143852473
 20
8.29293814813087
 30
0.0
 11
12.4199950152473
 21
8.29293814813087
 31
0.0
  0
LINE
  8
3
  6
CONTINUOUS
 62
3
 10
12.4199950152473
 20
8.29293814813087
 30
0.0
 11
12.4199950152473
 21
8.01732649463086
 31
0.0
  0
LINE
  8
3
  6
CONTINUOUS
 62
3
 10
11.6699965152473
 20
8.01732649463086
 30
0.0
 11
11.6699965152473
 21
7.74171484113086
 31
0.0
  0
LINE
  8
3
  6
CONTINUOUS
 62
3
 10
11.6699965152473
 20
7.74171484113086
 30
0.0
 11
12.2212158852473
 21
7.74171484113086
 31
0.0
  0
LINE
  8
3
  6
CONTINUOUS
 62
3
 10
12.2212158852473
 20
7.74171484113086
 30
0.0
 11
12.2212158852473
 21
8.29293814813087
 31
0.0
  0
LINE
  8
3
  6
CONTINUOUS
 62
3
 10
12.2212158852473
 20
8.29293814813087
 30
0.0
 11
11.6699965152473
 21
8.29293814813087
 31
0.0
  0
LINE
  8
3
  6
CONTINUOUS
 62
3
 10
11.6699965152473
 20
8.29293814813087
 30
0.0
 11
11.6699965152473
 21
8.01732649463086
 31
0.0
  0
LINE
  8
3
  6
CONTINUOUS
 62
3
 10
10.9199980152473
 20
8.01732649463086
 30
0.0
 11
10.9199980152473
 21
7.74171484113086
 31
0.0
  0
LINE
  8
3
  6
CONTINUOUS
 62
3
 10
10.9199980152473
 20
7.74171484113086
 30
0.0
 11
11.4712173852473
 21
7.74171484113086
 31
0.0
  0
LINE
  8
3
  6
CONTINUOUS
 62
3
 10
11.4712173852473
 20
7.74171484113086
 30
0.0
 11
11.4712173852473
 21
8.29293814813087
 31
0.0
  0
LINE
  8
3
  6
CONTINUOUS
 62
3
 10
11.4712173852473
 20
8.29293814813087
 30
0.0
 11
10.9199980152473
 21
8.29293814813087
 31
0.0
  0
LINE
  8
3
  6
CONTINUOUS
 62
3
 10
10.9199980152473
 20
8.29293814813087
 30
0.0
 11
10.9199980152473
 21
8.01732649463086
 31
0.0
  0
LINE
  8
3
  6
CONTINUOUS
 62
3
 10
10.1699995152473
 20
8.01732649463086
 30
0.0
 11
10.1699995152473
 21
7.74171484113086
 31
0.0
  0
LINE
  8
3
  6
CONTINUOUS
 62
3
 10
10.1699995152473
 20
7.74171484113086
 30
0.0
 11
10.7212188852473
 21
7.74171484113086
 31
0.0
  0
LINE
  8
3
  6
CONTINUOUS
 62
3
 10
10.7212188852473
 20
7.74171484113086
 30
0.0
 11
10.7212188852473
 21
8.29293814813087
 31
0.0
  0
LINE
  8
3
  6
CONTINUOUS
 62
3
 10
10.7212188852473
 20
8.29293814813087
 30
0.0
 11
10.1699995152473
 21
8.29293814813087
 31
0.0
  0
LINE
  8
3
  6
CONTINUOUS
 62
3
 10
10.1699995152473
 20
8.29293814813087
 30
0.0
 11
10.1699995152473
 21
8.01732649463086
 31
0.0
  0
LINE
  8
3
  6
CONTINUOUS
 62
3
 10
9.42000101524729
 20
8.01732649463086
 30
0.0
 11
9.42000101524729
 21
7.74171484113086
 31
0.0
  0
LINE
  8
3
  6
CONTINUOUS
 62
3
 10
9.42000101524729
 20
7.74171484113086
 30
0.0
 11
9.97122038524728
 21
7.74171484113086
 31
0.0
  0
LINE
  8
3
  6
CONTINUOUS
 62
3
 10
9.97122038524728
 20
7.74171484113086
 30
0.0
 11
9.97122038524728
 21
8.29293814813087
 31
0.0
  0
LINE
  8
3
  6
CONTINUOUS
 62
3
 10
9.97122038524728
 20
8.29293814813087
 30
0.0
 11
9.42000101524729
 21
8.29293814813087
 31
0.0
  0
LINE
  8
3
  6
CONTINUOUS
 62
3
 10
9.42000101524729
 20
8.29293814813087
 30
0.0
 11
9.42000101524729
 21
8.01732649463086
 31
0.0
  0
LINE
  8
3
  6
CONTINUOUS
 62
3
 10
8.67000251524729
 20
8.01732649463086
 30
0.0
 11
8.67000251524729
 21
7.74171484113086
 31
0.0
  0
LINE
  8
3
  6
CONTINUOUS
 62
3
 10
8.67000251524729
 20
7.74171484113086
 30
0.0
 11
9.22122188524727
 21
7.74171484113086
 31
0.0
  0
LINE
  8
3
  6
CONTINUOUS
 62
3
 10
9.22122188524727
 20
7.74171484113086
 30
0.0
 11
9.22122188524727
 21
8.29293814813087
 31
0.0
  0
LINE
  8
3
  6
CONTINUOUS
 62
3
 10
9.22122188524727
 20
8.29293814813087
 30
0.0
 11
8.67000251524729
 21
8.29293814813087
 31
0.0
  0
LINE
  8
3
  6
CONTINUOUS
 62
3
 10
8.67000251524729
 20
8.29293814813087
 30
0.0
 11
8.67000251524729
 21
8.01732649463086
 31
0.0
  0
LINE
  8
3
  6
CONTINUOUS
 62
3
 10
7.92000401524729
 20
8.01732649463086
 30
0.0
 11
7.92000401524729
 21
7.74171484113086
 31
0.0
  0
LINE
  8
3
  6
CONTINUOUS
 62
3
 10
7.92000401524729
 20
7.74171484113086
 30
0.0
 11
8.4712233852473
 21
7.74171484113086
 31
0.0
  0
LINE
  8
3
  6
CONTINUOUS
 62
3
 10
8.4712233852473
 20
7.74171484113086
 30
0.0
 11
8.4712233852473
 21
8.29293814813087
 31
0.0
  0
LINE
  8
3
  6
CONTINUOUS
 62
3
 10
8.4712233852473
 20
8.29293814813087
 30
0.0
 11
7.92000401524729
 21
8.29293814813087
 31
0.0
  0
LINE
  8
3
  6
CONTINUOUS
 62
3
 10
7.92000401524729
 20
8.29293814813087
 30
0.0
 11
7.92000401524729
 21
8.01732649463086
 31
0.0
  0
LINE
  8
3
  6
CONTINUOUS
 62
3
 10
7.17000551524728
 20
8.01732649463086
 30
0.0
 11
7.17000551524728
 21
7.74171484113086
 31
0.0
  0
LINE
  8
3
  6
CONTINUOUS
 62
3
 10
7.17000551524728
 20
7.74171484113086
 30
0.0
 11
7.7212248852473
 21
7.74171484113086
 31
0.0
  0
LINE
  8
3
  6
CONTINUOUS
 62
3
 10
7.7212248852473
 20
7.74171484113086
 30
0.0
 11
7.7212248852473
 21
8.29293814813087
 31
0.0
  0
LINE
  8
3
  6
CONTINUOUS
 62
3
 10
7.7212248852473
 20
8.29293814813087
 30
0.0
 11
7.17000551524728
 21
8.29293814813087
 31
0.0
  0
LINE
  8
3
  6
CONTINUOUS
 62
3
 10
7.17000551524728
 20
8.29293814813087
 30
0.0
 11
7.17000551524728
 21
8.01732649463086
 31
0.0
  0
LINE
  8
3
  6
CONTINUOUS
 62
3
 10
6.42001095224728
 20
8.01732649463086
 30
0.0
 11
6.42001095224728
 21
7.74171484113086
 31
0.0
  0
LINE
  8
3
  6
CONTINUOUS
 62
3
 10
6.42001095224728
 20
7.74171484113086
 30
0.0
 11
6.97121851124729
 21
7.74171484113086
 31
0.0
  0
LINE
  8
3
  6
CONTINUOUS
 62
3
 10
6.97121851124729
 20
7.74171484113086
 30
0.0
 11
6.97121851124729
 21
8.29293814813087
 31
0.0
  0
LINE
  8
3
  6
CONTINUOUS
 62
3
 10
6.97121851124729
 20
8.29293814813087
 30
0.0
 11
6.42001095224728
 21
8.29293814813087
 31
0.0
  0
LINE
  8
3
  6
CONTINUOUS
 62
3
 10
6.42001095224728
 20
8.29293814813087
 30
0.0
 11
6.42001095224728
 21
8.01732649463086
 31
0.0
  0
LINE
  8
3
  6
CONTINUOUS
 62
3
 10
5.67001245224728
 20
8.01732649463086
 30
0.0
 11
5.67001245224728
 21
7.74171484113086
 31
0.0
  0
LINE
  8
3
  6
CONTINUOUS
 62
3
 10
5.67001245224728
 20
7.74171484113086
 30
0.0
 11
6.22122001124728
 21
7.74171484113086
 31
0.0
  0
LINE
  8
3
  6
CONTINUOUS
 62
3
 10
6.22122001124728
 20
7.74171484113086
 30
0.0
 11
6.22122001124728
 21
8.29293814813087
 31
0.0
  0
LINE
  8
3
  6
CONTINUOUS
 62
3
 10
6.22122001124728
 20
8.29293814813087
 30
0.0
 11
5.67001245224728
 21
8.29293814813087
 31
0.0
  0
LINE
  8
3
  6
CONTINUOUS
 62
3
 10
5.67001245224728
 20
8.29293814813087
 30
0.0
 11
5.67001245224728
 21
8.01732649463086
 31
0.0
  0
LINE
  8
3
  6
CONTINUOUS
 62
3
 10
4.63876254624728
 20
8.01732649463086
 30
0.0
 11
4.63876254624728
 21
7.74171484113086
 31
0.0
  0
LINE
  8
3
  6
CONTINUOUS
 62
3
 10
4.63876254624728
 20
7.74171484113086
 30
0.0
 11
5.18997010524728
 21
7.74171484113086
 31
0.0
  0
LINE
  8
3
  6
CONTINUOUS
 62
3
 10
5.18997010524728
 20
7.74171484113086
 30
0.0
 11
5.18997010524728
 21
8.29293814813087
 31
0.0
  0
LINE
  8
3
  6
CONTINUOUS
 62
3
 10
5.18997010524728
 20
8.29293814813087
 30
0.0
 11
4.63876254624728
 21
8.29293814813087
 31
0.0
  0
LINE
  8
3
  6
CONTINUOUS
 62
3
 10
4.63876254624728
 20
8.29293814813087
 30
0.0
 11
4.63876254624728
 21
8.01732649463086
 31
0.0
  0
LINE
  8
3
  6
CONTINUOUS
 62
3
 10
5.1150717182419
 20
7.54293964813087
 30
0.0
 11
5.11394586426926
 21
7.49290169379105
 31
0.0
  0
LINE
  8
3
  6
CONTINUOUS
 62
3
 10
5.0760717182419
 20
7.54293964813087
 30
0.0
 11
5.07719757221455
 21
7.49290169379105
 31
0.0
  0
LINE
  8
3
  6
CONTINUOUS
 62
3
 10
5.0760717182419
 20
7.54293964813087
 30
0.0
 11
4.82632122624727
 21
7.54293964813087
 31
0.0
  0
LINE
  8
3
  6
CONTINUOUS
 62
3
 10
5.1675546758048
 20
6.99171634113087
 30
0.0
 11
5.16868052977744
 21
7.04175429547069
 31
0.0
  0
LINE
  8
3
  6
CONTINUOUS
 62
3
 10
5.2065546758048
 20
6.99171634113087
 30
0.0
 11
5.20542882183215
 21
7.04175429547069
 31
0.0
  0
LINE
  8
3
  6
CONTINUOUS
 62
3
 10
5.2065546758048
 20
6.99171634113087
 30
0.0
 11
5.3774697302473
 21
6.99171634113087
 31
0.0
  0
LINE
  8
3
  6
CONTINUOUS
 62
3
 10
9.3213235831924
 20
6.79293327413087
 30
0.0
 11
9.32019772921976
 21
6.74289531979105
 31
0.0
  0
LINE
  8
3
  6
CONTINUOUS
 62
3
 10
9.2823235831924
 20
6.79293327413087
 30
0.0
 11
9.28344943716505
 21
6.74289531979105
 31
0.0
  0
LINE
  8
3
  6
CONTINUOUS
 62
3
 10
9.2823235831924
 20
6.79293327413087
 30
0.0
 11
9.13874173524729
 21
6.79293327413087
 31
0.0
  0
LINE
  8
3
  6
CONTINUOUS
 62
3
 10
9.45765416060057
 20
6.24177295913086
 30
0.0
 11
9.45878001457321
 21
6.29181091347068
 31
0.0
  0
LINE
  8
3
  6
CONTINUOUS
 62
3
 10
9.49665416060057
 20
6.24177295913086
 30
0.0
 11
9.49552830662792
 21
6.29181091347068
 31
0.0
  0
LINE
  8
3
  6
CONTINUOUS
 62
3
 10
9.49665416060057
 20
6.24177295913086
 30
0.0
 11
9.68996110524728
 21
6.24177295913086
 31
0.0
  0
LINE
  8
3
  6
CONTINUOUS
 62
3
 10
7.31295798524729
 20
6.41426704009453
 30
0.0
 11
7.36299593958711
 21
6.41314118612191
 31
0.0
  0
LINE
  8
3
  6
CONTINUOUS
 62
3
 10
7.31295798524729
 20
6.37526704009453
 30
0.0
 11
7.36299593958711
 21
6.3763928940672
 31
0.0
  0
LINE
  8
3
  6
CONTINUOUS
 62
3
 10
7.31295798524729
 20
6.37526704009453
 30
0.0
 11
7.31295798524729
 21
6.25083593313087
 31
0.0
  0
LINE
  8
3
  6
CONTINUOUS
 62
3
 10
11.5157054852473
 20
6.35872641958429
 30
0.0
 11
11.4656675309075
 21
6.35985227355705
 31
0.0
  0
LINE
  8
3
  6
CONTINUOUS
 62
3
 10
11.5157054852473
 20
6.39772641958429
 30
0.0
 11
11.4656675309075
 21
6.39660056561176
 31
0.0
  0
LINE
  8
3
  6
CONTINUOUS
 62
3
 10
11.5157054852473
 20
6.39772641958429
 30
0.0
 11
11.5157054852473
 21
6.49768977013087
 31
0.0
  0
LINE
  8
3
  6
CONTINUOUS
 62
3
 10
14.5718318538164
 20
7.74171484113086
 30
0.0
 11
14.5729577077891
 21
7.79175279547068
 31
0.0
  0
LINE
  8
3
  6
CONTINUOUS
 62
3
 10
14.6108318538164
 20
7.74171484113086
 30
0.0
 11
14.6097059998438
 21
7.79175279547068
 31
0.0
  0
LINE
  8
3
  6
CONTINUOUS
 62
3
 10
14.6108318538164
 20
7.74171484113086
 30
0.0
 11
14.9399506052473
 21
7.74171484113086
 31
0.0
  0
LINE
  8
3
  6
CONTINUOUS
 62
3
 10
14.7828431514893
 20
8.29293814813087
 30
0.0
 11
14.7817172975166
 21
8.24290019379105
 31
0.0
  0
LINE
  8
3
  6
CONTINUOUS
 62
3
 10
14.7438431514893
 20
8.29293814813087
 30
0.0
 11
14.7449690054619
 21
8.24290019379105
 31
0.0
  0
LINE
  8
3
  6
CONTINUOUS
 62
3
 10
14.7438431514893
 20
8.29293814813087
 30
0.0
 11
14.3887312352473
 21
8.29293814813087
 31
0.0
  0
LINE
  8
3
  6
CONTINUOUS
 62
3
 10
14.6235734314218
 20
9.79293121113086
 30
0.0
 11
14.6224475774492
 21
9.74289325679104
 31
0.0
  0
LINE
  8
3
  6
CONTINUOUS
 62
3
 10
14.5845734314218
 20
9.79293121113086
 30
0.0
 11
14.5856992853945
 21
9.74289325679104
 31
0.0
  0
LINE
  8
3
  6
CONTINUOUS
 62
3
 10
14.5845734314218
 20
9.79293121113086
 30
0.0
 11
14.4825499452473
 21
9.79293121113086
 31
0.0
  0
LINE
  8
3
  6
CONTINUOUS
 62
3
 10
14.8585173499378
 20
9.24171184113086
 30
0.0
 11
14.8596432039105
 21
9.29174979547068
 31
0.0
  0
LINE
  8
3
  6
CONTINUOUS
 62
3
 10
14.8975173499378
 20
9.24171184113086
 30
0.0
 11
14.8963914959652
 21
9.29174979547068
 31
0.0
  0
LINE
  8
3
  6
CONTINUOUS
 62
3
 10
14.8975173499378
 20
9.24171184113086
 30
0.0
 11
15.0336905752473
 21
9.24171184113086
 31
0.0
  0
LINE
  8
9
  6
CONTINUOUS
 62
9
 10
4.85261324701002
 20
6.51081020852606
 30
0.0
 11
5.0024704802473
 21
6.51735311663086
 31
0.0
  0
LINE
  8
9
  6
CONTINUOUS
 62
9
 10
5.0024704802473
 20
6.51735311663086
 30
0.0
 11
4.95251806916821
 21
6.51953408599913
 31
0.0
  0
LINE
  8
9
  6
CONTINUOUS
 62
9
 10
5.79011137201001
 20
6.51081020852606
 30
0.0
 11
5.93996860524729
 21
6.51735311663086
 31
0.0
  0
LINE
  8
9
  6
CONTINUOUS
 62
9
 10
5.93996860524729
 20
6.51735311663086
 30
0.0
 11
5.8900161941682
 21
6.51953408599913
 31
0.0
  0
LINE
  8
9
  6
CONTINUOUS
 62
9
 10
6.72760949701
 20
6.51081020852606
 30
0.0
 11
6.87746673024728
 21
6.51735311663086
 31
0.0
  0
LINE
  8
9
  6
CONTINUOUS
 62
9
 10
6.87746673024728
 20
6.51735311663086
 30
0.0
 11
6.82751431916819
 21
6.51953408599913
 31
0.0
  0
LINE
  8
9
  6
CONTINUOUS
 62
9
 10
11.3657054852473
 20
6.49768977013087
 30
0.0
 11
11.5157054852473
 21
6.49768977013087
 31
0.0
  0
LINE
  8
9
  6
CONTINUOUS
 62
9
 10
11.5157054852473
 20
6.49768977013087
 30
0.0
 11
11.5157054852473
 21
6.54768977013087
 31
0.0
  0
LINE
  8
9
  6
CONTINUOUS
 62
9
 10
12.25883859201
 20
6.64860028727607
 30
0.0
 11
12.4086958252473
 21
6.65514319538087
 31
0.0
  0
LINE
  8
9
  6
CONTINUOUS
 62
9
 10
12.4086958252473
 20
6.65514319538087
 30
0.0
 11
12.3587434141682
 21
6.65732416474913
 31
0.0
  0
LINE
  8
9
  6
CONTINUOUS
 62
9
 10
13.00883709201
 20
6.64860028727607
 30
0.0
 11
13.1586943252473
 21
6.65514319538087
 31
0.0
  0
LINE
  8
9
  6
CONTINUOUS
 62
9
 10
13.1586943252473
 20
6.65514319538087
 30
0.0
 11
13.1087419141682
 21
6.65732416474913
 31
0.0
  0
LINE
  8
9
  6
CONTINUOUS
 62
9
 10
13.75883559201
 20
6.64860028727607
 30
0.0
 11
13.9086928252473
 21
6.65514319538087
 31
0.0
  0
LINE
  8
9
  6
CONTINUOUS
 62
9
 10
13.9086928252473
 20
6.65514319538087
 30
0.0
 11
13.8587404141682
 21
6.65732416474913
 31
0.0
  0
LINE
  8
9
  6
CONTINUOUS
 62
9
 10
14.50883409201
 20
6.64860028727607
 30
0.0
 11
14.6586913252473
 21
6.65514319538087
 31
0.0
  0
LINE
  8
9
  6
CONTINUOUS
 62
9
 10
14.6586913252473
 20
6.65514319538087
 30
0.0
 11
14.6087389141682
 21
6.65732416474913
 31
0.0
  0
LINE
  8
9
  6
CONTINUOUS
 62
9
 10
15.25883259201
 20
6.64860028727607
 30
0.0
 11
15.4086898252473
 21
6.65514319538087
 31
0.0
  0
LINE
  8
9
  6
CONTINUOUS
 62
9
 10
15.4086898252473
 20
6.65514319538087
 30
0.0
 11
15.3587374141682
 21
6.65732416474913
 31
0.0
  0
LINE
  8
9
  6
CONTINUOUS
 62
9
 10
15.7518757608521
 20
6.64307604089359
 30
0.0
 11
15.7453328527473
 21
6.79293327413087
 31
0.0
  0
LINE
  8
9
  6
CONTINUOUS
 62
9
 10
15.7453328527473
 20
6.79293327413087
 30
0.0
 11
15.743151883379
 21
6.74298086305178
 31
0.0
  0
LINE
  8
9
  6
CONTINUOUS
 62
9
 10
15.7574049284846
 20
7.319806178319
 30
0.0
 11
15.6075476952473
 21
7.3132632702142
 31
0.0
  0
LINE
  8
9
  6
CONTINUOUS
 62
9
 10
15.6075476952473
 20
7.3132632702142
 30
0.0
 11
15.6575001063264
 21
7.31108230084594
 31
0.0
  0
LINE
  8
9
  6
CONTINUOUS
 62
9
 10
15.0074064284846
 20
7.319806178319
 30
0.0
 11
14.8575491952473
 21
7.3132632702142
 31
0.0
  0
LINE
  8
9
  6
CONTINUOUS
 62
9
 10
14.8575491952473
 20
7.3132632702142
 30
0.0
 11
14.9075016063264
 21
7.31108230084594
 31
0.0
  0
LINE
  8
9
  6
CONTINUOUS
 62
9
 10
13.9761486484846
 20
7.319806178319
 30
0.0
 11
13.8262914152473
 21
7.3132632702142
 31
0.0
  0
LINE
  8
9
  6
CONTINUOUS
 62
9
 10
13.8262914152473
 20
7.3132632702142
 30
0.0
 11
13.8762438263264
 21
7.31108230084594
 31
0.0
  0
LINE
  8
9
  6
CONTINUOUS
 62
9
 10
12.9448514984846
 20
7.319806178319
 30
0.0
 11
12.7949942652473
 21
7.3132632702142
 31
0.0
  0
LINE
  8
9
  6
CONTINUOUS
 62
9
 10
12.7949942652473
 20
7.3132632702142
 30
0.0
 11
12.8449466763264
 21
7.31108230084594
 31
0.0
  0
LINE
  8
9
  6
CONTINUOUS
 62
9
 10
12.1948529984846
 20
7.319806178319
 30
0.0
 11
12.0449957652473
 21
7.3132632702142
 31
0.0
  0
LINE
  8
9
  6
CONTINUOUS
 62
9
 10
12.0449957652473
 20
7.3132632702142
 30
0.0
 11
12.0949481763264
 21
7.31108230084594
 31
0.0
  0
LINE
  8
9
  6
CONTINUOUS
 62
9
 10
11.4448544984846
 20
7.319806178319
 30
0.0
 11
11.2949972652473
 21
7.3132632702142
 31
0.0
  0
LINE
  8
9
  6
CONTINUOUS
 62
9
 10
11.2949972652473
 20
7.3132632702142
 30
0.0
 11
11.3449496763264
 21
7.31108230084594
 31
0.0
  0
LINE
  8
9
  6
CONTINUOUS
 62
9
 10
10.6948559984846
 20
7.319806178319
 30
0.0
 11
10.5449987652473
 21
7.3132632702142
 31
0.0
  0
LINE
  8
9
  6
CONTINUOUS
 62
9
 10
10.5449987652473
 20
7.3132632702142
 30
0.0
 11
10.5949511763264
 21
7.31108230084594
 31
0.0
  0
LINE
  8
9
  6
CONTINUOUS
 62
9
 10
9.94485749848458
 20
7.319806178319
 30
0.0
 11
9.7950002652473
 21
7.3132632702142
 31
0.0
  0
LINE
  8
9
  6
CONTINUOUS
 62
9
 10
9.7950002652473
 20
7.3132632702142
 30
0.0
 11
9.84495267632639
 21
7.31108230084594
 31
0.0
  0
LINE
  8
9
  6
CONTINUOUS
 62
9
 10
9.19485899848457
 20
7.319806178319
 30
0.0
 11
9.04500176524729
 21
7.3132632702142
 31
0.0
  0
LINE
  8
9
  6
CONTINUOUS
 62
9
 10
9.04500176524729
 20
7.3132632702142
 30
0.0
 11
9.09495417632638
 21
7.31108230084594
 31
0.0
  0
LINE
  8
9
  6
CONTINUOUS
 62
9
 10
8.44486049848457
 20
7.319806178319
 30
0.0
 11
8.29500326524729
 21
7.3132632702142
 31
0.0
  0
LINE
  8
9
  6
CONTINUOUS
 62
9
 10
8.29500326524729
 20
7.3132632702142
 30
0.0
 11
8.34495567632638
 21
7.31108230084594
 31
0.0
  0
LINE
  8
9
  6
CONTINUOUS
 62
9
 10
7.69486199848456
 20
7.319806178319
 30
0.0
 11
7.54500476524728
 21
7.3132632702142
 31
0.0
  0
LINE
  8
9
  6
CONTINUOUS
 62
9
 10
7.54500476524728
 20
7.3132632702142
 30
0.0
 11
7.59495717632637
 21
7.31108230084594
 31
0.0
  0
LINE
  8
9
  6
CONTINUOUS
 62
9
 10
6.94486743548456
 20
7.319806178319
 30
0.0
 11
6.79501020224728
 21
7.3132632702142
 31
0.0
  0
LINE
  8
9
  6
CONTINUOUS
 62
9
 10
6.79501020224728
 20
7.3132632702142
 30
0.0
 11
6.84496261332637
 21
7.31108230084594
 31
0.0
  0
LINE
  8
9
  6
CONTINUOUS
 62
9
 10
6.19486893548456
 20
7.319806178319
 30
0.0
 11
6.04501170224728
 21
7.3132632702142
 31
0.0
  0
LINE
  8
9
  6
CONTINUOUS
 62
9
 10
6.04501170224728
 20
7.3132632702142
 30
0.0
 11
6.09496411332637
 21
7.31108230084594
 31
0.0
  0
LINE
  8
9
  6
CONTINUOUS
 62
9
 10
4.69833329324729
 20
7.33505000013087
 30
0.0
 11
4.69833329324729
 21
7.48505000013087
 31
0.0
  0
LINE
  8
9
  6
CONTINUOUS
 62
9
 10
4.69833329324729
 20
7.48505000013087
 30
0.0
 11
4.64833329324729
 21
7.48505000013087
 31
0.0
  0
LINE
  8
9
  6
CONTINUOUS
 62
9
 10
4.75886540301001
 20
10.1229722755261
 30
0.0
 11
4.90872263624729
 21
10.1295151836309
 31
0.0
  0
LINE
  8
9
  6
CONTINUOUS
 62
9
 10
4.90872263624729
 20
10.1295151836309
 30
0.0
 11
4.8587702251682
 21
10.1316961529991
 31
0.0
  0
LINE
  8
9
  6
CONTINUOUS
 62
9
 10
5.50886390301001
 20
10.1229722755261
 30
0.0
 11
5.65872113624729
 21
10.1295151836309
 31
0.0
  0
LINE
  8
9
  6
CONTINUOUS
 62
9
 10
5.65872113624729
 20
10.1295151836309
 30
0.0
 11
5.6087687251682
 21
10.1316961529991
 31
0.0
  0
LINE
  8
9
  6
CONTINUOUS
 62
9
 10
6.25886240301002
 20
10.1229722755261
 30
0.0
 11
6.4087196362473
 21
10.1295151836309
 31
0.0
  0
LINE
  8
9
  6
CONTINUOUS
 62
9
 10
6.4087196362473
 20
10.1295151836309
 30
0.0
 11
6.35876722516821
 21
10.1316961529991
 31
0.0
  0
LINE
  8
9
  6
CONTINUOUS
 62
9
 10
7.00884909201001
 20
10.1229722755261
 30
0.0
 11
7.15870632524729
 21
10.1295151836309
 31
0.0
  0
LINE
  8
9
  6
CONTINUOUS
 62
9
 10
7.15870632524729
 20
10.1295151836309
 30
0.0
 11
7.1087539141682
 21
10.1316961529991
 31
0.0
  0
LINE
  8
9
  6
CONTINUOUS
 62
9
 10
7.75884759201002
 20
10.1229722755261
 30
0.0
 11
7.9087048252473
 21
10.1295151836309
 31
0.0
  0
LINE
  8
9
  6
CONTINUOUS
 62
9
 10
7.9087048252473
 20
10.1295151836309
 30
0.0
 11
7.85875241416821
 21
10.1316961529991
 31
0.0
  0
LINE
  8
9
  6
CONTINUOUS
 62
9
 10
8.50884609200999
 20
10.1229722755261
 30
0.0
 11
8.65870332524727
 21
10.1295151836309
 31
0.0
  0
LINE
  8
9
  6
CONTINUOUS
 62
9
 10
8.65870332524727
 20
10.1295151836309
 30
0.0
 11
8.60875091416818
 21
10.1316961529991
 31
0.0
  0
LINE
  8
9
  6
CONTINUOUS
 62
9
 10
9.25884459201
 20
10.1229722755261
 30
0.0
 11
9.40870182524728
 21
10.1295151836309
 31
0.0
  0
LINE
  8
9
  6
CONTINUOUS
 62
9
 10
9.40870182524728
 20
10.1295151836309
 30
0.0
 11
9.35874941416819
 21
10.1316961529991
 31
0.0
  0
LINE
  8
9
  6
CONTINUOUS
 62
9
 10
10.00884309201
 20
10.1229722755261
 30
0.0
 11
10.1587003252473
 21
10.1295151836309
 31
0.0
  0
LINE
  8
9
  6
CONTINUOUS
 62
9
 10
10.1587003252473
 20
10.1295151836309
 30
0.0
 11
10.1087479141682
 21
10.1316961529991
 31
0.0
  0
LINE
  8
9
  6
CONTINUOUS
 62
9
 10
10.75884159201
 20
10.1229722755261
 30
0.0
 11
10.9086988252473
 21
10.1295151836309
 31
0.0
  0
LINE
  8
9
  6
CONTINUOUS
 62
9
 10
10.9086988252473
 20
10.1295151836309
 30
0.0
 11
10.8587464141682
 21
10.1316961529991
 31
0.0
  0
LINE
  8
9
  6
CONTINUOUS
 62
9
 10
11.50884009201
 20
10.1229722755261
 30
0.0
 11
11.6586973252473
 21
10.1295151836309
 31
0.0
  0
LINE
  8
9
  6
CONTINUOUS
 62
9
 10
11.6586973252473
 20
10.1295151836309
 30
0.0
 11
11.6087449141682
 21
10.1316961529991
 31
0.0
  0
LINE
  8
9
  6
CONTINUOUS
 62
9
 10
12.25883859201
 20
10.1229722755261
 30
0.0
 11
12.4086958252473
 21
10.1295151836309
 31
0.0
  0
LINE
  8
9
  6
CONTINUOUS
 62
9
 10
12.4086958252473
 20
10.1295151836309
 30
0.0
 11
12.3587434141682
 21
10.1316961529991
 31
0.0
  0
LINE
  8
9
  6
CONTINUOUS
 62
9
 10
13.00883709201
 20
10.1229722755261
 30
0.0
 11
13.1586943252473
 21
10.1295151836309
 31
0.0
  0
LINE
  8
9
  6
CONTINUOUS
 62
9
 10
13.1586943252473
 20
10.1295151836309
 30
0.0
 11
13.1087419141682
 21
10.1316961529991
 31
0.0
  0
LINE
  8
9
  6
CONTINUOUS
 62
9
 10
13.75883559201
 20
10.1229722755261
 30
0.0
 11
13.9086928252473
 21
10.1295151836309
 31
0.0
  0
LINE
  8
9
  6
CONTINUOUS
 62
9
 10
13.9086928252473
 20
10.1295151836309
 30
0.0
 11
13.8587404141682
 21
10.1316961529991
 31
0.0
  0
LINE
  8
9
  6
CONTINUOUS
 62
9
 10
14.50883409201
 20
10.1229722755261
 30
0.0
 11
14.6586913252473
 21
10.1295151836309
 31
0.0
  0
LINE
  8
9
  6
CONTINUOUS
 62
9
 10
14.6586913252473
 20
10.1295151836309
 30
0.0
 11
14.6087389141682
 21
10.1316961529991
 31
0.0
  0
LINE
  8
9
  6
CONTINUOUS
 62
9
 10
15.25883259201
 20
10.1229722755261
 30
0.0
 11
15.4086898252473
 21
10.1295151836309
 31
0.0
  0
LINE
  8
9
  6
CONTINUOUS
 62
9
 10
15.4086898252473
 20
10.1295151836309
 30
0.0
 11
15.3587374141682
 21
10.1316961529991
 31
0.0
  0
LINE
  8
9
  6
CONTINUOUS
 62
9
 10
15.7387899446425
 20
10.1415675743681
 30
0.0
 11
15.7453328527473
 21
9.99171034113087
 31
0.0
  0
LINE
  8
9
  6
CONTINUOUS
 62
9
 10
15.7453328527473
 20
9.99171034113087
 30
0.0
 11
15.7475138221156
 21
10.04166275221
 31
0.0
  0
LINE
  8
9
  6
CONTINUOUS
 62
9
 10
15.7574049284846
 20
9.61573432923566
 30
0.0
 11
15.6075476952473
 21
9.60919142113086
 31
0.0
  0
LINE
  8
9
  6
CONTINUOUS
 62
9
 10
15.6075476952473
 20
9.60919142113086
 30
0.0
 11
15.6575001063264
 21
9.60701045176259
 31
0.0
  0
LINE
  8
9
  6
CONTINUOUS
 62
9
 10
14.3067631952473
 20
9.60785284113086
 30
0.0
 11
14.1567631952473
 21
9.60785284113086
 31
0.0
  0
LINE
  8
9
  6
CONTINUOUS
 62
9
 10
14.1567631952473
 20
9.60785284113086
 30
0.0
 11
14.1567631952473
 21
9.55785284113086
 31
0.0
  0
LINE
  8
9
  6
CONTINUOUS
 62
9
 10
13.5074094284846
 20
9.38605959173566
 30
0.0
 11
13.3575521952473
 21
9.37951668363086
 31
0.0
  0
LINE
  8
9
  6
CONTINUOUS
 62
9
 10
13.3575521952473
 20
9.37951668363086
 30
0.0
 11
13.4075046063264
 21
9.37733571426259
 31
0.0
  0
LINE
  8
9
  6
CONTINUOUS
 62
9
 10
12.7574109284846
 20
9.38605959173566
 30
0.0
 11
12.6075536952473
 21
9.37951668363086
 31
0.0
  0
LINE
  8
9
  6
CONTINUOUS
 62
9
 10
12.6075536952473
 20
9.37951668363086
 30
0.0
 11
12.6575061063264
 21
9.37733571426259
 31
0.0
  0
LINE
  8
9
  6
CONTINUOUS
 62
9
 10
12.0074124284846
 20
9.38605959173566
 30
0.0
 11
11.8575551952473
 21
9.37951668363086
 31
0.0
  0
LINE
  8
9
  6
CONTINUOUS
 62
9
 10
11.8575551952473
 20
9.37951668363086
 30
0.0
 11
11.9075076063264
 21
9.37733571426259
 31
0.0
  0
LINE
  8
9
  6
CONTINUOUS
 62
9
 10
11.2574139284846
 20
9.38605959173566
 30
0.0
 11
11.1075566952473
 21
9.37951668363086
 31
0.0
  0
LINE
  8
9
  6
CONTINUOUS
 62
9
 10
11.1075566952473
 20
9.37951668363086
 30
0.0
 11
11.1575091063264
 21
9.37733571426259
 31
0.0
  0
LINE
  8
9
  6
CONTINUOUS
 62
9
 10
10.5074154284846
 20
9.38605959173566
 30
0.0
 11
10.3575581952473
 21
9.37951668363086
 31
0.0
  0
LINE
  8
9
  6
CONTINUOUS
 62
9
 10
10.3575581952473
 20
9.37951668363086
 30
0.0
 11
10.4075106063264
 21
9.37733571426259
 31
0.0
  0
LINE
  8
9
  6
CONTINUOUS
 62
9
 10
9.75741692848457
 20
9.38605959173566
 30
0.0
 11
9.60755969524729
 21
9.37951668363086
 31
0.0
  0
LINE
  8
9
  6
CONTINUOUS
 62
9
 10
9.60755969524729
 20
9.37951668363086
 30
0.0
 11
9.65751210632638
 21
9.37733571426259
 31
0.0
  0
LINE
  8
9
  6
CONTINUOUS
 62
9
 10
9.00741842848457
 20
9.38605959173566
 30
0.0
 11
8.85756119524729
 21
9.37951668363086
 31
0.0
  0
LINE
  8
9
  6
CONTINUOUS
 62
9
 10
8.85756119524729
 20
9.37951668363086
 30
0.0
 11
8.90751360632638
 21
9.37733571426259
 31
0.0
  0
LINE
  8
9
  6
CONTINUOUS
 62
9
 10
8.25741992848456
 20
9.38605959173566
 30
0.0
 11
8.10756269524728
 21
9.37951668363086
 31
0.0
  0
LINE
  8
9
  6
CONTINUOUS
 62
9
 10
8.10756269524728
 20
9.37951668363086
 30
0.0
 11
8.15751510632637
 21
9.37733571426259
 31
0.0
  0
LINE
  8
9
  6
CONTINUOUS
 62
9
 10
7.50742142848456
 20
9.38605959173566
 30
0.0
 11
7.35756419524728
 21
9.37951668363086
 31
0.0
  0
LINE
  8
9
  6
CONTINUOUS
 62
9
 10
7.35756419524728
 20
9.37951668363086
 30
0.0
 11
7.40751660632637
 21
9.37733571426259
 31
0.0
  0
LINE
  8
9
  6
CONTINUOUS
 62
9
 10
6.75742292848455
 20
9.38605959173566
 30
0.0
 11
6.60756569524727
 21
9.37951668363086
 31
0.0
  0
LINE
  8
9
  6
CONTINUOUS
 62
9
 10
6.60756569524727
 20
9.37951668363086
 30
0.0
 11
6.65751810632636
 21
9.37733571426259
 31
0.0
  0
LINE
  8
9
  6
CONTINUOUS
 62
9
 10
6.00742442848458
 20
9.38605959173566
 30
0.0
 11
5.8575671952473
 21
9.37951668363086
 31
0.0
  0
LINE
  8
9
  6
CONTINUOUS
 62
9
 10
5.8575671952473
 20
9.37951668363086
 30
0.0
 11
5.90751960632639
 21
9.37733571426259
 31
0.0
  0
LINE
  8
9
  6
CONTINUOUS
 62
9
 10
5.25742592848457
 20
9.38605959173566
 30
0.0
 11
5.10756869524729
 21
9.37951668363086
 31
0.0
  0
LINE
  8
9
  6
CONTINUOUS
 62
9
 10
5.10756869524729
 20
9.37951668363086
 30
0.0
 11
5.15752110632638
 21
9.37733571426259
 31
0.0
  0
LINE
  8
9
  6
CONTINUOUS
 62
9
 10
4.81032033180916
 20
9.39156907436814
 30
0.0
 11
4.81686323991396
 21
9.24171184113086
 31
0.0
  0
LINE
  8
9
  6
CONTINUOUS
 62
9
 10
4.81686323991396
 20
9.24171184113086
 30
0.0
 11
4.81904420928222
 21
9.29166425220995
 31
0.0
  0
LINE
  8
9
  6
CONTINUOUS
 62
9
 10
4.94636502801
 20
8.62297625977607
 30
0.0
 11
5.09622226124728
 21
8.62951916788087
 31
0.0
  0
LINE
  8
9
  6
CONTINUOUS
 62
9
 10
5.09622226124728
 20
8.62951916788087
 30
0.0
 11
5.04626985016819
 21
8.63170013724914
 31
0.0
  0
LINE
  8
9
  6
CONTINUOUS
 62
9
 10
5.88386315301002
 20
8.62297625977607
 30
0.0
 11
6.0337203862473
 21
8.62951916788087
 31
0.0
  0
LINE
  8
9
  6
CONTINUOUS
 62
9
 10
6.0337203862473
 20
8.62951916788087
 30
0.0
 11
5.98376797516821
 21
8.63170013724914
 31
0.0
  0
LINE
  8
9
  6
CONTINUOUS
 62
9
 10
6.63380653501001
 20
8.62297625977607
 30
0.0
 11
6.78366376824729
 21
8.62951916788087
 31
0.0
  0
LINE
  8
9
  6
CONTINUOUS
 62
9
 10
6.78366376824729
 20
8.62951916788087
 30
0.0
 11
6.7337113571682
 21
8.63170013724914
 31
0.0
  0
LINE
  8
9
  6
CONTINUOUS
 62
9
 10
7.38380897200999
 20
8.62297625977607
 30
0.0
 11
7.53366620524727
 21
8.62951916788087
 31
0.0
  0
LINE
  8
9
  6
CONTINUOUS
 62
9
 10
7.53366620524727
 20
8.62951916788087
 30
0.0
 11
7.48371379416818
 21
8.63170013724914
 31
0.0
  0
LINE
  8
9
  6
CONTINUOUS
 62
9
 10
8.13384684200999
 20
8.62297625977607
 30
0.0
 11
8.28370407524727
 21
8.62951916788087
 31
0.0
  0
LINE
  8
9
  6
CONTINUOUS
 62
9
 10
8.28370407524727
 20
8.62951916788087
 30
0.0
 11
8.23375166416818
 21
8.63170013724914
 31
0.0
  0
LINE
  8
9
  6
CONTINUOUS
 62
9
 10
8.88384534201
 20
8.62297625977607
 30
0.0
 11
9.03370257524728
 21
8.62951916788087
 31
0.0
  0
LINE
  8
9
  6
CONTINUOUS
 62
9
 10
9.03370257524728
 20
8.62951916788087
 30
0.0
 11
8.98375016416819
 21
8.63170013724914
 31
0.0
  0
LINE
  8
9
  6
CONTINUOUS
 62
9
 10
9.63384384201
 20
8.62297625977607
 30
0.0
 11
9.78370107524728
 21
8.62951916788087
 31
0.0
  0
LINE
  8
9
  6
CONTINUOUS
 62
9
 10
9.78370107524728
 20
8.62951916788087
 30
0.0
 11
9.73374866416819
 21
8.63170013724914
 31
0.0
  0
LINE
  8
9
  6
CONTINUOUS
 62
9
 10
10.38384234201
 20
8.62297625977607
 30
0.0
 11
10.5336995752473
 21
8.62951916788087
 31
0.0
  0
LINE
  8
9
  6
CONTINUOUS
 62
9
 10
10.5336995752473
 20
8.62951916788087
 30
0.0
 11
10.4837471641682
 21
8.63170013724914
 31
0.0
  0
LINE
  8
9
  6
CONTINUOUS
 62
9
 10
11.13384084201
 20
8.62297625977607
 30
0.0
 11
11.2836980752473
 21
8.62951916788087
 31
0.0
  0
LINE
  8
9
  6
CONTINUOUS
 62
9
 10
11.2836980752473
 20
8.62951916788087
 30
0.0
 11
11.2337456641682
 21
8.63170013724914
 31
0.0
  0
LINE
  8
9
  6
CONTINUOUS
 62
9
 10
11.88383934201
 20
8.62297625977607
 30
0.0
 11
12.0336965752473
 21
8.62951916788087
 31
0.0
  0
LINE
  8
9
  6
CONTINUOUS
 62
9
 10
12.0336965752473
 20
8.62951916788087
 30
0.0
 11
11.9837441641682
 21
8.63170013724914
 31
0.0
  0
LINE
  8
9
  6
CONTINUOUS
 62
9
 10
12.63383784201
 20
8.62297625977607
 30
0.0
 11
12.7836950752473
 21
8.62951916788087
 31
0.0
  0
LINE
  8
9
  6
CONTINUOUS
 62
9
 10
12.7836950752473
 20
8.62951916788087
 30
0.0
 11
12.7337426641682
 21
8.63170013724914
 31
0.0
  0
LINE
  8
9
  6
CONTINUOUS
 62
9
 10
13.38383634201
 20
8.62297625977607
 30
0.0
 11
13.5336935752473
 21
8.62951916788087
 31
0.0
  0
LINE
  8
9
  6
CONTINUOUS
 62
9
 10
13.5336935752473
 20
8.62951916788087
 30
0.0
 11
13.4837411641682
 21
8.63170013724914
 31
0.0
  0
LINE
  8
9
  6
CONTINUOUS
 62
9
 10
14.13383484201
 20
8.62297625977607
 30
0.0
 11
14.2836920752473
 21
8.62951916788087
 31
0.0
  0
LINE
  8
9
  6
CONTINUOUS
 62
9
 10
14.2836920752473
 20
8.62951916788087
 30
0.0
 11
14.2337396641682
 21
8.63170013724914
 31
0.0
  0
LINE
  8
9
  6
CONTINUOUS
 62
9
 10
15.07135265201
 20
8.62297625977607
 30
0.0
 11
15.2212098852473
 21
8.62951916788087
 31
0.0
  0
LINE
  8
9
  6
CONTINUOUS
 62
9
 10
15.2212098852473
 20
8.62951916788087
 30
0.0
 11
15.1712574741682
 21
8.63170013724914
 31
0.0
  0
LINE
  8
9
  6
CONTINUOUS
 62
9
 10
15.7387899446425
 20
8.64157057436815
 30
0.0
 11
15.7453328527473
 21
8.49171334113087
 31
0.0
  0
LINE
  8
9
  6
CONTINUOUS
 62
9
 10
15.7453328527473
 20
8.49171334113087
 30
0.0
 11
15.7475138221156
 21
8.54166575220996
 31
0.0
  0
LINE
  8
9
  6
CONTINUOUS
 62
9
 10
15.7574049284846
 20
8.11573995390233
 30
0.0
 11
15.6075476952473
 21
8.10919704579753
 31
0.0
  0
LINE
  8
9
  6
CONTINUOUS
 62
9
 10
15.6075476952473
 20
8.10919704579753
 30
0.0
 11
15.6575001063264
 21
8.10701607642927
 31
0.0
  0
LINE
  8
9
  6
CONTINUOUS
 62
9
 10
14.2129444852473
 20
8.10786765213086
 30
0.0
 11
14.0629444852473
 21
8.10786765213086
 31
0.0
  0
LINE
  8
9
  6
CONTINUOUS
 62
9
 10
14.0629444852473
 20
8.10786765213086
 30
0.0
 11
14.0629444852473
 21
8.05786765213086
 31
0.0
  0
LINE
  8
9
  6
CONTINUOUS
 62
9
 10
13.3198507484846
 20
8.02386940273566
 30
0.0
 11
13.1699935152473
 21
8.01732649463086
 31
0.0
  0
LINE
  8
9
  6
CONTINUOUS
 62
9
 10
13.1699935152473
 20
8.01732649463086
 30
0.0
 11
13.2199459263264
 21
8.0151455252626
 31
0.0
  0
LINE
  8
9
  6
CONTINUOUS
 62
9
 10
12.5698522484846
 20
8.02386940273566
 30
0.0
 11
12.4199950152473
 21
8.01732649463086
 31
0.0
  0
LINE
  8
9
  6
CONTINUOUS
 62
9
 10
12.4199950152473
 20
8.01732649463086
 30
0.0
 11
12.4699474263264
 21
8.0151455252626
 31
0.0
  0
LINE
  8
9
  6
CONTINUOUS
 62
9
 10
11.8198537484846
 20
8.02386940273566
 30
0.0
 11
11.6699965152473
 21
8.01732649463086
 31
0.0
  0
LINE
  8
9
  6
CONTINUOUS
 62
9
 10
11.6699965152473
 20
8.01732649463086
 30
0.0
 11
11.7199489263264
 21
8.0151455252626
 31
0.0
  0
LINE
  8
9
  6
CONTINUOUS
 62
9
 10
11.0698552484846
 20
8.02386940273566
 30
0.0
 11
10.9199980152473
 21
8.01732649463086
 31
0.0
  0
LINE
  8
9
  6
CONTINUOUS
 62
9
 10
10.9199980152473
 20
8.01732649463086
 30
0.0
 11
10.9699504263264
 21
8.0151455252626
 31
0.0
  0
LINE
  8
9
  6
CONTINUOUS
 62
9
 10
10.3198567484846
 20
8.02386940273566
 30
0.0
 11
10.1699995152473
 21
8.01732649463086
 31
0.0
  0
LINE
  8
9
  6
CONTINUOUS
 62
9
 10
10.1699995152473
 20
8.01732649463086
 30
0.0
 11
10.2199519263264
 21
8.0151455252626
 31
0.0
  0
LINE
  8
9
  6
CONTINUOUS
 62
9
 10
9.56985824848457
 20
8.02386940273566
 30
0.0
 11
9.42000101524729
 21
8.01732649463086
 31
0.0
  0
LINE
  8
9
  6
CONTINUOUS
 62
9
 10
9.42000101524729
 20
8.01732649463086
 30
0.0
 11
9.46995342632638
 21
8.0151455252626
 31
0.0
  0
LINE
  8
9
  6
CONTINUOUS
 62
9
 10
8.81985974848457
 20
8.02386940273566
 30
0.0
 11
8.67000251524729
 21
8.01732649463086
 31
0.0
  0
LINE
  8
9
  6
CONTINUOUS
 62
9
 10
8.67000251524729
 20
8.01732649463086
 30
0.0
 11
8.71995492632638
 21
8.0151455252626
 31
0.0
  0
LINE
  8
9
  6
CONTINUOUS
 62
9
 10
8.06986124848457
 20
8.02386940273566
 30
0.0
 11
7.92000401524729
 21
8.01732649463086
 31
0.0
  0
LINE
  8
9
  6
CONTINUOUS
 62
9
 10
7.92000401524729
 20
8.01732649463086
 30
0.0
 11
7.96995642632638
 21
8.0151455252626
 31
0.0
  0
LINE
  8
9
  6
CONTINUOUS
 62
9
 10
7.31986274848456
 20
8.02386940273566
 30
0.0
 11
7.17000551524728
 21
8.01732649463086
 31
0.0
  0
LINE
  8
9
  6
CONTINUOUS
 62
9
 10
7.17000551524728
 20
8.01732649463086
 30
0.0
 11
7.21995792632637
 21
8.0151455252626
 31
0.0
  0
LINE
  8
9
  6
CONTINUOUS
 62
9
 10
6.56986818548456
 20
8.02386940273566
 30
0.0
 11
6.42001095224728
 21
8.01732649463086
 31
0.0
  0
LINE
  8
9
  6
CONTINUOUS
 62
9
 10
6.42001095224728
 20
8.01732649463086
 30
0.0
 11
6.46996336332637
 21
8.0151455252626
 31
0.0
  0
LINE
  8
9
  6
CONTINUOUS
 62
9
 10
5.81986968548456
 20
8.02386940273566
 30
0.0
 11
5.67001245224728
 21
8.01732649463086
 31
0.0
  0
LINE
  8
9
  6
CONTINUOUS
 62
9
 10
5.67001245224728
 20
8.01732649463086
 30
0.0
 11
5.71996486332637
 21
8.0151455252626
 31
0.0
  0
LINE
  8
9
  6
CONTINUOUS
 62
9
 10
4.78861977948456
 20
8.02386940273566
 30
0.0
 11
4.63876254624728
 21
8.01732649463086
 31
0.0
  0
LINE
  8
9
  6
CONTINUOUS
 62
9
 10
4.63876254624728
 20
8.01732649463086
 30
0.0
 11
4.68871495732637
 21
8.0151455252626
 31
0.0
  0
LINE
  8
9
  6
CONTINUOUS
 62
9
 10
5.11394586426926
 20
7.49290169379105
 30
0.0
 11
5.11057171824191
 21
7.34293964813087
 31
0.0
  0
LINE
  8
9
  6
CONTINUOUS
 62
9
 10
5.07719757221455
 20
7.49290169379105
 30
0.0
 11
5.08057171824191
 21
7.34293964813087
 31
0.0
  0
LINE
  8
9
  6
CONTINUOUS
 62
9
 10
5.16868052977744
 20
7.04175429547069
 30
0.0
 11
5.1720546758048
 21
7.19171634113087
 31
0.0
  0
LINE
  8
9
  6
CONTINUOUS
 62
9
 10
5.20542882183215
 20
7.04175429547069
 30
0.0
 11
5.2020546758048
 21
7.19171634113087
 31
0.0
  0
LINE
  8
9
  6
CONTINUOUS
 62
9
 10
9.32019772921976
 20
6.74289531979105
 30
0.0
 11
9.3168235831924
 21
6.59293327413087
 31
0.0
  0
LINE
  8
9
  6
CONTINUOUS
 62
9
 10
9.28344943716505
 20
6.74289531979105
 30
0.0
 11
9.2868235831924
 21
6.59293327413087
 31
0.0
  0
LINE
  8
9
  6
CONTINUOUS
 62
9
 10
9.45878001457321
 20
6.29181091347068
 30
0.0
 11
9.46215416060057
 21
6.44177295913086
 31
0.0
  0
LINE
  8
9
  6
CONTINUOUS
 62
9
 10
9.49552830662792
 20
6.29181091347068
 30
0.0
 11
9.49215416060057
 21
6.44177295913086
 31
0.0
  0
LINE
  8
9
  6
CONTINUOUS
 62
9
 10
7.36299593958711
 20
6.41314118612191
 30
0.0
 11
7.51295798524729
 21
6.40976704009461
 31
0.0
  0
LINE
  8
9
  6
CONTINUOUS
 62
9
 10
7.36299593958711
 20
6.3763928940672
 30
0.0
 11
7.51295798524729
 21
6.37976704009461
 31
0.0
  0
LINE
  8
9
  6
CONTINUOUS
 62
9
 10
11.4656675309075
 20
6.35985227355705
 30
0.0
 11
11.3157054852473
 21
6.36322641958475
 31
0.0
  0
LINE
  8
9
  6
CONTINUOUS
 62
9
 10
11.4656675309075
 20
6.39660056561176
 30
0.0
 11
11.3157054852473
 21
6.39322641958475
 31
0.0
  0
LINE
  8
9
  6
CONTINUOUS
 62
9
 10
14.5729577077891
 20
7.79175279547068
 30
0.0
 11
14.5763318538164
 21
7.94171484113086
 31
0.0
  0
LINE
  8
9
  6
CONTINUOUS
 62
9
 10
14.6097059998438
 20
7.79175279547068
 30
0.0
 11
14.6063318538164
 21
7.94171484113086
 31
0.0
  0
LINE
  8
9
  6
CONTINUOUS
 62
9
 10
14.7817172975166
 20
8.24290019379105
 30
0.0
 11
14.7783431514893
 21
8.09293814813087
 31
0.0
  0
LINE
  8
9
  6
CONTINUOUS
 62
9
 10
14.7449690054619
 20
8.24290019379105
 30
0.0
 11
14.7483431514893
 21
8.09293814813087
 31
0.0
  0
LINE
  8
9
  6
CONTINUOUS
 62
9
 10
14.6224475774492
 20
9.74289325679104
 30
0.0
 11
14.6190734314218
 21
9.59293121113086
 31
0.0
  0
LINE
  8
9
  6
CONTINUOUS
 62
9
 10
14.5856992853945
 20
9.74289325679104
 30
0.0
 11
14.5890734314218
 21
9.59293121113086
 31
0.0
  0
LINE
  8
9
  6
CONTINUOUS
 62
9
 10
14.8596432039105
 20
9.29174979547068
 30
0.0
 11
14.8630173499379
 21
9.44171184113086
 31
0.0
  0
LINE
  8
9
  6
CONTINUOUS
 62
9
 10
14.8963914959652
 20
9.29174979547068
 30
0.0
 11
14.8930173499378
 21
9.44171184113086
 31
0.0
  0
ENDSEC
  0
EOF
